G04*
G04 #@! TF.GenerationSoftware,Altium Limited,Altium Designer,21.6.4 (81)*
G04*
G04 Layer_Color=255*
%FSLAX44Y44*%
%MOMM*%
G71*
G04*
G04 #@! TF.SameCoordinates,7EEBCD2D-C3DC-42FC-9086-E37A22DFF102*
G04*
G04*
G04 #@! TF.FilePolarity,Positive*
G04*
G01*
G75*
%ADD58C,1.6000*%
G04:AMPARAMS|DCode=59|XSize=1.6mm|YSize=1.6mm|CornerRadius=0.4mm|HoleSize=0mm|Usage=FLASHONLY|Rotation=0.000|XOffset=0mm|YOffset=0mm|HoleType=Round|Shape=RoundedRectangle|*
%AMROUNDEDRECTD59*
21,1,1.6000,0.8000,0,0,0.0*
21,1,0.8000,1.6000,0,0,0.0*
1,1,0.8000,0.4000,-0.4000*
1,1,0.8000,-0.4000,-0.4000*
1,1,0.8000,-0.4000,0.4000*
1,1,0.8000,0.4000,0.4000*
%
%ADD59ROUNDEDRECTD59*%
G04:AMPARAMS|DCode=60|XSize=1.6mm|YSize=1.6mm|CornerRadius=0.4mm|HoleSize=0mm|Usage=FLASHONLY|Rotation=90.000|XOffset=0mm|YOffset=0mm|HoleType=Round|Shape=RoundedRectangle|*
%AMROUNDEDRECTD60*
21,1,1.6000,0.8000,0,0,90.0*
21,1,0.8000,1.6000,0,0,90.0*
1,1,0.8000,0.4000,0.4000*
1,1,0.8000,0.4000,-0.4000*
1,1,0.8000,-0.4000,-0.4000*
1,1,0.8000,-0.4000,0.4000*
%
%ADD60ROUNDEDRECTD60*%
%ADD61C,1.5200*%
G04:AMPARAMS|DCode=62|XSize=1.52mm|YSize=1.52mm|CornerRadius=0.38mm|HoleSize=0mm|Usage=FLASHONLY|Rotation=180.000|XOffset=0mm|YOffset=0mm|HoleType=Round|Shape=RoundedRectangle|*
%AMROUNDEDRECTD62*
21,1,1.5200,0.7600,0,0,180.0*
21,1,0.7600,1.5200,0,0,180.0*
1,1,0.7600,-0.3800,0.3800*
1,1,0.7600,0.3800,0.3800*
1,1,0.7600,0.3800,-0.3800*
1,1,0.7600,-0.3800,-0.3800*
%
%ADD62ROUNDEDRECTD62*%
D58*
X562700Y347093D02*
D03*
X879450Y43250D02*
D03*
X869250Y346150D02*
D03*
Y320750D02*
D03*
X799950Y43157D02*
D03*
X274650Y19500D02*
D03*
X300050D02*
D03*
X325450D02*
D03*
X204400Y20250D02*
D03*
X179000D02*
D03*
X153600D02*
D03*
X774000Y77850D02*
D03*
Y103250D02*
D03*
X415000Y63200D02*
D03*
X245700Y57807D02*
D03*
X121450Y58507D02*
D03*
X18000Y386200D02*
D03*
X37900Y313150D02*
D03*
X63300D02*
D03*
X88700D02*
D03*
X114100D02*
D03*
X139500D02*
D03*
X266500D02*
D03*
X342700D02*
D03*
X368100D02*
D03*
X393500D02*
D03*
X444300D02*
D03*
X469700D02*
D03*
X520500D02*
D03*
X571300D02*
D03*
X596700D02*
D03*
X545900D02*
D03*
X495100D02*
D03*
X418900D02*
D03*
X317300D02*
D03*
X291900D02*
D03*
X241100D02*
D03*
X215700D02*
D03*
X190300D02*
D03*
X164900D02*
D03*
X958750Y82200D02*
D03*
Y107600D02*
D03*
D59*
X537300Y347093D02*
D03*
X619750Y452000D02*
D03*
X854050Y43250D02*
D03*
X641250Y17000D02*
D03*
X774550Y43157D02*
D03*
X350850Y19500D02*
D03*
X128200Y20250D02*
D03*
X220300Y57807D02*
D03*
X96050Y58507D02*
D03*
X622100Y313150D02*
D03*
D60*
X869250Y295350D02*
D03*
X774000Y128650D02*
D03*
X415000Y37800D02*
D03*
X18000Y360800D02*
D03*
X958750Y133000D02*
D03*
D61*
X215700Y110750D02*
D03*
X241100D02*
D03*
X342700D02*
D03*
X393500D02*
D03*
X469700D02*
D03*
X571300D02*
D03*
X596700D02*
D03*
X545900D02*
D03*
X520500D02*
D03*
X495100D02*
D03*
X444300D02*
D03*
X418900D02*
D03*
X368100D02*
D03*
X317300D02*
D03*
X291900D02*
D03*
X266500D02*
D03*
X190300D02*
D03*
X164900D02*
D03*
X139500D02*
D03*
X114100D02*
D03*
X88700D02*
D03*
X63300D02*
D03*
X37900D02*
D03*
X215700Y263150D02*
D03*
X241100D02*
D03*
X342700D02*
D03*
X393500D02*
D03*
X469700D02*
D03*
X571300D02*
D03*
X596700D02*
D03*
X545900D02*
D03*
X520500D02*
D03*
X495100D02*
D03*
X444300D02*
D03*
X418900D02*
D03*
X368100D02*
D03*
X317300D02*
D03*
X291900D02*
D03*
X266500D02*
D03*
X190300D02*
D03*
X164900D02*
D03*
X139500D02*
D03*
X114100D02*
D03*
X88700D02*
D03*
X63300D02*
D03*
X37900D02*
D03*
D62*
X622100Y110750D02*
D03*
Y263150D02*
D03*
M02*
