G04*
G04 #@! TF.GenerationSoftware,Altium Limited,Altium Designer,21.6.4 (81)*
G04*
G04 Layer_Physical_Order=2*
G04 Layer_Color=16711680*
%FSLAX44Y44*%
%MOMM*%
G71*
G04*
G04 #@! TF.SameCoordinates,7EEBCD2D-C3DC-42FC-9086-E37A22DFF102*
G04*
G04*
G04 #@! TF.FilePolarity,Positive*
G04*
G01*
G75*
%ADD56C,0.5000*%
%ADD57C,0.2540*%
%ADD58C,1.6000*%
G04:AMPARAMS|DCode=59|XSize=1.6mm|YSize=1.6mm|CornerRadius=0.4mm|HoleSize=0mm|Usage=FLASHONLY|Rotation=0.000|XOffset=0mm|YOffset=0mm|HoleType=Round|Shape=RoundedRectangle|*
%AMROUNDEDRECTD59*
21,1,1.6000,0.8000,0,0,0.0*
21,1,0.8000,1.6000,0,0,0.0*
1,1,0.8000,0.4000,-0.4000*
1,1,0.8000,-0.4000,-0.4000*
1,1,0.8000,-0.4000,0.4000*
1,1,0.8000,0.4000,0.4000*
%
%ADD59ROUNDEDRECTD59*%
G04:AMPARAMS|DCode=60|XSize=1.6mm|YSize=1.6mm|CornerRadius=0.4mm|HoleSize=0mm|Usage=FLASHONLY|Rotation=90.000|XOffset=0mm|YOffset=0mm|HoleType=Round|Shape=RoundedRectangle|*
%AMROUNDEDRECTD60*
21,1,1.6000,0.8000,0,0,90.0*
21,1,0.8000,1.6000,0,0,90.0*
1,1,0.8000,0.4000,0.4000*
1,1,0.8000,0.4000,-0.4000*
1,1,0.8000,-0.4000,-0.4000*
1,1,0.8000,-0.4000,0.4000*
%
%ADD60ROUNDEDRECTD60*%
%ADD61C,1.5200*%
G04:AMPARAMS|DCode=62|XSize=1.52mm|YSize=1.52mm|CornerRadius=0.38mm|HoleSize=0mm|Usage=FLASHONLY|Rotation=180.000|XOffset=0mm|YOffset=0mm|HoleType=Round|Shape=RoundedRectangle|*
%AMROUNDEDRECTD62*
21,1,1.5200,0.7600,0,0,180.0*
21,1,0.7600,1.5200,0,0,180.0*
1,1,0.7600,-0.3800,0.3800*
1,1,0.7600,0.3800,0.3800*
1,1,0.7600,0.3800,-0.3800*
1,1,0.7600,-0.3800,-0.3800*
%
%ADD62ROUNDEDRECTD62*%
%ADD63C,0.6000*%
%ADD64C,0.2500*%
%ADD65C,1.0000*%
G36*
X954274Y478980D02*
X950851Y478158D01*
X946559Y476380D01*
X942597Y473953D01*
X939064Y470936D01*
X936047Y467403D01*
X933620Y463441D01*
X931842Y459149D01*
X930757Y454632D01*
X930393Y450000D01*
X930757Y445368D01*
X931842Y440851D01*
X933620Y436559D01*
X936047Y432597D01*
X939064Y429064D01*
X942597Y426047D01*
X946559Y423620D01*
X950851Y421842D01*
X955368Y420757D01*
X960000Y420393D01*
X964632Y420757D01*
X969149Y421842D01*
X973441Y423620D01*
X977403Y426047D01*
X980936Y429064D01*
X983953Y432597D01*
X986380Y436559D01*
X988158Y440851D01*
X988980Y444274D01*
X990250Y444124D01*
Y35876D01*
X988980Y35726D01*
X988158Y39149D01*
X986380Y43441D01*
X983953Y47403D01*
X980936Y50936D01*
X977403Y53953D01*
X973441Y56380D01*
X969149Y58158D01*
X964632Y59243D01*
X960000Y59607D01*
X955368Y59243D01*
X950851Y58158D01*
X946559Y56380D01*
X942597Y53953D01*
X939064Y50936D01*
X936047Y47403D01*
X933620Y43441D01*
X931842Y39149D01*
X930757Y34632D01*
X930393Y30000D01*
X930757Y25368D01*
X931842Y20851D01*
X933620Y16559D01*
X936047Y12597D01*
X939064Y9064D01*
X942597Y6047D01*
X946559Y3620D01*
X950851Y1842D01*
X953233Y1270D01*
X953082Y0D01*
X36918D01*
X36767Y1270D01*
X39149Y1842D01*
X43441Y3620D01*
X47403Y6047D01*
X50936Y9064D01*
X53953Y12597D01*
X56380Y16559D01*
X58158Y20851D01*
X59243Y25368D01*
X59607Y30000D01*
X59243Y34632D01*
X58158Y39149D01*
X56380Y43441D01*
X53953Y47403D01*
X50936Y50936D01*
X47403Y53953D01*
X43441Y56380D01*
X39149Y58158D01*
X34632Y59243D01*
X30000Y59607D01*
X25368Y59243D01*
X20851Y58158D01*
X16559Y56380D01*
X12597Y53953D01*
X9064Y50936D01*
X6047Y47403D01*
X3620Y43441D01*
X1842Y39149D01*
X1270Y36767D01*
X0Y36918D01*
Y443082D01*
X1270Y443233D01*
X1842Y440851D01*
X3620Y436559D01*
X6047Y432597D01*
X9064Y429064D01*
X12597Y426047D01*
X16559Y423620D01*
X20851Y421842D01*
X25368Y420757D01*
X30000Y420393D01*
X34632Y420757D01*
X39149Y421842D01*
X43441Y423620D01*
X47403Y426047D01*
X50936Y429064D01*
X53953Y432597D01*
X56380Y436559D01*
X58158Y440851D01*
X59243Y445368D01*
X59607Y450000D01*
X59243Y454632D01*
X58158Y459149D01*
X56380Y463441D01*
X53953Y467403D01*
X50936Y470936D01*
X47403Y473953D01*
X43441Y476380D01*
X39149Y478158D01*
X35726Y478980D01*
X35876Y480250D01*
X954124D01*
X954274Y478980D01*
D02*
G37*
%LPC*%
G36*
X623750Y461114D02*
X615750D01*
X613793Y460725D01*
X612134Y459616D01*
X611025Y457957D01*
X610636Y456000D01*
Y448000D01*
X611025Y446043D01*
X612134Y444384D01*
X613793Y443275D01*
X615750Y442886D01*
X623750D01*
X625707Y443275D01*
X627366Y444384D01*
X628475Y446043D01*
X628864Y448000D01*
Y456000D01*
X628475Y457957D01*
X627366Y459616D01*
X625707Y460725D01*
X623750Y461114D01*
D02*
G37*
G36*
X563887Y356109D02*
X561513D01*
X559220Y355494D01*
X557164Y354307D01*
X555485Y352629D01*
X554298Y350573D01*
X553684Y348279D01*
Y345906D01*
X554298Y343613D01*
X555485Y341557D01*
X557164Y339878D01*
X559220Y338691D01*
X561513Y338077D01*
X563887D01*
X566180Y338691D01*
X568236Y339878D01*
X569915Y341557D01*
X571102Y343613D01*
X571716Y345906D01*
Y348279D01*
X571102Y350573D01*
X569915Y352629D01*
X568236Y354307D01*
X566180Y355494D01*
X563887Y356109D01*
D02*
G37*
G36*
X850150Y367581D02*
X753900D01*
X753008Y367403D01*
X752252Y366898D01*
X736120Y350766D01*
X734601D01*
X733125Y350155D01*
X731995Y349025D01*
X731384Y347549D01*
Y345951D01*
X731995Y344475D01*
X733125Y343345D01*
X734601Y342734D01*
X736199D01*
X737675Y343345D01*
X738805Y344475D01*
X739416Y345951D01*
Y347470D01*
X754865Y362919D01*
X849185D01*
X861443Y350661D01*
X860848Y349630D01*
X860234Y347337D01*
Y344963D01*
X860848Y342670D01*
X862035Y340614D01*
X863714Y338935D01*
X865770Y337748D01*
X868063Y337134D01*
X870437D01*
X872730Y337748D01*
X874786Y338935D01*
X876465Y340614D01*
X877652Y342670D01*
X878266Y344963D01*
Y347337D01*
X877652Y349630D01*
X876465Y351686D01*
X874786Y353365D01*
X872730Y354552D01*
X870437Y355166D01*
X868063D01*
X865770Y354552D01*
X864740Y353957D01*
X851798Y366898D01*
X851042Y367403D01*
X850150Y367581D01*
D02*
G37*
G36*
X870437Y329766D02*
X868063D01*
X865770Y329152D01*
X863714Y327965D01*
X862035Y326286D01*
X860848Y324230D01*
X860234Y321937D01*
Y319563D01*
X860848Y317270D01*
X861443Y316240D01*
X813285Y268081D01*
X773774D01*
X773707Y268148D01*
X772951Y268653D01*
X772059Y268831D01*
X733030D01*
X731956Y269905D01*
X730480Y270516D01*
X728883D01*
X727407Y269905D01*
X726277Y268775D01*
X725666Y267299D01*
Y265701D01*
X726277Y264225D01*
X727407Y263095D01*
X728883Y262484D01*
X730480D01*
X731956Y263095D01*
X733030Y264169D01*
X771093D01*
X771161Y264102D01*
X771917Y263597D01*
X772809Y263419D01*
X814250D01*
X815142Y263597D01*
X815898Y264102D01*
X864740Y312943D01*
X865770Y312348D01*
X868063Y311734D01*
X870437D01*
X872730Y312348D01*
X874786Y313535D01*
X876465Y315214D01*
X877652Y317270D01*
X878266Y319563D01*
Y321937D01*
X877652Y324230D01*
X876465Y326286D01*
X874786Y327965D01*
X872730Y329152D01*
X870437Y329766D01*
D02*
G37*
G36*
X597887Y322166D02*
X595513D01*
X593220Y321552D01*
X591164Y320365D01*
X589485Y318686D01*
X588298Y316630D01*
X587684Y314337D01*
Y311963D01*
X588298Y309670D01*
X589485Y307614D01*
X591164Y305935D01*
X593220Y304748D01*
X595513Y304134D01*
X597887D01*
X600180Y304748D01*
X602236Y305935D01*
X603915Y307614D01*
X605102Y309670D01*
X605716Y311963D01*
Y314337D01*
X605102Y316630D01*
X603915Y318686D01*
X602236Y320365D01*
X600180Y321552D01*
X597887Y322166D01*
D02*
G37*
G36*
X572487D02*
X570113D01*
X567820Y321552D01*
X565764Y320365D01*
X564085Y318686D01*
X562898Y316630D01*
X562284Y314337D01*
Y311963D01*
X562898Y309670D01*
X564085Y307614D01*
X565764Y305935D01*
X567820Y304748D01*
X570113Y304134D01*
X572487D01*
X574780Y304748D01*
X576836Y305935D01*
X578515Y307614D01*
X579702Y309670D01*
X580316Y311963D01*
Y314337D01*
X579702Y316630D01*
X578515Y318686D01*
X576836Y320365D01*
X574780Y321552D01*
X572487Y322166D01*
D02*
G37*
G36*
X547087D02*
X544713D01*
X542420Y321552D01*
X540364Y320365D01*
X538685Y318686D01*
X537498Y316630D01*
X536884Y314337D01*
Y311963D01*
X537498Y309670D01*
X538685Y307614D01*
X540364Y305935D01*
X542420Y304748D01*
X544713Y304134D01*
X547087D01*
X549380Y304748D01*
X551436Y305935D01*
X553115Y307614D01*
X554302Y309670D01*
X554916Y311963D01*
Y314337D01*
X554302Y316630D01*
X553115Y318686D01*
X551436Y320365D01*
X549380Y321552D01*
X547087Y322166D01*
D02*
G37*
G36*
X521687D02*
X519313D01*
X517020Y321552D01*
X514964Y320365D01*
X513285Y318686D01*
X512098Y316630D01*
X511484Y314337D01*
Y311963D01*
X512098Y309670D01*
X513285Y307614D01*
X514964Y305935D01*
X517020Y304748D01*
X519313Y304134D01*
X521687D01*
X523980Y304748D01*
X526036Y305935D01*
X527715Y307614D01*
X528902Y309670D01*
X529516Y311963D01*
Y314337D01*
X528902Y316630D01*
X527715Y318686D01*
X526036Y320365D01*
X523980Y321552D01*
X521687Y322166D01*
D02*
G37*
G36*
X496287D02*
X493913D01*
X491620Y321552D01*
X489564Y320365D01*
X487885Y318686D01*
X486698Y316630D01*
X486084Y314337D01*
Y311963D01*
X486698Y309670D01*
X487885Y307614D01*
X489564Y305935D01*
X491620Y304748D01*
X493913Y304134D01*
X496287D01*
X498580Y304748D01*
X500636Y305935D01*
X502315Y307614D01*
X503502Y309670D01*
X504116Y311963D01*
Y314337D01*
X503502Y316630D01*
X502315Y318686D01*
X500636Y320365D01*
X498580Y321552D01*
X496287Y322166D01*
D02*
G37*
G36*
X420087D02*
X417713D01*
X415420Y321552D01*
X413364Y320365D01*
X411685Y318686D01*
X410498Y316630D01*
X409884Y314337D01*
Y311963D01*
X410498Y309670D01*
X411685Y307614D01*
X413364Y305935D01*
X415420Y304748D01*
X417713Y304134D01*
X420087D01*
X422380Y304748D01*
X424436Y305935D01*
X426115Y307614D01*
X427302Y309670D01*
X427916Y311963D01*
Y314337D01*
X427302Y316630D01*
X426115Y318686D01*
X424436Y320365D01*
X422380Y321552D01*
X420087Y322166D01*
D02*
G37*
G36*
X394687D02*
X392313D01*
X390020Y321552D01*
X387964Y320365D01*
X386285Y318686D01*
X385098Y316630D01*
X384484Y314337D01*
Y311963D01*
X385098Y309670D01*
X386285Y307614D01*
X387964Y305935D01*
X390020Y304748D01*
X392313Y304134D01*
X394687D01*
X396980Y304748D01*
X399036Y305935D01*
X400715Y307614D01*
X401902Y309670D01*
X402516Y311963D01*
Y314337D01*
X401902Y316630D01*
X400715Y318686D01*
X399036Y320365D01*
X396980Y321552D01*
X394687Y322166D01*
D02*
G37*
G36*
X369287D02*
X366913D01*
X364620Y321552D01*
X362564Y320365D01*
X360885Y318686D01*
X359698Y316630D01*
X359084Y314337D01*
Y311963D01*
X359698Y309670D01*
X360885Y307614D01*
X362564Y305935D01*
X364620Y304748D01*
X366913Y304134D01*
X369287D01*
X371580Y304748D01*
X373636Y305935D01*
X375315Y307614D01*
X376502Y309670D01*
X377116Y311963D01*
Y314337D01*
X376502Y316630D01*
X375315Y318686D01*
X373636Y320365D01*
X371580Y321552D01*
X369287Y322166D01*
D02*
G37*
G36*
X343887D02*
X341513D01*
X339220Y321552D01*
X337164Y320365D01*
X335485Y318686D01*
X334298Y316630D01*
X333684Y314337D01*
Y311963D01*
X334298Y309670D01*
X335485Y307614D01*
X337164Y305935D01*
X339220Y304748D01*
X341513Y304134D01*
X343887D01*
X346180Y304748D01*
X348236Y305935D01*
X349915Y307614D01*
X351102Y309670D01*
X351716Y311963D01*
Y314337D01*
X351102Y316630D01*
X349915Y318686D01*
X348236Y320365D01*
X346180Y321552D01*
X343887Y322166D01*
D02*
G37*
G36*
X318487D02*
X316113D01*
X313820Y321552D01*
X311764Y320365D01*
X310085Y318686D01*
X308898Y316630D01*
X308284Y314337D01*
Y311963D01*
X308898Y309670D01*
X310085Y307614D01*
X311764Y305935D01*
X313820Y304748D01*
X316113Y304134D01*
X318487D01*
X320780Y304748D01*
X322836Y305935D01*
X324515Y307614D01*
X325702Y309670D01*
X326316Y311963D01*
Y314337D01*
X325702Y316630D01*
X324515Y318686D01*
X322836Y320365D01*
X320780Y321552D01*
X318487Y322166D01*
D02*
G37*
G36*
X293087D02*
X290713D01*
X288420Y321552D01*
X286364Y320365D01*
X284685Y318686D01*
X283498Y316630D01*
X282884Y314337D01*
Y311963D01*
X283498Y309670D01*
X284685Y307614D01*
X286364Y305935D01*
X288420Y304748D01*
X290713Y304134D01*
X293087D01*
X295380Y304748D01*
X297436Y305935D01*
X299115Y307614D01*
X300302Y309670D01*
X300916Y311963D01*
Y314337D01*
X300302Y316630D01*
X299115Y318686D01*
X297436Y320365D01*
X295380Y321552D01*
X293087Y322166D01*
D02*
G37*
G36*
X267687D02*
X265313D01*
X263020Y321552D01*
X260964Y320365D01*
X259285Y318686D01*
X258098Y316630D01*
X257484Y314337D01*
Y311963D01*
X258098Y309670D01*
X259285Y307614D01*
X260964Y305935D01*
X263020Y304748D01*
X265313Y304134D01*
X267687D01*
X269980Y304748D01*
X272036Y305935D01*
X273715Y307614D01*
X274902Y309670D01*
X275516Y311963D01*
Y314337D01*
X274902Y316630D01*
X273715Y318686D01*
X272036Y320365D01*
X269980Y321552D01*
X267687Y322166D01*
D02*
G37*
G36*
X242287D02*
X239913D01*
X237620Y321552D01*
X235564Y320365D01*
X233885Y318686D01*
X232698Y316630D01*
X232084Y314337D01*
Y311963D01*
X232698Y309670D01*
X233885Y307614D01*
X235564Y305935D01*
X237620Y304748D01*
X239913Y304134D01*
X242287D01*
X244580Y304748D01*
X246636Y305935D01*
X248315Y307614D01*
X249502Y309670D01*
X250116Y311963D01*
Y314337D01*
X249502Y316630D01*
X248315Y318686D01*
X246636Y320365D01*
X244580Y321552D01*
X242287Y322166D01*
D02*
G37*
G36*
X216887D02*
X214513D01*
X212220Y321552D01*
X210164Y320365D01*
X208485Y318686D01*
X207298Y316630D01*
X206684Y314337D01*
Y311963D01*
X207298Y309670D01*
X208485Y307614D01*
X210164Y305935D01*
X212220Y304748D01*
X214513Y304134D01*
X216887D01*
X219180Y304748D01*
X221236Y305935D01*
X222915Y307614D01*
X224102Y309670D01*
X224716Y311963D01*
Y314337D01*
X224102Y316630D01*
X222915Y318686D01*
X221236Y320365D01*
X219180Y321552D01*
X216887Y322166D01*
D02*
G37*
G36*
X191487D02*
X189113D01*
X186820Y321552D01*
X184764Y320365D01*
X183085Y318686D01*
X181898Y316630D01*
X181284Y314337D01*
Y311963D01*
X181898Y309670D01*
X183085Y307614D01*
X184764Y305935D01*
X186820Y304748D01*
X189113Y304134D01*
X191487D01*
X193780Y304748D01*
X195836Y305935D01*
X197515Y307614D01*
X198702Y309670D01*
X199316Y311963D01*
Y314337D01*
X198702Y316630D01*
X197515Y318686D01*
X195836Y320365D01*
X193780Y321552D01*
X191487Y322166D01*
D02*
G37*
G36*
X166087D02*
X163713D01*
X161420Y321552D01*
X159364Y320365D01*
X157685Y318686D01*
X156498Y316630D01*
X155884Y314337D01*
Y311963D01*
X156498Y309670D01*
X157685Y307614D01*
X159364Y305935D01*
X161420Y304748D01*
X163713Y304134D01*
X166087D01*
X168380Y304748D01*
X170436Y305935D01*
X172115Y307614D01*
X173302Y309670D01*
X173916Y311963D01*
Y314337D01*
X173302Y316630D01*
X172115Y318686D01*
X170436Y320365D01*
X168380Y321552D01*
X166087Y322166D01*
D02*
G37*
G36*
X140687D02*
X138313D01*
X136020Y321552D01*
X133964Y320365D01*
X132285Y318686D01*
X131098Y316630D01*
X130484Y314337D01*
Y311963D01*
X131098Y309670D01*
X132285Y307614D01*
X133964Y305935D01*
X136020Y304748D01*
X138313Y304134D01*
X140687D01*
X142980Y304748D01*
X145036Y305935D01*
X146715Y307614D01*
X147902Y309670D01*
X148516Y311963D01*
Y314337D01*
X147902Y316630D01*
X146715Y318686D01*
X145036Y320365D01*
X142980Y321552D01*
X140687Y322166D01*
D02*
G37*
G36*
X115287D02*
X112913D01*
X110620Y321552D01*
X108564Y320365D01*
X106885Y318686D01*
X105698Y316630D01*
X105084Y314337D01*
Y311963D01*
X105698Y309670D01*
X106885Y307614D01*
X108564Y305935D01*
X110620Y304748D01*
X112913Y304134D01*
X115287D01*
X117580Y304748D01*
X119636Y305935D01*
X121315Y307614D01*
X122502Y309670D01*
X123116Y311963D01*
Y314337D01*
X122502Y316630D01*
X121315Y318686D01*
X119636Y320365D01*
X117580Y321552D01*
X115287Y322166D01*
D02*
G37*
G36*
X89887D02*
X87513D01*
X85220Y321552D01*
X83164Y320365D01*
X81485Y318686D01*
X80298Y316630D01*
X79684Y314337D01*
Y311963D01*
X80298Y309670D01*
X81485Y307614D01*
X83164Y305935D01*
X85220Y304748D01*
X87513Y304134D01*
X89887D01*
X92180Y304748D01*
X94236Y305935D01*
X95915Y307614D01*
X97102Y309670D01*
X97716Y311963D01*
Y314337D01*
X97102Y316630D01*
X95915Y318686D01*
X94236Y320365D01*
X92180Y321552D01*
X89887Y322166D01*
D02*
G37*
G36*
X64487D02*
X62113D01*
X59820Y321552D01*
X57764Y320365D01*
X56085Y318686D01*
X54898Y316630D01*
X54284Y314337D01*
Y311963D01*
X54898Y309670D01*
X56085Y307614D01*
X57764Y305935D01*
X59820Y304748D01*
X62113Y304134D01*
X64487D01*
X66780Y304748D01*
X68836Y305935D01*
X70515Y307614D01*
X71702Y309670D01*
X72316Y311963D01*
Y314337D01*
X71702Y316630D01*
X70515Y318686D01*
X68836Y320365D01*
X66780Y321552D01*
X64487Y322166D01*
D02*
G37*
G36*
X19187Y395216D02*
X16813D01*
X14520Y394602D01*
X12464Y393415D01*
X10785Y391736D01*
X9598Y389680D01*
X8984Y387387D01*
Y385013D01*
X9598Y382720D01*
X10785Y380664D01*
X12464Y378985D01*
X14520Y377798D01*
X16683Y377219D01*
X25882Y368020D01*
Y345559D01*
X19547Y339224D01*
X18217Y337234D01*
X17750Y334886D01*
Y257910D01*
X18217Y255563D01*
X19547Y253573D01*
X48207Y224913D01*
X50197Y223583D01*
X52544Y223116D01*
X173250D01*
X175597Y223583D01*
X177587Y224913D01*
X178917Y226903D01*
X179384Y229250D01*
X178917Y231597D01*
X177587Y233587D01*
X175597Y234917D01*
X173250Y235384D01*
X55085D01*
X37205Y253264D01*
X37731Y254534D01*
X39034D01*
X41226Y255121D01*
X43190Y256255D01*
X44795Y257860D01*
X45929Y259824D01*
X46516Y262016D01*
Y264284D01*
X45929Y266476D01*
X44795Y268440D01*
X43190Y270044D01*
X41226Y271179D01*
X39034Y271766D01*
X36766D01*
X34574Y271179D01*
X32610Y270044D01*
X31288Y268723D01*
X30018Y269122D01*
Y306486D01*
X31288Y307012D01*
X32364Y305935D01*
X34420Y304748D01*
X36713Y304134D01*
X39087D01*
X41380Y304748D01*
X43436Y305935D01*
X45115Y307614D01*
X46302Y309670D01*
X46916Y311963D01*
Y314337D01*
X46302Y316630D01*
X45115Y318686D01*
X43436Y320365D01*
X41380Y321552D01*
X39087Y322166D01*
X36713D01*
X34420Y321552D01*
X32364Y320365D01*
X31288Y319288D01*
X30018Y319814D01*
Y332346D01*
X36353Y338681D01*
X37683Y340671D01*
X38150Y343018D01*
Y370560D01*
X37683Y372908D01*
X36353Y374898D01*
X26852Y384399D01*
X27016Y385013D01*
Y387387D01*
X26402Y389680D01*
X25215Y391736D01*
X23536Y393415D01*
X21480Y394602D01*
X19187Y395216D01*
D02*
G37*
G36*
X626100Y322264D02*
X618100D01*
X616143Y321875D01*
X614484Y320766D01*
X613375Y319107D01*
X612986Y317150D01*
Y309150D01*
X613375Y307193D01*
X614484Y305534D01*
X616143Y304425D01*
X618100Y304036D01*
X626100D01*
X628057Y304425D01*
X629716Y305534D01*
X630825Y307193D01*
X631214Y309150D01*
Y317150D01*
X630825Y319107D01*
X629716Y320766D01*
X628057Y321875D01*
X626100Y322264D01*
D02*
G37*
G36*
X873250Y304464D02*
X865250D01*
X863293Y304075D01*
X861634Y302966D01*
X860525Y301307D01*
X860136Y299350D01*
Y291350D01*
X860437Y289834D01*
X762935Y192331D01*
X687599D01*
X686525Y193405D01*
X685049Y194016D01*
X683451D01*
X681975Y193405D01*
X680845Y192275D01*
X680234Y190799D01*
Y189201D01*
X680845Y187725D01*
X681975Y186595D01*
X683451Y185984D01*
X685049D01*
X686525Y186595D01*
X687599Y187669D01*
X730366D01*
X731094Y186429D01*
X731095Y186399D01*
X729268Y184572D01*
X726737D01*
X725365Y184299D01*
X724202Y183522D01*
X718965Y178285D01*
X718188Y177122D01*
X717915Y175750D01*
Y150740D01*
X717484Y149699D01*
Y148101D01*
X717939Y147004D01*
X716862Y146284D01*
X604214Y258932D01*
X604729Y259824D01*
X605316Y262016D01*
Y264284D01*
X604729Y266476D01*
X603595Y268440D01*
X601990Y270044D01*
X600026Y271179D01*
X597834Y271766D01*
X595566D01*
X593374Y271179D01*
X591410Y270044D01*
X589805Y268440D01*
X588671Y266476D01*
X588084Y264284D01*
Y262016D01*
X588671Y259824D01*
X589805Y257860D01*
X591410Y256255D01*
X593374Y255121D01*
X595566Y254534D01*
X597834D01*
X600026Y255121D01*
X600918Y255636D01*
X719266Y137288D01*
X720022Y136783D01*
X720914Y136605D01*
X765083D01*
X765761Y135335D01*
X765275Y134607D01*
X764886Y132650D01*
Y124650D01*
X765275Y122693D01*
X766384Y121034D01*
X768043Y119925D01*
X770000Y119536D01*
X778000D01*
X779957Y119925D01*
X781616Y121034D01*
X782725Y122693D01*
X783114Y124650D01*
Y131333D01*
X784384Y131859D01*
X798985Y117258D01*
X799741Y116753D01*
X800633Y116576D01*
X815406D01*
X816298Y116753D01*
X817055Y117258D01*
X824754Y124958D01*
X825294Y124734D01*
X826891D01*
X828367Y125346D01*
X829497Y126476D01*
X830108Y127952D01*
Y129549D01*
X829497Y131025D01*
X828367Y132155D01*
X826891Y132766D01*
X825294D01*
X823818Y132155D01*
X822688Y131025D01*
X822076Y129549D01*
Y128873D01*
X818189Y124986D01*
X816835Y125428D01*
X816405Y126467D01*
X815331Y127541D01*
Y146785D01*
X819900Y151354D01*
X820976Y150634D01*
X820734Y150049D01*
Y148451D01*
X821345Y146975D01*
X822475Y145845D01*
X823951Y145234D01*
X825549D01*
X827025Y145845D01*
X827437Y146257D01*
X830568D01*
X843169Y133656D01*
Y133592D01*
X843234Y133267D01*
Y133142D01*
X843282Y133026D01*
X843347Y132701D01*
X843485Y132493D01*
X843485Y132493D01*
X843197Y132090D01*
X843002Y131896D01*
X842600Y131607D01*
X842599Y131608D01*
X842392Y131746D01*
X842066Y131811D01*
X841951Y131858D01*
X841826D01*
X841500Y131923D01*
X841174Y131858D01*
X841049D01*
X840934Y131811D01*
X840608Y131746D01*
X840332Y131561D01*
X840216Y131514D01*
X840128Y131425D01*
X839852Y131241D01*
X814192Y105581D01*
X782710D01*
X782402Y106730D01*
X781215Y108786D01*
X779536Y110464D01*
X777480Y111651D01*
X775187Y112266D01*
X772813D01*
X770520Y111651D01*
X768464Y110464D01*
X766785Y108786D01*
X765598Y106730D01*
X764984Y104437D01*
Y102063D01*
X765598Y99770D01*
X766785Y97714D01*
X768464Y96035D01*
X770520Y94848D01*
X772813Y94234D01*
X775187D01*
X777480Y94848D01*
X778511Y95443D01*
X809795Y64158D01*
X810552Y63653D01*
X811443Y63476D01*
X855928D01*
X871643Y47761D01*
X871048Y46730D01*
X870434Y44437D01*
Y42063D01*
X871048Y39770D01*
X872235Y37714D01*
X873914Y36035D01*
X875970Y34848D01*
X878263Y34234D01*
X880637D01*
X882930Y34848D01*
X884986Y36035D01*
X886665Y37714D01*
X887852Y39770D01*
X888466Y42063D01*
Y44437D01*
X887852Y46730D01*
X887257Y47761D01*
X902298Y62802D01*
X902803Y63558D01*
X902981Y64450D01*
Y80244D01*
X904055Y81318D01*
X904666Y82794D01*
Y84391D01*
X904055Y85867D01*
X902981Y86941D01*
Y92744D01*
X904055Y93818D01*
X904666Y95294D01*
Y96891D01*
X904055Y98367D01*
X903894Y98528D01*
X904420Y99798D01*
X905629D01*
X906521Y99975D01*
X907277Y100480D01*
X912596Y105800D01*
X913101Y106556D01*
X913279Y107448D01*
Y112295D01*
X913101Y113187D01*
X912596Y113943D01*
X901666Y124873D01*
Y126391D01*
X901055Y127867D01*
X899925Y128997D01*
X898449Y129608D01*
X896851D01*
X895375Y128997D01*
X894245Y127867D01*
X893634Y126391D01*
Y124794D01*
X894245Y123318D01*
X895375Y122188D01*
X896851Y121576D01*
X898370D01*
X904239Y115707D01*
X903634Y114516D01*
X902451D01*
X900975Y113905D01*
X899845Y112775D01*
X899234Y111299D01*
Y109780D01*
X897402Y107949D01*
X896846Y107838D01*
X896090Y107333D01*
X893802Y105045D01*
X851134D01*
X850399Y106315D01*
X850766Y107201D01*
Y108720D01*
X877808Y135762D01*
X894301D01*
X895375Y134688D01*
X896851Y134076D01*
X898449D01*
X899925Y134688D01*
X901055Y135818D01*
X901666Y137294D01*
Y138891D01*
X901055Y140367D01*
X899925Y141497D01*
X898449Y142108D01*
X896851D01*
X895375Y141497D01*
X894301Y140423D01*
X876842D01*
X875950Y140246D01*
X875194Y139741D01*
X847470Y112016D01*
X846108D01*
X845788Y112426D01*
X845486Y113189D01*
X851148Y118852D01*
X851653Y119608D01*
X851831Y120500D01*
Y129593D01*
X851766Y129918D01*
Y130043D01*
X851718Y130159D01*
X851653Y130484D01*
X851469Y130760D01*
X851421Y130876D01*
X851259Y131510D01*
X851642Y132438D01*
X873648Y154444D01*
X874153Y155201D01*
X874331Y156093D01*
Y173051D01*
X875005Y173725D01*
X875616Y175201D01*
Y176799D01*
X875005Y178275D01*
X873875Y179405D01*
X872399Y180016D01*
X870801D01*
X869325Y179405D01*
X868195Y178275D01*
X867584Y176799D01*
Y175201D01*
X868195Y173725D01*
X869325Y172595D01*
X869669Y172453D01*
Y157058D01*
X848729Y136118D01*
X847148Y136270D01*
X833182Y150236D01*
X832425Y150741D01*
X831533Y150919D01*
X828406D01*
X828155Y151525D01*
X827025Y152655D01*
X825549Y153266D01*
X823951D01*
X823366Y153024D01*
X822646Y154100D01*
X851215Y182669D01*
X887977D01*
X906834Y163812D01*
Y162294D01*
X907445Y160818D01*
X908575Y159688D01*
X910051Y159076D01*
X911649D01*
X913125Y159688D01*
X914255Y160818D01*
X914866Y162294D01*
Y163891D01*
X914255Y165367D01*
X913125Y166497D01*
X911649Y167108D01*
X910130D01*
X890591Y186648D01*
X889834Y187153D01*
X888942Y187331D01*
X850250D01*
X849358Y187153D01*
X848602Y186648D01*
X811352Y149398D01*
X810847Y148642D01*
X810669Y147750D01*
Y127541D01*
X809595Y126467D01*
X808984Y124991D01*
Y123394D01*
X809351Y122507D01*
X808616Y121237D01*
X801599D01*
X782252Y140584D01*
X781496Y141089D01*
X780604Y141267D01*
X721880D01*
X718884Y144262D01*
X719604Y145339D01*
X720701Y144884D01*
X722299D01*
X723775Y145495D01*
X724905Y146625D01*
X725516Y148101D01*
Y149699D01*
X725085Y150740D01*
Y174265D01*
X728222Y177402D01*
X730752D01*
X732124Y177675D01*
X733287Y178452D01*
X735533Y180698D01*
X735549D01*
X737025Y181309D01*
X738155Y182439D01*
X738766Y183915D01*
Y185513D01*
X738399Y186399D01*
X739134Y187669D01*
X763900D01*
X764792Y187847D01*
X765548Y188352D01*
X863734Y286537D01*
X865250Y286236D01*
X873250D01*
X875207Y286625D01*
X876866Y287734D01*
X877975Y289393D01*
X878364Y291350D01*
Y299350D01*
X877975Y301307D01*
X876866Y302966D01*
X875207Y304075D01*
X873250Y304464D01*
D02*
G37*
G36*
X326299Y355516D02*
X324701D01*
X323225Y354905D01*
X322095Y353775D01*
X321484Y352299D01*
Y350701D01*
X322095Y349225D01*
X323225Y348095D01*
X324701Y347484D01*
X326299D01*
X327775Y348095D01*
X328849Y349169D01*
X419531D01*
X445264Y323436D01*
X444738Y322166D01*
X443113D01*
X440820Y321552D01*
X438764Y320365D01*
X437085Y318686D01*
X435898Y316630D01*
X435284Y314337D01*
Y311963D01*
X435898Y309670D01*
X437085Y307614D01*
X438764Y305935D01*
X440820Y304748D01*
X443113Y304134D01*
X445487D01*
X447780Y304748D01*
X449836Y305935D01*
X451515Y307614D01*
X452702Y309670D01*
X453316Y311963D01*
Y313588D01*
X454586Y314114D01*
X457083Y311617D01*
Y308889D01*
X457261Y307997D01*
X457766Y307241D01*
X477255Y287752D01*
Y269576D01*
X475985Y269050D01*
X474990Y270044D01*
X473026Y271179D01*
X470834Y271766D01*
X468566D01*
X466374Y271179D01*
X464410Y270044D01*
X462805Y268440D01*
X461671Y266476D01*
X461084Y264284D01*
Y262016D01*
X461671Y259824D01*
X462805Y257860D01*
X464410Y256255D01*
X466374Y255121D01*
X468566Y254534D01*
X470834D01*
X473026Y255121D01*
X474990Y256255D01*
X476595Y257860D01*
X477729Y259824D01*
X478072Y261105D01*
X479488Y261484D01*
X602621Y138352D01*
X603377Y137847D01*
X604269Y137669D01*
X637401D01*
X638475Y136595D01*
X639951Y135984D01*
X641549D01*
X643025Y136595D01*
X644155Y137725D01*
X644766Y139201D01*
Y140799D01*
X644155Y142275D01*
X643025Y143405D01*
X641549Y144016D01*
X639951D01*
X638475Y143405D01*
X637401Y142331D01*
X605234D01*
X494301Y253264D01*
X494827Y254534D01*
X496234D01*
X498426Y255121D01*
X500390Y256255D01*
X501995Y257860D01*
X503129Y259824D01*
X503716Y262016D01*
Y264284D01*
X503129Y266476D01*
X501995Y268440D01*
X500390Y270044D01*
X498426Y271179D01*
X496234Y271766D01*
X493966D01*
X491774Y271179D01*
X489810Y270044D01*
X488205Y268440D01*
X487071Y266476D01*
X486484Y264284D01*
Y262877D01*
X485214Y262351D01*
X481917Y265648D01*
Y288717D01*
X481739Y289609D01*
X481234Y290366D01*
X468736Y302864D01*
X469262Y304134D01*
X470887D01*
X473180Y304748D01*
X475236Y305935D01*
X476915Y307614D01*
X478102Y309670D01*
X478716Y311963D01*
Y314337D01*
X478102Y316630D01*
X476915Y318686D01*
X475236Y320365D01*
X473180Y321552D01*
X470887Y322166D01*
X468513D01*
X466220Y321552D01*
X464164Y320365D01*
X462485Y318686D01*
X461298Y316630D01*
X461070Y315778D01*
X459843Y315449D01*
X422145Y353148D01*
X421389Y353653D01*
X420497Y353831D01*
X328849D01*
X327775Y354905D01*
X326299Y355516D01*
D02*
G37*
G36*
X801199Y258766D02*
X799601D01*
X798125Y258155D01*
X796995Y257025D01*
X796905Y256806D01*
X756524D01*
X755725Y257605D01*
X754249Y258216D01*
X752651D01*
X751175Y257605D01*
X750045Y256475D01*
X749434Y254999D01*
Y253401D01*
X750045Y251925D01*
X751175Y250795D01*
X752651Y250184D01*
X754249D01*
X755725Y250795D01*
X756855Y251925D01*
X756945Y252144D01*
X797326D01*
X798125Y251345D01*
X799601Y250734D01*
X801199D01*
X802675Y251345D01*
X803805Y252475D01*
X804416Y253951D01*
Y255549D01*
X803805Y257025D01*
X802675Y258155D01*
X801199Y258766D01*
D02*
G37*
G36*
X572434Y271766D02*
X570166D01*
X567974Y271179D01*
X566010Y270044D01*
X564406Y268440D01*
X563271Y266476D01*
X562684Y264284D01*
Y262016D01*
X563271Y259824D01*
X564406Y257860D01*
X566010Y256255D01*
X567974Y255121D01*
X570166Y254534D01*
X572434D01*
X574626Y255121D01*
X576590Y256255D01*
X578195Y257860D01*
X579329Y259824D01*
X579916Y262016D01*
Y264284D01*
X579329Y266476D01*
X578195Y268440D01*
X576590Y270044D01*
X574626Y271179D01*
X572434Y271766D01*
D02*
G37*
G36*
X547034D02*
X544766D01*
X542574Y271179D01*
X540610Y270044D01*
X539006Y268440D01*
X537871Y266476D01*
X537284Y264284D01*
Y262016D01*
X537871Y259824D01*
X539006Y257860D01*
X540610Y256255D01*
X542574Y255121D01*
X544766Y254534D01*
X547034D01*
X549226Y255121D01*
X551190Y256255D01*
X552794Y257860D01*
X553929Y259824D01*
X554516Y262016D01*
Y264284D01*
X553929Y266476D01*
X552794Y268440D01*
X551190Y270044D01*
X549226Y271179D01*
X547034Y271766D01*
D02*
G37*
G36*
X521634D02*
X519366D01*
X517174Y271179D01*
X515210Y270044D01*
X513605Y268440D01*
X512471Y266476D01*
X511884Y264284D01*
Y262016D01*
X512471Y259824D01*
X513605Y257860D01*
X515210Y256255D01*
X517174Y255121D01*
X519366Y254534D01*
X521634D01*
X523826Y255121D01*
X525790Y256255D01*
X527394Y257860D01*
X528529Y259824D01*
X529116Y262016D01*
Y264284D01*
X528529Y266476D01*
X527394Y268440D01*
X525790Y270044D01*
X523826Y271179D01*
X521634Y271766D01*
D02*
G37*
G36*
X445434D02*
X443166D01*
X440974Y271179D01*
X439010Y270044D01*
X437406Y268440D01*
X436271Y266476D01*
X435684Y264284D01*
Y262016D01*
X436271Y259824D01*
X437406Y257860D01*
X439010Y256255D01*
X440974Y255121D01*
X443166Y254534D01*
X445434D01*
X447626Y255121D01*
X449590Y256255D01*
X451194Y257860D01*
X452329Y259824D01*
X452916Y262016D01*
Y264284D01*
X452329Y266476D01*
X451194Y268440D01*
X449590Y270044D01*
X447626Y271179D01*
X445434Y271766D01*
D02*
G37*
G36*
X420034D02*
X417766D01*
X415574Y271179D01*
X413610Y270044D01*
X412006Y268440D01*
X410871Y266476D01*
X410284Y264284D01*
Y262016D01*
X410871Y259824D01*
X412006Y257860D01*
X413610Y256255D01*
X415574Y255121D01*
X417766Y254534D01*
X420034D01*
X422226Y255121D01*
X424190Y256255D01*
X425794Y257860D01*
X426929Y259824D01*
X427516Y262016D01*
Y264284D01*
X426929Y266476D01*
X425794Y268440D01*
X424190Y270044D01*
X422226Y271179D01*
X420034Y271766D01*
D02*
G37*
G36*
X394634D02*
X392366D01*
X390174Y271179D01*
X388210Y270044D01*
X386605Y268440D01*
X385471Y266476D01*
X384884Y264284D01*
Y262016D01*
X385471Y259824D01*
X386605Y257860D01*
X388210Y256255D01*
X390174Y255121D01*
X392366Y254534D01*
X394634D01*
X396826Y255121D01*
X398790Y256255D01*
X400395Y257860D01*
X401529Y259824D01*
X402116Y262016D01*
Y264284D01*
X401529Y266476D01*
X400395Y268440D01*
X398790Y270044D01*
X396826Y271179D01*
X394634Y271766D01*
D02*
G37*
G36*
X369234D02*
X366966D01*
X364774Y271179D01*
X362810Y270044D01*
X361205Y268440D01*
X360071Y266476D01*
X359484Y264284D01*
Y262016D01*
X360071Y259824D01*
X361205Y257860D01*
X362810Y256255D01*
X364774Y255121D01*
X366966Y254534D01*
X369234D01*
X371426Y255121D01*
X373390Y256255D01*
X374995Y257860D01*
X376129Y259824D01*
X376716Y262016D01*
Y264284D01*
X376129Y266476D01*
X374995Y268440D01*
X373390Y270044D01*
X371426Y271179D01*
X369234Y271766D01*
D02*
G37*
G36*
X343834D02*
X341566D01*
X339374Y271179D01*
X337410Y270044D01*
X335806Y268440D01*
X334671Y266476D01*
X334084Y264284D01*
Y262016D01*
X334671Y259824D01*
X335806Y257860D01*
X337410Y256255D01*
X339374Y255121D01*
X341566Y254534D01*
X343834D01*
X346026Y255121D01*
X347990Y256255D01*
X349594Y257860D01*
X350729Y259824D01*
X351316Y262016D01*
Y264284D01*
X350729Y266476D01*
X349594Y268440D01*
X347990Y270044D01*
X346026Y271179D01*
X343834Y271766D01*
D02*
G37*
G36*
X318434D02*
X316166D01*
X313974Y271179D01*
X312010Y270044D01*
X310406Y268440D01*
X309271Y266476D01*
X308684Y264284D01*
Y262016D01*
X309271Y259824D01*
X310406Y257860D01*
X312010Y256255D01*
X313974Y255121D01*
X316166Y254534D01*
X318434D01*
X320626Y255121D01*
X322590Y256255D01*
X324194Y257860D01*
X325329Y259824D01*
X325916Y262016D01*
Y264284D01*
X325329Y266476D01*
X324194Y268440D01*
X322590Y270044D01*
X320626Y271179D01*
X318434Y271766D01*
D02*
G37*
G36*
X293034D02*
X290766D01*
X288574Y271179D01*
X286610Y270044D01*
X285005Y268440D01*
X283871Y266476D01*
X283284Y264284D01*
Y262016D01*
X283871Y259824D01*
X285005Y257860D01*
X286610Y256255D01*
X288574Y255121D01*
X290766Y254534D01*
X293034D01*
X295226Y255121D01*
X297190Y256255D01*
X298794Y257860D01*
X299929Y259824D01*
X300516Y262016D01*
Y264284D01*
X299929Y266476D01*
X298794Y268440D01*
X297190Y270044D01*
X295226Y271179D01*
X293034Y271766D01*
D02*
G37*
G36*
X267634D02*
X265366D01*
X263174Y271179D01*
X261210Y270044D01*
X259606Y268440D01*
X258471Y266476D01*
X257884Y264284D01*
Y262016D01*
X258471Y259824D01*
X259606Y257860D01*
X261210Y256255D01*
X263174Y255121D01*
X265366Y254534D01*
X267634D01*
X269826Y255121D01*
X271790Y256255D01*
X273395Y257860D01*
X274529Y259824D01*
X275116Y262016D01*
Y264284D01*
X274529Y266476D01*
X273395Y268440D01*
X271790Y270044D01*
X269826Y271179D01*
X267634Y271766D01*
D02*
G37*
G36*
X242234D02*
X239966D01*
X237774Y271179D01*
X235810Y270044D01*
X234205Y268440D01*
X233071Y266476D01*
X232484Y264284D01*
Y262016D01*
X233071Y259824D01*
X234205Y257860D01*
X235810Y256255D01*
X237774Y255121D01*
X239966Y254534D01*
X242234D01*
X244426Y255121D01*
X246390Y256255D01*
X247994Y257860D01*
X249129Y259824D01*
X249716Y262016D01*
Y264284D01*
X249129Y266476D01*
X247994Y268440D01*
X246390Y270044D01*
X244426Y271179D01*
X242234Y271766D01*
D02*
G37*
G36*
X216834D02*
X214566D01*
X212374Y271179D01*
X210410Y270044D01*
X208806Y268440D01*
X207671Y266476D01*
X207084Y264284D01*
Y262016D01*
X207671Y259824D01*
X208806Y257860D01*
X210410Y256255D01*
X212374Y255121D01*
X214566Y254534D01*
X216834D01*
X219026Y255121D01*
X220990Y256255D01*
X222595Y257860D01*
X223729Y259824D01*
X224316Y262016D01*
Y264284D01*
X223729Y266476D01*
X222595Y268440D01*
X220990Y270044D01*
X219026Y271179D01*
X216834Y271766D01*
D02*
G37*
G36*
X191434D02*
X189166D01*
X186974Y271179D01*
X185010Y270044D01*
X183405Y268440D01*
X182271Y266476D01*
X181684Y264284D01*
Y262016D01*
X182271Y259824D01*
X183405Y257860D01*
X185010Y256255D01*
X186974Y255121D01*
X189166Y254534D01*
X191434D01*
X193626Y255121D01*
X195590Y256255D01*
X197194Y257860D01*
X198329Y259824D01*
X198916Y262016D01*
Y264284D01*
X198329Y266476D01*
X197194Y268440D01*
X195590Y270044D01*
X193626Y271179D01*
X191434Y271766D01*
D02*
G37*
G36*
X166034D02*
X163766D01*
X161574Y271179D01*
X159610Y270044D01*
X158006Y268440D01*
X156871Y266476D01*
X156284Y264284D01*
Y262016D01*
X156871Y259824D01*
X158006Y257860D01*
X159610Y256255D01*
X161574Y255121D01*
X163766Y254534D01*
X166034D01*
X168226Y255121D01*
X170190Y256255D01*
X171794Y257860D01*
X172929Y259824D01*
X173516Y262016D01*
Y264284D01*
X172929Y266476D01*
X171794Y268440D01*
X170190Y270044D01*
X168226Y271179D01*
X166034Y271766D01*
D02*
G37*
G36*
X140634D02*
X138366D01*
X136174Y271179D01*
X134210Y270044D01*
X132605Y268440D01*
X131471Y266476D01*
X130884Y264284D01*
Y262016D01*
X131471Y259824D01*
X132605Y257860D01*
X134210Y256255D01*
X136174Y255121D01*
X138366Y254534D01*
X140634D01*
X142826Y255121D01*
X144790Y256255D01*
X146395Y257860D01*
X147529Y259824D01*
X148116Y262016D01*
Y264284D01*
X147529Y266476D01*
X146395Y268440D01*
X144790Y270044D01*
X142826Y271179D01*
X140634Y271766D01*
D02*
G37*
G36*
X115234D02*
X112966D01*
X110774Y271179D01*
X108810Y270044D01*
X107205Y268440D01*
X106071Y266476D01*
X105484Y264284D01*
Y262016D01*
X106071Y259824D01*
X107205Y257860D01*
X108810Y256255D01*
X110774Y255121D01*
X112966Y254534D01*
X115234D01*
X117426Y255121D01*
X119390Y256255D01*
X120995Y257860D01*
X122129Y259824D01*
X122716Y262016D01*
Y264284D01*
X122129Y266476D01*
X120995Y268440D01*
X119390Y270044D01*
X117426Y271179D01*
X115234Y271766D01*
D02*
G37*
G36*
X89834D02*
X87566D01*
X85374Y271179D01*
X83410Y270044D01*
X81805Y268440D01*
X80671Y266476D01*
X80084Y264284D01*
Y262016D01*
X80671Y259824D01*
X81805Y257860D01*
X83410Y256255D01*
X85374Y255121D01*
X87566Y254534D01*
X89834D01*
X92026Y255121D01*
X93990Y256255D01*
X95595Y257860D01*
X96729Y259824D01*
X97316Y262016D01*
Y264284D01*
X96729Y266476D01*
X95595Y268440D01*
X93990Y270044D01*
X92026Y271179D01*
X89834Y271766D01*
D02*
G37*
G36*
X64434D02*
X62166D01*
X59974Y271179D01*
X58010Y270044D01*
X56406Y268440D01*
X55271Y266476D01*
X54684Y264284D01*
Y262016D01*
X55271Y259824D01*
X56406Y257860D01*
X58010Y256255D01*
X59974Y255121D01*
X62166Y254534D01*
X64434D01*
X66626Y255121D01*
X68590Y256255D01*
X70195Y257860D01*
X71329Y259824D01*
X71916Y262016D01*
Y264284D01*
X71329Y266476D01*
X70195Y268440D01*
X68590Y270044D01*
X66626Y271179D01*
X64434Y271766D01*
D02*
G37*
G36*
X625900Y271860D02*
X618300D01*
X616421Y271487D01*
X614828Y270422D01*
X613763Y268829D01*
X613390Y266950D01*
Y259350D01*
X613763Y257471D01*
X614828Y255878D01*
X616421Y254813D01*
X618300Y254440D01*
X625900D01*
X627779Y254813D01*
X629372Y255878D01*
X630437Y257471D01*
X630810Y259350D01*
Y266950D01*
X630437Y268829D01*
X629372Y270422D01*
X627779Y271487D01*
X625900Y271860D01*
D02*
G37*
G36*
X488824Y175016D02*
X487226D01*
X485750Y174405D01*
X484676Y173331D01*
X414369D01*
X413477Y173153D01*
X412721Y172648D01*
X352488Y112416D01*
X351072Y112795D01*
X350729Y114076D01*
X349594Y116040D01*
X347990Y117645D01*
X346026Y118779D01*
X343834Y119366D01*
X341566D01*
X339374Y118779D01*
X337410Y117645D01*
X335806Y116040D01*
X334671Y114076D01*
X334084Y111884D01*
Y109616D01*
X334671Y107424D01*
X335806Y105460D01*
X337410Y103855D01*
X339374Y102721D01*
X341566Y102134D01*
X342973D01*
X343499Y100864D01*
X321081Y78446D01*
X320840Y78494D01*
X319469Y78222D01*
X318306Y77444D01*
X302253Y61392D01*
X254041D01*
X252915Y63343D01*
X251236Y65022D01*
X249180Y66209D01*
X246887Y66823D01*
X244513D01*
X242220Y66209D01*
X240164Y65022D01*
X238485Y63343D01*
X237298Y61287D01*
X236684Y58994D01*
Y56620D01*
X237298Y54327D01*
X238485Y52271D01*
X240164Y50593D01*
X242220Y49406D01*
X244513Y48791D01*
X246887D01*
X249180Y49406D01*
X251236Y50593D01*
X252915Y52271D01*
X254041Y54222D01*
X303738D01*
X305110Y54495D01*
X306273Y55272D01*
X323375Y72375D01*
X323512Y72579D01*
X333410D01*
X334301Y72756D01*
X335058Y73261D01*
X355251Y93455D01*
X440322D01*
X440707Y92185D01*
X440652Y92148D01*
X419510Y71007D01*
X418480Y71602D01*
X416187Y72216D01*
X413813D01*
X411520Y71602D01*
X409464Y70415D01*
X407785Y68736D01*
X406659Y66785D01*
X330362D01*
X328990Y66512D01*
X327827Y65735D01*
X303427Y41335D01*
X171100D01*
X169728Y41062D01*
X168565Y40285D01*
X156963Y28683D01*
X154787Y29266D01*
X152413D01*
X150120Y28652D01*
X148064Y27465D01*
X146385Y25786D01*
X145198Y23730D01*
X144584Y21437D01*
Y19063D01*
X145198Y16770D01*
X146385Y14714D01*
X148064Y13035D01*
X150120Y11848D01*
X152413Y11234D01*
X154787D01*
X157080Y11848D01*
X159136Y13035D01*
X160815Y14714D01*
X162002Y16770D01*
X162616Y19063D01*
Y21437D01*
X162033Y23613D01*
X172585Y34165D01*
X304912D01*
X306284Y34438D01*
X307447Y35215D01*
X331847Y59615D01*
X406659D01*
X407785Y57664D01*
X409464Y55985D01*
X411520Y54798D01*
X413813Y54184D01*
X416187D01*
X418480Y54798D01*
X420536Y55985D01*
X422215Y57664D01*
X423402Y59720D01*
X424016Y62013D01*
Y64387D01*
X423402Y66680D01*
X422807Y67710D01*
X443265Y88169D01*
X561901D01*
X562975Y87095D01*
X564451Y86484D01*
X566049D01*
X567525Y87095D01*
X568655Y88225D01*
X569266Y89701D01*
Y91299D01*
X568899Y92185D01*
X569634Y93455D01*
X755098D01*
X766193Y82360D01*
X765598Y81330D01*
X764984Y79037D01*
Y76663D01*
X765598Y74370D01*
X766785Y72314D01*
X768464Y70635D01*
X770520Y69448D01*
X772813Y68834D01*
X775187D01*
X777480Y69448D01*
X779536Y70635D01*
X781215Y72314D01*
X782402Y74370D01*
X783016Y76663D01*
Y79037D01*
X782402Y81330D01*
X781215Y83386D01*
X779536Y85064D01*
X777480Y86251D01*
X775187Y86866D01*
X772813D01*
X770520Y86251D01*
X769490Y85657D01*
X757712Y97434D01*
X756956Y97939D01*
X756064Y98117D01*
X354286D01*
X353394Y97939D01*
X352638Y97434D01*
X332444Y77240D01*
X328127D01*
X327641Y78414D01*
X354234Y105007D01*
X354739Y105763D01*
X354917Y106655D01*
Y108251D01*
X358214Y111549D01*
X359484Y111023D01*
Y109616D01*
X360071Y107424D01*
X361205Y105460D01*
X362810Y103855D01*
X364774Y102721D01*
X366966Y102134D01*
X369234D01*
X371426Y102721D01*
X373390Y103855D01*
X374995Y105460D01*
X376129Y107424D01*
X376716Y109616D01*
Y111884D01*
X376129Y114076D01*
X374995Y116040D01*
X373390Y117645D01*
X371426Y118779D01*
X369234Y119366D01*
X367827D01*
X367301Y120636D01*
X415335Y168669D01*
X484676D01*
X485750Y167595D01*
X487226Y166984D01*
X488824D01*
X490300Y167595D01*
X491430Y168725D01*
X492041Y170201D01*
Y171799D01*
X491430Y173275D01*
X490300Y174405D01*
X488824Y175016D01*
D02*
G37*
G36*
X962750Y142114D02*
X954750D01*
X952793Y141725D01*
X951134Y140616D01*
X950025Y138957D01*
X949636Y137000D01*
Y129000D01*
X950025Y127043D01*
X951134Y125384D01*
X952793Y124275D01*
X954750Y123886D01*
X962750D01*
X964707Y124275D01*
X966366Y125384D01*
X967475Y127043D01*
X967864Y129000D01*
Y137000D01*
X967475Y138957D01*
X966366Y140616D01*
X964707Y141725D01*
X962750Y142114D01*
D02*
G37*
G36*
X597834Y119366D02*
X595566D01*
X593374Y118779D01*
X591410Y117645D01*
X589805Y116040D01*
X588671Y114076D01*
X588084Y111884D01*
Y109616D01*
X588671Y107424D01*
X589805Y105460D01*
X591410Y103855D01*
X593374Y102721D01*
X595566Y102134D01*
X597834D01*
X600026Y102721D01*
X601990Y103855D01*
X603595Y105460D01*
X604729Y107424D01*
X605316Y109616D01*
Y111884D01*
X604729Y114076D01*
X603595Y116040D01*
X601990Y117645D01*
X600026Y118779D01*
X597834Y119366D01*
D02*
G37*
G36*
X572434D02*
X570166D01*
X567974Y118779D01*
X566010Y117645D01*
X564406Y116040D01*
X563271Y114076D01*
X562684Y111884D01*
Y109616D01*
X563271Y107424D01*
X564406Y105460D01*
X566010Y103855D01*
X567974Y102721D01*
X570166Y102134D01*
X572434D01*
X574626Y102721D01*
X576590Y103855D01*
X578195Y105460D01*
X579329Y107424D01*
X579916Y109616D01*
Y111884D01*
X579329Y114076D01*
X578195Y116040D01*
X576590Y117645D01*
X574626Y118779D01*
X572434Y119366D01*
D02*
G37*
G36*
X547034D02*
X544766D01*
X542574Y118779D01*
X540610Y117645D01*
X539006Y116040D01*
X537871Y114076D01*
X537284Y111884D01*
Y109616D01*
X537871Y107424D01*
X539006Y105460D01*
X540610Y103855D01*
X542574Y102721D01*
X544766Y102134D01*
X547034D01*
X549226Y102721D01*
X551190Y103855D01*
X552794Y105460D01*
X553929Y107424D01*
X554516Y109616D01*
Y111884D01*
X553929Y114076D01*
X552794Y116040D01*
X551190Y117645D01*
X549226Y118779D01*
X547034Y119366D01*
D02*
G37*
G36*
X521634D02*
X519366D01*
X517174Y118779D01*
X515210Y117645D01*
X513605Y116040D01*
X512471Y114076D01*
X511884Y111884D01*
Y109616D01*
X512471Y107424D01*
X513605Y105460D01*
X515210Y103855D01*
X517174Y102721D01*
X519366Y102134D01*
X521634D01*
X523826Y102721D01*
X525790Y103855D01*
X527394Y105460D01*
X528529Y107424D01*
X529116Y109616D01*
Y111884D01*
X528529Y114076D01*
X527394Y116040D01*
X525790Y117645D01*
X523826Y118779D01*
X521634Y119366D01*
D02*
G37*
G36*
X496234D02*
X493966D01*
X491774Y118779D01*
X489810Y117645D01*
X488205Y116040D01*
X487071Y114076D01*
X486484Y111884D01*
Y109616D01*
X487071Y107424D01*
X488205Y105460D01*
X489810Y103855D01*
X491774Y102721D01*
X493966Y102134D01*
X496234D01*
X498426Y102721D01*
X500390Y103855D01*
X501995Y105460D01*
X503129Y107424D01*
X503716Y109616D01*
Y111884D01*
X503129Y114076D01*
X501995Y116040D01*
X500390Y117645D01*
X498426Y118779D01*
X496234Y119366D01*
D02*
G37*
G36*
X470834D02*
X468566D01*
X466374Y118779D01*
X464410Y117645D01*
X462805Y116040D01*
X461671Y114076D01*
X461084Y111884D01*
Y109616D01*
X461671Y107424D01*
X462805Y105460D01*
X464410Y103855D01*
X466374Y102721D01*
X468566Y102134D01*
X470834D01*
X473026Y102721D01*
X474990Y103855D01*
X476595Y105460D01*
X477729Y107424D01*
X478316Y109616D01*
Y111884D01*
X477729Y114076D01*
X476595Y116040D01*
X474990Y117645D01*
X473026Y118779D01*
X470834Y119366D01*
D02*
G37*
G36*
X445434D02*
X443166D01*
X440974Y118779D01*
X439010Y117645D01*
X437406Y116040D01*
X436271Y114076D01*
X435684Y111884D01*
Y109616D01*
X436271Y107424D01*
X437406Y105460D01*
X439010Y103855D01*
X440974Y102721D01*
X443166Y102134D01*
X445434D01*
X447626Y102721D01*
X449590Y103855D01*
X451194Y105460D01*
X452329Y107424D01*
X452916Y109616D01*
Y111884D01*
X452329Y114076D01*
X451194Y116040D01*
X449590Y117645D01*
X447626Y118779D01*
X445434Y119366D01*
D02*
G37*
G36*
X420034D02*
X417766D01*
X415574Y118779D01*
X413610Y117645D01*
X412006Y116040D01*
X410871Y114076D01*
X410284Y111884D01*
Y109616D01*
X410871Y107424D01*
X412006Y105460D01*
X413610Y103855D01*
X415574Y102721D01*
X417766Y102134D01*
X420034D01*
X422226Y102721D01*
X424190Y103855D01*
X425794Y105460D01*
X426929Y107424D01*
X427516Y109616D01*
Y111884D01*
X426929Y114076D01*
X425794Y116040D01*
X424190Y117645D01*
X422226Y118779D01*
X420034Y119366D01*
D02*
G37*
G36*
X394634D02*
X392366D01*
X390174Y118779D01*
X388210Y117645D01*
X386605Y116040D01*
X385471Y114076D01*
X384884Y111884D01*
Y109616D01*
X385471Y107424D01*
X386605Y105460D01*
X388210Y103855D01*
X390174Y102721D01*
X392366Y102134D01*
X394634D01*
X396826Y102721D01*
X398790Y103855D01*
X400395Y105460D01*
X401529Y107424D01*
X402116Y109616D01*
Y111884D01*
X401529Y114076D01*
X400395Y116040D01*
X398790Y117645D01*
X396826Y118779D01*
X394634Y119366D01*
D02*
G37*
G36*
X318434D02*
X316166D01*
X313974Y118779D01*
X312010Y117645D01*
X310406Y116040D01*
X309271Y114076D01*
X308684Y111884D01*
Y109616D01*
X309271Y107424D01*
X310406Y105460D01*
X312010Y103855D01*
X313974Y102721D01*
X316166Y102134D01*
X318434D01*
X320626Y102721D01*
X322590Y103855D01*
X324194Y105460D01*
X325329Y107424D01*
X325916Y109616D01*
Y111884D01*
X325329Y114076D01*
X324194Y116040D01*
X322590Y117645D01*
X320626Y118779D01*
X318434Y119366D01*
D02*
G37*
G36*
X293034D02*
X290766D01*
X288574Y118779D01*
X286610Y117645D01*
X285005Y116040D01*
X283871Y114076D01*
X283284Y111884D01*
Y109616D01*
X283871Y107424D01*
X285005Y105460D01*
X286610Y103855D01*
X288574Y102721D01*
X290766Y102134D01*
X293034D01*
X295226Y102721D01*
X297190Y103855D01*
X298794Y105460D01*
X299929Y107424D01*
X300516Y109616D01*
Y111884D01*
X299929Y114076D01*
X298794Y116040D01*
X297190Y117645D01*
X295226Y118779D01*
X293034Y119366D01*
D02*
G37*
G36*
X267634D02*
X265366D01*
X263174Y118779D01*
X261210Y117645D01*
X259606Y116040D01*
X258471Y114076D01*
X257884Y111884D01*
Y109616D01*
X258471Y107424D01*
X259606Y105460D01*
X261210Y103855D01*
X263174Y102721D01*
X265366Y102134D01*
X267634D01*
X269826Y102721D01*
X271790Y103855D01*
X273395Y105460D01*
X274529Y107424D01*
X275116Y109616D01*
Y111884D01*
X274529Y114076D01*
X273395Y116040D01*
X271790Y117645D01*
X269826Y118779D01*
X267634Y119366D01*
D02*
G37*
G36*
X242234D02*
X239966D01*
X237774Y118779D01*
X235810Y117645D01*
X234205Y116040D01*
X233071Y114076D01*
X232484Y111884D01*
Y109616D01*
X233071Y107424D01*
X234205Y105460D01*
X235810Y103855D01*
X237774Y102721D01*
X239966Y102134D01*
X242234D01*
X244426Y102721D01*
X246390Y103855D01*
X247994Y105460D01*
X249129Y107424D01*
X249716Y109616D01*
Y111884D01*
X249129Y114076D01*
X247994Y116040D01*
X246390Y117645D01*
X244426Y118779D01*
X242234Y119366D01*
D02*
G37*
G36*
X216834D02*
X214566D01*
X212374Y118779D01*
X210410Y117645D01*
X208806Y116040D01*
X207671Y114076D01*
X207084Y111884D01*
Y109616D01*
X207671Y107424D01*
X208806Y105460D01*
X210410Y103855D01*
X212374Y102721D01*
X214566Y102134D01*
X216834D01*
X219026Y102721D01*
X220990Y103855D01*
X222595Y105460D01*
X223729Y107424D01*
X224316Y109616D01*
Y111884D01*
X223729Y114076D01*
X222595Y116040D01*
X220990Y117645D01*
X219026Y118779D01*
X216834Y119366D01*
D02*
G37*
G36*
X191434D02*
X189166D01*
X186974Y118779D01*
X185010Y117645D01*
X183405Y116040D01*
X182271Y114076D01*
X181684Y111884D01*
Y109616D01*
X182271Y107424D01*
X183405Y105460D01*
X185010Y103855D01*
X186974Y102721D01*
X189166Y102134D01*
X191434D01*
X193626Y102721D01*
X195590Y103855D01*
X197194Y105460D01*
X198329Y107424D01*
X198916Y109616D01*
Y111884D01*
X198329Y114076D01*
X197194Y116040D01*
X195590Y117645D01*
X193626Y118779D01*
X191434Y119366D01*
D02*
G37*
G36*
X166034D02*
X163766D01*
X161574Y118779D01*
X159610Y117645D01*
X158006Y116040D01*
X156871Y114076D01*
X156284Y111884D01*
Y109616D01*
X156871Y107424D01*
X158006Y105460D01*
X159610Y103855D01*
X161574Y102721D01*
X163766Y102134D01*
X166034D01*
X168226Y102721D01*
X170190Y103855D01*
X171794Y105460D01*
X172929Y107424D01*
X173516Y109616D01*
Y111884D01*
X172929Y114076D01*
X171794Y116040D01*
X170190Y117645D01*
X168226Y118779D01*
X166034Y119366D01*
D02*
G37*
G36*
X140634D02*
X138366D01*
X136174Y118779D01*
X134210Y117645D01*
X132605Y116040D01*
X131471Y114076D01*
X130884Y111884D01*
Y109616D01*
X131471Y107424D01*
X132605Y105460D01*
X134210Y103855D01*
X136174Y102721D01*
X138366Y102134D01*
X140634D01*
X142826Y102721D01*
X144790Y103855D01*
X146395Y105460D01*
X147529Y107424D01*
X148116Y109616D01*
Y111884D01*
X147529Y114076D01*
X146395Y116040D01*
X144790Y117645D01*
X142826Y118779D01*
X140634Y119366D01*
D02*
G37*
G36*
X115234D02*
X112966D01*
X110774Y118779D01*
X108810Y117645D01*
X107205Y116040D01*
X106071Y114076D01*
X105484Y111884D01*
Y109616D01*
X106071Y107424D01*
X107205Y105460D01*
X108810Y103855D01*
X110774Y102721D01*
X112966Y102134D01*
X115234D01*
X117426Y102721D01*
X119390Y103855D01*
X120995Y105460D01*
X122129Y107424D01*
X122716Y109616D01*
Y111884D01*
X122129Y114076D01*
X120995Y116040D01*
X119390Y117645D01*
X117426Y118779D01*
X115234Y119366D01*
D02*
G37*
G36*
X89834D02*
X87566D01*
X85374Y118779D01*
X83410Y117645D01*
X81805Y116040D01*
X80671Y114076D01*
X80084Y111884D01*
Y109616D01*
X80671Y107424D01*
X81805Y105460D01*
X83410Y103855D01*
X85374Y102721D01*
X87566Y102134D01*
X89834D01*
X92026Y102721D01*
X93990Y103855D01*
X95595Y105460D01*
X96729Y107424D01*
X97316Y109616D01*
Y111884D01*
X96729Y114076D01*
X95595Y116040D01*
X93990Y117645D01*
X92026Y118779D01*
X89834Y119366D01*
D02*
G37*
G36*
X64434D02*
X62166D01*
X59974Y118779D01*
X58010Y117645D01*
X56406Y116040D01*
X55271Y114076D01*
X54684Y111884D01*
Y109616D01*
X55271Y107424D01*
X56406Y105460D01*
X58010Y103855D01*
X59974Y102721D01*
X62166Y102134D01*
X64434D01*
X66626Y102721D01*
X68590Y103855D01*
X70195Y105460D01*
X71329Y107424D01*
X71916Y109616D01*
Y111884D01*
X71329Y114076D01*
X70195Y116040D01*
X68590Y117645D01*
X66626Y118779D01*
X64434Y119366D01*
D02*
G37*
G36*
X625900Y119460D02*
X618300D01*
X616421Y119087D01*
X614828Y118022D01*
X613763Y116429D01*
X613390Y114550D01*
Y106950D01*
X613763Y105071D01*
X614828Y103478D01*
X616421Y102413D01*
X618300Y102040D01*
X625900D01*
X627779Y102413D01*
X629372Y103478D01*
X630437Y105071D01*
X630810Y106950D01*
Y114550D01*
X630437Y116429D01*
X629372Y118022D01*
X627779Y119087D01*
X625900Y119460D01*
D02*
G37*
G36*
X959937Y116616D02*
X957563D01*
X955270Y116002D01*
X953214Y114815D01*
X951535Y113136D01*
X950348Y111080D01*
X949734Y108787D01*
Y106413D01*
X950348Y104120D01*
X951535Y102064D01*
X953214Y100385D01*
X955270Y99198D01*
X957563Y98584D01*
X959937D01*
X962230Y99198D01*
X964286Y100385D01*
X965965Y102064D01*
X967152Y104120D01*
X967766Y106413D01*
Y108787D01*
X967152Y111080D01*
X965965Y113136D01*
X964286Y114815D01*
X962230Y116002D01*
X959937Y116616D01*
D02*
G37*
G36*
Y91216D02*
X957563D01*
X955270Y90602D01*
X953214Y89415D01*
X951535Y87736D01*
X950348Y85680D01*
X949734Y83387D01*
Y81013D01*
X950348Y78720D01*
X951535Y76664D01*
X953214Y74985D01*
X955270Y73798D01*
X957563Y73184D01*
X959937D01*
X962230Y73798D01*
X964286Y74985D01*
X965965Y76664D01*
X967152Y78720D01*
X967766Y81013D01*
Y83387D01*
X967152Y85680D01*
X965965Y87736D01*
X964286Y89415D01*
X962230Y90602D01*
X959937Y91216D01*
D02*
G37*
G36*
X122637Y67523D02*
X120263D01*
X117970Y66909D01*
X115914Y65722D01*
X114235Y64043D01*
X113048Y61988D01*
X112434Y59694D01*
Y57320D01*
X113048Y55027D01*
X114235Y52972D01*
X115914Y51293D01*
X117970Y50106D01*
X120263Y49491D01*
X122637D01*
X124930Y50106D01*
X126986Y51293D01*
X128665Y52972D01*
X129852Y55027D01*
X130466Y57320D01*
Y59694D01*
X129852Y61988D01*
X128665Y64043D01*
X126986Y65722D01*
X124930Y66909D01*
X122637Y67523D01*
D02*
G37*
G36*
X100050Y67622D02*
X92050D01*
X90093Y67232D01*
X88434Y66124D01*
X87325Y64465D01*
X86936Y62507D01*
Y54507D01*
X87325Y52550D01*
X88434Y50891D01*
X90093Y49783D01*
X92050Y49393D01*
X100050D01*
X102007Y49783D01*
X103666Y50891D01*
X104775Y52550D01*
X105164Y54507D01*
Y62507D01*
X104775Y64465D01*
X103666Y66124D01*
X102007Y67232D01*
X100050Y67622D01*
D02*
G37*
G36*
X224300Y66922D02*
X216300D01*
X214343Y66532D01*
X212684Y65424D01*
X211575Y63765D01*
X211186Y61807D01*
Y53807D01*
X211575Y51850D01*
X212684Y50191D01*
X214343Y49082D01*
X216300Y48693D01*
X224300D01*
X226257Y49082D01*
X227916Y50191D01*
X229025Y51850D01*
X229414Y53807D01*
Y61807D01*
X229025Y63765D01*
X227916Y65424D01*
X226257Y66532D01*
X224300Y66922D01*
D02*
G37*
G36*
X801137Y52173D02*
X798763D01*
X796470Y51559D01*
X794414Y50372D01*
X792735Y48693D01*
X791548Y46637D01*
X790934Y44344D01*
Y41970D01*
X791548Y39677D01*
X792735Y37621D01*
X794414Y35943D01*
X796470Y34756D01*
X798763Y34141D01*
X801137D01*
X803430Y34756D01*
X805486Y35943D01*
X807165Y37621D01*
X808352Y39677D01*
X808966Y41970D01*
Y44344D01*
X808352Y46637D01*
X807165Y48693D01*
X805486Y50372D01*
X803430Y51559D01*
X801137Y52173D01*
D02*
G37*
G36*
X858050Y52364D02*
X850050D01*
X848093Y51975D01*
X846434Y50866D01*
X845325Y49207D01*
X844936Y47250D01*
Y39250D01*
X845325Y37293D01*
X846434Y35634D01*
X848093Y34525D01*
X850050Y34136D01*
X858050D01*
X860007Y34525D01*
X861666Y35634D01*
X862775Y37293D01*
X863164Y39250D01*
Y47250D01*
X862775Y49207D01*
X861666Y50866D01*
X860007Y51975D01*
X858050Y52364D01*
D02*
G37*
G36*
X778550Y52272D02*
X770550D01*
X768593Y51882D01*
X766934Y50774D01*
X765825Y49114D01*
X765436Y47157D01*
Y39157D01*
X765825Y37200D01*
X766934Y35541D01*
X768593Y34432D01*
X770550Y34043D01*
X778550D01*
X780507Y34432D01*
X782166Y35541D01*
X783275Y37200D01*
X783664Y39157D01*
Y47157D01*
X783275Y49114D01*
X782166Y50774D01*
X780507Y51882D01*
X778550Y52272D01*
D02*
G37*
G36*
X419000Y46914D02*
X411000D01*
X409043Y46525D01*
X407384Y45416D01*
X406275Y43757D01*
X405886Y41800D01*
Y33800D01*
X406275Y31843D01*
X407384Y30184D01*
X409043Y29075D01*
X411000Y28686D01*
X419000D01*
X420957Y29075D01*
X422616Y30184D01*
X423725Y31843D01*
X424114Y33800D01*
Y41800D01*
X423725Y43757D01*
X422616Y45416D01*
X420957Y46525D01*
X419000Y46914D01*
D02*
G37*
G36*
X205587Y29266D02*
X203213D01*
X200920Y28652D01*
X198864Y27465D01*
X197185Y25786D01*
X195998Y23730D01*
X195384Y21437D01*
Y19063D01*
X195998Y16770D01*
X197185Y14714D01*
X198864Y13035D01*
X200920Y11848D01*
X203213Y11234D01*
X205587D01*
X207880Y11848D01*
X209936Y13035D01*
X211615Y14714D01*
X212802Y16770D01*
X213416Y19063D01*
Y21437D01*
X212802Y23730D01*
X211615Y25786D01*
X209936Y27465D01*
X207880Y28652D01*
X205587Y29266D01*
D02*
G37*
G36*
X180187D02*
X177813D01*
X175520Y28652D01*
X173464Y27465D01*
X171785Y25786D01*
X170598Y23730D01*
X169984Y21437D01*
Y19063D01*
X170598Y16770D01*
X171785Y14714D01*
X173464Y13035D01*
X175520Y11848D01*
X177813Y11234D01*
X180187D01*
X182480Y11848D01*
X184536Y13035D01*
X186215Y14714D01*
X187402Y16770D01*
X188016Y19063D01*
Y21437D01*
X187402Y23730D01*
X186215Y25786D01*
X184536Y27465D01*
X182480Y28652D01*
X180187Y29266D01*
D02*
G37*
G36*
X132200Y29364D02*
X124200D01*
X122243Y28975D01*
X120584Y27866D01*
X119475Y26207D01*
X119086Y24250D01*
Y16250D01*
X119475Y14293D01*
X120584Y12634D01*
X122243Y11525D01*
X124200Y11136D01*
X132200D01*
X134157Y11525D01*
X135816Y12634D01*
X136925Y14293D01*
X137314Y16250D01*
Y24250D01*
X136925Y26207D01*
X135816Y27866D01*
X134157Y28975D01*
X132200Y29364D01*
D02*
G37*
G36*
X645250Y26114D02*
X637250D01*
X635293Y25725D01*
X633634Y24616D01*
X632525Y22957D01*
X632136Y21000D01*
Y13000D01*
X632525Y11043D01*
X633634Y9384D01*
X635293Y8275D01*
X637250Y7886D01*
X645250D01*
X647207Y8275D01*
X648866Y9384D01*
X649975Y11043D01*
X650364Y13000D01*
Y21000D01*
X649975Y22957D01*
X648866Y24616D01*
X647207Y25725D01*
X645250Y26114D01*
D02*
G37*
%LPD*%
G36*
X842538Y125538D02*
X842628Y125019D01*
X833066Y115457D01*
X832561Y114700D01*
X832383Y113808D01*
Y108811D01*
X832561Y107919D01*
X833066Y107162D01*
X839162Y101066D01*
X839919Y100561D01*
X840810Y100383D01*
X892268D01*
X892772Y99222D01*
X892123Y98423D01*
X829199D01*
X828125Y99497D01*
X826649Y100108D01*
X825051D01*
X823575Y99497D01*
X822445Y98367D01*
X821834Y96891D01*
Y95294D01*
X822445Y93818D01*
X823575Y92688D01*
X825051Y92077D01*
X826649D01*
X828125Y92688D01*
X829199Y93762D01*
X893175D01*
X894066Y93939D01*
X894823Y94444D01*
X895461Y95082D01*
X896878Y94704D01*
X897245Y93818D01*
X898319Y92744D01*
Y86941D01*
X897245Y85867D01*
X896634Y84391D01*
Y82794D01*
X897245Y81318D01*
X898319Y80244D01*
Y65415D01*
X883960Y51057D01*
X882930Y51652D01*
X880637Y52266D01*
X878263D01*
X875970Y51652D01*
X874940Y51057D01*
X859590Y66406D01*
X859838Y67652D01*
X859925Y67688D01*
X861055Y68818D01*
X861666Y70294D01*
Y71891D01*
X861055Y73367D01*
X859925Y74497D01*
X858449Y75108D01*
X856851D01*
X855375Y74497D01*
X854301Y73423D01*
X829199D01*
X828125Y74497D01*
X826649Y75108D01*
X825051D01*
X823575Y74497D01*
X822445Y73367D01*
X821834Y71891D01*
Y70294D01*
X822201Y69407D01*
X821466Y68137D01*
X812409D01*
X781807Y98740D01*
X782402Y99770D01*
X782710Y100919D01*
X815157D01*
X816049Y101097D01*
X816806Y101602D01*
X841174Y125971D01*
X842538Y125538D01*
D02*
G37*
D56*
X726737Y180987D02*
X730752D01*
X721500Y175750D02*
X726737Y180987D01*
X734479Y184714D02*
X734750D01*
X730752Y180987D02*
X734479Y184714D01*
X721500Y148900D02*
Y175750D01*
X303738Y57807D02*
X320840Y74910D01*
X245700Y57807D02*
X303738D01*
X171100Y37750D02*
X304912D01*
X153600Y20250D02*
X171100Y37750D01*
X330362Y63200D02*
X415000D01*
X304912Y37750D02*
X330362Y63200D01*
D57*
X871600Y176000D02*
X872000Y175600D01*
Y156093D02*
Y175600D01*
X772809Y265750D02*
X814250D01*
X729681Y266500D02*
X772059D01*
X772809Y265750D01*
X815157Y103250D02*
X841500Y129593D01*
X774000Y103250D02*
X815157D01*
X831533Y148588D02*
X845500Y134621D01*
Y133592D02*
Y134621D01*
X825412Y148588D02*
X831533D01*
X824750Y149250D02*
X825412Y148588D01*
X830908Y133592D02*
X841500D01*
X824500Y140000D02*
X830908Y133592D01*
X684250Y190000D02*
X763900D01*
X869250Y295350D01*
X479586Y264683D02*
X604269Y140000D01*
X640750D01*
X910948Y107448D02*
Y112295D01*
X905629Y102129D02*
X910948Y107448D01*
X897650Y125592D02*
X910948Y112295D01*
X899211Y102129D02*
X905629D01*
X825850Y96093D02*
X893175D01*
X894767Y102714D02*
X897738Y105685D01*
X893175Y96093D02*
X899211Y102129D01*
X897738Y105685D02*
X898435D01*
X903250Y110500D01*
X840810Y102714D02*
X894767D01*
X900650Y64450D02*
Y83593D01*
Y96093D01*
X825250Y128750D02*
X826092D01*
X815406Y118906D02*
X825250Y128750D01*
X814250Y265750D02*
X869250Y320750D01*
X800125Y254475D02*
X800400Y254750D01*
X753450Y254200D02*
X753725Y254475D01*
X800125D01*
X735400Y346750D02*
X753900Y365250D01*
X850150D02*
X869250Y346150D01*
X753900Y365250D02*
X850150D01*
X325500Y351500D02*
X420497D01*
X459414Y312583D01*
Y308889D02*
Y312583D01*
Y308889D02*
X479586Y288717D01*
Y264683D02*
Y288717D01*
X800633Y118906D02*
X815406D01*
X780604Y138936D02*
X800633Y118906D01*
X720914Y138936D02*
X780604D01*
X596700Y263150D02*
X720914Y138936D01*
X811443Y65806D02*
X856893D01*
X774000Y103250D02*
X811443Y65806D01*
X856893D02*
X879450Y43250D01*
X846750Y108000D02*
X876842Y138092D01*
X849500Y133592D02*
X872000Y156093D01*
X876842Y138092D02*
X897650D01*
X879450Y43250D02*
X900650Y64450D01*
X888942Y185000D02*
X910850Y163092D01*
X813000Y147750D02*
X850250Y185000D01*
X888942D01*
X813000Y124192D02*
Y147750D01*
X834714Y108811D02*
Y113808D01*
X845500Y124594D01*
Y129593D01*
X834714Y108811D02*
X840810Y102714D01*
X825850Y71093D02*
X857650D01*
X849500Y120500D02*
Y129593D01*
X840000Y111000D02*
X849500Y120500D01*
X320840Y74910D02*
X352586Y106655D01*
X320840Y74910D02*
X333410D01*
X354286Y95786D01*
X756064D01*
X774000Y77850D01*
X352586Y106655D02*
Y109217D01*
X414369Y171000D02*
X488025D01*
X352586Y109217D02*
X414369Y171000D01*
X415000Y63200D02*
X442300Y90500D01*
X565250D01*
D58*
X562700Y347093D02*
D03*
X879450Y43250D02*
D03*
X869250Y346150D02*
D03*
Y320750D02*
D03*
X799950Y43157D02*
D03*
X274650Y19500D02*
D03*
X300050D02*
D03*
X325450D02*
D03*
X204400Y20250D02*
D03*
X179000D02*
D03*
X153600D02*
D03*
X774000Y77850D02*
D03*
Y103250D02*
D03*
X415000Y63200D02*
D03*
X245700Y57807D02*
D03*
X121450Y58507D02*
D03*
X18000Y386200D02*
D03*
X37900Y313150D02*
D03*
X63300D02*
D03*
X88700D02*
D03*
X114100D02*
D03*
X139500D02*
D03*
X266500D02*
D03*
X342700D02*
D03*
X368100D02*
D03*
X393500D02*
D03*
X444300D02*
D03*
X469700D02*
D03*
X520500D02*
D03*
X571300D02*
D03*
X596700D02*
D03*
X545900D02*
D03*
X495100D02*
D03*
X418900D02*
D03*
X317300D02*
D03*
X291900D02*
D03*
X241100D02*
D03*
X215700D02*
D03*
X190300D02*
D03*
X164900D02*
D03*
X958750Y82200D02*
D03*
Y107600D02*
D03*
D59*
X537300Y347093D02*
D03*
X619750Y452000D02*
D03*
X854050Y43250D02*
D03*
X641250Y17000D02*
D03*
X774550Y43157D02*
D03*
X350850Y19500D02*
D03*
X128200Y20250D02*
D03*
X220300Y57807D02*
D03*
X96050Y58507D02*
D03*
X622100Y313150D02*
D03*
D60*
X869250Y295350D02*
D03*
X774000Y128650D02*
D03*
X415000Y37800D02*
D03*
X18000Y360800D02*
D03*
X958750Y133000D02*
D03*
D61*
X215700Y110750D02*
D03*
X241100D02*
D03*
X342700D02*
D03*
X393500D02*
D03*
X469700D02*
D03*
X571300D02*
D03*
X596700D02*
D03*
X545900D02*
D03*
X520500D02*
D03*
X495100D02*
D03*
X444300D02*
D03*
X418900D02*
D03*
X368100D02*
D03*
X317300D02*
D03*
X291900D02*
D03*
X266500D02*
D03*
X190300D02*
D03*
X164900D02*
D03*
X139500D02*
D03*
X114100D02*
D03*
X88700D02*
D03*
X63300D02*
D03*
X37900D02*
D03*
X215700Y263150D02*
D03*
X241100D02*
D03*
X342700D02*
D03*
X393500D02*
D03*
X469700D02*
D03*
X571300D02*
D03*
X596700D02*
D03*
X545900D02*
D03*
X520500D02*
D03*
X495100D02*
D03*
X444300D02*
D03*
X418900D02*
D03*
X368100D02*
D03*
X317300D02*
D03*
X291900D02*
D03*
X266500D02*
D03*
X190300D02*
D03*
X164900D02*
D03*
X139500D02*
D03*
X114100D02*
D03*
X88700D02*
D03*
X63300D02*
D03*
X37900D02*
D03*
D62*
X622100Y110750D02*
D03*
Y263150D02*
D03*
D63*
X839250Y232750D02*
D03*
X835750Y273750D02*
D03*
X835500Y315500D02*
D03*
X227750Y362500D02*
D03*
X30400Y211500D02*
D03*
Y186000D02*
D03*
X816900Y176000D02*
D03*
X871600D02*
D03*
X729681Y266500D02*
D03*
X170250Y68500D02*
D03*
X590500Y359750D02*
D03*
X798750Y95750D02*
D03*
Y111250D02*
D03*
X597850Y84000D02*
D03*
X16000Y79750D02*
D03*
X80750Y12250D02*
D03*
X363500Y79750D02*
D03*
X304000Y80000D02*
D03*
X656000Y162500D02*
D03*
X549500Y229250D02*
D03*
X340500Y193250D02*
D03*
X684250Y190000D02*
D03*
X734750Y184714D02*
D03*
X640750Y140000D02*
D03*
X748600Y346750D02*
D03*
X700500Y16000D02*
D03*
X967250Y228500D02*
D03*
X968250Y371500D02*
D03*
X890000Y433500D02*
D03*
X683000Y431500D02*
D03*
X493250D02*
D03*
X310750Y436000D02*
D03*
X143750Y436750D02*
D03*
X422750Y135000D02*
D03*
X51700Y360800D02*
D03*
X592750Y33500D02*
D03*
X542500Y34750D02*
D03*
X441507Y41150D02*
D03*
X248242Y194900D02*
D03*
X188258Y194150D02*
D03*
X65250Y240750D02*
D03*
X30400Y198750D02*
D03*
X125750Y199000D02*
D03*
X763000Y427750D02*
D03*
X738000Y427500D02*
D03*
X794750Y299150D02*
D03*
X800400Y242250D02*
D03*
X728600Y229750D02*
D03*
X661000Y266500D02*
D03*
X698500Y304250D02*
D03*
X636500Y362250D02*
D03*
X517550Y30000D02*
D03*
X721500Y148900D02*
D03*
X900650Y96093D02*
D03*
X825850D02*
D03*
X897650Y125592D02*
D03*
X903250Y110500D02*
D03*
X824500Y140000D02*
D03*
X826092Y128750D02*
D03*
X765000Y310250D02*
D03*
X745000Y289000D02*
D03*
X735250D02*
D03*
X744885Y298635D02*
D03*
X735115D02*
D03*
X713500Y315750D02*
D03*
X721500Y276500D02*
D03*
X778600Y217250D02*
D03*
X753450Y254200D02*
D03*
X800400Y254750D02*
D03*
X735400Y346750D02*
D03*
X325500Y351500D02*
D03*
X900650Y83593D02*
D03*
X910850Y163092D02*
D03*
X813000Y124192D02*
D03*
X846750Y108000D02*
D03*
X857650Y71093D02*
D03*
X825850D02*
D03*
X840000Y111000D02*
D03*
X897650Y138092D02*
D03*
X824750Y149250D02*
D03*
X488025Y171000D02*
D03*
X565250Y90500D02*
D03*
X174250Y229000D02*
D03*
X73000Y229500D02*
D03*
X294193Y339150D02*
D03*
D64*
X841500Y133592D02*
D03*
X845500Y129593D02*
D03*
X841500D02*
D03*
X849500D02*
D03*
X845500Y133592D02*
D03*
X849500D02*
D03*
D65*
X52544Y229250D02*
X173250D01*
X23884Y257910D02*
X52544Y229250D01*
X23884Y334886D02*
X32016Y343018D01*
X18000Y384576D02*
X32016Y370560D01*
X23884Y257910D02*
Y334886D01*
X18000Y384576D02*
Y386200D01*
X32016Y343018D02*
Y370560D01*
M02*
