G04*
G04 #@! TF.GenerationSoftware,Altium Limited,Altium Designer,21.6.4 (81)*
G04*
G04 Layer_Color=32896*
%FSLAX44Y44*%
%MOMM*%
G71*
G04*
G04 #@! TF.SameCoordinates,7EEBCD2D-C3DC-42FC-9086-E37A22DFF102*
G04*
G04*
G04 #@! TF.FilePolarity,Positive*
G04*
G01*
G75*
%ADD66C,0.0500*%
D66*
X521100Y362542D02*
X578900D01*
Y331642D02*
Y362542D01*
X521100Y331642D02*
X578900D01*
X521100D02*
Y362542D01*
X550000Y342093D02*
Y352093D01*
X545000Y347093D02*
X555000D01*
X614750Y452000D02*
X624750D01*
X619750Y447000D02*
Y457000D01*
X603550Y467450D02*
X635950D01*
Y436550D02*
Y467450D01*
X603550Y436550D02*
X635950D01*
X603550D02*
Y467450D01*
X837850Y58700D02*
X895650D01*
Y27800D02*
Y58700D01*
X837850Y27800D02*
X895650D01*
X837850D02*
Y58700D01*
X866750Y38250D02*
Y48250D01*
X861750Y43250D02*
X871750D01*
X853800Y279150D02*
X884700D01*
Y362350D01*
X853800D02*
X884700D01*
X853800Y279150D02*
Y362350D01*
X864250Y320750D02*
X874250D01*
X869250Y315750D02*
Y325750D01*
X625050Y1550D02*
Y32450D01*
Y1550D02*
X657450D01*
Y32450D01*
X625050D02*
X657450D01*
X641250Y12000D02*
Y22000D01*
X636250Y17000D02*
X646250D01*
X758350Y58607D02*
X816150D01*
Y27707D02*
Y58607D01*
X758350Y27707D02*
X816150D01*
X758350D02*
Y58607D01*
X787250Y38157D02*
Y48157D01*
X782250Y43157D02*
X792250D01*
X307750Y19500D02*
X317750D01*
X312750Y14500D02*
Y24500D01*
X258450Y4050D02*
X367050D01*
X258450D02*
Y34950D01*
X367050D01*
Y4050D02*
Y34950D01*
X161300Y20250D02*
X171300D01*
X166300Y15250D02*
Y25250D01*
X112000Y35700D02*
X220600D01*
Y4800D02*
Y35700D01*
X112000Y4800D02*
X220600D01*
X112000D02*
Y35700D01*
X758550Y144850D02*
X789450D01*
X758550Y61650D02*
Y144850D01*
Y61650D02*
X789450D01*
Y144850D01*
X769000Y103250D02*
X779000D01*
X774000Y98250D02*
Y108250D01*
X330000Y105750D02*
Y115750D01*
X325000Y110750D02*
X335000D01*
X640550Y95250D02*
Y126250D01*
X19450D02*
X640550D01*
X19450Y95250D02*
Y126250D01*
Y95250D02*
X640550D01*
X399550Y21600D02*
Y79400D01*
X430450D01*
Y21600D02*
Y79400D01*
X399550Y21600D02*
X430450D01*
X410000Y50500D02*
X420000D01*
X415000Y45500D02*
Y55500D01*
X204100Y73257D02*
X261900D01*
Y42357D02*
Y73257D01*
X204100Y42357D02*
X261900D01*
X204100D02*
Y73257D01*
X233000Y52807D02*
Y62807D01*
X228000Y57807D02*
X238000D01*
X79850Y73957D02*
X137650D01*
Y43057D02*
Y73957D01*
X79850Y43057D02*
X137650D01*
X79850D02*
Y73957D01*
X108750Y53507D02*
Y63507D01*
X103750Y58507D02*
X113750D01*
X330000Y258150D02*
Y268150D01*
X325000Y263150D02*
X335000D01*
X640550Y247650D02*
Y278650D01*
X19450D02*
X640550D01*
X19450Y247650D02*
Y278650D01*
Y247650D02*
X640550D01*
X2550Y344600D02*
Y402400D01*
X33450D01*
Y344600D02*
Y402400D01*
X2550Y344600D02*
X33450D01*
X13000Y373500D02*
X23000D01*
X18000Y368500D02*
Y378500D01*
X21700Y297700D02*
X638300D01*
X21700D02*
Y328600D01*
X638300D01*
Y297700D02*
Y328600D01*
X330000Y308150D02*
Y318150D01*
X325000Y313150D02*
X335000D01*
X692750Y344000D02*
Y354000D01*
X687750Y349000D02*
X697750D01*
X716250Y325500D02*
Y372500D01*
X669250Y325500D02*
X716250D01*
X669250D02*
Y372500D01*
X716250D01*
X773250Y321500D02*
Y359500D01*
Y321500D02*
X811250D01*
Y359500D01*
X773250D02*
X811250D01*
X787250Y340500D02*
X797250D01*
X792250Y335500D02*
Y345500D01*
X943300Y149200D02*
X974200D01*
X943300Y66000D02*
Y149200D01*
Y66000D02*
X974200D01*
Y149200D01*
X953750Y107600D02*
X963750D01*
X958750Y102600D02*
Y112600D01*
M02*
