G04*
G04 #@! TF.GenerationSoftware,Altium Limited,Altium Designer,21.6.4 (81)*
G04*
G04 Layer_Color=32896*
%FSLAX44Y44*%
%MOMM*%
G71*
G04*
G04 #@! TF.SameCoordinates,7EEBCD2D-C3DC-42FC-9086-E37A22DFF102*
G04*
G04*
G04 #@! TF.FilePolarity,Positive*
G04*
G01*
G75*
%ADD10C,0.2000*%
%ADD13C,0.1000*%
D10*
X990000Y30000D02*
G03*
X990000Y30000I-30000J0D01*
G01*
Y450000D02*
G03*
X990000Y450000I-30000J0D01*
G01*
X60000D02*
G03*
X60000Y450000I-30000J0D01*
G01*
Y30000D02*
G03*
X60000Y30000I-30000J0D01*
G01*
D13*
X369070Y445364D02*
X370736D01*
X371569Y444531D01*
Y441199D01*
X370736Y440366D01*
X369070D01*
X368237Y441199D01*
Y444531D01*
X369070Y445364D01*
X366570Y438700D02*
Y443698D01*
X364071D01*
X363238Y442865D01*
Y441199D01*
X364071Y440366D01*
X366570D01*
X359073D02*
X360739D01*
X361572Y441199D01*
Y442865D01*
X360739Y443698D01*
X359073D01*
X358240Y442865D01*
Y442032D01*
X361572D01*
X356574Y443698D02*
Y440366D01*
Y442032D01*
X355741Y442865D01*
X354908Y443698D01*
X354075D01*
X350742D02*
X349076D01*
X348243Y442865D01*
Y440366D01*
X350742D01*
X351575Y441199D01*
X350742Y442032D01*
X348243D01*
X345744Y444531D02*
Y443698D01*
X346577D01*
X344911D01*
X345744D01*
Y441199D01*
X344911Y440366D01*
X342412D02*
X340746D01*
X341579D01*
Y443698D01*
X342412D01*
X337413Y440366D02*
X335747D01*
X334914Y441199D01*
Y442865D01*
X335747Y443698D01*
X337413D01*
X338246Y442865D01*
Y441199D01*
X337413Y440366D01*
X333248D02*
Y443698D01*
X330749D01*
X329916Y442865D01*
Y440366D01*
X319919Y444531D02*
X320752Y445364D01*
X322418D01*
X323251Y444531D01*
Y443698D01*
X322418Y442865D01*
X320752D01*
X319919Y442032D01*
Y441199D01*
X320752Y440366D01*
X322418D01*
X323251Y441199D01*
X315754Y440366D02*
X317420D01*
X318253Y441199D01*
Y442865D01*
X317420Y443698D01*
X315754D01*
X314921Y442865D01*
Y442032D01*
X318253D01*
X309922Y438700D02*
Y443698D01*
X312421D01*
X313255Y442865D01*
Y441199D01*
X312421Y440366D01*
X309922D01*
X308256Y443698D02*
Y441199D01*
X307423Y440366D01*
X304924D01*
Y443698D01*
X300759Y440366D02*
X302425D01*
X303258Y441199D01*
Y442865D01*
X302425Y443698D01*
X300759D01*
X299925Y442865D01*
Y442032D01*
X303258D01*
X298259Y440366D02*
Y443698D01*
X295760D01*
X294927Y442865D01*
Y440366D01*
X289929Y443698D02*
X292428D01*
X293261Y442865D01*
Y441199D01*
X292428Y440366D01*
X289929D01*
X285763D02*
X287430D01*
X288263Y441199D01*
Y442865D01*
X287430Y443698D01*
X285763D01*
X284930Y442865D01*
Y442032D01*
X288263D01*
X283264Y443698D02*
X282431D01*
Y442865D01*
X283264D01*
Y443698D01*
Y441199D02*
X282431D01*
Y440366D01*
X283264D01*
Y441199D01*
X430300Y421904D02*
X428633D01*
X429467D01*
Y426902D01*
X430300Y426069D01*
X426134Y421904D02*
Y422737D01*
X425301D01*
Y421904D01*
X426134D01*
X416971Y426902D02*
Y421904D01*
X414471D01*
X413638Y422737D01*
Y423570D01*
X414471Y424403D01*
X416971D01*
X414471D01*
X413638Y425236D01*
Y426069D01*
X414471Y426902D01*
X416971D01*
X408640Y426069D02*
X409473Y426902D01*
X411139D01*
X411972Y426069D01*
Y422737D01*
X411139Y421904D01*
X409473D01*
X408640Y422737D01*
X406974Y421904D02*
Y426902D01*
X404475D01*
X403642Y426069D01*
Y424403D01*
X404475Y423570D01*
X406974D01*
X396977Y421904D02*
Y426902D01*
X394478D01*
X393645Y426069D01*
Y424403D01*
X394478Y423570D01*
X396977D01*
X395311D02*
X393645Y421904D01*
X391979Y426902D02*
X388647Y421904D01*
Y426902D02*
X391979Y421904D01*
X381982Y425236D02*
Y421904D01*
Y423570D01*
X381149Y424403D01*
X380316Y425236D01*
X379483D01*
X374484Y421904D02*
X376151D01*
X376984Y422737D01*
Y424403D01*
X376151Y425236D01*
X374484D01*
X373651Y424403D01*
Y423570D01*
X376984D01*
X368653Y425236D02*
X371152D01*
X371985Y424403D01*
Y422737D01*
X371152Y421904D01*
X368653D01*
X364488D02*
X366154D01*
X366987Y422737D01*
Y424403D01*
X366154Y425236D01*
X364488D01*
X363655Y424403D01*
Y423570D01*
X366987D01*
X361989Y421904D02*
X360322D01*
X361156D01*
Y425236D01*
X361989D01*
X357823D02*
X356157Y421904D01*
X354491Y425236D01*
X350326Y421904D02*
X351992D01*
X352825Y422737D01*
Y424403D01*
X351992Y425236D01*
X350326D01*
X349493Y424403D01*
Y423570D01*
X352825D01*
X342828Y420238D02*
Y425236D01*
X340329D01*
X339496Y424403D01*
Y422737D01*
X340329Y421904D01*
X342828D01*
X336997D02*
X335331D01*
X334498Y422737D01*
Y424403D01*
X335331Y425236D01*
X336997D01*
X337830Y424403D01*
Y422737D01*
X336997Y421904D01*
X332831Y425236D02*
Y422737D01*
X331998Y421904D01*
X331165Y422737D01*
X330332Y421904D01*
X329499Y422737D01*
Y425236D01*
X325334Y421904D02*
X327000D01*
X327833Y422737D01*
Y424403D01*
X327000Y425236D01*
X325334D01*
X324501Y424403D01*
Y423570D01*
X327833D01*
X322835Y425236D02*
Y421904D01*
Y423570D01*
X322002Y424403D01*
X321169Y425236D01*
X320336D01*
X312005Y426069D02*
Y425236D01*
X312838D01*
X311172D01*
X312005D01*
Y422737D01*
X311172Y421904D01*
X308673D02*
X307006D01*
X307840D01*
Y425236D01*
X308673D01*
X304507Y421904D02*
X302841D01*
X303674D01*
Y426902D01*
X304507D01*
X300342Y421904D02*
X298676D01*
X299509D01*
Y426902D01*
X300342D01*
X291178D02*
Y423570D01*
X289512Y421904D01*
X287846Y423570D01*
Y426902D01*
X286180D02*
Y421904D01*
X283681D01*
X282848Y422737D01*
Y423570D01*
X283681Y424403D01*
X286180D01*
X283681D01*
X282848Y425236D01*
Y426069D01*
X283681Y426902D01*
X286180D01*
X281182Y421904D02*
Y425236D01*
X279515Y426902D01*
X277849Y425236D01*
Y421904D01*
Y424403D01*
X281182D01*
X276183Y426902D02*
X272851D01*
X274517D01*
Y421904D01*
X271185Y426902D02*
X267853D01*
X269519D01*
Y421904D01*
X258689Y426902D02*
X260355D01*
X261188Y426069D01*
Y422737D01*
X260355Y421904D01*
X258689D01*
X257856Y422737D01*
Y426069D01*
X258689Y426902D01*
X256190D02*
Y421904D01*
Y423570D01*
X252857Y426902D01*
X255357Y424403D01*
X252857Y421904D01*
X246193D02*
X244527D01*
X245360D01*
Y425236D01*
X246193D01*
X242028Y421904D02*
X239529D01*
X238696Y422737D01*
X239529Y423570D01*
X241195D01*
X242028Y424403D01*
X241195Y425236D01*
X238696D01*
X229532Y426902D02*
X231198D01*
X232031Y426069D01*
Y422737D01*
X231198Y421904D01*
X229532D01*
X228699Y422737D01*
Y426069D01*
X229532Y426902D01*
X227033D02*
Y421904D01*
Y423570D01*
X223700Y426902D01*
X226200Y424403D01*
X223700Y421904D01*
X454042Y411840D02*
X457374D01*
X454042Y415172D01*
Y416005D01*
X454875Y416838D01*
X456541D01*
X457374Y416005D01*
X452376Y411840D02*
Y412673D01*
X451543D01*
Y411840D01*
X452376D01*
X443212D02*
Y416838D01*
X439880Y411840D01*
Y416838D01*
X437381Y411840D02*
X435714D01*
X434881Y412673D01*
Y414339D01*
X435714Y415172D01*
X437381D01*
X438214Y414339D01*
Y412673D01*
X437381Y411840D01*
X432382Y416005D02*
Y415172D01*
X433215D01*
X431549D01*
X432382D01*
Y412673D01*
X431549Y411840D01*
X429050D02*
X427384D01*
X428217D01*
Y415172D01*
X429050D01*
X424052Y411840D02*
Y416005D01*
Y414339D01*
X424885D01*
X423219D01*
X424052D01*
Y416005D01*
X423219Y416838D01*
X420719Y415172D02*
Y412673D01*
X419886Y411840D01*
X417387D01*
Y411007D01*
X418220Y410173D01*
X419053D01*
X417387Y411840D02*
Y415172D01*
X407390Y416838D02*
X410723D01*
Y414339D01*
X409057D01*
X410723D01*
Y411840D01*
X405724D02*
Y416838D01*
X403225D01*
X402392Y416005D01*
Y414339D01*
X403225Y413506D01*
X405724D01*
X397394Y416005D02*
X398227Y416838D01*
X399893D01*
X400726Y416005D01*
Y412673D01*
X399893Y411840D01*
X398227D01*
X397394Y412673D01*
Y414339D01*
X399060D01*
X395728Y411840D02*
Y415172D01*
X394061Y416838D01*
X392395Y415172D01*
Y411840D01*
Y414339D01*
X395728D01*
X384898Y416005D02*
Y415172D01*
X385731D01*
X384065D01*
X384898D01*
Y412673D01*
X384065Y411840D01*
X381566Y416838D02*
Y411840D01*
Y414339D01*
X380732Y415172D01*
X379066D01*
X378233Y414339D01*
Y411840D01*
X376567Y415172D02*
Y411840D01*
Y413506D01*
X375734Y414339D01*
X374901Y415172D01*
X374068D01*
X370736Y411840D02*
X369070D01*
X368237Y412673D01*
Y414339D01*
X369070Y415172D01*
X370736D01*
X371569Y414339D01*
Y412673D01*
X370736Y411840D01*
X366570Y415172D02*
Y412673D01*
X365737Y411840D01*
X363238D01*
Y415172D01*
X359906Y410173D02*
X359073D01*
X358240Y411007D01*
Y415172D01*
X360739D01*
X361572Y414339D01*
Y412673D01*
X360739Y411840D01*
X358240D01*
X356574Y416838D02*
Y411840D01*
Y414339D01*
X355741Y415172D01*
X354075D01*
X353241Y414339D01*
Y411840D01*
X343245Y415172D02*
X345744D01*
X346577Y414339D01*
Y412673D01*
X345744Y411840D01*
X343245D01*
X340746D02*
X339079D01*
X338246Y412673D01*
Y414339D01*
X339079Y415172D01*
X340746D01*
X341579Y414339D01*
Y412673D01*
X340746Y411840D01*
X336580D02*
Y415172D01*
X335747D01*
X334914Y414339D01*
Y411840D01*
Y414339D01*
X334081Y415172D01*
X333248Y414339D01*
Y411840D01*
X331582Y410173D02*
Y415172D01*
X329083D01*
X328250Y414339D01*
Y412673D01*
X329083Y411840D01*
X331582D01*
X325750Y415172D02*
X324084D01*
X323251Y414339D01*
Y411840D01*
X325750D01*
X326584Y412673D01*
X325750Y413506D01*
X323251D01*
X321585Y415172D02*
Y411840D01*
Y413506D01*
X320752Y414339D01*
X319919Y415172D01*
X319086D01*
X315754D02*
X314088D01*
X313255Y414339D01*
Y411840D01*
X315754D01*
X316587Y412673D01*
X315754Y413506D01*
X313255D01*
X310755Y416005D02*
Y415172D01*
X311588D01*
X309922D01*
X310755D01*
Y412673D01*
X309922Y411840D01*
X306590D02*
X304924D01*
X304091Y412673D01*
Y414339D01*
X304924Y415172D01*
X306590D01*
X307423Y414339D01*
Y412673D01*
X306590Y411840D01*
X302425Y415172D02*
Y411840D01*
Y413506D01*
X301592Y414339D01*
X300759Y415172D01*
X299925D01*
X289096Y411840D02*
X289929Y412673D01*
X290762Y411840D01*
X291595D01*
X292428Y412673D01*
Y413506D01*
X291595Y414339D01*
X292428Y415172D01*
Y416005D01*
X291595Y416838D01*
X290762D01*
X289929Y416005D01*
Y415172D01*
X290762Y414339D01*
X289929Y413506D01*
Y412673D01*
X289096Y414339D02*
X289929Y413506D01*
X291595Y414339D02*
X290762D01*
X282431Y411840D02*
X279932D01*
X279099Y412673D01*
X279932Y413506D01*
X281598D01*
X282431Y414339D01*
X281598Y415172D01*
X279099D01*
X276600Y416005D02*
Y415172D01*
X277433D01*
X275767D01*
X276600D01*
Y412673D01*
X275767Y411840D01*
X272435Y415172D02*
X270768D01*
X269935Y414339D01*
Y411840D01*
X272435D01*
X273268Y412673D01*
X272435Y413506D01*
X269935D01*
X268269Y415172D02*
Y411840D01*
Y413506D01*
X267436Y414339D01*
X266603Y415172D01*
X265770D01*
X262438Y416005D02*
Y415172D01*
X263271D01*
X261605D01*
X262438D01*
Y412673D01*
X261605Y411840D01*
X254107Y410173D02*
Y415172D01*
X251608D01*
X250775Y414339D01*
Y412673D01*
X251608Y411840D01*
X254107D01*
X248276D02*
X246610D01*
X245777Y412673D01*
Y414339D01*
X246610Y415172D01*
X248276D01*
X249109Y414339D01*
Y412673D01*
X248276Y411840D01*
X244110Y415172D02*
Y412673D01*
X243277Y411840D01*
X242444Y412673D01*
X241611Y411840D01*
X240778Y412673D01*
Y415172D01*
X236613Y411840D02*
X238279D01*
X239112Y412673D01*
Y414339D01*
X238279Y415172D01*
X236613D01*
X235780Y414339D01*
Y413506D01*
X239112D01*
X234114Y415172D02*
Y411840D01*
Y413506D01*
X233281Y414339D01*
X232448Y415172D01*
X231614D01*
X229115Y411840D02*
X227449D01*
X228282D01*
Y415172D01*
X229115D01*
X224950Y411840D02*
Y415172D01*
X222451D01*
X221618Y414339D01*
Y411840D01*
X218286Y410173D02*
X217452D01*
X216619Y411007D01*
Y415172D01*
X219119D01*
X219952Y414339D01*
Y412673D01*
X219119Y411840D01*
X216619D01*
X206623Y416838D02*
X209955D01*
Y411840D01*
X206623D01*
X209955Y414339D02*
X208289D01*
X201624Y416005D02*
X202457Y416838D01*
X204123D01*
X204956Y416005D01*
Y412673D01*
X204123Y411840D01*
X202457D01*
X201624Y412673D01*
X196626Y416005D02*
X197459Y416838D01*
X199125D01*
X199958Y416005D01*
Y412673D01*
X199125Y411840D01*
X197459D01*
X196626Y412673D01*
Y414339D01*
X198292D01*
X382399Y405941D02*
X381566Y406774D01*
X379899D01*
X379066Y405941D01*
Y405108D01*
X379899Y404275D01*
X380732D01*
X379899D01*
X379066Y403442D01*
Y402609D01*
X379899Y401776D01*
X381566D01*
X382399Y402609D01*
X377400Y401776D02*
Y402609D01*
X376567D01*
Y401776D01*
X377400D01*
X364904Y406774D02*
X368237D01*
Y404275D01*
X366570D01*
X368237D01*
Y401776D01*
X363238D02*
Y406774D01*
X360739D01*
X359906Y405941D01*
Y404275D01*
X360739Y403442D01*
X363238D01*
X354907Y405941D02*
X355741Y406774D01*
X357407D01*
X358240Y405941D01*
Y402609D01*
X357407Y401776D01*
X355741D01*
X354907Y402609D01*
Y404275D01*
X356574D01*
X353241Y401776D02*
Y405108D01*
X351575Y406774D01*
X349909Y405108D01*
Y401776D01*
Y404275D01*
X353241D01*
X341579Y400109D02*
X340746D01*
X339912Y400942D01*
Y405108D01*
X342412D01*
X343245Y404275D01*
Y402609D01*
X342412Y401776D01*
X339912D01*
X337413Y405108D02*
X335747D01*
X334914Y404275D01*
Y401776D01*
X337413D01*
X338246Y402609D01*
X337413Y403442D01*
X334914D01*
X332415Y405941D02*
Y405108D01*
X333248D01*
X331582D01*
X332415D01*
Y402609D01*
X331582Y401776D01*
X329083Y406774D02*
Y401776D01*
Y404275D01*
X328250Y405108D01*
X326584D01*
X325750Y404275D01*
Y401776D01*
X321585D02*
X323251D01*
X324084Y402609D01*
Y404275D01*
X323251Y405108D01*
X321585D01*
X320752Y404275D01*
Y403442D01*
X324084D01*
X319086Y405108D02*
Y401776D01*
Y403442D01*
X318253Y404275D01*
X317420Y405108D01*
X316587D01*
X305757Y406774D02*
X309089D01*
Y401776D01*
X305757D01*
X309089Y404275D02*
X307423D01*
X300759Y405941D02*
X301592Y406774D01*
X303258D01*
X304091Y405941D01*
Y402609D01*
X303258Y401776D01*
X301592D01*
X300759Y402609D01*
X295760Y405941D02*
X296593Y406774D01*
X298259D01*
X299093Y405941D01*
Y402609D01*
X298259Y401776D01*
X296593D01*
X295760Y402609D01*
Y404275D01*
X297426D01*
X285763Y406774D02*
Y401776D01*
X288263D01*
X289096Y402609D01*
Y404275D01*
X288263Y405108D01*
X285763D01*
X283264D02*
X281598D01*
X280765Y404275D01*
Y401776D01*
X283264D01*
X284097Y402609D01*
X283264Y403442D01*
X280765D01*
X278266Y405941D02*
Y405108D01*
X279099D01*
X277433D01*
X278266D01*
Y402609D01*
X277433Y401776D01*
X274101Y405108D02*
X272435D01*
X271601Y404275D01*
Y401776D01*
X274101D01*
X274934Y402609D01*
X274101Y403442D01*
X271601D01*
X486115Y391711D02*
Y396710D01*
X488614Y394211D01*
X485282D01*
X483615Y391711D02*
Y392544D01*
X482782D01*
Y391711D01*
X483615D01*
X471120Y395877D02*
X471953Y396710D01*
X473619D01*
X474452Y395877D01*
Y395044D01*
X473619Y394211D01*
X471953D01*
X471120Y393377D01*
Y392544D01*
X471953Y391711D01*
X473619D01*
X474452Y392544D01*
X466954Y391711D02*
X468620D01*
X469454Y392544D01*
Y394211D01*
X468620Y395044D01*
X466954D01*
X466121Y394211D01*
Y393377D01*
X469454D01*
X464455Y391711D02*
Y395044D01*
X461956D01*
X461123Y394211D01*
Y391711D01*
X456124Y396710D02*
Y391711D01*
X458624D01*
X459457Y392544D01*
Y394211D01*
X458624Y395044D01*
X456124D01*
X447794Y390045D02*
X446961D01*
X446128Y390878D01*
Y395044D01*
X448627D01*
X449460Y394211D01*
Y392544D01*
X448627Y391711D01*
X446128D01*
X443629Y395044D02*
X441963D01*
X441129Y394211D01*
Y391711D01*
X443629D01*
X444462Y392544D01*
X443629Y393377D01*
X441129D01*
X438630Y395877D02*
Y395044D01*
X439463D01*
X437797D01*
X438630D01*
Y392544D01*
X437797Y391711D01*
X435298Y396710D02*
Y391711D01*
Y394211D01*
X434465Y395044D01*
X432799D01*
X431966Y394211D01*
Y391711D01*
X427800D02*
X429467D01*
X430300Y392544D01*
Y394211D01*
X429467Y395044D01*
X427800D01*
X426967Y394211D01*
Y393377D01*
X430300D01*
X425301Y395044D02*
Y391711D01*
Y393377D01*
X424468Y394211D01*
X423635Y395044D01*
X422802D01*
X417804Y391711D02*
X419470D01*
X420303Y392544D01*
Y394211D01*
X419470Y395044D01*
X417804D01*
X416971Y394211D01*
Y393377D01*
X420303D01*
X411972Y396710D02*
Y391711D01*
X414471D01*
X415304Y392544D01*
Y394211D01*
X414471Y395044D01*
X411972D01*
X401976Y396710D02*
X405308D01*
Y391711D01*
X401976D01*
X405308Y394211D02*
X403642D01*
X396977Y395877D02*
X397810Y396710D01*
X399476D01*
X400309Y395877D01*
Y392544D01*
X399476Y391711D01*
X397810D01*
X396977Y392544D01*
X391979Y395877D02*
X392812Y396710D01*
X394478D01*
X395311Y395877D01*
Y392544D01*
X394478Y391711D01*
X392812D01*
X391979Y392544D01*
Y394211D01*
X393645D01*
X381982Y396710D02*
Y391711D01*
X384481D01*
X385314Y392544D01*
Y394211D01*
X384481Y395044D01*
X381982D01*
X379483D02*
X377817D01*
X376984Y394211D01*
Y391711D01*
X379483D01*
X380316Y392544D01*
X379483Y393377D01*
X376984D01*
X374484Y395877D02*
Y395044D01*
X375318D01*
X373652D01*
X374484D01*
Y392544D01*
X373652Y391711D01*
X370319Y395044D02*
X368653D01*
X367820Y394211D01*
Y391711D01*
X370319D01*
X371152Y392544D01*
X370319Y393377D01*
X367820D01*
X357823Y395044D02*
X360322D01*
X361156Y394211D01*
Y392544D01*
X360322Y391711D01*
X357823D01*
X355324D02*
X353658D01*
X352825Y392544D01*
Y394211D01*
X353658Y395044D01*
X355324D01*
X356157Y394211D01*
Y392544D01*
X355324Y391711D01*
X351159D02*
Y395044D01*
X348660D01*
X347827Y394211D01*
Y391711D01*
X345327Y395877D02*
Y395044D01*
X346160D01*
X344494D01*
X345327D01*
Y392544D01*
X344494Y391711D01*
X341995D02*
X340329D01*
X341162D01*
Y395044D01*
X341995D01*
X337830Y391711D02*
Y395044D01*
X335331D01*
X334498Y394211D01*
Y391711D01*
X331998D02*
X330332D01*
X329499Y392544D01*
Y394211D01*
X330332Y395044D01*
X331998D01*
X332831Y394211D01*
Y392544D01*
X331998Y391711D01*
X327833Y395044D02*
Y392544D01*
X327000Y391711D01*
X324501D01*
Y395044D01*
X322835Y391711D02*
X320336D01*
X319503Y392544D01*
X320336Y393377D01*
X322002D01*
X322835Y394211D01*
X322002Y395044D01*
X319503D01*
X317836Y391711D02*
X316170D01*
X317003D01*
Y396710D01*
X317836D01*
X313671Y395044D02*
Y392544D01*
X312838Y391711D01*
X310339D01*
Y390878D01*
X311172Y390045D01*
X312005D01*
X310339Y391711D02*
Y395044D01*
X302841Y391711D02*
Y395877D01*
Y394211D01*
X303674D01*
X302008D01*
X302841D01*
Y395877D01*
X302008Y396710D01*
X298676Y391711D02*
X297010D01*
X296177Y392544D01*
Y394211D01*
X297010Y395044D01*
X298676D01*
X299509Y394211D01*
Y392544D01*
X298676Y391711D01*
X294511Y395044D02*
Y391711D01*
Y393377D01*
X293678Y394211D01*
X292845Y395044D01*
X292011D01*
X283681D02*
X282015D01*
X281182Y394211D01*
Y391711D01*
X283681D01*
X284514Y392544D01*
X283681Y393377D01*
X281182D01*
X273684Y391711D02*
Y395877D01*
Y394211D01*
X274517D01*
X272851D01*
X273684D01*
Y395877D01*
X272851Y396710D01*
X270352Y391711D02*
X268686D01*
X269519D01*
Y395044D01*
X270352D01*
X266187D02*
X262854Y391711D01*
X264520Y393377D01*
X262854Y395044D01*
X266187Y391711D01*
X258689D02*
X260355D01*
X261188Y392544D01*
Y394211D01*
X260355Y395044D01*
X258689D01*
X257856Y394211D01*
Y393377D01*
X261188D01*
X252857Y396710D02*
Y391711D01*
X255357D01*
X256190Y392544D01*
Y394211D01*
X255357Y395044D01*
X252857D01*
X246193Y390045D02*
Y395044D01*
X243694D01*
X242861Y394211D01*
Y392544D01*
X243694Y391711D01*
X246193D01*
X238696D02*
X240362D01*
X241195Y392544D01*
Y394211D01*
X240362Y395044D01*
X238696D01*
X237862Y394211D01*
Y393377D01*
X241195D01*
X236196Y395044D02*
Y391711D01*
Y393377D01*
X235363Y394211D01*
X234530Y395044D01*
X233697D01*
X231198Y391711D02*
X229532D01*
X230365D01*
Y395044D01*
X231198D01*
X226200Y391711D02*
X224534D01*
X223700Y392544D01*
Y394211D01*
X224534Y395044D01*
X226200D01*
X227033Y394211D01*
Y392544D01*
X226200Y391711D01*
X218702Y396710D02*
Y391711D01*
X221201D01*
X222034Y392544D01*
Y394211D01*
X221201Y395044D01*
X218702D01*
X216203Y390878D02*
X215370Y391711D01*
Y392544D01*
X216203D01*
Y391711D01*
X215370D01*
X216203Y390878D01*
X217036Y390045D01*
X206206Y395877D02*
Y395044D01*
X207039D01*
X205373D01*
X206206D01*
Y392544D01*
X205373Y391711D01*
X202874Y396710D02*
Y391711D01*
Y394211D01*
X202041Y395044D01*
X200375D01*
X199542Y394211D01*
Y391711D01*
X195376D02*
X197042D01*
X197875Y392544D01*
Y394211D01*
X197042Y395044D01*
X195376D01*
X194543Y394211D01*
Y393377D01*
X197875D01*
X192877Y391711D02*
Y395044D01*
X190378D01*
X189545Y394211D01*
Y391711D01*
X182880D02*
X180381D01*
X179548Y392544D01*
X180381Y393377D01*
X182047D01*
X182880Y394211D01*
X182047Y395044D01*
X179548D01*
X177049Y395877D02*
Y395044D01*
X177882D01*
X176216D01*
X177049D01*
Y392544D01*
X176216Y391711D01*
X172884D02*
X171217D01*
X170385Y392544D01*
Y394211D01*
X171217Y395044D01*
X172884D01*
X173717Y394211D01*
Y392544D01*
X172884Y391711D01*
X168718Y390045D02*
Y395044D01*
X166219D01*
X165386Y394211D01*
Y392544D01*
X166219Y391711D01*
X168718D01*
X364904Y373249D02*
Y378248D01*
X362405D01*
X361572Y377415D01*
Y375748D01*
X362405Y374915D01*
X364904D01*
X363238D02*
X361572Y373249D01*
X357407D02*
X359073D01*
X359906Y374082D01*
Y375748D01*
X359073Y376581D01*
X357407D01*
X356574Y375748D01*
Y374915D01*
X359906D01*
X354908Y371583D02*
Y376581D01*
X352408D01*
X351575Y375748D01*
Y374082D01*
X352408Y373249D01*
X354908D01*
X347410D02*
X349076D01*
X349909Y374082D01*
Y375748D01*
X349076Y376581D01*
X347410D01*
X346577Y375748D01*
Y374915D01*
X349909D01*
X344078Y376581D02*
X342412D01*
X341579Y375748D01*
Y373249D01*
X344078D01*
X344911Y374082D01*
X344078Y374915D01*
X341579D01*
X339079Y377415D02*
Y376581D01*
X339912D01*
X338246D01*
X339079D01*
Y374082D01*
X338246Y373249D01*
X330749D02*
X329083D01*
X329916D01*
Y378248D01*
X330749Y377415D01*
X326584D02*
X325750Y378248D01*
X324084D01*
X323251Y379081D01*
X319086Y373249D02*
Y378248D01*
X321585Y375748D01*
X318253D01*
X310755Y376581D02*
X309089D01*
X308256Y375748D01*
Y373249D01*
X310755D01*
X311588Y374082D01*
X310755Y374915D01*
X308256D01*
X304924Y371583D02*
X304091D01*
X303258Y372416D01*
Y376581D01*
X305757D01*
X306590Y375748D01*
Y374082D01*
X305757Y373249D01*
X303258D01*
X300759Y376581D02*
X299093D01*
X298259Y375748D01*
Y373249D01*
X300759D01*
X301592Y374082D01*
X300759Y374915D01*
X298259D01*
X296593Y373249D02*
X294927D01*
X295760D01*
Y376581D01*
X296593D01*
X292428Y373249D02*
Y376581D01*
X289929D01*
X289096Y375748D01*
Y373249D01*
X916383Y398044D02*
X913050D01*
X903054Y399710D02*
X903887Y400543D01*
X905553D01*
X906386Y399710D01*
Y396377D01*
X905553Y395544D01*
X903887D01*
X903054Y396377D01*
X900555Y395544D02*
X898888D01*
X898055Y396377D01*
Y398044D01*
X898888Y398877D01*
X900555D01*
X901387Y398044D01*
Y396377D01*
X900555Y395544D01*
X896389D02*
Y398877D01*
X893890D01*
X893057Y398044D01*
Y395544D01*
X891391D02*
Y398877D01*
X888892D01*
X888058Y398044D01*
Y395544D01*
X883893D02*
X885559D01*
X886392Y396377D01*
Y398044D01*
X885559Y398877D01*
X883893D01*
X883060Y398044D01*
Y397211D01*
X886392D01*
X878062Y398877D02*
X880561D01*
X881394Y398044D01*
Y396377D01*
X880561Y395544D01*
X878062D01*
X875563Y399710D02*
Y398877D01*
X876396D01*
X874730D01*
X875563D01*
Y396377D01*
X874730Y395544D01*
X867232Y400543D02*
Y397211D01*
X865566Y395544D01*
X863900Y397211D01*
Y400543D01*
X861401Y395544D02*
X859734D01*
X858901Y396377D01*
Y398044D01*
X859734Y398877D01*
X861401D01*
X862234Y398044D01*
Y396377D01*
X861401Y395544D01*
X857235Y398877D02*
Y396377D01*
X856402Y395544D01*
X853903D01*
Y398877D01*
X851404Y399710D02*
Y398877D01*
X852237D01*
X850571D01*
X851404D01*
Y396377D01*
X850571Y395544D01*
X848072Y394711D02*
X844739D01*
X840574Y395544D02*
X842240D01*
X843073Y396377D01*
Y398044D01*
X842240Y398877D01*
X840574D01*
X839741Y398044D01*
Y397211D01*
X843073D01*
X838075Y395544D02*
Y398877D01*
X835576D01*
X834743Y398044D01*
Y395544D01*
X827245Y399710D02*
Y398877D01*
X828078D01*
X826412D01*
X827245D01*
Y396377D01*
X826412Y395544D01*
X823080D02*
X821414D01*
X820581Y396377D01*
Y398044D01*
X821414Y398877D01*
X823080D01*
X823913Y398044D01*
Y396377D01*
X823080Y395544D01*
X813916Y400543D02*
Y397211D01*
X812250Y395544D01*
X810584Y397211D01*
Y400543D01*
X805585Y399710D02*
X806419Y400543D01*
X808085D01*
X808918Y399710D01*
Y398877D01*
X808085Y398044D01*
X806419D01*
X805585Y397211D01*
Y396377D01*
X806419Y395544D01*
X808085D01*
X808918Y396377D01*
X803919Y400543D02*
X800587D01*
X802253D01*
Y395544D01*
X796422Y400543D02*
X798088D01*
X798921Y399710D01*
Y396377D01*
X798088Y395544D01*
X796422D01*
X795589Y396377D01*
Y399710D01*
X796422Y400543D01*
X793923Y395544D02*
Y400543D01*
X791423D01*
X790590Y399710D01*
Y398044D01*
X791423Y397211D01*
X793923D01*
X792256D02*
X790590Y395544D01*
X783093Y399710D02*
Y398877D01*
X783926D01*
X782260D01*
X783093D01*
Y396377D01*
X782260Y395544D01*
X778928D02*
X777261D01*
X776428Y396377D01*
Y398044D01*
X777261Y398877D01*
X778928D01*
X779761Y398044D01*
Y396377D01*
X778928Y395544D01*
X768931Y398877D02*
X767265D01*
X766432Y398044D01*
Y395544D01*
X768931D01*
X769764Y396377D01*
X768931Y397211D01*
X766432D01*
X764765Y395544D02*
X763099D01*
X763932D01*
Y400543D01*
X764765D01*
X760600Y398877D02*
Y396377D01*
X759767Y395544D01*
X758934Y396377D01*
X758101Y395544D01*
X757268Y396377D01*
Y398877D01*
X754769D02*
X753103D01*
X752270Y398044D01*
Y395544D01*
X754769D01*
X755602Y396377D01*
X754769Y397211D01*
X752270D01*
X750603Y398877D02*
Y396377D01*
X749770Y395544D01*
X747271D01*
Y394711D01*
X748104Y393878D01*
X748937D01*
X747271Y395544D02*
Y398877D01*
X745605Y395544D02*
X743106D01*
X742273Y396377D01*
X743106Y397211D01*
X744772D01*
X745605Y398044D01*
X744772Y398877D01*
X742273D01*
X733109Y395544D02*
X734775D01*
X735608Y396377D01*
Y398044D01*
X734775Y398877D01*
X733109D01*
X732276Y398044D01*
Y397211D01*
X735608D01*
X730610Y395544D02*
Y398877D01*
X728111D01*
X727278Y398044D01*
Y395544D01*
X724779Y398877D02*
X723112D01*
X722279Y398044D01*
Y395544D01*
X724779D01*
X725612Y396377D01*
X724779Y397211D01*
X722279D01*
X720613Y400543D02*
Y395544D01*
X718114D01*
X717281Y396377D01*
Y397211D01*
Y398044D01*
X718114Y398877D01*
X720613D01*
X715615Y395544D02*
X713949D01*
X714782D01*
Y400543D01*
X715615D01*
X708950Y395544D02*
X710617D01*
X711450Y396377D01*
Y398044D01*
X710617Y398877D01*
X708950D01*
X708117Y398044D01*
Y397211D01*
X711450D01*
X972614Y387979D02*
X969282D01*
X959285Y389646D02*
X960118Y390479D01*
X961785D01*
X962617Y389646D01*
Y386313D01*
X961785Y385480D01*
X960118D01*
X959285Y386313D01*
X956786Y385480D02*
X955120D01*
X954287Y386313D01*
Y387979D01*
X955120Y388812D01*
X956786D01*
X957619Y387979D01*
Y386313D01*
X956786Y385480D01*
X952621D02*
Y388812D01*
X950122D01*
X949289Y387979D01*
Y385480D01*
X947622D02*
Y388812D01*
X945123D01*
X944290Y387979D01*
Y385480D01*
X940125D02*
X941791D01*
X942624Y386313D01*
Y387979D01*
X941791Y388812D01*
X940125D01*
X939292Y387979D01*
Y387146D01*
X942624D01*
X934294Y388812D02*
X936793D01*
X937626Y387979D01*
Y386313D01*
X936793Y385480D01*
X934294D01*
X931794Y389646D02*
Y388812D01*
X932627D01*
X930961D01*
X931794D01*
Y386313D01*
X930961Y385480D01*
X923464Y390479D02*
Y387146D01*
X921797Y385480D01*
X920131Y387146D01*
Y390479D01*
X917632Y385480D02*
X915966D01*
X915133Y386313D01*
Y387979D01*
X915966Y388812D01*
X917632D01*
X918465Y387979D01*
Y386313D01*
X917632Y385480D01*
X913467Y388812D02*
Y386313D01*
X912634Y385480D01*
X910135D01*
Y388812D01*
X907635Y389646D02*
Y388812D01*
X908469D01*
X906803D01*
X907635D01*
Y386313D01*
X906803Y385480D01*
X904303Y384647D02*
X900971D01*
X896806Y385480D02*
X898472D01*
X899305Y386313D01*
Y387979D01*
X898472Y388812D01*
X896806D01*
X895973Y387979D01*
Y387146D01*
X899305D01*
X894306Y385480D02*
Y388812D01*
X891807D01*
X890974Y387979D01*
Y385480D01*
X883477Y389646D02*
Y388812D01*
X884310D01*
X882644D01*
X883477D01*
Y386313D01*
X882644Y385480D01*
X879311D02*
X877645D01*
X876812Y386313D01*
Y387979D01*
X877645Y388812D01*
X879311D01*
X880145Y387979D01*
Y386313D01*
X879311Y385480D01*
X870148Y390479D02*
Y387146D01*
X868482Y385480D01*
X866815Y387146D01*
Y390479D01*
X865149D02*
Y385480D01*
X862650D01*
X861817Y386313D01*
Y387146D01*
X862650Y387979D01*
X865149D01*
X862650D01*
X861817Y388812D01*
Y389646D01*
X862650Y390479D01*
X865149D01*
X860151Y385480D02*
Y388812D01*
X858485Y390479D01*
X856819Y388812D01*
Y385480D01*
Y387979D01*
X860151D01*
X855153Y390479D02*
X851820D01*
X853486D01*
Y385480D01*
X850154Y390479D02*
X846822D01*
X848488D01*
Y385480D01*
X845156Y384647D02*
X841824D01*
X837658Y390479D02*
X839324D01*
X840158Y389646D01*
Y386313D01*
X839324Y385480D01*
X837658D01*
X836825Y386313D01*
Y389646D01*
X837658Y390479D01*
X835159D02*
Y385480D01*
Y387146D01*
X831827Y390479D01*
X834326Y387979D01*
X831827Y385480D01*
X824329Y389646D02*
Y388812D01*
X825163D01*
X823496D01*
X824329D01*
Y386313D01*
X823496Y385480D01*
X820164D02*
X818498D01*
X817665Y386313D01*
Y387979D01*
X818498Y388812D01*
X820164D01*
X820997Y387979D01*
Y386313D01*
X820164Y385480D01*
X810167D02*
X808501D01*
X807668Y386313D01*
Y387979D01*
X808501Y388812D01*
X810167D01*
X811000Y387979D01*
Y386313D01*
X810167Y385480D01*
X806002D02*
Y388812D01*
X803503D01*
X802670Y387979D01*
Y385480D01*
X801004D02*
X799338D01*
X800171D01*
Y390479D01*
X801004D01*
X796838Y388812D02*
Y386313D01*
X796005Y385480D01*
X793506D01*
Y384647D01*
X794339Y383814D01*
X795172D01*
X793506Y385480D02*
Y388812D01*
X784342Y385480D02*
X786009D01*
X786842Y386313D01*
Y387979D01*
X786009Y388812D01*
X784342D01*
X783509Y387979D01*
Y387146D01*
X786842D01*
X781843Y385480D02*
Y388812D01*
X779344D01*
X778511Y387979D01*
Y385480D01*
X776012Y388812D02*
X774346D01*
X773513Y387979D01*
Y385480D01*
X776012D01*
X776845Y386313D01*
X776012Y387146D01*
X773513D01*
X771846Y390479D02*
Y385480D01*
X769347D01*
X768514Y386313D01*
Y387146D01*
Y387979D01*
X769347Y388812D01*
X771846D01*
X766848Y385480D02*
X765182D01*
X766015D01*
Y390479D01*
X766848D01*
X760184Y385480D02*
X761850D01*
X762683Y386313D01*
Y387979D01*
X761850Y388812D01*
X760184D01*
X759351Y387979D01*
Y387146D01*
X762683D01*
X752686Y388812D02*
Y386313D01*
X751853Y385480D01*
X751020Y386313D01*
X750187Y385480D01*
X749354Y386313D01*
Y388812D01*
X747688Y390479D02*
Y385480D01*
Y387979D01*
X746855Y388812D01*
X745189D01*
X744355Y387979D01*
Y385480D01*
X740190D02*
X741856D01*
X742689Y386313D01*
Y387979D01*
X741856Y388812D01*
X740190D01*
X739357Y387979D01*
Y387146D01*
X742689D01*
X737691Y385480D02*
Y388812D01*
X735192D01*
X734359Y387979D01*
Y385480D01*
X727694Y388812D02*
X726028Y385480D01*
X724362Y388812D01*
X721863Y385480D02*
X720197D01*
X719364Y386313D01*
Y387979D01*
X720197Y388812D01*
X721863D01*
X722696Y387979D01*
Y386313D01*
X721863Y385480D01*
X717698D02*
X716031D01*
X716864D01*
Y390479D01*
X717698D01*
X712699Y389646D02*
Y388812D01*
X713532D01*
X711866D01*
X712699D01*
Y386313D01*
X711866Y385480D01*
X708534Y388812D02*
X706868D01*
X706035Y387979D01*
Y385480D01*
X708534D01*
X709367Y386313D01*
X708534Y387146D01*
X706035D01*
X702702Y383814D02*
X701869D01*
X701036Y384647D01*
Y388812D01*
X703536D01*
X704369Y387979D01*
Y386313D01*
X703536Y385480D01*
X701036D01*
X696871D02*
X698537D01*
X699370Y386313D01*
Y387979D01*
X698537Y388812D01*
X696871D01*
X696038Y387979D01*
Y387146D01*
X699370D01*
X688540Y385480D02*
X686874D01*
X686041Y386313D01*
Y387979D01*
X686874Y388812D01*
X688540D01*
X689373Y387979D01*
Y386313D01*
X688540Y385480D01*
X683542D02*
Y389646D01*
Y387979D01*
X684375D01*
X682709D01*
X683542D01*
Y389646D01*
X682709Y390479D01*
X675211D02*
Y387146D01*
X673545Y385480D01*
X671879Y387146D01*
Y390479D01*
X670213D02*
Y385480D01*
X667714D01*
X666881Y386313D01*
Y387146D01*
X667714Y387979D01*
X670213D01*
X667714D01*
X666881Y388812D01*
Y389646D01*
X667714Y390479D01*
X670213D01*
X665215Y385480D02*
Y388812D01*
X663549Y390479D01*
X661882Y388812D01*
Y385480D01*
Y387979D01*
X665215D01*
X660216Y390479D02*
X656884D01*
X658550D01*
Y385480D01*
X655218Y390479D02*
X651886D01*
X653552D01*
Y385480D01*
X850571Y375416D02*
X848905D01*
X849738D01*
Y378748D01*
X850571D01*
X846405Y375416D02*
X843906D01*
X843073Y376249D01*
X843906Y377082D01*
X845572D01*
X846405Y377915D01*
X845572Y378748D01*
X843073D01*
X833076D02*
X835576D01*
X836409Y377915D01*
Y376249D01*
X835576Y375416D01*
X833076D01*
X831410Y380415D02*
Y375416D01*
Y377915D01*
X830577Y378748D01*
X828911D01*
X828078Y377915D01*
Y375416D01*
X825579Y378748D02*
X823913D01*
X823080Y377915D01*
Y375416D01*
X825579D01*
X826412Y376249D01*
X825579Y377082D01*
X823080D01*
X821414Y378748D02*
Y375416D01*
Y377082D01*
X820581Y377915D01*
X819747Y378748D01*
X818914D01*
X814749Y373750D02*
X813916D01*
X813083Y374583D01*
Y378748D01*
X815582D01*
X816415Y377915D01*
Y376249D01*
X815582Y375416D01*
X813083D01*
X808918D02*
X810584D01*
X811417Y376249D01*
Y377915D01*
X810584Y378748D01*
X808918D01*
X808085Y377915D01*
Y377082D01*
X811417D01*
X803086Y380415D02*
Y375416D01*
X805585D01*
X806419Y376249D01*
Y377915D01*
X805585Y378748D01*
X803086D01*
X795589Y379581D02*
Y378748D01*
X796422D01*
X794756D01*
X795589D01*
Y376249D01*
X794756Y375416D01*
X791423D02*
X789757D01*
X788924Y376249D01*
Y377915D01*
X789757Y378748D01*
X791423D01*
X792256Y377915D01*
Y376249D01*
X791423Y375416D01*
X778928Y380415D02*
X782260D01*
Y377915D01*
X780594Y378748D01*
X779761D01*
X778928Y377915D01*
Y376249D01*
X779761Y375416D01*
X781427D01*
X782260Y376249D01*
X777261Y380415D02*
Y377082D01*
X775595Y375416D01*
X773929Y377082D01*
Y380415D01*
M02*
