G04*
G04 #@! TF.GenerationSoftware,Altium Limited,Altium Designer,21.6.4 (81)*
G04*
G04 Layer_Physical_Order=1*
G04 Layer_Color=255*
%FSLAX44Y44*%
%MOMM*%
G71*
G04*
G04 #@! TF.SameCoordinates,DF600929-9F7D-4707-823E-D0FB3E8D8E71*
G04*
G04*
G04 #@! TF.FilePolarity,Positive*
G04*
G01*
G75*
%ADD14R,0.9400X0.8300*%
G04:AMPARAMS|DCode=15|XSize=2.83mm|YSize=0.9mm|CornerRadius=0.1035mm|HoleSize=0mm|Usage=FLASHONLY|Rotation=0.000|XOffset=0mm|YOffset=0mm|HoleType=Round|Shape=RoundedRectangle|*
%AMROUNDEDRECTD15*
21,1,2.8300,0.6930,0,0,0.0*
21,1,2.6230,0.9000,0,0,0.0*
1,1,0.2070,1.3115,-0.3465*
1,1,0.2070,-1.3115,-0.3465*
1,1,0.2070,-1.3115,0.3465*
1,1,0.2070,1.3115,0.3465*
%
%ADD15ROUNDEDRECTD15*%
G04:AMPARAMS|DCode=16|XSize=5.63mm|YSize=6.1mm|CornerRadius=0.6475mm|HoleSize=0mm|Usage=FLASHONLY|Rotation=270.000|XOffset=0mm|YOffset=0mm|HoleType=Round|Shape=RoundedRectangle|*
%AMROUNDEDRECTD16*
21,1,5.6300,4.8051,0,0,270.0*
21,1,4.3351,6.1000,0,0,270.0*
1,1,1.2949,-2.4026,-2.1676*
1,1,1.2949,-2.4026,2.1676*
1,1,1.2949,2.4026,2.1676*
1,1,1.2949,2.4026,-2.1676*
%
%ADD16ROUNDEDRECTD16*%
%ADD17R,1.0000X1.0000*%
%ADD18R,1.5260X0.6500*%
%ADD19R,0.8300X0.9400*%
%ADD20R,0.6500X1.5260*%
G04:AMPARAMS|DCode=21|XSize=1.26mm|YSize=0.59mm|CornerRadius=0.0738mm|HoleSize=0mm|Usage=FLASHONLY|Rotation=180.000|XOffset=0mm|YOffset=0mm|HoleType=Round|Shape=RoundedRectangle|*
%AMROUNDEDRECTD21*
21,1,1.2600,0.4425,0,0,180.0*
21,1,1.1125,0.5900,0,0,180.0*
1,1,0.1475,-0.5563,0.2213*
1,1,0.1475,0.5563,0.2213*
1,1,0.1475,0.5563,-0.2213*
1,1,0.1475,-0.5563,-0.2213*
%
%ADD21ROUNDEDRECTD21*%
%ADD22R,1.2000X0.6000*%
%ADD23R,2.4500X3.3000*%
%ADD24R,0.5541X0.4627*%
%ADD25R,0.8000X0.8000*%
%ADD26R,1.0500X0.6000*%
%ADD27R,0.8000X0.8000*%
%ADD28R,3.0000X5.0000*%
G04:AMPARAMS|DCode=29|XSize=1.97mm|YSize=0.6mm|CornerRadius=0.075mm|HoleSize=0mm|Usage=FLASHONLY|Rotation=0.000|XOffset=0mm|YOffset=0mm|HoleType=Round|Shape=RoundedRectangle|*
%AMROUNDEDRECTD29*
21,1,1.9700,0.4500,0,0,0.0*
21,1,1.8200,0.6000,0,0,0.0*
1,1,0.1500,0.9100,-0.2250*
1,1,0.1500,-0.9100,-0.2250*
1,1,0.1500,-0.9100,0.2250*
1,1,0.1500,0.9100,0.2250*
%
%ADD29ROUNDEDRECTD29*%
%ADD30R,1.8000X1.6000*%
%ADD56C,0.3000*%
%ADD57C,0.2540*%
%ADD58C,0.5000*%
%ADD59C,1.0000*%
%ADD60C,0.3810*%
%ADD61C,1.2000*%
%ADD62C,1.5200*%
G04:AMPARAMS|DCode=63|XSize=1.52mm|YSize=1.52mm|CornerRadius=0.38mm|HoleSize=0mm|Usage=FLASHONLY|Rotation=180.000|XOffset=0mm|YOffset=0mm|HoleType=Round|Shape=RoundedRectangle|*
%AMROUNDEDRECTD63*
21,1,1.5200,0.7600,0,0,180.0*
21,1,0.7600,1.5200,0,0,180.0*
1,1,0.7600,-0.3800,0.3800*
1,1,0.7600,0.3800,0.3800*
1,1,0.7600,0.3800,-0.3800*
1,1,0.7600,-0.3800,-0.3800*
%
%ADD63ROUNDEDRECTD63*%
G04:AMPARAMS|DCode=64|XSize=1.6mm|YSize=1.6mm|CornerRadius=0.4mm|HoleSize=0mm|Usage=FLASHONLY|Rotation=0.000|XOffset=0mm|YOffset=0mm|HoleType=Round|Shape=RoundedRectangle|*
%AMROUNDEDRECTD64*
21,1,1.6000,0.8000,0,0,0.0*
21,1,0.8000,1.6000,0,0,0.0*
1,1,0.8000,0.4000,-0.4000*
1,1,0.8000,-0.4000,-0.4000*
1,1,0.8000,-0.4000,0.4000*
1,1,0.8000,0.4000,0.4000*
%
%ADD64ROUNDEDRECTD64*%
%ADD65C,1.1200*%
%ADD66C,1.6000*%
G04:AMPARAMS|DCode=67|XSize=1.6mm|YSize=1.6mm|CornerRadius=0.4mm|HoleSize=0mm|Usage=FLASHONLY|Rotation=90.000|XOffset=0mm|YOffset=0mm|HoleType=Round|Shape=RoundedRectangle|*
%AMROUNDEDRECTD67*
21,1,1.6000,0.8000,0,0,90.0*
21,1,0.8000,1.6000,0,0,90.0*
1,1,0.8000,0.4000,0.4000*
1,1,0.8000,0.4000,-0.4000*
1,1,0.8000,-0.4000,-0.4000*
1,1,0.8000,-0.4000,0.4000*
%
%ADD67ROUNDEDRECTD67*%
%ADD68C,0.6000*%
G36*
X748852Y558980D02*
X745865Y557742D01*
X741699Y555190D01*
X737983Y552016D01*
X734810Y548301D01*
X732258Y544135D01*
X730388Y539622D01*
X729247Y534871D01*
X728864Y530000D01*
X729247Y525129D01*
X730388Y520378D01*
X732258Y515865D01*
X734810Y511699D01*
X737983Y507984D01*
X741699Y504810D01*
X745865Y502258D01*
X750378Y500388D01*
X755129Y499247D01*
X760000Y498864D01*
X764871Y499247D01*
X769622Y500388D01*
X774135Y502258D01*
X778301Y504810D01*
X782017Y507984D01*
X785190Y511699D01*
X787742Y515865D01*
X788480Y517645D01*
X789750Y517393D01*
Y42607D01*
X788480Y42355D01*
X787742Y44135D01*
X785190Y48301D01*
X782017Y52017D01*
X778301Y55189D01*
X774135Y57742D01*
X769622Y59612D01*
X764871Y60753D01*
X760000Y61136D01*
X755129Y60753D01*
X750378Y59612D01*
X745865Y57742D01*
X741699Y55189D01*
X737983Y52017D01*
X734810Y48301D01*
X732258Y44135D01*
X730388Y39622D01*
X729247Y34871D01*
X728864Y30000D01*
X729247Y25129D01*
X730388Y20378D01*
X732258Y15865D01*
X734810Y11699D01*
X737983Y7983D01*
X741699Y4811D01*
X745865Y2258D01*
X748249Y1270D01*
X747996Y0D01*
X42004D01*
X41751Y1270D01*
X44135Y2258D01*
X48301Y4811D01*
X52017Y7983D01*
X55189Y11699D01*
X57742Y15865D01*
X59612Y20378D01*
X60753Y25129D01*
X61136Y30000D01*
X60753Y34871D01*
X59612Y39622D01*
X57742Y44135D01*
X55189Y48301D01*
X52017Y52017D01*
X48301Y55189D01*
X44135Y57742D01*
X39622Y59612D01*
X34871Y60753D01*
X30000Y61136D01*
X25129Y60753D01*
X20378Y59612D01*
X15865Y57742D01*
X11699Y55189D01*
X7983Y52017D01*
X4811Y48301D01*
X2258Y44135D01*
X1270Y41751D01*
X0Y42004D01*
Y88115D01*
X1083Y88512D01*
X1270Y88521D01*
X10701Y79091D01*
X12368Y77977D01*
X14334Y77586D01*
X74147D01*
X80710Y71023D01*
Y65210D01*
X86523D01*
X93393Y58339D01*
X93014Y56923D01*
X91732Y56579D01*
X89328Y55191D01*
X87366Y53229D01*
X85978Y50826D01*
X85260Y48145D01*
Y45370D01*
X85978Y42689D01*
X87366Y40286D01*
X89328Y38323D01*
X91732Y36936D01*
X94412Y36217D01*
X97188D01*
X99868Y36936D01*
X102272Y38323D01*
X104234Y40286D01*
X105622Y42689D01*
X106340Y45370D01*
Y48145D01*
X105622Y50826D01*
X104234Y53229D01*
X103081Y54382D01*
X103607Y55652D01*
X105038D01*
X110604Y50087D01*
Y42757D01*
X110828Y41050D01*
X111487Y39459D01*
X112536Y38093D01*
X113902Y37045D01*
X115493Y36386D01*
X117200Y36161D01*
X125200D01*
X126907Y36386D01*
X128498Y37045D01*
X129864Y38093D01*
X130913Y39459D01*
X131572Y41050D01*
X131796Y42757D01*
Y50757D01*
X131572Y52465D01*
X130913Y54056D01*
X129864Y55422D01*
X128498Y56470D01*
X126907Y57129D01*
X125200Y57354D01*
X117871D01*
X111735Y63490D01*
X112261Y64760D01*
X124840D01*
Y79240D01*
X111460D01*
Y77014D01*
X109790D01*
Y78290D01*
X96710D01*
Y71217D01*
X95537Y70731D01*
X93790Y72477D01*
Y78290D01*
X87977D01*
X79909Y86358D01*
X78242Y87472D01*
X76276Y87863D01*
X75369D01*
X75040Y89090D01*
X75172Y89166D01*
X77134Y91128D01*
X78522Y93532D01*
X79240Y96212D01*
Y98988D01*
X78522Y101668D01*
X77134Y104072D01*
X75172Y106034D01*
X72819Y107392D01*
Y138270D01*
X74926Y139486D01*
X76814Y141374D01*
X78149Y143686D01*
X78840Y146265D01*
Y148935D01*
X78149Y151514D01*
X76814Y153826D01*
X74926Y155714D01*
X72614Y157049D01*
X70035Y157740D01*
X67365D01*
X64786Y157049D01*
X62474Y155714D01*
X60586Y153826D01*
X59251Y151514D01*
X58560Y148935D01*
Y146265D01*
X59251Y143686D01*
X60586Y141374D01*
X62474Y139486D01*
X64581Y138270D01*
Y107392D01*
X62228Y106034D01*
X60266Y104072D01*
X58878Y101668D01*
X58160Y98988D01*
Y96212D01*
X58878Y93532D01*
X60266Y91128D01*
X62228Y89166D01*
X62360Y89090D01*
X62031Y87863D01*
X49969D01*
X49640Y89090D01*
X49772Y89166D01*
X51734Y91128D01*
X53122Y93532D01*
X53840Y96212D01*
Y98988D01*
X53122Y101668D01*
X51734Y104072D01*
X49772Y106034D01*
X47419Y107392D01*
Y138270D01*
X49526Y139486D01*
X51414Y141374D01*
X52749Y143686D01*
X53440Y146265D01*
Y148935D01*
X52749Y151514D01*
X51414Y153826D01*
X49526Y155714D01*
X47214Y157049D01*
X44635Y157740D01*
X41965D01*
X39386Y157049D01*
X37074Y155714D01*
X35186Y153826D01*
X33851Y151514D01*
X33160Y148935D01*
Y146265D01*
X33851Y143686D01*
X35186Y141374D01*
X37074Y139486D01*
X39181Y138270D01*
Y107392D01*
X36828Y106034D01*
X34866Y104072D01*
X33478Y101668D01*
X32760Y98988D01*
Y96212D01*
X33478Y93532D01*
X34866Y91128D01*
X36828Y89166D01*
X36960Y89090D01*
X36631Y87863D01*
X16463D01*
X9999Y94327D01*
Y150307D01*
X52803Y193111D01*
X102960D01*
Y191010D01*
X116340D01*
Y205490D01*
X114789D01*
Y216100D01*
X114398Y218067D01*
X113284Y219734D01*
X103204Y229813D01*
Y230400D01*
X102949Y231684D01*
X102222Y232772D01*
X101134Y233499D01*
X99850Y233755D01*
X81650D01*
X80366Y233499D01*
X79278Y232772D01*
X78551Y231684D01*
X78296Y230400D01*
Y225900D01*
X78551Y224616D01*
X79278Y223528D01*
X80366Y222801D01*
X81650Y222546D01*
X95012D01*
X95160Y222325D01*
X94481Y221054D01*
X81650D01*
X80366Y220799D01*
X79902Y220489D01*
X67290D01*
Y222490D01*
X53910D01*
Y208010D01*
X67290D01*
Y210211D01*
X80201D01*
X80366Y210101D01*
X81650Y209846D01*
X99850D01*
X101134Y210101D01*
X102222Y210828D01*
X102949Y211916D01*
X103017Y212257D01*
X104428Y212841D01*
X104511Y212786D01*
Y205490D01*
X102960D01*
Y203389D01*
X50674D01*
X48708Y202998D01*
X47041Y201884D01*
X1270Y156113D01*
X1083Y156122D01*
X0Y156520D01*
Y517996D01*
X1270Y518249D01*
X2258Y515865D01*
X4811Y511699D01*
X7983Y507984D01*
X11699Y504810D01*
X15865Y502258D01*
X20378Y500388D01*
X25129Y499247D01*
X30000Y498864D01*
X34871Y499247D01*
X39622Y500388D01*
X44135Y502258D01*
X48301Y504810D01*
X52017Y507984D01*
X55189Y511699D01*
X57742Y515865D01*
X59612Y520378D01*
X60753Y525129D01*
X61136Y530000D01*
X60753Y534871D01*
X59612Y539622D01*
X57742Y544135D01*
X55189Y548301D01*
X52017Y552016D01*
X48301Y555190D01*
X44135Y557742D01*
X41147Y558980D01*
X41400Y560250D01*
X748600D01*
X748852Y558980D01*
D02*
G37*
%LPC*%
G36*
X410250Y540855D02*
X349750D01*
X347782Y540596D01*
X345947Y539836D01*
X344372Y538628D01*
X337772Y532028D01*
X336564Y530452D01*
X335804Y528618D01*
X335545Y526650D01*
Y520900D01*
X325215Y510570D01*
X324006Y508995D01*
X323247Y507161D01*
X322988Y505192D01*
Y499355D01*
X298540D01*
Y519290D01*
X263460D01*
Y464210D01*
X298540D01*
Y484145D01*
X327442D01*
X330972Y480615D01*
X332547Y479406D01*
X334382Y478647D01*
X336350Y478387D01*
X339700D01*
X341668Y478647D01*
X343503Y479406D01*
X344847Y480438D01*
X345262D01*
X346541Y480693D01*
X347625Y481417D01*
X348350Y482501D01*
X348604Y483780D01*
Y488205D01*
X348350Y489484D01*
X347625Y490568D01*
X346541Y491292D01*
X345262Y491547D01*
X344847D01*
X343503Y492579D01*
X341668Y493339D01*
X339700Y493598D01*
X339500D01*
X338198Y494900D01*
Y502042D01*
X346665Y510510D01*
X349840D01*
Y514198D01*
X350496Y515782D01*
X350755Y517750D01*
Y523500D01*
X352900Y525645D01*
X407100D01*
X409962Y522783D01*
Y518833D01*
X410221Y516865D01*
X410981Y515031D01*
X411960Y513754D01*
Y510510D01*
X416426D01*
X416682Y510404D01*
X418650Y510145D01*
X420618Y510404D01*
X420874Y510510D01*
X438540D01*
Y513865D01*
X471146D01*
Y512896D01*
X488854D01*
Y513865D01*
X546237D01*
X546378Y512793D01*
X547037Y511202D01*
X548086Y509836D01*
X549452Y508787D01*
X551043Y508128D01*
X552750Y507904D01*
X560750D01*
X562457Y508128D01*
X564048Y508787D01*
X565414Y509836D01*
X566463Y511202D01*
X567122Y512793D01*
X567346Y514500D01*
Y522500D01*
X567122Y524207D01*
X566463Y525798D01*
X565414Y527164D01*
X564048Y528213D01*
X562457Y528872D01*
X560750Y529096D01*
X552750D01*
X551043Y528872D01*
X549452Y528213D01*
X548086Y527164D01*
X547037Y525798D01*
X546378Y524207D01*
X546154Y522500D01*
Y521635D01*
X488854D01*
Y522604D01*
X471146D01*
Y521635D01*
X438540D01*
Y524990D01*
X425172D01*
Y525933D01*
X424913Y527901D01*
X424468Y528976D01*
X424153Y529736D01*
X422944Y531311D01*
X415628Y538628D01*
X414053Y539836D01*
X412218Y540596D01*
X410250Y540855D01*
D02*
G37*
G36*
X111090Y528240D02*
X97710D01*
Y513760D01*
X99868D01*
Y511790D01*
X89960D01*
Y501364D01*
X71750D01*
X71750Y501364D01*
X70635Y501217D01*
X69521Y501070D01*
X67443Y500210D01*
X65659Y498841D01*
X14659Y447841D01*
X13290Y446057D01*
X12430Y443979D01*
X12136Y441750D01*
Y430361D01*
X10928Y428268D01*
X10210Y425588D01*
Y422812D01*
X10928Y420132D01*
X12316Y417728D01*
X14278Y415766D01*
X16682Y414378D01*
X19362Y413660D01*
X22138D01*
X24818Y414378D01*
X27222Y415766D01*
X29184Y417728D01*
X30304Y419668D01*
X36997D01*
X38732Y420013D01*
X40202Y420995D01*
X44820Y425613D01*
X54014D01*
X54085Y425542D01*
X54308Y424421D01*
X55290Y422950D01*
X56410Y421831D01*
Y413760D01*
X69790D01*
Y416293D01*
X72017D01*
X72118Y415790D01*
X72908Y414608D01*
X74090Y413817D01*
X75485Y413540D01*
X98805D01*
X99291Y412367D01*
X97302Y410378D01*
X96410Y409041D01*
X96096Y407465D01*
Y404960D01*
X75485D01*
X74090Y404683D01*
X72908Y403892D01*
X72118Y402710D01*
X71970Y401969D01*
X69897D01*
Y404490D01*
X56518D01*
Y390010D01*
X69897D01*
Y393731D01*
X71970D01*
X72118Y392990D01*
X72679Y392150D01*
X72118Y391310D01*
X71840Y389915D01*
Y382985D01*
X72118Y381590D01*
X72908Y380408D01*
X74090Y379618D01*
X75485Y379340D01*
X101715D01*
X103110Y379618D01*
X104292Y380408D01*
X105083Y381590D01*
X105360Y382985D01*
Y389915D01*
X105083Y391310D01*
X104521Y392150D01*
X105083Y392990D01*
X105360Y394385D01*
Y401315D01*
X105083Y402710D01*
X104334Y403830D01*
Y405759D01*
X116913Y418337D01*
X117806Y419674D01*
X118119Y421250D01*
Y437294D01*
X123206Y442381D01*
X183294D01*
X191460Y434215D01*
Y426960D01*
X198715D01*
X200461Y425213D01*
X199975Y424040D01*
X191460D01*
Y410960D01*
X194115D01*
Y408540D01*
X190510D01*
Y395160D01*
X204990D01*
Y408540D01*
X201885D01*
Y410960D01*
X204540D01*
X204540Y410960D01*
X205672Y410627D01*
X206426Y409498D01*
X213220Y402704D01*
X212621Y401257D01*
X212396Y399550D01*
Y391550D01*
X212621Y389843D01*
X213280Y388252D01*
X214328Y386886D01*
X215694Y385837D01*
X217285Y385178D01*
X218993Y384954D01*
X226993D01*
X228700Y385178D01*
X230291Y385837D01*
X231657Y386886D01*
X232705Y388252D01*
X233364Y389843D01*
X233589Y391550D01*
Y399550D01*
X233364Y401257D01*
X232705Y402848D01*
X231657Y404214D01*
X230291Y405263D01*
X228700Y405922D01*
X226993Y406146D01*
X221269D01*
X220949Y406627D01*
X216533Y411043D01*
X217313Y412059D01*
X218924Y411128D01*
X221605Y410410D01*
X224380D01*
X227004Y411113D01*
X228930Y409187D01*
X230266Y408294D01*
X231843Y407981D01*
X242010D01*
Y405410D01*
X256490D01*
Y412965D01*
X262156Y418631D01*
X264303D01*
Y412210D01*
X271723D01*
Y391290D01*
X264303D01*
Y370210D01*
X287383D01*
Y391290D01*
X279962D01*
Y412210D01*
X287383D01*
Y426121D01*
X288556Y426607D01*
X314075Y401087D01*
X315412Y400194D01*
X316988Y399881D01*
X362213D01*
X363790Y400194D01*
X365126Y401087D01*
X367753Y403714D01*
X368646Y405050D01*
X368737Y405512D01*
X368985Y405760D01*
X376540D01*
Y414415D01*
X378698Y416572D01*
X379591Y417909D01*
X379904Y419485D01*
Y424960D01*
X384325D01*
Y434460D01*
Y443960D01*
Y455040D01*
X378670D01*
Y459757D01*
X378374Y461244D01*
X377532Y462504D01*
X367784Y472253D01*
X367950Y472501D01*
X368204Y473780D01*
Y478205D01*
X367950Y479484D01*
X367225Y480568D01*
X366141Y481292D01*
X364863Y481547D01*
X353737D01*
X352459Y481292D01*
X351375Y480568D01*
X350650Y479484D01*
X350396Y478205D01*
Y473780D01*
X350650Y472501D01*
X351375Y471417D01*
X352459Y470693D01*
X353737Y470438D01*
X358610D01*
X370900Y458148D01*
Y455040D01*
X367245D01*
Y443960D01*
Y434460D01*
Y424960D01*
X371666D01*
Y421191D01*
X370715Y420240D01*
X363160D01*
Y411585D01*
X361927Y410353D01*
X361034Y409016D01*
X360942Y408554D01*
X360507Y408119D01*
X318694D01*
X315873Y410940D01*
X316399Y412210D01*
X338182D01*
Y418865D01*
X340035D01*
X341522Y419161D01*
X342782Y420003D01*
X347739Y424960D01*
X359325D01*
Y436040D01*
X342245D01*
Y430454D01*
X339453Y427661D01*
X338182Y428187D01*
Y433290D01*
X315103D01*
Y413507D01*
X313832Y412981D01*
X294119Y432694D01*
Y436262D01*
X293806Y437838D01*
X292913Y439175D01*
X291425Y440663D01*
X290088Y441556D01*
X288512Y441869D01*
X239793D01*
X238216Y441556D01*
X236880Y440663D01*
X227004Y430787D01*
X224380Y431490D01*
X221605D01*
X218924Y430772D01*
X216521Y429384D01*
X214559Y427422D01*
X213470Y425536D01*
X213034Y425371D01*
X212156Y425310D01*
X211959Y425366D01*
X204540Y432785D01*
Y440040D01*
X197285D01*
X187913Y449413D01*
X186576Y450306D01*
X185000Y450619D01*
X121500D01*
X119924Y450306D01*
X118587Y449413D01*
X111087Y441913D01*
X110194Y440576D01*
X109881Y439000D01*
Y422956D01*
X106533Y419609D01*
X105360Y420095D01*
Y424115D01*
X105083Y425510D01*
X104521Y426350D01*
X105083Y427190D01*
X105360Y428585D01*
Y435515D01*
X105083Y436910D01*
X104292Y438092D01*
X103110Y438883D01*
X101715Y439160D01*
X92719D01*
Y440644D01*
X97785Y445710D01*
X98602D01*
X100638Y446553D01*
X102197Y448112D01*
X103040Y450148D01*
Y452352D01*
X102197Y454388D01*
X100638Y455947D01*
X98602Y456790D01*
X96398D01*
X94362Y455947D01*
X92803Y454388D01*
X91960Y452352D01*
Y451535D01*
X85687Y445263D01*
X84794Y443926D01*
X84481Y442350D01*
Y439160D01*
X75485D01*
X74090Y438883D01*
X72908Y438092D01*
X72118Y436910D01*
X71840Y435515D01*
Y428585D01*
X72118Y427190D01*
X72649Y426394D01*
X72285Y425760D01*
X72118Y425510D01*
X72105Y425448D01*
X72053Y425357D01*
X69790D01*
Y428240D01*
X62888D01*
X62682Y429276D01*
X61700Y430746D01*
X61700Y430746D01*
X59096Y433350D01*
X57625Y434332D01*
X55891Y434677D01*
X42942D01*
X41208Y434332D01*
X39738Y433350D01*
X35120Y428732D01*
X30304D01*
X29364Y430361D01*
Y438182D01*
X75318Y484136D01*
X89960D01*
Y473710D01*
X119540D01*
Y511790D01*
X108932D01*
Y513760D01*
X111090D01*
Y528240D01*
D02*
G37*
G36*
X243540Y519290D02*
X208460D01*
Y500355D01*
X167540D01*
Y511790D01*
X137960D01*
Y473710D01*
X167540D01*
Y485145D01*
X208460D01*
Y464210D01*
X243540D01*
Y519290D01*
D02*
G37*
G36*
X359300Y503598D02*
X357332Y503339D01*
X355498Y502579D01*
X354153Y501547D01*
X353737D01*
X352459Y501292D01*
X351375Y500568D01*
X350650Y499484D01*
X350396Y498205D01*
Y493780D01*
X350650Y492501D01*
X351375Y491417D01*
X352459Y490693D01*
X353737Y490438D01*
X354116D01*
X355619Y489285D01*
X357453Y488525D01*
X359421Y488266D01*
X392555D01*
Y487927D01*
X392814Y485959D01*
X392895Y485763D01*
Y474750D01*
X392960Y474256D01*
Y448460D01*
X422540D01*
Y486540D01*
X408105D01*
Y487587D01*
X407846Y489555D01*
X407765Y489750D01*
Y494240D01*
X407506Y496208D01*
X406746Y498042D01*
X405538Y499618D01*
X405340Y499815D01*
Y502990D01*
X401046D01*
X400497Y503217D01*
X398529Y503476D01*
X360221D01*
X359300Y503598D01*
D02*
G37*
G36*
X711272Y359155D02*
X709128D01*
X707058Y358600D01*
X705202Y357529D01*
X703686Y356013D01*
X702615Y354157D01*
X702060Y352087D01*
Y349943D01*
X702615Y347873D01*
X703686Y346017D01*
X705202Y344501D01*
X707058Y343430D01*
X709128Y342875D01*
X711272D01*
X713342Y343430D01*
X715198Y344501D01*
X716714Y346017D01*
X717785Y347873D01*
X718340Y349943D01*
Y352087D01*
X717785Y354157D01*
X716714Y356013D01*
X715198Y357529D01*
X713342Y358600D01*
X711272Y359155D01*
D02*
G37*
G36*
X578088Y360540D02*
X575312D01*
X572632Y359822D01*
X570228Y358434D01*
X568266Y356472D01*
X566878Y354068D01*
X566160Y351388D01*
Y348612D01*
X566878Y345932D01*
X568266Y343528D01*
X570228Y341566D01*
X572581Y340208D01*
Y309331D01*
X570474Y308114D01*
X568586Y306226D01*
X567251Y303914D01*
X566560Y301335D01*
Y298665D01*
X567251Y296086D01*
X568586Y293774D01*
X570474Y291886D01*
X572786Y290551D01*
X575365Y289860D01*
X578035D01*
X580614Y290551D01*
X582926Y291886D01*
X584814Y293774D01*
X586149Y296086D01*
X586840Y298665D01*
Y301335D01*
X586149Y303914D01*
X584814Y306226D01*
X582926Y308114D01*
X580819Y309331D01*
Y340208D01*
X583172Y341566D01*
X585134Y343528D01*
X586522Y345932D01*
X587240Y348612D01*
Y351388D01*
X586522Y354068D01*
X585134Y356472D01*
X583172Y358434D01*
X580768Y359822D01*
X578088Y360540D01*
D02*
G37*
G36*
X552688D02*
X549912D01*
X547232Y359822D01*
X544828Y358434D01*
X542866Y356472D01*
X541478Y354068D01*
X540760Y351388D01*
Y348612D01*
X541478Y345932D01*
X542866Y343528D01*
X544828Y341566D01*
X547181Y340208D01*
Y309331D01*
X545074Y308114D01*
X543186Y306226D01*
X541851Y303914D01*
X541160Y301335D01*
Y298665D01*
X541851Y296086D01*
X543186Y293774D01*
X545074Y291886D01*
X547386Y290551D01*
X549965Y289860D01*
X552635D01*
X555214Y290551D01*
X557526Y291886D01*
X559414Y293774D01*
X560749Y296086D01*
X561440Y298665D01*
Y301335D01*
X560749Y303914D01*
X559414Y306226D01*
X557526Y308114D01*
X555419Y309331D01*
Y340208D01*
X557772Y341566D01*
X559734Y343528D01*
X561122Y345932D01*
X561840Y348612D01*
Y351388D01*
X561122Y354068D01*
X559734Y356472D01*
X557772Y358434D01*
X555368Y359822D01*
X552688Y360540D01*
D02*
G37*
G36*
X527288D02*
X524512D01*
X521832Y359822D01*
X519428Y358434D01*
X517466Y356472D01*
X516078Y354068D01*
X515360Y351388D01*
Y348612D01*
X516078Y345932D01*
X517466Y343528D01*
X519428Y341566D01*
X521781Y340208D01*
Y309331D01*
X519674Y308114D01*
X517786Y306226D01*
X516451Y303914D01*
X515760Y301335D01*
Y298665D01*
X516451Y296086D01*
X517786Y293774D01*
X519674Y291886D01*
X521986Y290551D01*
X524565Y289860D01*
X527235D01*
X529814Y290551D01*
X532126Y291886D01*
X534014Y293774D01*
X535349Y296086D01*
X536040Y298665D01*
Y301335D01*
X535349Y303914D01*
X534014Y306226D01*
X532126Y308114D01*
X530019Y309331D01*
Y340208D01*
X532372Y341566D01*
X534334Y343528D01*
X535722Y345932D01*
X536440Y348612D01*
Y351388D01*
X535722Y354068D01*
X534334Y356472D01*
X532372Y358434D01*
X529968Y359822D01*
X527288Y360540D01*
D02*
G37*
G36*
X501888D02*
X499112D01*
X496432Y359822D01*
X494028Y358434D01*
X492066Y356472D01*
X490678Y354068D01*
X489960Y351388D01*
Y348612D01*
X490678Y345932D01*
X492066Y343528D01*
X494028Y341566D01*
X496381Y340208D01*
Y309331D01*
X494274Y308114D01*
X492386Y306226D01*
X491051Y303914D01*
X490360Y301335D01*
Y298665D01*
X491051Y296086D01*
X492386Y293774D01*
X494274Y291886D01*
X496586Y290551D01*
X499165Y289860D01*
X501835D01*
X504414Y290551D01*
X506726Y291886D01*
X508614Y293774D01*
X509949Y296086D01*
X510640Y298665D01*
Y301335D01*
X509949Y303914D01*
X508614Y306226D01*
X506726Y308114D01*
X504619Y309331D01*
Y340208D01*
X506972Y341566D01*
X508934Y343528D01*
X510322Y345932D01*
X511040Y348612D01*
Y351388D01*
X510322Y354068D01*
X508934Y356472D01*
X506972Y358434D01*
X504568Y359822D01*
X501888Y360540D01*
D02*
G37*
G36*
X476488D02*
X473712D01*
X471032Y359822D01*
X468628Y358434D01*
X466666Y356472D01*
X465278Y354068D01*
X464560Y351388D01*
Y348612D01*
X465278Y345932D01*
X466666Y343528D01*
X468628Y341566D01*
X470981Y340208D01*
Y309331D01*
X468874Y308114D01*
X466986Y306226D01*
X465651Y303914D01*
X464960Y301335D01*
Y298665D01*
X465651Y296086D01*
X466986Y293774D01*
X468874Y291886D01*
X471186Y290551D01*
X473765Y289860D01*
X476435D01*
X479014Y290551D01*
X481326Y291886D01*
X483214Y293774D01*
X484549Y296086D01*
X485240Y298665D01*
Y301335D01*
X484549Y303914D01*
X483214Y306226D01*
X481326Y308114D01*
X479219Y309331D01*
Y340208D01*
X481572Y341566D01*
X483534Y343528D01*
X484922Y345932D01*
X485640Y348612D01*
Y351388D01*
X484922Y354068D01*
X483534Y356472D01*
X481572Y358434D01*
X479168Y359822D01*
X476488Y360540D01*
D02*
G37*
G36*
X451088D02*
X448312D01*
X445632Y359822D01*
X443228Y358434D01*
X441266Y356472D01*
X439878Y354068D01*
X439160Y351388D01*
Y348612D01*
X439878Y345932D01*
X441266Y343528D01*
X443228Y341566D01*
X445581Y340208D01*
Y309331D01*
X443474Y308114D01*
X441586Y306226D01*
X440251Y303914D01*
X439560Y301335D01*
Y298665D01*
X440251Y296086D01*
X441586Y293774D01*
X443474Y291886D01*
X445786Y290551D01*
X448365Y289860D01*
X451035D01*
X453614Y290551D01*
X455926Y291886D01*
X457814Y293774D01*
X459149Y296086D01*
X459840Y298665D01*
Y301335D01*
X459149Y303914D01*
X457814Y306226D01*
X455926Y308114D01*
X453819Y309331D01*
Y340208D01*
X456172Y341566D01*
X458134Y343528D01*
X459522Y345932D01*
X460240Y348612D01*
Y351388D01*
X459522Y354068D01*
X458134Y356472D01*
X456172Y358434D01*
X453768Y359822D01*
X451088Y360540D01*
D02*
G37*
G36*
X425688D02*
X422912D01*
X420232Y359822D01*
X417828Y358434D01*
X415866Y356472D01*
X414478Y354068D01*
X413760Y351388D01*
Y348612D01*
X414478Y345932D01*
X415866Y343528D01*
X417828Y341566D01*
X420181Y340208D01*
Y309331D01*
X418074Y308114D01*
X416186Y306226D01*
X414851Y303914D01*
X414160Y301335D01*
Y298665D01*
X414851Y296086D01*
X416186Y293774D01*
X418074Y291886D01*
X420386Y290551D01*
X422965Y289860D01*
X425635D01*
X428214Y290551D01*
X430526Y291886D01*
X432414Y293774D01*
X433749Y296086D01*
X434440Y298665D01*
Y301335D01*
X433749Y303914D01*
X432414Y306226D01*
X430526Y308114D01*
X428419Y309331D01*
Y340208D01*
X430772Y341566D01*
X432734Y343528D01*
X434122Y345932D01*
X434840Y348612D01*
Y351388D01*
X434122Y354068D01*
X432734Y356472D01*
X430772Y358434D01*
X428368Y359822D01*
X425688Y360540D01*
D02*
G37*
G36*
X400288D02*
X397512D01*
X394832Y359822D01*
X392428Y358434D01*
X390466Y356472D01*
X389078Y354068D01*
X388360Y351388D01*
Y348612D01*
X389078Y345932D01*
X390466Y343528D01*
X392428Y341566D01*
X394781Y340208D01*
Y309331D01*
X392674Y308114D01*
X390786Y306226D01*
X389451Y303914D01*
X388760Y301335D01*
Y298665D01*
X389451Y296086D01*
X390786Y293774D01*
X392674Y291886D01*
X394986Y290551D01*
X397565Y289860D01*
X400235D01*
X402814Y290551D01*
X405126Y291886D01*
X407014Y293774D01*
X408349Y296086D01*
X409040Y298665D01*
Y301335D01*
X408349Y303914D01*
X407014Y306226D01*
X405126Y308114D01*
X403019Y309331D01*
Y340208D01*
X405372Y341566D01*
X407334Y343528D01*
X408722Y345932D01*
X409440Y348612D01*
Y351388D01*
X408722Y354068D01*
X407334Y356472D01*
X405372Y358434D01*
X402968Y359822D01*
X400288Y360540D01*
D02*
G37*
G36*
X374888D02*
X372112D01*
X369432Y359822D01*
X367028Y358434D01*
X365066Y356472D01*
X363678Y354068D01*
X362960Y351388D01*
Y348612D01*
X363678Y345932D01*
X365066Y343528D01*
X367028Y341566D01*
X369381Y340208D01*
Y309331D01*
X367274Y308114D01*
X365386Y306226D01*
X364051Y303914D01*
X363360Y301335D01*
Y298665D01*
X364051Y296086D01*
X365386Y293774D01*
X367274Y291886D01*
X369586Y290551D01*
X372165Y289860D01*
X374835D01*
X377414Y290551D01*
X379726Y291886D01*
X381614Y293774D01*
X382949Y296086D01*
X383640Y298665D01*
Y301335D01*
X382949Y303914D01*
X381614Y306226D01*
X379726Y308114D01*
X377619Y309331D01*
Y340208D01*
X379972Y341566D01*
X381934Y343528D01*
X383322Y345932D01*
X384040Y348612D01*
Y351388D01*
X383322Y354068D01*
X381934Y356472D01*
X379972Y358434D01*
X377568Y359822D01*
X374888Y360540D01*
D02*
G37*
G36*
X349488D02*
X346712D01*
X344032Y359822D01*
X341628Y358434D01*
X339666Y356472D01*
X338278Y354068D01*
X337560Y351388D01*
Y348612D01*
X338278Y345932D01*
X339666Y343528D01*
X341628Y341566D01*
X343981Y340208D01*
Y309331D01*
X341874Y308114D01*
X339986Y306226D01*
X338651Y303914D01*
X337960Y301335D01*
Y298665D01*
X338651Y296086D01*
X339986Y293774D01*
X341874Y291886D01*
X344186Y290551D01*
X346765Y289860D01*
X349435D01*
X352014Y290551D01*
X354326Y291886D01*
X356214Y293774D01*
X357549Y296086D01*
X358240Y298665D01*
Y301335D01*
X357549Y303914D01*
X356214Y306226D01*
X354326Y308114D01*
X352219Y309331D01*
Y340208D01*
X354572Y341566D01*
X356534Y343528D01*
X357922Y345932D01*
X358640Y348612D01*
Y351388D01*
X357922Y354068D01*
X356534Y356472D01*
X354572Y358434D01*
X352168Y359822D01*
X349488Y360540D01*
D02*
G37*
G36*
X324088D02*
X321312D01*
X318632Y359822D01*
X316228Y358434D01*
X314266Y356472D01*
X312878Y354068D01*
X312160Y351388D01*
Y348612D01*
X312878Y345932D01*
X314266Y343528D01*
X316228Y341566D01*
X318581Y340208D01*
Y309331D01*
X316474Y308114D01*
X314586Y306226D01*
X313251Y303914D01*
X312560Y301335D01*
Y298665D01*
X313251Y296086D01*
X314586Y293774D01*
X316474Y291886D01*
X318786Y290551D01*
X321365Y289860D01*
X324035D01*
X326614Y290551D01*
X328926Y291886D01*
X330814Y293774D01*
X332149Y296086D01*
X332840Y298665D01*
Y301335D01*
X332149Y303914D01*
X330814Y306226D01*
X328926Y308114D01*
X326819Y309331D01*
Y340208D01*
X329172Y341566D01*
X331134Y343528D01*
X332522Y345932D01*
X333240Y348612D01*
Y351388D01*
X332522Y354068D01*
X331134Y356472D01*
X329172Y358434D01*
X326768Y359822D01*
X324088Y360540D01*
D02*
G37*
G36*
X298688D02*
X295912D01*
X293232Y359822D01*
X290828Y358434D01*
X288866Y356472D01*
X287478Y354068D01*
X286760Y351388D01*
Y348612D01*
X287478Y345932D01*
X288866Y343528D01*
X290828Y341566D01*
X293181Y340208D01*
Y309331D01*
X291074Y308114D01*
X289186Y306226D01*
X287851Y303914D01*
X287160Y301335D01*
Y298665D01*
X287851Y296086D01*
X289186Y293774D01*
X291074Y291886D01*
X293386Y290551D01*
X295965Y289860D01*
X298635D01*
X301214Y290551D01*
X303526Y291886D01*
X305414Y293774D01*
X306749Y296086D01*
X307440Y298665D01*
Y301335D01*
X306749Y303914D01*
X305414Y306226D01*
X303526Y308114D01*
X301419Y309331D01*
Y340208D01*
X303772Y341566D01*
X305734Y343528D01*
X307122Y345932D01*
X307840Y348612D01*
Y351388D01*
X307122Y354068D01*
X305734Y356472D01*
X303772Y358434D01*
X301368Y359822D01*
X298688Y360540D01*
D02*
G37*
G36*
X273288D02*
X270512D01*
X267832Y359822D01*
X265428Y358434D01*
X263466Y356472D01*
X262078Y354068D01*
X261360Y351388D01*
Y348612D01*
X262078Y345932D01*
X263466Y343528D01*
X265428Y341566D01*
X267781Y340208D01*
Y309331D01*
X265674Y308114D01*
X263786Y306226D01*
X262451Y303914D01*
X261760Y301335D01*
Y298665D01*
X262451Y296086D01*
X263786Y293774D01*
X265674Y291886D01*
X267986Y290551D01*
X270565Y289860D01*
X273235D01*
X275814Y290551D01*
X278126Y291886D01*
X280014Y293774D01*
X281349Y296086D01*
X282040Y298665D01*
Y301335D01*
X281349Y303914D01*
X280014Y306226D01*
X278126Y308114D01*
X276019Y309331D01*
Y340208D01*
X278372Y341566D01*
X280334Y343528D01*
X281722Y345932D01*
X282440Y348612D01*
Y351388D01*
X281722Y354068D01*
X280334Y356472D01*
X278372Y358434D01*
X275968Y359822D01*
X273288Y360540D01*
D02*
G37*
G36*
X247888D02*
X245112D01*
X242432Y359822D01*
X240028Y358434D01*
X238066Y356472D01*
X236678Y354068D01*
X235960Y351388D01*
Y348612D01*
X236678Y345932D01*
X238066Y343528D01*
X240028Y341566D01*
X242381Y340208D01*
Y309331D01*
X240274Y308114D01*
X238386Y306226D01*
X237051Y303914D01*
X236360Y301335D01*
Y298665D01*
X237051Y296086D01*
X238386Y293774D01*
X240274Y291886D01*
X242586Y290551D01*
X245165Y289860D01*
X247835D01*
X250414Y290551D01*
X252726Y291886D01*
X254614Y293774D01*
X255949Y296086D01*
X256640Y298665D01*
Y301335D01*
X255949Y303914D01*
X254614Y306226D01*
X252726Y308114D01*
X250619Y309331D01*
Y340208D01*
X252972Y341566D01*
X254934Y343528D01*
X256322Y345932D01*
X257040Y348612D01*
Y351388D01*
X256322Y354068D01*
X254934Y356472D01*
X252972Y358434D01*
X250568Y359822D01*
X247888Y360540D01*
D02*
G37*
G36*
X222488D02*
X219712D01*
X217032Y359822D01*
X214628Y358434D01*
X212666Y356472D01*
X211278Y354068D01*
X210560Y351388D01*
Y348612D01*
X211278Y345932D01*
X212666Y343528D01*
X214628Y341566D01*
X216981Y340208D01*
Y309331D01*
X214874Y308114D01*
X212986Y306226D01*
X211651Y303914D01*
X210960Y301335D01*
Y298665D01*
X211651Y296086D01*
X212986Y293774D01*
X214874Y291886D01*
X217186Y290551D01*
X219765Y289860D01*
X222435D01*
X225014Y290551D01*
X227326Y291886D01*
X229214Y293774D01*
X230549Y296086D01*
X231240Y298665D01*
Y301335D01*
X230549Y303914D01*
X229214Y306226D01*
X227326Y308114D01*
X225219Y309331D01*
Y340208D01*
X227572Y341566D01*
X229534Y343528D01*
X230922Y345932D01*
X231640Y348612D01*
Y351388D01*
X230922Y354068D01*
X229534Y356472D01*
X227572Y358434D01*
X225168Y359822D01*
X222488Y360540D01*
D02*
G37*
G36*
X197088D02*
X194312D01*
X191632Y359822D01*
X189228Y358434D01*
X187266Y356472D01*
X185878Y354068D01*
X185160Y351388D01*
Y348612D01*
X185878Y345932D01*
X187266Y343528D01*
X189228Y341566D01*
X191581Y340208D01*
Y309331D01*
X189474Y308114D01*
X187586Y306226D01*
X186251Y303914D01*
X185560Y301335D01*
Y298665D01*
X186251Y296086D01*
X187586Y293774D01*
X189474Y291886D01*
X191786Y290551D01*
X194365Y289860D01*
X197035D01*
X199614Y290551D01*
X201926Y291886D01*
X203814Y293774D01*
X205149Y296086D01*
X205840Y298665D01*
Y301335D01*
X205149Y303914D01*
X203814Y306226D01*
X201926Y308114D01*
X199819Y309331D01*
Y340208D01*
X202172Y341566D01*
X204134Y343528D01*
X205522Y345932D01*
X206240Y348612D01*
Y351388D01*
X205522Y354068D01*
X204134Y356472D01*
X202172Y358434D01*
X199768Y359822D01*
X197088Y360540D01*
D02*
G37*
G36*
X171688D02*
X168912D01*
X166232Y359822D01*
X163828Y358434D01*
X161866Y356472D01*
X160478Y354068D01*
X159760Y351388D01*
Y348612D01*
X160478Y345932D01*
X161866Y343528D01*
X163828Y341566D01*
X166181Y340208D01*
Y309331D01*
X164074Y308114D01*
X162186Y306226D01*
X160851Y303914D01*
X160160Y301335D01*
Y298665D01*
X160851Y296086D01*
X162186Y293774D01*
X164074Y291886D01*
X166386Y290551D01*
X168965Y289860D01*
X171635D01*
X174214Y290551D01*
X176526Y291886D01*
X178414Y293774D01*
X179749Y296086D01*
X180440Y298665D01*
Y301335D01*
X179749Y303914D01*
X178414Y306226D01*
X176526Y308114D01*
X174419Y309331D01*
Y340208D01*
X176772Y341566D01*
X178734Y343528D01*
X180122Y345932D01*
X180840Y348612D01*
Y351388D01*
X180122Y354068D01*
X178734Y356472D01*
X176772Y358434D01*
X174368Y359822D01*
X171688Y360540D01*
D02*
G37*
G36*
X146288D02*
X143512D01*
X140832Y359822D01*
X138428Y358434D01*
X136466Y356472D01*
X135078Y354068D01*
X134360Y351388D01*
Y348612D01*
X135078Y345932D01*
X136466Y343528D01*
X138428Y341566D01*
X140781Y340208D01*
Y309331D01*
X138674Y308114D01*
X136786Y306226D01*
X135451Y303914D01*
X134760Y301335D01*
Y298665D01*
X135451Y296086D01*
X136786Y293774D01*
X138674Y291886D01*
X140986Y290551D01*
X143565Y289860D01*
X146235D01*
X148814Y290551D01*
X151126Y291886D01*
X153014Y293774D01*
X154349Y296086D01*
X155040Y298665D01*
Y301335D01*
X154349Y303914D01*
X153014Y306226D01*
X151126Y308114D01*
X149019Y309331D01*
Y340208D01*
X151372Y341566D01*
X153334Y343528D01*
X154722Y345932D01*
X155440Y348612D01*
Y351388D01*
X154722Y354068D01*
X153334Y356472D01*
X151372Y358434D01*
X148968Y359822D01*
X146288Y360540D01*
D02*
G37*
G36*
X120888D02*
X118112D01*
X115432Y359822D01*
X113028Y358434D01*
X111066Y356472D01*
X109678Y354068D01*
X108960Y351388D01*
Y348612D01*
X109678Y345932D01*
X111066Y343528D01*
X113028Y341566D01*
X115381Y340208D01*
Y309331D01*
X113274Y308114D01*
X111386Y306226D01*
X110051Y303914D01*
X109360Y301335D01*
Y298665D01*
X110051Y296086D01*
X111386Y293774D01*
X113274Y291886D01*
X115586Y290551D01*
X118165Y289860D01*
X120835D01*
X123414Y290551D01*
X125726Y291886D01*
X127614Y293774D01*
X128949Y296086D01*
X129640Y298665D01*
Y301335D01*
X128949Y303914D01*
X127614Y306226D01*
X125726Y308114D01*
X123619Y309331D01*
Y340208D01*
X125972Y341566D01*
X127934Y343528D01*
X129322Y345932D01*
X130040Y348612D01*
Y351388D01*
X129322Y354068D01*
X127934Y356472D01*
X125972Y358434D01*
X123568Y359822D01*
X120888Y360540D01*
D02*
G37*
G36*
X95488D02*
X92712D01*
X90032Y359822D01*
X87628Y358434D01*
X85666Y356472D01*
X84278Y354068D01*
X83560Y351388D01*
Y348612D01*
X84278Y345932D01*
X85666Y343528D01*
X87628Y341566D01*
X89981Y340208D01*
Y309331D01*
X87874Y308114D01*
X85986Y306226D01*
X84651Y303914D01*
X83960Y301335D01*
Y298665D01*
X84651Y296086D01*
X85986Y293774D01*
X87874Y291886D01*
X90186Y290551D01*
X92765Y289860D01*
X95435D01*
X98014Y290551D01*
X100326Y291886D01*
X102214Y293774D01*
X103549Y296086D01*
X104240Y298665D01*
Y301335D01*
X103549Y303914D01*
X102214Y306226D01*
X100326Y308114D01*
X98219Y309331D01*
Y340208D01*
X100572Y341566D01*
X102534Y343528D01*
X103922Y345932D01*
X104640Y348612D01*
Y351388D01*
X103922Y354068D01*
X102534Y356472D01*
X100572Y358434D01*
X98168Y359822D01*
X95488Y360540D01*
D02*
G37*
G36*
X70088D02*
X67312D01*
X64632Y359822D01*
X62228Y358434D01*
X60266Y356472D01*
X58878Y354068D01*
X58160Y351388D01*
Y348612D01*
X58878Y345932D01*
X60266Y343528D01*
X62228Y341566D01*
X64581Y340208D01*
Y309331D01*
X62474Y308114D01*
X60586Y306226D01*
X59251Y303914D01*
X58560Y301335D01*
Y298665D01*
X59251Y296086D01*
X60586Y293774D01*
X62474Y291886D01*
X64786Y290551D01*
X67365Y289860D01*
X70035D01*
X72614Y290551D01*
X74926Y291886D01*
X76814Y293774D01*
X78149Y296086D01*
X78840Y298665D01*
Y301335D01*
X78149Y303914D01*
X76814Y306226D01*
X74926Y308114D01*
X72819Y309331D01*
Y340208D01*
X75172Y341566D01*
X77134Y343528D01*
X78522Y345932D01*
X79240Y348612D01*
Y351388D01*
X78522Y354068D01*
X77134Y356472D01*
X75172Y358434D01*
X72768Y359822D01*
X70088Y360540D01*
D02*
G37*
G36*
X44688D02*
X41912D01*
X39232Y359822D01*
X36828Y358434D01*
X34866Y356472D01*
X33478Y354068D01*
X32760Y351388D01*
Y348612D01*
X33478Y345932D01*
X34866Y343528D01*
X36828Y341566D01*
X39181Y340208D01*
Y309331D01*
X37074Y308114D01*
X35186Y306226D01*
X33851Y303914D01*
X33160Y301335D01*
Y298665D01*
X33851Y296086D01*
X35186Y293774D01*
X37074Y291886D01*
X39386Y290551D01*
X41965Y289860D01*
X44635D01*
X47214Y290551D01*
X49526Y291886D01*
X51414Y293774D01*
X52749Y296086D01*
X53440Y298665D01*
Y301335D01*
X52749Y303914D01*
X51414Y306226D01*
X49526Y308114D01*
X47419Y309331D01*
Y340208D01*
X49772Y341566D01*
X51734Y343528D01*
X53122Y345932D01*
X53840Y348612D01*
Y351388D01*
X53122Y354068D01*
X51734Y356472D01*
X49772Y358434D01*
X47368Y359822D01*
X44688Y360540D01*
D02*
G37*
G36*
X606100Y360596D02*
X598100D01*
X596393Y360372D01*
X594802Y359713D01*
X593436Y358664D01*
X592387Y357298D01*
X591728Y355707D01*
X591504Y354000D01*
Y346000D01*
X591728Y344293D01*
X592387Y342702D01*
X593436Y341336D01*
X594802Y340287D01*
X596393Y339628D01*
X598100Y339404D01*
X598215D01*
Y310247D01*
X595826Y309772D01*
X593729Y308371D01*
X592328Y306274D01*
X591836Y303800D01*
Y296200D01*
X592328Y293726D01*
X592490Y293484D01*
X563296Y264290D01*
X553210D01*
Y253210D01*
X568790D01*
Y258796D01*
X572882Y262888D01*
X574055Y262402D01*
Y244672D01*
X574351Y243185D01*
X575193Y241925D01*
X578385Y238733D01*
X579210Y238182D01*
Y234210D01*
X594790D01*
Y245290D01*
X585645D01*
X585270Y245365D01*
X582741D01*
X581825Y246281D01*
Y263081D01*
X582609Y263865D01*
X602322D01*
X606072Y260116D01*
X607332Y259274D01*
X608819Y258978D01*
X625960D01*
Y257223D01*
X625960Y257073D01*
Y255952D01*
X625960Y255802D01*
Y254282D01*
X623790D01*
Y257240D01*
X610410D01*
Y242760D01*
X613306D01*
Y238141D01*
X613053Y237888D01*
X612210Y235852D01*
Y233648D01*
X613053Y231612D01*
X614612Y230053D01*
X616648Y229210D01*
X618852D01*
X620888Y230053D01*
X622447Y231612D01*
X623290Y233648D01*
Y235852D01*
X622447Y237888D01*
X621544Y238791D01*
Y242760D01*
X623790D01*
Y246043D01*
X625960D01*
Y244523D01*
X625960Y244373D01*
Y243253D01*
X625960Y243102D01*
Y231672D01*
X646300D01*
Y243102D01*
X646300Y243253D01*
Y244373D01*
X646300Y244523D01*
Y255802D01*
X646300Y255952D01*
Y257073D01*
X646300Y257223D01*
Y263159D01*
X656247Y273106D01*
X657089Y274366D01*
X657385Y275853D01*
Y286460D01*
X661040D01*
Y301540D01*
X645960D01*
Y286460D01*
X649615D01*
Y277462D01*
X640806Y268652D01*
X625960D01*
Y266747D01*
X610428D01*
X606678Y270497D01*
X605418Y271339D01*
X603931Y271635D01*
X583288D01*
X582802Y272808D01*
X599729Y289736D01*
X605900D01*
X608374Y290228D01*
X610471Y291629D01*
X611872Y293726D01*
X612364Y296200D01*
Y303800D01*
X611872Y306274D01*
X610471Y308371D01*
X608374Y309772D01*
X605985Y310247D01*
Y339404D01*
X606100D01*
X607807Y339628D01*
X609398Y340287D01*
X610764Y341336D01*
X611813Y342702D01*
X612472Y344293D01*
X612696Y346000D01*
Y354000D01*
X612472Y355707D01*
X611813Y357298D01*
X610764Y358664D01*
X609398Y359713D01*
X607807Y360372D01*
X606100Y360596D01*
D02*
G37*
G36*
X711272Y308355D02*
X709128D01*
X707058Y307800D01*
X705202Y306729D01*
X703686Y305213D01*
X702615Y303357D01*
X702060Y301287D01*
Y299143D01*
X702615Y297073D01*
X703686Y295217D01*
X705202Y293701D01*
X706315Y293059D01*
Y270750D01*
Y256740D01*
X706210D01*
Y254047D01*
X700540D01*
Y255952D01*
X700540D01*
Y257073D01*
X700540D01*
Y268503D01*
X700540Y268652D01*
Y269772D01*
X700540Y269923D01*
Y281353D01*
X680200D01*
Y269923D01*
X680200Y269772D01*
Y268652D01*
X680200Y268503D01*
Y262566D01*
X671533Y253899D01*
X670691Y252639D01*
X670395Y251152D01*
Y228344D01*
X669125Y227818D01*
X665937Y231007D01*
X664677Y231849D01*
X663190Y232145D01*
X650622D01*
X649135Y231849D01*
X647875Y231007D01*
X643858Y226990D01*
X636460D01*
Y212510D01*
X636460D01*
X636260Y211540D01*
X636260Y211540D01*
X636260Y211323D01*
Y198160D01*
Y190454D01*
X633893Y188087D01*
X633051Y186827D01*
X632755Y185340D01*
Y163412D01*
X633051Y161925D01*
X633893Y160665D01*
X636125Y158433D01*
X637385Y157591D01*
X638872Y157295D01*
X662040D01*
X663527Y157591D01*
X664787Y158433D01*
X668804Y162450D01*
X674890D01*
Y182790D01*
X663460D01*
X663310Y182790D01*
Y182790D01*
X662190D01*
X661932Y182909D01*
X661546Y184439D01*
X661799Y184753D01*
X669090D01*
Y194221D01*
X671483Y196613D01*
X680046D01*
X683252Y193407D01*
Y184753D01*
X687307D01*
Y183392D01*
X687303Y183388D01*
X686460Y181352D01*
Y179148D01*
X687303Y177112D01*
X688862Y175553D01*
X690898Y174710D01*
X693102D01*
X695138Y175553D01*
X696697Y177112D01*
X697540Y179148D01*
Y181352D01*
X696697Y183388D01*
X696602Y183482D01*
X697128Y184753D01*
X699258D01*
Y152653D01*
X699363Y152127D01*
X698388Y150885D01*
X680640D01*
X679154Y150589D01*
X677893Y149747D01*
X656696Y128550D01*
X650760D01*
X650610Y128550D01*
X649490D01*
X649340Y128550D01*
X637910D01*
Y108210D01*
X649340D01*
X649490Y108210D01*
X650610D01*
X650760Y108210D01*
X662040D01*
X662190Y108210D01*
Y108210D01*
X663310D01*
Y108210D01*
X669396D01*
X673160Y104446D01*
Y89250D01*
Y64595D01*
X673456Y63108D01*
X674298Y61848D01*
X679200Y56946D01*
Y56354D01*
X675183Y52337D01*
X674341Y51077D01*
X674045Y49590D01*
Y39122D01*
X674341Y37635D01*
X675183Y36375D01*
X682048Y29510D01*
X681522Y28240D01*
X666460D01*
Y24885D01*
X658040D01*
Y27990D01*
X655235D01*
Y57510D01*
X654939Y58997D01*
X654097Y60257D01*
X645300Y69054D01*
Y74990D01*
X645300Y75140D01*
Y76260D01*
X645300Y76410D01*
Y87840D01*
X624960D01*
Y76410D01*
X624960Y76260D01*
Y75140D01*
X624960Y74990D01*
Y63710D01*
X624960Y63560D01*
X624960D01*
Y62440D01*
X624960D01*
Y60535D01*
X609050D01*
X607563Y60239D01*
X606303Y59397D01*
X604996Y58090D01*
X596010D01*
Y44710D01*
X599365D01*
Y43240D01*
X585210D01*
Y39885D01*
X568859D01*
X567218Y41526D01*
X567346Y42500D01*
Y50500D01*
X567122Y52207D01*
X566463Y53798D01*
X565414Y55164D01*
X564048Y56213D01*
X562457Y56872D01*
X560750Y57096D01*
X552750D01*
X551043Y56872D01*
X549452Y56213D01*
X548086Y55164D01*
X547037Y53798D01*
X546378Y52207D01*
X546154Y50500D01*
Y42500D01*
X546378Y40793D01*
X547037Y39202D01*
X548086Y37836D01*
X549452Y36787D01*
X551043Y36128D01*
X552750Y35904D01*
X560750D01*
X561724Y36032D01*
X564503Y33253D01*
X565763Y32411D01*
X567250Y32115D01*
X585210D01*
Y28760D01*
X611790D01*
Y43240D01*
X607135D01*
Y44710D01*
X610490D01*
Y52596D01*
X610659Y52765D01*
X624960D01*
Y51010D01*
X624960Y50860D01*
Y49740D01*
X624960Y49590D01*
Y38160D01*
X645300D01*
Y49590D01*
X645300Y49740D01*
Y50860D01*
X645300Y51010D01*
Y56407D01*
X646473Y56893D01*
X647465Y55901D01*
Y27990D01*
X644660D01*
Y13510D01*
X658040D01*
Y17115D01*
X666460D01*
Y13760D01*
X693040D01*
Y28240D01*
X690235D01*
Y30702D01*
X689939Y32188D01*
X689097Y33449D01*
X681815Y40731D01*
Y47981D01*
X684694Y50860D01*
X699540D01*
Y59731D01*
X701503D01*
Y57160D01*
X715983D01*
Y60056D01*
X722859D01*
X723112Y59803D01*
X725148Y58960D01*
X727352D01*
X729388Y59803D01*
X730947Y61362D01*
X731790Y63398D01*
Y65602D01*
X730947Y67638D01*
X729388Y69197D01*
X727352Y70040D01*
X725148D01*
X723112Y69197D01*
X722209Y68294D01*
X715983D01*
Y70540D01*
X701503D01*
Y69598D01*
X700297Y69064D01*
X699540Y69660D01*
Y75140D01*
X699540D01*
Y76260D01*
X699540D01*
Y85345D01*
X701460D01*
Y77960D01*
X716540D01*
Y93040D01*
X705645D01*
X705270Y93115D01*
X680930D01*
Y106055D01*
X680754Y106940D01*
X681599Y108210D01*
X687590D01*
Y128550D01*
X676010D01*
X676010Y128550D01*
X674890D01*
Y128550D01*
X674740Y128550D01*
X669343D01*
X668857Y129723D01*
X682249Y143115D01*
X699296D01*
X699939Y142002D01*
X701454Y140486D01*
X703311Y139415D01*
X705381Y138860D01*
X707524D01*
X708766Y139193D01*
X741496Y106463D01*
X741010Y105290D01*
X739960D01*
Y90210D01*
X755040D01*
Y105290D01*
X751385D01*
Y105953D01*
X751089Y107439D01*
X750247Y108699D01*
X714260Y144686D01*
X714593Y145928D01*
Y148072D01*
X714038Y150142D01*
X712966Y151998D01*
X711451Y153514D01*
X709594Y154585D01*
X707524Y155140D01*
X707027D01*
Y184753D01*
X709833D01*
Y196615D01*
X728710D01*
Y192960D01*
X743790D01*
Y208040D01*
X728710D01*
Y204385D01*
X710482D01*
X706077Y208789D01*
X704817Y209632D01*
X703331Y209927D01*
X662212D01*
X660725Y209632D01*
X659465Y208789D01*
X651913Y201238D01*
X650740Y201724D01*
Y211540D01*
X650564D01*
X649840Y212510D01*
Y221984D01*
X652231Y224375D01*
X661581D01*
X664710Y221246D01*
Y212260D01*
X678090D01*
Y221246D01*
X679387Y222543D01*
X680229Y223803D01*
X680246Y223891D01*
X680481Y224125D01*
X701707D01*
X707829Y218003D01*
X709089Y217161D01*
X710576Y216865D01*
X728710D01*
Y213210D01*
X743790D01*
Y228290D01*
X728710D01*
Y224635D01*
X712185D01*
X706063Y230757D01*
X704802Y231599D01*
X703316Y231895D01*
X700540D01*
Y243253D01*
X700540D01*
Y244373D01*
X700540D01*
Y246278D01*
X706210D01*
Y242260D01*
X719879D01*
X720405Y240990D01*
X719803Y240388D01*
X718960Y238352D01*
Y236148D01*
X719803Y234112D01*
X721362Y232553D01*
X723398Y231710D01*
X725602D01*
X727638Y232553D01*
X729197Y234112D01*
X730040Y236148D01*
Y238352D01*
X729197Y240388D01*
X729193Y240392D01*
Y242260D01*
X732790D01*
Y256740D01*
X714085D01*
Y266365D01*
X739460D01*
Y262710D01*
X754540D01*
Y277790D01*
X739460D01*
Y274135D01*
X714085D01*
Y293059D01*
X715198Y293701D01*
X716714Y295217D01*
X717785Y297073D01*
X718340Y299143D01*
Y301287D01*
X717785Y303357D01*
X716714Y305213D01*
X715198Y306729D01*
X713342Y307800D01*
X711272Y308355D01*
D02*
G37*
G36*
X19288Y360540D02*
X16512D01*
X13832Y359822D01*
X11428Y358434D01*
X9466Y356472D01*
X8078Y354068D01*
X7360Y351388D01*
Y348612D01*
X8078Y345932D01*
X9466Y343528D01*
X11428Y341566D01*
X13781Y340208D01*
Y309331D01*
X11674Y308114D01*
X9786Y306226D01*
X8451Y303914D01*
X7760Y301335D01*
Y298665D01*
X8451Y296086D01*
X9786Y293774D01*
X11674Y291886D01*
X13156Y291030D01*
Y282240D01*
X9960D01*
Y267760D01*
X14057D01*
Y256892D01*
X14053Y256888D01*
X13210Y254852D01*
Y252648D01*
X14053Y250612D01*
X15612Y249053D01*
X17648Y248210D01*
X19852D01*
X21888Y249053D01*
X23447Y250612D01*
X24290Y252648D01*
Y254852D01*
X23447Y256888D01*
X22295Y258040D01*
Y267760D01*
X23340D01*
Y282240D01*
X21394D01*
Y290439D01*
X21814Y290551D01*
X24126Y291886D01*
X26014Y293774D01*
X27349Y296086D01*
X28040Y298665D01*
Y301335D01*
X27349Y303914D01*
X26014Y306226D01*
X24126Y308114D01*
X22019Y309331D01*
Y340208D01*
X24372Y341566D01*
X26334Y343528D01*
X27722Y345932D01*
X28440Y348612D01*
Y351388D01*
X27722Y354068D01*
X26334Y356472D01*
X24372Y358434D01*
X21968Y359822D01*
X19288Y360540D01*
D02*
G37*
G36*
X287040Y264732D02*
X273660D01*
Y250253D01*
X277180D01*
X277253Y249889D01*
X278366Y248222D01*
X279215Y247373D01*
X279710Y246290D01*
X279710D01*
X279710Y246290D01*
Y235210D01*
X295290D01*
Y246290D01*
X291013D01*
Y247981D01*
X290622Y249947D01*
X289508Y251615D01*
X287139Y253984D01*
Y255842D01*
X287040Y256339D01*
Y264732D01*
D02*
G37*
G36*
X551040Y246740D02*
X537660D01*
Y238085D01*
X536427Y236853D01*
X535534Y235516D01*
X535443Y235054D01*
X497281Y196893D01*
X351413D01*
X349836Y196580D01*
X348500Y195687D01*
X306792Y153979D01*
X305414Y153826D01*
X305181Y154059D01*
X303526Y155714D01*
X301214Y157049D01*
X298635Y157740D01*
X295965D01*
X293386Y157049D01*
X291074Y155714D01*
X289186Y153826D01*
X288929Y153381D01*
X287659Y153722D01*
Y170116D01*
X287346Y171692D01*
X286453Y173029D01*
X284719Y174762D01*
Y197768D01*
X287290D01*
Y212248D01*
X285739D01*
Y214972D01*
X286977Y216210D01*
X295290D01*
Y227290D01*
X279710D01*
Y223477D01*
X276966Y220734D01*
X275853Y219067D01*
X275461Y217100D01*
Y212248D01*
X273910D01*
Y197768D01*
X276481D01*
Y173056D01*
X276794Y171480D01*
X277687Y170143D01*
X279421Y168410D01*
Y156079D01*
X278248Y155593D01*
X278126Y155714D01*
X275814Y157049D01*
X273235Y157740D01*
X270565D01*
X267986Y157049D01*
X265674Y155714D01*
X263786Y153826D01*
X262451Y151514D01*
X261760Y148935D01*
Y146265D01*
X262451Y143686D01*
X263786Y141374D01*
X265674Y139486D01*
X267986Y138151D01*
X270565Y137460D01*
X273235D01*
X275814Y138151D01*
X278126Y139486D01*
X278248Y139607D01*
X279421Y139121D01*
Y127973D01*
X256947Y105500D01*
X256212Y104399D01*
X255456Y104206D01*
X255389Y104199D01*
X254773Y104233D01*
X252972Y106034D01*
X250619Y107392D01*
Y138270D01*
X252726Y139486D01*
X254614Y141374D01*
X255949Y143686D01*
X256640Y146265D01*
Y148935D01*
X255949Y151514D01*
X254614Y153826D01*
X252726Y155714D01*
X250414Y157049D01*
X247835Y157740D01*
X245165D01*
X242586Y157049D01*
X240274Y155714D01*
X238386Y153826D01*
X237051Y151514D01*
X236360Y148935D01*
Y146265D01*
X237051Y143686D01*
X238386Y141374D01*
X240274Y139486D01*
X242381Y138270D01*
Y107392D01*
X240028Y106034D01*
X238066Y104072D01*
X236678Y101668D01*
X235960Y98988D01*
Y96212D01*
X236678Y93532D01*
X238066Y91128D01*
X240028Y89166D01*
X242432Y87778D01*
X245112Y87060D01*
X245502D01*
X245989Y85887D01*
X236721Y76619D01*
X225790D01*
Y79040D01*
X212710D01*
Y65960D01*
X215131D01*
Y60014D01*
X213131Y58014D01*
X212450Y58104D01*
X204450D01*
X202743Y57879D01*
X201152Y57220D01*
X199786Y56172D01*
X198737Y54806D01*
X198078Y53215D01*
X197854Y51508D01*
Y43507D01*
X198078Y41800D01*
X198737Y40209D01*
X199786Y38843D01*
X201152Y37795D01*
X202743Y37136D01*
X204450Y36911D01*
X212450D01*
X214157Y37136D01*
X215748Y37795D01*
X217114Y38843D01*
X218163Y40209D01*
X218822Y41800D01*
X219046Y43507D01*
Y51508D01*
X218957Y52189D01*
X222163Y55395D01*
X223056Y56731D01*
X223369Y58307D01*
Y65960D01*
X225790D01*
Y68381D01*
X238427D01*
X240003Y68694D01*
X241340Y69587D01*
X262322Y90570D01*
X263047Y90924D01*
X264009Y90585D01*
X265428Y89166D01*
X267832Y87778D01*
X270512Y87060D01*
X270902D01*
X271388Y85887D01*
X236087Y50586D01*
X235194Y49249D01*
X234881Y47673D01*
Y25369D01*
X211014D01*
X192887Y43496D01*
X193590Y46120D01*
Y48895D01*
X192872Y51576D01*
X191484Y53979D01*
X189522Y55942D01*
X187118Y57329D01*
X184438Y58047D01*
X181662D01*
X178982Y57329D01*
X176578Y55942D01*
X174616Y53979D01*
X173228Y51576D01*
X172510Y48895D01*
Y46120D01*
X173228Y43439D01*
X174616Y41036D01*
X176578Y39073D01*
X178982Y37686D01*
X181662Y36967D01*
X184438D01*
X187062Y37671D01*
X206395Y18337D01*
X207731Y17444D01*
X209307Y17131D01*
X322750D01*
X324326Y17444D01*
X325663Y18337D01*
X331863Y24537D01*
X332756Y25874D01*
X333069Y27450D01*
Y36208D01*
X335422Y37566D01*
X337384Y39528D01*
X338772Y41932D01*
X339490Y44612D01*
Y47388D01*
X338772Y50068D01*
X337384Y52472D01*
X335422Y54434D01*
X333069Y55792D01*
Y59700D01*
X333547Y60008D01*
X334339Y60185D01*
X343843Y50681D01*
X343754Y50000D01*
Y42000D01*
X343978Y40293D01*
X344637Y38702D01*
X345686Y37336D01*
X347052Y36287D01*
X348643Y35628D01*
X350350Y35404D01*
X358350D01*
X360057Y35628D01*
X361648Y36287D01*
X363014Y37336D01*
X364063Y38702D01*
X364722Y40293D01*
X364946Y42000D01*
Y50000D01*
X364722Y51707D01*
X364063Y53298D01*
X363014Y54664D01*
X361648Y55713D01*
X360057Y56372D01*
X358350Y56596D01*
X350350D01*
X349669Y56507D01*
X341169Y65006D01*
Y69100D01*
X341090Y69498D01*
Y78990D01*
X327710D01*
Y70335D01*
X326037Y68663D01*
X325144Y67326D01*
X324831Y65750D01*
Y55792D01*
X322478Y54434D01*
X320516Y52472D01*
X319128Y50068D01*
X318410Y47388D01*
Y44612D01*
X319128Y41932D01*
X320516Y39528D01*
X322478Y37566D01*
X324831Y36208D01*
Y29156D01*
X321044Y25369D01*
X243119D01*
Y45967D01*
X286853Y89700D01*
X287588Y90801D01*
X288344Y90995D01*
X288410Y91001D01*
X289027Y90968D01*
X290828Y89166D01*
X293232Y87778D01*
X295912Y87060D01*
X298688D01*
X301368Y87778D01*
X303772Y89166D01*
X305734Y91128D01*
X307122Y93532D01*
X307840Y96212D01*
Y98988D01*
X307122Y101668D01*
X305734Y104072D01*
X303772Y106034D01*
X301368Y107422D01*
X298688Y108140D01*
X298298D01*
X297812Y109313D01*
X311853Y123355D01*
X312746Y124691D01*
X313059Y126267D01*
Y141479D01*
X314329Y141819D01*
X314586Y141374D01*
X316474Y139486D01*
X318581Y138270D01*
Y107392D01*
X316228Y106034D01*
X314266Y104072D01*
X312878Y101668D01*
X312160Y98988D01*
Y96212D01*
X312878Y93532D01*
X314266Y91128D01*
X316228Y89166D01*
X318632Y87778D01*
X321312Y87060D01*
X324088D01*
X326768Y87778D01*
X329172Y89166D01*
X331134Y91128D01*
X332522Y93532D01*
X333240Y96212D01*
Y98988D01*
X332522Y101668D01*
X331134Y104072D01*
X329172Y106034D01*
X326819Y107392D01*
Y138270D01*
X328926Y139486D01*
X330814Y141374D01*
X332149Y143686D01*
X332840Y146265D01*
Y148935D01*
X332149Y151514D01*
X330814Y153826D01*
X328926Y155714D01*
X326614Y157049D01*
X324035Y157740D01*
X323863D01*
X323377Y158913D01*
X353119Y188655D01*
X498987D01*
X500564Y188968D01*
X501900Y189861D01*
X542253Y230214D01*
X543146Y231550D01*
X543237Y232012D01*
X543485Y232260D01*
X551040D01*
Y235865D01*
X553210D01*
Y234210D01*
X568790D01*
Y245290D01*
X553210D01*
Y243635D01*
X551040D01*
Y246740D01*
D02*
G37*
G36*
X56352Y280040D02*
X54148D01*
X52112Y279197D01*
X50553Y277638D01*
X49710Y275602D01*
Y273398D01*
X50553Y271362D01*
X52112Y269803D01*
X52619Y269594D01*
X55461Y266751D01*
Y257990D01*
X53910D01*
Y243510D01*
X67290D01*
Y245611D01*
X71872D01*
X78296Y239187D01*
Y238600D01*
X78551Y237316D01*
X79278Y236228D01*
X80366Y235501D01*
X81650Y235246D01*
X99850D01*
X101134Y235501D01*
X102222Y236228D01*
X102949Y237316D01*
X103204Y238600D01*
Y243100D01*
X102949Y244384D01*
X102222Y245472D01*
X101134Y246199D01*
X99850Y246455D01*
X86905D01*
X86474Y247200D01*
X86905Y247946D01*
X99850D01*
X101134Y248201D01*
X102222Y248928D01*
X102949Y250016D01*
X103204Y251300D01*
Y255800D01*
X102949Y257084D01*
X102222Y258172D01*
X101134Y258899D01*
X99850Y259154D01*
X81650D01*
X80366Y258899D01*
X79278Y258172D01*
X78551Y257084D01*
X78313Y255889D01*
X67290D01*
Y257990D01*
X65739D01*
Y268879D01*
X66134Y269361D01*
X202349D01*
X236619Y235092D01*
X237002Y233162D01*
X237311Y232700D01*
Y231650D01*
X237410Y231154D01*
Y222760D01*
X243523D01*
X247666Y218616D01*
X249333Y217502D01*
X251300Y217111D01*
X253710D01*
Y216210D01*
X269290D01*
Y227290D01*
X261496D01*
X261000Y227389D01*
X253428D01*
X250817Y230000D01*
X255928Y235111D01*
X261000D01*
X261496Y235210D01*
X269290D01*
Y246290D01*
X253710D01*
Y245371D01*
X251833Y244998D01*
X250166Y243884D01*
X246796Y240514D01*
X245533Y240638D01*
X245384Y240861D01*
X208111Y278134D01*
X206444Y279248D01*
X204478Y279639D01*
X57321D01*
X56352Y280040D01*
D02*
G37*
G36*
X758324Y155140D02*
X756181D01*
X754111Y154585D01*
X752254Y153514D01*
X750739Y151998D01*
X749667Y150142D01*
X749112Y148072D01*
Y145928D01*
X749667Y143858D01*
X750739Y142002D01*
X752254Y140486D01*
X754111Y139415D01*
X756181Y138860D01*
X758324D01*
X760394Y139415D01*
X762251Y140486D01*
X763766Y142002D01*
X764838Y143858D01*
X765393Y145928D01*
Y148072D01*
X764838Y150142D01*
X763766Y151998D01*
X762251Y153514D01*
X760394Y154585D01*
X758324Y155140D01*
D02*
G37*
G36*
X578035Y157740D02*
X575365D01*
X572786Y157049D01*
X570474Y155714D01*
X568586Y153826D01*
X567251Y151514D01*
X566560Y148935D01*
Y146265D01*
X567251Y143686D01*
X568586Y141374D01*
X570474Y139486D01*
X572581Y138270D01*
Y107392D01*
X570228Y106034D01*
X568266Y104072D01*
X566878Y101668D01*
X566160Y98988D01*
Y96212D01*
X566878Y93532D01*
X568266Y91128D01*
X570228Y89166D01*
X572632Y87778D01*
X575312Y87060D01*
X578088D01*
X580768Y87778D01*
X583172Y89166D01*
X585134Y91128D01*
X586522Y93532D01*
X587240Y96212D01*
Y98988D01*
X586522Y101668D01*
X585134Y104072D01*
X583172Y106034D01*
X580819Y107392D01*
Y138270D01*
X582926Y139486D01*
X584814Y141374D01*
X586149Y143686D01*
X586840Y146265D01*
Y148935D01*
X586149Y151514D01*
X584814Y153826D01*
X582926Y155714D01*
X580614Y157049D01*
X578035Y157740D01*
D02*
G37*
G36*
X552635D02*
X549965D01*
X547386Y157049D01*
X545074Y155714D01*
X543186Y153826D01*
X541851Y151514D01*
X541160Y148935D01*
Y146265D01*
X541851Y143686D01*
X543186Y141374D01*
X545074Y139486D01*
X547181Y138270D01*
Y107392D01*
X544828Y106034D01*
X542866Y104072D01*
X541478Y101668D01*
X540760Y98988D01*
Y96212D01*
X541478Y93532D01*
X542866Y91128D01*
X544828Y89166D01*
X547232Y87778D01*
X549912Y87060D01*
X552688D01*
X555368Y87778D01*
X557772Y89166D01*
X559734Y91128D01*
X561122Y93532D01*
X561840Y96212D01*
Y98988D01*
X561122Y101668D01*
X559734Y104072D01*
X557772Y106034D01*
X555419Y107392D01*
Y138270D01*
X557526Y139486D01*
X559414Y141374D01*
X560749Y143686D01*
X561440Y146265D01*
Y148935D01*
X560749Y151514D01*
X559414Y153826D01*
X557526Y155714D01*
X555214Y157049D01*
X552635Y157740D01*
D02*
G37*
G36*
X527235D02*
X524565D01*
X521986Y157049D01*
X519674Y155714D01*
X517786Y153826D01*
X516451Y151514D01*
X515760Y148935D01*
Y146265D01*
X516451Y143686D01*
X517786Y141374D01*
X519674Y139486D01*
X521781Y138270D01*
Y107392D01*
X519428Y106034D01*
X517466Y104072D01*
X516078Y101668D01*
X515360Y98988D01*
Y96212D01*
X516078Y93532D01*
X517466Y91128D01*
X519428Y89166D01*
X521832Y87778D01*
X524512Y87060D01*
X527288D01*
X529968Y87778D01*
X532372Y89166D01*
X534334Y91128D01*
X535722Y93532D01*
X536440Y96212D01*
Y98988D01*
X535722Y101668D01*
X534334Y104072D01*
X532372Y106034D01*
X530019Y107392D01*
Y138270D01*
X532126Y139486D01*
X534014Y141374D01*
X535349Y143686D01*
X536040Y146265D01*
Y148935D01*
X535349Y151514D01*
X534014Y153826D01*
X532126Y155714D01*
X529814Y157049D01*
X527235Y157740D01*
D02*
G37*
G36*
X501835D02*
X499165D01*
X496586Y157049D01*
X494274Y155714D01*
X492386Y153826D01*
X491051Y151514D01*
X490360Y148935D01*
Y146265D01*
X491051Y143686D01*
X492386Y141374D01*
X494274Y139486D01*
X496381Y138270D01*
Y107392D01*
X494028Y106034D01*
X492066Y104072D01*
X490678Y101668D01*
X489960Y98988D01*
Y96212D01*
X490678Y93532D01*
X492066Y91128D01*
X494028Y89166D01*
X496432Y87778D01*
X499112Y87060D01*
X501888D01*
X504568Y87778D01*
X506972Y89166D01*
X508934Y91128D01*
X510322Y93532D01*
X511040Y96212D01*
Y98988D01*
X510322Y101668D01*
X508934Y104072D01*
X506972Y106034D01*
X504619Y107392D01*
Y138270D01*
X506726Y139486D01*
X508614Y141374D01*
X509949Y143686D01*
X510640Y146265D01*
Y148935D01*
X509949Y151514D01*
X508614Y153826D01*
X506726Y155714D01*
X504414Y157049D01*
X501835Y157740D01*
D02*
G37*
G36*
X476435D02*
X473765D01*
X471186Y157049D01*
X468874Y155714D01*
X466986Y153826D01*
X465651Y151514D01*
X464960Y148935D01*
Y146265D01*
X465651Y143686D01*
X466986Y141374D01*
X468874Y139486D01*
X470981Y138270D01*
Y107392D01*
X468628Y106034D01*
X466666Y104072D01*
X465278Y101668D01*
X464560Y98988D01*
Y96212D01*
X465278Y93532D01*
X466666Y91128D01*
X468628Y89166D01*
X471032Y87778D01*
X473712Y87060D01*
X476488D01*
X479168Y87778D01*
X481572Y89166D01*
X483534Y91128D01*
X484922Y93532D01*
X485640Y96212D01*
Y98988D01*
X484922Y101668D01*
X483534Y104072D01*
X481572Y106034D01*
X479219Y107392D01*
Y138270D01*
X481326Y139486D01*
X483214Y141374D01*
X484549Y143686D01*
X485240Y146265D01*
Y148935D01*
X484549Y151514D01*
X483214Y153826D01*
X481326Y155714D01*
X479014Y157049D01*
X476435Y157740D01*
D02*
G37*
G36*
X451035D02*
X448365D01*
X445786Y157049D01*
X443474Y155714D01*
X441586Y153826D01*
X440251Y151514D01*
X439560Y148935D01*
Y146265D01*
X440251Y143686D01*
X441586Y141374D01*
X443474Y139486D01*
X445581Y138270D01*
Y107392D01*
X443228Y106034D01*
X441266Y104072D01*
X439878Y101668D01*
X439160Y98988D01*
Y96212D01*
X439878Y93532D01*
X441266Y91128D01*
X443228Y89166D01*
X445632Y87778D01*
X448312Y87060D01*
X451088D01*
X453768Y87778D01*
X456172Y89166D01*
X458134Y91128D01*
X459522Y93532D01*
X460240Y96212D01*
Y98988D01*
X459522Y101668D01*
X458134Y104072D01*
X456172Y106034D01*
X453819Y107392D01*
Y138270D01*
X455926Y139486D01*
X457814Y141374D01*
X459149Y143686D01*
X459840Y146265D01*
Y148935D01*
X459149Y151514D01*
X457814Y153826D01*
X455926Y155714D01*
X453614Y157049D01*
X451035Y157740D01*
D02*
G37*
G36*
X425635D02*
X422965D01*
X420386Y157049D01*
X418074Y155714D01*
X416186Y153826D01*
X414851Y151514D01*
X414160Y148935D01*
Y146265D01*
X414851Y143686D01*
X416186Y141374D01*
X418074Y139486D01*
X420181Y138270D01*
Y107392D01*
X417828Y106034D01*
X415866Y104072D01*
X414478Y101668D01*
X413760Y98988D01*
Y96212D01*
X414478Y93532D01*
X415866Y91128D01*
X417828Y89166D01*
X420232Y87778D01*
X422912Y87060D01*
X425688D01*
X428368Y87778D01*
X430772Y89166D01*
X432734Y91128D01*
X434122Y93532D01*
X434840Y96212D01*
Y98988D01*
X434122Y101668D01*
X432734Y104072D01*
X430772Y106034D01*
X428419Y107392D01*
Y138270D01*
X430526Y139486D01*
X432414Y141374D01*
X433749Y143686D01*
X434440Y146265D01*
Y148935D01*
X433749Y151514D01*
X432414Y153826D01*
X430526Y155714D01*
X428214Y157049D01*
X425635Y157740D01*
D02*
G37*
G36*
X400235D02*
X397565D01*
X394986Y157049D01*
X392674Y155714D01*
X390786Y153826D01*
X389451Y151514D01*
X388760Y148935D01*
Y146265D01*
X389451Y143686D01*
X390786Y141374D01*
X392674Y139486D01*
X394781Y138270D01*
Y107392D01*
X392428Y106034D01*
X390466Y104072D01*
X389078Y101668D01*
X388360Y98988D01*
Y96212D01*
X389078Y93532D01*
X390466Y91128D01*
X392428Y89166D01*
X394832Y87778D01*
X397512Y87060D01*
X400288D01*
X402968Y87778D01*
X405372Y89166D01*
X407334Y91128D01*
X408722Y93532D01*
X409440Y96212D01*
Y98988D01*
X408722Y101668D01*
X407334Y104072D01*
X405372Y106034D01*
X403019Y107392D01*
Y138270D01*
X405126Y139486D01*
X407014Y141374D01*
X408349Y143686D01*
X409040Y146265D01*
Y148935D01*
X408349Y151514D01*
X407014Y153826D01*
X405126Y155714D01*
X402814Y157049D01*
X400235Y157740D01*
D02*
G37*
G36*
X374835D02*
X372165D01*
X369586Y157049D01*
X367274Y155714D01*
X365386Y153826D01*
X364051Y151514D01*
X363360Y148935D01*
Y146265D01*
X364051Y143686D01*
X365386Y141374D01*
X367274Y139486D01*
X369381Y138270D01*
Y107392D01*
X367028Y106034D01*
X365066Y104072D01*
X363678Y101668D01*
X362960Y98988D01*
Y96212D01*
X363678Y93532D01*
X365066Y91128D01*
X367028Y89166D01*
X369432Y87778D01*
X372112Y87060D01*
X374888D01*
X377568Y87778D01*
X379972Y89166D01*
X381934Y91128D01*
X383322Y93532D01*
X384040Y96212D01*
Y98988D01*
X383322Y101668D01*
X381934Y104072D01*
X379972Y106034D01*
X377619Y107392D01*
Y138270D01*
X379726Y139486D01*
X381614Y141374D01*
X382949Y143686D01*
X383640Y146265D01*
Y148935D01*
X382949Y151514D01*
X381614Y153826D01*
X379726Y155714D01*
X377414Y157049D01*
X374835Y157740D01*
D02*
G37*
G36*
X349435D02*
X346765D01*
X344186Y157049D01*
X341874Y155714D01*
X339986Y153826D01*
X338651Y151514D01*
X337960Y148935D01*
Y146265D01*
X338651Y143686D01*
X339986Y141374D01*
X341874Y139486D01*
X343981Y138270D01*
Y107392D01*
X341628Y106034D01*
X339666Y104072D01*
X338278Y101668D01*
X337560Y98988D01*
Y96212D01*
X338278Y93532D01*
X339666Y91128D01*
X341628Y89166D01*
X344032Y87778D01*
X346712Y87060D01*
X349488D01*
X352168Y87778D01*
X354572Y89166D01*
X356534Y91128D01*
X357922Y93532D01*
X358640Y96212D01*
Y98988D01*
X357922Y101668D01*
X356534Y104072D01*
X354572Y106034D01*
X352219Y107392D01*
Y138270D01*
X354326Y139486D01*
X356214Y141374D01*
X357549Y143686D01*
X358240Y146265D01*
Y148935D01*
X357549Y151514D01*
X356214Y153826D01*
X354326Y155714D01*
X352014Y157049D01*
X349435Y157740D01*
D02*
G37*
G36*
X222435D02*
X219765D01*
X217186Y157049D01*
X214874Y155714D01*
X212986Y153826D01*
X211651Y151514D01*
X210960Y148935D01*
Y146265D01*
X211651Y143686D01*
X212986Y141374D01*
X214874Y139486D01*
X216981Y138270D01*
Y107392D01*
X214628Y106034D01*
X212666Y104072D01*
X211278Y101668D01*
X210560Y98988D01*
Y96212D01*
X211278Y93532D01*
X212666Y91128D01*
X214628Y89166D01*
X217032Y87778D01*
X219712Y87060D01*
X222488D01*
X225168Y87778D01*
X227572Y89166D01*
X229534Y91128D01*
X230922Y93532D01*
X231640Y96212D01*
Y98988D01*
X230922Y101668D01*
X229534Y104072D01*
X227572Y106034D01*
X225219Y107392D01*
Y138270D01*
X227326Y139486D01*
X229214Y141374D01*
X230549Y143686D01*
X231240Y146265D01*
Y148935D01*
X230549Y151514D01*
X229214Y153826D01*
X227326Y155714D01*
X225014Y157049D01*
X222435Y157740D01*
D02*
G37*
G36*
X197035D02*
X194365D01*
X191786Y157049D01*
X189474Y155714D01*
X187586Y153826D01*
X186251Y151514D01*
X185560Y148935D01*
Y146265D01*
X186251Y143686D01*
X187586Y141374D01*
X189474Y139486D01*
X191581Y138270D01*
Y107392D01*
X189228Y106034D01*
X187266Y104072D01*
X185878Y101668D01*
X185160Y98988D01*
Y96212D01*
X185878Y93532D01*
X187266Y91128D01*
X189228Y89166D01*
X191632Y87778D01*
X194312Y87060D01*
X197088D01*
X199768Y87778D01*
X202172Y89166D01*
X204134Y91128D01*
X205522Y93532D01*
X206240Y96212D01*
Y98988D01*
X205522Y101668D01*
X204134Y104072D01*
X202172Y106034D01*
X199819Y107392D01*
Y138270D01*
X201926Y139486D01*
X203814Y141374D01*
X205149Y143686D01*
X205840Y146265D01*
Y148935D01*
X205149Y151514D01*
X203814Y153826D01*
X201926Y155714D01*
X199614Y157049D01*
X197035Y157740D01*
D02*
G37*
G36*
X171635D02*
X168965D01*
X166386Y157049D01*
X164074Y155714D01*
X162186Y153826D01*
X160851Y151514D01*
X160160Y148935D01*
Y146265D01*
X160851Y143686D01*
X162186Y141374D01*
X164074Y139486D01*
X166181Y138270D01*
Y107392D01*
X163828Y106034D01*
X161866Y104072D01*
X160478Y101668D01*
X159760Y98988D01*
Y96212D01*
X160478Y93532D01*
X161866Y91128D01*
X163828Y89166D01*
X166232Y87778D01*
X168912Y87060D01*
X171688D01*
X174368Y87778D01*
X176772Y89166D01*
X178734Y91128D01*
X180122Y93532D01*
X180840Y96212D01*
Y98988D01*
X180122Y101668D01*
X178734Y104072D01*
X176772Y106034D01*
X174419Y107392D01*
Y138270D01*
X176526Y139486D01*
X178414Y141374D01*
X179749Y143686D01*
X180440Y146265D01*
Y148935D01*
X179749Y151514D01*
X178414Y153826D01*
X176526Y155714D01*
X174214Y157049D01*
X171635Y157740D01*
D02*
G37*
G36*
X146235D02*
X143565D01*
X140986Y157049D01*
X138674Y155714D01*
X136786Y153826D01*
X135451Y151514D01*
X134760Y148935D01*
Y146265D01*
X135451Y143686D01*
X136786Y141374D01*
X138674Y139486D01*
X140781Y138270D01*
Y107392D01*
X138428Y106034D01*
X136466Y104072D01*
X135078Y101668D01*
X134360Y98988D01*
Y96212D01*
X135078Y93532D01*
X136466Y91128D01*
X138428Y89166D01*
X140832Y87778D01*
X143512Y87060D01*
X146288D01*
X148968Y87778D01*
X151372Y89166D01*
X153334Y91128D01*
X154722Y93532D01*
X155440Y96212D01*
Y98988D01*
X154722Y101668D01*
X153334Y104072D01*
X151372Y106034D01*
X149019Y107392D01*
Y138270D01*
X151126Y139486D01*
X153014Y141374D01*
X154349Y143686D01*
X155040Y146265D01*
Y148935D01*
X154349Y151514D01*
X153014Y153826D01*
X151126Y155714D01*
X148814Y157049D01*
X146235Y157740D01*
D02*
G37*
G36*
X120835D02*
X118165D01*
X115586Y157049D01*
X113274Y155714D01*
X111386Y153826D01*
X110051Y151514D01*
X109360Y148935D01*
Y146265D01*
X110051Y143686D01*
X111386Y141374D01*
X113274Y139486D01*
X115381Y138270D01*
Y107392D01*
X113028Y106034D01*
X111066Y104072D01*
X109678Y101668D01*
X108960Y98988D01*
Y96212D01*
X109678Y93532D01*
X111066Y91128D01*
X113028Y89166D01*
X115432Y87778D01*
X118112Y87060D01*
X120888D01*
X123568Y87778D01*
X125972Y89166D01*
X127934Y91128D01*
X129322Y93532D01*
X130040Y96212D01*
Y98988D01*
X129322Y101668D01*
X127934Y104072D01*
X125972Y106034D01*
X123619Y107392D01*
Y138270D01*
X125726Y139486D01*
X127614Y141374D01*
X128949Y143686D01*
X129640Y146265D01*
Y148935D01*
X128949Y151514D01*
X127614Y153826D01*
X125726Y155714D01*
X123414Y157049D01*
X120835Y157740D01*
D02*
G37*
G36*
X95435D02*
X92765D01*
X90186Y157049D01*
X87874Y155714D01*
X85986Y153826D01*
X84651Y151514D01*
X83960Y148935D01*
Y146265D01*
X84651Y143686D01*
X85986Y141374D01*
X87874Y139486D01*
X89981Y138270D01*
Y107392D01*
X87628Y106034D01*
X85666Y104072D01*
X84278Y101668D01*
X83560Y98988D01*
Y96212D01*
X84278Y93532D01*
X85666Y91128D01*
X87628Y89166D01*
X90032Y87778D01*
X92712Y87060D01*
X95488D01*
X98168Y87778D01*
X100572Y89166D01*
X102534Y91128D01*
X103922Y93532D01*
X104640Y96212D01*
Y98988D01*
X103922Y101668D01*
X102534Y104072D01*
X100572Y106034D01*
X98219Y107392D01*
Y138270D01*
X100326Y139486D01*
X102214Y141374D01*
X103549Y143686D01*
X104240Y146265D01*
Y148935D01*
X103549Y151514D01*
X102214Y153826D01*
X100326Y155714D01*
X98014Y157049D01*
X95435Y157740D01*
D02*
G37*
G36*
X605900Y157864D02*
X598300D01*
X595826Y157372D01*
X593729Y155971D01*
X592328Y153874D01*
X591836Y151400D01*
Y143800D01*
X592328Y141326D01*
X593729Y139229D01*
X595826Y137828D01*
X597981Y137399D01*
Y108181D01*
X596393Y107972D01*
X594802Y107313D01*
X593436Y106264D01*
X592387Y104898D01*
X591728Y103307D01*
X591504Y101600D01*
Y93600D01*
X591728Y91893D01*
X592387Y90302D01*
X593436Y88936D01*
X594802Y87887D01*
X596393Y87228D01*
X598100Y87004D01*
X606100D01*
X607807Y87228D01*
X609398Y87887D01*
X610764Y88936D01*
X611813Y90302D01*
X612472Y91893D01*
X612696Y93600D01*
Y101600D01*
X612472Y103307D01*
X611813Y104898D01*
X610764Y106264D01*
X609398Y107313D01*
X607807Y107972D01*
X606219Y108181D01*
Y137399D01*
X608374Y137828D01*
X610471Y139229D01*
X611872Y141326D01*
X612364Y143800D01*
Y151400D01*
X611872Y153874D01*
X610471Y155971D01*
X608374Y157372D01*
X605900Y157864D01*
D02*
G37*
G36*
X194540Y79990D02*
X181160D01*
Y65510D01*
X194540D01*
Y68381D01*
X196710D01*
Y65960D01*
X209790D01*
Y79040D01*
X196710D01*
Y76619D01*
X194540D01*
Y79990D01*
D02*
G37*
G36*
X293090Y78990D02*
X279710D01*
Y70335D01*
X275237Y65863D01*
X274344Y64526D01*
X274031Y62950D01*
Y55792D01*
X271678Y54434D01*
X269716Y52472D01*
X268328Y50068D01*
X267610Y47388D01*
Y44612D01*
X268328Y41932D01*
X269716Y39528D01*
X271678Y37566D01*
X274082Y36178D01*
X276762Y35460D01*
X279538D01*
X282218Y36178D01*
X284622Y37566D01*
X286584Y39528D01*
X287972Y41932D01*
X288690Y44612D01*
Y47388D01*
X287972Y50068D01*
X286584Y52472D01*
X284622Y54434D01*
X282269Y55792D01*
Y60072D01*
X283539Y60458D01*
X284087Y59637D01*
X293713Y50012D01*
X293010Y47388D01*
Y44612D01*
X293728Y41932D01*
X295116Y39528D01*
X297078Y37566D01*
X299482Y36178D01*
X302162Y35460D01*
X304938D01*
X307618Y36178D01*
X310022Y37566D01*
X311984Y39528D01*
X313372Y41932D01*
X314090Y44612D01*
Y47388D01*
X313372Y50068D01*
X311984Y52472D01*
X310022Y54434D01*
X307618Y55822D01*
X304938Y56540D01*
X302162D01*
X299538Y55837D01*
X292135Y63240D01*
X292661Y64510D01*
X293090D01*
Y78990D01*
D02*
G37*
%LPD*%
G36*
X264303Y433290D02*
Y426869D01*
X260450D01*
X258874Y426556D01*
X257537Y425663D01*
X250665Y418790D01*
X242010D01*
Y416219D01*
X233757D01*
X232906Y417223D01*
X233533Y419562D01*
Y422338D01*
X232829Y424962D01*
X241499Y433631D01*
X263174D01*
X264303Y433290D01*
D02*
G37*
G36*
X289186Y141374D02*
X291074Y139486D01*
X293386Y138151D01*
X295965Y137460D01*
X298635D01*
X301214Y138151D01*
X303526Y139486D01*
X303647Y139607D01*
X304821Y139121D01*
Y127973D01*
X281478Y104630D01*
X281320Y104553D01*
X280071Y104516D01*
X279791Y104615D01*
X278372Y106034D01*
X275968Y107422D01*
X273288Y108140D01*
X272897D01*
X272411Y109313D01*
X286453Y123355D01*
X287346Y124691D01*
X287659Y126267D01*
Y141479D01*
X288929Y141819D01*
X289186Y141374D01*
D02*
G37*
D14*
X249250Y412100D02*
D03*
Y398900D02*
D03*
X708743Y50650D02*
D03*
Y63850D02*
D03*
X643500Y191650D02*
D03*
Y204850D02*
D03*
X603250Y64600D02*
D03*
Y51400D02*
D03*
X197750Y388650D02*
D03*
Y401850D02*
D03*
D15*
X88600Y397850D02*
D03*
Y386450D02*
D03*
Y420650D02*
D03*
Y432050D02*
D03*
D16*
X155100Y409250D02*
D03*
D17*
X709000Y85500D02*
D03*
X747500Y97750D02*
D03*
X736250Y200500D02*
D03*
Y220750D02*
D03*
X747000Y270250D02*
D03*
X653500Y294000D02*
D03*
D18*
X690370Y237463D02*
D03*
Y250163D02*
D03*
Y262862D02*
D03*
Y275562D02*
D03*
X636130D02*
D03*
Y262862D02*
D03*
Y250163D02*
D03*
Y237463D02*
D03*
X635130Y82050D02*
D03*
Y69350D02*
D03*
Y56650D02*
D03*
Y43950D02*
D03*
X689370D02*
D03*
Y56650D02*
D03*
Y69350D02*
D03*
Y82050D02*
D03*
D19*
X686350Y21000D02*
D03*
X673150D02*
D03*
X638150Y20750D02*
D03*
X651350D02*
D03*
X712900Y249500D02*
D03*
X726100D02*
D03*
X531150Y239500D02*
D03*
X544350D02*
D03*
X684600Y219500D02*
D03*
X671400D02*
D03*
X656350Y219750D02*
D03*
X643150D02*
D03*
X591900Y36000D02*
D03*
X605100D02*
D03*
X369850Y413000D02*
D03*
X356650D02*
D03*
X411850Y495750D02*
D03*
X398650D02*
D03*
X418650Y517750D02*
D03*
X431850D02*
D03*
X343150D02*
D03*
X356350D02*
D03*
X29850Y275000D02*
D03*
X16650D02*
D03*
X334400Y71750D02*
D03*
X347600D02*
D03*
X286400D02*
D03*
X299600D02*
D03*
X174650Y72750D02*
D03*
X187850D02*
D03*
X280600Y205007D02*
D03*
X267400D02*
D03*
X131350Y72000D02*
D03*
X118150D02*
D03*
X109650Y198250D02*
D03*
X122850D02*
D03*
X49900Y421000D02*
D03*
X63100D02*
D03*
X50008Y397250D02*
D03*
X63208D02*
D03*
X47400Y250750D02*
D03*
X60600D02*
D03*
X267150Y257493D02*
D03*
X280350D02*
D03*
X230900Y230000D02*
D03*
X244100D02*
D03*
X47400Y215250D02*
D03*
X60600D02*
D03*
X117600Y521000D02*
D03*
X104400D02*
D03*
X662400Y191992D02*
D03*
X675600D02*
D03*
X617100Y250000D02*
D03*
X603900D02*
D03*
X703142Y191992D02*
D03*
X689942D02*
D03*
D20*
X643700Y118380D02*
D03*
X656400D02*
D03*
X669100D02*
D03*
X681800D02*
D03*
Y172620D02*
D03*
X669100D02*
D03*
X656400D02*
D03*
X643700D02*
D03*
D21*
X359300Y475993D02*
D03*
Y495993D02*
D03*
X339700Y485993D02*
D03*
D22*
X350785Y430500D02*
D03*
Y440000D02*
D03*
Y449500D02*
D03*
X375785D02*
D03*
Y440000D02*
D03*
Y430500D02*
D03*
D23*
X407750Y467500D02*
D03*
X455750D02*
D03*
X104750Y492750D02*
D03*
X152750D02*
D03*
D24*
X483543Y517750D02*
D03*
X476457D02*
D03*
D25*
X203250Y72500D02*
D03*
X219250D02*
D03*
X103250Y71750D02*
D03*
X87250D02*
D03*
D26*
X287500Y240750D02*
D03*
Y221750D02*
D03*
X261500D02*
D03*
Y231250D02*
D03*
Y240750D02*
D03*
X587000Y239750D02*
D03*
Y249250D02*
D03*
Y258750D02*
D03*
X561000D02*
D03*
Y239750D02*
D03*
D27*
X198000Y417500D02*
D03*
Y433500D02*
D03*
D28*
X226000Y491750D02*
D03*
X281000D02*
D03*
D29*
X90750Y253550D02*
D03*
Y240850D02*
D03*
Y228150D02*
D03*
Y215450D02*
D03*
X140250D02*
D03*
Y228150D02*
D03*
Y240850D02*
D03*
Y253550D02*
D03*
D30*
X275842Y422750D02*
D03*
X326642D02*
D03*
Y380750D02*
D03*
X275842D02*
D03*
D56*
X18176Y254324D02*
Y273474D01*
Y254324D02*
X18750Y253750D01*
X16650Y275000D02*
X18176Y273474D01*
X17275Y299375D02*
X17900Y300000D01*
X16650Y275000D02*
X17275Y275625D01*
Y299375D01*
X88600Y432050D02*
Y442350D01*
X97500Y451250D01*
X17900Y300000D02*
Y350000D01*
X43300Y300000D02*
Y350000D01*
X68700Y300000D02*
Y350000D01*
X94100Y300000D02*
Y350000D01*
X119500Y300000D02*
Y350000D01*
X144900Y300000D02*
Y350000D01*
X170300Y300000D02*
Y350000D01*
X195700Y300000D02*
Y350000D01*
X221100Y300000D02*
Y350000D01*
X246500Y300000D02*
Y350000D01*
X271900Y300000D02*
Y350000D01*
X297300Y300000D02*
Y350000D01*
X322700Y300000D02*
Y350000D01*
X348100Y300000D02*
Y350000D01*
X373500Y300000D02*
Y350000D01*
X398900Y300000D02*
Y350000D01*
X424300Y300000D02*
Y350000D01*
X449700Y300000D02*
Y350000D01*
X475100Y300000D02*
Y350000D01*
X500500Y300000D02*
Y350000D01*
X525900Y300000D02*
Y350000D01*
X551300Y300000D02*
Y350000D01*
X576700Y300000D02*
Y350000D01*
X602100Y97600D02*
Y147600D01*
X576700Y97600D02*
Y147600D01*
X551300Y97600D02*
Y147600D01*
X525900Y97600D02*
Y147600D01*
X500500Y97600D02*
Y147600D01*
X475100Y97600D02*
Y147600D01*
X449700Y97600D02*
Y147600D01*
X424300Y97600D02*
Y147600D01*
X398900Y97600D02*
Y147600D01*
X373500Y97600D02*
Y147600D01*
X348100Y97600D02*
Y147600D01*
X322700Y97600D02*
Y147600D01*
X246500Y97600D02*
Y147600D01*
X221100Y97600D02*
Y147600D01*
X195700Y97600D02*
Y147600D01*
X170300Y97600D02*
Y147600D01*
X144900Y97600D02*
Y147600D01*
X119500Y97600D02*
Y147600D01*
X94100Y97600D02*
Y147600D01*
X68700Y97600D02*
Y147600D01*
X43300Y97600D02*
Y147600D01*
X17900Y97600D02*
Y147600D01*
X617425Y235075D02*
X617750Y234750D01*
X617100Y250000D02*
X617425Y249675D01*
Y235075D02*
Y249675D01*
X724500Y237250D02*
X725074Y237824D01*
Y248474D02*
X726100Y249500D01*
X725074Y237824D02*
Y248474D01*
X669777Y200732D02*
X681752D01*
X689942Y192542D01*
X665050Y196006D02*
X669777Y200732D01*
X691426Y180824D02*
Y190509D01*
Y180824D02*
X692000Y180250D01*
X689942Y191992D02*
X691426Y190509D01*
X709068Y64175D02*
X725925D01*
X708743Y63850D02*
X709068Y64175D01*
X725925D02*
X726250Y64500D01*
X239000Y21250D02*
X322750D01*
X209307D02*
X239000D01*
Y47673D01*
X283940Y92613D02*
Y101267D01*
X239000Y47673D02*
X283940Y92613D01*
Y101267D02*
X308940Y126267D01*
Y150302D01*
X351413Y192774D02*
X498987D01*
X539340Y233127D01*
Y233940D01*
X308940Y150302D02*
X351413Y192774D01*
X539340Y233940D02*
X544350Y238950D01*
Y239500D01*
X617262Y250163D02*
X636130D01*
X617100Y250000D02*
X617262Y250163D01*
X693750Y69350D02*
X699250Y63850D01*
X708743D01*
X689370Y69350D02*
X693750D01*
X689942Y191992D02*
Y192542D01*
X665050Y194643D02*
Y196006D01*
X662400Y191992D02*
X665050Y194643D01*
X656400Y172620D02*
Y185443D01*
X662400Y191443D01*
Y191992D01*
X328950Y27450D02*
Y46000D01*
X322750Y21250D02*
X328950Y27450D01*
X183050Y47508D02*
X209307Y21250D01*
X337050Y63300D02*
X354350Y46000D01*
X337050Y63300D02*
Y69100D01*
X334400Y71750D02*
X337050Y69100D01*
X328950Y46000D02*
Y65750D01*
X334400Y71200D01*
Y71750D01*
X287000Y62550D02*
Y71150D01*
Y62550D02*
X303550Y46000D01*
X286400Y71750D02*
X287000Y71150D01*
X278150Y62950D02*
X286400Y71200D01*
Y71750D01*
X278150Y46000D02*
Y62950D01*
X219250Y58307D02*
Y72500D01*
X208450Y47508D02*
X219250Y58307D01*
X187850Y72750D02*
X188100Y72500D01*
X203250D01*
X219250D02*
X238427D01*
X259860Y93933D02*
Y102587D01*
X283540Y126267D01*
Y170116D01*
X280600Y173056D02*
X283540Y170116D01*
X238427Y72500D02*
X259860Y93933D01*
X280600Y173056D02*
Y205007D01*
X63208Y397250D02*
X63808Y397850D01*
X88600D01*
X97215D02*
X100215Y400850D01*
X88600Y397850D02*
X97215D01*
X100215Y400850D02*
Y407465D01*
X114000Y421250D01*
Y439000D01*
X121500Y446500D01*
X185000D02*
X198000Y433500D01*
X121500Y446500D02*
X185000D01*
X218036Y400507D02*
Y403714D01*
X209339Y412411D02*
Y422161D01*
X218036Y400507D02*
X222993Y395550D01*
X209339Y412411D02*
X218036Y403714D01*
X198000Y433500D02*
X209339Y422161D01*
X316988Y404000D02*
X362213D01*
X369850Y412450D02*
Y413550D01*
X362213Y404000D02*
X364840Y406627D01*
Y407440D02*
X369850Y412450D01*
X364840Y406627D02*
Y407440D01*
X288512Y437750D02*
X290000Y436262D01*
Y430988D02*
Y436262D01*
X222993Y420950D02*
X239793Y437750D01*
X288512D01*
X290000Y430988D02*
X316988Y404000D01*
X231843Y412100D02*
X249250D01*
X222993Y420950D02*
X231843Y412100D01*
X249800D02*
X260450Y422750D01*
X275842D01*
X249250Y412100D02*
X249800D01*
X275842Y380750D02*
Y422750D01*
X369850Y413550D02*
X375785Y419485D01*
Y430500D01*
D57*
X602100Y300000D02*
Y350000D01*
X646380Y194530D02*
X650699D01*
X662212Y206042D01*
X703331D01*
X708873Y200500D02*
X736250D01*
X671400Y220050D02*
X676640Y225290D01*
X703331Y206042D02*
X708873Y200500D01*
X676640Y225778D02*
X678872Y228010D01*
X643500Y191650D02*
X646380Y194530D01*
X671400Y219500D02*
Y220050D01*
X676640Y225290D02*
Y225778D01*
X678872Y228010D02*
X703316D01*
X710576Y220750D01*
X703142Y152653D02*
Y191992D01*
Y152653D02*
X706452Y149343D01*
Y147000D02*
Y149343D01*
X636640Y163412D02*
X638872Y161180D01*
X636640Y163412D02*
Y185340D01*
X642950Y191650D01*
X669100Y168240D02*
Y172620D01*
X662040Y161180D02*
X669100Y168240D01*
X638872Y161180D02*
X662040D01*
X642950Y191650D02*
X643500D01*
Y204850D02*
Y219400D01*
X643150Y219750D02*
X643500Y219400D01*
X556750Y46500D02*
X567250Y36000D01*
X591900D01*
X603250Y37850D02*
Y51400D01*
Y37850D02*
X605100Y36000D01*
X609050Y56650D02*
X635130D01*
X603800Y51400D02*
X609050Y56650D01*
X603250Y51400D02*
X603800D01*
X635130Y69350D02*
X639510D01*
X651350Y57510D01*
Y20750D02*
Y57510D01*
Y20750D02*
X651600Y21000D01*
X673150D01*
X684990Y56650D02*
X689370D01*
X677930Y49590D02*
X684990Y56650D01*
X677930Y39122D02*
Y49590D01*
Y39122D02*
X686350Y30702D01*
Y21000D02*
Y30702D01*
X677045Y89250D02*
Y106055D01*
Y64595D02*
Y89250D01*
X677065Y89230D02*
X705270D01*
X709000Y85500D01*
X677045Y89250D02*
X677065Y89230D01*
X677045Y64595D02*
X684990Y56650D01*
X669100Y114000D02*
Y118380D01*
Y114000D02*
X677045Y106055D01*
X706452Y147000D02*
X747500Y105953D01*
Y97750D02*
Y105953D01*
X680640Y147000D02*
X706452D01*
X656400Y118380D02*
Y122760D01*
X680640Y147000D01*
X710576Y220750D02*
X736250D01*
X710200Y270750D02*
Y300215D01*
Y252200D02*
Y270750D01*
X710700Y270250D01*
X747000D01*
X712237Y250163D02*
X712900Y249500D01*
X710200Y252200D02*
X712237Y250163D01*
X690370D02*
X712237D01*
X646030Y222630D02*
Y223668D01*
X643150Y219750D02*
X646030Y222630D01*
X671400Y219500D02*
Y220050D01*
X663190Y228260D02*
X671400Y220050D01*
X650622Y228260D02*
X663190D01*
X646030Y223668D02*
X650622Y228260D01*
X671400Y219500D02*
X674280Y222380D01*
Y251152D01*
X685990Y262862D01*
X690370D01*
X636130D02*
X640510D01*
X653500Y275853D02*
Y294000D01*
X640510Y262862D02*
X653500Y275853D01*
X603931Y267750D02*
X608819Y262862D01*
X636130D01*
X581000Y267750D02*
X603931D01*
X577940Y264690D02*
X581000Y267750D01*
X577940Y244672D02*
Y264690D01*
Y244672D02*
X581132Y241480D01*
X585270D01*
X587000Y239750D01*
X544600D02*
X561000D01*
X544350Y239500D02*
X544600Y239750D01*
X563250Y258750D02*
X597332Y292832D01*
Y295232D01*
X561000Y258750D02*
X563250D01*
X597332Y295232D02*
X602100Y300000D01*
X198000Y402100D02*
Y417500D01*
X197750Y401850D02*
X198000Y402100D01*
X350785Y440000D02*
Y449500D01*
X347785Y430500D02*
X350785D01*
X340035Y422750D02*
X347785Y430500D01*
X326642Y422750D02*
X340035D01*
X374785Y450500D02*
X375785Y449500D01*
Y440000D02*
Y449500D01*
X374785Y450500D02*
Y459757D01*
X359300Y475243D02*
X374785Y459757D01*
X359300Y475243D02*
Y475993D01*
X431850Y517750D02*
X476457D01*
X556000D02*
X556750Y518500D01*
X483543Y517750D02*
X556000D01*
D58*
X285250Y221750D02*
X287500D01*
X280600Y205007D02*
Y217100D01*
X285250Y221750D01*
X50674Y198250D02*
X109650D01*
X4860Y152436D02*
X50674Y198250D01*
X4860Y92199D02*
Y152436D01*
X14334Y82724D02*
X76276D01*
X4860Y92199D02*
X14334Y82724D01*
X76276D02*
X87250Y71750D01*
X98209Y60791D01*
X107167D02*
X121200Y46757D01*
X98209Y60791D02*
X107167D01*
X103375Y71875D02*
X118025D01*
X118150Y72000D01*
X103250Y71750D02*
X103375Y71875D01*
X286374Y240750D02*
X287500D01*
X285874Y241250D02*
Y247981D01*
X282000Y251855D02*
Y255842D01*
X285874Y241250D02*
X286374Y240750D01*
X280350Y257493D02*
X282000Y255842D01*
Y251855D02*
X285874Y247981D01*
X244100Y229450D02*
Y230000D01*
X261000Y222250D02*
X261500Y221750D01*
X251300Y222250D02*
X261000D01*
X244100Y229450D02*
X251300Y222250D01*
X261000Y240250D02*
X261500Y240750D01*
X244100Y230000D02*
Y230550D01*
X253800Y240250D01*
X261000D01*
X241750Y235129D02*
Y237228D01*
Y235129D02*
X242450Y234429D01*
Y231650D02*
X244100Y230000D01*
X55250Y274500D02*
X204478D01*
X241750Y237228D01*
X242450Y231650D02*
Y234429D01*
X60700Y215350D02*
X90650D01*
X90750Y215450D01*
X60600Y215250D02*
X60700Y215350D01*
X97600Y228150D02*
X109650Y216100D01*
Y198250D02*
Y216100D01*
X90750Y228150D02*
X97600D01*
X75500Y250750D02*
X81100D01*
X60600D02*
X75500D01*
Y249250D02*
X83900Y240850D01*
X90750D01*
X75500Y249250D02*
Y250750D01*
X83900Y253550D02*
X90750D01*
X81100Y250750D02*
X83900Y253550D01*
X60600Y250750D02*
Y268879D01*
X55250Y274229D02*
X60600Y268879D01*
X55250Y274229D02*
Y274500D01*
D59*
X400160Y487927D02*
Y494240D01*
Y487927D02*
X400500Y487587D01*
Y474750D02*
X407750Y467500D01*
X398650Y495750D02*
X400160Y494240D01*
X400500Y474750D02*
Y487587D01*
X417567Y518833D02*
X418650Y517750D01*
X417567Y518833D02*
Y525933D01*
X410250Y533250D02*
X417567Y525933D01*
X349750Y533250D02*
X410250D01*
X343150Y526650D02*
X349750Y533250D01*
X343150Y517750D02*
Y526650D01*
X330592Y505192D02*
X343150Y517750D01*
X330592Y491750D02*
Y505192D01*
X359300Y495993D02*
X359421Y495871D01*
X398529D01*
X398650Y495750D01*
X336350Y485993D02*
X339700D01*
X281000Y491750D02*
X330592D01*
X336350Y485993D01*
X152750Y492750D02*
X225000D01*
X226000Y491750D01*
D60*
X104400Y493100D02*
X104750Y492750D01*
X104400Y493100D02*
Y521000D01*
X88425Y420825D02*
X88600Y420650D01*
X63100Y421000D02*
X63275Y420825D01*
X88425D01*
X63100Y421000D02*
Y421550D01*
X58495Y426155D02*
X63100Y421550D01*
X58495Y426155D02*
Y427541D01*
X55891Y430145D02*
X58495Y427541D01*
X36997Y424200D02*
X42942Y430145D01*
X20750Y424200D02*
X36997D01*
X42942Y430145D02*
X55891D01*
D61*
X20750Y441750D02*
X71750Y492750D01*
X104750D01*
X20750Y424200D02*
Y441750D01*
D62*
X17900Y300000D02*
D03*
X43300D02*
D03*
X68700D02*
D03*
X94100D02*
D03*
X119500D02*
D03*
X144900D02*
D03*
X170300D02*
D03*
X246500D02*
D03*
X271900D02*
D03*
X297300D02*
D03*
X348100D02*
D03*
X398900D02*
D03*
X424300D02*
D03*
X475100D02*
D03*
X500500D02*
D03*
X525900D02*
D03*
X576700D02*
D03*
X551300D02*
D03*
X449700D02*
D03*
X373500D02*
D03*
X322700D02*
D03*
X221100D02*
D03*
X195700D02*
D03*
X17900Y147600D02*
D03*
X43300D02*
D03*
X68700D02*
D03*
X94100D02*
D03*
X119500D02*
D03*
X144900D02*
D03*
X170300D02*
D03*
X246500D02*
D03*
X271900D02*
D03*
X297300D02*
D03*
X348100D02*
D03*
X398900D02*
D03*
X424300D02*
D03*
X475100D02*
D03*
X500500D02*
D03*
X525900D02*
D03*
X576700D02*
D03*
X551300D02*
D03*
X449700D02*
D03*
X373500D02*
D03*
X322700D02*
D03*
X221100D02*
D03*
X195700D02*
D03*
D63*
X602100Y300000D02*
D03*
Y147600D02*
D03*
D64*
X556750Y46500D02*
D03*
Y518500D02*
D03*
X354350Y46000D02*
D03*
X466950Y45750D02*
D03*
X208450Y47508D02*
D03*
X121200Y46757D02*
D03*
X602100Y97600D02*
D03*
Y350000D02*
D03*
D65*
X757253Y147000D02*
D03*
X731852Y172400D02*
D03*
X706452Y147000D02*
D03*
X710200Y351015D02*
D03*
X684800Y325615D02*
D03*
X710200Y300215D02*
D03*
D66*
X328950Y46000D02*
D03*
X303550D02*
D03*
X278150D02*
D03*
X441550Y45750D02*
D03*
X416150D02*
D03*
X390750D02*
D03*
X183050Y47508D02*
D03*
X95800Y46757D02*
D03*
X222993Y420950D02*
D03*
X20750Y424200D02*
D03*
X17900Y97600D02*
D03*
X43300D02*
D03*
X68700D02*
D03*
X94100D02*
D03*
X119500D02*
D03*
X246500D02*
D03*
X322700D02*
D03*
X348100D02*
D03*
X373500D02*
D03*
X424300D02*
D03*
X449700D02*
D03*
X500500D02*
D03*
X551300D02*
D03*
X576700D02*
D03*
X525900D02*
D03*
X475100D02*
D03*
X398900D02*
D03*
X297300D02*
D03*
X271900D02*
D03*
X221100D02*
D03*
X195700D02*
D03*
X170300D02*
D03*
X144900D02*
D03*
X17900Y350000D02*
D03*
X43300D02*
D03*
X68700D02*
D03*
X94100D02*
D03*
X119500D02*
D03*
X246500D02*
D03*
X322700D02*
D03*
X348100D02*
D03*
X373500D02*
D03*
X424300D02*
D03*
X449700D02*
D03*
X500500D02*
D03*
X551300D02*
D03*
X576700D02*
D03*
X525900D02*
D03*
X475100D02*
D03*
X398900D02*
D03*
X297300D02*
D03*
X271900D02*
D03*
X221100D02*
D03*
X195700D02*
D03*
X170300D02*
D03*
X144900D02*
D03*
D67*
X222993Y395550D02*
D03*
X20750Y398800D02*
D03*
D68*
X248000Y426500D02*
D03*
X684600Y219500D02*
D03*
X656350Y219750D02*
D03*
X781250Y448000D02*
D03*
X784250Y343500D02*
D03*
X785000Y245500D02*
D03*
X784750Y139000D02*
D03*
X782500Y62500D02*
D03*
X728500Y50750D02*
D03*
X706500Y8500D02*
D03*
X664000Y64000D02*
D03*
X624750Y119750D02*
D03*
X651000Y146500D02*
D03*
X661750Y254250D02*
D03*
X711500Y451000D02*
D03*
X609250Y448000D02*
D03*
X705750Y514250D02*
D03*
X606250Y512000D02*
D03*
X455750Y380750D02*
D03*
X454750Y412000D02*
D03*
X287250Y118750D02*
D03*
X224250Y34500D02*
D03*
X149250Y26750D02*
D03*
X240500Y4000D02*
D03*
X149750Y4250D02*
D03*
X76000Y11000D02*
D03*
X26500Y120750D02*
D03*
X9500Y195000D02*
D03*
Y225000D02*
D03*
X164500Y194250D02*
D03*
X164250Y227250D02*
D03*
X18750Y253750D02*
D03*
X97500Y451250D02*
D03*
X617750Y234750D02*
D03*
X724500Y237250D02*
D03*
X692000Y180250D02*
D03*
X726250Y64500D02*
D03*
X55250Y274500D02*
D03*
M02*
