G04*
G04 #@! TF.GenerationSoftware,Altium Limited,Altium Designer,21.6.4 (81)*
G04*
G04 Layer_Color=16711935*
%FSLAX44Y44*%
%MOMM*%
G71*
G04*
G04 #@! TF.SameCoordinates,DF600929-9F7D-4707-823E-D0FB3E8D8E71*
G04*
G04*
G04 #@! TF.FilePolarity,Negative*
G04*
G01*
G75*
%ADD47C,1.7232*%
G04:AMPARAMS|DCode=48|XSize=1.7232mm|YSize=1.7232mm|CornerRadius=0.4816mm|HoleSize=0mm|Usage=FLASHONLY|Rotation=180.000|XOffset=0mm|YOffset=0mm|HoleType=Round|Shape=RoundedRectangle|*
%AMROUNDEDRECTD48*
21,1,1.7232,0.7600,0,0,180.0*
21,1,0.7600,1.7232,0,0,180.0*
1,1,0.9632,-0.3800,0.3800*
1,1,0.9632,0.3800,0.3800*
1,1,0.9632,0.3800,-0.3800*
1,1,0.9632,-0.3800,-0.3800*
%
%ADD48ROUNDEDRECTD48*%
G04:AMPARAMS|DCode=49|XSize=1.8032mm|YSize=1.8032mm|CornerRadius=0.5016mm|HoleSize=0mm|Usage=FLASHONLY|Rotation=0.000|XOffset=0mm|YOffset=0mm|HoleType=Round|Shape=RoundedRectangle|*
%AMROUNDEDRECTD49*
21,1,1.8032,0.8000,0,0,0.0*
21,1,0.8000,1.8032,0,0,0.0*
1,1,1.0032,0.4000,-0.4000*
1,1,1.0032,-0.4000,-0.4000*
1,1,1.0032,-0.4000,0.4000*
1,1,1.0032,0.4000,0.4000*
%
%ADD49ROUNDEDRECTD49*%
%ADD50C,0.2000*%
%ADD51C,1.3232*%
%ADD52C,1.8032*%
G04:AMPARAMS|DCode=53|XSize=1.8032mm|YSize=1.8032mm|CornerRadius=0.5016mm|HoleSize=0mm|Usage=FLASHONLY|Rotation=90.000|XOffset=0mm|YOffset=0mm|HoleType=Round|Shape=RoundedRectangle|*
%AMROUNDEDRECTD53*
21,1,1.8032,0.8000,0,0,90.0*
21,1,0.8000,1.8032,0,0,90.0*
1,1,1.0032,0.4000,0.4000*
1,1,1.0032,0.4000,-0.4000*
1,1,1.0032,-0.4000,-0.4000*
1,1,1.0032,-0.4000,0.4000*
%
%ADD53ROUNDEDRECTD53*%
%ADD54C,0.6200*%
%ADD55C,0.7016*%
D47*
X17900Y300000D02*
D03*
X43300D02*
D03*
X68700D02*
D03*
X94100D02*
D03*
X119500D02*
D03*
X144900D02*
D03*
X170300D02*
D03*
X246500D02*
D03*
X271900D02*
D03*
X297300D02*
D03*
X348100D02*
D03*
X398900D02*
D03*
X424300D02*
D03*
X475100D02*
D03*
X500500D02*
D03*
X525900D02*
D03*
X576700D02*
D03*
X551300D02*
D03*
X449700D02*
D03*
X373500D02*
D03*
X322700D02*
D03*
X221100D02*
D03*
X195700D02*
D03*
X17900Y147600D02*
D03*
X43300D02*
D03*
X68700D02*
D03*
X94100D02*
D03*
X119500D02*
D03*
X144900D02*
D03*
X170300D02*
D03*
X246500D02*
D03*
X271900D02*
D03*
X297300D02*
D03*
X348100D02*
D03*
X398900D02*
D03*
X424300D02*
D03*
X475100D02*
D03*
X500500D02*
D03*
X525900D02*
D03*
X576700D02*
D03*
X551300D02*
D03*
X449700D02*
D03*
X373500D02*
D03*
X322700D02*
D03*
X221100D02*
D03*
X195700D02*
D03*
D48*
X602100Y300000D02*
D03*
Y147600D02*
D03*
D49*
X556750Y46500D02*
D03*
Y518500D02*
D03*
X354350Y46000D02*
D03*
X466950Y45750D02*
D03*
X208450Y47508D02*
D03*
X121200Y46757D02*
D03*
X602100Y97600D02*
D03*
Y350000D02*
D03*
D50*
X760000Y30000D02*
D03*
Y530000D02*
D03*
X30000D02*
D03*
Y30000D02*
D03*
D51*
X757253Y147000D02*
D03*
X731852Y172400D02*
D03*
X706452Y147000D02*
D03*
X710200Y351015D02*
D03*
X684800Y325615D02*
D03*
X710200Y300215D02*
D03*
D52*
X328950Y46000D02*
D03*
X303550D02*
D03*
X278150D02*
D03*
X441550Y45750D02*
D03*
X416150D02*
D03*
X390750D02*
D03*
X183050Y47508D02*
D03*
X95800Y46757D02*
D03*
X222993Y420950D02*
D03*
X20750Y424200D02*
D03*
X17900Y97600D02*
D03*
X43300D02*
D03*
X68700D02*
D03*
X94100D02*
D03*
X119500D02*
D03*
X246500D02*
D03*
X322700D02*
D03*
X348100D02*
D03*
X373500D02*
D03*
X424300D02*
D03*
X449700D02*
D03*
X500500D02*
D03*
X551300D02*
D03*
X576700D02*
D03*
X525900D02*
D03*
X475100D02*
D03*
X398900D02*
D03*
X297300D02*
D03*
X271900D02*
D03*
X221100D02*
D03*
X195700D02*
D03*
X170300D02*
D03*
X144900D02*
D03*
X17900Y350000D02*
D03*
X43300D02*
D03*
X68700D02*
D03*
X94100D02*
D03*
X119500D02*
D03*
X246500D02*
D03*
X322700D02*
D03*
X348100D02*
D03*
X373500D02*
D03*
X424300D02*
D03*
X449700D02*
D03*
X500500D02*
D03*
X551300D02*
D03*
X576700D02*
D03*
X525900D02*
D03*
X475100D02*
D03*
X398900D02*
D03*
X297300D02*
D03*
X271900D02*
D03*
X221100D02*
D03*
X195700D02*
D03*
X170300D02*
D03*
X144900D02*
D03*
D53*
X222993Y395550D02*
D03*
X20750Y398800D02*
D03*
D54*
X248000Y426500D02*
D03*
D55*
X684600Y219500D02*
D03*
X656350Y219750D02*
D03*
X781250Y448000D02*
D03*
X784250Y343500D02*
D03*
X785000Y245500D02*
D03*
X784750Y139000D02*
D03*
X782500Y62500D02*
D03*
X728500Y50750D02*
D03*
X706500Y8500D02*
D03*
X664000Y64000D02*
D03*
X624750Y119750D02*
D03*
X651000Y146500D02*
D03*
X661750Y254250D02*
D03*
X711500Y451000D02*
D03*
X609250Y448000D02*
D03*
X705750Y514250D02*
D03*
X606250Y512000D02*
D03*
X455750Y380750D02*
D03*
X454750Y412000D02*
D03*
X287250Y118750D02*
D03*
X224250Y34500D02*
D03*
X149250Y26750D02*
D03*
X240500Y4000D02*
D03*
X149750Y4250D02*
D03*
X76000Y11000D02*
D03*
X26500Y120750D02*
D03*
X9500Y195000D02*
D03*
Y225000D02*
D03*
X164500Y194250D02*
D03*
X164250Y227250D02*
D03*
X18750Y253750D02*
D03*
X97500Y451250D02*
D03*
X617750Y234750D02*
D03*
X724500Y237250D02*
D03*
X692000Y180250D02*
D03*
X726250Y64500D02*
D03*
X55250Y274500D02*
D03*
M02*
