G04*
G04 #@! TF.GenerationSoftware,Altium Limited,Altium Designer,21.6.4 (81)*
G04*
G04 Layer_Physical_Order=2*
G04 Layer_Color=16711680*
%FSLAX44Y44*%
%MOMM*%
G71*
G04*
G04 #@! TF.SameCoordinates,DF600929-9F7D-4707-823E-D0FB3E8D8E71*
G04*
G04*
G04 #@! TF.FilePolarity,Positive*
G04*
G01*
G75*
%ADD56C,0.3000*%
%ADD58C,0.5000*%
%ADD62C,1.5200*%
G04:AMPARAMS|DCode=63|XSize=1.52mm|YSize=1.52mm|CornerRadius=0.38mm|HoleSize=0mm|Usage=FLASHONLY|Rotation=180.000|XOffset=0mm|YOffset=0mm|HoleType=Round|Shape=RoundedRectangle|*
%AMROUNDEDRECTD63*
21,1,1.5200,0.7600,0,0,180.0*
21,1,0.7600,1.5200,0,0,180.0*
1,1,0.7600,-0.3800,0.3800*
1,1,0.7600,0.3800,0.3800*
1,1,0.7600,0.3800,-0.3800*
1,1,0.7600,-0.3800,-0.3800*
%
%ADD63ROUNDEDRECTD63*%
G04:AMPARAMS|DCode=64|XSize=1.6mm|YSize=1.6mm|CornerRadius=0.4mm|HoleSize=0mm|Usage=FLASHONLY|Rotation=0.000|XOffset=0mm|YOffset=0mm|HoleType=Round|Shape=RoundedRectangle|*
%AMROUNDEDRECTD64*
21,1,1.6000,0.8000,0,0,0.0*
21,1,0.8000,1.6000,0,0,0.0*
1,1,0.8000,0.4000,-0.4000*
1,1,0.8000,-0.4000,-0.4000*
1,1,0.8000,-0.4000,0.4000*
1,1,0.8000,0.4000,0.4000*
%
%ADD64ROUNDEDRECTD64*%
%ADD65C,1.1200*%
%ADD66C,1.6000*%
G04:AMPARAMS|DCode=67|XSize=1.6mm|YSize=1.6mm|CornerRadius=0.4mm|HoleSize=0mm|Usage=FLASHONLY|Rotation=90.000|XOffset=0mm|YOffset=0mm|HoleType=Round|Shape=RoundedRectangle|*
%AMROUNDEDRECTD67*
21,1,1.6000,0.8000,0,0,90.0*
21,1,0.8000,1.6000,0,0,90.0*
1,1,0.8000,0.4000,0.4000*
1,1,0.8000,0.4000,-0.4000*
1,1,0.8000,-0.4000,-0.4000*
1,1,0.8000,-0.4000,0.4000*
%
%ADD67ROUNDEDRECTD67*%
%ADD68C,0.6000*%
G36*
X748852Y558980D02*
X745865Y557742D01*
X741699Y555190D01*
X737983Y552016D01*
X734810Y548301D01*
X732258Y544135D01*
X730388Y539622D01*
X729247Y534871D01*
X728864Y530000D01*
X729247Y525129D01*
X730388Y520378D01*
X732258Y515865D01*
X734810Y511699D01*
X737983Y507984D01*
X741699Y504810D01*
X745865Y502258D01*
X750378Y500388D01*
X755129Y499247D01*
X760000Y498864D01*
X764871Y499247D01*
X769622Y500388D01*
X774135Y502258D01*
X778301Y504810D01*
X782017Y507984D01*
X785190Y511699D01*
X787742Y515865D01*
X788480Y517645D01*
X789750Y517393D01*
Y42607D01*
X788480Y42355D01*
X787742Y44135D01*
X785190Y48301D01*
X782017Y52017D01*
X778301Y55189D01*
X774135Y57742D01*
X769622Y59612D01*
X764871Y60753D01*
X760000Y61136D01*
X755129Y60753D01*
X750378Y59612D01*
X745865Y57742D01*
X741699Y55189D01*
X737983Y52017D01*
X734810Y48301D01*
X732258Y44135D01*
X730388Y39622D01*
X729247Y34871D01*
X728864Y30000D01*
X729247Y25129D01*
X730388Y20378D01*
X732258Y15865D01*
X734810Y11699D01*
X737983Y7983D01*
X741699Y4811D01*
X745865Y2258D01*
X748249Y1270D01*
X747996Y0D01*
X42004D01*
X41751Y1270D01*
X44135Y2258D01*
X48301Y4811D01*
X52017Y7983D01*
X55189Y11699D01*
X57742Y15865D01*
X59612Y20378D01*
X60753Y25129D01*
X61136Y30000D01*
X60753Y34871D01*
X59612Y39622D01*
X57742Y44135D01*
X55189Y48301D01*
X52017Y52017D01*
X48301Y55189D01*
X44135Y57742D01*
X39622Y59612D01*
X34871Y60753D01*
X30000Y61136D01*
X25129Y60753D01*
X20378Y59612D01*
X15865Y57742D01*
X11699Y55189D01*
X7983Y52017D01*
X4811Y48301D01*
X2258Y44135D01*
X1270Y41751D01*
X0Y42004D01*
Y291080D01*
X1083Y291478D01*
X1270Y291487D01*
X21891Y270866D01*
X23558Y269752D01*
X25524Y269361D01*
X53179D01*
X54148Y268960D01*
X56352D01*
X58388Y269803D01*
X59947Y271362D01*
X60790Y273398D01*
Y275602D01*
X59947Y277638D01*
X58388Y279197D01*
X56352Y280040D01*
X54148D01*
X53179Y279639D01*
X27653D01*
X18605Y288687D01*
X19091Y289860D01*
X19235D01*
X21814Y290551D01*
X24126Y291886D01*
X26014Y293774D01*
X27349Y296086D01*
X28040Y298665D01*
Y301335D01*
X27349Y303914D01*
X26014Y306226D01*
X24126Y308114D01*
X21814Y309449D01*
X19235Y310140D01*
X16565D01*
X13986Y309449D01*
X11674Y308114D01*
X11172Y307612D01*
X9999Y308098D01*
Y341336D01*
X11172Y341822D01*
X11428Y341566D01*
X13832Y340178D01*
X16512Y339460D01*
X19288D01*
X21968Y340178D01*
X24372Y341566D01*
X26334Y343528D01*
X27722Y345932D01*
X28440Y348612D01*
Y351388D01*
X27722Y354068D01*
X26334Y356472D01*
X24372Y358434D01*
X21968Y359822D01*
X19288Y360540D01*
X16512D01*
X13832Y359822D01*
X11428Y358434D01*
X11172Y358178D01*
X9999Y358664D01*
Y378481D01*
X11344Y379826D01*
X12458Y381493D01*
X12849Y383460D01*
Y404416D01*
X20731Y412299D01*
X21641Y413660D01*
X22138D01*
X24818Y414378D01*
X27222Y415766D01*
X29184Y417728D01*
X30572Y420132D01*
X31290Y422812D01*
Y425588D01*
X30572Y428268D01*
X29184Y430672D01*
X27222Y432634D01*
X24818Y434022D01*
X22138Y434740D01*
X19362D01*
X16682Y434022D01*
X14278Y432634D01*
X12316Y430672D01*
X10928Y428268D01*
X10210Y425588D01*
Y422812D01*
X10928Y420132D01*
X12064Y418165D01*
X4076Y410178D01*
X2962Y408511D01*
X2571Y406544D01*
Y385588D01*
X1270Y384287D01*
X1083Y384296D01*
X0Y384694D01*
Y517996D01*
X1270Y518249D01*
X2258Y515865D01*
X4811Y511699D01*
X7983Y507984D01*
X11699Y504810D01*
X15865Y502258D01*
X20378Y500388D01*
X25129Y499247D01*
X30000Y498864D01*
X34871Y499247D01*
X39622Y500388D01*
X44135Y502258D01*
X48301Y504810D01*
X52017Y507984D01*
X55189Y511699D01*
X57742Y515865D01*
X59612Y520378D01*
X60753Y525129D01*
X61136Y530000D01*
X60753Y534871D01*
X59612Y539622D01*
X57742Y544135D01*
X55189Y548301D01*
X52017Y552016D01*
X48301Y555190D01*
X44135Y557742D01*
X41147Y558980D01*
X41400Y560250D01*
X748600D01*
X748852Y558980D01*
D02*
G37*
%LPC*%
G36*
X560750Y529096D02*
X552750D01*
X551043Y528872D01*
X549452Y528213D01*
X548086Y527164D01*
X547037Y525798D01*
X546378Y524207D01*
X546154Y522500D01*
Y514500D01*
X546378Y512793D01*
X547037Y511202D01*
X548086Y509836D01*
X549452Y508787D01*
X551043Y508128D01*
X552750Y507904D01*
X560750D01*
X562457Y508128D01*
X564048Y508787D01*
X565414Y509836D01*
X566463Y511202D01*
X567122Y512793D01*
X567346Y514500D01*
Y522500D01*
X567122Y524207D01*
X566463Y525798D01*
X565414Y527164D01*
X564048Y528213D01*
X562457Y528872D01*
X560750Y529096D01*
D02*
G37*
G36*
X224380Y431490D02*
X221605D01*
X218924Y430772D01*
X216521Y429384D01*
X214559Y427422D01*
X213171Y425018D01*
X212453Y422338D01*
Y419562D01*
X213171Y416882D01*
X214559Y414478D01*
X216521Y412516D01*
X218924Y411128D01*
X221605Y410410D01*
X224380D01*
X227061Y411128D01*
X229464Y412516D01*
X231427Y414478D01*
X232814Y416882D01*
X233533Y419562D01*
Y422338D01*
X232814Y425018D01*
X231427Y427422D01*
X229464Y429384D01*
X227061Y430772D01*
X224380Y431490D01*
D02*
G37*
G36*
X226993Y406146D02*
X218993D01*
X217285Y405922D01*
X215694Y405263D01*
X214328Y404214D01*
X213280Y402848D01*
X212621Y401257D01*
X212396Y399550D01*
Y391550D01*
X212621Y389843D01*
X213280Y388252D01*
X214328Y386886D01*
X215694Y385837D01*
X217285Y385178D01*
X218993Y384954D01*
X226993D01*
X228700Y385178D01*
X230291Y385837D01*
X231657Y386886D01*
X232705Y388252D01*
X233364Y389843D01*
X233589Y391550D01*
Y399550D01*
X233364Y401257D01*
X232705Y402848D01*
X231657Y404214D01*
X230291Y405263D01*
X228700Y405922D01*
X226993Y406146D01*
D02*
G37*
G36*
X711272Y359155D02*
X709128D01*
X707058Y358600D01*
X705202Y357529D01*
X703686Y356013D01*
X702615Y354157D01*
X702060Y352087D01*
Y349943D01*
X702615Y347873D01*
X703686Y346017D01*
X705202Y344501D01*
X707058Y343430D01*
X709128Y342875D01*
X711272D01*
X713342Y343430D01*
X715198Y344501D01*
X716714Y346017D01*
X717785Y347873D01*
X718340Y349943D01*
Y352087D01*
X717785Y354157D01*
X716714Y356013D01*
X715198Y357529D01*
X713342Y358600D01*
X711272Y359155D01*
D02*
G37*
G36*
X98602Y456790D02*
X96398D01*
X94362Y455947D01*
X92803Y454388D01*
X91960Y452352D01*
Y450148D01*
X92803Y448112D01*
X94362Y446553D01*
X96398Y445710D01*
X98602D01*
X100638Y446553D01*
X101216Y447131D01*
X473744D01*
X566863Y354012D01*
X566160Y351388D01*
Y348612D01*
X566878Y345932D01*
X568266Y343528D01*
X570228Y341566D01*
X572632Y340178D01*
X575312Y339460D01*
X578088D01*
X580768Y340178D01*
X583172Y341566D01*
X585134Y343528D01*
X586522Y345932D01*
X587240Y348612D01*
Y351388D01*
X586522Y354068D01*
X585134Y356472D01*
X583172Y358434D01*
X580768Y359822D01*
X578088Y360540D01*
X575312D01*
X572688Y359837D01*
X478363Y454163D01*
X477026Y455056D01*
X475450Y455369D01*
X101216D01*
X100638Y455947D01*
X98602Y456790D01*
D02*
G37*
G36*
X552688Y360540D02*
X549912D01*
X547232Y359822D01*
X544828Y358434D01*
X542866Y356472D01*
X541478Y354068D01*
X540760Y351388D01*
Y348612D01*
X541478Y345932D01*
X542866Y343528D01*
X544828Y341566D01*
X547232Y340178D01*
X549912Y339460D01*
X552688D01*
X555368Y340178D01*
X557772Y341566D01*
X559734Y343528D01*
X561122Y345932D01*
X561840Y348612D01*
Y351388D01*
X561122Y354068D01*
X559734Y356472D01*
X557772Y358434D01*
X555368Y359822D01*
X552688Y360540D01*
D02*
G37*
G36*
X527288D02*
X524512D01*
X521832Y359822D01*
X519428Y358434D01*
X517466Y356472D01*
X516078Y354068D01*
X515360Y351388D01*
Y348612D01*
X516078Y345932D01*
X517466Y343528D01*
X519428Y341566D01*
X521832Y340178D01*
X524512Y339460D01*
X527288D01*
X529968Y340178D01*
X532372Y341566D01*
X534334Y343528D01*
X535722Y345932D01*
X536440Y348612D01*
Y351388D01*
X535722Y354068D01*
X534334Y356472D01*
X532372Y358434D01*
X529968Y359822D01*
X527288Y360540D01*
D02*
G37*
G36*
X501888D02*
X499112D01*
X496432Y359822D01*
X494028Y358434D01*
X492066Y356472D01*
X490678Y354068D01*
X489960Y351388D01*
Y348612D01*
X490678Y345932D01*
X492066Y343528D01*
X494028Y341566D01*
X496432Y340178D01*
X499112Y339460D01*
X501888D01*
X504568Y340178D01*
X506972Y341566D01*
X508934Y343528D01*
X510322Y345932D01*
X511040Y348612D01*
Y351388D01*
X510322Y354068D01*
X508934Y356472D01*
X506972Y358434D01*
X504568Y359822D01*
X501888Y360540D01*
D02*
G37*
G36*
X476488D02*
X473712D01*
X471032Y359822D01*
X468628Y358434D01*
X466666Y356472D01*
X465278Y354068D01*
X464560Y351388D01*
Y348612D01*
X465278Y345932D01*
X466666Y343528D01*
X468628Y341566D01*
X471032Y340178D01*
X473712Y339460D01*
X476488D01*
X479168Y340178D01*
X481572Y341566D01*
X483534Y343528D01*
X484922Y345932D01*
X485640Y348612D01*
Y351388D01*
X484922Y354068D01*
X483534Y356472D01*
X481572Y358434D01*
X479168Y359822D01*
X476488Y360540D01*
D02*
G37*
G36*
X451088D02*
X448312D01*
X445632Y359822D01*
X443228Y358434D01*
X441266Y356472D01*
X439878Y354068D01*
X439160Y351388D01*
Y348612D01*
X439878Y345932D01*
X441266Y343528D01*
X443228Y341566D01*
X445632Y340178D01*
X448312Y339460D01*
X451088D01*
X453768Y340178D01*
X456172Y341566D01*
X458134Y343528D01*
X459522Y345932D01*
X460240Y348612D01*
Y351388D01*
X459522Y354068D01*
X458134Y356472D01*
X456172Y358434D01*
X453768Y359822D01*
X451088Y360540D01*
D02*
G37*
G36*
X425688D02*
X422912D01*
X420232Y359822D01*
X417828Y358434D01*
X415866Y356472D01*
X414478Y354068D01*
X413760Y351388D01*
Y348612D01*
X414478Y345932D01*
X415866Y343528D01*
X417828Y341566D01*
X420232Y340178D01*
X422912Y339460D01*
X425688D01*
X428368Y340178D01*
X430772Y341566D01*
X432734Y343528D01*
X434122Y345932D01*
X434840Y348612D01*
Y351388D01*
X434122Y354068D01*
X432734Y356472D01*
X430772Y358434D01*
X428368Y359822D01*
X425688Y360540D01*
D02*
G37*
G36*
X400288D02*
X397512D01*
X394832Y359822D01*
X392428Y358434D01*
X390466Y356472D01*
X389078Y354068D01*
X388360Y351388D01*
Y348612D01*
X389078Y345932D01*
X390466Y343528D01*
X392428Y341566D01*
X394832Y340178D01*
X397512Y339460D01*
X400288D01*
X402968Y340178D01*
X405372Y341566D01*
X407334Y343528D01*
X408722Y345932D01*
X409440Y348612D01*
Y351388D01*
X408722Y354068D01*
X407334Y356472D01*
X405372Y358434D01*
X402968Y359822D01*
X400288Y360540D01*
D02*
G37*
G36*
X374888D02*
X372112D01*
X369432Y359822D01*
X367028Y358434D01*
X365066Y356472D01*
X363678Y354068D01*
X362960Y351388D01*
Y348612D01*
X363678Y345932D01*
X365066Y343528D01*
X367028Y341566D01*
X369432Y340178D01*
X372112Y339460D01*
X374888D01*
X377568Y340178D01*
X379972Y341566D01*
X381934Y343528D01*
X383322Y345932D01*
X384040Y348612D01*
Y351388D01*
X383322Y354068D01*
X381934Y356472D01*
X379972Y358434D01*
X377568Y359822D01*
X374888Y360540D01*
D02*
G37*
G36*
X349488D02*
X346712D01*
X344032Y359822D01*
X341628Y358434D01*
X339666Y356472D01*
X338278Y354068D01*
X337560Y351388D01*
Y348612D01*
X338278Y345932D01*
X339666Y343528D01*
X341628Y341566D01*
X344032Y340178D01*
X346712Y339460D01*
X349488D01*
X352168Y340178D01*
X354572Y341566D01*
X356534Y343528D01*
X357922Y345932D01*
X358640Y348612D01*
Y351388D01*
X357922Y354068D01*
X356534Y356472D01*
X354572Y358434D01*
X352168Y359822D01*
X349488Y360540D01*
D02*
G37*
G36*
X324088D02*
X321312D01*
X318632Y359822D01*
X316228Y358434D01*
X314266Y356472D01*
X312878Y354068D01*
X312160Y351388D01*
Y348612D01*
X312878Y345932D01*
X314266Y343528D01*
X316228Y341566D01*
X318632Y340178D01*
X321312Y339460D01*
X324088D01*
X326768Y340178D01*
X329172Y341566D01*
X331134Y343528D01*
X332522Y345932D01*
X333240Y348612D01*
Y351388D01*
X332522Y354068D01*
X331134Y356472D01*
X329172Y358434D01*
X326768Y359822D01*
X324088Y360540D01*
D02*
G37*
G36*
X298688D02*
X295912D01*
X293232Y359822D01*
X290828Y358434D01*
X288866Y356472D01*
X287478Y354068D01*
X286760Y351388D01*
Y348612D01*
X287478Y345932D01*
X288866Y343528D01*
X290828Y341566D01*
X293232Y340178D01*
X295912Y339460D01*
X298688D01*
X301368Y340178D01*
X303772Y341566D01*
X305734Y343528D01*
X307122Y345932D01*
X307840Y348612D01*
Y351388D01*
X307122Y354068D01*
X305734Y356472D01*
X303772Y358434D01*
X301368Y359822D01*
X298688Y360540D01*
D02*
G37*
G36*
X273288D02*
X270512D01*
X267832Y359822D01*
X265428Y358434D01*
X263466Y356472D01*
X262078Y354068D01*
X261360Y351388D01*
Y348612D01*
X262078Y345932D01*
X263466Y343528D01*
X265428Y341566D01*
X267832Y340178D01*
X270512Y339460D01*
X273288D01*
X275968Y340178D01*
X278372Y341566D01*
X280334Y343528D01*
X281722Y345932D01*
X282440Y348612D01*
Y351388D01*
X281722Y354068D01*
X280334Y356472D01*
X278372Y358434D01*
X275968Y359822D01*
X273288Y360540D01*
D02*
G37*
G36*
X247888D02*
X245112D01*
X242432Y359822D01*
X240028Y358434D01*
X238066Y356472D01*
X236678Y354068D01*
X235960Y351388D01*
Y348612D01*
X236678Y345932D01*
X238066Y343528D01*
X240028Y341566D01*
X242432Y340178D01*
X245112Y339460D01*
X247888D01*
X250568Y340178D01*
X252972Y341566D01*
X254934Y343528D01*
X256322Y345932D01*
X257040Y348612D01*
Y351388D01*
X256322Y354068D01*
X254934Y356472D01*
X252972Y358434D01*
X250568Y359822D01*
X247888Y360540D01*
D02*
G37*
G36*
X222488D02*
X219712D01*
X217032Y359822D01*
X214628Y358434D01*
X212666Y356472D01*
X211278Y354068D01*
X210560Y351388D01*
Y348612D01*
X211278Y345932D01*
X212666Y343528D01*
X214628Y341566D01*
X217032Y340178D01*
X219712Y339460D01*
X222488D01*
X225168Y340178D01*
X227572Y341566D01*
X229534Y343528D01*
X230922Y345932D01*
X231640Y348612D01*
Y351388D01*
X230922Y354068D01*
X229534Y356472D01*
X227572Y358434D01*
X225168Y359822D01*
X222488Y360540D01*
D02*
G37*
G36*
X197088D02*
X194312D01*
X191632Y359822D01*
X189228Y358434D01*
X187266Y356472D01*
X185878Y354068D01*
X185160Y351388D01*
Y348612D01*
X185878Y345932D01*
X187266Y343528D01*
X189228Y341566D01*
X191632Y340178D01*
X194312Y339460D01*
X197088D01*
X199768Y340178D01*
X202172Y341566D01*
X204134Y343528D01*
X205522Y345932D01*
X206240Y348612D01*
Y351388D01*
X205522Y354068D01*
X204134Y356472D01*
X202172Y358434D01*
X199768Y359822D01*
X197088Y360540D01*
D02*
G37*
G36*
X171688D02*
X168912D01*
X166232Y359822D01*
X163828Y358434D01*
X161866Y356472D01*
X160478Y354068D01*
X159760Y351388D01*
Y348612D01*
X160478Y345932D01*
X161866Y343528D01*
X163828Y341566D01*
X166232Y340178D01*
X168912Y339460D01*
X171688D01*
X174368Y340178D01*
X176772Y341566D01*
X178734Y343528D01*
X180122Y345932D01*
X180840Y348612D01*
Y351388D01*
X180122Y354068D01*
X178734Y356472D01*
X176772Y358434D01*
X174368Y359822D01*
X171688Y360540D01*
D02*
G37*
G36*
X146288D02*
X143512D01*
X140832Y359822D01*
X138428Y358434D01*
X136466Y356472D01*
X135078Y354068D01*
X134360Y351388D01*
Y348612D01*
X135078Y345932D01*
X136466Y343528D01*
X138428Y341566D01*
X140832Y340178D01*
X143512Y339460D01*
X146288D01*
X148968Y340178D01*
X151372Y341566D01*
X153334Y343528D01*
X154722Y345932D01*
X155440Y348612D01*
Y351388D01*
X154722Y354068D01*
X153334Y356472D01*
X151372Y358434D01*
X148968Y359822D01*
X146288Y360540D01*
D02*
G37*
G36*
X120888D02*
X118112D01*
X115432Y359822D01*
X113028Y358434D01*
X111066Y356472D01*
X109678Y354068D01*
X108960Y351388D01*
Y348612D01*
X109678Y345932D01*
X111066Y343528D01*
X113028Y341566D01*
X115432Y340178D01*
X118112Y339460D01*
X120888D01*
X123568Y340178D01*
X125972Y341566D01*
X127934Y343528D01*
X129322Y345932D01*
X130040Y348612D01*
Y351388D01*
X129322Y354068D01*
X127934Y356472D01*
X125972Y358434D01*
X123568Y359822D01*
X120888Y360540D01*
D02*
G37*
G36*
X95488D02*
X92712D01*
X90032Y359822D01*
X87628Y358434D01*
X85666Y356472D01*
X84278Y354068D01*
X83560Y351388D01*
Y348612D01*
X84278Y345932D01*
X85666Y343528D01*
X87628Y341566D01*
X90032Y340178D01*
X92712Y339460D01*
X95488D01*
X98168Y340178D01*
X100572Y341566D01*
X102534Y343528D01*
X103922Y345932D01*
X104640Y348612D01*
Y351388D01*
X103922Y354068D01*
X102534Y356472D01*
X100572Y358434D01*
X98168Y359822D01*
X95488Y360540D01*
D02*
G37*
G36*
X70088D02*
X67312D01*
X64632Y359822D01*
X62228Y358434D01*
X60266Y356472D01*
X58878Y354068D01*
X58160Y351388D01*
Y348612D01*
X58878Y345932D01*
X60266Y343528D01*
X62228Y341566D01*
X64632Y340178D01*
X67312Y339460D01*
X70088D01*
X72768Y340178D01*
X75172Y341566D01*
X77134Y343528D01*
X78522Y345932D01*
X79240Y348612D01*
Y351388D01*
X78522Y354068D01*
X77134Y356472D01*
X75172Y358434D01*
X72768Y359822D01*
X70088Y360540D01*
D02*
G37*
G36*
X44688D02*
X41912D01*
X39232Y359822D01*
X36828Y358434D01*
X34866Y356472D01*
X33478Y354068D01*
X32760Y351388D01*
Y348612D01*
X33478Y345932D01*
X34866Y343528D01*
X36828Y341566D01*
X39232Y340178D01*
X41912Y339460D01*
X44688D01*
X47368Y340178D01*
X49772Y341566D01*
X51734Y343528D01*
X53122Y345932D01*
X53840Y348612D01*
Y351388D01*
X53122Y354068D01*
X51734Y356472D01*
X49772Y358434D01*
X47368Y359822D01*
X44688Y360540D01*
D02*
G37*
G36*
X606100Y360596D02*
X598100D01*
X596393Y360372D01*
X594802Y359713D01*
X593436Y358664D01*
X592387Y357298D01*
X591728Y355707D01*
X591504Y354000D01*
Y346000D01*
X591728Y344293D01*
X592387Y342702D01*
X593436Y341336D01*
X594802Y340287D01*
X596393Y339628D01*
X598100Y339404D01*
X606100D01*
X607807Y339628D01*
X609398Y340287D01*
X610764Y341336D01*
X611813Y342702D01*
X612472Y344293D01*
X612696Y346000D01*
Y354000D01*
X612472Y355707D01*
X611813Y357298D01*
X610764Y358664D01*
X609398Y359713D01*
X607807Y360372D01*
X606100Y360596D01*
D02*
G37*
G36*
X711272Y308355D02*
X709128D01*
X707058Y307800D01*
X705202Y306729D01*
X703686Y305213D01*
X702615Y303357D01*
X702060Y301287D01*
Y299143D01*
X702615Y297073D01*
X703686Y295217D01*
X705202Y293701D01*
X707058Y292630D01*
X709128Y292075D01*
X711272D01*
X713342Y292630D01*
X715198Y293701D01*
X716714Y295217D01*
X717785Y297073D01*
X718340Y299143D01*
Y301287D01*
X717785Y303357D01*
X716714Y305213D01*
X715198Y306729D01*
X713342Y307800D01*
X711272Y308355D01*
D02*
G37*
G36*
X578035Y310140D02*
X575365D01*
X572786Y309449D01*
X570474Y308114D01*
X568586Y306226D01*
X567251Y303914D01*
X566560Y301335D01*
Y298665D01*
X567251Y296086D01*
X568586Y293774D01*
X570474Y291886D01*
X572786Y290551D01*
X575365Y289860D01*
X578035D01*
X580614Y290551D01*
X582926Y291886D01*
X584814Y293774D01*
X586149Y296086D01*
X586840Y298665D01*
Y301335D01*
X586149Y303914D01*
X584814Y306226D01*
X582926Y308114D01*
X580614Y309449D01*
X578035Y310140D01*
D02*
G37*
G36*
X552635D02*
X549965D01*
X547386Y309449D01*
X545074Y308114D01*
X543186Y306226D01*
X541851Y303914D01*
X541160Y301335D01*
Y298665D01*
X541851Y296086D01*
X543186Y293774D01*
X545074Y291886D01*
X547386Y290551D01*
X549965Y289860D01*
X552635D01*
X555214Y290551D01*
X557526Y291886D01*
X559414Y293774D01*
X560749Y296086D01*
X561440Y298665D01*
Y301335D01*
X560749Y303914D01*
X559414Y306226D01*
X557526Y308114D01*
X555214Y309449D01*
X552635Y310140D01*
D02*
G37*
G36*
X527235D02*
X524565D01*
X521986Y309449D01*
X519674Y308114D01*
X517786Y306226D01*
X516451Y303914D01*
X515760Y301335D01*
Y298665D01*
X516451Y296086D01*
X517786Y293774D01*
X519674Y291886D01*
X521986Y290551D01*
X524565Y289860D01*
X527235D01*
X529814Y290551D01*
X532126Y291886D01*
X534014Y293774D01*
X535349Y296086D01*
X536040Y298665D01*
Y301335D01*
X535349Y303914D01*
X534014Y306226D01*
X532126Y308114D01*
X529814Y309449D01*
X527235Y310140D01*
D02*
G37*
G36*
X501835D02*
X499165D01*
X496586Y309449D01*
X494274Y308114D01*
X492386Y306226D01*
X491051Y303914D01*
X490360Y301335D01*
Y298665D01*
X491051Y296086D01*
X492386Y293774D01*
X494274Y291886D01*
X496586Y290551D01*
X499165Y289860D01*
X501835D01*
X504414Y290551D01*
X506726Y291886D01*
X508614Y293774D01*
X509949Y296086D01*
X510640Y298665D01*
Y301335D01*
X509949Y303914D01*
X508614Y306226D01*
X506726Y308114D01*
X504414Y309449D01*
X501835Y310140D01*
D02*
G37*
G36*
X476435D02*
X473765D01*
X471186Y309449D01*
X468874Y308114D01*
X466986Y306226D01*
X465651Y303914D01*
X464960Y301335D01*
Y298665D01*
X465651Y296086D01*
X466986Y293774D01*
X468874Y291886D01*
X471186Y290551D01*
X473765Y289860D01*
X476435D01*
X479014Y290551D01*
X481326Y291886D01*
X483214Y293774D01*
X484549Y296086D01*
X485240Y298665D01*
Y301335D01*
X484549Y303914D01*
X483214Y306226D01*
X481326Y308114D01*
X479014Y309449D01*
X476435Y310140D01*
D02*
G37*
G36*
X451035D02*
X448365D01*
X445786Y309449D01*
X443474Y308114D01*
X441586Y306226D01*
X440251Y303914D01*
X439560Y301335D01*
Y298665D01*
X440251Y296086D01*
X441586Y293774D01*
X443474Y291886D01*
X445786Y290551D01*
X448365Y289860D01*
X451035D01*
X453614Y290551D01*
X455926Y291886D01*
X457814Y293774D01*
X459149Y296086D01*
X459840Y298665D01*
Y301335D01*
X459149Y303914D01*
X457814Y306226D01*
X455926Y308114D01*
X453614Y309449D01*
X451035Y310140D01*
D02*
G37*
G36*
X425635D02*
X422965D01*
X420386Y309449D01*
X418074Y308114D01*
X416186Y306226D01*
X414851Y303914D01*
X414160Y301335D01*
Y298665D01*
X414851Y296086D01*
X416186Y293774D01*
X418074Y291886D01*
X420386Y290551D01*
X422965Y289860D01*
X425635D01*
X428214Y290551D01*
X430526Y291886D01*
X432414Y293774D01*
X433749Y296086D01*
X434440Y298665D01*
Y301335D01*
X433749Y303914D01*
X432414Y306226D01*
X430526Y308114D01*
X428214Y309449D01*
X425635Y310140D01*
D02*
G37*
G36*
X400235D02*
X397565D01*
X394986Y309449D01*
X392674Y308114D01*
X390786Y306226D01*
X389451Y303914D01*
X388760Y301335D01*
Y298665D01*
X389451Y296086D01*
X390786Y293774D01*
X392674Y291886D01*
X394986Y290551D01*
X397565Y289860D01*
X400235D01*
X402814Y290551D01*
X405126Y291886D01*
X407014Y293774D01*
X408349Y296086D01*
X409040Y298665D01*
Y301335D01*
X408349Y303914D01*
X407014Y306226D01*
X405126Y308114D01*
X402814Y309449D01*
X400235Y310140D01*
D02*
G37*
G36*
X374835D02*
X372165D01*
X369586Y309449D01*
X367274Y308114D01*
X365386Y306226D01*
X364051Y303914D01*
X363360Y301335D01*
Y298665D01*
X364051Y296086D01*
X365386Y293774D01*
X367274Y291886D01*
X369586Y290551D01*
X372165Y289860D01*
X374835D01*
X377414Y290551D01*
X379726Y291886D01*
X381614Y293774D01*
X382949Y296086D01*
X383640Y298665D01*
Y301335D01*
X382949Y303914D01*
X381614Y306226D01*
X379726Y308114D01*
X377414Y309449D01*
X374835Y310140D01*
D02*
G37*
G36*
X349435D02*
X346765D01*
X344186Y309449D01*
X341874Y308114D01*
X339986Y306226D01*
X338651Y303914D01*
X337960Y301335D01*
Y298665D01*
X338651Y296086D01*
X339986Y293774D01*
X341874Y291886D01*
X344186Y290551D01*
X346765Y289860D01*
X349435D01*
X352014Y290551D01*
X354326Y291886D01*
X356214Y293774D01*
X357549Y296086D01*
X358240Y298665D01*
Y301335D01*
X357549Y303914D01*
X356214Y306226D01*
X354326Y308114D01*
X352014Y309449D01*
X349435Y310140D01*
D02*
G37*
G36*
X324035D02*
X321365D01*
X318786Y309449D01*
X316474Y308114D01*
X314586Y306226D01*
X313251Y303914D01*
X312560Y301335D01*
Y298665D01*
X313251Y296086D01*
X314586Y293774D01*
X316474Y291886D01*
X318786Y290551D01*
X321365Y289860D01*
X324035D01*
X326614Y290551D01*
X328926Y291886D01*
X330814Y293774D01*
X332149Y296086D01*
X332840Y298665D01*
Y301335D01*
X332149Y303914D01*
X330814Y306226D01*
X328926Y308114D01*
X326614Y309449D01*
X324035Y310140D01*
D02*
G37*
G36*
X298635D02*
X295965D01*
X293386Y309449D01*
X291074Y308114D01*
X289186Y306226D01*
X287851Y303914D01*
X287160Y301335D01*
Y298665D01*
X287851Y296086D01*
X289186Y293774D01*
X291074Y291886D01*
X293386Y290551D01*
X295965Y289860D01*
X298635D01*
X301214Y290551D01*
X303526Y291886D01*
X305414Y293774D01*
X306749Y296086D01*
X307440Y298665D01*
Y301335D01*
X306749Y303914D01*
X305414Y306226D01*
X303526Y308114D01*
X301214Y309449D01*
X298635Y310140D01*
D02*
G37*
G36*
X273235D02*
X270565D01*
X267986Y309449D01*
X265674Y308114D01*
X263786Y306226D01*
X262451Y303914D01*
X261760Y301335D01*
Y298665D01*
X262451Y296086D01*
X263786Y293774D01*
X265674Y291886D01*
X267986Y290551D01*
X270565Y289860D01*
X273235D01*
X275814Y290551D01*
X278126Y291886D01*
X280014Y293774D01*
X281349Y296086D01*
X282040Y298665D01*
Y301335D01*
X281349Y303914D01*
X280014Y306226D01*
X278126Y308114D01*
X275814Y309449D01*
X273235Y310140D01*
D02*
G37*
G36*
X247835D02*
X245165D01*
X242586Y309449D01*
X240274Y308114D01*
X238386Y306226D01*
X237051Y303914D01*
X236360Y301335D01*
Y298665D01*
X237051Y296086D01*
X238386Y293774D01*
X240274Y291886D01*
X242586Y290551D01*
X245165Y289860D01*
X247835D01*
X250414Y290551D01*
X252726Y291886D01*
X254614Y293774D01*
X255949Y296086D01*
X256640Y298665D01*
Y301335D01*
X255949Y303914D01*
X254614Y306226D01*
X252726Y308114D01*
X250414Y309449D01*
X247835Y310140D01*
D02*
G37*
G36*
X222435D02*
X219765D01*
X217186Y309449D01*
X214874Y308114D01*
X212986Y306226D01*
X211651Y303914D01*
X210960Y301335D01*
Y298665D01*
X211651Y296086D01*
X212986Y293774D01*
X214874Y291886D01*
X217186Y290551D01*
X219765Y289860D01*
X222435D01*
X225014Y290551D01*
X227326Y291886D01*
X229214Y293774D01*
X230549Y296086D01*
X231240Y298665D01*
Y301335D01*
X230549Y303914D01*
X229214Y306226D01*
X227326Y308114D01*
X225014Y309449D01*
X222435Y310140D01*
D02*
G37*
G36*
X197035D02*
X194365D01*
X191786Y309449D01*
X189474Y308114D01*
X187586Y306226D01*
X186251Y303914D01*
X185560Y301335D01*
Y298665D01*
X186251Y296086D01*
X187586Y293774D01*
X189474Y291886D01*
X191786Y290551D01*
X194365Y289860D01*
X197035D01*
X199614Y290551D01*
X201926Y291886D01*
X203814Y293774D01*
X205149Y296086D01*
X205840Y298665D01*
Y301335D01*
X205149Y303914D01*
X203814Y306226D01*
X201926Y308114D01*
X199614Y309449D01*
X197035Y310140D01*
D02*
G37*
G36*
X171635D02*
X168965D01*
X166386Y309449D01*
X164074Y308114D01*
X162186Y306226D01*
X160851Y303914D01*
X160160Y301335D01*
Y298665D01*
X160851Y296086D01*
X162186Y293774D01*
X164074Y291886D01*
X166386Y290551D01*
X168965Y289860D01*
X171635D01*
X174214Y290551D01*
X176526Y291886D01*
X178414Y293774D01*
X179749Y296086D01*
X180440Y298665D01*
Y301335D01*
X179749Y303914D01*
X178414Y306226D01*
X176526Y308114D01*
X174214Y309449D01*
X171635Y310140D01*
D02*
G37*
G36*
X146235D02*
X143565D01*
X140986Y309449D01*
X138674Y308114D01*
X136786Y306226D01*
X135451Y303914D01*
X134760Y301335D01*
Y298665D01*
X135451Y296086D01*
X136786Y293774D01*
X138674Y291886D01*
X140986Y290551D01*
X143565Y289860D01*
X146235D01*
X148814Y290551D01*
X151126Y291886D01*
X153014Y293774D01*
X154349Y296086D01*
X155040Y298665D01*
Y301335D01*
X154349Y303914D01*
X153014Y306226D01*
X151126Y308114D01*
X148814Y309449D01*
X146235Y310140D01*
D02*
G37*
G36*
X120835D02*
X118165D01*
X115586Y309449D01*
X113274Y308114D01*
X111386Y306226D01*
X110051Y303914D01*
X109360Y301335D01*
Y298665D01*
X110051Y296086D01*
X111386Y293774D01*
X113274Y291886D01*
X115586Y290551D01*
X118165Y289860D01*
X120835D01*
X123414Y290551D01*
X125726Y291886D01*
X127614Y293774D01*
X128949Y296086D01*
X129640Y298665D01*
Y301335D01*
X128949Y303914D01*
X127614Y306226D01*
X125726Y308114D01*
X123414Y309449D01*
X120835Y310140D01*
D02*
G37*
G36*
X95435D02*
X92765D01*
X90186Y309449D01*
X87874Y308114D01*
X85986Y306226D01*
X84651Y303914D01*
X83960Y301335D01*
Y298665D01*
X84651Y296086D01*
X85986Y293774D01*
X87874Y291886D01*
X90186Y290551D01*
X92765Y289860D01*
X95435D01*
X98014Y290551D01*
X100326Y291886D01*
X102214Y293774D01*
X103549Y296086D01*
X104240Y298665D01*
Y301335D01*
X103549Y303914D01*
X102214Y306226D01*
X100326Y308114D01*
X98014Y309449D01*
X95435Y310140D01*
D02*
G37*
G36*
X70035D02*
X67365D01*
X64786Y309449D01*
X62474Y308114D01*
X60586Y306226D01*
X59251Y303914D01*
X58560Y301335D01*
Y298665D01*
X59251Y296086D01*
X60586Y293774D01*
X62474Y291886D01*
X64786Y290551D01*
X67365Y289860D01*
X70035D01*
X72614Y290551D01*
X74926Y291886D01*
X76814Y293774D01*
X78149Y296086D01*
X78840Y298665D01*
Y301335D01*
X78149Y303914D01*
X76814Y306226D01*
X74926Y308114D01*
X72614Y309449D01*
X70035Y310140D01*
D02*
G37*
G36*
X44635D02*
X41965D01*
X39386Y309449D01*
X37074Y308114D01*
X35186Y306226D01*
X33851Y303914D01*
X33160Y301335D01*
Y298665D01*
X33851Y296086D01*
X35186Y293774D01*
X37074Y291886D01*
X39386Y290551D01*
X41965Y289860D01*
X44635D01*
X47214Y290551D01*
X49526Y291886D01*
X51414Y293774D01*
X52749Y296086D01*
X53440Y298665D01*
Y301335D01*
X52749Y303914D01*
X51414Y306226D01*
X49526Y308114D01*
X47214Y309449D01*
X44635Y310140D01*
D02*
G37*
G36*
X605900Y310264D02*
X598300D01*
X595826Y309772D01*
X593729Y308371D01*
X592328Y306274D01*
X591836Y303800D01*
Y296200D01*
X592328Y293726D01*
X593729Y291629D01*
X595826Y290228D01*
X598300Y289736D01*
X605900D01*
X608374Y290228D01*
X610471Y291629D01*
X611872Y293726D01*
X612364Y296200D01*
Y303800D01*
X611872Y306274D01*
X610471Y308371D01*
X608374Y309772D01*
X605900Y310264D01*
D02*
G37*
G36*
X19852Y259290D02*
X17648D01*
X15612Y258447D01*
X14053Y256888D01*
X13210Y254852D01*
Y252648D01*
X14053Y250612D01*
X15612Y249053D01*
X17648Y248210D01*
X18465D01*
X76621Y190054D01*
Y155679D01*
X75448Y155193D01*
X74926Y155714D01*
X72614Y157049D01*
X70035Y157740D01*
X67365D01*
X64786Y157049D01*
X62474Y155714D01*
X60586Y153826D01*
X59251Y151514D01*
X58560Y148935D01*
Y146265D01*
X59251Y143686D01*
X60586Y141374D01*
X62474Y139486D01*
X64786Y138151D01*
X67365Y137460D01*
X70035D01*
X72614Y138151D01*
X74926Y139486D01*
X75448Y140007D01*
X76621Y139521D01*
Y106244D01*
X75448Y105758D01*
X75172Y106034D01*
X72768Y107422D01*
X70088Y108140D01*
X67312D01*
X64632Y107422D01*
X62228Y106034D01*
X60266Y104072D01*
X58878Y101668D01*
X58160Y98988D01*
Y96212D01*
X58878Y93532D01*
X60266Y91128D01*
X62228Y89166D01*
X64632Y87778D01*
X67312Y87060D01*
X70088D01*
X72768Y87778D01*
X75172Y89166D01*
X76591Y90585D01*
X77553Y90924D01*
X78278Y90570D01*
X91681Y77167D01*
Y56550D01*
X89328Y55191D01*
X87366Y53229D01*
X85978Y50826D01*
X85260Y48145D01*
Y45370D01*
X85978Y42689D01*
X87366Y40286D01*
X89328Y38323D01*
X91681Y36965D01*
Y29950D01*
X91994Y28374D01*
X92887Y27037D01*
X109837Y10087D01*
X111174Y9194D01*
X112750Y8881D01*
X674750D01*
X676326Y9194D01*
X677663Y10087D01*
X726535Y58960D01*
X727352D01*
X729388Y59803D01*
X730947Y61362D01*
X731790Y63398D01*
Y65602D01*
X730947Y67638D01*
X730369Y68216D01*
Y146000D01*
X730056Y147576D01*
X729163Y148913D01*
X697540Y180535D01*
Y181352D01*
X696697Y183388D01*
X696119Y183966D01*
Y203044D01*
X724785Y231710D01*
X725602D01*
X727638Y232553D01*
X729197Y234112D01*
X730040Y236148D01*
Y238352D01*
X729197Y240388D01*
X727638Y241947D01*
X725602Y242790D01*
X723398D01*
X721362Y241947D01*
X719803Y240388D01*
X718960Y238352D01*
Y237535D01*
X690294Y208869D01*
X649456D01*
X623290Y235035D01*
Y235852D01*
X622447Y237888D01*
X620888Y239447D01*
X618852Y240290D01*
X616648D01*
X614612Y239447D01*
X613053Y237888D01*
X612210Y235852D01*
Y233648D01*
X613053Y231612D01*
X614612Y230053D01*
X616648Y229210D01*
X617465D01*
X644837Y201837D01*
X646174Y200944D01*
X647750Y200631D01*
X687881D01*
Y183966D01*
X687303Y183388D01*
X686460Y181352D01*
Y179148D01*
X687303Y177112D01*
X688862Y175553D01*
X690898Y174710D01*
X691715D01*
X711436Y154988D01*
X710657Y153972D01*
X709594Y154585D01*
X707524Y155140D01*
X705381D01*
X703311Y154585D01*
X701454Y153514D01*
X699939Y151998D01*
X698867Y150142D01*
X698313Y148072D01*
Y145928D01*
X698867Y143858D01*
X699939Y142002D01*
X701454Y140486D01*
X703311Y139415D01*
X705381Y138860D01*
X707524D01*
X709594Y139415D01*
X711451Y140486D01*
X712966Y142002D01*
X714038Y143858D01*
X714593Y145928D01*
Y148072D01*
X714038Y150142D01*
X713425Y151204D01*
X714441Y151984D01*
X722131Y144294D01*
Y68216D01*
X721553Y67638D01*
X720710Y65602D01*
Y64785D01*
X673044Y17119D01*
X276604D01*
X276118Y18292D01*
X281063Y23237D01*
X281956Y24574D01*
X282269Y26150D01*
Y36208D01*
X284622Y37566D01*
X286584Y39528D01*
X287972Y41932D01*
X288690Y44612D01*
Y47388D01*
X287972Y50068D01*
X286584Y52472D01*
X284622Y54434D01*
X282218Y55822D01*
X279538Y56540D01*
X276762D01*
X274082Y55822D01*
X271678Y54434D01*
X269716Y52472D01*
X268328Y50068D01*
X267610Y47388D01*
Y44612D01*
X268328Y41932D01*
X269716Y39528D01*
X271678Y37566D01*
X274031Y36208D01*
Y27856D01*
X263294Y17119D01*
X114456D01*
X99919Y31656D01*
Y36965D01*
X102272Y38323D01*
X104234Y40286D01*
X105622Y42689D01*
X106340Y45370D01*
Y48145D01*
X105622Y50826D01*
X104234Y53229D01*
X102272Y55191D01*
X99919Y56550D01*
Y78873D01*
X99606Y80449D01*
X98713Y81786D01*
X94612Y85887D01*
X95098Y87060D01*
X95488D01*
X98168Y87778D01*
X100572Y89166D01*
X102534Y91128D01*
X103922Y93532D01*
X104640Y96212D01*
Y98988D01*
X103922Y101668D01*
X102534Y104072D01*
X100572Y106034D01*
X98168Y107422D01*
X95488Y108140D01*
X92712D01*
X90032Y107422D01*
X87628Y106034D01*
X86129Y104535D01*
X84859Y105061D01*
Y141028D01*
X86129Y141231D01*
X87874Y139486D01*
X90186Y138151D01*
X92765Y137460D01*
X95435D01*
X98014Y138151D01*
X100326Y139486D01*
X102214Y141374D01*
X103549Y143686D01*
X104240Y146265D01*
Y148935D01*
X103549Y151514D01*
X102214Y153826D01*
X100326Y155714D01*
X98014Y157049D01*
X95435Y157740D01*
X92765D01*
X90186Y157049D01*
X87874Y155714D01*
X86129Y153969D01*
X84859Y154172D01*
Y191760D01*
X84546Y193336D01*
X83653Y194673D01*
X24290Y254035D01*
Y254852D01*
X23447Y256888D01*
X21888Y258447D01*
X19852Y259290D01*
D02*
G37*
G36*
X758324Y155140D02*
X756181D01*
X754111Y154585D01*
X752254Y153514D01*
X750739Y151998D01*
X749667Y150142D01*
X749112Y148072D01*
Y145928D01*
X749667Y143858D01*
X750739Y142002D01*
X752254Y140486D01*
X754111Y139415D01*
X756181Y138860D01*
X758324D01*
X760394Y139415D01*
X762251Y140486D01*
X763766Y142002D01*
X764838Y143858D01*
X765393Y145928D01*
Y148072D01*
X764838Y150142D01*
X763766Y151998D01*
X762251Y153514D01*
X760394Y154585D01*
X758324Y155140D01*
D02*
G37*
G36*
X578035Y157740D02*
X575365D01*
X572786Y157049D01*
X570474Y155714D01*
X568586Y153826D01*
X567251Y151514D01*
X566560Y148935D01*
Y146265D01*
X567251Y143686D01*
X568586Y141374D01*
X570474Y139486D01*
X572786Y138151D01*
X575365Y137460D01*
X578035D01*
X580614Y138151D01*
X582926Y139486D01*
X584814Y141374D01*
X586149Y143686D01*
X586840Y146265D01*
Y148935D01*
X586149Y151514D01*
X584814Y153826D01*
X582926Y155714D01*
X580614Y157049D01*
X578035Y157740D01*
D02*
G37*
G36*
X552635D02*
X549965D01*
X547386Y157049D01*
X545074Y155714D01*
X543186Y153826D01*
X541851Y151514D01*
X541160Y148935D01*
Y146265D01*
X541851Y143686D01*
X543186Y141374D01*
X545074Y139486D01*
X547386Y138151D01*
X549965Y137460D01*
X552635D01*
X555214Y138151D01*
X557526Y139486D01*
X559414Y141374D01*
X560749Y143686D01*
X561440Y146265D01*
Y148935D01*
X560749Y151514D01*
X559414Y153826D01*
X557526Y155714D01*
X555214Y157049D01*
X552635Y157740D01*
D02*
G37*
G36*
X527235D02*
X524565D01*
X521986Y157049D01*
X519674Y155714D01*
X517786Y153826D01*
X516451Y151514D01*
X515760Y148935D01*
Y146265D01*
X516451Y143686D01*
X517786Y141374D01*
X519674Y139486D01*
X521986Y138151D01*
X524565Y137460D01*
X527235D01*
X529814Y138151D01*
X532126Y139486D01*
X534014Y141374D01*
X535349Y143686D01*
X536040Y146265D01*
Y148935D01*
X535349Y151514D01*
X534014Y153826D01*
X532126Y155714D01*
X529814Y157049D01*
X527235Y157740D01*
D02*
G37*
G36*
X501835D02*
X499165D01*
X496586Y157049D01*
X494274Y155714D01*
X492386Y153826D01*
X491051Y151514D01*
X490360Y148935D01*
Y146265D01*
X491051Y143686D01*
X492386Y141374D01*
X494274Y139486D01*
X496586Y138151D01*
X499165Y137460D01*
X501835D01*
X504414Y138151D01*
X506726Y139486D01*
X508614Y141374D01*
X509949Y143686D01*
X510640Y146265D01*
Y148935D01*
X509949Y151514D01*
X508614Y153826D01*
X506726Y155714D01*
X504414Y157049D01*
X501835Y157740D01*
D02*
G37*
G36*
X476435D02*
X473765D01*
X471186Y157049D01*
X468874Y155714D01*
X466986Y153826D01*
X465651Y151514D01*
X464960Y148935D01*
Y146265D01*
X465651Y143686D01*
X466986Y141374D01*
X468874Y139486D01*
X471186Y138151D01*
X473765Y137460D01*
X476435D01*
X479014Y138151D01*
X481326Y139486D01*
X483214Y141374D01*
X484549Y143686D01*
X485240Y146265D01*
Y148935D01*
X484549Y151514D01*
X483214Y153826D01*
X481326Y155714D01*
X479014Y157049D01*
X476435Y157740D01*
D02*
G37*
G36*
X451035D02*
X448365D01*
X445786Y157049D01*
X443474Y155714D01*
X441586Y153826D01*
X440251Y151514D01*
X439560Y148935D01*
Y146265D01*
X440251Y143686D01*
X441586Y141374D01*
X443474Y139486D01*
X445786Y138151D01*
X448365Y137460D01*
X451035D01*
X453614Y138151D01*
X455926Y139486D01*
X457814Y141374D01*
X459149Y143686D01*
X459840Y146265D01*
Y148935D01*
X459149Y151514D01*
X457814Y153826D01*
X455926Y155714D01*
X453614Y157049D01*
X451035Y157740D01*
D02*
G37*
G36*
X425635D02*
X422965D01*
X420386Y157049D01*
X418074Y155714D01*
X416186Y153826D01*
X414851Y151514D01*
X414160Y148935D01*
Y146265D01*
X414851Y143686D01*
X416186Y141374D01*
X418074Y139486D01*
X420386Y138151D01*
X422965Y137460D01*
X425635D01*
X428214Y138151D01*
X430526Y139486D01*
X432414Y141374D01*
X433749Y143686D01*
X434440Y146265D01*
Y148935D01*
X433749Y151514D01*
X432414Y153826D01*
X430526Y155714D01*
X428214Y157049D01*
X425635Y157740D01*
D02*
G37*
G36*
X400235D02*
X397565D01*
X394986Y157049D01*
X392674Y155714D01*
X390786Y153826D01*
X389451Y151514D01*
X388760Y148935D01*
Y146265D01*
X389451Y143686D01*
X390786Y141374D01*
X392674Y139486D01*
X394986Y138151D01*
X397565Y137460D01*
X400235D01*
X402814Y138151D01*
X405126Y139486D01*
X407014Y141374D01*
X408349Y143686D01*
X409040Y146265D01*
Y148935D01*
X408349Y151514D01*
X407014Y153826D01*
X405126Y155714D01*
X402814Y157049D01*
X400235Y157740D01*
D02*
G37*
G36*
X374835D02*
X372165D01*
X369586Y157049D01*
X367274Y155714D01*
X365386Y153826D01*
X364051Y151514D01*
X363360Y148935D01*
Y146265D01*
X364051Y143686D01*
X365386Y141374D01*
X367274Y139486D01*
X369586Y138151D01*
X372165Y137460D01*
X374835D01*
X377414Y138151D01*
X379726Y139486D01*
X381614Y141374D01*
X382949Y143686D01*
X383640Y146265D01*
Y148935D01*
X382949Y151514D01*
X381614Y153826D01*
X379726Y155714D01*
X377414Y157049D01*
X374835Y157740D01*
D02*
G37*
G36*
X349435D02*
X346765D01*
X344186Y157049D01*
X341874Y155714D01*
X339986Y153826D01*
X338651Y151514D01*
X337960Y148935D01*
Y146265D01*
X338651Y143686D01*
X339986Y141374D01*
X341874Y139486D01*
X344186Y138151D01*
X346765Y137460D01*
X349435D01*
X352014Y138151D01*
X354326Y139486D01*
X356214Y141374D01*
X357549Y143686D01*
X358240Y146265D01*
Y148935D01*
X357549Y151514D01*
X356214Y153826D01*
X354326Y155714D01*
X352014Y157049D01*
X349435Y157740D01*
D02*
G37*
G36*
X324035D02*
X321365D01*
X318786Y157049D01*
X316474Y155714D01*
X314586Y153826D01*
X313251Y151514D01*
X312560Y148935D01*
Y146265D01*
X313251Y143686D01*
X314586Y141374D01*
X316474Y139486D01*
X318786Y138151D01*
X321365Y137460D01*
X324035D01*
X326614Y138151D01*
X328926Y139486D01*
X330814Y141374D01*
X332149Y143686D01*
X332840Y146265D01*
Y148935D01*
X332149Y151514D01*
X330814Y153826D01*
X328926Y155714D01*
X326614Y157049D01*
X324035Y157740D01*
D02*
G37*
G36*
X247835D02*
X245165D01*
X242586Y157049D01*
X240274Y155714D01*
X238386Y153826D01*
X237051Y151514D01*
X236360Y148935D01*
Y146265D01*
X237051Y143686D01*
X238386Y141374D01*
X240274Y139486D01*
X242586Y138151D01*
X245165Y137460D01*
X247835D01*
X250414Y138151D01*
X252726Y139486D01*
X254614Y141374D01*
X255949Y143686D01*
X256640Y146265D01*
Y148935D01*
X255949Y151514D01*
X254614Y153826D01*
X252726Y155714D01*
X250414Y157049D01*
X247835Y157740D01*
D02*
G37*
G36*
X222435D02*
X219765D01*
X217186Y157049D01*
X214874Y155714D01*
X212986Y153826D01*
X211651Y151514D01*
X210960Y148935D01*
Y146265D01*
X211651Y143686D01*
X212986Y141374D01*
X214874Y139486D01*
X217186Y138151D01*
X219765Y137460D01*
X222435D01*
X225014Y138151D01*
X227326Y139486D01*
X229214Y141374D01*
X230549Y143686D01*
X231240Y146265D01*
Y148935D01*
X230549Y151514D01*
X229214Y153826D01*
X227326Y155714D01*
X225014Y157049D01*
X222435Y157740D01*
D02*
G37*
G36*
X197035D02*
X194365D01*
X191786Y157049D01*
X189474Y155714D01*
X187586Y153826D01*
X186251Y151514D01*
X185560Y148935D01*
Y146265D01*
X186251Y143686D01*
X187586Y141374D01*
X189474Y139486D01*
X191786Y138151D01*
X194365Y137460D01*
X197035D01*
X199614Y138151D01*
X201926Y139486D01*
X203814Y141374D01*
X205149Y143686D01*
X205840Y146265D01*
Y148935D01*
X205149Y151514D01*
X203814Y153826D01*
X201926Y155714D01*
X199614Y157049D01*
X197035Y157740D01*
D02*
G37*
G36*
X171635D02*
X168965D01*
X166386Y157049D01*
X164074Y155714D01*
X162186Y153826D01*
X160851Y151514D01*
X160160Y148935D01*
Y146265D01*
X160851Y143686D01*
X162186Y141374D01*
X164074Y139486D01*
X166386Y138151D01*
X168965Y137460D01*
X171635D01*
X174214Y138151D01*
X176526Y139486D01*
X178414Y141374D01*
X179749Y143686D01*
X180440Y146265D01*
Y148935D01*
X179749Y151514D01*
X178414Y153826D01*
X176526Y155714D01*
X174214Y157049D01*
X171635Y157740D01*
D02*
G37*
G36*
X146235D02*
X143565D01*
X140986Y157049D01*
X138674Y155714D01*
X136786Y153826D01*
X135451Y151514D01*
X134760Y148935D01*
Y146265D01*
X135451Y143686D01*
X136786Y141374D01*
X138674Y139486D01*
X140986Y138151D01*
X143565Y137460D01*
X146235D01*
X148814Y138151D01*
X151126Y139486D01*
X153014Y141374D01*
X154349Y143686D01*
X155040Y146265D01*
Y148935D01*
X154349Y151514D01*
X153014Y153826D01*
X151126Y155714D01*
X148814Y157049D01*
X146235Y157740D01*
D02*
G37*
G36*
X120835D02*
X118165D01*
X115586Y157049D01*
X113274Y155714D01*
X111386Y153826D01*
X110051Y151514D01*
X109360Y148935D01*
Y146265D01*
X110051Y143686D01*
X111386Y141374D01*
X113274Y139486D01*
X115586Y138151D01*
X118165Y137460D01*
X120835D01*
X123414Y138151D01*
X125726Y139486D01*
X127614Y141374D01*
X128949Y143686D01*
X129640Y146265D01*
Y148935D01*
X128949Y151514D01*
X127614Y153826D01*
X125726Y155714D01*
X123414Y157049D01*
X120835Y157740D01*
D02*
G37*
G36*
X44635D02*
X41965D01*
X39386Y157049D01*
X37074Y155714D01*
X35186Y153826D01*
X33851Y151514D01*
X33160Y148935D01*
Y146265D01*
X33851Y143686D01*
X35186Y141374D01*
X37074Y139486D01*
X39386Y138151D01*
X41965Y137460D01*
X44635D01*
X47214Y138151D01*
X49526Y139486D01*
X51414Y141374D01*
X52749Y143686D01*
X53440Y146265D01*
Y148935D01*
X52749Y151514D01*
X51414Y153826D01*
X49526Y155714D01*
X47214Y157049D01*
X44635Y157740D01*
D02*
G37*
G36*
X605900Y157864D02*
X598300D01*
X595826Y157372D01*
X593729Y155971D01*
X592328Y153874D01*
X591836Y151400D01*
Y143800D01*
X592328Y141326D01*
X593729Y139229D01*
X595826Y137828D01*
X598300Y137336D01*
X605900D01*
X608374Y137828D01*
X610471Y139229D01*
X611872Y141326D01*
X612364Y143800D01*
Y151400D01*
X611872Y153874D01*
X610471Y155971D01*
X608374Y157372D01*
X605900Y157864D01*
D02*
G37*
G36*
X578088Y108140D02*
X575312D01*
X572632Y107422D01*
X570228Y106034D01*
X568266Y104072D01*
X566878Y101668D01*
X566160Y98988D01*
Y96212D01*
X566878Y93532D01*
X568266Y91128D01*
X570228Y89166D01*
X572632Y87778D01*
X575312Y87060D01*
X578088D01*
X580768Y87778D01*
X583172Y89166D01*
X585134Y91128D01*
X586522Y93532D01*
X587240Y96212D01*
Y98988D01*
X586522Y101668D01*
X585134Y104072D01*
X583172Y106034D01*
X580768Y107422D01*
X578088Y108140D01*
D02*
G37*
G36*
X552688D02*
X549912D01*
X547232Y107422D01*
X544828Y106034D01*
X542866Y104072D01*
X541478Y101668D01*
X540760Y98988D01*
Y96212D01*
X541478Y93532D01*
X542866Y91128D01*
X544828Y89166D01*
X547232Y87778D01*
X549912Y87060D01*
X552688D01*
X555368Y87778D01*
X557772Y89166D01*
X559734Y91128D01*
X561122Y93532D01*
X561840Y96212D01*
Y98988D01*
X561122Y101668D01*
X559734Y104072D01*
X557772Y106034D01*
X555368Y107422D01*
X552688Y108140D01*
D02*
G37*
G36*
X527288D02*
X524512D01*
X521832Y107422D01*
X519428Y106034D01*
X517466Y104072D01*
X516078Y101668D01*
X515360Y98988D01*
Y96212D01*
X516078Y93532D01*
X517466Y91128D01*
X519428Y89166D01*
X521832Y87778D01*
X524512Y87060D01*
X527288D01*
X529968Y87778D01*
X532372Y89166D01*
X534334Y91128D01*
X535722Y93532D01*
X536440Y96212D01*
Y98988D01*
X535722Y101668D01*
X534334Y104072D01*
X532372Y106034D01*
X529968Y107422D01*
X527288Y108140D01*
D02*
G37*
G36*
X501888D02*
X499112D01*
X496432Y107422D01*
X494028Y106034D01*
X492066Y104072D01*
X490678Y101668D01*
X489960Y98988D01*
Y96212D01*
X490678Y93532D01*
X492066Y91128D01*
X494028Y89166D01*
X496432Y87778D01*
X499112Y87060D01*
X501888D01*
X504568Y87778D01*
X506972Y89166D01*
X508934Y91128D01*
X510322Y93532D01*
X511040Y96212D01*
Y98988D01*
X510322Y101668D01*
X508934Y104072D01*
X506972Y106034D01*
X504568Y107422D01*
X501888Y108140D01*
D02*
G37*
G36*
X476488D02*
X473712D01*
X471032Y107422D01*
X468628Y106034D01*
X466666Y104072D01*
X465278Y101668D01*
X464560Y98988D01*
Y96212D01*
X465278Y93532D01*
X466666Y91128D01*
X468628Y89166D01*
X471032Y87778D01*
X473712Y87060D01*
X476488D01*
X479168Y87778D01*
X481572Y89166D01*
X483534Y91128D01*
X484922Y93532D01*
X485640Y96212D01*
Y98988D01*
X484922Y101668D01*
X483534Y104072D01*
X481572Y106034D01*
X479168Y107422D01*
X476488Y108140D01*
D02*
G37*
G36*
X451088D02*
X448312D01*
X445632Y107422D01*
X443228Y106034D01*
X441266Y104072D01*
X439878Y101668D01*
X439160Y98988D01*
Y96212D01*
X439878Y93532D01*
X441266Y91128D01*
X443228Y89166D01*
X445632Y87778D01*
X448312Y87060D01*
X451088D01*
X453768Y87778D01*
X456172Y89166D01*
X458134Y91128D01*
X459522Y93532D01*
X460240Y96212D01*
Y98988D01*
X459522Y101668D01*
X458134Y104072D01*
X456172Y106034D01*
X453768Y107422D01*
X451088Y108140D01*
D02*
G37*
G36*
X425688D02*
X422912D01*
X420232Y107422D01*
X417828Y106034D01*
X415866Y104072D01*
X414478Y101668D01*
X413760Y98988D01*
Y96212D01*
X414478Y93532D01*
X415866Y91128D01*
X417828Y89166D01*
X420232Y87778D01*
X422912Y87060D01*
X425688D01*
X428368Y87778D01*
X430772Y89166D01*
X432734Y91128D01*
X434122Y93532D01*
X434840Y96212D01*
Y98988D01*
X434122Y101668D01*
X432734Y104072D01*
X430772Y106034D01*
X428368Y107422D01*
X425688Y108140D01*
D02*
G37*
G36*
X400288D02*
X397512D01*
X394832Y107422D01*
X392428Y106034D01*
X390466Y104072D01*
X389078Y101668D01*
X388360Y98988D01*
Y96212D01*
X389078Y93532D01*
X390466Y91128D01*
X392428Y89166D01*
X394832Y87778D01*
X397512Y87060D01*
X400288D01*
X402968Y87778D01*
X405372Y89166D01*
X407334Y91128D01*
X408722Y93532D01*
X409440Y96212D01*
Y98988D01*
X408722Y101668D01*
X407334Y104072D01*
X405372Y106034D01*
X402968Y107422D01*
X400288Y108140D01*
D02*
G37*
G36*
X374888D02*
X372112D01*
X369432Y107422D01*
X367028Y106034D01*
X365066Y104072D01*
X363678Y101668D01*
X362960Y98988D01*
Y96212D01*
X363678Y93532D01*
X365066Y91128D01*
X367028Y89166D01*
X369432Y87778D01*
X372112Y87060D01*
X374888D01*
X377568Y87778D01*
X379972Y89166D01*
X381934Y91128D01*
X383322Y93532D01*
X384040Y96212D01*
Y98988D01*
X383322Y101668D01*
X381934Y104072D01*
X379972Y106034D01*
X377568Y107422D01*
X374888Y108140D01*
D02*
G37*
G36*
X349488D02*
X346712D01*
X344032Y107422D01*
X341628Y106034D01*
X339666Y104072D01*
X338278Y101668D01*
X337560Y98988D01*
Y96212D01*
X338278Y93532D01*
X339666Y91128D01*
X341628Y89166D01*
X344032Y87778D01*
X346712Y87060D01*
X349488D01*
X352168Y87778D01*
X354572Y89166D01*
X356534Y91128D01*
X357922Y93532D01*
X358640Y96212D01*
Y98988D01*
X357922Y101668D01*
X356534Y104072D01*
X354572Y106034D01*
X352168Y107422D01*
X349488Y108140D01*
D02*
G37*
G36*
X324088D02*
X321312D01*
X318632Y107422D01*
X316228Y106034D01*
X314266Y104072D01*
X312878Y101668D01*
X312160Y98988D01*
Y96212D01*
X312878Y93532D01*
X314266Y91128D01*
X316228Y89166D01*
X318632Y87778D01*
X321312Y87060D01*
X324088D01*
X326768Y87778D01*
X329172Y89166D01*
X331134Y91128D01*
X332522Y93532D01*
X333240Y96212D01*
Y98988D01*
X332522Y101668D01*
X331134Y104072D01*
X329172Y106034D01*
X326768Y107422D01*
X324088Y108140D01*
D02*
G37*
G36*
X298635Y157740D02*
X295965D01*
X293386Y157049D01*
X291074Y155714D01*
X289186Y153826D01*
X287851Y151514D01*
X287160Y148935D01*
Y146265D01*
X287851Y143686D01*
X289186Y141374D01*
X291074Y139486D01*
X293181Y138270D01*
Y107392D01*
X290828Y106034D01*
X288866Y104072D01*
X287478Y101668D01*
X286760Y98988D01*
Y96212D01*
X287478Y93532D01*
X288866Y91128D01*
X290828Y89166D01*
X293232Y87778D01*
X295912Y87060D01*
X298688D01*
X301368Y87778D01*
X303772Y89166D01*
X305734Y91128D01*
X307122Y93532D01*
X307840Y96212D01*
Y98988D01*
X307122Y101668D01*
X305734Y104072D01*
X303772Y106034D01*
X301419Y107392D01*
Y138270D01*
X303526Y139486D01*
X305414Y141374D01*
X306749Y143686D01*
X307440Y146265D01*
Y148935D01*
X306749Y151514D01*
X305414Y153826D01*
X303526Y155714D01*
X301214Y157049D01*
X298635Y157740D01*
D02*
G37*
G36*
X273235D02*
X270565D01*
X267986Y157049D01*
X265674Y155714D01*
X263786Y153826D01*
X262451Y151514D01*
X261760Y148935D01*
Y146265D01*
X262451Y143686D01*
X263786Y141374D01*
X265674Y139486D01*
X267781Y138270D01*
Y107392D01*
X265428Y106034D01*
X263466Y104072D01*
X262078Y101668D01*
X261360Y98988D01*
Y96212D01*
X262078Y93532D01*
X263466Y91128D01*
X265428Y89166D01*
X267832Y87778D01*
X270512Y87060D01*
X273288D01*
X275968Y87778D01*
X278372Y89166D01*
X280334Y91128D01*
X281722Y93532D01*
X282440Y96212D01*
Y98988D01*
X281722Y101668D01*
X280334Y104072D01*
X278372Y106034D01*
X276019Y107392D01*
Y138270D01*
X278126Y139486D01*
X280014Y141374D01*
X281349Y143686D01*
X282040Y146265D01*
Y148935D01*
X281349Y151514D01*
X280014Y153826D01*
X278126Y155714D01*
X275814Y157049D01*
X273235Y157740D01*
D02*
G37*
G36*
X247888Y108140D02*
X245112D01*
X242432Y107422D01*
X240028Y106034D01*
X238066Y104072D01*
X236678Y101668D01*
X235960Y98988D01*
Y96212D01*
X236678Y93532D01*
X238066Y91128D01*
X240028Y89166D01*
X242432Y87778D01*
X245112Y87060D01*
X247888D01*
X250568Y87778D01*
X252972Y89166D01*
X254934Y91128D01*
X256322Y93532D01*
X257040Y96212D01*
Y98988D01*
X256322Y101668D01*
X254934Y104072D01*
X252972Y106034D01*
X250568Y107422D01*
X247888Y108140D01*
D02*
G37*
G36*
X222488D02*
X219712D01*
X217032Y107422D01*
X214628Y106034D01*
X212666Y104072D01*
X211278Y101668D01*
X210560Y98988D01*
Y96212D01*
X211278Y93532D01*
X212666Y91128D01*
X214628Y89166D01*
X217032Y87778D01*
X219712Y87060D01*
X222488D01*
X225168Y87778D01*
X227572Y89166D01*
X229534Y91128D01*
X230922Y93532D01*
X231640Y96212D01*
Y98988D01*
X230922Y101668D01*
X229534Y104072D01*
X227572Y106034D01*
X225168Y107422D01*
X222488Y108140D01*
D02*
G37*
G36*
X197088D02*
X194312D01*
X191632Y107422D01*
X189228Y106034D01*
X187266Y104072D01*
X185878Y101668D01*
X185160Y98988D01*
Y96212D01*
X185878Y93532D01*
X187266Y91128D01*
X189228Y89166D01*
X191632Y87778D01*
X194312Y87060D01*
X197088D01*
X199768Y87778D01*
X202172Y89166D01*
X204134Y91128D01*
X205522Y93532D01*
X206240Y96212D01*
Y98988D01*
X205522Y101668D01*
X204134Y104072D01*
X202172Y106034D01*
X199768Y107422D01*
X197088Y108140D01*
D02*
G37*
G36*
X171688D02*
X168912D01*
X166232Y107422D01*
X163828Y106034D01*
X161866Y104072D01*
X160478Y101668D01*
X159760Y98988D01*
Y96212D01*
X160478Y93532D01*
X161866Y91128D01*
X163828Y89166D01*
X166232Y87778D01*
X168912Y87060D01*
X171688D01*
X174368Y87778D01*
X176772Y89166D01*
X178734Y91128D01*
X180122Y93532D01*
X180840Y96212D01*
Y98988D01*
X180122Y101668D01*
X178734Y104072D01*
X176772Y106034D01*
X174368Y107422D01*
X171688Y108140D01*
D02*
G37*
G36*
X146288D02*
X143512D01*
X140832Y107422D01*
X138428Y106034D01*
X136466Y104072D01*
X135078Y101668D01*
X134360Y98988D01*
Y96212D01*
X135078Y93532D01*
X136466Y91128D01*
X138428Y89166D01*
X140832Y87778D01*
X143512Y87060D01*
X146288D01*
X148968Y87778D01*
X151372Y89166D01*
X153334Y91128D01*
X154722Y93532D01*
X155440Y96212D01*
Y98988D01*
X154722Y101668D01*
X153334Y104072D01*
X151372Y106034D01*
X148968Y107422D01*
X146288Y108140D01*
D02*
G37*
G36*
X120888D02*
X118112D01*
X115432Y107422D01*
X113028Y106034D01*
X111066Y104072D01*
X109678Y101668D01*
X108960Y98988D01*
Y96212D01*
X109678Y93532D01*
X111066Y91128D01*
X113028Y89166D01*
X115432Y87778D01*
X118112Y87060D01*
X120888D01*
X123568Y87778D01*
X125972Y89166D01*
X127934Y91128D01*
X129322Y93532D01*
X130040Y96212D01*
Y98988D01*
X129322Y101668D01*
X127934Y104072D01*
X125972Y106034D01*
X123568Y107422D01*
X120888Y108140D01*
D02*
G37*
G36*
X44688D02*
X41912D01*
X39232Y107422D01*
X36828Y106034D01*
X34866Y104072D01*
X33478Y101668D01*
X32760Y98988D01*
Y96212D01*
X33478Y93532D01*
X34866Y91128D01*
X36828Y89166D01*
X39232Y87778D01*
X41912Y87060D01*
X44688D01*
X47368Y87778D01*
X49772Y89166D01*
X51734Y91128D01*
X53122Y93532D01*
X53840Y96212D01*
Y98988D01*
X53122Y101668D01*
X51734Y104072D01*
X49772Y106034D01*
X47368Y107422D01*
X44688Y108140D01*
D02*
G37*
G36*
X606100Y108196D02*
X598100D01*
X596393Y107972D01*
X594802Y107313D01*
X593436Y106264D01*
X592387Y104898D01*
X591728Y103307D01*
X591504Y101600D01*
Y93600D01*
X591728Y91893D01*
X592387Y90302D01*
X593436Y88936D01*
X594802Y87887D01*
X596393Y87228D01*
X598100Y87004D01*
X606100D01*
X607807Y87228D01*
X609398Y87887D01*
X610764Y88936D01*
X611813Y90302D01*
X612472Y91893D01*
X612696Y93600D01*
Y101600D01*
X612472Y103307D01*
X611813Y104898D01*
X610764Y106264D01*
X609398Y107313D01*
X607807Y107972D01*
X606100Y108196D01*
D02*
G37*
G36*
X184438Y58047D02*
X181662D01*
X178982Y57329D01*
X176578Y55942D01*
X174616Y53979D01*
X173228Y51576D01*
X172510Y48895D01*
Y46120D01*
X173228Y43439D01*
X174616Y41036D01*
X176578Y39073D01*
X178982Y37686D01*
X181662Y36967D01*
X184438D01*
X187118Y37686D01*
X189522Y39073D01*
X191484Y41036D01*
X192872Y43439D01*
X193590Y46120D01*
Y48895D01*
X192872Y51576D01*
X191484Y53979D01*
X189522Y55942D01*
X187118Y57329D01*
X184438Y58047D01*
D02*
G37*
G36*
X212450Y58104D02*
X204450D01*
X202743Y57879D01*
X201152Y57220D01*
X199786Y56172D01*
X198737Y54806D01*
X198078Y53215D01*
X197854Y51508D01*
Y43507D01*
X198078Y41800D01*
X198737Y40209D01*
X199786Y38843D01*
X201152Y37795D01*
X202743Y37136D01*
X204450Y36911D01*
X212450D01*
X214157Y37136D01*
X215748Y37795D01*
X217114Y38843D01*
X218163Y40209D01*
X218822Y41800D01*
X219046Y43507D01*
Y51508D01*
X218822Y53215D01*
X218163Y54806D01*
X217114Y56172D01*
X215748Y57220D01*
X214157Y57879D01*
X212450Y58104D01*
D02*
G37*
G36*
X125200Y57354D02*
X117200D01*
X115493Y57129D01*
X113902Y56470D01*
X112536Y55422D01*
X111487Y54056D01*
X110828Y52465D01*
X110604Y50757D01*
Y42757D01*
X110828Y41050D01*
X111487Y39459D01*
X112536Y38093D01*
X113902Y37045D01*
X115493Y36386D01*
X117200Y36161D01*
X125200D01*
X126907Y36386D01*
X128498Y37045D01*
X129864Y38093D01*
X130913Y39459D01*
X131572Y41050D01*
X131796Y42757D01*
Y50757D01*
X131572Y52465D01*
X130913Y54056D01*
X129864Y55422D01*
X128498Y56470D01*
X126907Y57129D01*
X125200Y57354D01*
D02*
G37*
G36*
X560750Y57096D02*
X552750D01*
X551043Y56872D01*
X549452Y56213D01*
X548086Y55164D01*
X547037Y53798D01*
X546378Y52207D01*
X546154Y50500D01*
Y42500D01*
X546378Y40793D01*
X547037Y39202D01*
X548086Y37836D01*
X549452Y36787D01*
X551043Y36128D01*
X552750Y35904D01*
X560750D01*
X562457Y36128D01*
X564048Y36787D01*
X565414Y37836D01*
X566463Y39202D01*
X567122Y40793D01*
X567346Y42500D01*
Y50500D01*
X567122Y52207D01*
X566463Y53798D01*
X565414Y55164D01*
X564048Y56213D01*
X562457Y56872D01*
X560750Y57096D01*
D02*
G37*
G36*
X330338Y56540D02*
X327562D01*
X324882Y55822D01*
X322478Y54434D01*
X320516Y52472D01*
X319128Y50068D01*
X318410Y47388D01*
Y44612D01*
X319128Y41932D01*
X320516Y39528D01*
X322478Y37566D01*
X324882Y36178D01*
X327562Y35460D01*
X330338D01*
X333018Y36178D01*
X335422Y37566D01*
X337384Y39528D01*
X338772Y41932D01*
X339490Y44612D01*
Y47388D01*
X338772Y50068D01*
X337384Y52472D01*
X335422Y54434D01*
X333018Y55822D01*
X330338Y56540D01*
D02*
G37*
G36*
X304938D02*
X302162D01*
X299482Y55822D01*
X297078Y54434D01*
X295116Y52472D01*
X293728Y50068D01*
X293010Y47388D01*
Y44612D01*
X293728Y41932D01*
X295116Y39528D01*
X297078Y37566D01*
X299482Y36178D01*
X302162Y35460D01*
X304938D01*
X307618Y36178D01*
X310022Y37566D01*
X311984Y39528D01*
X313372Y41932D01*
X314090Y44612D01*
Y47388D01*
X313372Y50068D01*
X311984Y52472D01*
X310022Y54434D01*
X307618Y55822D01*
X304938Y56540D01*
D02*
G37*
G36*
X358350Y56596D02*
X350350D01*
X348643Y56372D01*
X347052Y55713D01*
X345686Y54664D01*
X344637Y53298D01*
X343978Y51707D01*
X343754Y50000D01*
Y42000D01*
X343978Y40293D01*
X344637Y38702D01*
X345686Y37336D01*
X347052Y36287D01*
X348643Y35628D01*
X350350Y35404D01*
X358350D01*
X360057Y35628D01*
X361648Y36287D01*
X363014Y37336D01*
X364063Y38702D01*
X364722Y40293D01*
X364946Y42000D01*
Y50000D01*
X364722Y51707D01*
X364063Y53298D01*
X363014Y54664D01*
X361648Y55713D01*
X360057Y56372D01*
X358350Y56596D01*
D02*
G37*
%LPD*%
D56*
X18750Y253750D02*
X80740Y191760D01*
Y93933D02*
Y191760D01*
Y93933D02*
X95800Y78873D01*
Y46757D02*
Y78873D01*
X647750Y204750D02*
X692000D01*
X617750Y234750D02*
X647750Y204750D01*
X692000Y180250D02*
Y204750D01*
X724500Y237250D01*
X726250Y64500D02*
Y146000D01*
X692000Y180250D02*
X726250Y146000D01*
X674750Y13000D02*
X726250Y64500D01*
X265000Y13000D02*
X674750D01*
X265000D02*
X278150Y26150D01*
Y46000D01*
X112750Y13000D02*
X265000D01*
X95800Y29950D02*
X112750Y13000D01*
X95800Y29950D02*
Y46757D01*
X97500Y451250D02*
X475450D01*
X576700Y350000D01*
X297300Y97600D02*
Y147600D01*
X271900Y97600D02*
Y147600D01*
D58*
X7710Y406544D02*
X17098Y415932D01*
X20750Y421223D02*
Y424200D01*
X17098Y417571D02*
X20750Y421223D01*
X17098Y415932D02*
Y417571D01*
X4860Y380610D02*
X7710Y383460D01*
Y406544D01*
X4860Y295164D02*
Y380610D01*
X25524Y274500D02*
X55250D01*
X4860Y295164D02*
X25524Y274500D01*
D62*
X17900Y300000D02*
D03*
X43300D02*
D03*
X68700D02*
D03*
X94100D02*
D03*
X119500D02*
D03*
X144900D02*
D03*
X170300D02*
D03*
X246500D02*
D03*
X271900D02*
D03*
X297300D02*
D03*
X348100D02*
D03*
X398900D02*
D03*
X424300D02*
D03*
X475100D02*
D03*
X500500D02*
D03*
X525900D02*
D03*
X576700D02*
D03*
X551300D02*
D03*
X449700D02*
D03*
X373500D02*
D03*
X322700D02*
D03*
X221100D02*
D03*
X195700D02*
D03*
X17900Y147600D02*
D03*
X43300D02*
D03*
X68700D02*
D03*
X94100D02*
D03*
X119500D02*
D03*
X144900D02*
D03*
X170300D02*
D03*
X246500D02*
D03*
X271900D02*
D03*
X297300D02*
D03*
X348100D02*
D03*
X398900D02*
D03*
X424300D02*
D03*
X475100D02*
D03*
X500500D02*
D03*
X525900D02*
D03*
X576700D02*
D03*
X551300D02*
D03*
X449700D02*
D03*
X373500D02*
D03*
X322700D02*
D03*
X221100D02*
D03*
X195700D02*
D03*
D63*
X602100Y300000D02*
D03*
Y147600D02*
D03*
D64*
X556750Y46500D02*
D03*
Y518500D02*
D03*
X354350Y46000D02*
D03*
X466950Y45750D02*
D03*
X208450Y47508D02*
D03*
X121200Y46757D02*
D03*
X602100Y97600D02*
D03*
Y350000D02*
D03*
D65*
X757253Y147000D02*
D03*
X731852Y172400D02*
D03*
X706452Y147000D02*
D03*
X710200Y351015D02*
D03*
X684800Y325615D02*
D03*
X710200Y300215D02*
D03*
D66*
X328950Y46000D02*
D03*
X303550D02*
D03*
X278150D02*
D03*
X441550Y45750D02*
D03*
X416150D02*
D03*
X390750D02*
D03*
X183050Y47508D02*
D03*
X95800Y46757D02*
D03*
X222993Y420950D02*
D03*
X20750Y424200D02*
D03*
X17900Y97600D02*
D03*
X43300D02*
D03*
X68700D02*
D03*
X94100D02*
D03*
X119500D02*
D03*
X246500D02*
D03*
X322700D02*
D03*
X348100D02*
D03*
X373500D02*
D03*
X424300D02*
D03*
X449700D02*
D03*
X500500D02*
D03*
X551300D02*
D03*
X576700D02*
D03*
X525900D02*
D03*
X475100D02*
D03*
X398900D02*
D03*
X297300D02*
D03*
X271900D02*
D03*
X221100D02*
D03*
X195700D02*
D03*
X170300D02*
D03*
X144900D02*
D03*
X17900Y350000D02*
D03*
X43300D02*
D03*
X68700D02*
D03*
X94100D02*
D03*
X119500D02*
D03*
X246500D02*
D03*
X322700D02*
D03*
X348100D02*
D03*
X373500D02*
D03*
X424300D02*
D03*
X449700D02*
D03*
X500500D02*
D03*
X551300D02*
D03*
X576700D02*
D03*
X525900D02*
D03*
X475100D02*
D03*
X398900D02*
D03*
X297300D02*
D03*
X271900D02*
D03*
X221100D02*
D03*
X195700D02*
D03*
X170300D02*
D03*
X144900D02*
D03*
D67*
X222993Y395550D02*
D03*
X20750Y398800D02*
D03*
D68*
X248000Y426500D02*
D03*
X684600Y219500D02*
D03*
X656350Y219750D02*
D03*
X781250Y448000D02*
D03*
X784250Y343500D02*
D03*
X785000Y245500D02*
D03*
X784750Y139000D02*
D03*
X782500Y62500D02*
D03*
X728500Y50750D02*
D03*
X706500Y8500D02*
D03*
X664000Y64000D02*
D03*
X624750Y119750D02*
D03*
X651000Y146500D02*
D03*
X661750Y254250D02*
D03*
X711500Y451000D02*
D03*
X609250Y448000D02*
D03*
X705750Y514250D02*
D03*
X606250Y512000D02*
D03*
X455750Y380750D02*
D03*
X454750Y412000D02*
D03*
X287250Y118750D02*
D03*
X224250Y34500D02*
D03*
X149250Y26750D02*
D03*
X240500Y4000D02*
D03*
X149750Y4250D02*
D03*
X76000Y11000D02*
D03*
X26500Y120750D02*
D03*
X9500Y195000D02*
D03*
Y225000D02*
D03*
X164500Y194250D02*
D03*
X164250Y227250D02*
D03*
X18750Y253750D02*
D03*
X97500Y451250D02*
D03*
X617750Y234750D02*
D03*
X724500Y237250D02*
D03*
X692000Y180250D02*
D03*
X726250Y64500D02*
D03*
X55250Y274500D02*
D03*
M02*
