G04*
G04 #@! TF.GenerationSoftware,Altium Limited,Altium Designer,21.6.4 (81)*
G04*
G04 Layer_Color=65535*
%FSLAX44Y44*%
%MOMM*%
G71*
G04*
G04 #@! TF.SameCoordinates,DF600929-9F7D-4707-823E-D0FB3E8D8E71*
G04*
G04*
G04 #@! TF.FilePolarity,Positive*
G04*
G01*
G75*
%ADD10C,0.2000*%
%ADD11C,0.2500*%
%ADD12C,0.1270*%
%ADD13C,0.1000*%
D10*
X79000Y443250D02*
G03*
X79000Y443250I-1000J0D01*
G01*
X790000Y30000D02*
G03*
X790000Y30000I-30000J0D01*
G01*
Y530000D02*
G03*
X790000Y530000I-30000J0D01*
G01*
X60000D02*
G03*
X60000Y530000I-30000J0D01*
G01*
X695202Y147020D02*
G03*
X695202Y147020I-570J0D01*
G01*
X60000Y30000D02*
G03*
X60000Y30000I-30000J0D01*
G01*
X373000Y476242D02*
G03*
X373000Y476242I-1000J0D01*
G01*
X710750Y288395D02*
G03*
X710750Y288395I-570J0D01*
G01*
X72050Y259550D02*
G03*
X72050Y259550I-1000J0D01*
G01*
X1450Y286500D02*
X618550D01*
X1450D02*
Y313500D01*
X618550D01*
Y286500D02*
Y313500D01*
X570950Y33050D02*
Y59950D01*
X542550D02*
X570950D01*
X542550Y33050D02*
Y59950D01*
Y33050D02*
X570950D01*
X647250Y232003D02*
X679250D01*
X647250D02*
Y281023D01*
X679250D01*
Y232003D02*
Y281023D01*
X682750Y230713D02*
X698000D01*
X638240Y129500D02*
Y161500D01*
X687260D01*
Y129500D02*
Y161500D01*
X638240Y129500D02*
X687260D01*
X636950Y110750D02*
Y126000D01*
X698852Y181600D02*
X764853D01*
Y111700D02*
Y181600D01*
X698852Y111700D02*
X764853D01*
X698852D02*
Y181600D01*
X646250Y87510D02*
X678250D01*
Y38490D02*
Y87510D01*
X646250Y38490D02*
X678250D01*
X646250D02*
Y87510D01*
X627500Y88800D02*
X642750D01*
X369785Y424000D02*
X381785D01*
X366285Y425500D02*
Y454500D01*
X360285D02*
X366285D01*
X360285Y425500D02*
Y454500D01*
Y425500D02*
X366285D01*
X570950Y505050D02*
Y531950D01*
X542550D02*
X570950D01*
X542550Y505050D02*
Y531950D01*
Y505050D02*
X570950D01*
X431750Y453000D02*
Y482000D01*
X473686Y524064D02*
X486314D01*
X473686Y511436D02*
X486314D01*
X128750Y478250D02*
Y507250D01*
X263950Y59450D02*
X368550D01*
Y32550D02*
Y59450D01*
X263950Y32550D02*
X368550D01*
X263950D02*
Y59450D01*
X376550Y59200D02*
X481150D01*
Y32300D02*
Y59200D01*
X376550Y32300D02*
X481150D01*
X376550D02*
Y59200D01*
X168850Y60957D02*
X222650D01*
Y34058D02*
Y60957D01*
X168850Y34058D02*
X222650D01*
X168850D02*
Y60957D01*
X256250Y246250D02*
X266750D01*
X270250Y216750D02*
Y245750D01*
Y216750D02*
X278750D01*
Y245750D01*
X270250D02*
X278750D01*
X1450Y134100D02*
X618550D01*
X1450D02*
Y161100D01*
X618550D01*
Y134100D02*
Y161100D01*
X81600Y60207D02*
X135400D01*
Y33307D02*
Y60207D01*
X81600Y33307D02*
X135400D01*
X81600D02*
Y60207D01*
X236443Y381350D02*
Y435150D01*
X209543Y381350D02*
X236443D01*
X209543D02*
Y435150D01*
X236443D01*
X569750Y234750D02*
X578250D01*
X569750D02*
Y263750D01*
X578250D01*
Y234750D02*
Y263750D01*
X581750Y234250D02*
X592250D01*
X675600Y292615D02*
Y358615D01*
X745500D01*
Y292615D02*
Y358615D01*
X675600Y292615D02*
X745500D01*
X7300Y438400D02*
X34200D01*
X7300Y384600D02*
Y438400D01*
Y384600D02*
X34200D01*
Y438400D01*
X3700Y84150D02*
Y111050D01*
Y84150D02*
X616300D01*
Y111050D01*
X3700D02*
X616300D01*
X3700Y336550D02*
Y363450D01*
Y336550D02*
X616300D01*
Y363450D01*
X3700D02*
X616300D01*
X287743Y375750D02*
X314743D01*
X337243Y391750D02*
Y411750D01*
X265243Y391750D02*
Y411750D01*
X287743Y427750D02*
X314743D01*
D11*
X469250Y517750D02*
G03*
X469250Y517750I-1250J0D01*
G01*
X261992Y379250D02*
G03*
X261992Y379250I-1250J0D01*
G01*
X598750Y8000D02*
X624000Y33250D01*
X598750Y7250D02*
Y8000D01*
X593500Y203750D02*
X627500Y169750D01*
X593500Y203750D02*
Y203750D01*
X616750Y227000D01*
X590000Y203750D02*
X593500D01*
X607000Y377750D02*
X616000Y386750D01*
Y389250D01*
X537500Y258250D02*
X547500D01*
X298250Y22250D02*
X300250D01*
X305500Y27500D01*
X282500Y22000D02*
X283750D01*
X276000Y27500D02*
X281500Y22000D01*
X282500D01*
X357000Y26250D02*
X358000D01*
X353500Y22750D02*
X357000Y26250D01*
X351500Y22750D02*
X353500D01*
X327250Y24750D02*
Y27000D01*
Y24750D02*
X330000Y22000D01*
X332500D01*
X386750Y27000D02*
X394500Y19250D01*
X458750Y19750D02*
X466500Y27500D01*
X437000Y19750D02*
X458750D01*
X394500Y19250D02*
X417750D01*
D12*
X169780Y375550D02*
Y377250D01*
X107570Y375550D02*
X169780D01*
X107570D02*
Y442950D01*
X169780D01*
Y441250D02*
Y442950D01*
X343000Y469893D02*
X356000D01*
X343000D02*
Y479492D01*
Y492492D02*
Y502093D01*
X356000D01*
X96000Y259750D02*
X135000D01*
X96000Y209250D02*
X135000D01*
D13*
X453596Y261248D02*
Y257083D01*
X454429Y256250D01*
X456095D01*
X456928Y257083D01*
Y261248D01*
X458594Y256250D02*
Y259582D01*
X461093D01*
X461926Y258749D01*
Y256250D01*
X463592D02*
Y259582D01*
X464426D01*
X465259Y258749D01*
Y256250D01*
Y258749D01*
X466092Y259582D01*
X466925Y258749D01*
Y256250D01*
X469424D02*
X471090D01*
X471923Y257083D01*
Y258749D01*
X471090Y259582D01*
X469424D01*
X468591Y258749D01*
Y257083D01*
X469424Y256250D01*
X476921Y261248D02*
Y256250D01*
X474422D01*
X473589Y257083D01*
Y258749D01*
X474422Y259582D01*
X476921D01*
X478587D02*
Y257083D01*
X479421Y256250D01*
X481920D01*
Y259582D01*
X483586Y256250D02*
X485252D01*
X484419D01*
Y261248D01*
X483586D01*
X488584Y259582D02*
X490250D01*
X491083Y258749D01*
Y256250D01*
X488584D01*
X487751Y257083D01*
X488584Y257916D01*
X491083D01*
X493583Y260415D02*
Y259582D01*
X492750D01*
X494416D01*
X493583D01*
Y257083D01*
X494416Y256250D01*
X499414D02*
X497748D01*
X496915Y257083D01*
Y258749D01*
X497748Y259582D01*
X499414D01*
X500247Y258749D01*
Y257916D01*
X496915D01*
X505246Y261248D02*
Y256250D01*
X502746D01*
X501913Y257083D01*
Y258749D01*
X502746Y259582D01*
X505246D01*
X511910Y261248D02*
Y256250D01*
X514409D01*
X515242Y257083D01*
Y260415D01*
X514409Y261248D01*
X511910D01*
X517741Y259582D02*
X519408D01*
X520241Y258749D01*
Y256250D01*
X517741D01*
X516908Y257083D01*
X517741Y257916D01*
X520241D01*
X522740Y260415D02*
Y259582D01*
X521907D01*
X523573D01*
X522740D01*
Y257083D01*
X523573Y256250D01*
X526905Y259582D02*
X528571D01*
X529404Y258749D01*
Y256250D01*
X526905D01*
X526072Y257083D01*
X526905Y257916D01*
X529404D01*
X553923Y4166D02*
Y7498D01*
X555589Y9165D01*
X557255Y7498D01*
Y4166D01*
Y6665D01*
X553923D01*
X558921Y4166D02*
Y7498D01*
X559754D01*
X560588Y6665D01*
Y4166D01*
Y6665D01*
X561421Y7498D01*
X562254Y6665D01*
Y4166D01*
X563920Y2500D02*
Y7498D01*
X566419D01*
X567252Y6665D01*
Y4999D01*
X566419Y4166D01*
X563920D01*
X568918D02*
X570584D01*
X569751D01*
Y9165D01*
X568918D01*
X573083Y4166D02*
X574750D01*
X573917D01*
Y7498D01*
X573083D01*
X578082Y4166D02*
Y8331D01*
Y6665D01*
X577249D01*
X578915D01*
X578082D01*
Y8331D01*
X578915Y9165D01*
X581414Y4166D02*
X583080D01*
X582247D01*
Y7498D01*
X581414D01*
X588079Y4166D02*
X586413D01*
X585579Y4999D01*
Y6665D01*
X586413Y7498D01*
X588079D01*
X588912Y6665D01*
Y5832D01*
X585579D01*
X590578Y7498D02*
Y4166D01*
Y5832D01*
X591411Y6665D01*
X592244Y7498D01*
X593077D01*
X98170Y180998D02*
X94838D01*
Y178499D01*
X96504Y179332D01*
X97337D01*
X98170Y178499D01*
Y176833D01*
X97337Y176000D01*
X95671D01*
X94838Y176833D01*
X99836Y180998D02*
Y177666D01*
X101503Y176000D01*
X103169Y177666D01*
Y180998D01*
X109833D02*
Y176000D01*
X113165D01*
X114831Y180998D02*
Y176000D01*
X117331D01*
X118164Y176833D01*
Y180165D01*
X117331Y180998D01*
X114831D01*
X122329D02*
X120663D01*
X119830Y180165D01*
Y176833D01*
X120663Y176000D01*
X122329D01*
X123162Y176833D01*
Y180165D01*
X122329Y180998D01*
X222917Y454646D02*
X219585D01*
Y452147D01*
X221251Y452980D01*
X222084D01*
X222917Y452147D01*
Y450481D01*
X222084Y449648D01*
X220418D01*
X219585Y450481D01*
X224583Y454646D02*
Y451314D01*
X226249Y449648D01*
X227915Y451314D01*
Y454646D01*
X213337Y446248D02*
X210005D01*
Y441250D01*
X213337D01*
X210005Y443749D02*
X211671D01*
X215003Y441250D02*
Y444582D01*
X217502D01*
X218335Y443749D01*
Y441250D01*
X220834Y444582D02*
X222500D01*
X223333Y443749D01*
Y441250D01*
X220834D01*
X220001Y442083D01*
X220834Y442916D01*
X223333D01*
X225000Y446248D02*
Y441250D01*
X227499D01*
X228332Y442083D01*
Y442916D01*
Y443749D01*
X227499Y444582D01*
X225000D01*
X229998Y441250D02*
X231664D01*
X230831D01*
Y446248D01*
X229998D01*
X236662Y441250D02*
X234996D01*
X234163Y442083D01*
Y443749D01*
X234996Y444582D01*
X236662D01*
X237495Y443749D01*
Y442916D01*
X234163D01*
X335085Y24165D02*
X335919Y24998D01*
X337585D01*
X338418Y24165D01*
Y23332D01*
X337585Y22499D01*
X336752D01*
X337585D01*
X338418Y21666D01*
Y20833D01*
X337585Y20000D01*
X335919D01*
X335085Y20833D01*
X340084Y24998D02*
Y21666D01*
X341750Y20000D01*
X343416Y21666D01*
Y24998D01*
X345082Y24165D02*
X345915Y24998D01*
X347581D01*
X348414Y24165D01*
Y23332D01*
X347581Y22499D01*
X346748D01*
X347581D01*
X348414Y21666D01*
Y20833D01*
X347581Y20000D01*
X345915D01*
X345082Y20833D01*
X609596Y397998D02*
Y393833D01*
X610429Y393000D01*
X612095D01*
X612928Y393833D01*
Y397998D01*
X614594Y393000D02*
Y396332D01*
X617093D01*
X617926Y395499D01*
Y393000D01*
X619592D02*
Y396332D01*
X620425D01*
X621259Y395499D01*
Y393000D01*
Y395499D01*
X622092Y396332D01*
X622925Y395499D01*
Y393000D01*
X625424D02*
X627090D01*
X627923Y393833D01*
Y395499D01*
X627090Y396332D01*
X625424D01*
X624591Y395499D01*
Y393833D01*
X625424Y393000D01*
X632921Y397998D02*
Y393000D01*
X630422D01*
X629589Y393833D01*
Y395499D01*
X630422Y396332D01*
X632921D01*
X634588D02*
Y393833D01*
X635421Y393000D01*
X637920D01*
Y396332D01*
X639586Y393000D02*
X641252D01*
X640419D01*
Y397998D01*
X639586D01*
X644584Y396332D02*
X646250D01*
X647084Y395499D01*
Y393000D01*
X644584D01*
X643751Y393833D01*
X644584Y394666D01*
X647084D01*
X649583Y397165D02*
Y396332D01*
X648750D01*
X650416D01*
X649583D01*
Y393833D01*
X650416Y393000D01*
X655414D02*
X653748D01*
X652915Y393833D01*
Y395499D01*
X653748Y396332D01*
X655414D01*
X656247Y395499D01*
Y394666D01*
X652915D01*
X661245Y397998D02*
Y393000D01*
X658746D01*
X657913Y393833D01*
Y395499D01*
X658746Y396332D01*
X661245D01*
X667910Y397998D02*
Y393000D01*
X670409D01*
X671242Y393833D01*
Y397165D01*
X670409Y397998D01*
X667910D01*
X673741Y396332D02*
X675407D01*
X676241Y395499D01*
Y393000D01*
X673741D01*
X672908Y393833D01*
X673741Y394666D01*
X676241D01*
X678740Y397165D02*
Y396332D01*
X677907D01*
X679573D01*
X678740D01*
Y393833D01*
X679573Y393000D01*
X682905Y396332D02*
X684571D01*
X685404Y395499D01*
Y393000D01*
X682905D01*
X682072Y393833D01*
X682905Y394666D01*
X685404D01*
X16835Y179668D02*
X16002Y178835D01*
Y177169D01*
X16835Y176336D01*
X20167D01*
X21000Y177169D01*
Y178835D01*
X20167Y179668D01*
X18501D01*
Y178002D01*
X21000Y181334D02*
X16002D01*
X21000Y184666D01*
X16002D01*
Y186332D02*
X21000D01*
Y188832D01*
X20167Y189665D01*
X16835D01*
X16002Y188832D01*
Y186332D01*
X753503Y223248D02*
X750171D01*
Y218250D01*
X753503D01*
X750171Y220749D02*
X751837D01*
X755169Y223248D02*
Y218250D01*
X757669D01*
X758502Y219083D01*
Y222415D01*
X757669Y223248D01*
X755169D01*
X767665D02*
X765999D01*
X765166Y222415D01*
Y219083D01*
X765999Y218250D01*
X767665D01*
X768498Y219083D01*
Y222415D01*
X767665Y223248D01*
X770164Y221582D02*
Y219083D01*
X770998Y218250D01*
X773497D01*
Y221582D01*
X775996Y222415D02*
Y221582D01*
X775163D01*
X776829D01*
X775996D01*
Y219083D01*
X776829Y218250D01*
X631084Y190166D02*
X634416D01*
X632750Y191832D02*
Y188500D01*
X766419Y281127D02*
X765585Y281961D01*
X763919D01*
X763086Y281127D01*
Y277795D01*
X763919Y276962D01*
X765585D01*
X766419Y277795D01*
X768918Y276962D02*
X770584D01*
X771417Y277795D01*
Y279461D01*
X770584Y280294D01*
X768918D01*
X768085Y279461D01*
Y277795D01*
X768918Y276962D01*
X773083D02*
Y280294D01*
X773916D01*
X774749Y279461D01*
Y276962D01*
Y279461D01*
X775582Y280294D01*
X776415Y279461D01*
Y276962D01*
X778081Y275296D02*
Y280294D01*
X780581D01*
X781414Y279461D01*
Y277795D01*
X780581Y276962D01*
X778081D01*
X773916Y266898D02*
X770584D01*
X773916Y270230D01*
Y271063D01*
X773083Y271896D01*
X771417D01*
X770584Y271063D01*
X763919Y263498D02*
Y260166D01*
X765585Y258500D01*
X767252Y260166D01*
Y263498D01*
X768918Y261832D02*
Y258500D01*
Y260166D01*
X769751Y260999D01*
X770584Y261832D01*
X771417D01*
X776415Y258500D02*
X774749D01*
X773916Y259333D01*
Y260999D01*
X774749Y261832D01*
X776415D01*
X777248Y260999D01*
Y260166D01*
X773916D01*
X779748Y258500D02*
Y262665D01*
Y260999D01*
X778914D01*
X780581D01*
X779748D01*
Y262665D01*
X780581Y263498D01*
X424168Y21165D02*
X423335Y21998D01*
X421669D01*
X420835Y21165D01*
Y17833D01*
X421669Y17000D01*
X423335D01*
X424168Y17833D01*
Y19499D01*
X422502D01*
X425834Y17000D02*
Y21998D01*
X429166Y17000D01*
Y21998D01*
X430832D02*
Y17000D01*
X433331D01*
X434165Y17833D01*
Y21165D01*
X433331Y21998D01*
X430832D01*
X515586Y62859D02*
Y57860D01*
X518085D01*
X518918Y58693D01*
Y59526D01*
X518085Y60359D01*
X515586D01*
X518085D01*
X518918Y61192D01*
Y62025D01*
X518085Y62859D01*
X515586D01*
X523916Y62025D02*
X523083Y62859D01*
X521417D01*
X520584Y62025D01*
Y58693D01*
X521417Y57860D01*
X523083D01*
X523916Y58693D01*
X528914Y62025D02*
X528081Y62859D01*
X526415D01*
X525582Y62025D01*
Y58693D01*
X526415Y57860D01*
X528081D01*
X528914Y58693D01*
X518085Y49462D02*
Y54461D01*
X520584D01*
X521417Y53628D01*
Y51961D01*
X520584Y51128D01*
X518085D01*
X519751D02*
X521417Y49462D01*
X523083Y54461D02*
X526415Y49462D01*
Y54461D02*
X523083Y49462D01*
X513503Y41064D02*
X511837Y42730D01*
Y44396D01*
X513503Y46062D01*
X516002Y41064D02*
Y44396D01*
X517668Y46062D01*
X519334Y44396D01*
Y41064D01*
Y43563D01*
X516002D01*
X522667Y39398D02*
X523500D01*
X524333Y40231D01*
Y44396D01*
X521833D01*
X521000Y43563D01*
Y41897D01*
X521833Y41064D01*
X524333D01*
X529331Y45229D02*
X528498Y46062D01*
X526832D01*
X525999Y45229D01*
Y41897D01*
X526832Y41064D01*
X528498D01*
X529331Y41897D01*
X530997Y41064D02*
X532663D01*
X531830D01*
Y46062D01*
X530997D01*
X513919Y31000D02*
Y35998D01*
X516419D01*
X517252Y35165D01*
Y33499D01*
X516419Y32666D01*
X513919D01*
X519751Y34332D02*
X521417D01*
X522250Y33499D01*
Y31000D01*
X519751D01*
X518918Y31833D01*
X519751Y32666D01*
X522250D01*
X527248Y35998D02*
Y31000D01*
X524749D01*
X523916Y31833D01*
Y33499D01*
X524749Y34332D01*
X527248D01*
X528914Y31000D02*
X530581Y32666D01*
Y34332D01*
X528914Y35998D01*
X600183Y509915D02*
Y504916D01*
X603516D01*
X605182D02*
X606848D01*
X606015D01*
Y508248D01*
X605182D01*
X609347Y504916D02*
Y508248D01*
X611846D01*
X612679Y507415D01*
Y504916D01*
X616011Y503250D02*
X616844D01*
X617678Y504083D01*
Y508248D01*
X615178D01*
X614345Y507415D01*
Y505749D01*
X615178Y504916D01*
X617678D01*
X619344D02*
Y509915D01*
Y506582D02*
X621843Y508248D01*
X619344Y506582D02*
X621843Y504916D01*
X626841D02*
X625175D01*
X624342Y505749D01*
Y507415D01*
X625175Y508248D01*
X626841D01*
X627674Y507415D01*
Y506582D01*
X624342D01*
X637671Y504916D02*
X636838Y505749D01*
X636005Y504916D01*
X635172D01*
X634339Y505749D01*
Y506582D01*
X635172Y507415D01*
X634339Y508248D01*
Y509081D01*
X635172Y509915D01*
X636005D01*
X636838Y509081D01*
Y508248D01*
X636005Y507415D01*
X636838Y506582D01*
Y505749D01*
X637671Y507415D02*
X636838Y506582D01*
X635172Y507415D02*
X636005D01*
X647668Y509915D02*
X646002D01*
X646835D01*
Y505749D01*
X646002Y504916D01*
X645169D01*
X644335Y505749D01*
X650167Y504916D02*
X651833D01*
X652666Y505749D01*
Y507415D01*
X651833Y508248D01*
X650167D01*
X649334Y507415D01*
Y505749D01*
X650167Y504916D01*
X654332D02*
Y508248D01*
X656831D01*
X657664Y507415D01*
Y504916D01*
X660164Y508248D02*
X661830D01*
X662663Y507415D01*
Y504916D01*
X660164D01*
X659331Y505749D01*
X660164Y506582D01*
X662663D01*
X665162Y509081D02*
Y508248D01*
X664329D01*
X665995D01*
X665162D01*
Y505749D01*
X665995Y504916D01*
X668494Y509915D02*
Y504916D01*
Y507415D01*
X669327Y508248D01*
X670993D01*
X671826Y507415D01*
Y504916D01*
X674326Y508248D02*
X675992D01*
X676825Y507415D01*
Y504916D01*
X674326D01*
X673493Y505749D01*
X674326Y506582D01*
X676825D01*
X678491Y504916D02*
Y508248D01*
X680990D01*
X681823Y507415D01*
Y504916D01*
X691820Y509915D02*
X688488D01*
Y507415D01*
X690154D01*
X688488D01*
Y504916D01*
X693486Y509915D02*
Y509081D01*
X695152Y507415D01*
X696818Y509081D01*
Y509915D01*
X695152Y507415D02*
Y504916D01*
X698484D02*
Y509915D01*
X700984D01*
X701817Y509081D01*
Y507415D01*
X700984Y506582D01*
X698484D01*
X594586Y368000D02*
Y372998D01*
X597085D01*
X597918Y372165D01*
Y370499D01*
X597085Y369666D01*
X594586D01*
X599584Y372998D02*
X601250D01*
X600417D01*
Y368000D01*
X599584D01*
X601250D01*
X606249Y372998D02*
X604583D01*
X603750Y372165D01*
Y368833D01*
X604583Y368000D01*
X606249D01*
X607082Y368833D01*
Y372165D01*
X606249Y372998D01*
X608748Y368000D02*
X610414D01*
X609581D01*
Y372998D01*
X608748Y372165D01*
X190585Y24563D02*
X191419Y25396D01*
X193085D01*
X193918Y24563D01*
Y23730D01*
X193085Y22897D01*
X192252D01*
X193085D01*
X193918Y22064D01*
Y21231D01*
X193085Y20398D01*
X191419D01*
X190585Y21231D01*
X195584Y25396D02*
Y22064D01*
X197250Y20398D01*
X198916Y22064D01*
Y25396D01*
X200582Y24563D02*
X201415Y25396D01*
X203081D01*
X203915Y24563D01*
Y23730D01*
X203081Y22897D01*
X202248D01*
X203081D01*
X203915Y22064D01*
Y21231D01*
X203081Y20398D01*
X201415D01*
X200582Y21231D01*
X186837Y16998D02*
X183505D01*
Y12000D01*
X186837D01*
X183505Y14499D02*
X185171D01*
X188503Y12000D02*
Y15332D01*
X191002D01*
X191835Y14499D01*
Y12000D01*
X194334Y15332D02*
X196000D01*
X196833Y14499D01*
Y12000D01*
X194334D01*
X193501Y12833D01*
X194334Y13666D01*
X196833D01*
X198500Y16998D02*
Y12000D01*
X200999D01*
X201832Y12833D01*
Y13666D01*
Y14499D01*
X200999Y15332D01*
X198500D01*
X203498Y12000D02*
X205164D01*
X204331D01*
Y16998D01*
X203498D01*
X210162Y12000D02*
X208496D01*
X207663Y12833D01*
Y14499D01*
X208496Y15332D01*
X210162D01*
X210996Y14499D01*
Y13666D01*
X207663D01*
X14104Y203340D02*
X18269D01*
X19102Y204173D01*
Y205839D01*
X18269Y206672D01*
X14104D01*
X14937Y211670D02*
X14104Y210837D01*
Y209171D01*
X14937Y208338D01*
X15770D01*
X16603Y209171D01*
Y210837D01*
X17436Y211670D01*
X18269D01*
X19102Y210837D01*
Y209171D01*
X18269Y208338D01*
X14104Y213336D02*
X19102D01*
Y215835D01*
X18269Y216669D01*
X17436D01*
X16603Y215835D01*
Y213336D01*
Y215835D01*
X15770Y216669D01*
X14937D01*
X14104Y215835D01*
Y213336D01*
Y226665D02*
Y223333D01*
X16603D01*
Y224999D01*
Y223333D01*
X19102D01*
X15770Y229165D02*
Y230831D01*
X16603Y231664D01*
X19102D01*
Y229165D01*
X18269Y228331D01*
X17436Y229165D01*
Y231664D01*
X15770Y236662D02*
Y234163D01*
X16603Y233330D01*
X18269D01*
X19102Y234163D01*
Y236662D01*
Y240827D02*
Y239161D01*
X18269Y238328D01*
X16603D01*
X15770Y239161D01*
Y240827D01*
X16603Y241660D01*
X17436D01*
Y238328D01*
X22502Y213336D02*
X27500D01*
X25001D01*
Y216669D01*
X22502D01*
X27500D01*
Y220834D02*
Y219168D01*
X26667Y218335D01*
X25001D01*
X24168Y219168D01*
Y220834D01*
X25001Y221667D01*
X25834D01*
Y218335D01*
X24168Y223333D02*
X27500D01*
X25834D01*
X25001Y224166D01*
X24168Y224999D01*
Y225832D01*
X27500Y230831D02*
Y229165D01*
X26667Y228331D01*
X25001D01*
X24168Y229165D01*
Y230831D01*
X25001Y231664D01*
X25834D01*
Y228331D01*
X542757Y204331D02*
X541923Y205165D01*
X540257D01*
X539424Y204331D01*
Y200999D01*
X540257Y200166D01*
X541923D01*
X542757Y200999D01*
X545256Y200166D02*
X546922D01*
X547755Y200999D01*
Y202665D01*
X546922Y203498D01*
X545256D01*
X544423Y202665D01*
Y200999D01*
X545256Y200166D01*
X549421D02*
Y203498D01*
X550254D01*
X551087Y202665D01*
Y200166D01*
Y202665D01*
X551920Y203498D01*
X552753Y202665D01*
Y200166D01*
X554419Y198500D02*
Y203498D01*
X556919D01*
X557752Y202665D01*
Y200999D01*
X556919Y200166D01*
X554419D01*
X560251Y203498D02*
X561917D01*
X562750Y202665D01*
Y200166D01*
X560251D01*
X559418Y200999D01*
X560251Y201832D01*
X562750D01*
X564416Y203498D02*
Y200166D01*
Y201832D01*
X565249Y202665D01*
X566082Y203498D01*
X566915D01*
X570248D02*
X571914D01*
X572747Y202665D01*
Y200166D01*
X570248D01*
X569414Y200999D01*
X570248Y201832D01*
X572747D01*
X575246Y204331D02*
Y203498D01*
X574413D01*
X576079D01*
X575246D01*
Y200999D01*
X576079Y200166D01*
X579411D02*
X581077D01*
X581910Y200999D01*
Y202665D01*
X581077Y203498D01*
X579411D01*
X578578Y202665D01*
Y200999D01*
X579411Y200166D01*
X583577Y203498D02*
Y200166D01*
Y201832D01*
X584410Y202665D01*
X585243Y203498D01*
X586076D01*
X256089Y181915D02*
X256922Y182748D01*
X258588D01*
X259421Y181915D01*
Y181082D01*
X258588Y180249D01*
X257755D01*
X258588D01*
X259421Y179416D01*
Y178583D01*
X258588Y177750D01*
X256922D01*
X256089Y178583D01*
X261087Y182748D02*
Y179416D01*
X262753Y177750D01*
X264419Y179416D01*
Y182748D01*
X266085Y181915D02*
X266919Y182748D01*
X268585D01*
X269418Y181915D01*
Y181082D01*
X268585Y180249D01*
X267752D01*
X268585D01*
X269418Y179416D01*
Y178583D01*
X268585Y177750D01*
X266919D01*
X266085Y178583D01*
X276082Y182748D02*
Y177750D01*
X279415D01*
X281081Y182748D02*
Y177750D01*
X283580D01*
X284413Y178583D01*
Y181915D01*
X283580Y182748D01*
X281081D01*
X288578D02*
X286912D01*
X286079Y181915D01*
Y178583D01*
X286912Y177750D01*
X288578D01*
X289411Y178583D01*
Y181915D01*
X288578Y182748D01*
X756668Y314170D02*
X755835Y313337D01*
Y311671D01*
X756668Y310838D01*
X760001D01*
X760834Y311671D01*
Y313337D01*
X760001Y314170D01*
X760834Y316669D02*
Y318336D01*
X760001Y319169D01*
X758335D01*
X757502Y318336D01*
Y316669D01*
X758335Y315836D01*
X760001D01*
X760834Y316669D01*
Y320835D02*
X757502D01*
Y321668D01*
X758335Y322501D01*
X760834D01*
X758335D01*
X757502Y323334D01*
X758335Y324167D01*
X760834D01*
X762500Y325833D02*
X757502D01*
Y328332D01*
X758335Y329165D01*
X760001D01*
X760834Y328332D01*
Y325833D01*
Y339162D02*
Y335830D01*
X757502Y339162D01*
X756668D01*
X755835Y338329D01*
Y336663D01*
X756668Y335830D01*
X551086Y496609D02*
Y491610D01*
X553585D01*
X554418Y492443D01*
Y493276D01*
X553585Y494109D01*
X551086D01*
X553585D01*
X554418Y494942D01*
Y495775D01*
X553585Y496609D01*
X551086D01*
X559416Y495775D02*
X558583Y496609D01*
X556917D01*
X556084Y495775D01*
Y492443D01*
X556917Y491610D01*
X558583D01*
X559416Y492443D01*
X561082Y491610D02*
Y496609D01*
X563581D01*
X564414Y495775D01*
Y494109D01*
X563581Y493276D01*
X561082D01*
X553585Y488210D02*
X556917D01*
X555251D01*
Y483212D01*
X558583Y488210D02*
X561915Y483212D01*
Y488210D02*
X558583Y483212D01*
X549003Y474814D02*
X547337Y476480D01*
Y478146D01*
X549003Y479813D01*
X551502Y474814D02*
Y478146D01*
X553168Y479813D01*
X554834Y478146D01*
Y474814D01*
Y477313D01*
X551502D01*
X558167Y473148D02*
X559000D01*
X559833Y473981D01*
Y478146D01*
X557333D01*
X556500Y477313D01*
Y475647D01*
X557333Y474814D01*
X559833D01*
X564831Y478979D02*
X563998Y479813D01*
X562332D01*
X561499Y478979D01*
Y475647D01*
X562332Y474814D01*
X563998D01*
X564831Y475647D01*
X566497Y474814D02*
X568163D01*
X567330D01*
Y479813D01*
X566497D01*
X549419Y464750D02*
Y469748D01*
X551919D01*
X552752Y468915D01*
Y467249D01*
X551919Y466416D01*
X549419D01*
X555251Y468082D02*
X556917D01*
X557750Y467249D01*
Y464750D01*
X555251D01*
X554418Y465583D01*
X555251Y466416D01*
X557750D01*
X562748Y469748D02*
Y464750D01*
X560249D01*
X559416Y465583D01*
Y467249D01*
X560249Y468082D01*
X562748D01*
X564414Y464750D02*
X566081Y466416D01*
Y468082D01*
X564414Y469748D01*
X2002Y274917D02*
Y271585D01*
X4501D01*
X3668Y273251D01*
Y274084D01*
X4501Y274917D01*
X6167D01*
X7000Y274084D01*
Y272418D01*
X6167Y271585D01*
X2002Y276583D02*
X5334D01*
X7000Y278249D01*
X5334Y279915D01*
X2002D01*
X615345Y540961D02*
X614512Y541794D01*
X612846D01*
X612013Y540961D01*
Y537629D01*
X612846Y536796D01*
X614512D01*
X615345Y537629D01*
X619511Y536796D02*
X617845D01*
X617011Y537629D01*
Y539295D01*
X617845Y540128D01*
X619511D01*
X620344Y539295D01*
Y538462D01*
X617011D01*
X622010Y536796D02*
Y540128D01*
X624509D01*
X625342Y539295D01*
Y536796D01*
X627841Y540961D02*
Y540128D01*
X627008D01*
X628674D01*
X627841D01*
Y537629D01*
X628674Y536796D01*
X631174Y540128D02*
Y536796D01*
Y538462D01*
X632006Y539295D01*
X632840Y540128D01*
X633673D01*
X637005D02*
X638671D01*
X639504Y539295D01*
Y536796D01*
X637005D01*
X636172Y537629D01*
X637005Y538462D01*
X639504D01*
X641170Y536796D02*
X642836D01*
X642003D01*
Y541794D01*
X641170D01*
X650334Y536796D02*
Y541794D01*
X653666Y536796D01*
Y541794D01*
X656165Y536796D02*
X657831D01*
X658664Y537629D01*
Y539295D01*
X657831Y540128D01*
X656165D01*
X655332Y539295D01*
Y537629D01*
X656165Y536796D01*
X663663Y541794D02*
Y536796D01*
X661164D01*
X660331Y537629D01*
Y539295D01*
X661164Y540128D01*
X663663D01*
X667828Y536796D02*
X666162D01*
X665329Y537629D01*
Y539295D01*
X666162Y540128D01*
X667828D01*
X668661Y539295D01*
Y538462D01*
X665329D01*
X675326Y541794D02*
Y538462D01*
X676992Y536796D01*
X678658Y538462D01*
Y541794D01*
X680324Y536796D02*
X681990D01*
X681157D01*
Y541794D01*
X680324Y540961D01*
X684489Y536796D02*
Y537629D01*
X685322D01*
Y536796D01*
X684489D01*
X688655Y540961D02*
X689488Y541794D01*
X691154D01*
X691987Y540961D01*
Y537629D01*
X691154Y536796D01*
X689488D01*
X688655Y537629D01*
Y540961D01*
X625759Y520000D02*
X627425D01*
X626592D01*
Y524998D01*
X625759Y524165D01*
X633256Y520000D02*
X629924D01*
X633256Y523332D01*
Y524165D01*
X632423Y524998D01*
X630757D01*
X629924Y524165D01*
X643253Y524998D02*
X639921D01*
Y522499D01*
X641587D01*
X639921D01*
Y520000D01*
X647418D02*
X645752D01*
X644919Y520833D01*
Y522499D01*
X645752Y523332D01*
X647418D01*
X648251Y522499D01*
Y521666D01*
X644919D01*
X649917Y524998D02*
Y520000D01*
X652417D01*
X653250Y520833D01*
Y521666D01*
Y522499D01*
X652417Y523332D01*
X649917D01*
X663246Y520000D02*
X659914D01*
X663246Y523332D01*
Y524165D01*
X662413Y524998D01*
X660747D01*
X659914Y524165D01*
X664912D02*
X665745Y524998D01*
X667412D01*
X668245Y524165D01*
Y520833D01*
X667412Y520000D01*
X665745D01*
X664912Y520833D01*
Y524165D01*
X673243Y520000D02*
X669911D01*
X673243Y523332D01*
Y524165D01*
X672410Y524998D01*
X670744D01*
X669911Y524165D01*
X678241Y520000D02*
X674909D01*
X678241Y523332D01*
Y524165D01*
X677408Y524998D01*
X675742D01*
X674909Y524165D01*
X733588Y394498D02*
Y389500D01*
X736087D01*
X736920Y390333D01*
Y391166D01*
X736087Y391999D01*
X733588D01*
X736087D01*
X736920Y392832D01*
Y393665D01*
X736087Y394498D01*
X733588D01*
X741919Y393665D02*
X741086Y394498D01*
X739419D01*
X738586Y393665D01*
Y390333D01*
X739419Y389500D01*
X741086D01*
X741919Y390333D01*
X746917Y393665D02*
X746084Y394498D01*
X744418D01*
X743585Y393665D01*
Y390333D01*
X744418Y389500D01*
X746084D01*
X746917Y390333D01*
X753581Y389500D02*
Y394498D01*
X756081D01*
X756914Y393665D01*
Y391999D01*
X756081Y391166D01*
X753581D01*
X755247D02*
X756914Y389500D01*
X758580Y394498D02*
X761912Y389500D01*
Y394498D02*
X758580Y389500D01*
X772418Y130753D02*
X771585Y129920D01*
Y128254D01*
X772418Y127421D01*
X775751D01*
X776584Y128254D01*
Y129920D01*
X775751Y130753D01*
X776584Y133252D02*
Y134919D01*
X775751Y135752D01*
X774084D01*
X773251Y134919D01*
Y133252D01*
X774084Y132419D01*
X775751D01*
X776584Y133252D01*
Y137418D02*
X773251D01*
Y138251D01*
X774084Y139084D01*
X776584D01*
X774084D01*
X773251Y139917D01*
X774084Y140750D01*
X776584D01*
X778250Y142416D02*
X773251D01*
Y144915D01*
X774084Y145748D01*
X775751D01*
X776584Y144915D01*
Y142416D01*
Y152413D02*
Y154079D01*
Y153246D01*
X771585D01*
X772418Y152413D01*
X764918Y102961D02*
X764085Y103794D01*
X762419D01*
X761585Y102961D01*
Y99629D01*
X762419Y98796D01*
X764085D01*
X764918Y99629D01*
X767417Y98796D02*
X769083D01*
X769916Y99629D01*
Y101295D01*
X769083Y102128D01*
X767417D01*
X766584Y101295D01*
Y99629D01*
X767417Y98796D01*
X771582D02*
Y102128D01*
X772415D01*
X773248Y101295D01*
Y98796D01*
Y101295D01*
X774081Y102128D01*
X774914Y101295D01*
Y98796D01*
X767417Y90398D02*
X769083D01*
X768250D01*
Y95396D01*
X767417Y94563D01*
X759919Y86998D02*
Y83666D01*
X761585Y82000D01*
X763252Y83666D01*
Y86998D01*
X764918Y85332D02*
Y82000D01*
Y83666D01*
X765751Y84499D01*
X766584Y85332D01*
X767417D01*
X772415Y82000D02*
X770749D01*
X769916Y82833D01*
Y84499D01*
X770749Y85332D01*
X772415D01*
X773248Y84499D01*
Y83666D01*
X769916D01*
X775748Y82000D02*
Y86165D01*
Y84499D01*
X774914D01*
X776581D01*
X775748D01*
Y86165D01*
X776581Y86998D01*
X21665Y378332D02*
X22498Y379165D01*
Y380831D01*
X21665Y381665D01*
X18333D01*
X17500Y380831D01*
Y379165D01*
X18333Y378332D01*
X19999D01*
Y379998D01*
X17500Y376666D02*
X22498D01*
X17500Y373334D01*
X22498D01*
Y371668D02*
X17500D01*
Y369169D01*
X18333Y368335D01*
X21665D01*
X22498Y369169D01*
Y371668D01*
X634430Y475403D02*
X632764D01*
X631931Y474570D01*
Y471238D01*
X632764Y470405D01*
X634430D01*
X635263Y471238D01*
Y474570D01*
X634430Y475403D01*
X636930Y468739D02*
Y473737D01*
X639429D01*
X640262Y472904D01*
Y471238D01*
X639429Y470405D01*
X636930D01*
X644427D02*
X642761D01*
X641928Y471238D01*
Y472904D01*
X642761Y473737D01*
X644427D01*
X645260Y472904D01*
Y472071D01*
X641928D01*
X646926Y473737D02*
Y470405D01*
Y472071D01*
X647759Y472904D01*
X648592Y473737D01*
X649426D01*
X652758D02*
X654424D01*
X655257Y472904D01*
Y470405D01*
X652758D01*
X651925Y471238D01*
X652758Y472071D01*
X655257D01*
X657756Y474570D02*
Y473737D01*
X656923D01*
X658589D01*
X657756D01*
Y471238D01*
X658589Y470405D01*
X661088D02*
X662755D01*
X661921D01*
Y473737D01*
X661088D01*
X666087Y470405D02*
X667753D01*
X668586Y471238D01*
Y472904D01*
X667753Y473737D01*
X666087D01*
X665254Y472904D01*
Y471238D01*
X666087Y470405D01*
X670252D02*
Y473737D01*
X672751D01*
X673584Y472904D01*
Y470405D01*
X683581Y474570D02*
X682748Y475403D01*
X681082D01*
X680249Y474570D01*
Y473737D01*
X681082Y472904D01*
X682748D01*
X683581Y472071D01*
Y471238D01*
X682748Y470405D01*
X681082D01*
X680249Y471238D01*
X687746Y470405D02*
X686080D01*
X685247Y471238D01*
Y472904D01*
X686080Y473737D01*
X687746D01*
X688579Y472904D01*
Y472071D01*
X685247D01*
X693578Y468739D02*
Y473737D01*
X691079D01*
X690246Y472904D01*
Y471238D01*
X691079Y470405D01*
X693578D01*
X695244Y473737D02*
Y471238D01*
X696077Y470405D01*
X698576D01*
Y473737D01*
X702741Y470405D02*
X701075D01*
X700242Y471238D01*
Y472904D01*
X701075Y473737D01*
X702741D01*
X703575Y472904D01*
Y472071D01*
X700242D01*
X705241Y470405D02*
Y473737D01*
X707740D01*
X708573Y472904D01*
Y470405D01*
X713571Y473737D02*
X711072D01*
X710239Y472904D01*
Y471238D01*
X711072Y470405D01*
X713571D01*
X717737D02*
X716070D01*
X715237Y471238D01*
Y472904D01*
X716070Y473737D01*
X717737D01*
X718570Y472904D01*
Y472071D01*
X715237D01*
X720236Y473737D02*
X721069D01*
Y472904D01*
X720236D01*
Y473737D01*
Y471238D02*
X721069D01*
Y470405D01*
X720236D01*
Y471238D01*
X582781Y451942D02*
X584447D01*
X583614D01*
Y456941D01*
X582781Y456108D01*
X586946Y451942D02*
Y452775D01*
X587779D01*
Y451942D01*
X586946D01*
X596110Y456941D02*
Y451942D01*
X598609D01*
X599442Y452775D01*
Y453609D01*
X598609Y454442D01*
X596110D01*
X598609D01*
X599442Y455275D01*
Y456108D01*
X598609Y456941D01*
X596110D01*
X604440Y456108D02*
X603607Y456941D01*
X601941D01*
X601108Y456108D01*
Y452775D01*
X601941Y451942D01*
X603607D01*
X604440Y452775D01*
X606106Y451942D02*
Y456941D01*
X608605D01*
X609439Y456108D01*
Y454442D01*
X608605Y453609D01*
X606106D01*
X616103Y456941D02*
X619435D01*
X617769D01*
Y451942D01*
X621101Y456941D02*
X624434Y451942D01*
Y456941D02*
X621101Y451942D01*
X633597Y456941D02*
X631931D01*
X631098Y456108D01*
Y452775D01*
X631931Y451942D01*
X633597D01*
X634430Y452775D01*
Y456108D01*
X633597Y456941D01*
X636096Y451942D02*
Y456941D01*
X639429Y451942D01*
Y456941D01*
X646926Y451942D02*
Y456108D01*
Y454442D01*
X646093D01*
X647759D01*
X646926D01*
Y456108D01*
X647759Y456941D01*
X651092Y451942D02*
X652758D01*
X653591Y452775D01*
Y454442D01*
X652758Y455275D01*
X651092D01*
X650259Y454442D01*
Y452775D01*
X651092Y451942D01*
X655257Y455275D02*
Y451942D01*
Y453609D01*
X656090Y454442D01*
X656923Y455275D01*
X657756D01*
X666087D02*
X667753D01*
X668586Y454442D01*
Y451942D01*
X666087D01*
X665254Y452775D01*
X666087Y453609D01*
X668586D01*
X676084Y451942D02*
Y456108D01*
Y454442D01*
X675250D01*
X676917D01*
X676084D01*
Y456108D01*
X676917Y456941D01*
X679416Y451942D02*
X681082D01*
X680249D01*
Y455275D01*
X679416D01*
X683581D02*
X686913Y451942D01*
X685247Y453609D01*
X686913Y455275D01*
X683581Y451942D01*
X693578Y450276D02*
Y455275D01*
X696077D01*
X696910Y454442D01*
Y452775D01*
X696077Y451942D01*
X693578D01*
X701075D02*
X699409D01*
X698576Y452775D01*
Y454442D01*
X699409Y455275D01*
X701075D01*
X701908Y454442D01*
Y453609D01*
X698576D01*
X703575Y455275D02*
Y451942D01*
Y453609D01*
X704408Y454442D01*
X705241Y455275D01*
X706074D01*
X708573Y451942D02*
X710239D01*
X709406D01*
Y455275D01*
X708573D01*
X713571Y451942D02*
X715237D01*
X716070Y452775D01*
Y454442D01*
X715237Y455275D01*
X713571D01*
X712738Y454442D01*
Y452775D01*
X713571Y451942D01*
X721069Y456941D02*
Y451942D01*
X718570D01*
X717737Y452775D01*
Y454442D01*
X718570Y455275D01*
X721069D01*
X723568Y451109D02*
X724401Y451942D01*
Y452775D01*
X723568D01*
Y451942D01*
X724401D01*
X723568Y451109D01*
X722735Y450276D01*
X733565Y456108D02*
Y455275D01*
X732732D01*
X734398D01*
X733565D01*
Y452775D01*
X734398Y451942D01*
X736897Y456941D02*
Y451942D01*
Y454442D01*
X737730Y455275D01*
X739396D01*
X740229Y454442D01*
Y451942D01*
X744395D02*
X742728D01*
X741895Y452775D01*
Y454442D01*
X742728Y455275D01*
X744395D01*
X745228Y454442D01*
Y453609D01*
X741895D01*
X746894Y451942D02*
Y455275D01*
X749393D01*
X750226Y454442D01*
Y451942D01*
X759390Y456941D02*
X757723D01*
X756890Y456108D01*
Y452775D01*
X757723Y451942D01*
X759390D01*
X760223Y452775D01*
Y456108D01*
X759390Y456941D01*
X765221D02*
X761889D01*
Y454442D01*
X763555D01*
X761889D01*
Y451942D01*
X770219Y456941D02*
X766887D01*
Y454442D01*
X768553D01*
X766887D01*
Y451942D01*
X585696Y441878D02*
X582364D01*
X585696Y445210D01*
Y446044D01*
X584863Y446877D01*
X583197D01*
X582364Y446044D01*
X587363Y441878D02*
Y442711D01*
X588195D01*
Y441878D01*
X587363D01*
X596526Y446877D02*
Y441878D01*
X599025D01*
X599858Y442711D01*
Y443544D01*
X599025Y444378D01*
X596526D01*
X599025D01*
X599858Y445210D01*
Y446044D01*
X599025Y446877D01*
X596526D01*
X604857Y446044D02*
X604024Y446877D01*
X602358D01*
X601525Y446044D01*
Y442711D01*
X602358Y441878D01*
X604024D01*
X604857Y442711D01*
X609855Y446044D02*
X609022Y446877D01*
X607356D01*
X606523Y446044D01*
Y442711D01*
X607356Y441878D01*
X609022D01*
X609855Y442711D01*
X616520Y441878D02*
Y446877D01*
X619019D01*
X619852Y446044D01*
Y444378D01*
X619019Y443544D01*
X616520D01*
X618186D02*
X619852Y441878D01*
X621518Y446877D02*
X624850Y441878D01*
Y446877D02*
X621518Y441878D01*
X634014Y446877D02*
X632348D01*
X631515Y446044D01*
Y442711D01*
X632348Y441878D01*
X634014D01*
X634847Y442711D01*
Y446044D01*
X634014Y446877D01*
X636513Y441878D02*
Y445210D01*
X639012D01*
X639845Y444378D01*
Y441878D01*
X647343D02*
Y446044D01*
Y444378D01*
X646510D01*
X648176D01*
X647343D01*
Y446044D01*
X648176Y446877D01*
X651508Y441878D02*
X653174D01*
X654007Y442711D01*
Y444378D01*
X653174Y445210D01*
X651508D01*
X650675Y444378D01*
Y442711D01*
X651508Y441878D01*
X655674Y445210D02*
Y441878D01*
Y443544D01*
X656507Y444378D01*
X657340Y445210D01*
X658173D01*
X666503D02*
X668169D01*
X669002Y444378D01*
Y441878D01*
X666503D01*
X665670Y442711D01*
X666503Y443544D01*
X669002D01*
X676500Y441878D02*
Y446044D01*
Y444378D01*
X675667D01*
X677333D01*
X676500D01*
Y446044D01*
X677333Y446877D01*
X679832Y441878D02*
X681498D01*
X680665D01*
Y445210D01*
X679832D01*
X683998D02*
X687330Y441878D01*
X685664Y443544D01*
X687330Y445210D01*
X683998Y441878D01*
X693994Y440212D02*
Y445210D01*
X696494D01*
X697327Y444378D01*
Y442711D01*
X696494Y441878D01*
X693994D01*
X701492D02*
X699826D01*
X698993Y442711D01*
Y444378D01*
X699826Y445210D01*
X701492D01*
X702325Y444378D01*
Y443544D01*
X698993D01*
X703991Y445210D02*
Y441878D01*
Y443544D01*
X704824Y444378D01*
X705657Y445210D01*
X706490D01*
X708989Y441878D02*
X710656D01*
X709822D01*
Y445210D01*
X708989D01*
X713988Y441878D02*
X715654D01*
X716487Y442711D01*
Y444378D01*
X715654Y445210D01*
X713988D01*
X713155Y444378D01*
Y442711D01*
X713988Y441878D01*
X721485Y446877D02*
Y441878D01*
X718986D01*
X718153Y442711D01*
Y444378D01*
X718986Y445210D01*
X721485D01*
X723985Y441045D02*
X724818Y441878D01*
Y442711D01*
X723985D01*
Y441878D01*
X724818D01*
X723985Y441045D01*
X723151Y440212D01*
X733981Y446044D02*
Y445210D01*
X733148D01*
X734814D01*
X733981D01*
Y442711D01*
X734814Y441878D01*
X737314Y446877D02*
Y441878D01*
Y444378D01*
X738147Y445210D01*
X739813D01*
X740646Y444378D01*
Y441878D01*
X744811D02*
X743145D01*
X742312Y442711D01*
Y444378D01*
X743145Y445210D01*
X744811D01*
X745644Y444378D01*
Y443544D01*
X742312D01*
X747310Y441878D02*
Y445210D01*
X749809D01*
X750642Y444378D01*
Y441878D01*
X759806Y446877D02*
X758140D01*
X757307Y446044D01*
Y442711D01*
X758140Y441878D01*
X759806D01*
X760639Y442711D01*
Y446044D01*
X759806Y446877D01*
X765638D02*
X762305D01*
Y444378D01*
X763971D01*
X762305D01*
Y441878D01*
X770636Y446877D02*
X767304D01*
Y444378D01*
X768970D01*
X767304D01*
Y441878D01*
X613604Y428414D02*
X616936D01*
X615270D01*
Y423416D01*
X618602Y428414D02*
Y423416D01*
Y425915D01*
X619435Y426748D01*
X621101D01*
X621935Y425915D01*
Y423416D01*
X626100D02*
X624434D01*
X623601Y424249D01*
Y425915D01*
X624434Y426748D01*
X626100D01*
X626933Y425915D01*
Y425082D01*
X623601D01*
X628599Y423416D02*
Y426748D01*
X631098D01*
X631931Y425915D01*
Y423416D01*
X641928Y426748D02*
X639429D01*
X638596Y425915D01*
Y424249D01*
X639429Y423416D01*
X641928D01*
X643594Y426748D02*
Y424249D01*
X644427Y423416D01*
X646926D01*
Y422583D01*
X646093Y421750D01*
X645260D01*
X646926Y423416D02*
Y426748D01*
X651925D02*
X649426D01*
X648592Y425915D01*
Y424249D01*
X649426Y423416D01*
X651925D01*
X653591D02*
X655257D01*
X654424D01*
Y428414D01*
X653591D01*
X660255Y423416D02*
X658589D01*
X657756Y424249D01*
Y425915D01*
X658589Y426748D01*
X660255D01*
X661088Y425915D01*
Y425082D01*
X657756D01*
X667753Y428414D02*
Y423416D01*
X670252D01*
X671085Y424249D01*
Y425082D01*
Y425915D01*
X670252Y426748D01*
X667753D01*
X675250Y423416D02*
X673584D01*
X672751Y424249D01*
Y425915D01*
X673584Y426748D01*
X675250D01*
X676084Y425915D01*
Y425082D01*
X672751D01*
X678583Y427581D02*
Y426748D01*
X677750D01*
X679416D01*
X678583D01*
Y424249D01*
X679416Y423416D01*
X681915Y426748D02*
Y424249D01*
X682748Y423416D01*
X683581Y424249D01*
X684414Y423416D01*
X685247Y424249D01*
Y426748D01*
X689412Y423416D02*
X687746D01*
X686913Y424249D01*
Y425915D01*
X687746Y426748D01*
X689412D01*
X690246Y425915D01*
Y425082D01*
X686913D01*
X694411Y423416D02*
X692745D01*
X691912Y424249D01*
Y425915D01*
X692745Y426748D01*
X694411D01*
X695244Y425915D01*
Y425082D01*
X691912D01*
X696910Y423416D02*
Y426748D01*
X699409D01*
X700242Y425915D01*
Y423416D01*
X706907D02*
X708573D01*
X707740D01*
Y428414D01*
X706907Y427581D01*
X716904Y426748D02*
X718570D01*
X719403Y425915D01*
Y423416D01*
X716904D01*
X716070Y424249D01*
X716904Y425082D01*
X719403D01*
X721069Y423416D02*
Y426748D01*
X723568D01*
X724401Y425915D01*
Y423416D01*
X729399Y428414D02*
Y423416D01*
X726900D01*
X726067Y424249D01*
Y425915D01*
X726900Y426748D01*
X729399D01*
X739396Y423416D02*
X736064D01*
X739396Y426748D01*
Y427581D01*
X738563Y428414D01*
X736897D01*
X736064Y427581D01*
X146838Y548748D02*
Y543750D01*
X149337D01*
X150170Y544583D01*
Y545416D01*
X149337Y546249D01*
X146838D01*
X149337D01*
X150170Y547082D01*
Y547915D01*
X149337Y548748D01*
X146838D01*
X155169Y547915D02*
X154335Y548748D01*
X152669D01*
X151836Y547915D01*
Y544583D01*
X152669Y543750D01*
X154335D01*
X155169Y544583D01*
X156835Y543750D02*
Y548748D01*
X159334D01*
X160167Y547915D01*
Y546249D01*
X159334Y545416D01*
X156835D01*
X166831Y548748D02*
X170164D01*
X168498D01*
Y543750D01*
X171830Y548748D02*
X175162Y543750D01*
Y548748D02*
X171830Y543750D01*
X694172Y96666D02*
Y99998D01*
X695838Y101664D01*
X697504Y99998D01*
Y96666D01*
Y99165D01*
X694172D01*
X699170Y96666D02*
Y99998D01*
X700003D01*
X700836Y99165D01*
Y96666D01*
Y99165D01*
X701669Y99998D01*
X702503Y99165D01*
Y96666D01*
X704169Y95000D02*
Y99998D01*
X706668D01*
X707501Y99165D01*
Y97499D01*
X706668Y96666D01*
X704169D01*
X714998D02*
X716665D01*
X717498Y97499D01*
Y99165D01*
X716665Y99998D01*
X714998D01*
X714165Y99165D01*
Y97499D01*
X714998Y96666D01*
X719164Y99998D02*
Y97499D01*
X719997Y96666D01*
X722496D01*
Y99998D01*
X724995Y100831D02*
Y99998D01*
X724162D01*
X725828D01*
X724995D01*
Y97499D01*
X725828Y96666D01*
X25748Y456498D02*
X22416D01*
X20750Y454832D01*
X22416Y453166D01*
X25748D01*
X20750Y451500D02*
Y449833D01*
Y450667D01*
X24082D01*
Y451500D01*
X20750Y447334D02*
X24082D01*
Y444835D01*
X23249Y444002D01*
X20750D01*
X142420Y462498D02*
X139088D01*
Y459999D01*
X140754Y460832D01*
X141587D01*
X142420Y459999D01*
Y458333D01*
X141587Y457500D01*
X139921D01*
X139088Y458333D01*
X144086Y462498D02*
Y459166D01*
X145752Y457500D01*
X147419Y459166D01*
Y462498D01*
X154083D02*
Y457500D01*
X157415D01*
X159081Y462498D02*
Y457500D01*
X161581D01*
X162414Y458333D01*
Y461665D01*
X161581Y462498D01*
X159081D01*
X166579D02*
X164913D01*
X164080Y461665D01*
Y458333D01*
X164913Y457500D01*
X166579D01*
X167412Y458333D01*
Y461665D01*
X166579Y462498D01*
X754253Y205229D02*
X753420Y206063D01*
X751754D01*
X750921Y205229D01*
Y201897D01*
X751754Y201064D01*
X753420D01*
X754253Y201897D01*
X756752Y201064D02*
X758419D01*
X759252Y201897D01*
Y203563D01*
X758419Y204396D01*
X756752D01*
X755919Y203563D01*
Y201897D01*
X756752Y201064D01*
X760918D02*
Y204396D01*
X761751D01*
X762584Y203563D01*
Y201064D01*
Y203563D01*
X763417Y204396D01*
X764250Y203563D01*
Y201064D01*
X765916Y199398D02*
Y204396D01*
X768415D01*
X769248Y203563D01*
Y201897D01*
X768415Y201064D01*
X765916D01*
X775913D02*
X777579D01*
X776746D01*
Y206063D01*
X775913Y205229D01*
X760918Y195998D02*
X759252D01*
X758419Y195165D01*
Y191833D01*
X759252Y191000D01*
X760918D01*
X761751Y191833D01*
Y195165D01*
X760918Y195998D01*
X763417Y194332D02*
Y191833D01*
X764250Y191000D01*
X766749D01*
Y194332D01*
X769248Y195165D02*
Y194332D01*
X768415D01*
X770081D01*
X769248D01*
Y191833D01*
X770081Y191000D01*
X290167Y24748D02*
X286835D01*
Y22249D01*
X288501Y23082D01*
X289334D01*
X290167Y22249D01*
Y20583D01*
X289334Y19750D01*
X287668D01*
X286835Y20583D01*
X291833Y24748D02*
Y21416D01*
X293499Y19750D01*
X295165Y21416D01*
Y24748D01*
X88089Y23998D02*
X84757D01*
Y21499D01*
X86423Y22332D01*
X87256D01*
X88089Y21499D01*
Y19833D01*
X87256Y19000D01*
X85590D01*
X84757Y19833D01*
X89755Y23998D02*
Y20666D01*
X91421Y19000D01*
X93088Y20666D01*
Y23998D01*
X103084D02*
X99752D01*
Y19000D01*
X103084D01*
X99752Y21499D02*
X101418D01*
X104750Y19000D02*
Y22332D01*
X107250D01*
X108083Y21499D01*
Y19000D01*
X110582Y22332D02*
X112248D01*
X113081Y21499D01*
Y19000D01*
X110582D01*
X109749Y19833D01*
X110582Y20666D01*
X113081D01*
X114747Y23998D02*
Y19000D01*
X117246D01*
X118079Y19833D01*
Y20666D01*
Y21499D01*
X117246Y22332D01*
X114747D01*
X119746Y19000D02*
X121412D01*
X120578D01*
Y23998D01*
X119746D01*
X126410Y19000D02*
X124744D01*
X123911Y19833D01*
Y21499D01*
X124744Y22332D01*
X126410D01*
X127243Y21499D01*
Y20666D01*
X123911D01*
X20582Y317250D02*
X17250D01*
X20582Y320582D01*
Y321415D01*
X19749Y322248D01*
X18083D01*
X17250Y321415D01*
X24748Y317250D02*
Y322248D01*
X22248Y319749D01*
X25581D01*
X602250Y277250D02*
X603916D01*
X603083D01*
Y282248D01*
X602250Y281415D01*
X371250Y277750D02*
X372916D01*
X372083D01*
Y282748D01*
X371250Y281915D01*
X375415D02*
X376248Y282748D01*
X377915D01*
X378748Y281915D01*
Y278583D01*
X377915Y277750D01*
X376248D01*
X375415Y278583D01*
Y281915D01*
X227965Y71642D02*
X232250D01*
X230108Y69500D02*
Y73785D01*
X20332Y167000D02*
X17000D01*
X20332Y170332D01*
Y171165D01*
X19499Y171998D01*
X17833D01*
X17000Y171165D01*
X24497Y167000D02*
Y171998D01*
X21998Y169499D01*
X25331D01*
X601500Y124250D02*
X603166D01*
X602333D01*
Y129248D01*
X601500Y128415D01*
X370250Y124750D02*
X371916D01*
X371083D01*
Y129748D01*
X370250Y128915D01*
X374415D02*
X375248Y129748D01*
X376914D01*
X377748Y128915D01*
Y125583D01*
X376914Y124750D01*
X375248D01*
X374415Y125583D01*
Y128915D01*
X78535Y72608D02*
X74250D01*
X76392Y74750D02*
Y70465D01*
X198858Y442215D02*
Y446500D01*
X201000Y444358D02*
X196715D01*
X20332Y75750D02*
X17000D01*
X20332Y79082D01*
Y79915D01*
X19499Y80748D01*
X17833D01*
X17000Y79915D01*
X24497Y75750D02*
Y80748D01*
X21998Y78249D01*
X25331D01*
X370250Y74500D02*
X371916D01*
X371083D01*
Y79498D01*
X370250Y78665D01*
X374415D02*
X375248Y79498D01*
X376914D01*
X377748Y78665D01*
Y75333D01*
X376914Y74500D01*
X375248D01*
X374415Y75333D01*
Y78665D01*
X601750Y74250D02*
X603416D01*
X602583D01*
Y79248D01*
X601750Y78415D01*
X20832Y327000D02*
X17500D01*
X20832Y330332D01*
Y331165D01*
X19999Y331998D01*
X18333D01*
X17500Y331165D01*
X24997Y327000D02*
Y331998D01*
X22498Y329499D01*
X25831D01*
X371250Y326750D02*
X372916D01*
X372083D01*
Y331748D01*
X371250Y330915D01*
X375415D02*
X376248Y331748D01*
X377915D01*
X378748Y330915D01*
Y327583D01*
X377915Y326750D01*
X376248D01*
X375415Y327583D01*
Y330915D01*
X601750Y327000D02*
X603416D01*
X602583D01*
Y331998D01*
X601750Y331165D01*
X739836Y284749D02*
X743168D01*
X741502D01*
Y279751D01*
X744834D02*
Y284749D01*
X747333D01*
X748166Y283916D01*
Y282250D01*
X747333Y281417D01*
X744834D01*
X753165Y284749D02*
X751498Y283916D01*
X749832Y282250D01*
Y280584D01*
X750665Y279751D01*
X752331D01*
X753165Y280584D01*
Y281417D01*
X752331Y282250D01*
X749832D01*
X648380Y311172D02*
X651712D01*
X650046D01*
Y306174D01*
X653378D02*
Y311172D01*
X655878D01*
X656711Y310339D01*
Y308673D01*
X655878Y307840D01*
X653378D01*
X661709Y311172D02*
X658377D01*
Y308673D01*
X660043Y309506D01*
X660876D01*
X661709Y308673D01*
Y307007D01*
X660876Y306174D01*
X659210D01*
X658377Y307007D01*
X713085Y222749D02*
X716418D01*
X714752D01*
Y217751D01*
X718084D02*
Y222749D01*
X720583D01*
X721416Y221916D01*
Y220250D01*
X720583Y219417D01*
X718084D01*
X725581Y217751D02*
Y222749D01*
X723082Y220250D01*
X726414D01*
X714085Y203249D02*
X717418D01*
X715752D01*
Y198251D01*
X719084D02*
Y203249D01*
X721583D01*
X722416Y202416D01*
Y200750D01*
X721583Y199917D01*
X719084D01*
X724082Y202416D02*
X724915Y203249D01*
X726581D01*
X727414Y202416D01*
Y201583D01*
X726581Y200750D01*
X725748D01*
X726581D01*
X727414Y199917D01*
Y199084D01*
X726581Y198251D01*
X724915D01*
X724082Y199084D01*
X740835Y86749D02*
X744168D01*
X742502D01*
Y81751D01*
X745834D02*
Y86749D01*
X748333D01*
X749166Y85916D01*
Y84250D01*
X748333Y83417D01*
X745834D01*
X754165Y81751D02*
X750832D01*
X754165Y85083D01*
Y85916D01*
X753331Y86749D01*
X751665D01*
X750832Y85916D01*
X717919Y86999D02*
X721251D01*
X719585D01*
Y82001D01*
X722917D02*
Y86999D01*
X725416D01*
X726249Y86166D01*
Y84500D01*
X725416Y83667D01*
X722917D01*
X727915Y82001D02*
X729581D01*
X728748D01*
Y86999D01*
X727915Y86166D01*
X72562Y456714D02*
X74228D01*
X73395D01*
Y451716D01*
X72562D01*
X74228D01*
X80060Y455881D02*
X79226Y456714D01*
X77560D01*
X76727Y455881D01*
Y452549D01*
X77560Y451716D01*
X79226D01*
X80060Y452549D01*
X81726Y455881D02*
X82559Y456714D01*
X84225D01*
X85058Y455881D01*
Y455048D01*
X84225Y454215D01*
X83392D01*
X84225D01*
X85058Y453382D01*
Y452549D01*
X84225Y451716D01*
X82559D01*
X81726Y452549D01*
X722585Y8501D02*
Y13499D01*
X724251Y11833D01*
X725917Y13499D01*
Y8501D01*
X730915Y13499D02*
X727583D01*
Y11000D01*
X729249Y11833D01*
X730082D01*
X730915Y11000D01*
Y9334D01*
X730082Y8501D01*
X728416D01*
X727583Y9334D01*
X721585Y548251D02*
Y553249D01*
X723251Y551583D01*
X724917Y553249D01*
Y548251D01*
X729082D02*
Y553249D01*
X726583Y550750D01*
X729915D01*
X64585Y547251D02*
Y552249D01*
X66251Y550583D01*
X67917Y552249D01*
Y547251D01*
X69583Y551416D02*
X70416Y552249D01*
X72082D01*
X72915Y551416D01*
Y550583D01*
X72082Y549750D01*
X71249D01*
X72082D01*
X72915Y548917D01*
Y548084D01*
X72082Y547251D01*
X70416D01*
X69583Y548084D01*
X3335Y60501D02*
Y65499D01*
X5001Y63833D01*
X6667Y65499D01*
Y60501D01*
X11665D02*
X8333D01*
X11665Y63833D01*
Y64666D01*
X10832Y65499D01*
X9166D01*
X8333Y64666D01*
X259252Y444014D02*
Y443181D01*
X260918Y441515D01*
X262584Y443181D01*
Y444014D01*
X260918Y441515D02*
Y439016D01*
X264250D02*
X265917D01*
X265083D01*
Y444014D01*
X264250Y443181D01*
X110252Y463751D02*
Y468749D01*
X112751D01*
X113584Y467916D01*
Y466250D01*
X112751Y465417D01*
X110252D01*
X111918D02*
X113584Y463751D01*
X115250D02*
X116917D01*
X116083D01*
Y468749D01*
X115250Y467916D01*
X119416D02*
X120249Y468749D01*
X121915D01*
X122748Y467916D01*
Y467083D01*
X121915Y466250D01*
X121082D01*
X121915D01*
X122748Y465417D01*
Y464584D01*
X121915Y463751D01*
X120249D01*
X119416Y464584D01*
X736502Y248001D02*
Y252999D01*
X739001D01*
X739834Y252166D01*
Y250500D01*
X739001Y249667D01*
X736502D01*
X738168D02*
X739834Y248001D01*
X741500D02*
X743167D01*
X742334D01*
Y252999D01*
X741500Y252166D01*
X748998Y248001D02*
X745666D01*
X748998Y251333D01*
Y252166D01*
X748165Y252999D01*
X746499D01*
X745666Y252166D01*
X675558Y365610D02*
Y370608D01*
X678057D01*
X678890Y369775D01*
Y368109D01*
X678057Y367276D01*
X675558D01*
X677224D02*
X678890Y365610D01*
X680556D02*
X682223D01*
X681389D01*
Y370608D01*
X680556Y369775D01*
X684722Y365610D02*
X686388D01*
X685555D01*
Y370608D01*
X684722Y369775D01*
X474002Y470501D02*
Y475499D01*
X476501D01*
X477334Y474666D01*
Y473000D01*
X476501Y472167D01*
X474002D01*
X475668D02*
X477334Y470501D01*
X479000D02*
X480667D01*
X479833D01*
Y475499D01*
X479000Y474666D01*
X483166D02*
X483999Y475499D01*
X485665D01*
X486498Y474666D01*
Y471334D01*
X485665Y470501D01*
X483999D01*
X483166Y471334D01*
Y474666D01*
X684956Y204574D02*
Y209572D01*
X687455D01*
X688288Y208739D01*
Y207073D01*
X687455Y206240D01*
X684956D01*
X686622D02*
X688288Y204574D01*
X689954Y205407D02*
X690787Y204574D01*
X692454D01*
X693287Y205407D01*
Y208739D01*
X692454Y209572D01*
X690787D01*
X689954Y208739D01*
Y207906D01*
X690787Y207073D01*
X693287D01*
X769585Y164251D02*
Y169249D01*
X772084D01*
X772917Y168416D01*
Y166750D01*
X772084Y165917D01*
X769585D01*
X771251D02*
X772917Y164251D01*
X774583Y168416D02*
X775416Y169249D01*
X777082D01*
X777915Y168416D01*
Y167583D01*
X777082Y166750D01*
X777915Y165917D01*
Y165084D01*
X777082Y164251D01*
X775416D01*
X774583Y165084D01*
Y165917D01*
X775416Y166750D01*
X774583Y167583D01*
Y168416D01*
X775416Y166750D02*
X777082D01*
X694585Y215808D02*
Y220807D01*
X697084D01*
X697917Y219974D01*
Y218307D01*
X697084Y217474D01*
X694585D01*
X696251D02*
X697917Y215808D01*
X699583Y220807D02*
X702915D01*
Y219974D01*
X699583Y216641D01*
Y215808D01*
X620085Y18751D02*
Y23749D01*
X622584D01*
X623417Y22916D01*
Y21250D01*
X622584Y20417D01*
X620085D01*
X621751D02*
X623417Y18751D01*
X628415Y23749D02*
X626749Y22916D01*
X625083Y21250D01*
Y19584D01*
X625916Y18751D01*
X627582D01*
X628415Y19584D01*
Y20417D01*
X627582Y21250D01*
X625083D01*
X696835Y18501D02*
Y23499D01*
X699334D01*
X700167Y22666D01*
Y21000D01*
X699334Y20167D01*
X696835D01*
X698501D02*
X700167Y18501D01*
X705165Y23499D02*
X701833D01*
Y21000D01*
X703499Y21833D01*
X704332D01*
X705165Y21000D01*
Y19334D01*
X704332Y18501D01*
X702666D01*
X701833Y19334D01*
X587585Y55501D02*
Y60499D01*
X590084D01*
X590917Y59666D01*
Y58000D01*
X590084Y57167D01*
X587585D01*
X589251D02*
X590917Y55501D01*
X595082D02*
Y60499D01*
X592583Y58000D01*
X595915D01*
X142335Y70501D02*
Y75499D01*
X144834D01*
X145667Y74666D01*
Y73000D01*
X144834Y72167D01*
X142335D01*
X144001D02*
X145667Y70501D01*
X147333Y74666D02*
X148166Y75499D01*
X149832D01*
X150665Y74666D01*
Y73833D01*
X149832Y73000D01*
X148999D01*
X149832D01*
X150665Y72167D01*
Y71334D01*
X149832Y70501D01*
X148166D01*
X147333Y71334D01*
X193835Y373751D02*
Y378749D01*
X196334D01*
X197167Y377916D01*
Y376250D01*
X196334Y375417D01*
X193835D01*
X195501D02*
X197167Y373751D01*
X202165D02*
X198833D01*
X202165Y377083D01*
Y377916D01*
X201332Y378749D01*
X199666D01*
X198833Y377916D01*
X158918Y70751D02*
Y75749D01*
X161417D01*
X162250Y74916D01*
Y73250D01*
X161417Y72417D01*
X158918D01*
X160584D02*
X162250Y70751D01*
X163916D02*
X165582D01*
X164749D01*
Y75749D01*
X163916Y74916D01*
X2458Y119484D02*
Y124482D01*
X4957D01*
X5790Y123649D01*
Y121983D01*
X4957Y121150D01*
X2458D01*
X7456Y119484D02*
X9122D01*
X8289D01*
Y124482D01*
X7456Y123649D01*
X11622D02*
X12455Y124482D01*
X14121D01*
X14954Y123649D01*
Y120317D01*
X14121Y119484D01*
X12455D01*
X11622Y120317D01*
Y123649D01*
X2458Y371706D02*
Y376704D01*
X4957D01*
X5790Y375871D01*
Y374205D01*
X4957Y373372D01*
X2458D01*
X7456Y372539D02*
X8289Y371706D01*
X9956D01*
X10789Y372539D01*
Y375871D01*
X9956Y376704D01*
X8289D01*
X7456Y375871D01*
Y375038D01*
X8289Y374205D01*
X10789D01*
X528835Y530001D02*
Y534999D01*
X531334D01*
X532167Y534166D01*
Y532500D01*
X531334Y531667D01*
X528835D01*
X533833Y534166D02*
X534666Y534999D01*
X536332D01*
X537165Y534166D01*
Y533333D01*
X536332Y532500D01*
X537165Y531667D01*
Y530834D01*
X536332Y530001D01*
X534666D01*
X533833Y530834D01*
Y531667D01*
X534666Y532500D01*
X533833Y533333D01*
Y534166D01*
X534666Y532500D02*
X536332D01*
X541192Y68176D02*
Y73174D01*
X543691D01*
X544524Y72341D01*
Y70675D01*
X543691Y69842D01*
X541192D01*
X546190Y73174D02*
X549523D01*
Y72341D01*
X546190Y69009D01*
Y68176D01*
X67085Y43251D02*
Y48249D01*
X69584D01*
X70417Y47416D01*
Y45750D01*
X69584Y44917D01*
X67085D01*
X75415Y48249D02*
X73749Y47416D01*
X72083Y45750D01*
Y44084D01*
X72916Y43251D01*
X74582D01*
X75415Y44084D01*
Y44917D01*
X74582Y45750D01*
X72083D01*
X154585Y50751D02*
Y55749D01*
X157084D01*
X157917Y54916D01*
Y53250D01*
X157084Y52417D01*
X154585D01*
X162915Y55749D02*
X159583D01*
Y53250D01*
X161249Y54083D01*
X162082D01*
X162915Y53250D01*
Y51584D01*
X162082Y50751D01*
X160416D01*
X159583Y51584D01*
X210585Y370001D02*
Y374999D01*
X213084D01*
X213917Y374166D01*
Y372500D01*
X213084Y371667D01*
X210585D01*
X218082Y370001D02*
Y374999D01*
X215583Y372500D01*
X218915D01*
X6014Y446636D02*
Y451634D01*
X8513D01*
X9346Y450801D01*
Y449135D01*
X8513Y448302D01*
X6014D01*
X11012Y450801D02*
X11845Y451634D01*
X13512D01*
X14345Y450801D01*
Y449968D01*
X13512Y449135D01*
X12679D01*
X13512D01*
X14345Y448302D01*
Y447469D01*
X13512Y446636D01*
X11845D01*
X11012Y447469D01*
X245835Y54251D02*
Y59249D01*
X248334D01*
X249167Y58416D01*
Y56750D01*
X248334Y55917D01*
X245835D01*
X254165Y54251D02*
X250833D01*
X254165Y57583D01*
Y58416D01*
X253332Y59249D01*
X251666D01*
X250833Y58416D01*
X491668Y44501D02*
Y49499D01*
X494167D01*
X495000Y48666D01*
Y47000D01*
X494167Y46167D01*
X491668D01*
X496666Y44501D02*
X498332D01*
X497499D01*
Y49499D01*
X496666Y48666D01*
X325168Y458751D02*
Y463749D01*
X326834Y462083D01*
X328500Y463749D01*
Y458751D01*
X330166D02*
X331832D01*
X330999D01*
Y463749D01*
X330166Y462916D01*
X492085Y520749D02*
Y515751D01*
X495417D01*
X500415D02*
X497083D01*
X500415Y519083D01*
Y519916D01*
X499582Y520749D01*
X497916D01*
X497083Y519916D01*
X209468Y531136D02*
Y526138D01*
X212800D01*
X214466D02*
X216133D01*
X215299D01*
Y531136D01*
X214466Y530303D01*
X424167Y497499D02*
X422501D01*
X423334D01*
Y493334D01*
X422501Y492501D01*
X421668D01*
X420835Y493334D01*
X425833Y496666D02*
X426666Y497499D01*
X428332D01*
X429165Y496666D01*
Y495833D01*
X428332Y495000D01*
X427499D01*
X428332D01*
X429165Y494167D01*
Y493334D01*
X428332Y492501D01*
X426666D01*
X425833Y493334D01*
X5417Y172749D02*
X3751D01*
X4584D01*
Y168584D01*
X3751Y167751D01*
X2918D01*
X2085Y168584D01*
X10415Y167751D02*
X7083D01*
X10415Y171083D01*
Y171916D01*
X9582Y172749D01*
X7916D01*
X7083Y171916D01*
X5250Y330499D02*
X3584D01*
X4417D01*
Y326334D01*
X3584Y325501D01*
X2751D01*
X1918Y326334D01*
X6916Y325501D02*
X8582D01*
X7749D01*
Y330499D01*
X6916Y329666D01*
X553892Y277644D02*
X555558D01*
X554725D01*
Y272646D01*
X553892D01*
X555558D01*
X561390Y276811D02*
X560556Y277644D01*
X558890D01*
X558057Y276811D01*
Y273479D01*
X558890Y272646D01*
X560556D01*
X561390Y273479D01*
X563056Y276811D02*
X563889Y277644D01*
X565555D01*
X566388Y276811D01*
Y275978D01*
X565555Y275145D01*
X566388Y274312D01*
Y273479D01*
X565555Y272646D01*
X563889D01*
X563056Y273479D01*
Y274312D01*
X563889Y275145D01*
X563056Y275978D01*
Y276811D01*
X563889Y275145D02*
X565555D01*
X389502Y438249D02*
X391168D01*
X390335D01*
Y433251D01*
X389502D01*
X391168D01*
X397000Y437416D02*
X396166Y438249D01*
X394500D01*
X393667Y437416D01*
Y434084D01*
X394500Y433251D01*
X396166D01*
X397000Y434084D01*
X398666Y438249D02*
X401998D01*
Y437416D01*
X398666Y434084D01*
Y433251D01*
X626252Y295499D02*
X627918D01*
X627085D01*
Y290501D01*
X626252D01*
X627918D01*
X633750Y294666D02*
X632916Y295499D01*
X631250D01*
X630417Y294666D01*
Y291334D01*
X631250Y290501D01*
X632916D01*
X633750Y291334D01*
X638748Y295499D02*
X637082Y294666D01*
X635416Y293000D01*
Y291334D01*
X636249Y290501D01*
X637915D01*
X638748Y291334D01*
Y292167D01*
X637915Y293000D01*
X635416D01*
X625251Y146002D02*
Y147668D01*
Y146835D01*
X630249D01*
Y146002D01*
Y147668D01*
X626084Y153500D02*
X625251Y152667D01*
Y151000D01*
X626084Y150167D01*
X629416D01*
X630249Y151000D01*
Y152667D01*
X629416Y153500D01*
X625251Y158498D02*
Y155166D01*
X627750D01*
X626917Y156832D01*
Y157665D01*
X627750Y158498D01*
X629416D01*
X630249Y157665D01*
Y155999D01*
X629416Y155166D01*
X654252Y99749D02*
X655918D01*
X655085D01*
Y94751D01*
X654252D01*
X655918D01*
X661750Y98916D02*
X660917Y99749D01*
X659250D01*
X658417Y98916D01*
Y95584D01*
X659250Y94751D01*
X660917D01*
X661750Y95584D01*
X665915Y94751D02*
Y99749D01*
X663416Y97250D01*
X666748D01*
X240752Y258999D02*
X242418D01*
X241585D01*
Y254001D01*
X240752D01*
X242418D01*
X248250Y258166D02*
X247416Y258999D01*
X245750D01*
X244917Y258166D01*
Y254834D01*
X245750Y254001D01*
X247416D01*
X248250Y254834D01*
X253248Y254001D02*
X249916D01*
X253248Y257333D01*
Y258166D01*
X252415Y258999D01*
X250749D01*
X249916Y258166D01*
X70022Y272818D02*
X71688D01*
X70855D01*
Y267820D01*
X70022D01*
X71688D01*
X77520Y271985D02*
X76687Y272818D01*
X75020D01*
X74187Y271985D01*
Y268653D01*
X75020Y267820D01*
X76687D01*
X77520Y268653D01*
X79186Y267820D02*
X80852D01*
X80019D01*
Y272818D01*
X79186Y271985D01*
X625835Y205249D02*
Y200251D01*
X628334D01*
X629167Y201084D01*
Y204416D01*
X628334Y205249D01*
X625835D01*
X633332Y200251D02*
Y205249D01*
X630833Y202750D01*
X634165D01*
X62335Y74249D02*
Y69251D01*
X64834D01*
X65667Y70084D01*
Y73416D01*
X64834Y74249D01*
X62335D01*
X67333Y73416D02*
X68166Y74249D01*
X69832D01*
X70665Y73416D01*
Y72583D01*
X69832Y71750D01*
X68999D01*
X69832D01*
X70665Y70917D01*
Y70084D01*
X69832Y69251D01*
X68166D01*
X67333Y70084D01*
X237085Y75499D02*
Y70501D01*
X239584D01*
X240417Y71334D01*
Y74666D01*
X239584Y75499D01*
X237085D01*
X245415Y70501D02*
X242083D01*
X245415Y73833D01*
Y74666D01*
X244582Y75499D01*
X242916D01*
X242083Y74666D01*
X190168Y455249D02*
Y450251D01*
X192667D01*
X193500Y451084D01*
Y454416D01*
X192667Y455249D01*
X190168D01*
X195166Y450251D02*
X196832D01*
X195999D01*
Y455249D01*
X195166Y454416D01*
X534210Y228416D02*
X533377Y229249D01*
X531711D01*
X530878Y228416D01*
Y225084D01*
X531711Y224251D01*
X533377D01*
X534210Y225084D01*
X539209Y224251D02*
X535876D01*
X539209Y227583D01*
Y228416D01*
X538376Y229249D01*
X536710D01*
X535876Y228416D01*
X544207Y224251D02*
X540875D01*
X544207Y227583D01*
Y228416D01*
X543374Y229249D01*
X541708D01*
X540875Y228416D01*
X246501Y390166D02*
X245668Y390999D01*
X244002D01*
X243169Y390166D01*
Y386834D01*
X244002Y386001D01*
X245668D01*
X246501Y386834D01*
X251499Y386001D02*
X248167D01*
X251499Y389333D01*
Y390166D01*
X250666Y390999D01*
X249000D01*
X248167Y390166D01*
X253165Y386001D02*
X254831D01*
X253998D01*
Y390999D01*
X253165Y390166D01*
X383668Y414666D02*
X382835Y415499D01*
X381169D01*
X380336Y414666D01*
Y411334D01*
X381169Y410501D01*
X382835D01*
X383668Y411334D01*
X388666Y410501D02*
X385334D01*
X388666Y413833D01*
Y414666D01*
X387833Y415499D01*
X386167D01*
X385334Y414666D01*
X390332D02*
X391165Y415499D01*
X392831D01*
X393665Y414666D01*
Y411334D01*
X392831Y410501D01*
X391165D01*
X390332Y411334D01*
Y414666D01*
X602436Y266651D02*
X601603Y267484D01*
X599937D01*
X599104Y266651D01*
Y263319D01*
X599937Y262486D01*
X601603D01*
X602436Y263319D01*
X604102Y262486D02*
X605769D01*
X604935D01*
Y267484D01*
X604102Y266651D01*
X608268Y263319D02*
X609101Y262486D01*
X610767D01*
X611600Y263319D01*
Y266651D01*
X610767Y267484D01*
X609101D01*
X608268Y266651D01*
Y265818D01*
X609101Y264985D01*
X611600D01*
X660856Y208739D02*
X660023Y209572D01*
X658357D01*
X657524Y208739D01*
Y205407D01*
X658357Y204574D01*
X660023D01*
X660856Y205407D01*
X662522Y204574D02*
X664189D01*
X663355D01*
Y209572D01*
X662522Y208739D01*
X666688D02*
X667521Y209572D01*
X669187D01*
X670020Y208739D01*
Y207906D01*
X669187Y207073D01*
X670020Y206240D01*
Y205407D01*
X669187Y204574D01*
X667521D01*
X666688Y205407D01*
Y206240D01*
X667521Y207073D01*
X666688Y207906D01*
Y208739D01*
X667521Y207073D02*
X669187D01*
X624584Y221166D02*
X623751Y221999D01*
X622085D01*
X621252Y221166D01*
Y217834D01*
X622085Y217001D01*
X623751D01*
X624584Y217834D01*
X626250Y217001D02*
X627916D01*
X627084D01*
Y221999D01*
X626250Y221166D01*
X630416Y221999D02*
X633748D01*
Y221166D01*
X630416Y217834D01*
Y217001D01*
X367334Y515334D02*
X366501Y514501D01*
Y512835D01*
X367334Y512002D01*
X370666D01*
X371499Y512835D01*
Y514501D01*
X370666Y515334D01*
X371499Y517000D02*
Y518666D01*
Y517834D01*
X366501D01*
X367334Y517000D01*
X366501Y524498D02*
X367334Y522832D01*
X369000Y521166D01*
X370666D01*
X371499Y521999D01*
Y523665D01*
X370666Y524498D01*
X369833D01*
X369000Y523665D01*
Y521166D01*
X401834Y519724D02*
X401001Y520557D01*
X399335D01*
X398502Y519724D01*
Y516391D01*
X399335Y515558D01*
X401001D01*
X401834Y516391D01*
X403500Y515558D02*
X405167D01*
X404333D01*
Y520557D01*
X403500Y519724D01*
X410998Y520557D02*
X407666D01*
Y518058D01*
X409332Y518891D01*
X410165D01*
X410998Y518058D01*
Y516391D01*
X410165Y515558D01*
X408499D01*
X407666Y516391D01*
X707584Y39416D02*
X706751Y40249D01*
X705085D01*
X704252Y39416D01*
Y36084D01*
X705085Y35251D01*
X706751D01*
X707584Y36084D01*
X709250Y35251D02*
X710917D01*
X710083D01*
Y40249D01*
X709250Y39416D01*
X715915Y35251D02*
Y40249D01*
X713416Y37750D01*
X716748D01*
X14834Y261416D02*
X14001Y262249D01*
X12335D01*
X11502Y261416D01*
Y258084D01*
X12335Y257251D01*
X14001D01*
X14834Y258084D01*
X16500Y257251D02*
X18167D01*
X17333D01*
Y262249D01*
X16500Y261416D01*
X20666D02*
X21499Y262249D01*
X23165D01*
X23998Y261416D01*
Y260583D01*
X23165Y259750D01*
X22332D01*
X23165D01*
X23998Y258917D01*
Y258084D01*
X23165Y257251D01*
X21499D01*
X20666Y258084D01*
X102818Y537669D02*
X101985Y538502D01*
X100319D01*
X99486Y537669D01*
Y534337D01*
X100319Y533504D01*
X101985D01*
X102818Y534337D01*
X104484Y533504D02*
X106151D01*
X105317D01*
Y538502D01*
X104484Y537669D01*
X111982Y533504D02*
X108650D01*
X111982Y536836D01*
Y537669D01*
X111149Y538502D01*
X109483D01*
X108650Y537669D01*
X596667Y24666D02*
X595834Y25499D01*
X594168D01*
X593335Y24666D01*
Y21334D01*
X594168Y20501D01*
X595834D01*
X596667Y21334D01*
X598334Y20501D02*
X600000D01*
X599166D01*
Y25499D01*
X598334Y24666D01*
X602499Y20501D02*
X604165D01*
X603332D01*
Y25499D01*
X602499Y24666D01*
X45922Y231853D02*
X45089Y232686D01*
X43423D01*
X42590Y231853D01*
Y228521D01*
X43423Y227688D01*
X45089D01*
X45922Y228521D01*
X47588Y227688D02*
X49254D01*
X48421D01*
Y232686D01*
X47588Y231853D01*
X51754D02*
X52587Y232686D01*
X54253D01*
X55086Y231853D01*
Y228521D01*
X54253Y227688D01*
X52587D01*
X51754Y228521D01*
Y231853D01*
X252417Y206416D02*
X251584Y207249D01*
X249918D01*
X249085Y206416D01*
Y203084D01*
X249918Y202251D01*
X251584D01*
X252417Y203084D01*
X254083D02*
X254916Y202251D01*
X256582D01*
X257415Y203084D01*
Y206416D01*
X256582Y207249D01*
X254916D01*
X254083Y206416D01*
Y205583D01*
X254916Y204750D01*
X257415D01*
X229310Y246585D02*
X228477Y247418D01*
X226811D01*
X225978Y246585D01*
Y243253D01*
X226811Y242420D01*
X228477D01*
X229310Y243253D01*
X230976Y246585D02*
X231809Y247418D01*
X233476D01*
X234309Y246585D01*
Y245752D01*
X233476Y244919D01*
X234309Y244086D01*
Y243253D01*
X233476Y242420D01*
X231809D01*
X230976Y243253D01*
Y244086D01*
X231809Y244919D01*
X230976Y245752D01*
Y246585D01*
X231809Y244919D02*
X233476D01*
X56417Y386916D02*
X55584Y387749D01*
X53918D01*
X53085Y386916D01*
Y383584D01*
X53918Y382751D01*
X55584D01*
X56417Y383584D01*
X58083Y387749D02*
X61415D01*
Y386916D01*
X58083Y383584D01*
Y382751D01*
X56917Y435916D02*
X56084Y436749D01*
X54418D01*
X53585Y435916D01*
Y432584D01*
X54418Y431751D01*
X56084D01*
X56917Y432584D01*
X61915Y436749D02*
X60249Y435916D01*
X58583Y434250D01*
Y432584D01*
X59416Y431751D01*
X61082D01*
X61915Y432584D01*
Y433417D01*
X61082Y434250D01*
X58583D01*
X265632Y274271D02*
X264799Y275104D01*
X263133D01*
X262300Y274271D01*
Y270939D01*
X263133Y270106D01*
X264799D01*
X265632Y270939D01*
X270631Y275104D02*
X267298D01*
Y272605D01*
X268965Y273438D01*
X269798D01*
X270631Y272605D01*
Y270939D01*
X269798Y270106D01*
X268131D01*
X267298Y270939D01*
X96167Y200166D02*
X95334Y200999D01*
X93668D01*
X92835Y200166D01*
Y196834D01*
X93668Y196001D01*
X95334D01*
X96167Y196834D01*
X100332Y196001D02*
Y200999D01*
X97833Y198500D01*
X101165D01*
X45922Y267413D02*
X45089Y268246D01*
X43423D01*
X42590Y267413D01*
Y264081D01*
X43423Y263248D01*
X45089D01*
X45922Y264081D01*
X47588Y267413D02*
X48421Y268246D01*
X50088D01*
X50921Y267413D01*
Y266580D01*
X50088Y265747D01*
X49254D01*
X50088D01*
X50921Y264914D01*
Y264081D01*
X50088Y263248D01*
X48421D01*
X47588Y264081D01*
X319417Y73916D02*
X318584Y74749D01*
X316918D01*
X316085Y73916D01*
Y70584D01*
X316918Y69751D01*
X318584D01*
X319417Y70584D01*
X324415Y69751D02*
X321083D01*
X324415Y73083D01*
Y73916D01*
X323582Y74749D01*
X321916D01*
X321083Y73916D01*
X274750Y72916D02*
X273917Y73749D01*
X272251D01*
X271418Y72916D01*
Y69584D01*
X272251Y68751D01*
X273917D01*
X274750Y69584D01*
X276416Y68751D02*
X278082D01*
X277249D01*
Y73749D01*
X276416Y72916D01*
M02*
