G04*
G04 #@! TF.GenerationSoftware,Altium Limited,Altium Designer,21.6.4 (81)*
G04*
G04 Layer_Color=8388736*
%FSLAX44Y44*%
%MOMM*%
G71*
G04*
G04 #@! TF.SameCoordinates,DF600929-9F7D-4707-823E-D0FB3E8D8E71*
G04*
G04*
G04 #@! TF.FilePolarity,Negative*
G04*
G01*
G75*
%ADD24R,0.5541X0.4627*%
%ADD31R,1.1432X1.0332*%
G04:AMPARAMS|DCode=32|XSize=3.09mm|YSize=1.16mm|CornerRadius=0.2335mm|HoleSize=0mm|Usage=FLASHONLY|Rotation=0.000|XOffset=0mm|YOffset=0mm|HoleType=Round|Shape=RoundedRectangle|*
%AMROUNDEDRECTD32*
21,1,3.0900,0.6930,0,0,0.0*
21,1,2.6230,1.1600,0,0,0.0*
1,1,0.4670,1.3115,-0.3465*
1,1,0.4670,-1.3115,-0.3465*
1,1,0.4670,-1.3115,0.3465*
1,1,0.4670,1.3115,0.3465*
%
%ADD32ROUNDEDRECTD32*%
G04:AMPARAMS|DCode=33|XSize=5.8332mm|YSize=6.3032mm|CornerRadius=0.7491mm|HoleSize=0mm|Usage=FLASHONLY|Rotation=270.000|XOffset=0mm|YOffset=0mm|HoleType=Round|Shape=RoundedRectangle|*
%AMROUNDEDRECTD33*
21,1,5.8332,4.8051,0,0,270.0*
21,1,4.3351,6.3032,0,0,270.0*
1,1,1.4981,-2.4026,-2.1676*
1,1,1.4981,-2.4026,2.1676*
1,1,1.4981,2.4026,2.1676*
1,1,1.4981,2.4026,-2.1676*
%
%ADD33ROUNDEDRECTD33*%
%ADD34R,1.2032X1.2032*%
%ADD35R,1.7292X0.8532*%
%ADD36R,1.0332X1.1432*%
%ADD37R,0.8532X1.7292*%
G04:AMPARAMS|DCode=38|XSize=1.4632mm|YSize=0.7932mm|CornerRadius=0.1754mm|HoleSize=0mm|Usage=FLASHONLY|Rotation=180.000|XOffset=0mm|YOffset=0mm|HoleType=Round|Shape=RoundedRectangle|*
%AMROUNDEDRECTD38*
21,1,1.4632,0.4425,0,0,180.0*
21,1,1.1125,0.7932,0,0,180.0*
1,1,0.3507,-0.5563,0.2213*
1,1,0.3507,0.5563,0.2213*
1,1,0.3507,0.5563,-0.2213*
1,1,0.3507,-0.5563,-0.2213*
%
%ADD38ROUNDEDRECTD38*%
%ADD39R,1.4032X0.8032*%
%ADD40R,2.6532X3.5032*%
%ADD41R,1.0032X1.0032*%
%ADD42R,1.2532X0.8032*%
%ADD43R,1.0032X1.0032*%
%ADD44R,3.2032X5.2032*%
G04:AMPARAMS|DCode=45|XSize=2.1732mm|YSize=0.8032mm|CornerRadius=0.1766mm|HoleSize=0mm|Usage=FLASHONLY|Rotation=0.000|XOffset=0mm|YOffset=0mm|HoleType=Round|Shape=RoundedRectangle|*
%AMROUNDEDRECTD45*
21,1,2.1732,0.4500,0,0,0.0*
21,1,1.8200,0.8032,0,0,0.0*
1,1,0.3532,0.9100,-0.2250*
1,1,0.3532,-0.9100,-0.2250*
1,1,0.3532,-0.9100,0.2250*
1,1,0.3532,0.9100,0.2250*
%
%ADD45ROUNDEDRECTD45*%
%ADD46R,2.0032X1.8032*%
%ADD47C,1.7232*%
G04:AMPARAMS|DCode=48|XSize=1.7232mm|YSize=1.7232mm|CornerRadius=0.4816mm|HoleSize=0mm|Usage=FLASHONLY|Rotation=180.000|XOffset=0mm|YOffset=0mm|HoleType=Round|Shape=RoundedRectangle|*
%AMROUNDEDRECTD48*
21,1,1.7232,0.7600,0,0,180.0*
21,1,0.7600,1.7232,0,0,180.0*
1,1,0.9632,-0.3800,0.3800*
1,1,0.9632,0.3800,0.3800*
1,1,0.9632,0.3800,-0.3800*
1,1,0.9632,-0.3800,-0.3800*
%
%ADD48ROUNDEDRECTD48*%
G04:AMPARAMS|DCode=49|XSize=1.8032mm|YSize=1.8032mm|CornerRadius=0.5016mm|HoleSize=0mm|Usage=FLASHONLY|Rotation=0.000|XOffset=0mm|YOffset=0mm|HoleType=Round|Shape=RoundedRectangle|*
%AMROUNDEDRECTD49*
21,1,1.8032,0.8000,0,0,0.0*
21,1,0.8000,1.8032,0,0,0.0*
1,1,1.0032,0.4000,-0.4000*
1,1,1.0032,-0.4000,-0.4000*
1,1,1.0032,-0.4000,0.4000*
1,1,1.0032,0.4000,0.4000*
%
%ADD49ROUNDEDRECTD49*%
%ADD50C,0.2000*%
%ADD51C,1.3232*%
%ADD52C,1.8032*%
G04:AMPARAMS|DCode=53|XSize=1.8032mm|YSize=1.8032mm|CornerRadius=0.5016mm|HoleSize=0mm|Usage=FLASHONLY|Rotation=90.000|XOffset=0mm|YOffset=0mm|HoleType=Round|Shape=RoundedRectangle|*
%AMROUNDEDRECTD53*
21,1,1.8032,0.8000,0,0,90.0*
21,1,0.8000,1.8032,0,0,90.0*
1,1,1.0032,0.4000,0.4000*
1,1,1.0032,0.4000,-0.4000*
1,1,1.0032,-0.4000,-0.4000*
1,1,1.0032,-0.4000,0.4000*
%
%ADD53ROUNDEDRECTD53*%
%ADD54C,0.6200*%
%ADD55C,0.7016*%
D24*
X483543Y517750D02*
D03*
X476457D02*
D03*
D31*
X249250Y412100D02*
D03*
Y398900D02*
D03*
X708743Y50650D02*
D03*
Y63850D02*
D03*
X643500Y191650D02*
D03*
Y204850D02*
D03*
X603250Y64600D02*
D03*
Y51400D02*
D03*
X197750Y388650D02*
D03*
Y401850D02*
D03*
D32*
X88600Y397850D02*
D03*
Y386450D02*
D03*
Y420650D02*
D03*
Y432050D02*
D03*
D33*
X155100Y409250D02*
D03*
D34*
X709000Y85500D02*
D03*
X747500Y97750D02*
D03*
X736250Y200500D02*
D03*
Y220750D02*
D03*
X747000Y270250D02*
D03*
X653500Y294000D02*
D03*
D35*
X690370Y237463D02*
D03*
Y250163D02*
D03*
Y262862D02*
D03*
Y275562D02*
D03*
X636130D02*
D03*
Y262862D02*
D03*
Y250163D02*
D03*
Y237463D02*
D03*
X635130Y82050D02*
D03*
Y69350D02*
D03*
Y56650D02*
D03*
Y43950D02*
D03*
X689370D02*
D03*
Y56650D02*
D03*
Y69350D02*
D03*
Y82050D02*
D03*
D36*
X686350Y21000D02*
D03*
X673150D02*
D03*
X638150Y20750D02*
D03*
X651350D02*
D03*
X712900Y249500D02*
D03*
X726100D02*
D03*
X531150Y239500D02*
D03*
X544350D02*
D03*
X684600Y219500D02*
D03*
X671400D02*
D03*
X656350Y219750D02*
D03*
X643150D02*
D03*
X591900Y36000D02*
D03*
X605100D02*
D03*
X369850Y413000D02*
D03*
X356650D02*
D03*
X411850Y495750D02*
D03*
X398650D02*
D03*
X418650Y517750D02*
D03*
X431850D02*
D03*
X343150D02*
D03*
X356350D02*
D03*
X29850Y275000D02*
D03*
X16650D02*
D03*
X334400Y71750D02*
D03*
X347600D02*
D03*
X286400D02*
D03*
X299600D02*
D03*
X174650Y72750D02*
D03*
X187850D02*
D03*
X280600Y205007D02*
D03*
X267400D02*
D03*
X131350Y72000D02*
D03*
X118150D02*
D03*
X109650Y198250D02*
D03*
X122850D02*
D03*
X49900Y421000D02*
D03*
X63100D02*
D03*
X50008Y397250D02*
D03*
X63208D02*
D03*
X47400Y250750D02*
D03*
X60600D02*
D03*
X267150Y257493D02*
D03*
X280350D02*
D03*
X230900Y230000D02*
D03*
X244100D02*
D03*
X47400Y215250D02*
D03*
X60600D02*
D03*
X117600Y521000D02*
D03*
X104400D02*
D03*
X662400Y191992D02*
D03*
X675600D02*
D03*
X617100Y250000D02*
D03*
X603900D02*
D03*
X703142Y191992D02*
D03*
X689942D02*
D03*
D37*
X643700Y118380D02*
D03*
X656400D02*
D03*
X669100D02*
D03*
X681800D02*
D03*
Y172620D02*
D03*
X669100D02*
D03*
X656400D02*
D03*
X643700D02*
D03*
D38*
X359300Y475993D02*
D03*
Y495993D02*
D03*
X339700Y485993D02*
D03*
D39*
X350785Y430500D02*
D03*
Y440000D02*
D03*
Y449500D02*
D03*
X375785D02*
D03*
Y440000D02*
D03*
Y430500D02*
D03*
D40*
X407750Y467500D02*
D03*
X455750D02*
D03*
X104750Y492750D02*
D03*
X152750D02*
D03*
D41*
X203250Y72500D02*
D03*
X219250D02*
D03*
X103250Y71750D02*
D03*
X87250D02*
D03*
D42*
X287500Y240750D02*
D03*
Y221750D02*
D03*
X261500D02*
D03*
Y231250D02*
D03*
Y240750D02*
D03*
X587000Y239750D02*
D03*
Y249250D02*
D03*
Y258750D02*
D03*
X561000D02*
D03*
Y239750D02*
D03*
D43*
X198000Y417500D02*
D03*
Y433500D02*
D03*
D44*
X226000Y491750D02*
D03*
X281000D02*
D03*
D45*
X90750Y253550D02*
D03*
Y240850D02*
D03*
Y228150D02*
D03*
Y215450D02*
D03*
X140250D02*
D03*
Y228150D02*
D03*
Y240850D02*
D03*
Y253550D02*
D03*
D46*
X275842Y422750D02*
D03*
X326642D02*
D03*
Y380750D02*
D03*
X275842D02*
D03*
D47*
X17900Y300000D02*
D03*
X43300D02*
D03*
X68700D02*
D03*
X94100D02*
D03*
X119500D02*
D03*
X144900D02*
D03*
X170300D02*
D03*
X246500D02*
D03*
X271900D02*
D03*
X297300D02*
D03*
X348100D02*
D03*
X398900D02*
D03*
X424300D02*
D03*
X475100D02*
D03*
X500500D02*
D03*
X525900D02*
D03*
X576700D02*
D03*
X551300D02*
D03*
X449700D02*
D03*
X373500D02*
D03*
X322700D02*
D03*
X221100D02*
D03*
X195700D02*
D03*
X17900Y147600D02*
D03*
X43300D02*
D03*
X68700D02*
D03*
X94100D02*
D03*
X119500D02*
D03*
X144900D02*
D03*
X170300D02*
D03*
X246500D02*
D03*
X271900D02*
D03*
X297300D02*
D03*
X348100D02*
D03*
X398900D02*
D03*
X424300D02*
D03*
X475100D02*
D03*
X500500D02*
D03*
X525900D02*
D03*
X576700D02*
D03*
X551300D02*
D03*
X449700D02*
D03*
X373500D02*
D03*
X322700D02*
D03*
X221100D02*
D03*
X195700D02*
D03*
D48*
X602100Y300000D02*
D03*
Y147600D02*
D03*
D49*
X556750Y46500D02*
D03*
Y518500D02*
D03*
X354350Y46000D02*
D03*
X466950Y45750D02*
D03*
X208450Y47508D02*
D03*
X121200Y46757D02*
D03*
X602100Y97600D02*
D03*
Y350000D02*
D03*
D50*
X760000Y30000D02*
D03*
Y530000D02*
D03*
X30000D02*
D03*
Y30000D02*
D03*
D51*
X757253Y147000D02*
D03*
X731852Y172400D02*
D03*
X706452Y147000D02*
D03*
X710200Y351015D02*
D03*
X684800Y325615D02*
D03*
X710200Y300215D02*
D03*
D52*
X328950Y46000D02*
D03*
X303550D02*
D03*
X278150D02*
D03*
X441550Y45750D02*
D03*
X416150D02*
D03*
X390750D02*
D03*
X183050Y47508D02*
D03*
X95800Y46757D02*
D03*
X222993Y420950D02*
D03*
X20750Y424200D02*
D03*
X17900Y97600D02*
D03*
X43300D02*
D03*
X68700D02*
D03*
X94100D02*
D03*
X119500D02*
D03*
X246500D02*
D03*
X322700D02*
D03*
X348100D02*
D03*
X373500D02*
D03*
X424300D02*
D03*
X449700D02*
D03*
X500500D02*
D03*
X551300D02*
D03*
X576700D02*
D03*
X525900D02*
D03*
X475100D02*
D03*
X398900D02*
D03*
X297300D02*
D03*
X271900D02*
D03*
X221100D02*
D03*
X195700D02*
D03*
X170300D02*
D03*
X144900D02*
D03*
X17900Y350000D02*
D03*
X43300D02*
D03*
X68700D02*
D03*
X94100D02*
D03*
X119500D02*
D03*
X246500D02*
D03*
X322700D02*
D03*
X348100D02*
D03*
X373500D02*
D03*
X424300D02*
D03*
X449700D02*
D03*
X500500D02*
D03*
X551300D02*
D03*
X576700D02*
D03*
X525900D02*
D03*
X475100D02*
D03*
X398900D02*
D03*
X297300D02*
D03*
X271900D02*
D03*
X221100D02*
D03*
X195700D02*
D03*
X170300D02*
D03*
X144900D02*
D03*
D53*
X222993Y395550D02*
D03*
X20750Y398800D02*
D03*
D54*
X248000Y426500D02*
D03*
D55*
X684600Y219500D02*
D03*
X656350Y219750D02*
D03*
X781250Y448000D02*
D03*
X784250Y343500D02*
D03*
X785000Y245500D02*
D03*
X784750Y139000D02*
D03*
X782500Y62500D02*
D03*
X728500Y50750D02*
D03*
X706500Y8500D02*
D03*
X664000Y64000D02*
D03*
X624750Y119750D02*
D03*
X651000Y146500D02*
D03*
X661750Y254250D02*
D03*
X711500Y451000D02*
D03*
X609250Y448000D02*
D03*
X705750Y514250D02*
D03*
X606250Y512000D02*
D03*
X455750Y380750D02*
D03*
X454750Y412000D02*
D03*
X287250Y118750D02*
D03*
X224250Y34500D02*
D03*
X149250Y26750D02*
D03*
X240500Y4000D02*
D03*
X149750Y4250D02*
D03*
X76000Y11000D02*
D03*
X26500Y120750D02*
D03*
X9500Y195000D02*
D03*
Y225000D02*
D03*
X164500Y194250D02*
D03*
X164250Y227250D02*
D03*
X18750Y253750D02*
D03*
X97500Y451250D02*
D03*
X617750Y234750D02*
D03*
X724500Y237250D02*
D03*
X692000Y180250D02*
D03*
X726250Y64500D02*
D03*
X55250Y274500D02*
D03*
M02*
