G04*
G04 #@! TF.GenerationSoftware,Altium Limited,Altium Designer,21.6.4 (81)*
G04*
G04 Layer_Color=8388736*
%FSLAX44Y44*%
%MOMM*%
G71*
G04*
G04 #@! TF.SameCoordinates,DF600929-9F7D-4707-823E-D0FB3E8D8E71*
G04*
G04*
G04 #@! TF.FilePolarity,Positive*
G04*
G01*
G75*
%ADD10C,0.2000*%
%ADD13C,0.1000*%
D10*
X471686Y513436D02*
Y522064D01*
Y513436D02*
X488314D01*
Y522064D01*
X471686D02*
X488314D01*
D13*
X2700Y287500D02*
X617300D01*
X2700D02*
Y312500D01*
X617300D01*
Y287500D02*
Y312500D01*
X544050Y59200D02*
X569450D01*
Y33800D02*
Y59200D01*
X544050Y33800D02*
X569450D01*
X544050D02*
Y59200D01*
Y531200D02*
X569450D01*
Y505800D02*
Y531200D01*
X544050Y505800D02*
X569450D01*
X544050D02*
Y531200D01*
X265450Y33300D02*
Y58700D01*
X367050Y33300D02*
Y58700D01*
X265450D02*
X367050D01*
X265450Y33300D02*
X367050D01*
X378050Y33050D02*
Y58450D01*
X479650Y33050D02*
Y58450D01*
X378050D02*
X479650D01*
X378050Y33050D02*
X479650D01*
X221150Y34808D02*
Y60208D01*
X170350D02*
X221150D01*
X170350Y34808D02*
Y60208D01*
Y34808D02*
X221150D01*
X2700Y135100D02*
X617300D01*
X2700D02*
Y160100D01*
X617300D01*
Y135100D02*
Y160100D01*
X133900Y34057D02*
Y59457D01*
X83100D02*
X133900D01*
X83100Y34057D02*
Y59457D01*
Y34057D02*
X133900D01*
X210293Y382850D02*
X235693D01*
Y433650D01*
X210293D02*
X235693D01*
X210293Y382850D02*
Y433650D01*
X8050Y386100D02*
Y436900D01*
X33450D01*
Y386100D02*
Y436900D01*
X8050Y386100D02*
X33450D01*
X5200Y84900D02*
X614800D01*
Y110300D01*
X5200Y84900D02*
Y110300D01*
X614800D01*
X5200Y337300D02*
X614800D01*
Y362700D01*
X5200Y337300D02*
Y362700D01*
X614800D01*
X310000Y297501D02*
X311666D01*
X310833D01*
Y301666D01*
X311666Y302499D01*
X312499D01*
X313332Y301666D01*
X308334Y302499D02*
X306668D01*
X307501D01*
Y297501D01*
X308334Y298334D01*
X552585Y44001D02*
Y48999D01*
X555084D01*
X555917Y48166D01*
Y46500D01*
X555084Y45667D01*
X552585D01*
X557583Y48999D02*
X560915D01*
Y48166D01*
X557583Y44834D01*
Y44001D01*
X552585Y516001D02*
Y520999D01*
X555084D01*
X555917Y520166D01*
Y518500D01*
X555084Y517667D01*
X552585D01*
X557583Y520166D02*
X558416Y520999D01*
X560082D01*
X560915Y520166D01*
Y519333D01*
X560082Y518500D01*
X560915Y517667D01*
Y516834D01*
X560082Y516001D01*
X558416D01*
X557583Y516834D01*
Y517667D01*
X558416Y518500D01*
X557583Y519333D01*
Y520166D01*
X558416Y518500D02*
X560082D01*
X481000Y521866D02*
Y516867D01*
X484332D01*
X489331D02*
X485998D01*
X489331Y520200D01*
Y521033D01*
X488498Y521866D01*
X486831D01*
X485998Y521033D01*
X320415Y48499D02*
Y43501D01*
X317916D01*
X317083Y44334D01*
Y46000D01*
X317916Y46833D01*
X320415D01*
X312085Y48499D02*
X315417D01*
X312085Y45167D01*
Y44334D01*
X312918Y43501D01*
X314584D01*
X315417Y44334D01*
X432182Y48249D02*
Y43251D01*
X429683D01*
X428850Y44084D01*
Y45750D01*
X429683Y46583D01*
X432182D01*
X427184Y48249D02*
X425518D01*
X426351D01*
Y43251D01*
X427184Y44084D01*
X199915Y50007D02*
Y45008D01*
X197416D01*
X196583Y45841D01*
Y47508D01*
X197416Y48341D01*
X199915D01*
X191585Y45008D02*
X194917D01*
Y47508D01*
X193251Y46674D01*
X192418D01*
X191585Y47508D01*
Y49174D01*
X192418Y50007D01*
X194084D01*
X194917Y49174D01*
X310833Y145101D02*
X312499D01*
X311666D01*
Y149266D01*
X312499Y150099D01*
X313332D01*
X314165Y149266D01*
X305835Y150099D02*
X309167D01*
X305835Y146767D01*
Y145934D01*
X306668Y145101D01*
X308334D01*
X309167Y145934D01*
X112665Y49257D02*
Y44258D01*
X110166D01*
X109333Y45091D01*
Y46757D01*
X110166Y47590D01*
X112665D01*
X104335Y44258D02*
X106001Y45091D01*
X107667Y46757D01*
Y48423D01*
X106834Y49257D01*
X105168D01*
X104335Y48423D01*
Y47590D01*
X105168Y46757D01*
X107667D01*
X225492Y404085D02*
X220493D01*
Y406584D01*
X221327Y407417D01*
X222993D01*
X223826Y406584D01*
Y404085D01*
X225492Y411582D02*
X220493D01*
X222993Y409083D01*
Y412415D01*
X23249Y407335D02*
X18251D01*
Y409834D01*
X19084Y410667D01*
X20750D01*
X21583Y409834D01*
Y407335D01*
X19084Y412333D02*
X18251Y413166D01*
Y414832D01*
X19084Y415665D01*
X19917D01*
X20750Y414832D01*
Y413999D01*
Y414832D01*
X21583Y415665D01*
X22416D01*
X23249Y414832D01*
Y413166D01*
X22416Y412333D01*
X316248Y100099D02*
Y95101D01*
X313749D01*
X312916Y95934D01*
Y97600D01*
X313749Y98433D01*
X316248D01*
X311250Y100099D02*
X309583D01*
X310417D01*
Y95101D01*
X311250Y95934D01*
X307084D02*
X306251Y95101D01*
X304585D01*
X303752Y95934D01*
Y99266D01*
X304585Y100099D01*
X306251D01*
X307084Y99266D01*
Y95934D01*
X314165Y352499D02*
Y347501D01*
X311666D01*
X310833Y348334D01*
Y350000D01*
X311666Y350833D01*
X314165D01*
X309167Y351666D02*
X308334Y352499D01*
X306668D01*
X305835Y351666D01*
Y348334D01*
X306668Y347501D01*
X308334D01*
X309167Y348334D01*
Y349167D01*
X308334Y350000D01*
X305835D01*
M02*
