G04*
G04 #@! TF.GenerationSoftware,Altium Limited,Altium Designer,21.6.4 (81)*
G04*
G04 Layer_Color=16711935*
%FSLAX44Y44*%
%MOMM*%
G71*
G04*
G04 #@! TF.SameCoordinates,DF600929-9F7D-4707-823E-D0FB3E8D8E71*
G04*
G04*
G04 #@! TF.FilePolarity,Positive*
G04*
G01*
G75*
%ADD10C,0.2000*%
%ADD12C,0.1270*%
%ADD13C,0.1000*%
G36*
X97580Y71750D02*
X92750Y74750D01*
Y68750D01*
X97580Y71750D01*
D02*
G37*
G36*
X208920Y72500D02*
X213750Y69500D01*
Y75500D01*
X208920Y72500D01*
D02*
G37*
G36*
X198000Y423170D02*
X201000Y428000D01*
X195000D01*
X198000Y423170D01*
D02*
G37*
D10*
X79000Y443250D02*
G03*
X79000Y443250I-1000J0D01*
G01*
X373000Y476242D02*
G03*
X373000Y476242I-1000J0D01*
G01*
X72050Y259550D02*
G03*
X72050Y259550I-1000J0D01*
G01*
X698852Y111700D02*
Y181600D01*
Y111700D02*
X764853D01*
Y181600D01*
X698852D02*
X764853D01*
X675600Y292615D02*
X745500D01*
Y358615D01*
X675600D02*
X745500D01*
X675600Y292615D02*
Y358615D01*
D12*
X107570Y375550D02*
Y442950D01*
Y375550D02*
X169780D01*
Y442950D01*
X107570D02*
X169780D01*
X343000Y471493D02*
X356000D01*
X343000D02*
Y500493D01*
X356000D01*
Y471493D02*
Y500493D01*
X96000Y259000D02*
X135000D01*
X96000Y210000D02*
X135000D01*
X96000D02*
Y259000D01*
X135000Y210000D02*
Y259000D01*
D13*
X274242Y381750D02*
G03*
X274242Y381750I-3000J0D01*
G01*
X253250Y397500D02*
Y413500D01*
X245250Y397500D02*
X253250D01*
X245250D02*
Y413500D01*
X253250D01*
X704743Y49250D02*
Y65250D01*
X712742D01*
Y49250D02*
Y65250D01*
X704743Y49250D02*
X712742D01*
X643750Y232003D02*
X682750D01*
X643750D02*
Y281023D01*
X682750D01*
Y232003D02*
Y281023D01*
X670050Y232003D02*
X682750Y244702D01*
X671750Y17000D02*
X687750D01*
X671750D02*
Y25000D01*
X687750D01*
Y17000D02*
Y25000D01*
X636750Y24750D02*
X652750D01*
Y16750D02*
Y24750D01*
X636750Y16750D02*
X652750D01*
X636750D02*
Y24750D01*
X711500Y253500D02*
X727500D01*
Y245500D02*
Y253500D01*
X711500Y245500D02*
X727500D01*
X711500D02*
Y253500D01*
X529750Y243500D02*
X545750D01*
Y235500D02*
Y243500D01*
X529750Y235500D02*
X545750D01*
X529750D02*
Y243500D01*
X670000Y215500D02*
X686000D01*
X670000D02*
Y223500D01*
X686000D01*
Y215500D02*
Y223500D01*
X641750Y215750D02*
X657750D01*
X641750D02*
Y223750D01*
X657750D01*
Y215750D02*
Y223750D01*
X639500Y190250D02*
Y206250D01*
X647500D01*
Y190250D02*
Y206250D01*
X639500Y190250D02*
X647500D01*
X638240Y126000D02*
Y165000D01*
X687260D01*
Y126000D02*
Y165000D01*
X638240Y126000D02*
X687260D01*
X638240Y138700D02*
X650940Y126000D01*
X642750Y87510D02*
X681750D01*
Y38490D02*
Y87510D01*
X642750Y38490D02*
X681750D01*
X642750D02*
Y87510D01*
Y74810D02*
X655450Y87510D01*
X607250Y50000D02*
Y66000D01*
X599250Y50000D02*
X607250D01*
X599250D02*
Y66000D01*
X607250D01*
X590500Y40000D02*
X606500D01*
Y32000D02*
Y40000D01*
X590500Y32000D02*
X606500D01*
X590500D02*
Y40000D01*
X355250Y409000D02*
X371250D01*
X355250D02*
Y417000D01*
X371250D01*
Y409000D02*
Y417000D01*
X361785Y425500D02*
X371285Y435000D01*
Y425500D02*
Y454500D01*
X355285D02*
X371285D01*
X355285Y425500D02*
Y454500D01*
Y425500D02*
X371285D01*
X397250Y491750D02*
X413250D01*
X397250D02*
Y499750D01*
X413250D01*
Y491750D02*
Y499750D01*
X463250Y452000D02*
Y483000D01*
X400250D02*
X463250D01*
X400250Y452000D02*
Y483000D01*
Y452000D02*
X463250D01*
X417250Y521750D02*
X433250D01*
Y513750D02*
Y521750D01*
X417250Y513750D02*
X433250D01*
X417250D02*
Y521750D01*
X341750D02*
X357750D01*
Y513750D02*
Y521750D01*
X341750Y513750D02*
X357750D01*
X341750D02*
Y521750D01*
X160250Y477250D02*
Y508250D01*
X97250D02*
X160250D01*
X97250Y477250D02*
Y508250D01*
Y477250D02*
X160250D01*
X15250Y271000D02*
X31250D01*
X15250D02*
Y279000D01*
X31250D01*
Y271000D02*
Y279000D01*
X333000Y75750D02*
X349000D01*
Y67750D02*
Y75750D01*
X333000Y67750D02*
X349000D01*
X333000D02*
Y75750D01*
X285000D02*
X301000D01*
Y67750D02*
Y75750D01*
X285000Y67750D02*
X301000D01*
X285000D02*
Y75750D01*
X203250Y68500D02*
Y76500D01*
Y68500D02*
X219250D01*
Y76500D01*
X203250D02*
X219250D01*
X173250Y76750D02*
X189250D01*
Y68750D02*
Y76750D01*
X173250Y68750D02*
X189250D01*
X173250D02*
Y76750D01*
X266500Y236250D02*
X276000Y245750D01*
X266500Y216750D02*
Y245750D01*
Y216750D02*
X282500D01*
Y245750D01*
X266500D02*
X282500D01*
X266000Y201007D02*
X282000D01*
X266000D02*
Y209007D01*
X282000D01*
Y201007D02*
Y209007D01*
X116750Y68000D02*
X132750D01*
X116750D02*
Y76000D01*
X132750D01*
Y68000D02*
Y76000D01*
X103250Y67750D02*
Y75750D01*
X87250D02*
X103250D01*
X87250Y67750D02*
Y75750D01*
Y67750D02*
X103250D01*
X108250Y202250D02*
X124250D01*
Y194250D02*
Y202250D01*
X108250Y194250D02*
X124250D01*
X108250D02*
Y202250D01*
X193750Y387250D02*
Y403250D01*
X201750D01*
Y387250D02*
Y403250D01*
X193750Y387250D02*
X201750D01*
X194000Y417500D02*
X202000D01*
Y433500D01*
X194000D02*
X202000D01*
X194000Y417500D02*
Y433500D01*
X48500Y425000D02*
X64500D01*
Y417000D02*
Y425000D01*
X48500Y417000D02*
X64500D01*
X48500D02*
Y425000D01*
X48608Y401250D02*
X64608D01*
Y393250D02*
Y401250D01*
X48608Y393250D02*
X64608D01*
X48608D02*
Y401250D01*
X566000Y234750D02*
X582000D01*
X566000D02*
Y263750D01*
X582000D01*
Y234750D02*
Y263750D01*
X572500Y234750D02*
X582000Y244250D01*
X62000Y246750D02*
Y254750D01*
X46000D02*
X62000D01*
X46000Y246750D02*
Y254750D01*
Y246750D02*
X62000D01*
X281750Y253493D02*
Y261493D01*
X265750D02*
X281750D01*
X265750Y253493D02*
Y261493D01*
Y253493D02*
X281750D01*
X245500Y226000D02*
Y234000D01*
X229500D02*
X245500D01*
X229500Y226000D02*
Y234000D01*
Y226000D02*
X245500D01*
X62000Y211250D02*
Y219250D01*
X46000D02*
X62000D01*
X46000Y211250D02*
Y219250D01*
Y211250D02*
X62000D01*
X103000Y517000D02*
Y525000D01*
Y517000D02*
X119000D01*
Y525000D01*
X103000D02*
X119000D01*
X677000Y187992D02*
Y195993D01*
X661000D02*
X677000D01*
X661000Y187992D02*
Y195993D01*
Y187992D02*
X677000D01*
X602500Y246000D02*
Y254000D01*
Y246000D02*
X618500D01*
Y254000D01*
X602500D02*
X618500D01*
X688542Y187992D02*
Y195993D01*
Y187992D02*
X704542D01*
Y195993D01*
X688542D02*
X704542D01*
X265243Y375750D02*
Y427750D01*
Y375750D02*
X337243D01*
Y427750D01*
X265243D02*
X337243D01*
M02*
