G04*
G04 #@! TF.GenerationSoftware,Altium Limited,Altium Designer,21.6.4 (81)*
G04*
G04 Layer_Color=32768*
%FSLAX44Y44*%
%MOMM*%
G71*
G04*
G04 #@! TF.SameCoordinates,DF600929-9F7D-4707-823E-D0FB3E8D8E71*
G04*
G04*
G04 #@! TF.FilePolarity,Positive*
G04*
G01*
G75*
%ADD69C,0.0500*%
D69*
X255450Y393250D02*
Y417750D01*
X243050Y393250D02*
X255450D01*
X243050D02*
Y417750D01*
X255450D01*
X188100Y378550D02*
Y439950D01*
X71900Y379450D02*
Y439050D01*
Y379450D02*
X105000D01*
X172300Y378550D02*
X188100D01*
X172300Y373050D02*
Y378550D01*
X105000Y373050D02*
X172300D01*
X105000D02*
Y379450D01*
X71900Y439050D02*
X105000D01*
X172300Y439950D02*
X188100D01*
X172300D02*
Y445450D01*
X105000D02*
X172300D01*
X105000Y439050D02*
Y445450D01*
X702543Y45000D02*
Y69500D01*
X714942D01*
Y45000D02*
Y69500D01*
X702543Y45000D02*
X714942D01*
X626000Y228993D02*
X700500D01*
X626000D02*
Y284033D01*
X700500D01*
Y228993D02*
Y284033D01*
X667500Y14800D02*
X692000D01*
X667500D02*
Y27200D01*
X692000D01*
Y14800D02*
Y27200D01*
X632500Y26950D02*
X657000D01*
Y14550D02*
Y26950D01*
X632500Y14550D02*
X657000D01*
X632500D02*
Y26950D01*
X707250Y255700D02*
X731750D01*
Y243300D02*
Y255700D01*
X707250Y243300D02*
X731750D01*
X707250D02*
Y255700D01*
X525500Y245700D02*
X550000D01*
Y233300D02*
Y245700D01*
X525500Y233300D02*
X550000D01*
X525500D02*
Y245700D01*
X665750Y213300D02*
X690250D01*
X665750D02*
Y225700D01*
X690250D01*
Y213300D02*
Y225700D01*
X637500Y213550D02*
X662000D01*
X637500D02*
Y225950D01*
X662000D01*
Y213550D02*
Y225950D01*
X637300Y186000D02*
Y210500D01*
X649700D01*
Y186000D02*
Y210500D01*
X637300Y186000D02*
X649700D01*
X635230Y108250D02*
Y182750D01*
X690270D01*
Y108250D02*
Y182750D01*
X635230Y108250D02*
X690270D01*
X625000Y90520D02*
X699500D01*
Y35480D02*
Y90520D01*
X625000Y35480D02*
X699500D01*
X625000D02*
Y90520D01*
X609450Y45750D02*
Y70250D01*
X597050Y45750D02*
X609450D01*
X597050D02*
Y70250D01*
X609450D01*
X586250Y42200D02*
X610750D01*
Y29800D02*
Y42200D01*
X586250Y29800D02*
X610750D01*
X586250D02*
Y42200D01*
X330900Y468993D02*
X368100D01*
X330900D02*
Y502993D01*
X368100D01*
Y468993D02*
Y502993D01*
X351000Y406800D02*
X375500D01*
X351000D02*
Y419200D01*
X375500D01*
Y406800D02*
Y419200D01*
X384285Y422250D02*
Y457750D01*
X342285D02*
X384285D01*
X342285Y422250D02*
Y457750D01*
Y422250D02*
X384285D01*
X393000Y489550D02*
X417500D01*
X393000D02*
Y501950D01*
X417500D01*
Y489550D02*
Y501950D01*
X470500Y448500D02*
Y486500D01*
X393000D02*
X470500D01*
X393000Y448500D02*
Y486500D01*
Y448500D02*
X470500D01*
X413000Y523950D02*
X437500D01*
Y511550D02*
Y523950D01*
X413000Y511550D02*
X437500D01*
X413000D02*
Y523950D01*
X337500D02*
X362000D01*
Y511550D02*
Y523950D01*
X337500Y511550D02*
X362000D01*
X337500D02*
Y523950D01*
X167500Y473750D02*
Y511750D01*
X90000D02*
X167500D01*
X90000Y473750D02*
Y511750D01*
Y473750D02*
X167500D01*
X11000Y268800D02*
X35500D01*
X11000D02*
Y281200D01*
X35500D01*
Y268800D02*
Y281200D01*
X328750Y77950D02*
X353250D01*
Y65550D02*
Y77950D01*
X328750Y65550D02*
X353250D01*
X328750D02*
Y77950D01*
X280750D02*
X305250D01*
Y65550D02*
Y77950D01*
X280750Y65550D02*
X305250D01*
X280750D02*
Y77950D01*
X197250Y66000D02*
Y79000D01*
Y66000D02*
X225250D01*
Y79000D01*
X197250D02*
X225250D01*
X211250Y67500D02*
Y77500D01*
X206250Y72500D02*
X216250D01*
X169000Y78950D02*
X193500D01*
Y66550D02*
Y78950D01*
X169000Y66550D02*
X193500D01*
X169000D02*
Y78950D01*
X253750Y214250D02*
Y248250D01*
Y214250D02*
X295250D01*
Y248250D01*
X253750D02*
X295250D01*
X261750Y198808D02*
X286250D01*
X261750D02*
Y211208D01*
X286250D01*
Y198808D02*
Y211208D01*
X112500Y65800D02*
X137000D01*
X112500D02*
Y78200D01*
X137000D01*
Y65800D02*
Y78200D01*
X109250Y65250D02*
Y78250D01*
X81250D02*
X109250D01*
X81250Y65250D02*
Y78250D01*
Y65250D02*
X109250D01*
X95250Y66750D02*
Y76750D01*
X90250Y71750D02*
X100250D01*
X104000Y204450D02*
X128500D01*
Y192050D02*
Y204450D01*
X104000Y192050D02*
X128500D01*
X104000D02*
Y204450D01*
X191550Y383000D02*
Y407500D01*
X203950D01*
Y383000D02*
Y407500D01*
X191550Y383000D02*
X203950D01*
X191500Y411500D02*
X204500D01*
Y439500D01*
X191500D02*
X204500D01*
X191500Y411500D02*
Y439500D01*
X193000Y425500D02*
X203000D01*
X198000Y420500D02*
Y430500D01*
X44250Y427200D02*
X68750D01*
Y414800D02*
Y427200D01*
X44250Y414800D02*
X68750D01*
X44250D02*
Y427200D01*
X44358Y403450D02*
X68857D01*
Y391050D02*
Y403450D01*
X44358Y391050D02*
X68857D01*
X44358D02*
Y403450D01*
X298780Y463810D02*
Y519690D01*
X208610D02*
X298780D01*
X208610Y463810D02*
Y519690D01*
Y463810D02*
X298780D01*
X553250Y232250D02*
X594750D01*
X553250D02*
Y266250D01*
X594750D01*
Y232250D02*
Y266250D01*
X78400Y261500D02*
X152600D01*
X78400Y207500D02*
X152600D01*
X78400D02*
Y261500D01*
X152600Y207500D02*
Y261500D01*
X66250Y244550D02*
Y256950D01*
X41750D02*
X66250D01*
X41750Y244550D02*
Y256950D01*
Y244550D02*
X66250D01*
X286000Y251293D02*
Y263692D01*
X261500D02*
X286000D01*
X261500Y251293D02*
Y263692D01*
Y251293D02*
X286000D01*
X249750Y223800D02*
Y236200D01*
X225250D02*
X249750D01*
X225250Y223800D02*
Y236200D01*
Y223800D02*
X249750D01*
X66250Y209050D02*
Y221450D01*
X41750D02*
X66250D01*
X41750Y209050D02*
Y221450D01*
Y209050D02*
X66250D01*
X98750Y514800D02*
Y527200D01*
Y514800D02*
X123250D01*
Y527200D01*
X98750D02*
X123250D01*
X681250Y185793D02*
Y198193D01*
X656750D02*
X681250D01*
X656750Y185793D02*
Y198193D01*
Y185793D02*
X681250D01*
X598250Y243800D02*
Y256200D01*
Y243800D02*
X622750D01*
Y256200D01*
X598250D02*
X622750D01*
X684293Y185793D02*
Y198193D01*
Y185793D02*
X708792D01*
Y198193D01*
X684293D02*
X708792D01*
X263242Y370750D02*
Y432750D01*
Y370750D02*
X339243D01*
Y432750D01*
X263242D02*
X339243D01*
X296243Y401750D02*
X306243D01*
X301243Y396750D02*
Y406750D01*
M02*
