G04*
G04 #@! TF.GenerationSoftware,Altium Limited,Altium Designer,21.6.4 (81)*
G04*
G04 Layer_Color=8388736*
%FSLAX44Y44*%
%MOMM*%
G71*
G04*
G04 #@! TF.SameCoordinates,DF600929-9F7D-4707-823E-D0FB3E8D8E71*
G04*
G04*
G04 #@! TF.FilePolarity,Positive*
G04*
G01*
G75*
%ADD10C,0.2000*%
%ADD13C,0.1000*%
D10*
X477000Y516250D02*
Y519250D01*
Y516250D02*
X483000D01*
Y519250D01*
X477000D02*
X483000D01*
D13*
X2700Y287500D02*
X617300D01*
X2700D02*
Y312500D01*
X617300D01*
Y287500D02*
Y312500D01*
X544050Y59200D02*
X569450D01*
Y33800D02*
Y59200D01*
X544050Y33800D02*
X569450D01*
X544050D02*
Y59200D01*
Y531200D02*
X569450D01*
Y505800D02*
Y531200D01*
X544050Y505800D02*
X569450D01*
X544050D02*
Y531200D01*
X265450Y33300D02*
Y58700D01*
X367050Y33300D02*
Y58700D01*
X265450D02*
X367050D01*
X265450Y33300D02*
X367050D01*
X378050Y33050D02*
Y58450D01*
X479650Y33050D02*
Y58450D01*
X378050D02*
X479650D01*
X378050Y33050D02*
X479650D01*
X221150Y34808D02*
Y60208D01*
X170350D02*
X221150D01*
X170350Y34808D02*
Y60208D01*
Y34808D02*
X221150D01*
X2700Y135100D02*
X617300D01*
X2700D02*
Y160100D01*
X617300D01*
Y135100D02*
Y160100D01*
X133900Y34057D02*
Y59457D01*
X83100D02*
X133900D01*
X83100Y34057D02*
Y59457D01*
Y34057D02*
X133900D01*
X210293Y382850D02*
X235693D01*
Y433650D01*
X210293D02*
X235693D01*
X210293Y382850D02*
Y433650D01*
X8050Y386100D02*
Y436900D01*
X33450D01*
Y386100D02*
Y436900D01*
X8050Y386100D02*
X33450D01*
X5200Y84900D02*
X614800D01*
Y110300D01*
X5200Y84900D02*
Y110300D01*
X614800D01*
X5200Y337300D02*
X614800D01*
Y362700D01*
X5200Y337300D02*
Y362700D01*
X614800D01*
M02*
