G04*
G04 #@! TF.GenerationSoftware,Altium Limited,Altium Designer,21.6.4 (81)*
G04*
G04 Layer_Color=8388736*
%FSLAX44Y44*%
%MOMM*%
G71*
G04*
G04 #@! TF.SameCoordinates,B5D7AA2C-AE02-420C-9FE3-D908FE65D14F*
G04*
G04*
G04 #@! TF.FilePolarity,Positive*
G04*
G01*
G75*
%ADD13C,0.1000*%
%ADD68C,0.1500*%
D13*
X524600Y359793D02*
X575400D01*
Y334393D02*
Y359793D01*
X524600Y334393D02*
X575400D01*
X524600D02*
Y359793D01*
X607050Y464700D02*
X632450D01*
Y439300D02*
Y464700D01*
X607050Y439300D02*
X632450D01*
X607050D02*
Y464700D01*
X841350Y55950D02*
X892150D01*
Y30550D02*
Y55950D01*
X841350Y30550D02*
X892150D01*
X841350D02*
Y55950D01*
X856550Y358850D02*
X881950D01*
X856550Y282650D02*
X881950D01*
Y358850D01*
X856550Y282650D02*
Y358850D01*
X628550Y4300D02*
Y29700D01*
Y4300D02*
X653950D01*
Y29700D01*
X628550D02*
X653950D01*
X761850Y55857D02*
X812650D01*
Y30457D02*
Y55857D01*
X761850Y30457D02*
X812650D01*
X761850D02*
Y55857D01*
X261950Y6800D02*
X363550D01*
X261950Y32200D02*
X363550D01*
Y6800D02*
Y32200D01*
X261950Y6800D02*
Y32200D01*
X115500Y32950D02*
X217100D01*
X115500Y7550D02*
X217100D01*
X115500D02*
Y32950D01*
X217100Y7550D02*
Y32950D01*
X761300Y65150D02*
X786700D01*
X761300Y141350D02*
X786700D01*
X761300Y65150D02*
Y141350D01*
X786700Y65150D02*
Y141350D01*
X637300Y98250D02*
Y123250D01*
X22700D02*
X637300D01*
X22700Y98250D02*
Y123250D01*
Y98250D02*
X637300D01*
X402300Y25100D02*
Y75900D01*
X427700D01*
Y25100D02*
Y75900D01*
X402300Y25100D02*
X427700D01*
X207600Y70507D02*
X258400D01*
Y45107D02*
Y70507D01*
X207600Y45107D02*
X258400D01*
X207600D02*
Y70507D01*
X83350Y71207D02*
X134150D01*
Y45807D02*
Y71207D01*
X83350Y45807D02*
X134150D01*
X83350D02*
Y71207D01*
X637300Y250650D02*
Y275650D01*
X22700D02*
X637300D01*
X22700Y250650D02*
Y275650D01*
Y250650D02*
X637300D01*
X5300Y348100D02*
Y398900D01*
X30700D01*
Y348100D02*
Y398900D01*
X5300Y348100D02*
X30700D01*
X25200Y300450D02*
X634800D01*
Y325850D01*
X25200Y300450D02*
Y325850D01*
X634800D01*
X711750Y330000D02*
Y368000D01*
X673750Y330000D02*
X711750D01*
X673750D02*
Y368000D01*
X711750D01*
X777250Y325500D02*
X807251D01*
X777250D02*
Y355500D01*
X807251Y325500D02*
Y355500D01*
X777250D02*
X807251D01*
X946050Y69500D02*
X971450D01*
X946050Y145700D02*
X971450D01*
X946050Y69500D02*
Y145700D01*
X971450Y69500D02*
Y145700D01*
X615585Y449501D02*
Y454499D01*
X618084D01*
X618917Y453666D01*
Y452000D01*
X618084Y451167D01*
X615585D01*
X623915Y454499D02*
X622249Y453666D01*
X620583Y452000D01*
Y450334D01*
X621416Y449501D01*
X623082D01*
X623915Y450334D01*
Y451167D01*
X623082Y452000D01*
X620583D01*
X637085Y14501D02*
Y19499D01*
X639584D01*
X640417Y18666D01*
Y17000D01*
X639584Y16167D01*
X637085D01*
X645415Y19499D02*
X642083D01*
Y17000D01*
X643749Y17833D01*
X644582D01*
X645415Y17000D01*
Y15334D01*
X644582Y14501D01*
X642916D01*
X642083Y15334D01*
X783085Y40658D02*
Y45657D01*
X785584D01*
X786417Y44823D01*
Y43157D01*
X785584Y42324D01*
X783085D01*
X788083Y44823D02*
X788916Y45657D01*
X790582D01*
X791415Y44823D01*
Y43991D01*
X790582Y43157D01*
X791415Y42324D01*
Y41491D01*
X790582Y40658D01*
X788916D01*
X788083Y41491D01*
Y42324D01*
X788916Y43157D01*
X788083Y43991D01*
Y44823D01*
X788916Y43157D02*
X790582D01*
X318998Y21999D02*
Y17001D01*
X316499D01*
X315666Y17834D01*
Y19500D01*
X316499Y20333D01*
X318998D01*
X314000Y21999D02*
X312333D01*
X313167D01*
Y17001D01*
X314000Y17834D01*
X306502Y21999D02*
X309834D01*
X306502Y18667D01*
Y17834D01*
X307335Y17001D01*
X309001D01*
X309834Y17834D01*
X160885Y17751D02*
Y22749D01*
X163384D01*
X164217Y21916D01*
Y20250D01*
X163384Y19417D01*
X160885D01*
X165884Y17751D02*
X167550D01*
X166716D01*
Y22749D01*
X165884Y21916D01*
X170049Y17751D02*
X171715D01*
X170882D01*
Y22749D01*
X170049Y21916D01*
X771501Y109498D02*
X776499D01*
Y106999D01*
X775666Y106166D01*
X774000D01*
X773167Y106999D01*
Y109498D01*
X771501Y104500D02*
Y102833D01*
Y103666D01*
X776499D01*
X775666Y104500D01*
Y100334D02*
X776499Y99501D01*
Y97835D01*
X775666Y97002D01*
X772334D01*
X771501Y97835D01*
Y99501D01*
X772334Y100334D01*
X775666D01*
X330000Y108251D02*
X331666D01*
X330833D01*
Y112416D01*
X331666Y113249D01*
X332499D01*
X333332Y112416D01*
X328334Y113249D02*
X326668D01*
X327501D01*
Y108251D01*
X328334Y109084D01*
X417499Y47168D02*
X412501D01*
Y49667D01*
X413334Y50500D01*
X415000D01*
X415833Y49667D01*
Y47168D01*
X417499Y52166D02*
Y53832D01*
Y52999D01*
X412501D01*
X413334Y52166D01*
X228835Y55308D02*
Y60307D01*
X231334D01*
X232167Y59474D01*
Y57807D01*
X231334Y56974D01*
X228835D01*
X233833Y59474D02*
X234666Y60307D01*
X236332D01*
X237165Y59474D01*
Y58640D01*
X236332Y57807D01*
X235499D01*
X236332D01*
X237165Y56974D01*
Y56141D01*
X236332Y55308D01*
X234666D01*
X233833Y56141D01*
X104585Y56008D02*
Y61007D01*
X107084D01*
X107917Y60174D01*
Y58507D01*
X107084Y57674D01*
X104585D01*
X112082Y56008D02*
Y61007D01*
X109583Y58507D01*
X112915D01*
X330833Y260651D02*
X332499D01*
X331666D01*
Y264816D01*
X332499Y265649D01*
X333332D01*
X334165Y264816D01*
X325835Y265649D02*
X329167D01*
X325835Y262317D01*
Y261484D01*
X326668Y260651D01*
X328334D01*
X329167Y261484D01*
X20499Y369335D02*
X15501D01*
Y371834D01*
X16334Y372667D01*
X18000D01*
X18833Y371834D01*
Y369335D01*
X20499Y377665D02*
Y374333D01*
X17167Y377665D01*
X16334D01*
X15501Y376832D01*
Y375166D01*
X16334Y374333D01*
X334165Y315649D02*
Y310651D01*
X331666D01*
X330833Y311484D01*
Y313150D01*
X331666Y313983D01*
X334165D01*
X329167Y310651D02*
X325835D01*
Y311484D01*
X329167Y314816D01*
Y315649D01*
X695249Y352332D02*
X690251D01*
Y349000D01*
Y347334D02*
Y345668D01*
Y346501D01*
X695249D01*
X694416Y347334D01*
X788085Y342999D02*
Y338001D01*
X791417D01*
X796415D02*
X793083D01*
X796415Y341333D01*
Y342166D01*
X795582Y342999D01*
X793916D01*
X793083Y342166D01*
X956251Y111765D02*
X961249D01*
Y109266D01*
X960416Y108433D01*
X958750D01*
X957917Y109266D01*
Y111765D01*
X957084Y106767D02*
X956251Y105934D01*
Y104268D01*
X957084Y103435D01*
X960416D01*
X961249Y104268D01*
Y105934D01*
X960416Y106767D01*
X959583D01*
X958750Y105934D01*
Y103435D01*
D68*
X531256Y339595D02*
Y354590D01*
X538754D01*
X541253Y352091D01*
Y347093D01*
X538754Y344593D01*
X531256D01*
X546251Y339595D02*
X551250D01*
X548750D01*
Y354590D01*
X546251Y352091D01*
X568744Y354590D02*
X558747D01*
Y347093D01*
X563746Y349592D01*
X566245D01*
X568744Y347093D01*
Y342094D01*
X566245Y339595D01*
X561246D01*
X558747Y342094D01*
X848006Y35752D02*
Y50748D01*
X855504D01*
X858003Y48248D01*
Y43250D01*
X855504Y40751D01*
X848006D01*
X863001Y35752D02*
X868000D01*
X865500D01*
Y50748D01*
X863001Y48248D01*
X882995Y35752D02*
Y50748D01*
X875497Y43250D01*
X885494D01*
X876748Y302006D02*
X861752D01*
Y309504D01*
X864252Y312003D01*
X869250D01*
X871749Y309504D01*
Y302006D01*
X876748Y317001D02*
Y322000D01*
Y319500D01*
X861752D01*
X864252Y317001D01*
Y329497D02*
X861752Y331996D01*
Y336995D01*
X864252Y339494D01*
X866751D01*
X869250Y336995D01*
Y334496D01*
Y336995D01*
X871749Y339494D01*
X874248D01*
X876748Y336995D01*
Y331996D01*
X874248Y329497D01*
M02*
