G04*
G04 #@! TF.GenerationSoftware,Altium Limited,Altium Designer,21.6.4 (81)*
G04*
G04 Layer_Physical_Order=2*
G04 Layer_Color=16711680*
%FSLAX44Y44*%
%MOMM*%
G71*
G04*
G04 #@! TF.SameCoordinates,B5D7AA2C-AE02-420C-9FE3-D908FE65D14F*
G04*
G04*
G04 #@! TF.FilePolarity,Positive*
G04*
G01*
G75*
%ADD12C,0.1524*%
%ADD50C,0.2000*%
%ADD56C,0.1016*%
%ADD57C,0.2540*%
%ADD58C,0.5000*%
%ADD59C,1.6000*%
G04:AMPARAMS|DCode=60|XSize=1.6mm|YSize=1.6mm|CornerRadius=0.4mm|HoleSize=0mm|Usage=FLASHONLY|Rotation=0.000|XOffset=0mm|YOffset=0mm|HoleType=Round|Shape=RoundedRectangle|*
%AMROUNDEDRECTD60*
21,1,1.6000,0.8000,0,0,0.0*
21,1,0.8000,1.6000,0,0,0.0*
1,1,0.8000,0.4000,-0.4000*
1,1,0.8000,-0.4000,-0.4000*
1,1,0.8000,-0.4000,0.4000*
1,1,0.8000,0.4000,0.4000*
%
%ADD60ROUNDEDRECTD60*%
G04:AMPARAMS|DCode=61|XSize=1.6mm|YSize=1.6mm|CornerRadius=0.4mm|HoleSize=0mm|Usage=FLASHONLY|Rotation=90.000|XOffset=0mm|YOffset=0mm|HoleType=Round|Shape=RoundedRectangle|*
%AMROUNDEDRECTD61*
21,1,1.6000,0.8000,0,0,90.0*
21,1,0.8000,1.6000,0,0,90.0*
1,1,0.8000,0.4000,0.4000*
1,1,0.8000,0.4000,-0.4000*
1,1,0.8000,-0.4000,-0.4000*
1,1,0.8000,-0.4000,0.4000*
%
%ADD61ROUNDEDRECTD61*%
%ADD62C,1.5200*%
G04:AMPARAMS|DCode=63|XSize=1.52mm|YSize=1.52mm|CornerRadius=0.38mm|HoleSize=0mm|Usage=FLASHONLY|Rotation=180.000|XOffset=0mm|YOffset=0mm|HoleType=Round|Shape=RoundedRectangle|*
%AMROUNDEDRECTD63*
21,1,1.5200,0.7600,0,0,180.0*
21,1,0.7600,1.5200,0,0,180.0*
1,1,0.7600,-0.3800,0.3800*
1,1,0.7600,0.3800,0.3800*
1,1,0.7600,0.3800,-0.3800*
1,1,0.7600,-0.3800,-0.3800*
%
%ADD63ROUNDEDRECTD63*%
%ADD64C,0.6000*%
%ADD65C,0.1270*%
%ADD66C,1.0000*%
G36*
X955408Y478991D02*
X950930Y477916D01*
X946674Y476153D01*
X942747Y473747D01*
X939245Y470755D01*
X936253Y467253D01*
X933847Y463326D01*
X932084Y459070D01*
X931009Y454592D01*
X930648Y450000D01*
X931009Y445408D01*
X932084Y440930D01*
X933847Y436674D01*
X936253Y432747D01*
X939245Y429245D01*
X942747Y426253D01*
X946674Y423847D01*
X950930Y422084D01*
X955408Y421009D01*
X960000Y420648D01*
X964592Y421009D01*
X969070Y422084D01*
X973326Y423847D01*
X977253Y426253D01*
X980755Y429245D01*
X983747Y432747D01*
X986153Y436674D01*
X987916Y440930D01*
X988991Y445408D01*
X990250Y445294D01*
Y34706D01*
X988991Y34592D01*
X987916Y39070D01*
X986153Y43326D01*
X983747Y47253D01*
X980755Y50755D01*
X977253Y53747D01*
X973326Y56153D01*
X969070Y57916D01*
X964592Y58991D01*
X960000Y59352D01*
X955408Y58991D01*
X950930Y57916D01*
X946674Y56153D01*
X942747Y53747D01*
X939245Y50755D01*
X936253Y47253D01*
X933847Y43326D01*
X932084Y39070D01*
X931009Y34592D01*
X930648Y30000D01*
X931009Y25408D01*
X932084Y20930D01*
X933847Y16674D01*
X936253Y12747D01*
X939245Y9245D01*
X942747Y6253D01*
X946674Y3847D01*
X950930Y2084D01*
X954321Y1270D01*
X954170Y0D01*
X35830D01*
X35679Y1270D01*
X39070Y2084D01*
X43326Y3847D01*
X47253Y6253D01*
X50755Y9245D01*
X53747Y12747D01*
X56153Y16674D01*
X57916Y20930D01*
X58991Y25408D01*
X59352Y30000D01*
X58991Y34592D01*
X57916Y39070D01*
X56153Y43326D01*
X53747Y47253D01*
X50755Y50755D01*
X47253Y53747D01*
X43326Y56153D01*
X39070Y57916D01*
X34592Y58991D01*
X30000Y59352D01*
X25408Y58991D01*
X20930Y57916D01*
X16674Y56153D01*
X12747Y53747D01*
X9245Y50755D01*
X6253Y47253D01*
X3847Y43326D01*
X2084Y39070D01*
X1270Y35679D01*
X0Y35830D01*
Y444170D01*
X1270Y444321D01*
X2084Y440930D01*
X3847Y436674D01*
X6253Y432747D01*
X9245Y429245D01*
X12747Y426253D01*
X16674Y423847D01*
X20930Y422084D01*
X25408Y421009D01*
X30000Y420648D01*
X34592Y421009D01*
X39070Y422084D01*
X43326Y423847D01*
X47253Y426253D01*
X50755Y429245D01*
X53747Y432747D01*
X56153Y436674D01*
X57916Y440930D01*
X58991Y445408D01*
X59352Y450000D01*
X58991Y454592D01*
X57916Y459070D01*
X56153Y463326D01*
X53747Y467253D01*
X50755Y470755D01*
X47253Y473747D01*
X43326Y476153D01*
X39070Y477916D01*
X34592Y478991D01*
X34706Y480250D01*
X955294D01*
X955408Y478991D01*
D02*
G37*
%LPC*%
G36*
X623750Y460855D02*
X615750D01*
X613892Y460486D01*
X612317Y459433D01*
X611264Y457858D01*
X610895Y456000D01*
Y448000D01*
X611264Y446142D01*
X612317Y444567D01*
X613892Y443514D01*
X615750Y443145D01*
X623750D01*
X625608Y443514D01*
X627183Y444567D01*
X628236Y446142D01*
X628605Y448000D01*
Y456000D01*
X628236Y457858D01*
X627183Y459433D01*
X625608Y460486D01*
X623750Y460855D01*
D02*
G37*
G36*
X563853Y355854D02*
X561547D01*
X559318Y355257D01*
X557320Y354104D01*
X555689Y352472D01*
X554535Y350475D01*
X553938Y348246D01*
Y345939D01*
X554535Y343711D01*
X555689Y341712D01*
X557320Y340081D01*
X559318Y338928D01*
X561547Y338330D01*
X563853D01*
X566082Y338928D01*
X568080Y340081D01*
X569711Y341712D01*
X570865Y343711D01*
X571462Y345939D01*
Y348246D01*
X570865Y350475D01*
X569711Y352472D01*
X568080Y354104D01*
X566082Y355257D01*
X563853Y355854D01*
D02*
G37*
G36*
X850150Y367322D02*
X850150Y367322D01*
X753900D01*
X753107Y367164D01*
X752435Y366715D01*
X752435Y366715D01*
X736208Y350488D01*
X736148Y350512D01*
X734652D01*
X733269Y349939D01*
X732211Y348881D01*
X731638Y347498D01*
Y346002D01*
X732211Y344619D01*
X733269Y343561D01*
X734652Y342988D01*
X736148D01*
X737531Y343561D01*
X738589Y344619D01*
X739162Y346002D01*
Y347498D01*
X739137Y347557D01*
X754758Y363178D01*
X849292D01*
X861763Y350707D01*
X861085Y349532D01*
X860488Y347304D01*
Y344996D01*
X861085Y342768D01*
X862239Y340770D01*
X863870Y339139D01*
X865868Y337985D01*
X868096Y337388D01*
X870404D01*
X872632Y337985D01*
X874630Y339139D01*
X876261Y340770D01*
X877415Y342768D01*
X878012Y344996D01*
Y347304D01*
X877415Y349532D01*
X876261Y351530D01*
X874630Y353161D01*
X872632Y354315D01*
X870404Y354912D01*
X868096D01*
X865868Y354315D01*
X864693Y353637D01*
X851615Y366715D01*
X850943Y367164D01*
X850150Y367322D01*
D02*
G37*
G36*
X870404Y329512D02*
X868096D01*
X865868Y328915D01*
X863870Y327761D01*
X862239Y326130D01*
X861085Y324132D01*
X860488Y321903D01*
Y319597D01*
X861085Y317368D01*
X861763Y316193D01*
X813392Y267822D01*
X773667D01*
X773524Y267965D01*
X772852Y268414D01*
X772059Y268572D01*
X772059Y268572D01*
X732895D01*
X732871Y268631D01*
X731813Y269689D01*
X730430Y270262D01*
X728933D01*
X727550Y269689D01*
X726492Y268631D01*
X725919Y267248D01*
Y265752D01*
X726492Y264369D01*
X727550Y263311D01*
X728933Y262738D01*
X730430D01*
X731813Y263311D01*
X732871Y264369D01*
X732895Y264428D01*
X771201D01*
X771344Y264285D01*
X772016Y263836D01*
X772809Y263678D01*
X772809Y263678D01*
X814250D01*
X814250Y263678D01*
X815043Y263836D01*
X815715Y264285D01*
X864693Y313263D01*
X865868Y312585D01*
X868096Y311988D01*
X870404D01*
X872632Y312585D01*
X874630Y313739D01*
X876261Y315370D01*
X877415Y317368D01*
X878012Y319597D01*
Y321903D01*
X877415Y324132D01*
X876261Y326130D01*
X874630Y327761D01*
X872632Y328915D01*
X870404Y329512D01*
D02*
G37*
G36*
X597854Y321912D02*
X595546D01*
X593318Y321315D01*
X591320Y320161D01*
X589689Y318530D01*
X588535Y316532D01*
X587938Y314303D01*
Y311996D01*
X588535Y309768D01*
X589689Y307770D01*
X591320Y306139D01*
X593318Y304985D01*
X595546Y304388D01*
X597854D01*
X600082Y304985D01*
X602080Y306139D01*
X603711Y307770D01*
X604865Y309768D01*
X605462Y311996D01*
Y314303D01*
X604865Y316532D01*
X603711Y318530D01*
X602080Y320161D01*
X600082Y321315D01*
X597854Y321912D01*
D02*
G37*
G36*
X572453D02*
X570146D01*
X567918Y321315D01*
X565920Y320161D01*
X564289Y318530D01*
X563135Y316532D01*
X562538Y314303D01*
Y311996D01*
X563135Y309768D01*
X564289Y307770D01*
X565920Y306139D01*
X567918Y304985D01*
X570146Y304388D01*
X572453D01*
X574682Y304985D01*
X576680Y306139D01*
X578311Y307770D01*
X579465Y309768D01*
X580062Y311996D01*
Y314303D01*
X579465Y316532D01*
X578311Y318530D01*
X576680Y320161D01*
X574682Y321315D01*
X572453Y321912D01*
D02*
G37*
G36*
X547053D02*
X544747D01*
X542518Y321315D01*
X540520Y320161D01*
X538889Y318530D01*
X537735Y316532D01*
X537138Y314303D01*
Y311996D01*
X537735Y309768D01*
X538889Y307770D01*
X540520Y306139D01*
X542518Y304985D01*
X544747Y304388D01*
X547053D01*
X549282Y304985D01*
X551280Y306139D01*
X552911Y307770D01*
X554065Y309768D01*
X554662Y311996D01*
Y314303D01*
X554065Y316532D01*
X552911Y318530D01*
X551280Y320161D01*
X549282Y321315D01*
X547053Y321912D01*
D02*
G37*
G36*
X521654D02*
X519347D01*
X517118Y321315D01*
X515120Y320161D01*
X513489Y318530D01*
X512335Y316532D01*
X511738Y314303D01*
Y311996D01*
X512335Y309768D01*
X513489Y307770D01*
X515120Y306139D01*
X517118Y304985D01*
X519347Y304388D01*
X521654D01*
X523882Y304985D01*
X525880Y306139D01*
X527511Y307770D01*
X528665Y309768D01*
X529262Y311996D01*
Y314303D01*
X528665Y316532D01*
X527511Y318530D01*
X525880Y320161D01*
X523882Y321315D01*
X521654Y321912D01*
D02*
G37*
G36*
X496254D02*
X493946D01*
X491718Y321315D01*
X489720Y320161D01*
X488089Y318530D01*
X486935Y316532D01*
X486338Y314303D01*
Y311996D01*
X486935Y309768D01*
X488089Y307770D01*
X489720Y306139D01*
X491718Y304985D01*
X493946Y304388D01*
X496254D01*
X498482Y304985D01*
X500480Y306139D01*
X502111Y307770D01*
X503265Y309768D01*
X503862Y311996D01*
Y314303D01*
X503265Y316532D01*
X502111Y318530D01*
X500480Y320161D01*
X498482Y321315D01*
X496254Y321912D01*
D02*
G37*
G36*
X420053D02*
X417747D01*
X415518Y321315D01*
X413520Y320161D01*
X411889Y318530D01*
X410735Y316532D01*
X410138Y314303D01*
Y311996D01*
X410735Y309768D01*
X411889Y307770D01*
X413520Y306139D01*
X415518Y304985D01*
X417747Y304388D01*
X420053D01*
X422282Y304985D01*
X424280Y306139D01*
X425911Y307770D01*
X427065Y309768D01*
X427662Y311996D01*
Y314303D01*
X427065Y316532D01*
X425911Y318530D01*
X424280Y320161D01*
X422282Y321315D01*
X420053Y321912D01*
D02*
G37*
G36*
X394654D02*
X392346D01*
X390118Y321315D01*
X388120Y320161D01*
X386489Y318530D01*
X385335Y316532D01*
X384738Y314303D01*
Y311996D01*
X385335Y309768D01*
X386489Y307770D01*
X388120Y306139D01*
X390118Y304985D01*
X392346Y304388D01*
X394654D01*
X396882Y304985D01*
X398880Y306139D01*
X400511Y307770D01*
X401665Y309768D01*
X402262Y311996D01*
Y314303D01*
X401665Y316532D01*
X400511Y318530D01*
X398880Y320161D01*
X396882Y321315D01*
X394654Y321912D01*
D02*
G37*
G36*
X369254D02*
X366946D01*
X364718Y321315D01*
X362720Y320161D01*
X361089Y318530D01*
X359935Y316532D01*
X359338Y314303D01*
Y311996D01*
X359935Y309768D01*
X361089Y307770D01*
X362720Y306139D01*
X364718Y304985D01*
X366946Y304388D01*
X369254D01*
X371482Y304985D01*
X373480Y306139D01*
X375111Y307770D01*
X376265Y309768D01*
X376862Y311996D01*
Y314303D01*
X376265Y316532D01*
X375111Y318530D01*
X373480Y320161D01*
X371482Y321315D01*
X369254Y321912D01*
D02*
G37*
G36*
X343853D02*
X341547D01*
X339318Y321315D01*
X337320Y320161D01*
X335689Y318530D01*
X334535Y316532D01*
X333938Y314303D01*
Y311996D01*
X334535Y309768D01*
X335689Y307770D01*
X337320Y306139D01*
X339318Y304985D01*
X341547Y304388D01*
X343853D01*
X346082Y304985D01*
X348080Y306139D01*
X349711Y307770D01*
X350865Y309768D01*
X351462Y311996D01*
Y314303D01*
X350865Y316532D01*
X349711Y318530D01*
X348080Y320161D01*
X346082Y321315D01*
X343853Y321912D01*
D02*
G37*
G36*
X318454D02*
X316147D01*
X313918Y321315D01*
X311920Y320161D01*
X310289Y318530D01*
X309135Y316532D01*
X308538Y314303D01*
Y311996D01*
X309135Y309768D01*
X310289Y307770D01*
X311920Y306139D01*
X313918Y304985D01*
X316147Y304388D01*
X318454D01*
X320682Y304985D01*
X322680Y306139D01*
X324311Y307770D01*
X325465Y309768D01*
X326062Y311996D01*
Y314303D01*
X325465Y316532D01*
X324311Y318530D01*
X322680Y320161D01*
X320682Y321315D01*
X318454Y321912D01*
D02*
G37*
G36*
X293053D02*
X290746D01*
X288518Y321315D01*
X286520Y320161D01*
X284889Y318530D01*
X283735Y316532D01*
X283138Y314303D01*
Y311996D01*
X283735Y309768D01*
X284889Y307770D01*
X286520Y306139D01*
X288518Y304985D01*
X290746Y304388D01*
X293053D01*
X295282Y304985D01*
X297280Y306139D01*
X298911Y307770D01*
X300065Y309768D01*
X300662Y311996D01*
Y314303D01*
X300065Y316532D01*
X298911Y318530D01*
X297280Y320161D01*
X295282Y321315D01*
X293053Y321912D01*
D02*
G37*
G36*
X267654D02*
X265347D01*
X263118Y321315D01*
X261120Y320161D01*
X259489Y318530D01*
X258335Y316532D01*
X257738Y314303D01*
Y311996D01*
X258335Y309768D01*
X259489Y307770D01*
X261120Y306139D01*
X263118Y304985D01*
X265347Y304388D01*
X267654D01*
X269882Y304985D01*
X271880Y306139D01*
X273511Y307770D01*
X274665Y309768D01*
X275262Y311996D01*
Y314303D01*
X274665Y316532D01*
X273511Y318530D01*
X271880Y320161D01*
X269882Y321315D01*
X267654Y321912D01*
D02*
G37*
G36*
X242253D02*
X239946D01*
X237718Y321315D01*
X235720Y320161D01*
X234089Y318530D01*
X232935Y316532D01*
X232338Y314303D01*
Y311996D01*
X232935Y309768D01*
X234089Y307770D01*
X235720Y306139D01*
X237718Y304985D01*
X239946Y304388D01*
X242253D01*
X244482Y304985D01*
X246480Y306139D01*
X248111Y307770D01*
X249265Y309768D01*
X249862Y311996D01*
Y314303D01*
X249265Y316532D01*
X248111Y318530D01*
X246480Y320161D01*
X244482Y321315D01*
X242253Y321912D01*
D02*
G37*
G36*
X216854D02*
X214547D01*
X212318Y321315D01*
X210320Y320161D01*
X208689Y318530D01*
X207535Y316532D01*
X206938Y314303D01*
Y311996D01*
X207535Y309768D01*
X208689Y307770D01*
X210320Y306139D01*
X212318Y304985D01*
X214547Y304388D01*
X216854D01*
X219082Y304985D01*
X221080Y306139D01*
X222711Y307770D01*
X223865Y309768D01*
X224462Y311996D01*
Y314303D01*
X223865Y316532D01*
X222711Y318530D01*
X221080Y320161D01*
X219082Y321315D01*
X216854Y321912D01*
D02*
G37*
G36*
X191453D02*
X189146D01*
X186918Y321315D01*
X184920Y320161D01*
X183289Y318530D01*
X182135Y316532D01*
X181538Y314303D01*
Y311996D01*
X182135Y309768D01*
X183289Y307770D01*
X184920Y306139D01*
X186918Y304985D01*
X189146Y304388D01*
X191453D01*
X193682Y304985D01*
X195680Y306139D01*
X197311Y307770D01*
X198465Y309768D01*
X199062Y311996D01*
Y314303D01*
X198465Y316532D01*
X197311Y318530D01*
X195680Y320161D01*
X193682Y321315D01*
X191453Y321912D01*
D02*
G37*
G36*
X166054D02*
X163746D01*
X161518Y321315D01*
X159520Y320161D01*
X157889Y318530D01*
X156735Y316532D01*
X156138Y314303D01*
Y311996D01*
X156735Y309768D01*
X157889Y307770D01*
X159520Y306139D01*
X161518Y304985D01*
X163746Y304388D01*
X166054D01*
X168282Y304985D01*
X170280Y306139D01*
X171911Y307770D01*
X173065Y309768D01*
X173662Y311996D01*
Y314303D01*
X173065Y316532D01*
X171911Y318530D01*
X170280Y320161D01*
X168282Y321315D01*
X166054Y321912D01*
D02*
G37*
G36*
X140653D02*
X138347D01*
X136118Y321315D01*
X134120Y320161D01*
X132489Y318530D01*
X131335Y316532D01*
X130738Y314303D01*
Y311996D01*
X131335Y309768D01*
X132489Y307770D01*
X134120Y306139D01*
X136118Y304985D01*
X138347Y304388D01*
X140653D01*
X142882Y304985D01*
X144880Y306139D01*
X146511Y307770D01*
X147665Y309768D01*
X148262Y311996D01*
Y314303D01*
X147665Y316532D01*
X146511Y318530D01*
X144880Y320161D01*
X142882Y321315D01*
X140653Y321912D01*
D02*
G37*
G36*
X115253D02*
X112947D01*
X110718Y321315D01*
X108720Y320161D01*
X107089Y318530D01*
X105935Y316532D01*
X105338Y314303D01*
Y311996D01*
X105935Y309768D01*
X107089Y307770D01*
X108720Y306139D01*
X110718Y304985D01*
X112947Y304388D01*
X115253D01*
X117482Y304985D01*
X119480Y306139D01*
X121111Y307770D01*
X122265Y309768D01*
X122862Y311996D01*
Y314303D01*
X122265Y316532D01*
X121111Y318530D01*
X119480Y320161D01*
X117482Y321315D01*
X115253Y321912D01*
D02*
G37*
G36*
X89853D02*
X87547D01*
X85318Y321315D01*
X83320Y320161D01*
X81689Y318530D01*
X80535Y316532D01*
X79938Y314303D01*
Y311996D01*
X80535Y309768D01*
X81689Y307770D01*
X83320Y306139D01*
X85318Y304985D01*
X87547Y304388D01*
X89853D01*
X92082Y304985D01*
X94080Y306139D01*
X95711Y307770D01*
X96865Y309768D01*
X97462Y311996D01*
Y314303D01*
X96865Y316532D01*
X95711Y318530D01*
X94080Y320161D01*
X92082Y321315D01*
X89853Y321912D01*
D02*
G37*
G36*
X64454D02*
X62147D01*
X59918Y321315D01*
X57920Y320161D01*
X56289Y318530D01*
X55135Y316532D01*
X54538Y314303D01*
Y311996D01*
X55135Y309768D01*
X56289Y307770D01*
X57920Y306139D01*
X59918Y304985D01*
X62147Y304388D01*
X64454D01*
X66682Y304985D01*
X68680Y306139D01*
X70311Y307770D01*
X71465Y309768D01*
X72062Y311996D01*
Y314303D01*
X71465Y316532D01*
X70311Y318530D01*
X68680Y320161D01*
X66682Y321315D01*
X64454Y321912D01*
D02*
G37*
G36*
X19153Y394962D02*
X16846D01*
X14618Y394365D01*
X12620Y393211D01*
X10989Y391580D01*
X9835Y389582D01*
X9238Y387354D01*
Y385046D01*
X9835Y382818D01*
X10989Y380820D01*
X12620Y379189D01*
X14618Y378035D01*
X16824Y377444D01*
X26141Y368127D01*
Y345452D01*
X19730Y339040D01*
X18456Y337135D01*
X18009Y334886D01*
X18009Y334886D01*
Y257910D01*
X18009Y257910D01*
X18456Y255662D01*
X19730Y253756D01*
X48390Y225096D01*
X48390Y225096D01*
X50296Y223822D01*
X52544Y223375D01*
X173250D01*
X175498Y223822D01*
X177404Y225096D01*
X178678Y227002D01*
X179125Y229250D01*
X178678Y231498D01*
X177404Y233404D01*
X175498Y234678D01*
X173250Y235125D01*
X54977D01*
X36433Y253670D01*
X37111Y254788D01*
X39001D01*
X41128Y255358D01*
X43034Y256459D01*
X44591Y258016D01*
X45692Y259922D01*
X46262Y262049D01*
Y264251D01*
X45692Y266378D01*
X44591Y268284D01*
X43034Y269841D01*
X41128Y270942D01*
X39001Y271512D01*
X36799D01*
X34672Y270942D01*
X32766Y269841D01*
X31209Y268284D01*
X31029Y267973D01*
X29759Y268313D01*
Y307432D01*
X31029Y307630D01*
X32520Y306139D01*
X34518Y304985D01*
X36746Y304388D01*
X39053D01*
X41282Y304985D01*
X43280Y306139D01*
X44911Y307770D01*
X46065Y309768D01*
X46662Y311996D01*
Y314303D01*
X46065Y316532D01*
X44911Y318530D01*
X43280Y320161D01*
X41282Y321315D01*
X39053Y321912D01*
X36746D01*
X34518Y321315D01*
X32520Y320161D01*
X31029Y318670D01*
X29759Y318869D01*
Y332453D01*
X36170Y338864D01*
X36170Y338864D01*
X37444Y340770D01*
X37891Y343018D01*
X37891Y343018D01*
Y370560D01*
X37891Y370560D01*
X37444Y372809D01*
X36170Y374715D01*
X26567Y384318D01*
X26762Y385046D01*
Y387354D01*
X26165Y389582D01*
X25011Y391580D01*
X23380Y393211D01*
X21382Y394365D01*
X19153Y394962D01*
D02*
G37*
G36*
X626100Y322005D02*
X618100D01*
X616242Y321636D01*
X614667Y320583D01*
X613614Y319008D01*
X613245Y317150D01*
Y309150D01*
X613614Y307292D01*
X614667Y305717D01*
X616242Y304664D01*
X618100Y304295D01*
X626100D01*
X627958Y304664D01*
X629533Y305717D01*
X630586Y307292D01*
X630955Y309150D01*
Y317150D01*
X630586Y319008D01*
X629533Y320583D01*
X627958Y321636D01*
X626100Y322005D01*
D02*
G37*
G36*
X873250Y304205D02*
X865250D01*
X863392Y303836D01*
X861817Y302783D01*
X860764Y301208D01*
X860395Y299350D01*
Y291350D01*
X860714Y289744D01*
X763042Y192072D01*
X687464D01*
X687439Y192131D01*
X686381Y193189D01*
X684998Y193762D01*
X683502D01*
X682119Y193189D01*
X681061Y192131D01*
X680488Y190748D01*
Y189252D01*
X681061Y187869D01*
X682119Y186811D01*
X683502Y186238D01*
X684998D01*
X686381Y186811D01*
X687439Y187869D01*
X687464Y187928D01*
X730848D01*
X731187Y187413D01*
X731483Y186658D01*
X731316Y186254D01*
X729375Y184313D01*
X726737D01*
X725464Y184060D01*
X724385Y183339D01*
X719148Y178102D01*
X718427Y177023D01*
X718174Y175750D01*
Y169000D01*
X718427Y167727D01*
X719148Y166648D01*
X731625Y154172D01*
X732061Y153119D01*
X733119Y152061D01*
X734502Y151488D01*
X735998D01*
X737381Y152061D01*
X738439Y153119D01*
X739012Y154502D01*
Y155998D01*
X738439Y157381D01*
X737381Y158439D01*
X736328Y158875D01*
X724826Y170378D01*
Y174372D01*
X728115Y177661D01*
X730752D01*
X732025Y177914D01*
X733104Y178635D01*
X735421Y180952D01*
X735498D01*
X736881Y181525D01*
X737939Y182583D01*
X738512Y183966D01*
Y185462D01*
X738017Y186658D01*
X738313Y187413D01*
X738652Y187928D01*
X763900D01*
X763900Y187928D01*
X764693Y188086D01*
X765365Y188535D01*
X863644Y286814D01*
X865250Y286495D01*
X873250D01*
X875108Y286864D01*
X876683Y287917D01*
X877736Y289492D01*
X878105Y291350D01*
Y299350D01*
X877736Y301208D01*
X876683Y302783D01*
X875108Y303836D01*
X873250Y304205D01*
D02*
G37*
G36*
X326498Y365762D02*
X325002D01*
X323619Y365189D01*
X322561Y364131D01*
X321988Y362748D01*
Y361252D01*
X322561Y359869D01*
X323619Y358811D01*
X325002Y358238D01*
X326498D01*
X327881Y358811D01*
X328939Y359869D01*
X328964Y359928D01*
X409138D01*
X445981Y323085D01*
X445557Y322143D01*
X445359Y321912D01*
X443147D01*
X440918Y321315D01*
X438920Y320161D01*
X437289Y318530D01*
X436135Y316532D01*
X435538Y314303D01*
Y311996D01*
X436135Y309768D01*
X437289Y307770D01*
X438920Y306139D01*
X440918Y304985D01*
X443147Y304388D01*
X445453D01*
X447682Y304985D01*
X449680Y306139D01*
X451311Y307770D01*
X452465Y309768D01*
X453062Y311996D01*
Y314209D01*
X453293Y314407D01*
X454235Y314831D01*
X457342Y311724D01*
Y308890D01*
X457342Y308889D01*
X457500Y308097D01*
X457949Y307424D01*
X477514Y287859D01*
Y268879D01*
X476859Y268532D01*
X476244Y268431D01*
X474834Y269841D01*
X472928Y270942D01*
X470801Y271512D01*
X468599D01*
X466472Y270942D01*
X464566Y269841D01*
X463009Y268284D01*
X461908Y266378D01*
X461338Y264251D01*
Y262049D01*
X461908Y259922D01*
X463009Y258016D01*
X464566Y256459D01*
X466472Y255358D01*
X468599Y254788D01*
X470801D01*
X472928Y255358D01*
X474834Y256459D01*
X476391Y258016D01*
X477492Y259922D01*
X477942Y261601D01*
X479045Y262026D01*
X479320Y262019D01*
X602804Y138535D01*
X603476Y138086D01*
X604269Y137928D01*
X604269Y137928D01*
X637536D01*
X637561Y137869D01*
X638619Y136811D01*
X640002Y136238D01*
X641498D01*
X642881Y136811D01*
X643939Y137869D01*
X644512Y139252D01*
Y140748D01*
X643939Y142131D01*
X642881Y143189D01*
X641498Y143762D01*
X640002D01*
X638619Y143189D01*
X637561Y142131D01*
X637536Y142072D01*
X605127D01*
X493626Y253573D01*
X493844Y254282D01*
X494207Y254788D01*
X496201D01*
X498328Y255358D01*
X500234Y256459D01*
X501791Y258016D01*
X502892Y259922D01*
X503462Y262049D01*
Y264251D01*
X502892Y266378D01*
X501791Y268284D01*
X500234Y269841D01*
X498328Y270942D01*
X496201Y271512D01*
X493999D01*
X491872Y270942D01*
X489966Y269841D01*
X488409Y268284D01*
X487308Y266378D01*
X486738Y264251D01*
Y262257D01*
X486232Y261894D01*
X485523Y261676D01*
X481658Y265541D01*
Y288717D01*
X481658Y288717D01*
X481500Y289510D01*
X481051Y290182D01*
X481051Y290182D01*
X468019Y303215D01*
X468443Y304157D01*
X468641Y304388D01*
X470854D01*
X473082Y304985D01*
X475080Y306139D01*
X476711Y307770D01*
X477865Y309768D01*
X478462Y311996D01*
Y314303D01*
X477865Y316532D01*
X476711Y318530D01*
X475080Y320161D01*
X473082Y321315D01*
X470854Y321912D01*
X468546D01*
X466318Y321315D01*
X464320Y320161D01*
X462689Y318530D01*
X461535Y316532D01*
X461251Y315472D01*
X459835Y315092D01*
X411462Y363465D01*
X410789Y363914D01*
X409997Y364072D01*
X409996Y364072D01*
X328964D01*
X328939Y364131D01*
X327881Y365189D01*
X326498Y365762D01*
D02*
G37*
G36*
X801148Y258512D02*
X799652D01*
X798269Y257939D01*
X797211Y256881D01*
X797072Y256547D01*
X756423D01*
X755581Y257389D01*
X754198Y257962D01*
X752702D01*
X751319Y257389D01*
X750261Y256331D01*
X749688Y254948D01*
Y253452D01*
X750261Y252069D01*
X751319Y251011D01*
X752702Y250438D01*
X754198D01*
X755581Y251011D01*
X756639Y252069D01*
X756778Y252403D01*
X797427D01*
X798269Y251561D01*
X799652Y250988D01*
X801148D01*
X802531Y251561D01*
X803589Y252619D01*
X804162Y254002D01*
Y255498D01*
X803589Y256881D01*
X802531Y257939D01*
X801148Y258512D01*
D02*
G37*
G36*
X572401Y271512D02*
X570199D01*
X568072Y270942D01*
X566166Y269841D01*
X564609Y268284D01*
X563508Y266378D01*
X562938Y264251D01*
Y262049D01*
X563508Y259922D01*
X564609Y258016D01*
X566166Y256459D01*
X568072Y255358D01*
X570199Y254788D01*
X572401D01*
X574528Y255358D01*
X576434Y256459D01*
X577991Y258016D01*
X579092Y259922D01*
X579662Y262049D01*
Y264251D01*
X579092Y266378D01*
X577991Y268284D01*
X576434Y269841D01*
X574528Y270942D01*
X572401Y271512D01*
D02*
G37*
G36*
X547001D02*
X544799D01*
X542672Y270942D01*
X540766Y269841D01*
X539209Y268284D01*
X538108Y266378D01*
X537538Y264251D01*
Y262049D01*
X538108Y259922D01*
X539209Y258016D01*
X540766Y256459D01*
X542672Y255358D01*
X544799Y254788D01*
X547001D01*
X549128Y255358D01*
X551034Y256459D01*
X552591Y258016D01*
X553692Y259922D01*
X554262Y262049D01*
Y264251D01*
X553692Y266378D01*
X552591Y268284D01*
X551034Y269841D01*
X549128Y270942D01*
X547001Y271512D01*
D02*
G37*
G36*
X521601D02*
X519399D01*
X517272Y270942D01*
X515366Y269841D01*
X513809Y268284D01*
X512708Y266378D01*
X512138Y264251D01*
Y262049D01*
X512708Y259922D01*
X513809Y258016D01*
X515366Y256459D01*
X517272Y255358D01*
X519399Y254788D01*
X521601D01*
X523728Y255358D01*
X525634Y256459D01*
X527191Y258016D01*
X528292Y259922D01*
X528862Y262049D01*
Y264251D01*
X528292Y266378D01*
X527191Y268284D01*
X525634Y269841D01*
X523728Y270942D01*
X521601Y271512D01*
D02*
G37*
G36*
X445401D02*
X443199D01*
X441072Y270942D01*
X439166Y269841D01*
X437609Y268284D01*
X436508Y266378D01*
X435938Y264251D01*
Y262049D01*
X436508Y259922D01*
X437609Y258016D01*
X439166Y256459D01*
X441072Y255358D01*
X443199Y254788D01*
X445401D01*
X447528Y255358D01*
X449434Y256459D01*
X450991Y258016D01*
X452092Y259922D01*
X452662Y262049D01*
Y264251D01*
X452092Y266378D01*
X450991Y268284D01*
X449434Y269841D01*
X447528Y270942D01*
X445401Y271512D01*
D02*
G37*
G36*
X420001D02*
X417799D01*
X415672Y270942D01*
X413766Y269841D01*
X412209Y268284D01*
X411108Y266378D01*
X410538Y264251D01*
Y262049D01*
X411108Y259922D01*
X412209Y258016D01*
X413766Y256459D01*
X415672Y255358D01*
X417799Y254788D01*
X420001D01*
X422128Y255358D01*
X424034Y256459D01*
X425591Y258016D01*
X426692Y259922D01*
X427262Y262049D01*
Y264251D01*
X426692Y266378D01*
X425591Y268284D01*
X424034Y269841D01*
X422128Y270942D01*
X420001Y271512D01*
D02*
G37*
G36*
X394601D02*
X392399D01*
X390272Y270942D01*
X388366Y269841D01*
X386809Y268284D01*
X385708Y266378D01*
X385138Y264251D01*
Y262049D01*
X385708Y259922D01*
X386809Y258016D01*
X388366Y256459D01*
X390272Y255358D01*
X392399Y254788D01*
X394601D01*
X396728Y255358D01*
X398634Y256459D01*
X400191Y258016D01*
X401292Y259922D01*
X401862Y262049D01*
Y264251D01*
X401292Y266378D01*
X400191Y268284D01*
X398634Y269841D01*
X396728Y270942D01*
X394601Y271512D01*
D02*
G37*
G36*
X369201D02*
X366999D01*
X364872Y270942D01*
X362966Y269841D01*
X361409Y268284D01*
X360308Y266378D01*
X359738Y264251D01*
Y262049D01*
X360308Y259922D01*
X361409Y258016D01*
X362966Y256459D01*
X364872Y255358D01*
X366999Y254788D01*
X369201D01*
X371328Y255358D01*
X373234Y256459D01*
X374791Y258016D01*
X375892Y259922D01*
X376462Y262049D01*
Y264251D01*
X375892Y266378D01*
X374791Y268284D01*
X373234Y269841D01*
X371328Y270942D01*
X369201Y271512D01*
D02*
G37*
G36*
X343801D02*
X341599D01*
X339472Y270942D01*
X337566Y269841D01*
X336009Y268284D01*
X334908Y266378D01*
X334338Y264251D01*
Y262049D01*
X334908Y259922D01*
X336009Y258016D01*
X337566Y256459D01*
X339472Y255358D01*
X341599Y254788D01*
X343801D01*
X345928Y255358D01*
X347834Y256459D01*
X349391Y258016D01*
X350492Y259922D01*
X351062Y262049D01*
Y264251D01*
X350492Y266378D01*
X349391Y268284D01*
X347834Y269841D01*
X345928Y270942D01*
X343801Y271512D01*
D02*
G37*
G36*
X318401D02*
X316199D01*
X314072Y270942D01*
X312166Y269841D01*
X310609Y268284D01*
X309508Y266378D01*
X308938Y264251D01*
Y262049D01*
X309508Y259922D01*
X310609Y258016D01*
X312166Y256459D01*
X314072Y255358D01*
X316199Y254788D01*
X318401D01*
X320528Y255358D01*
X322434Y256459D01*
X323991Y258016D01*
X325092Y259922D01*
X325662Y262049D01*
Y264251D01*
X325092Y266378D01*
X323991Y268284D01*
X322434Y269841D01*
X320528Y270942D01*
X318401Y271512D01*
D02*
G37*
G36*
X293001D02*
X290799D01*
X288672Y270942D01*
X286766Y269841D01*
X285209Y268284D01*
X284108Y266378D01*
X283538Y264251D01*
Y262049D01*
X284108Y259922D01*
X285209Y258016D01*
X286766Y256459D01*
X288672Y255358D01*
X290799Y254788D01*
X293001D01*
X295128Y255358D01*
X297034Y256459D01*
X298591Y258016D01*
X299692Y259922D01*
X300262Y262049D01*
Y264251D01*
X299692Y266378D01*
X298591Y268284D01*
X297034Y269841D01*
X295128Y270942D01*
X293001Y271512D01*
D02*
G37*
G36*
X267601D02*
X265399D01*
X263272Y270942D01*
X261366Y269841D01*
X259809Y268284D01*
X258708Y266378D01*
X258138Y264251D01*
Y262049D01*
X258708Y259922D01*
X259809Y258016D01*
X261366Y256459D01*
X263272Y255358D01*
X265399Y254788D01*
X267601D01*
X269728Y255358D01*
X271634Y256459D01*
X273191Y258016D01*
X274292Y259922D01*
X274862Y262049D01*
Y264251D01*
X274292Y266378D01*
X273191Y268284D01*
X271634Y269841D01*
X269728Y270942D01*
X267601Y271512D01*
D02*
G37*
G36*
X242201D02*
X239999D01*
X237872Y270942D01*
X235966Y269841D01*
X234409Y268284D01*
X233308Y266378D01*
X232738Y264251D01*
Y262049D01*
X233308Y259922D01*
X234409Y258016D01*
X235966Y256459D01*
X237872Y255358D01*
X239999Y254788D01*
X242201D01*
X244328Y255358D01*
X246234Y256459D01*
X247791Y258016D01*
X248892Y259922D01*
X249462Y262049D01*
Y264251D01*
X248892Y266378D01*
X247791Y268284D01*
X246234Y269841D01*
X244328Y270942D01*
X242201Y271512D01*
D02*
G37*
G36*
X216801D02*
X214599D01*
X212472Y270942D01*
X210566Y269841D01*
X209009Y268284D01*
X207908Y266378D01*
X207338Y264251D01*
Y262049D01*
X207908Y259922D01*
X209009Y258016D01*
X210566Y256459D01*
X212472Y255358D01*
X214599Y254788D01*
X216801D01*
X218928Y255358D01*
X220834Y256459D01*
X222391Y258016D01*
X223492Y259922D01*
X224062Y262049D01*
Y264251D01*
X223492Y266378D01*
X222391Y268284D01*
X220834Y269841D01*
X218928Y270942D01*
X216801Y271512D01*
D02*
G37*
G36*
X191401D02*
X189199D01*
X187072Y270942D01*
X185166Y269841D01*
X183609Y268284D01*
X182508Y266378D01*
X181938Y264251D01*
Y262049D01*
X182508Y259922D01*
X183609Y258016D01*
X185166Y256459D01*
X187072Y255358D01*
X189199Y254788D01*
X191401D01*
X193528Y255358D01*
X195434Y256459D01*
X196991Y258016D01*
X198092Y259922D01*
X198662Y262049D01*
Y264251D01*
X198092Y266378D01*
X196991Y268284D01*
X195434Y269841D01*
X193528Y270942D01*
X191401Y271512D01*
D02*
G37*
G36*
X166001D02*
X163799D01*
X161672Y270942D01*
X159766Y269841D01*
X158209Y268284D01*
X157108Y266378D01*
X156538Y264251D01*
Y262049D01*
X157108Y259922D01*
X158209Y258016D01*
X159766Y256459D01*
X161672Y255358D01*
X163799Y254788D01*
X166001D01*
X168128Y255358D01*
X170034Y256459D01*
X171591Y258016D01*
X172692Y259922D01*
X173262Y262049D01*
Y264251D01*
X172692Y266378D01*
X171591Y268284D01*
X170034Y269841D01*
X168128Y270942D01*
X166001Y271512D01*
D02*
G37*
G36*
X140601D02*
X138399D01*
X136272Y270942D01*
X134366Y269841D01*
X132809Y268284D01*
X131708Y266378D01*
X131138Y264251D01*
Y262049D01*
X131708Y259922D01*
X132809Y258016D01*
X134366Y256459D01*
X136272Y255358D01*
X138399Y254788D01*
X140601D01*
X142728Y255358D01*
X144634Y256459D01*
X146191Y258016D01*
X147292Y259922D01*
X147862Y262049D01*
Y264251D01*
X147292Y266378D01*
X146191Y268284D01*
X144634Y269841D01*
X142728Y270942D01*
X140601Y271512D01*
D02*
G37*
G36*
X115201D02*
X112999D01*
X110872Y270942D01*
X108966Y269841D01*
X107409Y268284D01*
X106308Y266378D01*
X105738Y264251D01*
Y262049D01*
X106308Y259922D01*
X107409Y258016D01*
X108966Y256459D01*
X110872Y255358D01*
X112999Y254788D01*
X115201D01*
X117328Y255358D01*
X119234Y256459D01*
X120791Y258016D01*
X121892Y259922D01*
X122462Y262049D01*
Y264251D01*
X121892Y266378D01*
X120791Y268284D01*
X119234Y269841D01*
X117328Y270942D01*
X115201Y271512D01*
D02*
G37*
G36*
X89801D02*
X87599D01*
X85472Y270942D01*
X83566Y269841D01*
X82009Y268284D01*
X80908Y266378D01*
X80338Y264251D01*
Y262049D01*
X80908Y259922D01*
X82009Y258016D01*
X83566Y256459D01*
X85472Y255358D01*
X87599Y254788D01*
X89801D01*
X91928Y255358D01*
X93834Y256459D01*
X95391Y258016D01*
X96492Y259922D01*
X97062Y262049D01*
Y264251D01*
X96492Y266378D01*
X95391Y268284D01*
X93834Y269841D01*
X91928Y270942D01*
X89801Y271512D01*
D02*
G37*
G36*
X64401D02*
X62199D01*
X60072Y270942D01*
X58166Y269841D01*
X56609Y268284D01*
X55508Y266378D01*
X54938Y264251D01*
Y262049D01*
X55508Y259922D01*
X56609Y258016D01*
X58166Y256459D01*
X60072Y255358D01*
X62199Y254788D01*
X64401D01*
X66528Y255358D01*
X68434Y256459D01*
X69991Y258016D01*
X71092Y259922D01*
X71662Y262049D01*
Y264251D01*
X71092Y266378D01*
X69991Y268284D01*
X68434Y269841D01*
X66528Y270942D01*
X64401Y271512D01*
D02*
G37*
G36*
X625900Y271601D02*
X618300D01*
X616520Y271247D01*
X615011Y270239D01*
X614003Y268730D01*
X613649Y266950D01*
Y259350D01*
X614003Y257570D01*
X615011Y256061D01*
X616520Y255053D01*
X618300Y254699D01*
X625900D01*
X627680Y255053D01*
X629189Y256061D01*
X630197Y257570D01*
X630551Y259350D01*
Y266950D01*
X630197Y268730D01*
X629189Y270239D01*
X627680Y271247D01*
X625900Y271601D01*
D02*
G37*
G36*
X901250Y187072D02*
X901250Y187072D01*
X850250D01*
X850250Y187072D01*
X849457Y186914D01*
X848785Y186465D01*
X811535Y149215D01*
X811086Y148543D01*
X810928Y147750D01*
X810928Y147750D01*
Y136999D01*
X810061Y136131D01*
X809488Y134748D01*
Y133252D01*
X810061Y131869D01*
X811119Y130811D01*
X812502Y130238D01*
X813998D01*
X815381Y130811D01*
X816439Y131869D01*
X817012Y133252D01*
Y134748D01*
X816439Y136131D01*
X815381Y137189D01*
X815072Y137317D01*
Y146892D01*
X851108Y182928D01*
X900392D01*
X907513Y175807D01*
X907488Y175748D01*
Y174252D01*
X908061Y172869D01*
X909119Y171811D01*
X910502Y171238D01*
X911998D01*
X913381Y171811D01*
X914439Y172869D01*
X915012Y174252D01*
Y175748D01*
X914439Y177131D01*
X913381Y178189D01*
X911998Y178762D01*
X910502D01*
X910443Y178738D01*
X902715Y186465D01*
X902043Y186914D01*
X901250Y187072D01*
D02*
G37*
G36*
X488773Y174762D02*
X487277D01*
X485894Y174189D01*
X484836Y173131D01*
X484811Y173072D01*
X414369D01*
X414369Y173072D01*
X413576Y172914D01*
X412904Y172465D01*
X412904Y172465D01*
X352320Y111881D01*
X352045Y111874D01*
X350942Y112299D01*
X350492Y113978D01*
X349391Y115884D01*
X347834Y117441D01*
X345928Y118542D01*
X343801Y119112D01*
X341599D01*
X339472Y118542D01*
X337566Y117441D01*
X336009Y115884D01*
X334908Y113978D01*
X334338Y111851D01*
Y109649D01*
X334908Y107522D01*
X336009Y105616D01*
X337566Y104059D01*
X339472Y102958D01*
X341599Y102388D01*
X343593D01*
X343956Y101882D01*
X344174Y101173D01*
X321171Y78170D01*
X320840Y78236D01*
X319568Y77982D01*
X318489Y77261D01*
X302361Y61133D01*
X253880D01*
X253865Y61189D01*
X252711Y63187D01*
X251080Y64819D01*
X249082Y65972D01*
X246854Y66569D01*
X244547D01*
X242318Y65972D01*
X240320Y64819D01*
X238689Y63187D01*
X237535Y61189D01*
X236938Y58961D01*
Y56654D01*
X237535Y54425D01*
X238689Y52427D01*
X240320Y50796D01*
X242318Y49643D01*
X244547Y49045D01*
X246854D01*
X249082Y49643D01*
X251080Y50796D01*
X252711Y52427D01*
X253865Y54425D01*
X253880Y54482D01*
X303738D01*
X305011Y54735D01*
X306090Y55456D01*
X323192Y72558D01*
X323379Y72838D01*
X333409D01*
X333410Y72838D01*
X334202Y72996D01*
X334874Y73445D01*
X355144Y93714D01*
X441533D01*
X441658Y92444D01*
X441507Y92414D01*
X440835Y91965D01*
X419557Y70687D01*
X418382Y71365D01*
X416153Y71962D01*
X413847D01*
X411618Y71365D01*
X409620Y70211D01*
X407989Y68580D01*
X406835Y66582D01*
X406820Y66526D01*
X330362D01*
X329089Y66273D01*
X328010Y65552D01*
X303534Y41076D01*
X171100D01*
X169827Y40823D01*
X168748Y40102D01*
X157032Y28386D01*
X156982Y28415D01*
X154754Y29012D01*
X152446D01*
X150218Y28415D01*
X148220Y27261D01*
X146589Y25630D01*
X145435Y23632D01*
X144838Y21404D01*
Y19096D01*
X145435Y16868D01*
X146589Y14870D01*
X148220Y13239D01*
X150218Y12085D01*
X152446Y11488D01*
X154754D01*
X156982Y12085D01*
X158980Y13239D01*
X160611Y14870D01*
X161765Y16868D01*
X162362Y19096D01*
Y21404D01*
X161765Y23632D01*
X161736Y23682D01*
X172478Y34424D01*
X304912D01*
X306185Y34677D01*
X307263Y35398D01*
X331739Y59874D01*
X406820D01*
X406835Y59818D01*
X407989Y57820D01*
X409620Y56189D01*
X411618Y55035D01*
X413847Y54438D01*
X416153D01*
X418382Y55035D01*
X420380Y56189D01*
X422011Y57820D01*
X423165Y59818D01*
X423762Y62046D01*
Y64353D01*
X423165Y66582D01*
X422487Y67757D01*
X443158Y88428D01*
X562036D01*
X562061Y88369D01*
X563119Y87311D01*
X564502Y86738D01*
X565998D01*
X567381Y87311D01*
X568439Y88369D01*
X569012Y89752D01*
Y91248D01*
X568517Y92444D01*
X568813Y93199D01*
X569152Y93714D01*
X755206D01*
X766513Y82407D01*
X765835Y81232D01*
X765238Y79004D01*
Y76696D01*
X765835Y74468D01*
X766989Y72470D01*
X768620Y70839D01*
X770618Y69685D01*
X772847Y69088D01*
X775154D01*
X777382Y69685D01*
X779380Y70839D01*
X781011Y72470D01*
X781696Y73656D01*
X782966Y73315D01*
Y63712D01*
X782966Y63712D01*
X783124Y62919D01*
X783573Y62247D01*
X792035Y53785D01*
X792035Y53785D01*
X792707Y53336D01*
X793500Y53178D01*
X798769D01*
X798796Y51919D01*
X796568Y51322D01*
X794570Y50169D01*
X792939Y48537D01*
X791785Y46539D01*
X791188Y44311D01*
Y42004D01*
X791785Y39775D01*
X792939Y37777D01*
X794570Y36146D01*
X796568Y34992D01*
X798796Y34395D01*
X801104D01*
X803332Y34992D01*
X805330Y36146D01*
X806961Y37777D01*
X808115Y39775D01*
X808712Y42004D01*
Y44311D01*
X808115Y46539D01*
X806961Y48537D01*
X805330Y50169D01*
X803332Y51322D01*
X801104Y51919D01*
X801131Y53178D01*
X848934D01*
X849059Y51908D01*
X848192Y51736D01*
X846617Y50683D01*
X845564Y49108D01*
X845195Y47250D01*
Y39250D01*
X845564Y37392D01*
X846617Y35817D01*
X848192Y34764D01*
X850050Y34395D01*
X858050D01*
X859908Y34764D01*
X861483Y35817D01*
X862536Y37392D01*
X862905Y39250D01*
Y46199D01*
X864175Y46725D01*
X866540Y44360D01*
X866540Y44360D01*
X867212Y43911D01*
X868005Y43754D01*
X868005Y43754D01*
X870688D01*
Y42097D01*
X871285Y39868D01*
X872439Y37870D01*
X874070Y36239D01*
X876068Y35085D01*
X878297Y34488D01*
X880603D01*
X882832Y35085D01*
X884830Y36239D01*
X886461Y37870D01*
X887615Y39868D01*
X888212Y42097D01*
Y44404D01*
X887615Y46632D01*
X886937Y47807D01*
X892715Y53585D01*
X893164Y54257D01*
X893322Y55050D01*
X893322Y55050D01*
Y86286D01*
X893381Y86311D01*
X894439Y87369D01*
X895012Y88752D01*
Y90248D01*
X894439Y91631D01*
X893381Y92689D01*
X893204Y92763D01*
X893186Y93524D01*
X893385Y94062D01*
X893967Y94178D01*
X894640Y94628D01*
X899465Y99453D01*
X899465Y99453D01*
X899914Y100125D01*
X900072Y100918D01*
X900072Y100918D01*
Y112786D01*
X900131Y112811D01*
X901189Y113869D01*
X901762Y115252D01*
Y116748D01*
X901189Y118131D01*
X900131Y119189D01*
X898748Y119762D01*
X897252D01*
X895869Y119189D01*
X894811Y118131D01*
X894238Y116748D01*
Y115252D01*
X894811Y113869D01*
X895869Y112811D01*
X895928Y112786D01*
Y101776D01*
X892316Y98164D01*
X838516D01*
X830738Y105942D01*
X830762Y106002D01*
Y107498D01*
X830189Y108881D01*
X829131Y109939D01*
X827748Y110512D01*
X826252D01*
X824869Y109939D01*
X823811Y108881D01*
X823238Y107498D01*
Y106002D01*
X823811Y104619D01*
X824869Y103561D01*
X826252Y102988D01*
X827748D01*
X827807Y103013D01*
X836192Y94628D01*
X836865Y94178D01*
X837657Y94021D01*
X837658Y94021D01*
X889015D01*
X889267Y92751D01*
X889119Y92689D01*
X888061Y91631D01*
X887488Y90248D01*
Y88752D01*
X888061Y87369D01*
X889119Y86311D01*
X889178Y86286D01*
Y55908D01*
X884007Y50737D01*
X882832Y51415D01*
X880603Y52012D01*
X878297D01*
X876068Y51415D01*
X874070Y50261D01*
X872439Y48630D01*
X872016Y47897D01*
X868863D01*
X860045Y56715D01*
X859373Y57164D01*
X858581Y57322D01*
X858580Y57322D01*
X794358D01*
X787110Y64570D01*
Y80999D01*
X787110Y81000D01*
X786952Y81792D01*
X786503Y82465D01*
X786503Y82465D01*
X776669Y92298D01*
Y94894D01*
X777382Y95085D01*
X779380Y96239D01*
X781011Y97870D01*
X782165Y99868D01*
X782762Y102096D01*
Y104403D01*
X782165Y106632D01*
X781011Y108630D01*
X779380Y110261D01*
X777382Y111415D01*
X775154Y112012D01*
X772847D01*
X770618Y111415D01*
X768620Y110261D01*
X766989Y108630D01*
X765835Y106632D01*
X765238Y104403D01*
Y102096D01*
X765835Y99868D01*
X766989Y97870D01*
X768620Y96239D01*
X770618Y95085D01*
X772526Y94574D01*
Y91440D01*
X772526Y91440D01*
X772683Y90647D01*
X773132Y89975D01*
X775276Y87831D01*
X774699Y86612D01*
X772847D01*
X770618Y86015D01*
X769443Y85337D01*
X757529Y97251D01*
X756857Y97700D01*
X756064Y97858D01*
X756064Y97858D01*
X354286D01*
X354286Y97858D01*
X353493Y97700D01*
X352821Y97251D01*
X332551Y76981D01*
X327502D01*
X327016Y78155D01*
X354051Y105190D01*
X354500Y105862D01*
X354658Y106655D01*
X354658Y106655D01*
Y108359D01*
X358523Y112224D01*
X359232Y112006D01*
X359738Y111643D01*
Y109649D01*
X360308Y107522D01*
X361409Y105616D01*
X362966Y104059D01*
X364872Y102958D01*
X366999Y102388D01*
X369201D01*
X371328Y102958D01*
X373234Y104059D01*
X374791Y105616D01*
X375892Y107522D01*
X376462Y109649D01*
Y111851D01*
X375892Y113978D01*
X374791Y115884D01*
X373234Y117441D01*
X371328Y118542D01*
X369201Y119112D01*
X367207D01*
X366844Y119618D01*
X366626Y120327D01*
X415227Y168928D01*
X484811D01*
X484836Y168869D01*
X485894Y167811D01*
X487277Y167238D01*
X488773D01*
X490156Y167811D01*
X491214Y168869D01*
X491787Y170252D01*
Y171748D01*
X491214Y173131D01*
X490156Y174189D01*
X488773Y174762D01*
D02*
G37*
G36*
X885248Y180012D02*
X883752D01*
X882369Y179439D01*
X881311Y178381D01*
X880738Y176998D01*
Y175502D01*
X880937Y175020D01*
X849474Y143557D01*
X848991Y142391D01*
X849466Y141244D01*
Y136827D01*
X848287Y136044D01*
X848059Y136081D01*
X847748Y136392D01*
X847101Y136660D01*
X846932D01*
X840877Y142716D01*
X840628Y143316D01*
X833957Y149987D01*
X833819Y150319D01*
X832750Y150762D01*
X828196D01*
X827939Y151381D01*
X826881Y152439D01*
X825498Y153012D01*
X824002D01*
X822619Y152439D01*
X821561Y151381D01*
X820988Y149998D01*
Y148502D01*
X821561Y147119D01*
X822619Y146061D01*
X824002Y145488D01*
X825498D01*
X826881Y146061D01*
X827939Y147119D01*
X828196Y147738D01*
X832318D01*
X838435Y141621D01*
X838684Y141020D01*
X844709Y134995D01*
X842385Y132672D01*
X841956Y132494D01*
X841460Y131998D01*
X841192Y131350D01*
Y130649D01*
X841460Y130002D01*
X841956Y129506D01*
X842603Y129238D01*
X843304D01*
X843952Y129506D01*
X844191Y129746D01*
X844432Y129808D01*
X845553Y129325D01*
Y126821D01*
X832584Y113852D01*
X832100Y112686D01*
Y107750D01*
X832584Y106584D01*
X836858Y102310D01*
X838024Y101826D01*
X869946D01*
X871112Y102310D01*
X877653Y108850D01*
X880904D01*
X881311Y107869D01*
X882369Y106811D01*
X883752Y106238D01*
X885248D01*
X886631Y106811D01*
X887689Y107869D01*
X888262Y109252D01*
Y110748D01*
X887689Y112131D01*
X886631Y113189D01*
X885248Y113762D01*
X883752D01*
X882369Y113189D01*
X881329Y112150D01*
X876969D01*
X875803Y111666D01*
X869262Y105126D01*
X850855D01*
X850157Y106396D01*
X850512Y107252D01*
Y108748D01*
X850488Y108807D01*
X877701Y136021D01*
X882644D01*
X882811Y135619D01*
X883869Y134561D01*
X885252Y133988D01*
X886748D01*
X888131Y134561D01*
X889189Y135619D01*
X889762Y137002D01*
Y138498D01*
X889189Y139881D01*
X888131Y140939D01*
X886748Y141512D01*
X885252D01*
X883869Y140939D01*
X883094Y140164D01*
X876842D01*
X876050Y140007D01*
X875377Y139558D01*
X875377Y139557D01*
X847558Y111737D01*
X847498Y111762D01*
X846002D01*
X845286Y111466D01*
X844679Y111550D01*
X844117Y112785D01*
X852024Y120691D01*
X852507Y121858D01*
X852250Y122479D01*
Y129877D01*
X852369Y129996D01*
X852638Y130644D01*
Y131345D01*
X852369Y131992D01*
X852205Y132157D01*
X851980Y132907D01*
X852190Y133731D01*
X852335Y133876D01*
X852603Y134523D01*
Y135225D01*
X852335Y135872D01*
X852215Y135991D01*
Y141633D01*
X883270Y172687D01*
X883752Y172488D01*
X885248D01*
X886631Y173061D01*
X887689Y174119D01*
X888262Y175502D01*
Y176998D01*
X887689Y178381D01*
X886631Y179439D01*
X885248Y180012D01*
D02*
G37*
G36*
X597801Y271512D02*
X595599D01*
X593472Y270942D01*
X591566Y269841D01*
X590009Y268284D01*
X588908Y266378D01*
X588338Y264251D01*
Y262049D01*
X588908Y259922D01*
X590009Y258016D01*
X591566Y256459D01*
X593472Y255358D01*
X595599Y254788D01*
X597801D01*
X599928Y255358D01*
X600964Y255956D01*
X719449Y137471D01*
X719449Y137471D01*
X720121Y137022D01*
X720914Y136864D01*
X765624D01*
X766240Y135594D01*
X765514Y134508D01*
X765145Y132650D01*
Y124650D01*
X765514Y122792D01*
X766567Y121217D01*
X768142Y120164D01*
X770000Y119795D01*
X778000D01*
X779858Y120164D01*
X781433Y121217D01*
X782486Y122792D01*
X782855Y124650D01*
Y131958D01*
X784125Y132484D01*
X799168Y117442D01*
X799168Y117442D01*
X799840Y116992D01*
X800633Y116835D01*
X815406D01*
X815406Y116835D01*
X816199Y116992D01*
X816871Y117442D01*
X824689Y125260D01*
X825344Y124988D01*
X826841D01*
X828223Y125561D01*
X829282Y126619D01*
X829854Y128002D01*
Y129499D01*
X829282Y130882D01*
X828223Y131940D01*
X826841Y132512D01*
X825344D01*
X823961Y131940D01*
X822903Y130882D01*
X822330Y129499D01*
Y128760D01*
X814548Y120978D01*
X801491D01*
X782069Y140401D01*
X781397Y140850D01*
X780604Y141008D01*
X780604Y141008D01*
X721772D01*
X603894Y258886D01*
X604492Y259922D01*
X605062Y262049D01*
Y264251D01*
X604492Y266378D01*
X603391Y268284D01*
X601834Y269841D01*
X599928Y270942D01*
X597801Y271512D01*
D02*
G37*
G36*
X962750Y141855D02*
X954750D01*
X952892Y141486D01*
X951317Y140433D01*
X950264Y138858D01*
X949895Y137000D01*
Y129000D01*
X950264Y127142D01*
X951317Y125567D01*
X952892Y124514D01*
X954750Y124145D01*
X962750D01*
X964608Y124514D01*
X966183Y125567D01*
X967236Y127142D01*
X967605Y129000D01*
Y137000D01*
X967236Y138858D01*
X966183Y140433D01*
X964608Y141486D01*
X962750Y141855D01*
D02*
G37*
G36*
X597801Y119112D02*
X595599D01*
X593472Y118542D01*
X591566Y117441D01*
X590009Y115884D01*
X588908Y113978D01*
X588338Y111851D01*
Y109649D01*
X588908Y107522D01*
X590009Y105616D01*
X591566Y104059D01*
X593472Y102958D01*
X595599Y102388D01*
X597801D01*
X599928Y102958D01*
X601834Y104059D01*
X603391Y105616D01*
X604492Y107522D01*
X605062Y109649D01*
Y111851D01*
X604492Y113978D01*
X603391Y115884D01*
X601834Y117441D01*
X599928Y118542D01*
X597801Y119112D01*
D02*
G37*
G36*
X572401D02*
X570199D01*
X568072Y118542D01*
X566166Y117441D01*
X564609Y115884D01*
X563508Y113978D01*
X562938Y111851D01*
Y109649D01*
X563508Y107522D01*
X564609Y105616D01*
X566166Y104059D01*
X568072Y102958D01*
X570199Y102388D01*
X572401D01*
X574528Y102958D01*
X576434Y104059D01*
X577991Y105616D01*
X579092Y107522D01*
X579662Y109649D01*
Y111851D01*
X579092Y113978D01*
X577991Y115884D01*
X576434Y117441D01*
X574528Y118542D01*
X572401Y119112D01*
D02*
G37*
G36*
X547001D02*
X544799D01*
X542672Y118542D01*
X540766Y117441D01*
X539209Y115884D01*
X538108Y113978D01*
X537538Y111851D01*
Y109649D01*
X538108Y107522D01*
X539209Y105616D01*
X540766Y104059D01*
X542672Y102958D01*
X544799Y102388D01*
X547001D01*
X549128Y102958D01*
X551034Y104059D01*
X552591Y105616D01*
X553692Y107522D01*
X554262Y109649D01*
Y111851D01*
X553692Y113978D01*
X552591Y115884D01*
X551034Y117441D01*
X549128Y118542D01*
X547001Y119112D01*
D02*
G37*
G36*
X521601D02*
X519399D01*
X517272Y118542D01*
X515366Y117441D01*
X513809Y115884D01*
X512708Y113978D01*
X512138Y111851D01*
Y109649D01*
X512708Y107522D01*
X513809Y105616D01*
X515366Y104059D01*
X517272Y102958D01*
X519399Y102388D01*
X521601D01*
X523728Y102958D01*
X525634Y104059D01*
X527191Y105616D01*
X528292Y107522D01*
X528862Y109649D01*
Y111851D01*
X528292Y113978D01*
X527191Y115884D01*
X525634Y117441D01*
X523728Y118542D01*
X521601Y119112D01*
D02*
G37*
G36*
X496201D02*
X493999D01*
X491872Y118542D01*
X489966Y117441D01*
X488409Y115884D01*
X487308Y113978D01*
X486738Y111851D01*
Y109649D01*
X487308Y107522D01*
X488409Y105616D01*
X489966Y104059D01*
X491872Y102958D01*
X493999Y102388D01*
X496201D01*
X498328Y102958D01*
X500234Y104059D01*
X501791Y105616D01*
X502892Y107522D01*
X503462Y109649D01*
Y111851D01*
X502892Y113978D01*
X501791Y115884D01*
X500234Y117441D01*
X498328Y118542D01*
X496201Y119112D01*
D02*
G37*
G36*
X470801D02*
X468599D01*
X466472Y118542D01*
X464566Y117441D01*
X463009Y115884D01*
X461908Y113978D01*
X461338Y111851D01*
Y109649D01*
X461908Y107522D01*
X463009Y105616D01*
X464566Y104059D01*
X466472Y102958D01*
X468599Y102388D01*
X470801D01*
X472928Y102958D01*
X474834Y104059D01*
X476391Y105616D01*
X477492Y107522D01*
X478062Y109649D01*
Y111851D01*
X477492Y113978D01*
X476391Y115884D01*
X474834Y117441D01*
X472928Y118542D01*
X470801Y119112D01*
D02*
G37*
G36*
X445401D02*
X443199D01*
X441072Y118542D01*
X439166Y117441D01*
X437609Y115884D01*
X436508Y113978D01*
X435938Y111851D01*
Y109649D01*
X436508Y107522D01*
X437609Y105616D01*
X439166Y104059D01*
X441072Y102958D01*
X443199Y102388D01*
X445401D01*
X447528Y102958D01*
X449434Y104059D01*
X450991Y105616D01*
X452092Y107522D01*
X452662Y109649D01*
Y111851D01*
X452092Y113978D01*
X450991Y115884D01*
X449434Y117441D01*
X447528Y118542D01*
X445401Y119112D01*
D02*
G37*
G36*
X420001D02*
X417799D01*
X415672Y118542D01*
X413766Y117441D01*
X412209Y115884D01*
X411108Y113978D01*
X410538Y111851D01*
Y109649D01*
X411108Y107522D01*
X412209Y105616D01*
X413766Y104059D01*
X415672Y102958D01*
X417799Y102388D01*
X420001D01*
X422128Y102958D01*
X424034Y104059D01*
X425591Y105616D01*
X426692Y107522D01*
X427262Y109649D01*
Y111851D01*
X426692Y113978D01*
X425591Y115884D01*
X424034Y117441D01*
X422128Y118542D01*
X420001Y119112D01*
D02*
G37*
G36*
X394601D02*
X392399D01*
X390272Y118542D01*
X388366Y117441D01*
X386809Y115884D01*
X385708Y113978D01*
X385138Y111851D01*
Y109649D01*
X385708Y107522D01*
X386809Y105616D01*
X388366Y104059D01*
X390272Y102958D01*
X392399Y102388D01*
X394601D01*
X396728Y102958D01*
X398634Y104059D01*
X400191Y105616D01*
X401292Y107522D01*
X401862Y109649D01*
Y111851D01*
X401292Y113978D01*
X400191Y115884D01*
X398634Y117441D01*
X396728Y118542D01*
X394601Y119112D01*
D02*
G37*
G36*
X318401D02*
X316199D01*
X314072Y118542D01*
X312166Y117441D01*
X310609Y115884D01*
X309508Y113978D01*
X308938Y111851D01*
Y109649D01*
X309508Y107522D01*
X310609Y105616D01*
X312166Y104059D01*
X314072Y102958D01*
X316199Y102388D01*
X318401D01*
X320528Y102958D01*
X322434Y104059D01*
X323991Y105616D01*
X325092Y107522D01*
X325662Y109649D01*
Y111851D01*
X325092Y113978D01*
X323991Y115884D01*
X322434Y117441D01*
X320528Y118542D01*
X318401Y119112D01*
D02*
G37*
G36*
X293001D02*
X290799D01*
X288672Y118542D01*
X286766Y117441D01*
X285209Y115884D01*
X284108Y113978D01*
X283538Y111851D01*
Y109649D01*
X284108Y107522D01*
X285209Y105616D01*
X286766Y104059D01*
X288672Y102958D01*
X290799Y102388D01*
X293001D01*
X295128Y102958D01*
X297034Y104059D01*
X298591Y105616D01*
X299692Y107522D01*
X300262Y109649D01*
Y111851D01*
X299692Y113978D01*
X298591Y115884D01*
X297034Y117441D01*
X295128Y118542D01*
X293001Y119112D01*
D02*
G37*
G36*
X267601D02*
X265399D01*
X263272Y118542D01*
X261366Y117441D01*
X259809Y115884D01*
X258708Y113978D01*
X258138Y111851D01*
Y109649D01*
X258708Y107522D01*
X259809Y105616D01*
X261366Y104059D01*
X263272Y102958D01*
X265399Y102388D01*
X267601D01*
X269728Y102958D01*
X271634Y104059D01*
X273191Y105616D01*
X274292Y107522D01*
X274862Y109649D01*
Y111851D01*
X274292Y113978D01*
X273191Y115884D01*
X271634Y117441D01*
X269728Y118542D01*
X267601Y119112D01*
D02*
G37*
G36*
X242201D02*
X239999D01*
X237872Y118542D01*
X235966Y117441D01*
X234409Y115884D01*
X233308Y113978D01*
X232738Y111851D01*
Y109649D01*
X233308Y107522D01*
X234409Y105616D01*
X235966Y104059D01*
X237872Y102958D01*
X239999Y102388D01*
X242201D01*
X244328Y102958D01*
X246234Y104059D01*
X247791Y105616D01*
X248892Y107522D01*
X249462Y109649D01*
Y111851D01*
X248892Y113978D01*
X247791Y115884D01*
X246234Y117441D01*
X244328Y118542D01*
X242201Y119112D01*
D02*
G37*
G36*
X216801D02*
X214599D01*
X212472Y118542D01*
X210566Y117441D01*
X209009Y115884D01*
X207908Y113978D01*
X207338Y111851D01*
Y109649D01*
X207908Y107522D01*
X209009Y105616D01*
X210566Y104059D01*
X212472Y102958D01*
X214599Y102388D01*
X216801D01*
X218928Y102958D01*
X220834Y104059D01*
X222391Y105616D01*
X223492Y107522D01*
X224062Y109649D01*
Y111851D01*
X223492Y113978D01*
X222391Y115884D01*
X220834Y117441D01*
X218928Y118542D01*
X216801Y119112D01*
D02*
G37*
G36*
X191401D02*
X189199D01*
X187072Y118542D01*
X185166Y117441D01*
X183609Y115884D01*
X182508Y113978D01*
X181938Y111851D01*
Y109649D01*
X182508Y107522D01*
X183609Y105616D01*
X185166Y104059D01*
X187072Y102958D01*
X189199Y102388D01*
X191401D01*
X193528Y102958D01*
X195434Y104059D01*
X196991Y105616D01*
X198092Y107522D01*
X198662Y109649D01*
Y111851D01*
X198092Y113978D01*
X196991Y115884D01*
X195434Y117441D01*
X193528Y118542D01*
X191401Y119112D01*
D02*
G37*
G36*
X166001D02*
X163799D01*
X161672Y118542D01*
X159766Y117441D01*
X158209Y115884D01*
X157108Y113978D01*
X156538Y111851D01*
Y109649D01*
X157108Y107522D01*
X158209Y105616D01*
X159766Y104059D01*
X161672Y102958D01*
X163799Y102388D01*
X166001D01*
X168128Y102958D01*
X170034Y104059D01*
X171591Y105616D01*
X172692Y107522D01*
X173262Y109649D01*
Y111851D01*
X172692Y113978D01*
X171591Y115884D01*
X170034Y117441D01*
X168128Y118542D01*
X166001Y119112D01*
D02*
G37*
G36*
X140601D02*
X138399D01*
X136272Y118542D01*
X134366Y117441D01*
X132809Y115884D01*
X131708Y113978D01*
X131138Y111851D01*
Y109649D01*
X131708Y107522D01*
X132809Y105616D01*
X134366Y104059D01*
X136272Y102958D01*
X138399Y102388D01*
X140601D01*
X142728Y102958D01*
X144634Y104059D01*
X146191Y105616D01*
X147292Y107522D01*
X147862Y109649D01*
Y111851D01*
X147292Y113978D01*
X146191Y115884D01*
X144634Y117441D01*
X142728Y118542D01*
X140601Y119112D01*
D02*
G37*
G36*
X115201D02*
X112999D01*
X110872Y118542D01*
X108966Y117441D01*
X107409Y115884D01*
X106308Y113978D01*
X105738Y111851D01*
Y109649D01*
X106308Y107522D01*
X107409Y105616D01*
X108966Y104059D01*
X110872Y102958D01*
X112999Y102388D01*
X115201D01*
X117328Y102958D01*
X119234Y104059D01*
X120791Y105616D01*
X121892Y107522D01*
X122462Y109649D01*
Y111851D01*
X121892Y113978D01*
X120791Y115884D01*
X119234Y117441D01*
X117328Y118542D01*
X115201Y119112D01*
D02*
G37*
G36*
X89801D02*
X87599D01*
X85472Y118542D01*
X83566Y117441D01*
X82009Y115884D01*
X80908Y113978D01*
X80338Y111851D01*
Y109649D01*
X80908Y107522D01*
X82009Y105616D01*
X83566Y104059D01*
X85472Y102958D01*
X87599Y102388D01*
X89801D01*
X91928Y102958D01*
X93834Y104059D01*
X95391Y105616D01*
X96492Y107522D01*
X97062Y109649D01*
Y111851D01*
X96492Y113978D01*
X95391Y115884D01*
X93834Y117441D01*
X91928Y118542D01*
X89801Y119112D01*
D02*
G37*
G36*
X64401D02*
X62199D01*
X60072Y118542D01*
X58166Y117441D01*
X56609Y115884D01*
X55508Y113978D01*
X54938Y111851D01*
Y109649D01*
X55508Y107522D01*
X56609Y105616D01*
X58166Y104059D01*
X60072Y102958D01*
X62199Y102388D01*
X64401D01*
X66528Y102958D01*
X68434Y104059D01*
X69991Y105616D01*
X71092Y107522D01*
X71662Y109649D01*
Y111851D01*
X71092Y113978D01*
X69991Y115884D01*
X68434Y117441D01*
X66528Y118542D01*
X64401Y119112D01*
D02*
G37*
G36*
X625900Y119201D02*
X618300D01*
X616520Y118847D01*
X615011Y117839D01*
X614003Y116330D01*
X613649Y114550D01*
Y106950D01*
X614003Y105170D01*
X615011Y103661D01*
X616520Y102653D01*
X618300Y102299D01*
X625900D01*
X627680Y102653D01*
X629189Y103661D01*
X630197Y105170D01*
X630551Y106950D01*
Y114550D01*
X630197Y116330D01*
X629189Y117839D01*
X627680Y118847D01*
X625900Y119201D01*
D02*
G37*
G36*
X959903Y116362D02*
X957597D01*
X955368Y115765D01*
X953370Y114611D01*
X951739Y112980D01*
X950585Y110982D01*
X949988Y108753D01*
Y106446D01*
X950585Y104218D01*
X951739Y102220D01*
X953370Y100589D01*
X955368Y99435D01*
X957597Y98838D01*
X959903D01*
X962132Y99435D01*
X964130Y100589D01*
X965761Y102220D01*
X966915Y104218D01*
X967512Y106446D01*
Y108753D01*
X966915Y110982D01*
X965761Y112980D01*
X964130Y114611D01*
X962132Y115765D01*
X959903Y116362D01*
D02*
G37*
G36*
Y90962D02*
X957597D01*
X955368Y90365D01*
X953370Y89211D01*
X951739Y87580D01*
X950585Y85582D01*
X949988Y83354D01*
Y81046D01*
X950585Y78818D01*
X951739Y76820D01*
X953370Y75189D01*
X955368Y74035D01*
X957597Y73438D01*
X959903D01*
X962132Y74035D01*
X964130Y75189D01*
X965761Y76820D01*
X966915Y78818D01*
X967512Y81046D01*
Y83354D01*
X966915Y85582D01*
X965761Y87580D01*
X964130Y89211D01*
X962132Y90365D01*
X959903Y90962D01*
D02*
G37*
G36*
X838248Y81012D02*
X836752D01*
X835369Y80439D01*
X834311Y79381D01*
X833738Y77998D01*
Y76502D01*
X834311Y75119D01*
X835369Y74061D01*
X836752Y73488D01*
X838248D01*
X838661Y73659D01*
X842738Y69582D01*
Y68502D01*
X843311Y67119D01*
X844369Y66061D01*
X845752Y65488D01*
X847248D01*
X848631Y66061D01*
X849689Y67119D01*
X850262Y68502D01*
Y69998D01*
X849689Y71381D01*
X848631Y72439D01*
X847248Y73012D01*
X845752D01*
X845339Y72841D01*
X841262Y76918D01*
Y77998D01*
X840689Y79381D01*
X839631Y80439D01*
X838248Y81012D01*
D02*
G37*
G36*
X122604Y67269D02*
X120296D01*
X118068Y66672D01*
X116070Y65519D01*
X114439Y63887D01*
X113285Y61889D01*
X112688Y59661D01*
Y57354D01*
X113285Y55125D01*
X114439Y53127D01*
X116070Y51496D01*
X118068Y50342D01*
X120296Y49745D01*
X122604D01*
X124832Y50342D01*
X126830Y51496D01*
X128461Y53127D01*
X129615Y55125D01*
X130212Y57354D01*
Y59661D01*
X129615Y61889D01*
X128461Y63887D01*
X126830Y65519D01*
X124832Y66672D01*
X122604Y67269D01*
D02*
G37*
G36*
X100050Y67363D02*
X92050D01*
X90192Y66993D01*
X88617Y65941D01*
X87564Y64366D01*
X87195Y62507D01*
Y54507D01*
X87564Y52649D01*
X88617Y51074D01*
X90192Y50022D01*
X92050Y49652D01*
X100050D01*
X101908Y50022D01*
X103483Y51074D01*
X104536Y52649D01*
X104905Y54507D01*
Y62507D01*
X104536Y64366D01*
X103483Y65941D01*
X101908Y66993D01*
X100050Y67363D01*
D02*
G37*
G36*
X224300Y66663D02*
X216300D01*
X214442Y66293D01*
X212867Y65241D01*
X211814Y63665D01*
X211445Y61807D01*
Y53807D01*
X211814Y51949D01*
X212867Y50374D01*
X214442Y49322D01*
X216300Y48952D01*
X224300D01*
X226158Y49322D01*
X227733Y50374D01*
X228786Y51949D01*
X229155Y53807D01*
Y61807D01*
X228786Y63665D01*
X227733Y65241D01*
X226158Y66293D01*
X224300Y66663D01*
D02*
G37*
G36*
X778550Y52013D02*
X770550D01*
X768692Y51643D01*
X767117Y50591D01*
X766064Y49015D01*
X765695Y47157D01*
Y39157D01*
X766064Y37299D01*
X767117Y35724D01*
X768692Y34672D01*
X770550Y34302D01*
X778550D01*
X780408Y34672D01*
X781983Y35724D01*
X783036Y37299D01*
X783405Y39157D01*
Y47157D01*
X783036Y49015D01*
X781983Y50591D01*
X780408Y51643D01*
X778550Y52013D01*
D02*
G37*
G36*
X419000Y46655D02*
X411000D01*
X409142Y46286D01*
X407567Y45233D01*
X406514Y43658D01*
X406145Y41800D01*
Y33800D01*
X406514Y31942D01*
X407567Y30367D01*
X409142Y29314D01*
X411000Y28945D01*
X419000D01*
X420858Y29314D01*
X422433Y30367D01*
X423486Y31942D01*
X423855Y33800D01*
Y41800D01*
X423486Y43658D01*
X422433Y45233D01*
X420858Y46286D01*
X419000Y46655D01*
D02*
G37*
G36*
X205553Y29012D02*
X203246D01*
X201018Y28415D01*
X199020Y27261D01*
X197389Y25630D01*
X196235Y23632D01*
X195638Y21404D01*
Y19096D01*
X196235Y16868D01*
X197389Y14870D01*
X199020Y13239D01*
X201018Y12085D01*
X203246Y11488D01*
X205553D01*
X207782Y12085D01*
X209780Y13239D01*
X211411Y14870D01*
X212565Y16868D01*
X213162Y19096D01*
Y21404D01*
X212565Y23632D01*
X211411Y25630D01*
X209780Y27261D01*
X207782Y28415D01*
X205553Y29012D01*
D02*
G37*
G36*
X180154D02*
X177847D01*
X175618Y28415D01*
X173620Y27261D01*
X171989Y25630D01*
X170835Y23632D01*
X170238Y21404D01*
Y19096D01*
X170835Y16868D01*
X171989Y14870D01*
X173620Y13239D01*
X175618Y12085D01*
X177847Y11488D01*
X180154D01*
X182382Y12085D01*
X184380Y13239D01*
X186011Y14870D01*
X187165Y16868D01*
X187762Y19096D01*
Y21404D01*
X187165Y23632D01*
X186011Y25630D01*
X184380Y27261D01*
X182382Y28415D01*
X180154Y29012D01*
D02*
G37*
G36*
X132200Y29105D02*
X124200D01*
X122342Y28736D01*
X120767Y27683D01*
X119714Y26108D01*
X119345Y24250D01*
Y16250D01*
X119714Y14392D01*
X120767Y12817D01*
X122342Y11764D01*
X124200Y11395D01*
X132200D01*
X134058Y11764D01*
X135633Y12817D01*
X136686Y14392D01*
X137055Y16250D01*
Y24250D01*
X136686Y26108D01*
X135633Y27683D01*
X134058Y28736D01*
X132200Y29105D01*
D02*
G37*
G36*
X645250Y25855D02*
X637250D01*
X635392Y25486D01*
X633817Y24433D01*
X632764Y22858D01*
X632395Y21000D01*
Y13000D01*
X632764Y11142D01*
X633817Y9567D01*
X635392Y8514D01*
X637250Y8145D01*
X645250D01*
X647108Y8514D01*
X648683Y9567D01*
X649736Y11142D01*
X650105Y13000D01*
Y21000D01*
X649736Y22858D01*
X648683Y24433D01*
X647108Y25486D01*
X645250Y25855D01*
D02*
G37*
%LPD*%
D12*
X833750Y112686D02*
X847000Y125936D01*
X850641Y142391D02*
X884500Y176250D01*
X884000Y110500D02*
X884500Y110000D01*
X876969Y110500D02*
X884000D01*
X869946Y103476D02*
X876969Y110500D01*
X840254Y111254D02*
X850858Y121858D01*
X833750Y107750D02*
X838024Y103476D01*
X840254Y110895D02*
Y111254D01*
X833750Y107750D02*
Y112686D01*
X838024Y103476D02*
X869946D01*
D50*
X842973Y135041D02*
D03*
X850876Y130994D02*
D03*
X846927Y131064D02*
D03*
X850841Y134874D02*
D03*
X846750Y134898D02*
D03*
X842954Y131000D02*
D03*
D56*
X850876Y121876D02*
Y130994D01*
X850858Y121858D02*
X850876Y121876D01*
X846819Y126117D02*
X846927Y126224D01*
Y131064D01*
X850641Y142391D02*
X850841Y142191D01*
Y134874D02*
Y142191D01*
X839656Y141992D02*
X846750Y134898D01*
X839656Y141992D02*
Y142344D01*
X832750Y149250D02*
X839656Y142344D01*
D57*
X409997Y362000D02*
X459414Y312583D01*
X325750Y362000D02*
X409997D01*
X684250Y190000D02*
X763900D01*
X869250Y295350D01*
X596700Y263150D02*
X720914Y138936D01*
X780604D01*
X800633Y118906D01*
X838000Y77250D02*
X846000Y69250D01*
X846500D01*
X837500Y77250D02*
X838000D01*
X827000Y106750D02*
X837657Y96093D01*
X893175D01*
X813000Y134250D02*
X813250Y134000D01*
X813000Y134250D02*
Y147750D01*
X850250Y185000D01*
X898000Y100918D02*
Y116000D01*
X893175Y96093D02*
X898000Y100918D01*
X876842Y138092D02*
X885658D01*
X846750Y108000D02*
X876842Y138092D01*
X885658D02*
X886000Y137750D01*
X850250Y185000D02*
X901250D01*
X911250Y175000D01*
X774597Y91440D02*
Y102653D01*
X785038Y63712D02*
X793500Y55250D01*
X774000Y103250D02*
X774597Y102653D01*
Y91440D02*
X785038Y81000D01*
Y63712D02*
Y81000D01*
X793500Y55250D02*
X858581D01*
X868005Y45826D01*
X876874D01*
X879450Y43250D01*
X891250Y55050D02*
Y89500D01*
X879450Y43250D02*
X891250Y55050D01*
X772809Y265750D02*
X814250D01*
X729681Y266500D02*
X772059D01*
X772809Y265750D01*
X479586Y264683D02*
X604269Y140000D01*
X640750D01*
X825250Y128750D02*
X826092D01*
X815406Y118906D02*
X825250Y128750D01*
X814250Y265750D02*
X869250Y320750D01*
X800125Y254475D02*
X800400Y254750D01*
X753450Y254200D02*
X753725Y254475D01*
X800125D01*
X735400Y346750D02*
X753900Y365250D01*
X850150D02*
X869250Y346150D01*
X753900Y365250D02*
X850150D01*
X459414Y308889D02*
Y312583D01*
Y308889D02*
X479586Y288717D01*
Y264683D02*
Y288717D01*
X800633Y118906D02*
X815406D01*
X320840Y74910D02*
X352586Y106655D01*
X320840Y74910D02*
X333410D01*
X354286Y95786D01*
X756064D01*
X774000Y77850D01*
X352586Y106655D02*
Y109217D01*
X414369Y171000D02*
X488025D01*
X352586Y109217D02*
X414369Y171000D01*
X415000Y63200D02*
X442300Y90500D01*
X565250D01*
D58*
X721500Y169000D02*
X735250Y155250D01*
X721500Y169000D02*
Y175750D01*
X726737Y180987D01*
X730752D02*
X734479Y184714D01*
X734750D01*
X726737Y180987D02*
X730752D01*
X303738Y57807D02*
X320840Y74910D01*
X245700Y57807D02*
X303738D01*
X171100Y37750D02*
X304912D01*
X153600Y20250D02*
X171100Y37750D01*
X330362Y63200D02*
X415000D01*
X304912Y37750D02*
X330362Y63200D01*
D59*
X562700Y347093D02*
D03*
X879450Y43250D02*
D03*
X869250Y346150D02*
D03*
Y320750D02*
D03*
X799950Y43157D02*
D03*
X274650Y19500D02*
D03*
X300050D02*
D03*
X325450D02*
D03*
X204400Y20250D02*
D03*
X179000D02*
D03*
X153600D02*
D03*
X774000Y77850D02*
D03*
Y103250D02*
D03*
X415000Y63200D02*
D03*
X245700Y57807D02*
D03*
X121450Y58507D02*
D03*
X18000Y386200D02*
D03*
X37900Y313150D02*
D03*
X63300D02*
D03*
X88700D02*
D03*
X114100D02*
D03*
X139500D02*
D03*
X266500D02*
D03*
X342700D02*
D03*
X368100D02*
D03*
X393500D02*
D03*
X444300D02*
D03*
X469700D02*
D03*
X520500D02*
D03*
X571300D02*
D03*
X596700D02*
D03*
X545900D02*
D03*
X495100D02*
D03*
X418900D02*
D03*
X317300D02*
D03*
X291900D02*
D03*
X241100D02*
D03*
X215700D02*
D03*
X190300D02*
D03*
X164900D02*
D03*
X958750Y82200D02*
D03*
Y107600D02*
D03*
D60*
X537300Y347093D02*
D03*
X619750Y452000D02*
D03*
X854050Y43250D02*
D03*
X641250Y17000D02*
D03*
X774550Y43157D02*
D03*
X350850Y19500D02*
D03*
X128200Y20250D02*
D03*
X220300Y57807D02*
D03*
X96050Y58507D02*
D03*
X622100Y313150D02*
D03*
D61*
X869250Y295350D02*
D03*
X774000Y128650D02*
D03*
X415000Y37800D02*
D03*
X18000Y360800D02*
D03*
X958750Y133000D02*
D03*
D62*
X215700Y110750D02*
D03*
X241100D02*
D03*
X342700D02*
D03*
X393500D02*
D03*
X469700D02*
D03*
X571300D02*
D03*
X596700D02*
D03*
X545900D02*
D03*
X520500D02*
D03*
X495100D02*
D03*
X444300D02*
D03*
X418900D02*
D03*
X368100D02*
D03*
X317300D02*
D03*
X291900D02*
D03*
X266500D02*
D03*
X190300D02*
D03*
X164900D02*
D03*
X139500D02*
D03*
X114100D02*
D03*
X88700D02*
D03*
X63300D02*
D03*
X37900D02*
D03*
X215700Y263150D02*
D03*
X241100D02*
D03*
X342700D02*
D03*
X393500D02*
D03*
X469700D02*
D03*
X571300D02*
D03*
X596700D02*
D03*
X545900D02*
D03*
X520500D02*
D03*
X495100D02*
D03*
X444300D02*
D03*
X418900D02*
D03*
X368100D02*
D03*
X317300D02*
D03*
X291900D02*
D03*
X266500D02*
D03*
X190300D02*
D03*
X164900D02*
D03*
X139500D02*
D03*
X114100D02*
D03*
X88700D02*
D03*
X63300D02*
D03*
X37900D02*
D03*
D63*
X622100Y110750D02*
D03*
Y263150D02*
D03*
D64*
X799500Y233500D02*
D03*
X294250Y329750D02*
D03*
X325750Y362000D02*
D03*
X759250Y341000D02*
D03*
X248000Y184500D02*
D03*
X188250Y182750D02*
D03*
X19000Y198500D02*
D03*
X30500Y174250D02*
D03*
X31000Y222500D02*
D03*
X609000Y84250D02*
D03*
X728750Y218250D02*
D03*
X806000Y299500D02*
D03*
X789656Y223542D02*
D03*
X735250Y155250D02*
D03*
X846500Y69250D02*
D03*
X837500Y77250D02*
D03*
X827000Y106750D02*
D03*
X813250Y134000D02*
D03*
X806500Y186250D02*
D03*
X898000Y116000D02*
D03*
X884500Y110000D02*
D03*
X840254Y110895D02*
D03*
X886000Y137750D02*
D03*
X911250Y175000D02*
D03*
X884500Y176250D02*
D03*
X891250Y89500D02*
D03*
X839250Y232750D02*
D03*
X835750Y273750D02*
D03*
X835500Y315500D02*
D03*
X227750Y362500D02*
D03*
X729681Y266500D02*
D03*
X170250Y68500D02*
D03*
X590500Y359750D02*
D03*
X798750Y95750D02*
D03*
Y111250D02*
D03*
X16000Y79750D02*
D03*
X80750Y12250D02*
D03*
X363500Y79750D02*
D03*
X304000Y80000D02*
D03*
X656000Y162500D02*
D03*
X549500Y229250D02*
D03*
X340500Y193250D02*
D03*
X684250Y190000D02*
D03*
X734750Y184714D02*
D03*
X640750Y140000D02*
D03*
X700500Y16000D02*
D03*
X967250Y228500D02*
D03*
X968250Y371500D02*
D03*
X890000Y433500D02*
D03*
X683000Y431500D02*
D03*
X493250D02*
D03*
X310750Y436000D02*
D03*
X143750Y436750D02*
D03*
X422750Y135000D02*
D03*
X51700Y360800D02*
D03*
X592750Y33500D02*
D03*
X542500Y34750D02*
D03*
X441507Y41150D02*
D03*
X65250Y240750D02*
D03*
X125750Y199000D02*
D03*
X763000Y427750D02*
D03*
X738000Y427500D02*
D03*
X661000Y266500D02*
D03*
X698500Y304250D02*
D03*
X636500Y362250D02*
D03*
X517550Y30000D02*
D03*
X824500Y140000D02*
D03*
X826092Y128750D02*
D03*
X765000Y310250D02*
D03*
X745000Y289000D02*
D03*
X735250D02*
D03*
X744885Y298635D02*
D03*
X735115D02*
D03*
X713500Y315750D02*
D03*
X721500Y276500D02*
D03*
X753450Y254200D02*
D03*
X800400Y254750D02*
D03*
X735400Y346750D02*
D03*
X846750Y108000D02*
D03*
X824750Y149250D02*
D03*
X488025Y171000D02*
D03*
X565250Y90500D02*
D03*
X174250Y229000D02*
D03*
X73000Y229500D02*
D03*
D65*
X842954Y131000D02*
Y131102D01*
X846750Y134898D01*
X846819Y126117D02*
X847000Y125936D01*
X824750Y149250D02*
X832750D01*
D66*
X52544Y229250D02*
X173250D01*
X23884Y257910D02*
X52544Y229250D01*
X23884Y334886D02*
X32016Y343018D01*
X18000Y384576D02*
X32016Y370560D01*
X23884Y257910D02*
Y334886D01*
X18000Y384576D02*
Y386200D01*
X32016Y343018D02*
Y370560D01*
M02*
