M48
;Layer_Color=9474304
;FILE_FORMAT=4:4
METRIC,LZ
;TYPE=PLATED
T1F00S00C0.2000
T2F00S00C0.3000
T3F00S00C1.0200
T4F00S00C1.1000
;TYPE=NON_PLATED
T5F00S00C3.2000
%
T01
X00842954Y00131
X00846927Y00131064
X0084675Y00134898
X00842973Y00135041
X00850841Y00134874
X00850876Y00130994
T02
X0008075Y0001225
X00016Y0007975
X000305Y0017425
X00019Y001985
X00031Y002225
X00073Y002295
X0006525Y0024075
X0012575Y00199
X0017425Y00229
X0017025Y000685
X000517Y003608
X0022775Y003625
X0032575Y00362
X0029425Y0032975
X003405Y0019325
X00248Y001845
X0018825Y0018275
X00304Y0008
X003635Y0007975
X0042275Y00135
X00488025Y00171
X005495Y0022925
X0056525Y000905
X005425Y0003475
X0051755Y0003
X00441507Y0004115
X0059275Y000335
X00609Y0008425
X0064075Y0014
X00656Y001625
X0068425Y0019
X0073475Y00184714
X0073525Y0015525
X0072875Y0021825
X00729681Y002665
X007215Y002765
X0073525Y00289
X00745
X00744885Y00298635
X00735115
X007135Y0031575
X006985Y0030425
X00765Y0031025
X0075925Y00341
X007354Y0034675
X0075345Y002542
X008004Y0025475
X007995Y002335
X00789656Y00223542
X008065Y0018625
X0082475Y0014925
X008245Y0014
X00826092Y0012875
X0081325Y00134
X0079875Y0011125
Y0009575
X00827Y0010675
X00840254Y00110895
X0084675Y00108
X008465Y0006925
X008375Y0007725
X0089125Y000895
X008845Y0011
X00898Y00116
X00886Y0013775
X008845Y0017625
X0091125Y00175
X0096725Y002285
X0083925Y0023275
X0083575Y0027375
X008355Y003155
X00806Y002995
X00661Y002665
X006365Y0036225
X005905Y0035975
X0096825Y003715
X007005Y00016
X00683Y004315
X00738Y004275
X00763Y0042775
X0089Y004335
X0049325Y004315
X0031075Y00436
X0014375Y0043675
T03
X000379Y0011075
X000633
X000887
X001141
X001395
X001649
Y0026315
X001395
X001141
X000887
X000633
X000379
X001903
X002157
X002411
X002665
X002919
X003173
X003427
X003681
X003935
X004189
X004443
X004697
X004951
X005205
X005459
X005713
Y0011075
X005459
X005205
X004951
X004697
X004443
X004189
X003935
X003681
X003427
X003173
X002919
X002665
X002411
X002157
X001903
X005967
X006221
Y0026315
X005967
T04
X001282Y0002025
X001536
X0012145Y00058507
X0009605
X000887Y0031315
X000633
X000379
X00018Y003608
X001141Y0031315
X001395
X001649
X001903
X002157
X002411
X002665
X002919
X003173
X003427
X003681
X003935
X004189
X004443
X004697
X004951
X005205
X005459
X005713
X005627Y00347093
X005373
X00415Y000632
Y000378
X0035085Y000195
X0032545
X0030005
X0027465
X002457Y00057807
X002203
X002044Y0002025
X00179
X0064125Y00017
X0077455Y00043157
X0079995
X0085405Y0004325
X0087945
X0095875Y000822
Y001076
Y00133
X00774Y0012865
Y0010325
Y0007785
X0086925Y0029535
Y0032075
Y0034615
X006221Y0031315
X005967
X0061975Y00452
X00018Y003862
T05
X0003Y0003
X0096
Y0045
X0003
M30
