M48
;Layer_Color=9474304
;FILE_FORMAT=4:4
METRIC,LZ
;TYPE=PLATED
T1F00S00C0.3000
T2F00S00C0.6900
T3F00S00C1.0200
T4F00S00C1.1000
;TYPE=NON_PLATED
T5F00S00C3.2000
%
T01
X0014975Y0000425
X002405Y00004
X007065Y000085
X007285Y0005075
X0072625Y000645
X007825Y000625
X0078475Y00139
X00785Y002455
X007245Y0023725
X006846Y002195
X00692Y0018025
X0078425Y003435
X0066175Y0025425
X0065635Y0021975
X0061775Y0023475
X00651Y001465
X0062475Y0011975
X00664Y00064
X0028725Y0011875
X0045575Y0038075
X0016425Y0022725
X001645Y0019425
X000095Y00195
Y00225
X0001875Y0025375
X0005525Y002745
X000265Y0012075
X00076Y00011
X0014925Y0002675
X0022425Y000345
X00248Y004265
X000975Y0045125
X0045475Y00412
X0060925Y00448
X0060625Y00512
X0070575Y0051425
X007115Y00451
X0078125Y00448
T02
X00706452Y00147
X00757253
X00731852Y001724
X007102Y00300215
Y00351015
X006848Y00325615
T03
X002973Y001476
X003227
X003481
X003735
X003989
X004243
X004497
X004751
X005005
X005259
X005513
X005767
X006021
Y003
X005767
X005513
X005259
X005005
X004751
X004497
X004243
X003989
X003735
X003481
X003227
X002973
X002719
X002465
X002211
X001957
X001703
X001449
X001195
X000941
X000687
X000433
X000179
Y001476
X000433
X000687
X000941
X001195
X001449
X001703
X001957
X002211
X002465
X002719
T04
X0027815Y00046
X0030355
X0032895
X0035435
X0039075Y0004575
X0041615
X0044155
X0046695
X004751Y000976
X004497
X004243
X003989
X003735
X003481
X003227
X002973
X005005
X005259
X005513
X005767
X006021
X0055675Y000465
X005513Y0035
X005767
X006021
X005259
X005005
X004751
X004497
X004243
X003989
X003735
X003481
X003227
X002973
X002719
X002465
X002211
X001957
X001703
X001449
X001195
X000941
X000687
X000433
X000179
X0002075Y003988
X00222993Y0039555
X002211Y000976
X002465
X002719
X001957
X001703
X001449
X001195
X000941
X000687
X000433
X000179
X000958Y00046757
X001212
X0018305Y00047508
X0020845
X00222993Y0042095
X0002075Y004242
X0055675Y005185
T05
X0076Y0003
X0003
Y0053
X0076
M30
