G04*
G04 #@! TF.GenerationSoftware,Altium Limited,Altium Designer,21.6.4 (81)*
G04*
G04 Layer_Color=65535*
%FSLAX44Y44*%
%MOMM*%
G71*
G04*
G04 #@! TF.SameCoordinates,B5D7AA2C-AE02-420C-9FE3-D908FE65D14F*
G04*
G04*
G04 #@! TF.FilePolarity,Positive*
G04*
G01*
G75*
%ADD10C,0.2000*%
%ADD11C,0.2500*%
%ADD12C,0.1524*%
%ADD13C,0.1000*%
D10*
X990000Y30000D02*
G03*
X990000Y30000I-30000J0D01*
G01*
Y450000D02*
G03*
X990000Y450000I-30000J0D01*
G01*
X60000D02*
G03*
X60000Y450000I-30000J0D01*
G01*
X833960Y142133D02*
G03*
X833960Y142133I-1000J0D01*
G01*
X60000Y30000D02*
G03*
X60000Y30000I-30000J0D01*
G01*
X576900Y333643D02*
Y360542D01*
X523100D02*
X576900D01*
X523100Y333643D02*
Y360542D01*
Y333643D02*
X576900D01*
X602750Y67000D02*
X611250D01*
Y38000D02*
Y67000D01*
X602750Y38000D02*
X611250D01*
X602750D02*
Y67000D01*
X588750Y67500D02*
X599250D01*
X633950Y438550D02*
Y465450D01*
X605550D02*
X633950D01*
X605550Y438550D02*
Y465450D01*
Y438550D02*
X633950D01*
X893650Y29800D02*
Y56700D01*
X839850D02*
X893650D01*
X839850Y29800D02*
Y56700D01*
Y29800D02*
X893650D01*
X882700Y281150D02*
Y360350D01*
X855800Y281150D02*
X882700D01*
X855800D02*
Y360350D01*
X882700D01*
X627050Y3550D02*
X655450D01*
X627050D02*
Y30450D01*
X655450D01*
Y3550D02*
Y30450D01*
X814150Y29707D02*
Y56607D01*
X760350D02*
X814150D01*
X760350Y29707D02*
Y56607D01*
Y29707D02*
X814150D01*
X753250Y150250D02*
Y160250D01*
X733250Y150250D02*
X753250D01*
X733250D02*
Y160250D01*
X753250D01*
X754500Y163750D02*
Y168450D01*
X260450Y6050D02*
Y32950D01*
Y6050D02*
X365050D01*
Y32950D01*
X260450D02*
X365050D01*
X218600Y6800D02*
Y33700D01*
X114000D02*
X218600D01*
X114000Y6800D02*
Y33700D01*
Y6800D02*
X218600D01*
X717500Y401750D02*
X731500D01*
X768000D02*
X782000D01*
X742757D02*
X756758D01*
X585865Y378500D02*
Y388000D01*
X615065D01*
Y378500D02*
Y388000D01*
X585865Y378500D02*
X615065D01*
X585465Y366500D02*
Y375000D01*
X624308Y378250D02*
Y387750D01*
X653508D01*
Y378250D02*
Y387750D01*
X624308Y378250D02*
X653508D01*
X623908Y366250D02*
Y374750D01*
X760550Y63650D02*
Y142850D01*
X787450D01*
Y63650D02*
Y142850D01*
X760550Y63650D02*
X787450D01*
X837500Y142133D02*
X858040D01*
Y121052D02*
Y142133D01*
X832960Y121052D02*
X858040D01*
X832960D02*
Y137592D01*
X837500Y142133D01*
X638550Y97250D02*
Y124250D01*
X21450D02*
X638550D01*
X21450Y97250D02*
Y124250D01*
Y97250D02*
X638550D01*
X401550Y77400D02*
X428450D01*
X401550Y23600D02*
Y77400D01*
Y23600D02*
X428450D01*
Y77400D01*
X259900Y44357D02*
Y71257D01*
X206100D02*
X259900D01*
X206100Y44357D02*
Y71257D01*
Y44357D02*
X259900D01*
X135650Y45057D02*
Y71957D01*
X81850D02*
X135650D01*
X81850Y45057D02*
Y71957D01*
Y45057D02*
X135650D01*
X638550Y249650D02*
Y276650D01*
X21450D02*
X638550D01*
X21450Y249650D02*
Y276650D01*
Y249650D02*
X638550D01*
X4550Y400400D02*
X31450D01*
X4550Y346600D02*
Y400400D01*
Y346600D02*
X31450D01*
Y400400D01*
X214000Y217000D02*
X222500D01*
Y188000D02*
Y217000D01*
X214000Y188000D02*
X222500D01*
X214000D02*
Y217000D01*
X200000Y217500D02*
X210500D01*
X540750Y69500D02*
X552750D01*
X556250Y39000D02*
Y68000D01*
Y39000D02*
X562250D01*
Y68000D01*
X556250D02*
X562250D01*
X23700Y299700D02*
Y326600D01*
Y299700D02*
X636300D01*
Y326600D01*
X23700D02*
X636300D01*
X442000Y179750D02*
Y188250D01*
X413000Y179750D02*
X442000D01*
X413000D02*
Y188250D01*
X442000D01*
X442500Y191750D02*
Y202250D01*
X690250Y369500D02*
X695250D01*
X690250Y328500D02*
X695250D01*
X529000Y159240D02*
X561000D01*
X529000D02*
Y208260D01*
X561000D01*
Y159240D02*
Y208260D01*
X564500Y157950D02*
X579750D01*
X945300Y68000D02*
Y147200D01*
X972200D01*
Y68000D02*
Y147200D01*
X945300Y68000D02*
X972200D01*
D11*
X719750Y311250D02*
G03*
X719750Y311250I-1250J0D01*
G01*
X334750Y345250D02*
X338250Y348750D01*
Y371250D01*
X325500Y384000D02*
X338250Y371250D01*
X325500Y384000D02*
Y399250D01*
X208250Y349250D02*
X211000Y346500D01*
X208250Y349250D02*
Y368250D01*
X218750Y378750D01*
Y398000D01*
X708125Y154125D02*
X710750Y156750D01*
X708000Y159500D02*
X710750Y156750D01*
X696750D02*
X710750D01*
X650500Y391500D02*
X655250Y396250D01*
X660000D01*
X654000Y410250D02*
X656500Y412750D01*
X649750Y410250D02*
X654000D01*
X654250Y431000D02*
X656500Y428750D01*
X650500Y431000D02*
X654250D01*
X622250Y69750D02*
X626500Y74000D01*
X627750D01*
X408750Y160500D02*
X412000Y163750D01*
X405250Y160500D02*
X408750D01*
X438250Y207250D02*
X445500Y214500D01*
Y219000D01*
X628250Y174250D02*
X643500D01*
X585750Y196000D02*
X589750Y200000D01*
X598250D01*
X496250Y164250D02*
X502750Y170750D01*
X496250Y158500D02*
Y164250D01*
X352500Y38250D02*
Y42750D01*
X349250Y46000D02*
X352500Y42750D01*
X324500Y46000D02*
X349250D01*
X278750Y45750D02*
X304000D01*
X274500Y41500D02*
X278750Y45750D01*
X274500Y37250D02*
Y41500D01*
X459625Y5500D02*
X469625D01*
X464625Y10500D02*
X469625Y5500D01*
X459625D02*
X464625Y10500D01*
X451750Y90000D02*
X531750D01*
Y15000D02*
Y90000D01*
X451750Y15000D02*
X531750D01*
X451750D02*
X451750Y90000D01*
D12*
X73486Y182236D02*
X107014D01*
X73486Y215764D02*
X107014D01*
D13*
X68752Y37420D02*
Y34087D01*
X71251D01*
X70418Y35753D01*
Y36586D01*
X71251Y37420D01*
X72917D01*
X73750Y36586D01*
Y34920D01*
X72917Y34087D01*
X68752Y39086D02*
X72084D01*
X73750Y40752D01*
X72084Y42418D01*
X68752D01*
Y52415D02*
Y49082D01*
X73750D01*
Y52415D01*
X71251Y49082D02*
Y50749D01*
X73750Y54081D02*
X70418D01*
Y56580D01*
X71251Y57413D01*
X73750D01*
X853171Y23248D02*
X849839D01*
Y18250D01*
X853171D01*
X849839Y20749D02*
X851505D01*
X858169Y22415D02*
X857336Y23248D01*
X855670D01*
X854837Y22415D01*
Y19083D01*
X855670Y18250D01*
X857336D01*
X858169Y19083D01*
X863168Y22415D02*
X862335Y23248D01*
X860669D01*
X859836Y22415D01*
Y19083D01*
X860669Y18250D01*
X862335D01*
X863168Y19083D01*
Y20749D01*
X861502D01*
X873165Y22415D02*
X872331Y23248D01*
X870665D01*
X869832Y22415D01*
Y21582D01*
X870665Y20749D01*
X872331D01*
X873165Y19916D01*
Y19083D01*
X872331Y18250D01*
X870665D01*
X869832Y19083D01*
X874831Y23248D02*
Y18250D01*
X877330D01*
X878163Y19083D01*
Y22415D01*
X877330Y23248D01*
X874831D01*
X879829Y18250D02*
Y23248D01*
X883161Y18250D01*
Y23248D01*
X527506Y146081D02*
X526674Y146915D01*
X525007D01*
X524174Y146081D01*
Y142749D01*
X525007Y141916D01*
X526674D01*
X527506Y142749D01*
X530006Y141916D02*
X531672D01*
X532505Y142749D01*
Y144415D01*
X531672Y145248D01*
X530006D01*
X529173Y144415D01*
Y142749D01*
X530006Y141916D01*
X534171D02*
Y145248D01*
X535004D01*
X535837Y144415D01*
Y141916D01*
Y144415D01*
X536670Y145248D01*
X537503Y144415D01*
Y141916D01*
X539169Y140250D02*
Y145248D01*
X541669D01*
X542502Y144415D01*
Y142749D01*
X541669Y141916D01*
X539169D01*
X545001Y145248D02*
X546667D01*
X547500Y144415D01*
Y141916D01*
X545001D01*
X544168Y142749D01*
X545001Y143582D01*
X547500D01*
X549166Y145248D02*
Y141916D01*
Y143582D01*
X549999Y144415D01*
X550832Y145248D01*
X551665D01*
X554997D02*
X556664D01*
X557497Y144415D01*
Y141916D01*
X554997D01*
X554165Y142749D01*
X554997Y143582D01*
X557497D01*
X559996Y146081D02*
Y145248D01*
X559163D01*
X560829D01*
X559996D01*
Y142749D01*
X560829Y141916D01*
X564161D02*
X565827D01*
X566660Y142749D01*
Y144415D01*
X565827Y145248D01*
X564161D01*
X563328Y144415D01*
Y142749D01*
X564161Y141916D01*
X568326Y145248D02*
Y141916D01*
Y143582D01*
X569160Y144415D01*
X569993Y145248D01*
X570826D01*
X977835Y129500D02*
Y134498D01*
X980334D01*
X981167Y133665D01*
Y131999D01*
X980334Y131166D01*
X977835D01*
X979501D02*
X981167Y129500D01*
X982833D02*
Y132832D01*
X984499Y134498D01*
X986165Y132832D01*
Y129500D01*
Y131999D01*
X982833D01*
X649088Y43998D02*
Y39000D01*
X651587D01*
X652420Y39833D01*
Y40666D01*
X651587Y41499D01*
X649088D01*
X651587D01*
X652420Y42332D01*
Y43165D01*
X651587Y43998D01*
X649088D01*
X657419Y43165D02*
X656585Y43998D01*
X654919D01*
X654086Y43165D01*
Y39833D01*
X654919Y39000D01*
X656585D01*
X657419Y39833D01*
X662417Y43165D02*
X661584Y43998D01*
X659918D01*
X659085Y43165D01*
Y39833D01*
X659918Y39000D01*
X661584D01*
X662417Y39833D01*
X669081Y43998D02*
X672414D01*
X670748D01*
Y39000D01*
X674080Y43998D02*
X677412Y39000D01*
Y43998D02*
X674080Y39000D01*
X977835Y109498D02*
Y104500D01*
X981167D01*
X982833D02*
Y107832D01*
X984499Y109498D01*
X986165Y107832D01*
Y104500D01*
Y106999D01*
X982833D01*
X486586Y153915D02*
X487419Y154748D01*
X489085D01*
X489918Y153915D01*
Y153082D01*
X489085Y152249D01*
X488252D01*
X489085D01*
X489918Y151416D01*
Y150583D01*
X489085Y149750D01*
X487419D01*
X486586Y150583D01*
X491584Y154748D02*
Y151416D01*
X493250Y149750D01*
X494916Y151416D01*
Y154748D01*
X496582Y153915D02*
X497415Y154748D01*
X499081D01*
X499915Y153915D01*
Y153082D01*
X499081Y152249D01*
X498248D01*
X499081D01*
X499915Y151416D01*
Y150583D01*
X499081Y149750D01*
X497415D01*
X496582Y150583D01*
X884762Y207248D02*
X881429D01*
Y202250D01*
X884762D01*
X881429Y204749D02*
X883095D01*
X889760Y206415D02*
X888927Y207248D01*
X887261D01*
X886428Y206415D01*
Y203083D01*
X887261Y202250D01*
X888927D01*
X889760Y203083D01*
X894758Y206415D02*
X893925Y207248D01*
X892259D01*
X891426Y206415D01*
Y203083D01*
X892259Y202250D01*
X893925D01*
X894758Y203083D01*
Y204749D01*
X893092D01*
X904755Y206415D02*
X903922Y207248D01*
X902256D01*
X901423Y206415D01*
Y205582D01*
X902256Y204749D01*
X903922D01*
X904755Y203916D01*
Y203083D01*
X903922Y202250D01*
X902256D01*
X901423Y203083D01*
X908920Y202250D02*
X907254D01*
X906421Y203083D01*
Y204749D01*
X907254Y205582D01*
X908920D01*
X909753Y204749D01*
Y203916D01*
X906421D01*
X911419Y202250D02*
Y205582D01*
X913919D01*
X914752Y204749D01*
Y202250D01*
X916418D02*
X918917D01*
X919750Y203083D01*
X918917Y203916D01*
X917251D01*
X916418Y204749D01*
X917251Y205582D01*
X919750D01*
X922249Y202250D02*
X923915D01*
X924748Y203083D01*
Y204749D01*
X923915Y205582D01*
X922249D01*
X921416Y204749D01*
Y203083D01*
X922249Y202250D01*
X926414Y205582D02*
Y202250D01*
Y203916D01*
X927247Y204749D01*
X928081Y205582D01*
X928914D01*
X936411Y207248D02*
Y202250D01*
X938910D01*
X939743Y203083D01*
Y203916D01*
X938910Y204749D01*
X936411D01*
X938910D01*
X939743Y205582D01*
Y206415D01*
X938910Y207248D01*
X936411D01*
X941410Y202250D02*
X943076D01*
X942243D01*
Y207248D01*
X941410D01*
X946408Y202250D02*
X948074D01*
X948907Y203083D01*
Y204749D01*
X948074Y205582D01*
X946408D01*
X945575Y204749D01*
Y203083D01*
X946408Y202250D01*
X953905Y205582D02*
X951406D01*
X950573Y204749D01*
Y203083D01*
X951406Y202250D01*
X953905D01*
X955572D02*
Y207248D01*
Y203916D02*
X958071Y205582D01*
X955572Y203916D02*
X958071Y202250D01*
X889339Y319081D02*
Y315749D01*
X891005Y314083D01*
X892671Y315749D01*
Y319081D01*
X896836D02*
X895170D01*
X894337Y318248D01*
Y314916D01*
X895170Y314083D01*
X896836D01*
X897669Y314916D01*
Y318248D01*
X896836Y319081D01*
X899335D02*
Y314916D01*
X900169Y314083D01*
X901835D01*
X902668Y314916D01*
Y319081D01*
X904334D02*
X907666D01*
X906000D01*
Y314083D01*
X909332Y313250D02*
X912664D01*
X917663Y319081D02*
X914331D01*
Y314083D01*
X917663D01*
X914331Y316582D02*
X915997D01*
X919329Y314083D02*
Y319081D01*
X922661Y314083D01*
Y319081D01*
X673187Y95430D02*
X672354Y94597D01*
Y92931D01*
X673187Y92098D01*
X676520D01*
X677353Y92931D01*
Y94597D01*
X676520Y95430D01*
X677353Y97097D02*
Y98763D01*
Y97930D01*
X672354D01*
Y97097D01*
X677353Y102095D02*
Y103761D01*
X676520Y104594D01*
X674854D01*
X674020Y103761D01*
Y102095D01*
X674854Y101262D01*
X676520D01*
X677353Y102095D01*
Y106260D02*
Y108759D01*
X676520Y109593D01*
X675687Y108759D01*
Y107093D01*
X674854Y106260D01*
X674020Y107093D01*
Y109593D01*
X677353Y113758D02*
Y112092D01*
X676520Y111259D01*
X674854D01*
X674020Y112092D01*
Y113758D01*
X674854Y114591D01*
X675687D01*
Y111259D01*
X673187Y122088D02*
X674020D01*
Y121255D01*
Y122921D01*
Y122088D01*
X676520D01*
X677353Y122921D01*
X672354Y125421D02*
X677353D01*
X674854D01*
X674020Y126254D01*
Y127920D01*
X674854Y128753D01*
X677353D01*
Y132918D02*
Y131252D01*
X676520Y130419D01*
X674854D01*
X674020Y131252D01*
Y132918D01*
X674854Y133751D01*
X675687D01*
Y130419D01*
X679019Y140416D02*
Y141249D01*
X678186Y142082D01*
X674020D01*
Y145414D02*
X676520D01*
X677353Y146247D01*
Y148746D01*
X674020D01*
X677353Y150413D02*
X674020D01*
Y151245D01*
X674854Y152079D01*
X677353D01*
X674854D01*
X674020Y152912D01*
X674854Y153745D01*
X677353D01*
X679019Y155411D02*
X674020D01*
Y157910D01*
X674854Y158743D01*
X676520D01*
X677353Y157910D01*
Y155411D01*
Y162908D02*
Y161242D01*
X676520Y160409D01*
X674854D01*
X674020Y161242D01*
Y162908D01*
X674854Y163741D01*
X675687D01*
Y160409D01*
X674020Y165408D02*
X677353D01*
X675687D01*
X674854Y166241D01*
X674020Y167074D01*
Y167907D01*
X673187Y176237D02*
X674020D01*
Y175404D01*
Y177070D01*
Y176237D01*
X676520D01*
X677353Y177070D01*
Y180403D02*
Y182069D01*
X676520Y182902D01*
X674854D01*
X674020Y182069D01*
Y180403D01*
X674854Y179570D01*
X676520D01*
X677353Y180403D01*
X683252Y113758D02*
X688250D01*
Y111259D01*
X687417Y110426D01*
X685751D01*
X684918Y111259D01*
Y113758D01*
X688250Y116257D02*
Y117923D01*
X687417Y118756D01*
X685751D01*
X684918Y117923D01*
Y116257D01*
X685751Y115424D01*
X687417D01*
X688250Y116257D01*
Y120422D02*
X684918D01*
Y122921D01*
X685751Y123755D01*
X688250D01*
X682419Y126254D02*
X684085D01*
X684918Y125421D01*
X684085Y129586D02*
X684918D01*
Y128753D01*
Y130419D01*
Y129586D01*
X687417D01*
X688250Y130419D01*
X684918Y137917D02*
X687417D01*
X688250Y138750D01*
Y141249D01*
X684918D01*
X688250Y142915D02*
Y145414D01*
X687417Y146247D01*
X686584Y145414D01*
Y143748D01*
X685751Y142915D01*
X684918Y143748D01*
Y146247D01*
X688250Y150413D02*
Y148746D01*
X687417Y147913D01*
X685751D01*
X684918Y148746D01*
Y150413D01*
X685751Y151246D01*
X686584D01*
Y147913D01*
X687417Y161242D02*
X684085D01*
X683252Y160409D01*
Y158743D01*
X684085Y157910D01*
X687417D01*
X688250Y158743D01*
Y160409D01*
X686584Y159576D02*
X688250Y161242D01*
Y160409D02*
X687417Y161242D01*
X688250Y162908D02*
Y164575D01*
Y163741D01*
X683252D01*
X684085Y162908D01*
X713839Y79248D02*
Y74250D01*
X717171D01*
X718837Y79248D02*
Y74250D01*
X721336D01*
X722169Y75083D01*
Y78415D01*
X721336Y79248D01*
X718837D01*
X726335D02*
X724669D01*
X723836Y78415D01*
Y75083D01*
X724669Y74250D01*
X726335D01*
X727168Y75083D01*
Y78415D01*
X726335Y79248D01*
X733832Y78415D02*
X734665Y79248D01*
X736331D01*
X737165Y78415D01*
Y77582D01*
X736331Y76749D01*
X735498D01*
X736331D01*
X737165Y75916D01*
Y75083D01*
X736331Y74250D01*
X734665D01*
X733832Y75083D01*
X738831Y79248D02*
Y75916D01*
X740497Y74250D01*
X742163Y75916D01*
Y79248D01*
X743829Y78415D02*
X744662Y79248D01*
X746328D01*
X747161Y78415D01*
Y77582D01*
X746328Y76749D01*
X745495D01*
X746328D01*
X747161Y75916D01*
Y75083D01*
X746328Y74250D01*
X744662D01*
X743829Y75083D01*
X535085Y370918D02*
X534252Y370085D01*
Y368419D01*
X535085Y367585D01*
X538417D01*
X539250Y368419D01*
Y370085D01*
X538417Y370918D01*
X536751D01*
Y369252D01*
X539250Y372584D02*
X534252D01*
X539250Y375916D01*
X534252D01*
Y377582D02*
X539250D01*
Y380081D01*
X538417Y380914D01*
X535085D01*
X534252Y380081D01*
Y377582D01*
X649838Y455248D02*
Y450250D01*
X652337D01*
X653170Y451083D01*
Y451916D01*
X652337Y452749D01*
X649838D01*
X652337D01*
X653170Y453582D01*
Y454415D01*
X652337Y455248D01*
X649838D01*
X658169Y454415D02*
X657336Y455248D01*
X655669D01*
X654836Y454415D01*
Y451083D01*
X655669Y450250D01*
X657336D01*
X658169Y451083D01*
X659835Y450250D02*
Y455248D01*
X662334D01*
X663167Y454415D01*
Y452749D01*
X662334Y451916D01*
X659835D01*
X669831Y450250D02*
Y455248D01*
X672331D01*
X673164Y454415D01*
Y452749D01*
X672331Y451916D01*
X669831D01*
X671497D02*
X673164Y450250D01*
X674830Y455248D02*
X678162Y450250D01*
Y455248D02*
X674830Y450250D01*
X698092Y106248D02*
X694759D01*
Y101250D01*
X698092D01*
X694759Y103749D02*
X696425D01*
X703090Y105415D02*
X702257Y106248D01*
X700591D01*
X699758Y105415D01*
Y102083D01*
X700591Y101250D01*
X702257D01*
X703090Y102083D01*
X708088Y105415D02*
X707255Y106248D01*
X705589D01*
X704756Y105415D01*
Y102083D01*
X705589Y101250D01*
X707255D01*
X708088Y102083D01*
Y103749D01*
X706422D01*
X714753Y101250D02*
Y106248D01*
X717252D01*
X718085Y105415D01*
Y103749D01*
X717252Y102916D01*
X714753D01*
X720584Y101250D02*
X722250D01*
X723083Y102083D01*
Y103749D01*
X722250Y104582D01*
X720584D01*
X719751Y103749D01*
Y102083D01*
X720584Y101250D01*
X724750Y104582D02*
Y102083D01*
X725583Y101250D01*
X726416Y102083D01*
X727249Y101250D01*
X728082Y102083D01*
Y104582D01*
X732247Y101250D02*
X730581D01*
X729748Y102083D01*
Y103749D01*
X730581Y104582D01*
X732247D01*
X733080Y103749D01*
Y102916D01*
X729748D01*
X734746Y104582D02*
Y101250D01*
Y102916D01*
X735579Y103749D01*
X736412Y104582D01*
X737245D01*
X744743Y106248D02*
X746409D01*
X745576D01*
Y101250D01*
X744743D01*
X746409D01*
X748908D02*
Y104582D01*
X751407D01*
X752241Y103749D01*
Y101250D01*
X270088Y60415D02*
X270921Y61248D01*
X272587D01*
X273420Y60415D01*
Y59582D01*
X272587Y58749D01*
X271754D01*
X272587D01*
X273420Y57916D01*
Y57083D01*
X272587Y56250D01*
X270921D01*
X270088Y57083D01*
X275086Y61248D02*
Y57916D01*
X276752Y56250D01*
X278419Y57916D01*
Y61248D01*
X280085Y60415D02*
X280918Y61248D01*
X282584D01*
X283417Y60415D01*
Y59582D01*
X282584Y58749D01*
X281751D01*
X282584D01*
X283417Y57916D01*
Y57083D01*
X282584Y56250D01*
X280918D01*
X280085Y57083D01*
X293414Y61248D02*
X290081D01*
Y56250D01*
X293414D01*
X290081Y58749D02*
X291747D01*
X295080Y56250D02*
Y59582D01*
X297579D01*
X298412Y58749D01*
Y56250D01*
X56000Y207000D02*
X58500Y209499D01*
X56000Y211998D01*
X203225Y407505D02*
X202391Y406672D01*
Y405006D01*
X203225Y404173D01*
X206557D01*
X207390Y405006D01*
Y406672D01*
X206557Y407505D01*
X207390Y409171D02*
Y410837D01*
Y410004D01*
X202391D01*
Y409171D01*
X207390Y414169D02*
Y415835D01*
X206557Y416669D01*
X204891D01*
X204058Y415835D01*
Y414169D01*
X204891Y413336D01*
X206557D01*
X207390Y414169D01*
Y418335D02*
Y420834D01*
X206557Y421667D01*
X205724Y420834D01*
Y419168D01*
X204891Y418335D01*
X204058Y419168D01*
Y421667D01*
X207390Y425832D02*
Y424166D01*
X206557Y423333D01*
X204891D01*
X204058Y424166D01*
Y425832D01*
X204891Y426665D01*
X205724D01*
Y423333D01*
X203225Y434163D02*
X204058D01*
Y433330D01*
Y434996D01*
Y434163D01*
X206557D01*
X207390Y434996D01*
Y438328D02*
Y439994D01*
X206557Y440827D01*
X204891D01*
X204058Y439994D01*
Y438328D01*
X204891Y437495D01*
X206557D01*
X207390Y438328D01*
X210789Y405839D02*
X215788D01*
Y408338D01*
X214955Y409171D01*
X214122D01*
X213289D01*
X212456Y408338D01*
Y405839D01*
Y410837D02*
X214955D01*
X215788Y411670D01*
Y414169D01*
X216621D01*
X217454Y413336D01*
Y412503D01*
X215788Y414169D02*
X212456D01*
X217454Y420834D02*
X212456D01*
Y423333D01*
X213289Y424166D01*
X214955D01*
X215788Y423333D01*
Y420834D01*
X212456Y426665D02*
Y428331D01*
X213289Y429165D01*
X215788D01*
Y426665D01*
X214955Y425832D01*
X214122Y426665D01*
Y429165D01*
X215788Y430831D02*
Y433330D01*
X214955Y434163D01*
X214122Y433330D01*
Y431664D01*
X213289Y430831D01*
X212456Y431664D01*
Y434163D01*
X215788Y435829D02*
Y438328D01*
X214955Y439161D01*
X214122Y438328D01*
Y436662D01*
X213289Y435829D01*
X212456Y436662D01*
Y439161D01*
X225852Y415835D02*
X222520D01*
X220854Y417502D01*
X222520Y419168D01*
X225852D01*
X223353D01*
Y415835D01*
X220854Y420834D02*
X225852D01*
Y423333D01*
X225019Y424166D01*
X221687D01*
X220854Y423333D01*
Y420834D01*
X221687Y429165D02*
X220854Y428331D01*
Y426665D01*
X221687Y425832D01*
X225019D01*
X225852Y426665D01*
Y428331D01*
X225019Y429165D01*
X230085Y412503D02*
X229252Y411670D01*
Y410004D01*
X230085Y409171D01*
X230918D01*
X231751Y410004D01*
Y411670D01*
X232584Y412503D01*
X233417D01*
X234250Y411670D01*
Y410004D01*
X233417Y409171D01*
X230918Y417502D02*
Y415003D01*
X231751Y414169D01*
X233417D01*
X234250Y415003D01*
Y417502D01*
X230918Y420001D02*
Y421667D01*
X231751Y422500D01*
X234250D01*
Y420001D01*
X233417Y419168D01*
X232584Y420001D01*
Y422500D01*
X234250Y424166D02*
Y425832D01*
Y424999D01*
X229252D01*
Y424166D01*
X234250Y430831D02*
Y429165D01*
X233417Y428331D01*
X231751D01*
X230918Y429165D01*
Y430831D01*
X231751Y431664D01*
X232584D01*
Y428331D01*
X230918Y433330D02*
X234250D01*
X232584D01*
X231751Y434163D01*
X230918Y434996D01*
Y435829D01*
X976502Y264518D02*
Y266184D01*
Y265351D01*
X981500D01*
Y264518D01*
Y266184D01*
Y268683D02*
X978168D01*
Y271182D01*
X979001Y272015D01*
X981500D01*
Y273681D02*
Y276180D01*
X980667Y277013D01*
X979834Y276180D01*
Y274514D01*
X979001Y273681D01*
X978168Y274514D01*
Y277013D01*
X977335Y279513D02*
X978168D01*
Y278680D01*
Y280346D01*
Y279513D01*
X980667D01*
X981500Y280346D01*
X978168Y282845D02*
X981500D01*
X979834D01*
X979001Y283678D01*
X978168Y284511D01*
Y285344D01*
Y287843D02*
X980667D01*
X981500Y288676D01*
Y291175D01*
X978168D01*
Y296174D02*
Y293675D01*
X979001Y292842D01*
X980667D01*
X981500Y293675D01*
Y296174D01*
X977335Y298673D02*
X978168D01*
Y297840D01*
Y299506D01*
Y298673D01*
X980667D01*
X981500Y299506D01*
Y302005D02*
Y303671D01*
Y302838D01*
X978168D01*
Y302005D01*
X981500Y307004D02*
Y308670D01*
X980667Y309503D01*
X979001D01*
X978168Y308670D01*
Y307004D01*
X979001Y306171D01*
X980667D01*
X981500Y307004D01*
Y311169D02*
X978168D01*
Y313668D01*
X979001Y314501D01*
X981500D01*
X978168Y321999D02*
Y323665D01*
X979001Y324498D01*
X981500D01*
Y321999D01*
X980667Y321166D01*
X979834Y321999D01*
Y324498D01*
X977335Y326997D02*
X978168D01*
Y326164D01*
Y327830D01*
Y326997D01*
X980667D01*
X981500Y327830D01*
X977335Y336161D02*
X978168D01*
Y335328D01*
Y336994D01*
Y336161D01*
X980667D01*
X981500Y336994D01*
X976502Y339493D02*
X981500D01*
X979001D01*
X978168Y340326D01*
Y341992D01*
X979001Y342825D01*
X981500D01*
Y346991D02*
Y345325D01*
X980667Y344492D01*
X979001D01*
X978168Y345325D01*
Y346991D01*
X979001Y347824D01*
X979834D01*
Y344492D01*
X976502Y354488D02*
X981500D01*
Y356987D01*
X980667Y357821D01*
X979834D01*
X979001D01*
X978168Y356987D01*
Y354488D01*
Y360320D02*
Y361986D01*
X979001Y362819D01*
X981500D01*
Y360320D01*
X980667Y359487D01*
X979834Y360320D01*
Y362819D01*
X978168Y367817D02*
Y365318D01*
X979001Y364485D01*
X980667D01*
X981500Y365318D01*
Y367817D01*
Y369483D02*
X976502D01*
X979834D02*
X978168Y371982D01*
X979834Y369483D02*
X981500Y371982D01*
X977835Y78250D02*
Y83248D01*
X980334D01*
X981167Y82415D01*
Y80749D01*
X980334Y79916D01*
X977835D01*
X979501D02*
X981167Y78250D01*
X982833Y83248D02*
Y78250D01*
X986165D01*
X697509Y132498D02*
Y127500D01*
X700009D01*
X700842Y128333D01*
Y129166D01*
X700009Y129999D01*
X697509D01*
X700009D01*
X700842Y130832D01*
Y131665D01*
X700009Y132498D01*
X697509D01*
X705840Y131665D02*
X705007Y132498D01*
X703341D01*
X702508Y131665D01*
Y128333D01*
X703341Y127500D01*
X705007D01*
X705840Y128333D01*
X707506Y127500D02*
Y132498D01*
X710005D01*
X710838Y131665D01*
Y129999D01*
X710005Y129166D01*
X707506D01*
X717503Y127500D02*
Y132498D01*
X720002D01*
X720835Y131665D01*
Y129999D01*
X720002Y129166D01*
X717503D01*
X719169D02*
X720835Y127500D01*
X722501Y132498D02*
X725834Y127500D01*
Y132498D02*
X722501Y127500D01*
X732498D02*
Y132498D01*
X734997D01*
X735830Y131665D01*
Y129999D01*
X734997Y129166D01*
X732498D01*
X738329Y127500D02*
X739995D01*
X740829Y128333D01*
Y129999D01*
X739995Y130832D01*
X738329D01*
X737496Y129999D01*
Y128333D01*
X738329Y127500D01*
X742495Y130832D02*
Y128333D01*
X743328Y127500D01*
X744161Y128333D01*
X744994Y127500D01*
X745827Y128333D01*
Y130832D01*
X749992Y127500D02*
X748326D01*
X747493Y128333D01*
Y129999D01*
X748326Y130832D01*
X749992D01*
X750825Y129999D01*
Y129166D01*
X747493D01*
X752491Y130832D02*
Y127500D01*
Y129166D01*
X753325Y129999D01*
X754157Y130832D01*
X754991D01*
X635917Y76248D02*
X632585D01*
Y73749D01*
X634251Y74582D01*
X635084D01*
X635917Y73749D01*
Y72083D01*
X635084Y71250D01*
X633418D01*
X632585Y72083D01*
X637583Y76248D02*
Y72916D01*
X639249Y71250D01*
X640915Y72916D01*
Y76248D01*
X48248Y390748D02*
X44916D01*
X43250Y389082D01*
X44916Y387416D01*
X48248D01*
X43250Y385750D02*
Y384084D01*
Y384916D01*
X46582D01*
Y385750D01*
X43250Y381584D02*
X46582D01*
Y379085D01*
X45749Y378252D01*
X43250D01*
X355507Y164081D02*
X354674Y164914D01*
X353008D01*
X352175Y164081D01*
Y160749D01*
X353008Y159916D01*
X354674D01*
X355507Y160749D01*
X358006Y164081D02*
Y163248D01*
X357173D01*
X358839D01*
X358006D01*
Y160749D01*
X358839Y159916D01*
X361338Y163248D02*
Y159916D01*
Y161582D01*
X362171Y162415D01*
X363004Y163248D01*
X363838D01*
X366337Y159916D02*
X368003D01*
X367170D01*
Y164914D01*
X366337D01*
X378833Y164081D02*
X378000Y164914D01*
X376334D01*
X375500Y164081D01*
Y163248D01*
X376334Y162415D01*
X378000D01*
X378833Y161582D01*
Y160749D01*
X378000Y159916D01*
X376334D01*
X375500Y160749D01*
X380499Y159916D02*
X382165D01*
X381332D01*
Y163248D01*
X380499D01*
X386330Y158250D02*
X387163D01*
X387996Y159083D01*
Y163248D01*
X385497D01*
X384664Y162415D01*
Y160749D01*
X385497Y159916D01*
X387996D01*
X389663D02*
Y163248D01*
X392162D01*
X392995Y162415D01*
Y159916D01*
X395494Y163248D02*
X397160D01*
X397993Y162415D01*
Y159916D01*
X395494D01*
X394661Y160749D01*
X395494Y161582D01*
X397993D01*
X399659Y159916D02*
X401325D01*
X400492D01*
Y164914D01*
X399659D01*
X424419Y158146D02*
Y153148D01*
X427751D01*
X429417Y156480D02*
X431083Y153148D01*
X432749Y156480D01*
X434415Y153148D02*
X436081D01*
X435248D01*
Y158146D01*
X434415D01*
X415255Y144750D02*
X417754D01*
X418587Y145583D01*
X417754Y146416D01*
X416088D01*
X415255Y147249D01*
X416088Y148082D01*
X418587D01*
X420253Y149748D02*
Y144750D01*
Y147249D01*
X421086Y148082D01*
X422752D01*
X423586Y147249D01*
Y144750D01*
X425252D02*
X426918D01*
X426085D01*
Y148082D01*
X425252D01*
X430250Y144750D02*
Y148915D01*
Y147249D01*
X429417D01*
X431083D01*
X430250D01*
Y148915D01*
X431083Y149748D01*
X434415Y148915D02*
Y148082D01*
X433582D01*
X435248D01*
X434415D01*
Y145583D01*
X435248Y144750D01*
X440247D02*
X438581D01*
X437748Y145583D01*
Y147249D01*
X438581Y148082D01*
X440247D01*
X441080Y147249D01*
Y146416D01*
X437748D01*
X442746Y148082D02*
Y144750D01*
Y146416D01*
X443579Y147249D01*
X444412Y148082D01*
X445245D01*
X812590Y408712D02*
Y413711D01*
X815922Y408712D01*
Y413711D01*
X818421Y412044D02*
X820088D01*
X820921Y411211D01*
Y408712D01*
X818421D01*
X817588Y409545D01*
X818421Y410378D01*
X820921D01*
X822587Y408712D02*
Y412044D01*
X825086D01*
X825919Y411211D01*
Y408712D01*
X828418D02*
X830084D01*
X830917Y409545D01*
Y411211D01*
X830084Y412044D01*
X828418D01*
X827585Y411211D01*
Y409545D01*
X828418Y408712D01*
X837582Y413711D02*
Y408712D01*
X839248Y410378D01*
X840914Y408712D01*
Y413711D01*
X843413Y412044D02*
X845079D01*
X845912Y411211D01*
Y408712D01*
X843413D01*
X842580Y409545D01*
X843413Y410378D01*
X845912D01*
X848412Y412878D02*
Y412044D01*
X847579D01*
X849245D01*
X848412D01*
Y409545D01*
X849245Y408712D01*
X852577Y412878D02*
Y412044D01*
X851744D01*
X853410D01*
X852577D01*
Y409545D01*
X853410Y408712D01*
X822170Y405312D02*
X818838D01*
Y400314D01*
X822170D01*
X818838Y402813D02*
X820504D01*
X823836Y400314D02*
Y403646D01*
X826336D01*
X827169Y402813D01*
Y400314D01*
X831334D02*
X829668D01*
X828835Y401147D01*
Y402813D01*
X829668Y403646D01*
X831334D01*
X832167Y402813D01*
Y401980D01*
X828835D01*
X833833Y403646D02*
Y400314D01*
Y401980D01*
X834666Y402813D01*
X835499Y403646D01*
X836332D01*
X840498Y398648D02*
X841331D01*
X842164Y399481D01*
Y403646D01*
X839665D01*
X838831Y402813D01*
Y401147D01*
X839665Y400314D01*
X842164D01*
X843830Y403646D02*
Y401147D01*
X844663Y400314D01*
X847162D01*
Y399481D01*
X846329Y398648D01*
X845496D01*
X847162Y400314D02*
Y403646D01*
X812173Y395248D02*
Y390250D01*
Y392749D01*
X815506D01*
Y395248D01*
Y390250D01*
X818005Y393582D02*
X819671D01*
X820504Y392749D01*
Y390250D01*
X818005D01*
X817172Y391083D01*
X818005Y391916D01*
X820504D01*
X822170Y393582D02*
Y390250D01*
Y391916D01*
X823003Y392749D01*
X823836Y393582D01*
X824669D01*
X827169D02*
X828835Y390250D01*
X830501Y393582D01*
X834666Y390250D02*
X833000D01*
X832167Y391083D01*
Y392749D01*
X833000Y393582D01*
X834666D01*
X835499Y392749D01*
Y391916D01*
X832167D01*
X837165Y390250D02*
X839665D01*
X840498Y391083D01*
X839665Y391916D01*
X837998D01*
X837165Y392749D01*
X837998Y393582D01*
X840498D01*
X842997Y394415D02*
Y393582D01*
X842164D01*
X843830D01*
X842997D01*
Y391083D01*
X843830Y390250D01*
X848828D02*
X847162D01*
X846329Y391083D01*
Y392749D01*
X847162Y393582D01*
X848828D01*
X849661Y392749D01*
Y391916D01*
X846329D01*
X851327Y393582D02*
Y390250D01*
Y391916D01*
X852160Y392749D01*
X852993Y393582D01*
X853827D01*
X102502Y18167D02*
Y14835D01*
X105001D01*
X104168Y16501D01*
Y17334D01*
X105001Y18167D01*
X106667D01*
X107500Y17334D01*
Y15668D01*
X106667Y14835D01*
X102502Y19833D02*
X105834D01*
X107500Y21499D01*
X105834Y23166D01*
X102502D01*
X226835Y14336D02*
X226002Y15169D01*
Y16835D01*
X226835Y17668D01*
X227668D01*
X228501Y16835D01*
Y16002D01*
Y16835D01*
X229334Y17668D01*
X230167D01*
X231000Y16835D01*
Y15169D01*
X230167Y14336D01*
X226002Y19334D02*
X229334D01*
X231000Y21000D01*
X229334Y22666D01*
X226002D01*
X226835Y24332D02*
X226002Y25165D01*
Y26832D01*
X226835Y27664D01*
X227668D01*
X228501Y26832D01*
Y25998D01*
Y26832D01*
X229334Y27664D01*
X230167D01*
X231000Y26832D01*
Y25165D01*
X230167Y24332D01*
X603173Y202331D02*
Y198999D01*
X604839Y197333D01*
X606505Y198999D01*
Y202331D01*
X608171D02*
Y197333D01*
X610670D01*
X611503Y198166D01*
Y198999D01*
X610670Y199832D01*
X608171D01*
X610670D01*
X611503Y200665D01*
Y201498D01*
X610670Y202331D01*
X608171D01*
X614002Y200665D02*
X615669D01*
X616502Y199832D01*
Y197333D01*
X614002D01*
X613169Y198166D01*
X614002Y198999D01*
X616502D01*
X619001Y201498D02*
Y200665D01*
X618168D01*
X619834D01*
X619001D01*
Y198166D01*
X619834Y197333D01*
X623166Y201498D02*
Y200665D01*
X622333D01*
X623999D01*
X623166D01*
Y198166D01*
X623999Y197333D01*
X626498Y196500D02*
X629831D01*
X633996Y202331D02*
X632330D01*
X631497Y201498D01*
Y198166D01*
X632330Y197333D01*
X633996D01*
X634829Y198166D01*
Y201498D01*
X633996Y202331D01*
X636495D02*
Y197333D01*
Y198999D01*
X639827Y202331D01*
X637328Y199832D01*
X639827Y197333D01*
X385261Y471674D02*
X384428Y472507D01*
X382762D01*
X381929Y471674D01*
Y470840D01*
X382762Y470007D01*
X384428D01*
X385261Y469174D01*
Y468341D01*
X384428Y467508D01*
X382762D01*
X381929Y468341D01*
X389427Y467508D02*
X387761D01*
X386928Y468341D01*
Y470007D01*
X387761Y470840D01*
X389427D01*
X390260Y470007D01*
Y469174D01*
X386928D01*
X391926Y467508D02*
Y470840D01*
X394425D01*
X395258Y470007D01*
Y467508D01*
X396924D02*
X399423D01*
X400257Y468341D01*
X399423Y469174D01*
X397757D01*
X396924Y470007D01*
X397757Y470840D01*
X400257D01*
X402756Y467508D02*
X404422D01*
X405255Y468341D01*
Y470007D01*
X404422Y470840D01*
X402756D01*
X401923Y470007D01*
Y468341D01*
X402756Y467508D01*
X406921Y470840D02*
Y467508D01*
Y469174D01*
X407754Y470007D01*
X408587Y470840D01*
X409420D01*
X416918Y467508D02*
Y472507D01*
X420250Y467508D01*
Y472507D01*
X422749Y467508D02*
X424415D01*
X425248Y468341D01*
Y470007D01*
X424415Y470840D01*
X422749D01*
X421916Y470007D01*
Y468341D01*
X422749Y467508D01*
X430247Y472507D02*
Y467508D01*
X427748D01*
X426914Y468341D01*
Y470007D01*
X427748Y470840D01*
X430247D01*
X434412Y467508D02*
X432746D01*
X431913Y468341D01*
Y470007D01*
X432746Y470840D01*
X434412D01*
X435245Y470007D01*
Y469174D01*
X431913D01*
X441910Y472507D02*
Y469174D01*
X443576Y467508D01*
X445242Y469174D01*
Y472507D01*
X446908Y467508D02*
X448574D01*
X447741D01*
Y472507D01*
X446908Y471674D01*
X451073Y467508D02*
Y468341D01*
X451906D01*
Y467508D01*
X451073D01*
X455239Y471674D02*
X456072Y472507D01*
X457738D01*
X458571Y471674D01*
Y468341D01*
X457738Y467508D01*
X456072D01*
X455239Y468341D01*
Y471674D01*
X369433Y455710D02*
Y450712D01*
X372766D01*
X374432D02*
X376098D01*
X375265D01*
Y454044D01*
X374432D01*
X378597Y450712D02*
Y454044D01*
X381096D01*
X381929Y453211D01*
Y450712D01*
X385261Y449046D02*
X386095D01*
X386928Y449879D01*
Y454044D01*
X384428D01*
X383595Y453211D01*
Y451545D01*
X384428Y450712D01*
X386928D01*
X388594D02*
Y455710D01*
Y452378D02*
X391093Y454044D01*
X388594Y452378D02*
X391093Y450712D01*
X396091D02*
X394425D01*
X393592Y451545D01*
Y453211D01*
X394425Y454044D01*
X396091D01*
X396924Y453211D01*
Y452378D01*
X393592D01*
X406921Y450712D02*
X406088Y451545D01*
X405255Y450712D01*
X404422D01*
X403589Y451545D01*
Y452378D01*
X404422Y453211D01*
X403589Y454044D01*
Y454878D01*
X404422Y455710D01*
X405255D01*
X406088Y454878D01*
Y454044D01*
X405255Y453211D01*
X406088Y452378D01*
Y451545D01*
X406921Y453211D02*
X406088Y452378D01*
X404422Y453211D02*
X405255D01*
X416918Y455710D02*
X415252D01*
X416085D01*
Y451545D01*
X415252Y450712D01*
X414419D01*
X413586Y451545D01*
X419417Y450712D02*
X421083D01*
X421916Y451545D01*
Y453211D01*
X421083Y454044D01*
X419417D01*
X418584Y453211D01*
Y451545D01*
X419417Y450712D01*
X423582D02*
Y454044D01*
X426081D01*
X426914Y453211D01*
Y450712D01*
X429414Y454044D02*
X431080D01*
X431913Y453211D01*
Y450712D01*
X429414D01*
X428581Y451545D01*
X429414Y452378D01*
X431913D01*
X434412Y454878D02*
Y454044D01*
X433579D01*
X435245D01*
X434412D01*
Y451545D01*
X435245Y450712D01*
X437744Y455710D02*
Y450712D01*
Y453211D01*
X438577Y454044D01*
X440243D01*
X441077Y453211D01*
Y450712D01*
X443576Y454044D02*
X445242D01*
X446075Y453211D01*
Y450712D01*
X443576D01*
X442743Y451545D01*
X443576Y452378D01*
X446075D01*
X447741Y450712D02*
Y454044D01*
X450240D01*
X451073Y453211D01*
Y450712D01*
X461070Y455710D02*
X457738D01*
Y453211D01*
X459404D01*
X457738D01*
Y450712D01*
X462736Y455710D02*
Y454878D01*
X464402Y453211D01*
X466068Y454878D01*
Y455710D01*
X464402Y453211D02*
Y450712D01*
X467734D02*
Y455710D01*
X470234D01*
X471067Y454878D01*
Y453211D01*
X470234Y452378D01*
X467734D01*
X394009Y432250D02*
X395675D01*
X394842D01*
Y437248D01*
X394009Y436415D01*
X401506Y432250D02*
X398174D01*
X401506Y435582D01*
Y436415D01*
X400673Y437248D01*
X399007D01*
X398174Y436415D01*
X411503Y437248D02*
X408171D01*
Y434749D01*
X409837D01*
X408171D01*
Y432250D01*
X415668D02*
X414002D01*
X413169Y433083D01*
Y434749D01*
X414002Y435582D01*
X415668D01*
X416501Y434749D01*
Y433916D01*
X413169D01*
X418167Y437248D02*
Y432250D01*
X420667D01*
X421500Y433083D01*
Y433916D01*
Y434749D01*
X420667Y435582D01*
X418167D01*
X431496Y432250D02*
X428164D01*
X431496Y435582D01*
Y436415D01*
X430663Y437248D01*
X428997D01*
X428164Y436415D01*
X433162D02*
X433996Y437248D01*
X435662D01*
X436495Y436415D01*
Y433083D01*
X435662Y432250D01*
X433996D01*
X433162Y433083D01*
Y436415D01*
X441493Y432250D02*
X438161D01*
X441493Y435582D01*
Y436415D01*
X440660Y437248D01*
X438994D01*
X438161Y436415D01*
X446491Y432250D02*
X443159D01*
X446491Y435582D01*
Y436415D01*
X445658Y437248D01*
X443992D01*
X443159Y436415D01*
X315975Y410505D02*
X315142Y409672D01*
Y408006D01*
X315975Y407173D01*
X319307D01*
X320140Y408006D01*
Y409672D01*
X319307Y410505D01*
X320140Y412171D02*
Y413837D01*
Y413004D01*
X315142D01*
Y412171D01*
X320140Y417169D02*
Y418836D01*
X319307Y419669D01*
X317641D01*
X316808Y418836D01*
Y417169D01*
X317641Y416336D01*
X319307D01*
X320140Y417169D01*
Y421335D02*
Y423834D01*
X319307Y424667D01*
X318474Y423834D01*
Y422168D01*
X317641Y421335D01*
X316808Y422168D01*
Y424667D01*
X320140Y428832D02*
Y427166D01*
X319307Y426333D01*
X317641D01*
X316808Y427166D01*
Y428832D01*
X317641Y429665D01*
X318474D01*
Y426333D01*
X315975Y437163D02*
X316808D01*
Y436330D01*
Y437996D01*
Y437163D01*
X319307D01*
X320140Y437996D01*
Y441328D02*
Y442994D01*
X319307Y443827D01*
X317641D01*
X316808Y442994D01*
Y441328D01*
X317641Y440495D01*
X319307D01*
X320140Y441328D01*
X323540Y408839D02*
X328538D01*
Y411338D01*
X327705Y412171D01*
X326872D01*
X326039D01*
X325206Y411338D01*
Y408839D01*
Y413837D02*
X327705D01*
X328538Y414670D01*
Y417169D01*
X329371D01*
X330204Y416336D01*
Y415503D01*
X328538Y417169D02*
X325206D01*
X330204Y423834D02*
X325206D01*
Y426333D01*
X326039Y427166D01*
X327705D01*
X328538Y426333D01*
Y423834D01*
X325206Y429665D02*
Y431331D01*
X326039Y432164D01*
X328538D01*
Y429665D01*
X327705Y428832D01*
X326872Y429665D01*
Y432164D01*
X328538Y433831D02*
Y436330D01*
X327705Y437163D01*
X326872Y436330D01*
Y434664D01*
X326039Y433831D01*
X325206Y434664D01*
Y437163D01*
X328538Y438829D02*
Y441328D01*
X327705Y442161D01*
X326872Y441328D01*
Y439662D01*
X326039Y438829D01*
X325206Y439662D01*
Y442161D01*
X338602Y418836D02*
X335270D01*
X333604Y420502D01*
X335270Y422168D01*
X338602D01*
X336103D01*
Y418836D01*
X333604Y423834D02*
X338602D01*
Y426333D01*
X337769Y427166D01*
X334437D01*
X333604Y426333D01*
Y423834D01*
X334437Y432164D02*
X333604Y431331D01*
Y429665D01*
X334437Y428832D01*
X337769D01*
X338602Y429665D01*
Y431331D01*
X337769Y432164D01*
X342835Y415503D02*
X342002Y414670D01*
Y413004D01*
X342835Y412171D01*
X343668D01*
X344501Y413004D01*
Y414670D01*
X345334Y415503D01*
X346167D01*
X347000Y414670D01*
Y413004D01*
X346167Y412171D01*
X343668Y420502D02*
Y418003D01*
X344501Y417169D01*
X346167D01*
X347000Y418003D01*
Y420502D01*
X343668Y423001D02*
Y424667D01*
X344501Y425500D01*
X347000D01*
Y423001D01*
X346167Y422168D01*
X345334Y423001D01*
Y425500D01*
X347000Y427166D02*
Y428832D01*
Y427999D01*
X342002D01*
Y427166D01*
X347000Y433831D02*
Y432164D01*
X346167Y431331D01*
X344501D01*
X343668Y432164D01*
Y433831D01*
X344501Y434664D01*
X345334D01*
Y431331D01*
X343668Y436330D02*
X347000D01*
X345334D01*
X344501Y437163D01*
X343668Y437996D01*
Y438829D01*
X436675Y230396D02*
Y226231D01*
X437508Y225398D01*
X439174D01*
X440007Y226231D01*
Y230396D01*
X441674Y225398D02*
Y228730D01*
X444173D01*
X445006Y227897D01*
Y225398D01*
X446672D02*
Y228730D01*
X447505D01*
X448338Y227897D01*
Y225398D01*
Y227897D01*
X449171Y228730D01*
X450004Y227897D01*
Y225398D01*
X452503D02*
X454169D01*
X455002Y226231D01*
Y227897D01*
X454169Y228730D01*
X452503D01*
X451670Y227897D01*
Y226231D01*
X452503Y225398D01*
X460001Y230396D02*
Y225398D01*
X457502D01*
X456669Y226231D01*
Y227897D01*
X457502Y228730D01*
X460001D01*
X461667D02*
Y226231D01*
X462500Y225398D01*
X464999D01*
Y228730D01*
X466665Y225398D02*
X468331D01*
X467498D01*
Y230396D01*
X466665D01*
X471664Y228730D02*
X473330D01*
X474163Y227897D01*
Y225398D01*
X471664D01*
X470831Y226231D01*
X471664Y227064D01*
X474163D01*
X476662Y229563D02*
Y228730D01*
X475829D01*
X477495D01*
X476662D01*
Y226231D01*
X477495Y225398D01*
X482494D02*
X480827D01*
X479994Y226231D01*
Y227897D01*
X480827Y228730D01*
X482494D01*
X483326Y227897D01*
Y227064D01*
X479994D01*
X488325Y230396D02*
Y225398D01*
X485826D01*
X484993Y226231D01*
Y227897D01*
X485826Y228730D01*
X488325D01*
X453753Y221998D02*
Y217000D01*
X456252D01*
X457085Y217833D01*
Y221165D01*
X456252Y221998D01*
X453753D01*
X459584Y220332D02*
X461250D01*
X462084Y219499D01*
Y217000D01*
X459584D01*
X458751Y217833D01*
X459584Y218666D01*
X462084D01*
X464583Y221165D02*
Y220332D01*
X463750D01*
X465416D01*
X464583D01*
Y217833D01*
X465416Y217000D01*
X468748Y220332D02*
X470414D01*
X471247Y219499D01*
Y217000D01*
X468748D01*
X467915Y217833D01*
X468748Y218666D01*
X471247D01*
X46665Y363082D02*
X47498Y363915D01*
Y365581D01*
X46665Y366414D01*
X43333D01*
X42500Y365581D01*
Y363915D01*
X43333Y363082D01*
X44999D01*
Y364748D01*
X42500Y361416D02*
X47498D01*
X42500Y358084D01*
X47498D01*
Y356418D02*
X42500D01*
Y353919D01*
X43333Y353086D01*
X46665D01*
X47498Y353919D01*
Y356418D01*
X648919Y176498D02*
Y173166D01*
X650585Y171500D01*
X652252Y173166D01*
Y176498D01*
X653918Y174832D02*
Y171500D01*
Y173166D01*
X654751Y173999D01*
X655584Y174832D01*
X656417D01*
X661415Y171500D02*
X659749D01*
X658916Y172333D01*
Y173999D01*
X659749Y174832D01*
X661415D01*
X662248Y173999D01*
Y173166D01*
X658916D01*
X664748Y171500D02*
Y175665D01*
Y173999D01*
X663914D01*
X665581D01*
X664748D01*
Y175665D01*
X665581Y176498D01*
X387252Y37587D02*
Y35921D01*
X388085Y35088D01*
X391417D01*
X392250Y35921D01*
Y37587D01*
X391417Y38420D01*
X388085D01*
X387252Y37587D01*
X388085Y43419D02*
X387252Y42586D01*
Y40919D01*
X388085Y40086D01*
X388918D01*
X389751Y40919D01*
Y42586D01*
X390584Y43419D01*
X391417D01*
X392250Y42586D01*
Y40919D01*
X391417Y40086D01*
X388085Y48417D02*
X387252Y47584D01*
Y45918D01*
X388085Y45085D01*
X391417D01*
X392250Y45918D01*
Y47584D01*
X391417Y48417D01*
X387252Y58414D02*
Y55082D01*
X392250D01*
Y58414D01*
X389751Y55082D02*
Y56748D01*
X392250Y60080D02*
X388918D01*
Y62579D01*
X389751Y63412D01*
X392250D01*
X894337Y346146D02*
Y342814D01*
X896003Y341148D01*
X897669Y342814D01*
Y346146D01*
X902668Y345313D02*
X901835Y346146D01*
X900169D01*
X899335Y345313D01*
Y344480D01*
X900169Y343647D01*
X901835D01*
X902668Y342814D01*
Y341981D01*
X901835Y341148D01*
X900169D01*
X899335Y341981D01*
X904334Y346146D02*
X907666D01*
X906000D01*
Y341148D01*
X911831Y346146D02*
X910165D01*
X909332Y345313D01*
Y341981D01*
X910165Y341148D01*
X911831D01*
X912664Y341981D01*
Y345313D01*
X911831Y346146D01*
X914331Y341148D02*
Y346146D01*
X916830D01*
X917663Y345313D01*
Y343647D01*
X916830Y342814D01*
X914331D01*
X915997D02*
X917663Y341148D01*
X310918Y47415D02*
X310085Y48248D01*
X308419D01*
X307586Y47415D01*
Y44083D01*
X308419Y43250D01*
X310085D01*
X310918Y44083D01*
Y45749D01*
X309252D01*
X312584Y43250D02*
Y48248D01*
X315916Y43250D01*
Y48248D01*
X317582D02*
Y43250D01*
X320081D01*
X320914Y44083D01*
Y47415D01*
X320081Y48248D01*
X317582D01*
X31206Y143586D02*
X35371D01*
X36204Y144419D01*
Y146085D01*
X35371Y146918D01*
X31206D01*
X32039Y151916D02*
X31206Y151083D01*
Y149417D01*
X32039Y148584D01*
X32872D01*
X33705Y149417D01*
Y151083D01*
X34538Y151916D01*
X35371D01*
X36204Y151083D01*
Y149417D01*
X35371Y148584D01*
X31206Y153582D02*
X36204D01*
Y156081D01*
X35371Y156915D01*
X34538D01*
X33705Y156081D01*
Y153582D01*
Y156081D01*
X32872Y156915D01*
X32039D01*
X31206Y156081D01*
Y153582D01*
X39604Y144419D02*
Y141086D01*
X42103D01*
Y142753D01*
Y141086D01*
X44602D01*
X41270Y146918D02*
Y148584D01*
X42103Y149417D01*
X44602D01*
Y146918D01*
X43769Y146085D01*
X42936Y146918D01*
Y149417D01*
X41270Y154415D02*
Y151916D01*
X42103Y151083D01*
X43769D01*
X44602Y151916D01*
Y154415D01*
Y158581D02*
Y156915D01*
X43769Y156081D01*
X42103D01*
X41270Y156915D01*
Y158581D01*
X42103Y159414D01*
X42936D01*
Y156081D01*
X48002Y141086D02*
X53000D01*
X50501D01*
Y144419D01*
X48002D01*
X53000D01*
Y148584D02*
Y146918D01*
X52167Y146085D01*
X50501D01*
X49668Y146918D01*
Y148584D01*
X50501Y149417D01*
X51334D01*
Y146085D01*
X49668Y151083D02*
X53000D01*
X51334D01*
X50501Y151916D01*
X49668Y152749D01*
Y153582D01*
X53000Y158581D02*
Y156915D01*
X52167Y156081D01*
X50501D01*
X49668Y156915D01*
Y158581D01*
X50501Y159414D01*
X51334D01*
Y156081D01*
X662923Y393250D02*
Y398248D01*
X665422D01*
X666255Y397415D01*
Y395749D01*
X665422Y394916D01*
X662923D01*
X664589D02*
X666255Y393250D01*
X670421D02*
X668755D01*
X667921Y394083D01*
Y395749D01*
X668755Y396582D01*
X670421D01*
X671254Y395749D01*
Y394916D01*
X667921D01*
X676252Y396582D02*
X673753D01*
X672920Y395749D01*
Y394083D01*
X673753Y393250D01*
X676252D01*
X678751Y397415D02*
Y396582D01*
X677918D01*
X679584D01*
X678751D01*
Y394083D01*
X679584Y393250D01*
X682084D02*
X683750D01*
X682916D01*
Y396582D01*
X682084D01*
X687082Y393250D02*
Y397415D01*
Y395749D01*
X686249D01*
X687915D01*
X687082D01*
Y397415D01*
X687915Y398248D01*
X690414Y393250D02*
X692080D01*
X691247D01*
Y396582D01*
X690414D01*
X697079Y393250D02*
X695413D01*
X694579Y394083D01*
Y395749D01*
X695413Y396582D01*
X697079D01*
X697912Y395749D01*
Y394916D01*
X694579D01*
X699578Y396582D02*
Y393250D01*
Y394916D01*
X700411Y395749D01*
X701244Y396582D01*
X702077D01*
X200589Y155665D02*
X201422Y156498D01*
X203088D01*
X203921Y155665D01*
Y154832D01*
X203088Y153999D01*
X202255D01*
X203088D01*
X203921Y153166D01*
Y152333D01*
X203088Y151500D01*
X201422D01*
X200589Y152333D01*
X205587Y156498D02*
Y153166D01*
X207253Y151500D01*
X208919Y153166D01*
Y156498D01*
X210585Y155665D02*
X211419Y156498D01*
X213085D01*
X213918Y155665D01*
Y154832D01*
X213085Y153999D01*
X212252D01*
X213085D01*
X213918Y153166D01*
Y152333D01*
X213085Y151500D01*
X211419D01*
X210585Y152333D01*
X220582Y156498D02*
Y151500D01*
X223915D01*
X225581Y156498D02*
Y151500D01*
X228080D01*
X228913Y152333D01*
Y155665D01*
X228080Y156498D01*
X225581D01*
X233078D02*
X231412D01*
X230579Y155665D01*
Y152333D01*
X231412Y151500D01*
X233078D01*
X233911Y152333D01*
Y155665D01*
X233078Y156498D01*
X886840Y295581D02*
Y292249D01*
X888506Y290583D01*
X890172Y292249D01*
Y295581D01*
X891838D02*
Y290583D01*
X894337D01*
X895170Y291416D01*
Y292249D01*
X894337Y293082D01*
X891838D01*
X894337D01*
X895170Y293915D01*
Y294748D01*
X894337Y295581D01*
X891838D01*
X896836Y290583D02*
Y293915D01*
X898502Y295581D01*
X900169Y293915D01*
Y290583D01*
Y293082D01*
X896836D01*
X901835Y295581D02*
X905167D01*
X903501D01*
Y290583D01*
X906833Y295581D02*
X910165D01*
X908499D01*
Y290583D01*
X911831Y289750D02*
X915164D01*
X919329Y295581D02*
X917663D01*
X916830Y294748D01*
Y291416D01*
X917663Y290583D01*
X919329D01*
X920162Y291416D01*
Y294748D01*
X919329Y295581D01*
X921828D02*
Y290583D01*
Y292249D01*
X925160Y295581D01*
X922661Y293082D01*
X925160Y290583D01*
X77420Y173248D02*
X74088D01*
Y170749D01*
X75754Y171582D01*
X76587D01*
X77420Y170749D01*
Y169083D01*
X76587Y168250D01*
X74921D01*
X74088Y169083D01*
X79086Y173248D02*
Y169916D01*
X80752Y168250D01*
X82419Y169916D01*
Y173248D01*
X89083D02*
Y168250D01*
X92415D01*
X94081Y173248D02*
Y168250D01*
X96581D01*
X97414Y169083D01*
Y172415D01*
X96581Y173248D01*
X94081D01*
X101579D02*
X99913D01*
X99080Y172415D01*
Y169083D01*
X99913Y168250D01*
X101579D01*
X102412Y169083D01*
Y172415D01*
X101579Y173248D01*
X63248Y406657D02*
X62415Y408323D01*
X60749Y409989D01*
X59083D01*
X58250Y409156D01*
Y407490D01*
X59083Y406657D01*
X59916D01*
X60749Y407490D01*
Y409989D01*
X58250Y397493D02*
X60749Y399992D01*
X63248Y397493D01*
X59916Y394994D02*
Y391662D01*
X61582Y394994D02*
Y391662D01*
X63248Y384997D02*
X59916D01*
X58250Y383331D01*
X59916Y381665D01*
X63248D01*
X58250Y379999D02*
Y378333D01*
Y379166D01*
X61582D01*
Y379999D01*
X58250Y375834D02*
X61582D01*
Y373334D01*
X60749Y372501D01*
X58250D01*
Y363338D02*
X60749Y365837D01*
X63248Y363338D01*
X59916Y360838D02*
Y357506D01*
X61582Y360838D02*
Y357506D01*
X59083Y350842D02*
X58250Y350009D01*
Y348343D01*
X59083Y347509D01*
X62415D01*
X63248Y348343D01*
Y350009D01*
X62415Y350842D01*
X61582D01*
X60749Y350009D01*
Y347509D01*
X63248Y345843D02*
X59916D01*
X58250Y344177D01*
X59916Y342511D01*
X63248D01*
X659923Y422148D02*
Y427146D01*
X662422D01*
X663255Y426313D01*
Y424647D01*
X662422Y423814D01*
X659923D01*
X661589D02*
X663255Y422148D01*
X667420D02*
X665754D01*
X664921Y422981D01*
Y424647D01*
X665754Y425480D01*
X667420D01*
X668253Y424647D01*
Y423814D01*
X664921D01*
X669919Y422148D02*
X672419D01*
X673252Y422981D01*
X672419Y423814D01*
X670752D01*
X669919Y424647D01*
X670752Y425480D01*
X673252D01*
X675751Y422148D02*
X677417D01*
X678250Y422981D01*
Y424647D01*
X677417Y425480D01*
X675751D01*
X674918Y424647D01*
Y422981D01*
X675751Y422148D01*
X679916D02*
Y425480D01*
X682415D01*
X683248Y424647D01*
Y422148D01*
X685748Y425480D02*
X687414D01*
X688247Y424647D01*
Y422148D01*
X685748D01*
X684914Y422981D01*
X685748Y423814D01*
X688247D01*
X689913Y422148D02*
Y425480D01*
X692412D01*
X693245Y424647D01*
Y422148D01*
X695744Y426313D02*
Y425480D01*
X694911D01*
X696577D01*
X695744D01*
Y422981D01*
X696577Y422148D01*
X669503Y418748D02*
X672835D01*
X671169D01*
Y413750D01*
X675334Y417082D02*
X677000D01*
X677833Y416249D01*
Y413750D01*
X675334D01*
X674501Y414583D01*
X675334Y415416D01*
X677833D01*
X679500Y413750D02*
Y417082D01*
X681999D01*
X682832Y416249D01*
Y413750D01*
X684498D02*
Y418748D01*
Y415416D02*
X686997Y417082D01*
X684498Y415416D02*
X686997Y413750D01*
X560603Y369760D02*
X565602D01*
Y372259D01*
X564769Y373092D01*
X563936D01*
X563103Y372259D01*
Y369760D01*
Y372259D01*
X562270Y373092D01*
X561437D01*
X560603Y372259D01*
Y369760D01*
X561437Y378091D02*
X560603Y377257D01*
Y375591D01*
X561437Y374758D01*
X564769D01*
X565602Y375591D01*
Y377257D01*
X564769Y378091D01*
X565602Y379757D02*
X560603D01*
Y382256D01*
X561437Y383089D01*
X563103D01*
X563936Y382256D01*
Y379757D01*
X560603Y389753D02*
X563936D01*
X565602Y391419D01*
X563936Y393086D01*
X560603D01*
X565602Y394752D02*
Y396418D01*
Y395585D01*
X562270D01*
Y394752D01*
X565602Y398917D02*
X562270D01*
Y401416D01*
X563103Y402249D01*
X565602D01*
Y408914D02*
X562270D01*
X560603Y410580D01*
X562270Y412246D01*
X565602D01*
X563103D01*
Y408914D01*
X565602Y414745D02*
X561437D01*
X563103D01*
Y413912D01*
Y415578D01*
Y414745D01*
X561437D01*
X560603Y415578D01*
X561437Y418910D02*
X562270D01*
Y418077D01*
Y419743D01*
Y418910D01*
X564769D01*
X565602Y419743D01*
Y424742D02*
Y423076D01*
X564769Y422243D01*
X563103D01*
X562270Y423076D01*
Y424742D01*
X563103Y425575D01*
X563936D01*
Y422243D01*
X562270Y427241D02*
X565602D01*
X563936D01*
X563103Y428074D01*
X562270Y428907D01*
Y429740D01*
X574000Y380173D02*
X569002D01*
Y382672D01*
X569835Y383505D01*
X571501D01*
X572334Y382672D01*
Y380173D01*
Y381839D02*
X574000Y383505D01*
Y387671D02*
Y386004D01*
X573167Y385172D01*
X571501D01*
X570668Y386004D01*
Y387671D01*
X571501Y388504D01*
X572334D01*
Y385172D01*
X570668Y393502D02*
Y391003D01*
X571501Y390170D01*
X573167D01*
X574000Y391003D01*
Y393502D01*
X569835Y396001D02*
X570668D01*
Y395168D01*
Y396834D01*
Y396001D01*
X573167D01*
X574000Y396834D01*
Y399333D02*
Y401000D01*
Y400167D01*
X570668D01*
Y399333D01*
X574000Y404332D02*
X569835D01*
X571501D01*
Y403499D01*
Y405165D01*
Y404332D01*
X569835D01*
X569002Y405165D01*
X574000Y407664D02*
Y409330D01*
Y408497D01*
X570668D01*
Y407664D01*
X574000Y414329D02*
Y412663D01*
X573167Y411829D01*
X571501D01*
X570668Y412663D01*
Y414329D01*
X571501Y415162D01*
X572334D01*
Y411829D01*
X570668Y416828D02*
X574000D01*
X572334D01*
X571501Y417661D01*
X570668Y418494D01*
Y419327D01*
X775004Y19998D02*
X771672D01*
Y15000D01*
X775004D01*
X771672Y17499D02*
X773338D01*
X780003Y19165D02*
X779169Y19998D01*
X777503D01*
X776670Y19165D01*
Y15833D01*
X777503Y15000D01*
X779169D01*
X780003Y15833D01*
X785001Y19165D02*
X784168Y19998D01*
X782502D01*
X781669Y19165D01*
Y15833D01*
X782502Y15000D01*
X784168D01*
X785001Y15833D01*
Y17499D01*
X783335D01*
X794165Y19998D02*
X792498D01*
X791665Y19165D01*
Y15833D01*
X792498Y15000D01*
X794165D01*
X794998Y15833D01*
Y19165D01*
X794165Y19998D01*
X796664Y18332D02*
Y15833D01*
X797497Y15000D01*
X799996D01*
Y18332D01*
X802495Y19165D02*
Y18332D01*
X801662D01*
X803328D01*
X802495D01*
Y15833D01*
X803328Y15000D01*
X391000Y85500D02*
X392666D01*
X391833D01*
Y90498D01*
X391000Y89665D01*
X395165D02*
X395998Y90498D01*
X397664D01*
X398498Y89665D01*
Y86333D01*
X397664Y85500D01*
X395998D01*
X395165Y86333D01*
Y89665D01*
X622000Y86500D02*
X623666D01*
X622833D01*
Y91498D01*
X622000Y90665D01*
X35582Y84750D02*
X32250D01*
X35582Y88082D01*
Y88915D01*
X34749Y89748D01*
X33083D01*
X32250Y88915D01*
X39748Y84750D02*
Y89748D01*
X37248Y87249D01*
X40581D01*
X233785Y83658D02*
X229500D01*
X231642Y85800D02*
Y81515D01*
X109577Y83658D02*
X105293D01*
X107435Y85800D02*
Y81515D01*
X390500Y237000D02*
X392166D01*
X391333D01*
Y241998D01*
X390500Y241165D01*
X394665D02*
X395498Y241998D01*
X397164D01*
X397998Y241165D01*
Y237833D01*
X397164Y237000D01*
X395498D01*
X394665Y237833D01*
Y241165D01*
X622000Y238750D02*
X623666D01*
X622833D01*
Y243748D01*
X622000Y242915D01*
X37332Y280250D02*
X34000D01*
X37332Y283582D01*
Y284415D01*
X36499Y285248D01*
X34833D01*
X34000Y284415D01*
X41498Y280250D02*
Y285248D01*
X38998Y282749D01*
X42331D01*
X37332Y289000D02*
X34000D01*
X37332Y292332D01*
Y293165D01*
X36499Y293998D01*
X34833D01*
X34000Y293165D01*
X41498Y289000D02*
Y293998D01*
X38998Y291499D01*
X42331D01*
X391000Y288750D02*
X392666D01*
X391833D01*
Y293748D01*
X391000Y292915D01*
X395165D02*
X395998Y293748D01*
X397664D01*
X398498Y292915D01*
Y289583D01*
X397664Y288750D01*
X395998D01*
X395165Y289583D01*
Y292915D01*
X621250Y289500D02*
X622916D01*
X622083D01*
Y294498D01*
X621250Y293665D01*
X503752Y341501D02*
Y346499D01*
X506251D01*
X507084Y345666D01*
Y344000D01*
X506251Y343167D01*
X503752D01*
X508750Y341501D02*
X510416D01*
X509584D01*
Y346499D01*
X508750Y345666D01*
X516248Y346499D02*
X512916D01*
Y344000D01*
X514582Y344833D01*
X515415D01*
X516248Y344000D01*
Y342334D01*
X515415Y341501D01*
X513749D01*
X512916Y342334D01*
X630502Y57249D02*
X632168D01*
X631335D01*
Y52251D01*
X630502D01*
X632168D01*
X638000Y56416D02*
X637166Y57249D01*
X635500D01*
X634667Y56416D01*
Y53084D01*
X635500Y52251D01*
X637166D01*
X638000Y53084D01*
X642165Y52251D02*
Y57249D01*
X639666Y54750D01*
X642998D01*
X899502Y40001D02*
Y44999D01*
X902001D01*
X902834Y44166D01*
Y42500D01*
X902001Y41667D01*
X899502D01*
X904500Y40001D02*
X906167D01*
X905333D01*
Y44999D01*
X904500Y44166D01*
X911165Y40001D02*
Y44999D01*
X908666Y42500D01*
X911998D01*
X617501Y345916D02*
X616668Y346749D01*
X615002D01*
X614169Y345916D01*
Y342584D01*
X615002Y341751D01*
X616668D01*
X617501Y342584D01*
X622499Y341751D02*
X619167D01*
X622499Y345083D01*
Y345916D01*
X621666Y346749D01*
X620000D01*
X619167Y345916D01*
X624165Y341751D02*
X625831D01*
X624998D01*
Y346749D01*
X624165Y345916D01*
X854450Y368802D02*
Y373800D01*
X856949D01*
X857782Y372967D01*
Y371301D01*
X856949Y370468D01*
X854450D01*
X859448Y368802D02*
X861115D01*
X860281D01*
Y373800D01*
X859448Y372967D01*
X863614D02*
X864447Y373800D01*
X866113D01*
X866946Y372967D01*
Y372134D01*
X866113Y371301D01*
X865280D01*
X866113D01*
X866946Y370468D01*
Y369635D01*
X866113Y368802D01*
X864447D01*
X863614Y369635D01*
X716417Y175249D02*
X714751D01*
X715584D01*
Y171084D01*
X714751Y170251D01*
X713918D01*
X713085Y171084D01*
X721415Y175249D02*
X718083D01*
Y172750D01*
X719749Y173583D01*
X720582D01*
X721415Y172750D01*
Y171084D01*
X720582Y170251D01*
X718916D01*
X718083Y171084D01*
X660417Y308895D02*
X659584Y308062D01*
Y306396D01*
X660417Y305563D01*
X663750D01*
X664583Y306396D01*
Y308062D01*
X663750Y308895D01*
X659584Y310561D02*
Y312227D01*
Y311394D01*
X664583D01*
Y310561D01*
Y312227D01*
Y314726D02*
X659584D01*
X664583Y318059D01*
X659584D01*
X665416Y319725D02*
Y323057D01*
X664583Y324723D02*
X661250D01*
X659584Y326389D01*
X661250Y328055D01*
X664583D01*
X662084D01*
Y324723D01*
X659584Y333054D02*
X664583D01*
Y330555D01*
X663750Y329721D01*
X662084D01*
X661250Y330555D01*
Y333054D01*
X659584Y338052D02*
X664583D01*
Y335553D01*
X663750Y334720D01*
X662084D01*
X661250Y335553D01*
Y338052D01*
X243752Y19751D02*
Y24749D01*
X246251D01*
X247084Y23916D01*
Y22250D01*
X246251Y21417D01*
X243752D01*
X248750Y19751D02*
X250417D01*
X249583D01*
Y24749D01*
X248750Y23916D01*
X256248Y19751D02*
X252916D01*
X256248Y23083D01*
Y23916D01*
X255415Y24749D01*
X253749D01*
X252916Y23916D01*
X96085Y29751D02*
Y34749D01*
X98584D01*
X99417Y33916D01*
Y32250D01*
X98584Y31417D01*
X96085D01*
X101083Y29751D02*
X102750D01*
X101917D01*
Y34749D01*
X101083Y33916D01*
X105249Y29751D02*
X106915D01*
X106082D01*
Y34749D01*
X105249Y33916D01*
X176834Y69918D02*
X176001Y69085D01*
Y67419D01*
X176834Y66585D01*
X180166D01*
X180999Y67419D01*
Y69085D01*
X180166Y69918D01*
X180999Y74916D02*
Y71584D01*
X177667Y74916D01*
X176834D01*
X176001Y74083D01*
Y72417D01*
X176834Y71584D01*
Y76582D02*
X176001Y77415D01*
Y79081D01*
X176834Y79914D01*
X180166D01*
X180999Y79081D01*
Y77415D01*
X180166Y76582D01*
X176834D01*
X160584Y70084D02*
X159751Y69251D01*
Y67585D01*
X160584Y66752D01*
X163916D01*
X164749Y67585D01*
Y69251D01*
X163916Y70084D01*
X164749Y71750D02*
Y73417D01*
Y72583D01*
X159751D01*
X160584Y71750D01*
X163916Y75916D02*
X164749Y76749D01*
Y78415D01*
X163916Y79248D01*
X160584D01*
X159751Y78415D01*
Y76749D01*
X160584Y75916D01*
X161417D01*
X162250Y76749D01*
Y79248D01*
X688836Y239751D02*
Y244749D01*
X691336D01*
X692169Y243916D01*
Y242250D01*
X691336Y241417D01*
X688836D01*
X690502D02*
X692169Y239751D01*
X696334Y244749D02*
X694668D01*
X693835Y243916D01*
Y240584D01*
X694668Y239751D01*
X696334D01*
X697167Y240584D01*
Y243916D01*
X696334Y244749D01*
X698833D02*
Y241417D01*
X700499Y239751D01*
X702165Y241417D01*
Y244749D01*
X707164Y239751D02*
X703831D01*
X707164Y243083D01*
Y243916D01*
X706331Y244749D01*
X704665D01*
X703831Y243916D01*
X689669Y227001D02*
Y231999D01*
X692169D01*
X693002Y231166D01*
Y229500D01*
X692169Y228667D01*
X689669D01*
X691336D02*
X693002Y227001D01*
X697167Y231999D02*
X695501D01*
X694668Y231166D01*
Y227834D01*
X695501Y227001D01*
X697167D01*
X698000Y227834D01*
Y231166D01*
X697167Y231999D01*
X699666D02*
Y228667D01*
X701332Y227001D01*
X702998Y228667D01*
Y231999D01*
X704665Y227001D02*
X706331D01*
X705498D01*
Y231999D01*
X704665Y231166D01*
X822337Y251501D02*
Y256499D01*
X824836D01*
X825669Y255666D01*
Y254000D01*
X824836Y253167D01*
X822337D01*
X824003D02*
X825669Y251501D01*
X829835Y256499D02*
X828169D01*
X827336Y255666D01*
Y252334D01*
X828169Y251501D01*
X829835D01*
X830668Y252334D01*
Y255666D01*
X829835Y256499D01*
X832334D02*
Y252334D01*
X833167Y251501D01*
X834833D01*
X835666Y252334D01*
Y256499D01*
X837332D02*
X840665D01*
X838998D01*
Y251501D01*
X845663D02*
X842331D01*
X845663Y254833D01*
Y255666D01*
X844830Y256499D01*
X843164D01*
X842331Y255666D01*
X822670Y240501D02*
Y245499D01*
X825169D01*
X826003Y244666D01*
Y243000D01*
X825169Y242167D01*
X822670D01*
X824336D02*
X826003Y240501D01*
X830168Y245499D02*
X828502D01*
X827669Y244666D01*
Y241334D01*
X828502Y240501D01*
X830168D01*
X831001Y241334D01*
Y244666D01*
X830168Y245499D01*
X832667D02*
Y241334D01*
X833500Y240501D01*
X835166D01*
X835999Y241334D01*
Y245499D01*
X837665D02*
X840998D01*
X839331D01*
Y240501D01*
X842664D02*
X844330D01*
X843497D01*
Y245499D01*
X842664Y244666D01*
X739336Y239251D02*
Y244249D01*
X741835D01*
X742669Y243416D01*
Y241750D01*
X741835Y240917D01*
X739336D01*
X741003D02*
X742669Y239251D01*
X746834Y244249D02*
X745168D01*
X744335Y243416D01*
Y240084D01*
X745168Y239251D01*
X746834D01*
X747667Y240084D01*
Y243416D01*
X746834Y244249D01*
X749333D02*
Y239251D01*
Y240917D01*
X752665Y244249D01*
X750166Y241750D01*
X752665Y239251D01*
X754331Y243416D02*
X755164Y244249D01*
X756831D01*
X757664Y243416D01*
Y242583D01*
X756831Y241750D01*
X755997D01*
X756831D01*
X757664Y240917D01*
Y240084D01*
X756831Y239251D01*
X755164D01*
X754331Y240084D01*
X739336Y227001D02*
Y231999D01*
X741835D01*
X742669Y231166D01*
Y229500D01*
X741835Y228667D01*
X739336D01*
X741003D02*
X742669Y227001D01*
X746834Y231999D02*
X745168D01*
X744335Y231166D01*
Y227834D01*
X745168Y227001D01*
X746834D01*
X747667Y227834D01*
Y231166D01*
X746834Y231999D01*
X749333D02*
Y227001D01*
Y228667D01*
X752665Y231999D01*
X750166Y229500D01*
X752665Y227001D01*
X757664D02*
X754331D01*
X757664Y230333D01*
Y231166D01*
X756831Y231999D01*
X755164D01*
X754331Y231166D01*
X740169Y214751D02*
Y219749D01*
X742669D01*
X743502Y218916D01*
Y217250D01*
X742669Y216417D01*
X740169D01*
X741835D02*
X743502Y214751D01*
X747667Y219749D02*
X746001D01*
X745168Y218916D01*
Y215584D01*
X746001Y214751D01*
X747667D01*
X748500Y215584D01*
Y218916D01*
X747667Y219749D01*
X750166D02*
Y214751D01*
Y216417D01*
X753498Y219749D01*
X750999Y217250D01*
X753498Y214751D01*
X755164D02*
X756831D01*
X755998D01*
Y219749D01*
X755164Y218916D01*
X648836Y282668D02*
Y287666D01*
X651336D01*
X652169Y286833D01*
Y285167D01*
X651336Y284334D01*
X648836D01*
X650502D02*
X652169Y282668D01*
X656334Y287666D02*
X654668D01*
X653835Y286833D01*
Y283501D01*
X654668Y282668D01*
X656334D01*
X657167Y283501D01*
Y286833D01*
X656334Y287666D01*
X662165Y286833D02*
X661332Y287666D01*
X659666D01*
X658833Y286833D01*
Y283501D01*
X659666Y282668D01*
X661332D01*
X662165Y283501D01*
X667164Y282668D02*
X663831D01*
X667164Y286000D01*
Y286833D01*
X666331Y287666D01*
X664665D01*
X663831Y286833D01*
X649669Y270084D02*
Y275082D01*
X652169D01*
X653002Y274249D01*
Y272583D01*
X652169Y271750D01*
X649669D01*
X651336D02*
X653002Y270084D01*
X657167Y275082D02*
X655501D01*
X654668Y274249D01*
Y270917D01*
X655501Y270084D01*
X657167D01*
X658000Y270917D01*
Y274249D01*
X657167Y275082D01*
X662998Y274249D02*
X662165Y275082D01*
X660499D01*
X659666Y274249D01*
Y270917D01*
X660499Y270084D01*
X662165D01*
X662998Y270917D01*
X664665Y270084D02*
X666331D01*
X665498D01*
Y275082D01*
X664665Y274249D01*
X833586Y92843D02*
Y97842D01*
X836085D01*
X836918Y97009D01*
Y95343D01*
X836085Y94509D01*
X833586D01*
X835252D02*
X836918Y92843D01*
X841916D02*
X838584D01*
X841916Y96175D01*
Y97009D01*
X841083Y97842D01*
X839417D01*
X838584Y97009D01*
X846915Y92843D02*
X843582D01*
X846915Y96175D01*
Y97009D01*
X846081Y97842D01*
X844415D01*
X843582Y97009D01*
X920669Y123843D02*
Y128842D01*
X923168D01*
X924001Y128009D01*
Y126342D01*
X923168Y125509D01*
X920669D01*
X922335D02*
X924001Y123843D01*
X928999D02*
X925667D01*
X928999Y127176D01*
Y128009D01*
X928166Y128842D01*
X926500D01*
X925667Y128009D01*
X930665Y123843D02*
X932331D01*
X931498D01*
Y128842D01*
X930665Y128009D01*
X919836Y147843D02*
Y152842D01*
X922335D01*
X923168Y152009D01*
Y150342D01*
X922335Y149509D01*
X919836D01*
X921502D02*
X923168Y147843D01*
X928166D02*
X924834D01*
X928166Y151175D01*
Y152009D01*
X927333Y152842D01*
X925667D01*
X924834Y152009D01*
X929832D02*
X930665Y152842D01*
X932331D01*
X933165Y152009D01*
Y148676D01*
X932331Y147843D01*
X930665D01*
X929832Y148676D01*
Y152009D01*
X833752Y81343D02*
Y86342D01*
X836251D01*
X837084Y85509D01*
Y83842D01*
X836251Y83009D01*
X833752D01*
X835418D02*
X837084Y81343D01*
X838750D02*
X840416D01*
X839584D01*
Y86342D01*
X838750Y85509D01*
X842916Y82176D02*
X843749Y81343D01*
X845415D01*
X846248Y82176D01*
Y85509D01*
X845415Y86342D01*
X843749D01*
X842916Y85509D01*
Y84676D01*
X843749Y83842D01*
X846248D01*
X919502Y161093D02*
Y166092D01*
X922001D01*
X922834Y165259D01*
Y163592D01*
X922001Y162759D01*
X919502D01*
X921168D02*
X922834Y161093D01*
X924500D02*
X926167D01*
X925333D01*
Y166092D01*
X924500Y165259D01*
X928666D02*
X929499Y166092D01*
X931165D01*
X931998Y165259D01*
Y164426D01*
X931165Y163592D01*
X931998Y162759D01*
Y161926D01*
X931165Y161093D01*
X929499D01*
X928666Y161926D01*
Y162759D01*
X929499Y163592D01*
X928666Y164426D01*
Y165259D01*
X929499Y163592D02*
X931165D01*
X879502Y173251D02*
Y178249D01*
X882001D01*
X882834Y177416D01*
Y175750D01*
X882001Y174917D01*
X879502D01*
X881168D02*
X882834Y173251D01*
X884500D02*
X886167D01*
X885333D01*
Y178249D01*
X884500Y177416D01*
X888666Y178249D02*
X891998D01*
Y177416D01*
X888666Y174084D01*
Y173251D01*
X879002Y69843D02*
Y74842D01*
X881501D01*
X882334Y74009D01*
Y72343D01*
X881501Y71509D01*
X879002D01*
X880668D02*
X882334Y69843D01*
X884000D02*
X885667D01*
X884833D01*
Y74842D01*
X884000Y74009D01*
X891498Y74842D02*
X889832Y74009D01*
X888166Y72343D01*
Y70676D01*
X888999Y69843D01*
X890665D01*
X891498Y70676D01*
Y71509D01*
X890665Y72343D01*
X888166D01*
X879252Y81786D02*
Y86784D01*
X881751D01*
X882584Y85951D01*
Y84285D01*
X881751Y83452D01*
X879252D01*
X880918D02*
X882584Y81786D01*
X884250D02*
X885917D01*
X885083D01*
Y86784D01*
X884250Y85951D01*
X891748Y86784D02*
X888416D01*
Y84285D01*
X890082Y85118D01*
X890915D01*
X891748Y84285D01*
Y82619D01*
X890915Y81786D01*
X889249D01*
X888416Y82619D01*
X879252Y94093D02*
Y99092D01*
X881751D01*
X882584Y98259D01*
Y96593D01*
X881751Y95759D01*
X879252D01*
X880918D02*
X882584Y94093D01*
X884250D02*
X885917D01*
X885083D01*
Y99092D01*
X884250Y98259D01*
X890915Y94093D02*
Y99092D01*
X888416Y96593D01*
X891748D01*
X922252Y81343D02*
Y86342D01*
X924751D01*
X925584Y85509D01*
Y83842D01*
X924751Y83009D01*
X922252D01*
X923918D02*
X925584Y81343D01*
X927250D02*
X928916D01*
X928083D01*
Y86342D01*
X927250Y85509D01*
X931416D02*
X932249Y86342D01*
X933915D01*
X934748Y85509D01*
Y84676D01*
X933915Y83842D01*
X933082D01*
X933915D01*
X934748Y83009D01*
Y82176D01*
X933915Y81343D01*
X932249D01*
X931416Y82176D01*
X922502Y93343D02*
Y98342D01*
X925001D01*
X925834Y97509D01*
Y95843D01*
X925001Y95009D01*
X922502D01*
X924168D02*
X925834Y93343D01*
X927500D02*
X929166D01*
X928334D01*
Y98342D01*
X927500Y97509D01*
X934998Y93343D02*
X931666D01*
X934998Y96676D01*
Y97509D01*
X934165Y98342D01*
X932499D01*
X931666Y97509D01*
X838335Y173751D02*
Y178749D01*
X840834D01*
X841667Y177916D01*
Y176250D01*
X840834Y175417D01*
X838335D01*
X840001D02*
X841667Y173751D01*
X843333D02*
X845000D01*
X844166D01*
Y178749D01*
X843333Y177916D01*
X847499Y173751D02*
X849165D01*
X848332D01*
Y178749D01*
X847499Y177916D01*
X837502Y161843D02*
Y166842D01*
X840001D01*
X840834Y166009D01*
Y164342D01*
X840001Y163509D01*
X837502D01*
X839168D02*
X840834Y161843D01*
X842500D02*
X844166D01*
X843333D01*
Y166842D01*
X842500Y166009D01*
X846666D02*
X847499Y166842D01*
X849165D01*
X849998Y166009D01*
Y162676D01*
X849165Y161843D01*
X847499D01*
X846666Y162676D01*
Y166009D01*
X603999Y142335D02*
X599001D01*
Y144834D01*
X599834Y145667D01*
X601500D01*
X602333Y144834D01*
Y142335D01*
Y144001D02*
X603999Y145667D01*
X603166Y147333D02*
X603999Y148166D01*
Y149832D01*
X603166Y150665D01*
X599834D01*
X599001Y149832D01*
Y148166D01*
X599834Y147333D01*
X600667D01*
X601500Y148166D01*
Y150665D01*
X620499Y141335D02*
X615501D01*
Y143834D01*
X616334Y144667D01*
X618000D01*
X618833Y143834D01*
Y141335D01*
Y143001D02*
X620499Y144667D01*
X616334Y146333D02*
X615501Y147166D01*
Y148832D01*
X616334Y149665D01*
X617167D01*
X618000Y148832D01*
X618833Y149665D01*
X619666D01*
X620499Y148832D01*
Y147166D01*
X619666Y146333D01*
X618833D01*
X618000Y147166D01*
X617167Y146333D01*
X616334D01*
X618000Y147166D02*
Y148832D01*
X230372Y363976D02*
Y368974D01*
X232871D01*
X233704Y368141D01*
Y366475D01*
X232871Y365642D01*
X230372D01*
X232038D02*
X233704Y363976D01*
X235370Y368974D02*
X238703D01*
Y368141D01*
X235370Y364809D01*
Y363976D01*
X288792Y364230D02*
Y369228D01*
X291291D01*
X292124Y368395D01*
Y366729D01*
X291291Y365896D01*
X288792D01*
X290458D02*
X292124Y364230D01*
X297123Y369228D02*
X295457Y368395D01*
X293790Y366729D01*
Y365063D01*
X294623Y364230D01*
X296290D01*
X297123Y365063D01*
Y365896D01*
X296290Y366729D01*
X293790D01*
X304286Y363976D02*
Y368974D01*
X306785D01*
X307618Y368141D01*
Y366475D01*
X306785Y365642D01*
X304286D01*
X305952D02*
X307618Y363976D01*
X312617Y368974D02*
X309284D01*
Y366475D01*
X310951Y367308D01*
X311784D01*
X312617Y366475D01*
Y364809D01*
X311784Y363976D01*
X310117D01*
X309284Y364809D01*
X273298Y364230D02*
Y369228D01*
X275797D01*
X276630Y368395D01*
Y366729D01*
X275797Y365896D01*
X273298D01*
X274964D02*
X276630Y364230D01*
X280796D02*
Y369228D01*
X278296Y366729D01*
X281629D01*
X65585Y80001D02*
Y84999D01*
X68084D01*
X68917Y84166D01*
Y82500D01*
X68084Y81667D01*
X65585D01*
X67251D02*
X68917Y80001D01*
X70583Y84166D02*
X71416Y84999D01*
X73082D01*
X73915Y84166D01*
Y83333D01*
X73082Y82500D01*
X72249D01*
X73082D01*
X73915Y81667D01*
Y80834D01*
X73082Y80001D01*
X71416D01*
X70583Y80834D01*
X189085Y82251D02*
Y87249D01*
X191584D01*
X192417Y86416D01*
Y84750D01*
X191584Y83917D01*
X189085D01*
X190751D02*
X192417Y82251D01*
X197415D02*
X194083D01*
X197415Y85583D01*
Y86416D01*
X196582Y87249D01*
X194916D01*
X194083Y86416D01*
X196668Y173743D02*
Y178742D01*
X199167D01*
X200000Y177909D01*
Y176243D01*
X199167Y175410D01*
X196668D01*
X198334D02*
X200000Y173743D01*
X201666D02*
X203332D01*
X202499D01*
Y178742D01*
X201666Y177909D01*
X732250Y173584D02*
Y176916D01*
X731417Y177749D01*
X729751D01*
X728918Y176916D01*
Y173584D01*
X729751Y172751D01*
X731417D01*
X730584Y174417D02*
X732250Y172751D01*
X731417D02*
X732250Y173584D01*
X733916Y172751D02*
X735582D01*
X734749D01*
Y177749D01*
X733916Y176916D01*
X766560Y150008D02*
Y155007D01*
X769059D01*
X769892Y154174D01*
Y152507D01*
X769059Y151674D01*
X766560D01*
X771558Y150008D02*
X773224D01*
X772391D01*
Y155007D01*
X771558Y154174D01*
X775723D02*
X776556Y155007D01*
X778222D01*
X779055Y154174D01*
Y150841D01*
X778222Y150008D01*
X776556D01*
X775723Y150841D01*
Y154174D01*
X944112Y155442D02*
Y160440D01*
X946611D01*
X947444Y159607D01*
Y157941D01*
X946611Y157108D01*
X944112D01*
X949110Y156275D02*
X949943Y155442D01*
X951610D01*
X952443Y156275D01*
Y159607D01*
X951610Y160440D01*
X949943D01*
X949110Y159607D01*
Y158774D01*
X949943Y157941D01*
X952443D01*
X743835Y39908D02*
Y44907D01*
X746334D01*
X747167Y44074D01*
Y42407D01*
X746334Y41574D01*
X743835D01*
X748833Y44074D02*
X749666Y44907D01*
X751332D01*
X752165Y44074D01*
Y43240D01*
X751332Y42407D01*
X752165Y41574D01*
Y40741D01*
X751332Y39908D01*
X749666D01*
X748833Y40741D01*
Y41574D01*
X749666Y42407D01*
X748833Y43240D01*
Y44074D01*
X749666Y42407D02*
X751332D01*
X22346Y335020D02*
Y340018D01*
X24845D01*
X25678Y339185D01*
Y337519D01*
X24845Y336686D01*
X22346D01*
X27344Y340018D02*
X30677D01*
Y339185D01*
X27344Y335853D01*
Y335020D01*
X591335Y448251D02*
Y453249D01*
X593834D01*
X594667Y452416D01*
Y450750D01*
X593834Y449917D01*
X591335D01*
X599665Y453249D02*
X597999Y452416D01*
X596333Y450750D01*
Y449084D01*
X597166Y448251D01*
X598832D01*
X599665Y449084D01*
Y449917D01*
X598832Y450750D01*
X596333D01*
X661085Y15501D02*
Y20499D01*
X663584D01*
X664417Y19666D01*
Y18000D01*
X663584Y17167D01*
X661085D01*
X669415Y20499D02*
X666083D01*
Y18000D01*
X667749Y18833D01*
X668582D01*
X669415Y18000D01*
Y16334D01*
X668582Y15501D01*
X666916D01*
X666083Y16334D01*
X66585Y68501D02*
Y73499D01*
X69084D01*
X69917Y72666D01*
Y71000D01*
X69084Y70167D01*
X66585D01*
X74082Y68501D02*
Y73499D01*
X71583Y71000D01*
X74915D01*
X189585Y55751D02*
Y60749D01*
X192084D01*
X192917Y59916D01*
Y58250D01*
X192084Y57417D01*
X189585D01*
X194583Y59916D02*
X195416Y60749D01*
X197082D01*
X197915Y59916D01*
Y59083D01*
X197082Y58250D01*
X196249D01*
X197082D01*
X197915Y57417D01*
Y56584D01*
X197082Y55751D01*
X195416D01*
X194583Y56584D01*
X3296Y408680D02*
Y413678D01*
X5795D01*
X6628Y412845D01*
Y411179D01*
X5795Y410346D01*
X3296D01*
X11627Y408680D02*
X8294D01*
X11627Y412012D01*
Y412845D01*
X10794Y413678D01*
X9127D01*
X8294Y412845D01*
X411668Y81751D02*
Y86749D01*
X414167D01*
X415000Y85916D01*
Y84250D01*
X414167Y83417D01*
X411668D01*
X416666Y81751D02*
X418332D01*
X417499D01*
Y86749D01*
X416666Y85916D01*
X433419Y89749D02*
X431753D01*
X430919Y88916D01*
Y85584D01*
X431753Y84751D01*
X433419D01*
X434252Y85584D01*
Y88916D01*
X433419Y89749D01*
X439250Y88916D02*
X438417Y89749D01*
X436751D01*
X435918Y88916D01*
Y88083D01*
X436751Y87250D01*
X438417D01*
X439250Y86417D01*
Y85584D01*
X438417Y84751D01*
X436751D01*
X435918Y85584D01*
X444248Y88916D02*
X443415Y89749D01*
X441749D01*
X440916Y88916D01*
Y85584D01*
X441749Y84751D01*
X443415D01*
X444248Y85584D01*
X445914Y84751D02*
X447581D01*
X446748D01*
Y89749D01*
X445914Y88916D01*
X71085Y458501D02*
Y463499D01*
X72751Y461833D01*
X74417Y463499D01*
Y458501D01*
X78582D02*
Y463499D01*
X76083Y461000D01*
X79415D01*
X919335Y469251D02*
Y474249D01*
X921001Y472583D01*
X922667Y474249D01*
Y469251D01*
X924333Y473416D02*
X925166Y474249D01*
X926832D01*
X927665Y473416D01*
Y472583D01*
X926832Y471750D01*
X925999D01*
X926832D01*
X927665Y470917D01*
Y470084D01*
X926832Y469251D01*
X925166D01*
X924333Y470084D01*
X925335Y54501D02*
Y59499D01*
X927001Y57833D01*
X928667Y59499D01*
Y54501D01*
X933665D02*
X930333D01*
X933665Y57833D01*
Y58666D01*
X932832Y59499D01*
X931166D01*
X930333Y58666D01*
X3918Y62751D02*
Y67749D01*
X5584Y66083D01*
X7250Y67749D01*
Y62751D01*
X8916D02*
X10582D01*
X9749D01*
Y67749D01*
X8916Y66916D01*
X636085Y414749D02*
Y409751D01*
X639417D01*
X641083Y413916D02*
X641916Y414749D01*
X643582D01*
X644415Y413916D01*
Y413083D01*
X643582Y412250D01*
X642749D01*
X643582D01*
X644415Y411417D01*
Y410584D01*
X643582Y409751D01*
X641916D01*
X641083Y410584D01*
X773932Y370752D02*
Y365754D01*
X777264D01*
X782263D02*
X778930D01*
X782263Y369086D01*
Y369919D01*
X781430Y370752D01*
X779763D01*
X778930Y369919D01*
X670046Y383706D02*
Y378708D01*
X673378D01*
X675044D02*
X676711D01*
X675877D01*
Y383706D01*
X675044Y382873D01*
X218210Y369228D02*
X216544D01*
X217377D01*
Y365063D01*
X216544Y364230D01*
X215711D01*
X214878Y365063D01*
X222376Y364230D02*
Y369228D01*
X219876Y366729D01*
X223209D01*
X323366Y368466D02*
X321700D01*
X322533D01*
Y364301D01*
X321700Y363468D01*
X320867D01*
X320034Y364301D01*
X325032Y367633D02*
X325865Y368466D01*
X327532D01*
X328365Y367633D01*
Y366800D01*
X327532Y365967D01*
X326698D01*
X327532D01*
X328365Y365134D01*
Y364301D01*
X327532Y363468D01*
X325865D01*
X325032Y364301D01*
X7251Y258917D02*
Y257251D01*
Y258084D01*
X11416D01*
X12249Y257251D01*
Y256418D01*
X11416Y255585D01*
X12249Y263915D02*
Y260583D01*
X8917Y263915D01*
X8084D01*
X7251Y263082D01*
Y261416D01*
X8084Y260583D01*
X6751Y109250D02*
Y107584D01*
Y108417D01*
X10916D01*
X11749Y107584D01*
Y106751D01*
X10916Y105918D01*
X11749Y110916D02*
Y112582D01*
Y111749D01*
X6751D01*
X7584Y110916D01*
X758252Y273249D02*
X759918D01*
X759085D01*
Y268251D01*
X758252D01*
X759918D01*
X765750Y272416D02*
X764917Y273249D01*
X763250D01*
X762417Y272416D01*
Y269084D01*
X763250Y268251D01*
X764917D01*
X765750Y269084D01*
X767416Y272416D02*
X768249Y273249D01*
X769915D01*
X770748Y272416D01*
Y271583D01*
X769915Y270750D01*
X770748Y269917D01*
Y269084D01*
X769915Y268251D01*
X768249D01*
X767416Y269084D01*
Y269917D01*
X768249Y270750D01*
X767416Y271583D01*
Y272416D01*
X768249Y270750D02*
X769915D01*
X864252Y147999D02*
X865918D01*
X865085D01*
Y143001D01*
X864252D01*
X865918D01*
X871750Y147166D02*
X870917Y147999D01*
X869250D01*
X868417Y147166D01*
Y143834D01*
X869250Y143001D01*
X870917D01*
X871750Y143834D01*
X873416Y147999D02*
X876748D01*
Y147166D01*
X873416Y143834D01*
Y143001D01*
X508502Y222670D02*
X510168D01*
X509335D01*
Y217672D01*
X508502D01*
X510168D01*
X516000Y221837D02*
X515167Y222670D01*
X513500D01*
X512667Y221837D01*
Y218505D01*
X513500Y217672D01*
X515167D01*
X516000Y218505D01*
X520998Y222670D02*
X519332Y221837D01*
X517666Y220171D01*
Y218505D01*
X518499Y217672D01*
X520165D01*
X520998Y218505D01*
Y219338D01*
X520165Y220171D01*
X517666D01*
X411220Y216066D02*
X412886D01*
X412053D01*
Y211068D01*
X411220D01*
X412886D01*
X418718Y215233D02*
X417884Y216066D01*
X416218D01*
X415385Y215233D01*
Y211901D01*
X416218Y211068D01*
X417884D01*
X418718Y211901D01*
X423716Y216066D02*
X420384D01*
Y213567D01*
X422050Y214400D01*
X422883D01*
X423716Y213567D01*
Y211901D01*
X422883Y211068D01*
X421217D01*
X420384Y211901D01*
X538982Y82462D02*
X540648D01*
X539815D01*
Y77464D01*
X538982D01*
X540648D01*
X546480Y81629D02*
X545647Y82462D01*
X543980D01*
X543147Y81629D01*
Y78297D01*
X543980Y77464D01*
X545647D01*
X546480Y78297D01*
X548146Y81629D02*
X548979Y82462D01*
X550645D01*
X551478Y81629D01*
Y80796D01*
X550645Y79963D01*
X549812D01*
X550645D01*
X551478Y79130D01*
Y78297D01*
X550645Y77464D01*
X548979D01*
X548146Y78297D01*
X55874Y227496D02*
X57540D01*
X56707D01*
Y222498D01*
X55874D01*
X57540D01*
X63372Y226663D02*
X62538Y227496D01*
X60872D01*
X60039Y226663D01*
Y223331D01*
X60872Y222498D01*
X62538D01*
X63372Y223331D01*
X68370Y222498D02*
X65038D01*
X68370Y225830D01*
Y226663D01*
X67537Y227496D01*
X65871D01*
X65038Y226663D01*
X198368Y230798D02*
X200034D01*
X199201D01*
Y225800D01*
X198368D01*
X200034D01*
X205866Y229965D02*
X205033Y230798D01*
X203366D01*
X202533Y229965D01*
Y226633D01*
X203366Y225800D01*
X205033D01*
X205866Y226633D01*
X207532Y225800D02*
X209198D01*
X208365D01*
Y230798D01*
X207532Y229965D01*
X635835Y358499D02*
Y353501D01*
X638334D01*
X639167Y354334D01*
Y357666D01*
X638334Y358499D01*
X635835D01*
X643332Y353501D02*
Y358499D01*
X640833Y356000D01*
X644165D01*
X596085Y358249D02*
Y353251D01*
X598584D01*
X599417Y354084D01*
Y357416D01*
X598584Y358249D01*
X596085D01*
X601083Y357416D02*
X601916Y358249D01*
X603582D01*
X604415Y357416D01*
Y356583D01*
X603582Y355750D01*
X602749D01*
X603582D01*
X604415Y354917D01*
Y354084D01*
X603582Y353251D01*
X601916D01*
X601083Y354084D01*
X142585Y85549D02*
Y80551D01*
X145084D01*
X145917Y81384D01*
Y84716D01*
X145084Y85549D01*
X142585D01*
X150915Y80551D02*
X147583D01*
X150915Y83883D01*
Y84716D01*
X150082Y85549D01*
X148416D01*
X147583Y84716D01*
X269168Y85549D02*
Y80551D01*
X271667D01*
X272500Y81384D01*
Y84716D01*
X271667Y85549D01*
X269168D01*
X274166Y80551D02*
X275832D01*
X274999D01*
Y85549D01*
X274166Y84716D01*
X734419Y324916D02*
X733586Y325749D01*
X731920D01*
X731087Y324916D01*
Y321584D01*
X731920Y320751D01*
X733586D01*
X734419Y321584D01*
X739418Y324916D02*
X738585Y325749D01*
X736919D01*
X736086Y324916D01*
Y324083D01*
X736919Y323250D01*
X738585D01*
X739418Y322417D01*
Y321584D01*
X738585Y320751D01*
X736919D01*
X736086Y321584D01*
X741084Y325749D02*
X744416D01*
X742750D01*
Y320751D01*
X748581Y325749D02*
X746915D01*
X746082Y324916D01*
Y321584D01*
X746915Y320751D01*
X748581D01*
X749415Y321584D01*
Y324916D01*
X748581Y325749D01*
X751081Y320751D02*
Y325749D01*
X753580D01*
X754413Y324916D01*
Y323250D01*
X753580Y322417D01*
X751081D01*
X752747D02*
X754413Y320751D01*
X652169Y261666D02*
X651336Y262499D01*
X649669D01*
X648836Y261666D01*
Y258334D01*
X649669Y257501D01*
X651336D01*
X652169Y258334D01*
X653835Y257501D02*
Y262499D01*
X656334D01*
X657167Y261666D01*
Y260000D01*
X656334Y259167D01*
X653835D01*
X655501D02*
X657167Y257501D01*
X662165Y262499D02*
X658833D01*
Y257501D01*
X662165D01*
X658833Y260000D02*
X660499D01*
X667164Y262499D02*
X663831D01*
Y260000D01*
X665498D01*
X663831D01*
Y257501D01*
X808419Y312916D02*
X807586Y313749D01*
X805919D01*
X805086Y312916D01*
Y309584D01*
X805919Y308751D01*
X807586D01*
X808419Y309584D01*
X812584Y313749D02*
X810918D01*
X810085Y312916D01*
Y309584D01*
X810918Y308751D01*
X812584D01*
X813417Y309584D01*
Y312916D01*
X812584Y313749D01*
X815083D02*
Y309584D01*
X815916Y308751D01*
X817582D01*
X818415Y309584D01*
Y313749D01*
X820081D02*
X823414D01*
X821748D01*
Y308751D01*
X655084Y299416D02*
X654251Y300249D01*
X652585D01*
X651752Y299416D01*
Y296084D01*
X652585Y295251D01*
X654251D01*
X655084Y296084D01*
X656750Y300249D02*
X658417D01*
X657583D01*
Y295251D01*
X656750D01*
X658417D01*
X660916D02*
Y300249D01*
X664248Y295251D01*
Y300249D01*
X736169Y359416D02*
X735335Y360249D01*
X733669D01*
X732836Y359416D01*
Y356084D01*
X733669Y355251D01*
X735335D01*
X736169Y356084D01*
X737835Y360249D02*
Y355251D01*
X740334D01*
X741167Y356084D01*
Y356917D01*
X740334Y357750D01*
X737835D01*
X740334D01*
X741167Y358583D01*
Y359416D01*
X740334Y360249D01*
X737835D01*
X742833D02*
Y359416D01*
X744499Y357750D01*
X746165Y359416D01*
Y360249D01*
X744499Y357750D02*
Y355251D01*
X747831D02*
Y360249D01*
X750331D01*
X751164Y359416D01*
Y357750D01*
X750331Y356917D01*
X747831D01*
X773334Y429920D02*
X772501Y429087D01*
Y427421D01*
X773334Y426588D01*
X776666D01*
X777499Y427421D01*
Y429087D01*
X776666Y429920D01*
X772501Y431586D02*
X777499D01*
Y434086D01*
X776666Y434919D01*
X775833D01*
X775000Y434086D01*
Y431586D01*
Y434086D01*
X774167Y434919D01*
X773334D01*
X772501Y434086D01*
Y431586D01*
X777499Y436585D02*
X774167D01*
X772501Y438251D01*
X774167Y439917D01*
X777499D01*
X775000D01*
Y436585D01*
X772501Y441583D02*
Y444915D01*
Y443249D01*
X777499D01*
X772501Y446581D02*
Y449914D01*
Y448247D01*
X777499D01*
X773334Y451580D02*
X772501Y452413D01*
Y454079D01*
X773334Y454912D01*
X774167D01*
X775000Y454079D01*
Y453246D01*
Y454079D01*
X775833Y454912D01*
X776666D01*
X777499Y454079D01*
Y452413D01*
X776666Y451580D01*
X747834Y428420D02*
X747001Y427587D01*
Y425921D01*
X747834Y425088D01*
X751166D01*
X751999Y425921D01*
Y427587D01*
X751166Y428420D01*
X747001Y430086D02*
X751999D01*
Y432585D01*
X751166Y433419D01*
X750333D01*
X749500Y432585D01*
Y430086D01*
Y432585D01*
X748667Y433419D01*
X747834D01*
X747001Y432585D01*
Y430086D01*
X751999Y435085D02*
X748667D01*
X747001Y436751D01*
X748667Y438417D01*
X751999D01*
X749500D01*
Y435085D01*
X747001Y440083D02*
Y443415D01*
Y441749D01*
X751999D01*
X747001Y445081D02*
Y448414D01*
Y446748D01*
X751999D01*
Y453412D02*
Y450080D01*
X748667Y453412D01*
X747834D01*
X747001Y452579D01*
Y450913D01*
X747834Y450080D01*
X724084Y428503D02*
X723251Y427670D01*
Y426004D01*
X724084Y425171D01*
X727416D01*
X728249Y426004D01*
Y427670D01*
X727416Y428503D01*
X723251Y430169D02*
X728249D01*
Y432669D01*
X727416Y433502D01*
X726583D01*
X725750Y432669D01*
Y430169D01*
Y432669D01*
X724917Y433502D01*
X724084D01*
X723251Y432669D01*
Y430169D01*
X728249Y435168D02*
X724917D01*
X723251Y436834D01*
X724917Y438500D01*
X728249D01*
X725750D01*
Y435168D01*
X723251Y440166D02*
Y443498D01*
Y441832D01*
X728249D01*
X723251Y445164D02*
Y448497D01*
Y446831D01*
X728249D01*
Y450163D02*
Y451829D01*
Y450996D01*
X723251D01*
X724084Y450163D01*
X809584Y137509D02*
X808751Y138342D01*
X807085D01*
X806252Y137509D01*
Y134176D01*
X807085Y133343D01*
X808751D01*
X809584Y134176D01*
X811250Y133343D02*
X812916D01*
X812084D01*
Y138342D01*
X811250Y137509D01*
X815416D02*
X816249Y138342D01*
X817915D01*
X818748Y137509D01*
Y136676D01*
X817915Y135843D01*
X818748Y135009D01*
Y134176D01*
X817915Y133343D01*
X816249D01*
X815416Y134176D01*
Y135009D01*
X816249Y135843D01*
X815416Y136676D01*
Y137509D01*
X816249Y135843D02*
X817915D01*
X923084Y139009D02*
X922251Y139842D01*
X920585D01*
X919752Y139009D01*
Y135676D01*
X920585Y134843D01*
X922251D01*
X923084Y135676D01*
X924750Y134843D02*
X926416D01*
X925583D01*
Y139842D01*
X924750Y139009D01*
X928916Y139842D02*
X932248D01*
Y139009D01*
X928916Y135676D01*
Y134843D01*
X837334Y73509D02*
X836501Y74342D01*
X834835D01*
X834002Y73509D01*
Y70176D01*
X834835Y69343D01*
X836501D01*
X837334Y70176D01*
X839000Y69343D02*
X840667D01*
X839833D01*
Y74342D01*
X839000Y73509D01*
X846498Y74342D02*
X844832Y73509D01*
X843166Y71842D01*
Y70176D01*
X843999Y69343D01*
X845665D01*
X846498Y70176D01*
Y71009D01*
X845665Y71842D01*
X843166D01*
X882834Y163759D02*
X882001Y164592D01*
X880335D01*
X879502Y163759D01*
Y160426D01*
X880335Y159593D01*
X882001D01*
X882834Y160426D01*
X884500Y159593D02*
X886167D01*
X885333D01*
Y164592D01*
X884500Y163759D01*
X891998Y164592D02*
X888666D01*
Y162092D01*
X890332Y162925D01*
X891165D01*
X891998Y162092D01*
Y160426D01*
X891165Y159593D01*
X889499D01*
X888666Y160426D01*
X798334Y153166D02*
X797501Y153999D01*
X795835D01*
X795002Y153166D01*
Y149834D01*
X795835Y149001D01*
X797501D01*
X798334Y149834D01*
X800000Y149001D02*
X801666D01*
X800834D01*
Y153999D01*
X800000Y153166D01*
X806665Y149001D02*
Y153999D01*
X804166Y151500D01*
X807498D01*
X479834Y188666D02*
X479001Y189499D01*
X477335D01*
X476502Y188666D01*
Y185334D01*
X477335Y184501D01*
X479001D01*
X479834Y185334D01*
X481500Y184501D02*
X483167D01*
X482333D01*
Y189499D01*
X481500Y188666D01*
X485666D02*
X486499Y189499D01*
X488165D01*
X488998Y188666D01*
Y187833D01*
X488165Y187000D01*
X487332D01*
X488165D01*
X488998Y186167D01*
Y185334D01*
X488165Y184501D01*
X486499D01*
X485666Y185334D01*
X840834Y189166D02*
X840001Y189999D01*
X838335D01*
X837502Y189166D01*
Y185834D01*
X838335Y185001D01*
X840001D01*
X840834Y185834D01*
X842500Y185001D02*
X844166D01*
X843333D01*
Y189999D01*
X842500Y189166D01*
X849998Y185001D02*
X846666D01*
X849998Y188333D01*
Y189166D01*
X849165Y189999D01*
X847499D01*
X846666Y189166D01*
X452167Y199416D02*
X451334Y200249D01*
X449668D01*
X448835Y199416D01*
Y196084D01*
X449668Y195251D01*
X451334D01*
X452167Y196084D01*
X453834Y195251D02*
X455500D01*
X454666D01*
Y200249D01*
X453834Y199416D01*
X457999Y195251D02*
X459665D01*
X458832D01*
Y200249D01*
X457999Y199416D01*
X253834Y354416D02*
X253001Y355249D01*
X251335D01*
X250502Y354416D01*
Y351084D01*
X251335Y350251D01*
X253001D01*
X253834Y351084D01*
X255500Y350251D02*
X257167D01*
X256334D01*
Y355249D01*
X255500Y354416D01*
X259666D02*
X260499Y355249D01*
X262165D01*
X262998Y354416D01*
Y351084D01*
X262165Y350251D01*
X260499D01*
X259666Y351084D01*
Y354416D01*
X638917Y428416D02*
X638084Y429249D01*
X636418D01*
X635585Y428416D01*
Y425084D01*
X636418Y424251D01*
X638084D01*
X638917Y425084D01*
X640583D02*
X641416Y424251D01*
X643082D01*
X643915Y425084D01*
Y428416D01*
X643082Y429249D01*
X641416D01*
X640583Y428416D01*
Y427583D01*
X641416Y426750D01*
X643915D01*
X23167Y239416D02*
X22334Y240249D01*
X20668D01*
X19835Y239416D01*
Y236084D01*
X20668Y235251D01*
X22334D01*
X23167Y236084D01*
X24833Y239416D02*
X25666Y240249D01*
X27332D01*
X28165Y239416D01*
Y238583D01*
X27332Y237750D01*
X28165Y236917D01*
Y236084D01*
X27332Y235251D01*
X25666D01*
X24833Y236084D01*
Y236917D01*
X25666Y237750D01*
X24833Y238583D01*
Y239416D01*
X25666Y237750D02*
X27332D01*
X570917Y85916D02*
X570084Y86749D01*
X568418D01*
X567585Y85916D01*
Y82584D01*
X568418Y81751D01*
X570084D01*
X570917Y82584D01*
X572583Y86749D02*
X575915D01*
Y85916D01*
X572583Y82584D01*
Y81751D01*
X17167Y189166D02*
X16334Y189999D01*
X14668D01*
X13835Y189166D01*
Y185834D01*
X14668Y185001D01*
X16334D01*
X17167Y185834D01*
X22165Y189999D02*
X20499Y189166D01*
X18833Y187500D01*
Y185834D01*
X19666Y185001D01*
X21332D01*
X22165Y185834D01*
Y186667D01*
X21332Y187500D01*
X18833D01*
X17167Y200666D02*
X16334Y201499D01*
X14668D01*
X13835Y200666D01*
Y197334D01*
X14668Y196501D01*
X16334D01*
X17167Y197334D01*
X22165Y201499D02*
X18833D01*
Y199000D01*
X20499Y199833D01*
X21332D01*
X22165Y199000D01*
Y197334D01*
X21332Y196501D01*
X19666D01*
X18833Y197334D01*
X17667Y212666D02*
X16834Y213499D01*
X15168D01*
X14335Y212666D01*
Y209334D01*
X15168Y208501D01*
X16834D01*
X17667Y209334D01*
X21832Y208501D02*
Y213499D01*
X19333Y211000D01*
X22665D01*
X246150Y224123D02*
X245317Y224956D01*
X243651D01*
X242818Y224123D01*
Y220791D01*
X243651Y219958D01*
X245317D01*
X246150Y220791D01*
X247816Y224123D02*
X248649Y224956D01*
X250316D01*
X251149Y224123D01*
Y223290D01*
X250316Y222457D01*
X249482D01*
X250316D01*
X251149Y221624D01*
Y220791D01*
X250316Y219958D01*
X248649D01*
X247816Y220791D01*
X186206Y223615D02*
X185373Y224448D01*
X183707D01*
X182874Y223615D01*
Y220283D01*
X183707Y219450D01*
X185373D01*
X186206Y220283D01*
X191205Y219450D02*
X187872D01*
X191205Y222782D01*
Y223615D01*
X190372Y224448D01*
X188705D01*
X187872Y223615D01*
X442750Y66416D02*
X441917Y67249D01*
X440251D01*
X439418Y66416D01*
Y63084D01*
X440251Y62251D01*
X441917D01*
X442750Y63084D01*
X444416Y62251D02*
X446082D01*
X445249D01*
Y67249D01*
X444416Y66416D01*
M02*
