G04*
G04 #@! TF.GenerationSoftware,Altium Limited,Altium Designer,21.6.4 (81)*
G04*
G04 Layer_Physical_Order=1*
G04 Layer_Color=255*
%FSLAX44Y44*%
%MOMM*%
G71*
G04*
G04 #@! TF.SameCoordinates,B5D7AA2C-AE02-420C-9FE3-D908FE65D14F*
G04*
G04*
G04 #@! TF.FilePolarity,Positive*
G04*
G01*
G75*
%ADD10C,0.2000*%
%ADD12C,0.1524*%
%ADD14R,0.8300X0.9400*%
%ADD15R,1.0500X0.6000*%
%ADD16R,0.9400X0.8300*%
%ADD17R,0.4500X0.4700*%
%ADD18R,1.9200X1.2200*%
%ADD19R,0.9000X0.3000*%
%ADD20R,0.3000X0.9000*%
%ADD21R,2.1500X2.1500*%
%ADD22R,0.6000X0.8500*%
%ADD23C,0.2080*%
%ADD24R,1.8000X2.0000*%
%ADD25R,0.8000X0.8000*%
%ADD26R,1.3970X0.4318*%
%ADD27R,1.2000X0.6000*%
%ADD28R,0.6000X1.0500*%
%ADD29R,1.5260X0.6500*%
%ADD30R,1.3000X3.4000*%
%ADD50C,0.2000*%
%ADD55R,0.8000X4.3000*%
%ADD56C,0.1016*%
%ADD57C,0.2540*%
%ADD58C,0.5000*%
%ADD59C,1.6000*%
G04:AMPARAMS|DCode=60|XSize=1.6mm|YSize=1.6mm|CornerRadius=0.4mm|HoleSize=0mm|Usage=FLASHONLY|Rotation=0.000|XOffset=0mm|YOffset=0mm|HoleType=Round|Shape=RoundedRectangle|*
%AMROUNDEDRECTD60*
21,1,1.6000,0.8000,0,0,0.0*
21,1,0.8000,1.6000,0,0,0.0*
1,1,0.8000,0.4000,-0.4000*
1,1,0.8000,-0.4000,-0.4000*
1,1,0.8000,-0.4000,0.4000*
1,1,0.8000,0.4000,0.4000*
%
%ADD60ROUNDEDRECTD60*%
G04:AMPARAMS|DCode=61|XSize=1.6mm|YSize=1.6mm|CornerRadius=0.4mm|HoleSize=0mm|Usage=FLASHONLY|Rotation=90.000|XOffset=0mm|YOffset=0mm|HoleType=Round|Shape=RoundedRectangle|*
%AMROUNDEDRECTD61*
21,1,1.6000,0.8000,0,0,90.0*
21,1,0.8000,1.6000,0,0,90.0*
1,1,0.8000,0.4000,0.4000*
1,1,0.8000,0.4000,-0.4000*
1,1,0.8000,-0.4000,-0.4000*
1,1,0.8000,-0.4000,0.4000*
%
%ADD61ROUNDEDRECTD61*%
%ADD62C,1.5200*%
G04:AMPARAMS|DCode=63|XSize=1.52mm|YSize=1.52mm|CornerRadius=0.38mm|HoleSize=0mm|Usage=FLASHONLY|Rotation=180.000|XOffset=0mm|YOffset=0mm|HoleType=Round|Shape=RoundedRectangle|*
%AMROUNDEDRECTD63*
21,1,1.5200,0.7600,0,0,180.0*
21,1,0.7600,1.5200,0,0,180.0*
1,1,0.7600,-0.3800,0.3800*
1,1,0.7600,0.3800,0.3800*
1,1,0.7600,0.3800,-0.3800*
1,1,0.7600,-0.3800,-0.3800*
%
%ADD63ROUNDEDRECTD63*%
%ADD64C,0.6000*%
G36*
X955408Y478991D02*
X950930Y477916D01*
X946674Y476153D01*
X942747Y473747D01*
X939245Y470755D01*
X936253Y467253D01*
X933847Y463326D01*
X932084Y459070D01*
X931009Y454592D01*
X930648Y450000D01*
X931009Y445408D01*
X932084Y440930D01*
X933847Y436674D01*
X936253Y432747D01*
X939245Y429245D01*
X942747Y426253D01*
X946674Y423847D01*
X950930Y422084D01*
X955408Y421009D01*
X960000Y420648D01*
X964592Y421009D01*
X969070Y422084D01*
X973326Y423847D01*
X977253Y426253D01*
X980755Y429245D01*
X983747Y432747D01*
X986153Y436674D01*
X987916Y440930D01*
X988991Y445408D01*
X990250Y445294D01*
Y34706D01*
X988991Y34592D01*
X987916Y39070D01*
X986153Y43326D01*
X983747Y47253D01*
X980755Y50755D01*
X977253Y53747D01*
X973326Y56153D01*
X969070Y57916D01*
X964592Y58991D01*
X960000Y59352D01*
X955408Y58991D01*
X950930Y57916D01*
X946674Y56153D01*
X942747Y53747D01*
X939245Y50755D01*
X936253Y47253D01*
X933847Y43326D01*
X932084Y39070D01*
X931009Y34592D01*
X930648Y30000D01*
X931009Y25408D01*
X932084Y20930D01*
X933847Y16674D01*
X936253Y12747D01*
X939245Y9245D01*
X942747Y6253D01*
X946674Y3847D01*
X950930Y2084D01*
X954321Y1270D01*
X954170Y0D01*
X658500D01*
Y94000D01*
X566631D01*
X565998Y94262D01*
X564502D01*
X563869Y94000D01*
X551599D01*
X544426Y101173D01*
X544644Y101882D01*
X545007Y102388D01*
X547001D01*
X549128Y102958D01*
X551034Y104059D01*
X552591Y105616D01*
X553692Y107522D01*
X554262Y109649D01*
Y111851D01*
X553692Y113978D01*
X552591Y115884D01*
X551034Y117441D01*
X549128Y118542D01*
X547001Y119112D01*
X544799D01*
X542672Y118542D01*
X540766Y117441D01*
X539209Y115884D01*
X538108Y113978D01*
X537658Y112299D01*
X536555Y111874D01*
X536280Y111881D01*
X511446Y136715D01*
X510774Y137164D01*
X509981Y137322D01*
X509981Y137322D01*
X450108D01*
X436562Y150868D01*
Y152260D01*
X436562Y152260D01*
X436404Y153053D01*
X435955Y153725D01*
X435955Y153725D01*
X421762Y167918D01*
Y174132D01*
X422935Y174618D01*
X428018Y169535D01*
X428018Y169535D01*
X428690Y169086D01*
X429483Y168928D01*
X433238D01*
Y164988D01*
X440762D01*
Y168928D01*
X448538D01*
Y166738D01*
X459462D01*
Y176562D01*
X448538D01*
Y173072D01*
X440762D01*
Y177012D01*
X433238D01*
Y173072D01*
X430341D01*
X423412Y180001D01*
X422740Y180450D01*
X421947Y180608D01*
X421947Y180608D01*
X414053D01*
X413260Y180450D01*
X412588Y180001D01*
X412588Y180001D01*
X407549Y174962D01*
X407100Y174290D01*
X406942Y173497D01*
X406942Y173497D01*
Y72828D01*
X406942Y72828D01*
X407100Y72035D01*
X407549Y71363D01*
X409160Y69752D01*
X407989Y68580D01*
X406835Y66582D01*
X406238Y64353D01*
Y62046D01*
X406835Y59818D01*
X407989Y57820D01*
X409620Y56189D01*
X411618Y55035D01*
X413847Y54438D01*
X416153D01*
X418382Y55035D01*
X420380Y56189D01*
X422011Y57820D01*
X423165Y59818D01*
X423762Y62046D01*
Y64282D01*
X428154Y68674D01*
X435283D01*
X436180Y67775D01*
X436157Y59262D01*
X436045D01*
Y49438D01*
X436045D01*
X436131Y49353D01*
X436069Y26322D01*
X429408D01*
X423536Y32194D01*
X423855Y33800D01*
Y41800D01*
X423486Y43658D01*
X422433Y45233D01*
X420858Y46286D01*
X419000Y46655D01*
X411000D01*
X409142Y46286D01*
X407567Y45233D01*
X406514Y43658D01*
X406145Y41800D01*
Y33800D01*
X406514Y31942D01*
X407567Y30367D01*
X409142Y29314D01*
X411000Y28945D01*
X419000D01*
X420606Y29264D01*
X427085Y22785D01*
X427085Y22785D01*
X427757Y22336D01*
X428550Y22178D01*
X435159D01*
X436055Y21279D01*
X435999Y0D01*
X35830D01*
X35679Y1270D01*
X39070Y2084D01*
X43326Y3847D01*
X47253Y6253D01*
X50755Y9245D01*
X53747Y12747D01*
X56153Y16674D01*
X57916Y20930D01*
X58991Y25408D01*
X59352Y30000D01*
X58991Y34592D01*
X57916Y39070D01*
X56153Y43326D01*
X53747Y47253D01*
X50755Y50755D01*
X47253Y53747D01*
X43326Y56153D01*
X39070Y57916D01*
X34592Y58991D01*
X30000Y59352D01*
X25408Y58991D01*
X20930Y57916D01*
X16674Y56153D01*
X12747Y53747D01*
X9245Y50755D01*
X6253Y47253D01*
X3847Y43326D01*
X2084Y39070D01*
X1270Y35679D01*
X0Y35830D01*
Y444170D01*
X1270Y444321D01*
X2084Y440930D01*
X3847Y436674D01*
X6253Y432747D01*
X9245Y429245D01*
X12747Y426253D01*
X16674Y423847D01*
X20930Y422084D01*
X25408Y421009D01*
X30000Y420648D01*
X34592Y421009D01*
X39070Y422084D01*
X43326Y423847D01*
X47253Y426253D01*
X50755Y429245D01*
X53747Y432747D01*
X56153Y436674D01*
X57916Y440930D01*
X58991Y445408D01*
X59352Y450000D01*
X58991Y454592D01*
X57916Y459070D01*
X56153Y463326D01*
X53747Y467253D01*
X50755Y470755D01*
X47253Y473747D01*
X43326Y476153D01*
X39070Y477916D01*
X34592Y478991D01*
X34706Y480250D01*
X955294D01*
X955408Y478991D01*
D02*
G37*
G36*
X414238Y174132D02*
Y164988D01*
X418832D01*
X432418Y151402D01*
Y150010D01*
X432418Y150010D01*
X432576Y149217D01*
X433025Y148545D01*
X447785Y133785D01*
X447785Y133785D01*
X448457Y133336D01*
X449250Y133178D01*
X509123D01*
X521974Y120327D01*
X521756Y119618D01*
X521393Y119112D01*
X519399D01*
X517272Y118542D01*
X515366Y117441D01*
X513809Y115884D01*
X512708Y113978D01*
X512138Y111851D01*
Y109649D01*
X512708Y107522D01*
X513809Y105616D01*
X515366Y104059D01*
X517272Y102958D01*
X519399Y102388D01*
X521601D01*
X523728Y102958D01*
X525634Y104059D01*
X527191Y105616D01*
X528292Y107522D01*
X528862Y109649D01*
Y111643D01*
X529368Y112006D01*
X530077Y112224D01*
X533942Y108359D01*
Y106655D01*
X533942Y106655D01*
X534100Y105862D01*
X534549Y105190D01*
X544566Y95173D01*
X544080Y94000D01*
X436250D01*
X436200Y75326D01*
X426777D01*
X425504Y75073D01*
X424425Y74352D01*
X420319Y70246D01*
X418382Y71365D01*
X416153Y71962D01*
X413847D01*
X413029Y71743D01*
X411086Y73686D01*
Y105021D01*
X411741Y105368D01*
X412356Y105469D01*
X413766Y104059D01*
X415672Y102958D01*
X417799Y102388D01*
X420001D01*
X422128Y102958D01*
X424034Y104059D01*
X425591Y105616D01*
X426692Y107522D01*
X427262Y109649D01*
Y111851D01*
X426692Y113978D01*
X425591Y115884D01*
X424034Y117441D01*
X422128Y118542D01*
X420001Y119112D01*
X417799D01*
X415672Y118542D01*
X413766Y117441D01*
X412356Y116031D01*
X411741Y116132D01*
X411086Y116479D01*
Y172639D01*
X413065Y174618D01*
X414238Y174132D01*
D02*
G37*
%LPC*%
G36*
X785362Y395112D02*
X764638D01*
Y391576D01*
X760119D01*
Y395112D01*
X739395D01*
Y391576D01*
X734862D01*
Y395112D01*
X714138D01*
Y381388D01*
X734862D01*
Y384924D01*
X739395D01*
Y381388D01*
X755416D01*
X761534Y375270D01*
X761008Y374000D01*
X666375D01*
X666407Y353225D01*
X665509Y352326D01*
X649000D01*
X647727Y352073D01*
X646648Y351352D01*
X641122Y345826D01*
X623628D01*
X618126Y351328D01*
Y352600D01*
X618062Y352921D01*
Y359712D01*
X612037D01*
Y365738D01*
X613727D01*
Y371814D01*
X613738Y371816D01*
X614410Y372265D01*
X622323Y380178D01*
X635799D01*
X643962Y372015D01*
X643962Y372015D01*
X644635Y371566D01*
X644645Y371564D01*
Y365488D01*
X652169D01*
Y375512D01*
X646878D01*
X646677Y375552D01*
X646677Y375552D01*
X646286D01*
X638122Y383715D01*
X637450Y384164D01*
X636658Y384322D01*
X636657Y384322D01*
X621465D01*
X621465Y384322D01*
X620672Y384164D01*
X620000Y383715D01*
X612087Y375802D01*
X611695D01*
X611695Y375802D01*
X611495Y375762D01*
X606203D01*
Y365738D01*
X607893D01*
Y357985D01*
X607893Y357985D01*
X608051Y357192D01*
X608238Y356912D01*
Y351718D01*
X605684Y349164D01*
X571216D01*
X570865Y350475D01*
X569711Y352472D01*
X568080Y354104D01*
X566082Y355257D01*
X563853Y355854D01*
X561547D01*
X559318Y355257D01*
X557320Y354104D01*
X555689Y352472D01*
X554535Y350475D01*
X553938Y348246D01*
Y345939D01*
X554535Y343711D01*
X555689Y341712D01*
X557320Y340081D01*
X559318Y338928D01*
X561547Y338330D01*
X563853D01*
X566082Y338928D01*
X568080Y340081D01*
X569711Y341712D01*
X570865Y343711D01*
X571216Y345021D01*
X606542D01*
X606543Y345021D01*
X607335Y345178D01*
X608008Y345628D01*
X610613Y348233D01*
X610624Y348238D01*
X612138Y348063D01*
X612448Y347598D01*
X619898Y340148D01*
X620977Y339427D01*
X622250Y339174D01*
X642500D01*
X643773Y339427D01*
X644852Y340148D01*
X650378Y345674D01*
X666418D01*
X666596Y229970D01*
X665698Y229072D01*
X582908D01*
X553094Y258886D01*
X553692Y259922D01*
X554262Y262049D01*
Y264251D01*
X553692Y266378D01*
X552591Y268284D01*
X551034Y269841D01*
X549128Y270942D01*
X547972Y271252D01*
Y304634D01*
X549282Y304985D01*
X551280Y306139D01*
X552911Y307770D01*
X554065Y309768D01*
X554662Y311996D01*
Y314303D01*
X554065Y316532D01*
X552911Y318530D01*
X551347Y320094D01*
X551370Y320398D01*
X551737Y321364D01*
X565463D01*
X565830Y320398D01*
X565853Y320094D01*
X564289Y318530D01*
X563135Y316532D01*
X562538Y314303D01*
Y311996D01*
X563135Y309768D01*
X564289Y307770D01*
X565920Y306139D01*
X567918Y304985D01*
X569228Y304634D01*
Y271252D01*
X568072Y270942D01*
X566166Y269841D01*
X564609Y268284D01*
X563508Y266378D01*
X562938Y264251D01*
Y262049D01*
X563508Y259922D01*
X564609Y258016D01*
X566166Y256459D01*
X568072Y255358D01*
X570199Y254788D01*
X572401D01*
X574528Y255358D01*
X576434Y256459D01*
X577991Y258016D01*
X579092Y259922D01*
X579662Y262049D01*
Y264251D01*
X579092Y266378D01*
X577991Y268284D01*
X576434Y269841D01*
X574528Y270942D01*
X573372Y271252D01*
Y304634D01*
X574682Y304985D01*
X576680Y306139D01*
X578311Y307770D01*
X579465Y309768D01*
X580062Y311996D01*
Y314303D01*
X579465Y316532D01*
X578311Y318530D01*
X576747Y320094D01*
X576770Y320398D01*
X577137Y321364D01*
X590863D01*
X591230Y320398D01*
X591253Y320094D01*
X589689Y318530D01*
X588535Y316532D01*
X587938Y314303D01*
Y311996D01*
X588535Y309768D01*
X589689Y307770D01*
X591320Y306139D01*
X593318Y304985D01*
X594628Y304634D01*
Y271252D01*
X593472Y270942D01*
X591566Y269841D01*
X590009Y268284D01*
X588908Y266378D01*
X588338Y264251D01*
Y262049D01*
X588908Y259922D01*
X590009Y258016D01*
X591566Y256459D01*
X593472Y255358D01*
X595599Y254788D01*
X597801D01*
X599928Y255358D01*
X601834Y256459D01*
X603391Y258016D01*
X604492Y259922D01*
X605062Y262049D01*
Y264251D01*
X604492Y266378D01*
X603391Y268284D01*
X601834Y269841D01*
X599928Y270942D01*
X598772Y271252D01*
Y304634D01*
X600082Y304985D01*
X602080Y306139D01*
X603711Y307770D01*
X604865Y309768D01*
X605462Y311996D01*
Y313252D01*
X606732Y313778D01*
X608825Y311685D01*
X609497Y311236D01*
X610290Y311078D01*
X610290Y311078D01*
X613245D01*
Y309150D01*
X613614Y307292D01*
X614667Y305717D01*
X616242Y304664D01*
X618100Y304295D01*
X620028D01*
Y271601D01*
X618300D01*
X616520Y271247D01*
X615011Y270239D01*
X614003Y268730D01*
X613649Y266950D01*
Y259350D01*
X614003Y257570D01*
X615011Y256061D01*
X616520Y255053D01*
X618300Y254699D01*
X625900D01*
X627680Y255053D01*
X629189Y256061D01*
X630197Y257570D01*
X630551Y259350D01*
Y266950D01*
X630197Y268730D01*
X629189Y270239D01*
X627680Y271247D01*
X625900Y271601D01*
X624172D01*
Y304295D01*
X626100D01*
X627958Y304664D01*
X629533Y305717D01*
X630586Y307292D01*
X630955Y309150D01*
Y317150D01*
X630586Y319008D01*
X629533Y320583D01*
X627958Y321636D01*
X626100Y322005D01*
X618100D01*
X616242Y321636D01*
X614667Y320583D01*
X613614Y319008D01*
X613245Y317150D01*
Y315222D01*
X611148D01*
X609058Y317312D01*
Y317411D01*
X608900Y318204D01*
X608451Y318876D01*
X608451Y318876D01*
X602426Y324901D01*
X601754Y325350D01*
X600961Y325508D01*
X600961Y325508D01*
X490840D01*
X490839Y325508D01*
X490047Y325350D01*
X489374Y324901D01*
X479566Y315092D01*
X478149Y315472D01*
X477865Y316532D01*
X476711Y318530D01*
X475080Y320161D01*
X473082Y321315D01*
X470854Y321912D01*
X468546D01*
X466318Y321315D01*
X464320Y320161D01*
X462689Y318530D01*
X461535Y316532D01*
X460938Y314303D01*
Y311996D01*
X461535Y309768D01*
X462689Y307770D01*
X464320Y306139D01*
X466318Y304985D01*
X467628Y304634D01*
Y271252D01*
X466472Y270942D01*
X464566Y269841D01*
X463009Y268284D01*
X461908Y266378D01*
X461338Y264251D01*
Y262049D01*
X461908Y259922D01*
X463009Y258016D01*
X464566Y256459D01*
X466472Y255358D01*
X468599Y254788D01*
X470801D01*
X472928Y255358D01*
X474834Y256459D01*
X476391Y258016D01*
X476644Y258454D01*
X477914Y258113D01*
Y243094D01*
X437832Y203012D01*
X433238D01*
Y190988D01*
X440762D01*
Y200082D01*
X481451Y240771D01*
X481451Y240771D01*
X481900Y241443D01*
X482058Y242236D01*
Y311724D01*
X485165Y314831D01*
X486107Y314407D01*
X486338Y314209D01*
Y311996D01*
X486935Y309768D01*
X488089Y307770D01*
X489720Y306139D01*
X491718Y304985D01*
X493028Y304634D01*
Y271252D01*
X491872Y270942D01*
X489966Y269841D01*
X488409Y268284D01*
X487308Y266378D01*
X486738Y264251D01*
Y262049D01*
X487308Y259922D01*
X488409Y258016D01*
X489966Y256459D01*
X491872Y255358D01*
X493999Y254788D01*
X496201D01*
X498328Y255358D01*
X500234Y256459D01*
X501791Y258016D01*
X502892Y259922D01*
X503462Y262049D01*
Y264251D01*
X502892Y266378D01*
X501791Y268284D01*
X500234Y269841D01*
X498328Y270942D01*
X497172Y271252D01*
Y304634D01*
X498482Y304985D01*
X500480Y306139D01*
X502111Y307770D01*
X503265Y309768D01*
X503862Y311996D01*
Y314303D01*
X503265Y316532D01*
X502111Y318530D01*
X500547Y320094D01*
X500570Y320398D01*
X500937Y321364D01*
X514663D01*
X515030Y320398D01*
X515053Y320094D01*
X513489Y318530D01*
X512335Y316532D01*
X511738Y314303D01*
Y311996D01*
X512335Y309768D01*
X513489Y307770D01*
X515120Y306139D01*
X517118Y304985D01*
X518428Y304634D01*
Y271252D01*
X517272Y270942D01*
X515366Y269841D01*
X513809Y268284D01*
X512708Y266378D01*
X512138Y264251D01*
Y262049D01*
X512708Y259922D01*
X513809Y258016D01*
X515366Y256459D01*
X517272Y255358D01*
X519399Y254788D01*
X521601D01*
X523728Y255358D01*
X523785Y255391D01*
X525724Y253452D01*
Y196494D01*
X523342Y194112D01*
X509488D01*
Y186088D01*
X526272D01*
Y191182D01*
X529261Y194171D01*
X529710Y194843D01*
X529868Y195636D01*
X529868Y195636D01*
Y254310D01*
X529710Y255103D01*
X529261Y255775D01*
X529261Y255775D01*
X527106Y257930D01*
X527191Y258016D01*
X528292Y259922D01*
X528862Y262049D01*
Y264251D01*
X528292Y266378D01*
X527191Y268284D01*
X525634Y269841D01*
X523728Y270942D01*
X522572Y271252D01*
Y304634D01*
X523882Y304985D01*
X525880Y306139D01*
X527511Y307770D01*
X528665Y309768D01*
X529262Y311996D01*
Y314303D01*
X528665Y316532D01*
X527511Y318530D01*
X525947Y320094D01*
X525970Y320398D01*
X526337Y321364D01*
X540063D01*
X540430Y320398D01*
X540453Y320094D01*
X538889Y318530D01*
X537735Y316532D01*
X537138Y314303D01*
Y311996D01*
X537735Y309768D01*
X538889Y307770D01*
X540520Y306139D01*
X542518Y304985D01*
X543828Y304634D01*
Y271252D01*
X542672Y270942D01*
X540766Y269841D01*
X539209Y268284D01*
X538108Y266378D01*
X537538Y264251D01*
Y262049D01*
X538108Y259922D01*
X539209Y258016D01*
X540766Y256459D01*
X542672Y255358D01*
X544799Y254788D01*
X547001D01*
X549128Y255358D01*
X550164Y255956D01*
X580585Y225535D01*
X580585Y225535D01*
X581257Y225086D01*
X582050Y224928D01*
X666603D01*
X666625Y210750D01*
X682003D01*
X724568Y168185D01*
X724082Y167012D01*
X716038D01*
Y157188D01*
X726962D01*
Y159392D01*
X732353D01*
X732802Y158122D01*
X732061Y157381D01*
X731488Y155998D01*
Y155354D01*
X729986Y153852D01*
X724380D01*
X724380Y153852D01*
X724180Y153812D01*
X716038D01*
Y143988D01*
X726962D01*
Y149708D01*
X730844D01*
X730844Y149708D01*
X731637Y149866D01*
X732309Y150315D01*
X733408Y151414D01*
X734678Y150888D01*
Y147512D01*
X733738D01*
Y141288D01*
X738968D01*
X739762Y141288D01*
X741032Y141288D01*
X746262D01*
Y141288D01*
X746738D01*
Y141288D01*
X752762D01*
Y142328D01*
X757392D01*
X765464Y134256D01*
X765145Y132650D01*
Y124650D01*
X765514Y122792D01*
X766567Y121217D01*
X768142Y120164D01*
X770000Y119795D01*
X778000D01*
X779334Y120060D01*
X779960Y118890D01*
X774971Y113901D01*
X774522Y113229D01*
X774364Y112436D01*
X773236Y112012D01*
X772847D01*
X770618Y111415D01*
X768620Y110261D01*
X766989Y108630D01*
X765835Y106632D01*
X765238Y104403D01*
Y102096D01*
X765835Y99868D01*
X766989Y97870D01*
X768620Y96239D01*
X770618Y95085D01*
X772847Y94488D01*
X775154D01*
X777382Y95085D01*
X779380Y96239D01*
X781011Y97870D01*
X782165Y99868D01*
X782762Y102096D01*
Y104403D01*
X782165Y106632D01*
X781011Y108630D01*
X779380Y110261D01*
X778969Y110499D01*
X778835Y111905D01*
X791061Y124131D01*
X792234Y123644D01*
X792229Y120977D01*
X788199Y116947D01*
X787750Y116275D01*
X787592Y115482D01*
X787592Y115482D01*
Y36836D01*
X787592Y36836D01*
X787750Y36043D01*
X788199Y35371D01*
X792164Y31407D01*
X792164Y31406D01*
X792836Y30957D01*
X793629Y30800D01*
X793629Y30800D01*
X816419D01*
X816419Y30800D01*
X817212Y30957D01*
X817884Y31406D01*
X827656Y41178D01*
X845195D01*
Y39250D01*
X845564Y37392D01*
X846617Y35817D01*
X848192Y34764D01*
X850050Y34395D01*
X858050D01*
X859908Y34764D01*
X861483Y35817D01*
X862536Y37392D01*
X862905Y39250D01*
Y47250D01*
X862536Y49108D01*
X861483Y50683D01*
X859908Y51736D01*
X858050Y52105D01*
X850050D01*
X848192Y51736D01*
X846617Y50683D01*
X845564Y49108D01*
X845195Y47250D01*
Y45322D01*
X826798D01*
X826798Y45322D01*
X826005Y45164D01*
X825333Y44715D01*
X825333Y44715D01*
X815561Y34943D01*
X805787D01*
X805420Y35909D01*
X805397Y36213D01*
X806961Y37777D01*
X808115Y39775D01*
X808712Y42004D01*
Y44311D01*
X808115Y46539D01*
X806961Y48537D01*
X805330Y50169D01*
X803332Y51322D01*
X802022Y51673D01*
Y60250D01*
X934250D01*
Y69021D01*
X947642D01*
X947643Y69021D01*
X948435Y69178D01*
X949108Y69627D01*
X954193Y74713D01*
X955368Y74035D01*
X957597Y73438D01*
X959903D01*
X962132Y74035D01*
X964130Y75189D01*
X965761Y76820D01*
X966915Y78818D01*
X967512Y81046D01*
Y83354D01*
X966915Y85582D01*
X965761Y87580D01*
X964130Y89211D01*
X962132Y90365D01*
X959903Y90962D01*
X957597D01*
X955368Y90365D01*
X953370Y89211D01*
X951739Y87580D01*
X950585Y85582D01*
X949988Y83354D01*
Y81046D01*
X950585Y78818D01*
X951263Y77643D01*
X946784Y73164D01*
X934250D01*
Y80438D01*
X934743Y81521D01*
X935535Y81678D01*
X936208Y82128D01*
X954193Y100113D01*
X955368Y99435D01*
X957597Y98838D01*
X959903D01*
X962132Y99435D01*
X964130Y100589D01*
X965761Y102220D01*
X966915Y104218D01*
X967512Y106446D01*
Y108753D01*
X966915Y110982D01*
X965761Y112980D01*
X964130Y114611D01*
X962132Y115765D01*
X959903Y116362D01*
X957597D01*
X955368Y115765D01*
X953370Y114611D01*
X951739Y112980D01*
X950585Y110982D01*
X949988Y108753D01*
Y106446D01*
X950585Y104218D01*
X951263Y103043D01*
X935423Y87203D01*
X934250Y87689D01*
Y105570D01*
X953144Y124464D01*
X954750Y124145D01*
X962750D01*
X964608Y124514D01*
X966183Y125567D01*
X967236Y127142D01*
X967605Y129000D01*
Y137000D01*
X967236Y138858D01*
X966183Y140433D01*
X964608Y141486D01*
X962750Y141855D01*
X954750D01*
X952892Y141486D01*
X951317Y140433D01*
X950264Y138858D01*
X949895Y137000D01*
Y129000D01*
X950214Y127394D01*
X935423Y112603D01*
X934250Y113089D01*
Y196250D01*
X792367Y196250D01*
X792247Y131178D01*
X783760Y122690D01*
X782590Y123316D01*
X782855Y124650D01*
Y132650D01*
X782486Y134508D01*
X781433Y136083D01*
X779858Y137136D01*
X778000Y137505D01*
X770000D01*
X768394Y137186D01*
X759715Y145865D01*
X759043Y146314D01*
X758250Y146472D01*
X758250Y146472D01*
X752762D01*
Y147512D01*
X746738D01*
Y147512D01*
X746592D01*
X745322Y148308D01*
Y162192D01*
X746262Y162988D01*
X746738D01*
Y162988D01*
X752762D01*
Y169212D01*
X746738D01*
Y169212D01*
X746262D01*
Y169212D01*
X741032D01*
X740238Y169212D01*
Y169212D01*
X739762D01*
Y169212D01*
X733738D01*
Y168172D01*
X730441D01*
X689036Y209577D01*
X689522Y210750D01*
X768420D01*
X769957Y209213D01*
X769471Y208040D01*
X750464D01*
X749191Y207787D01*
X748112Y207066D01*
X739448Y198401D01*
X738727Y197322D01*
X738474Y196049D01*
Y193412D01*
X733210Y188148D01*
X732619Y187903D01*
X731561Y186845D01*
X730988Y185462D01*
Y183966D01*
X731561Y182583D01*
X732619Y181525D01*
X734002Y180952D01*
X735498D01*
X736881Y181525D01*
X737939Y182583D01*
X738512Y183966D01*
Y184043D01*
X744151Y189682D01*
X744872Y190761D01*
X745125Y192034D01*
Y194672D01*
X751842Y201388D01*
X826214D01*
X827487Y201641D01*
X828566Y202362D01*
X883118Y256914D01*
X883839Y257993D01*
X884092Y259266D01*
Y325520D01*
X883839Y326793D01*
X883118Y327872D01*
X875628Y335362D01*
X874549Y336083D01*
X873276Y336336D01*
X871384D01*
X871217Y337606D01*
X872632Y337985D01*
X874630Y339139D01*
X876261Y340770D01*
X877415Y342768D01*
X878012Y344996D01*
Y347304D01*
X877415Y349532D01*
X876261Y351530D01*
X874630Y353161D01*
X872632Y354315D01*
X870404Y354912D01*
X868096D01*
X865868Y354315D01*
X863870Y353161D01*
X862239Y351530D01*
X861085Y349532D01*
X860488Y347304D01*
Y344996D01*
X860586Y344630D01*
X860357Y344284D01*
X859536Y343643D01*
X858614Y343826D01*
X822125D01*
Y374000D01*
X768838D01*
Y375995D01*
X768585Y377268D01*
X767864Y378347D01*
X765996Y380215D01*
X766482Y381388D01*
X785362D01*
Y395112D01*
D02*
G37*
G36*
X639250Y468500D02*
X599000D01*
X599750Y405250D01*
Y404500D01*
X601361D01*
X601847Y403327D01*
X600730Y402210D01*
X600281Y401538D01*
X600126Y400762D01*
X596703D01*
Y390738D01*
X604227D01*
Y397280D01*
X604267Y397480D01*
X604267Y397480D01*
Y399887D01*
X608880Y404500D01*
X629620D01*
X635106Y399014D01*
Y397230D01*
X635106Y397230D01*
X635145Y397030D01*
Y390488D01*
X642670D01*
Y400512D01*
X639122D01*
X639092Y400665D01*
X638643Y401338D01*
X638642Y401338D01*
X636653Y403327D01*
X637139Y404500D01*
X639250D01*
Y468500D01*
D02*
G37*
G36*
X19153Y394962D02*
X16846D01*
X14618Y394365D01*
X12620Y393211D01*
X10989Y391580D01*
X9835Y389582D01*
X9238Y387354D01*
Y385046D01*
X9835Y382818D01*
X10989Y380820D01*
X12620Y379189D01*
X14618Y378035D01*
X16846Y377438D01*
X19153D01*
X21382Y378035D01*
X23380Y379189D01*
X25011Y380820D01*
X26165Y382818D01*
X26762Y385046D01*
Y387354D01*
X26165Y389582D01*
X25011Y391580D01*
X23380Y393211D01*
X21382Y394365D01*
X19153Y394962D01*
D02*
G37*
G36*
X326498Y365762D02*
X325002D01*
X323619Y365189D01*
X322561Y364131D01*
X321988Y362748D01*
Y361252D01*
X322561Y359869D01*
X323619Y358811D01*
X323678Y358786D01*
Y356512D01*
X320038D01*
Y350775D01*
X319327Y350634D01*
X318655Y350185D01*
X318655Y350185D01*
X316482Y348012D01*
X315212Y348538D01*
Y357012D01*
X304288D01*
Y354422D01*
X299655D01*
Y357262D01*
X288731D01*
Y354422D01*
X284212D01*
Y357262D01*
X273288D01*
Y347438D01*
X284212D01*
Y350278D01*
X288731D01*
Y347438D01*
X299655D01*
Y350278D01*
X304288D01*
Y347188D01*
X313862D01*
X314388Y345918D01*
X312282Y343812D01*
X304288D01*
Y333988D01*
X312332D01*
X312818Y332815D01*
X306793Y326790D01*
X288741D01*
X288666Y326865D01*
X287994Y327314D01*
X287201Y327472D01*
X287201Y327472D01*
X280822D01*
Y334238D01*
X284212D01*
Y344062D01*
X273288D01*
Y341222D01*
X268762D01*
Y345212D01*
X258938D01*
Y334288D01*
X268762D01*
Y337078D01*
X273288D01*
Y334238D01*
X276678D01*
Y326258D01*
X271057Y320637D01*
X269882Y321315D01*
X267654Y321912D01*
X265347D01*
X263118Y321315D01*
X261120Y320161D01*
X259489Y318530D01*
X258335Y316532D01*
X257738Y314303D01*
Y311996D01*
X258335Y309768D01*
X259489Y307770D01*
X261120Y306139D01*
X263118Y304985D01*
X264428Y304634D01*
Y271252D01*
X263272Y270942D01*
X261366Y269841D01*
X259809Y268284D01*
X258708Y266378D01*
X258138Y264251D01*
Y262049D01*
X258708Y259922D01*
X259809Y258016D01*
X261366Y256459D01*
X263272Y255358D01*
X265399Y254788D01*
X267601D01*
X269728Y255358D01*
X271634Y256459D01*
X273191Y258016D01*
X274292Y259922D01*
X274862Y262049D01*
Y264251D01*
X274292Y266378D01*
X273191Y268284D01*
X271634Y269841D01*
X269728Y270942D01*
X268572Y271252D01*
Y304634D01*
X269882Y304985D01*
X271880Y306139D01*
X273511Y307770D01*
X274665Y309768D01*
X275262Y311996D01*
Y314303D01*
X274665Y316532D01*
X273987Y317707D01*
X279608Y323328D01*
X286343D01*
X286418Y323253D01*
X286418Y323253D01*
X287090Y322804D01*
X287883Y322646D01*
X288068Y322448D01*
X288074Y322433D01*
X287795Y320897D01*
X286520Y320161D01*
X284889Y318530D01*
X283735Y316532D01*
X283138Y314303D01*
Y311996D01*
X283735Y309768D01*
X284889Y307770D01*
X286520Y306139D01*
X288518Y304985D01*
X289828Y304634D01*
Y271252D01*
X288672Y270942D01*
X286766Y269841D01*
X285209Y268284D01*
X284108Y266378D01*
X283538Y264251D01*
Y262049D01*
X284108Y259922D01*
X285209Y258016D01*
X286766Y256459D01*
X288672Y255358D01*
X290799Y254788D01*
X293001D01*
X295128Y255358D01*
X297034Y256459D01*
X298591Y258016D01*
X299692Y259922D01*
X300262Y262049D01*
Y264251D01*
X299692Y266378D01*
X298591Y268284D01*
X297034Y269841D01*
X295128Y270942D01*
X293972Y271252D01*
Y304634D01*
X295282Y304985D01*
X297280Y306139D01*
X298911Y307770D01*
X300065Y309768D01*
X300662Y311996D01*
Y314303D01*
X300065Y316532D01*
X298911Y318530D01*
X297280Y320161D01*
X295282Y321315D01*
X295053Y321376D01*
X295220Y322646D01*
X307651D01*
X307651Y322646D01*
X308444Y322804D01*
X309116Y323253D01*
X318201Y332338D01*
X318201Y332338D01*
X318650Y333010D01*
X318768Y333603D01*
X320038Y333488D01*
Y333488D01*
X330962D01*
Y343312D01*
X320038D01*
Y340472D01*
X318224D01*
X317431Y340314D01*
X317071Y340074D01*
X316082Y340349D01*
X315712Y340614D01*
X315618Y341287D01*
X320978Y346648D01*
X322620D01*
X322620Y346648D01*
X322820Y346688D01*
X330962D01*
Y356512D01*
X327822D01*
Y358786D01*
X327881Y358811D01*
X328939Y359869D01*
X329512Y361252D01*
Y362748D01*
X328939Y364131D01*
X327881Y365189D01*
X326498Y365762D01*
D02*
G37*
G36*
X255562Y345212D02*
X245738D01*
Y340972D01*
X241220D01*
Y343812D01*
X230296D01*
Y333988D01*
X241220D01*
Y336828D01*
X245738D01*
Y334288D01*
X248578D01*
Y323558D01*
X245657Y320637D01*
X244482Y321315D01*
X242253Y321912D01*
X239946D01*
X237718Y321315D01*
X236543Y320637D01*
X225752Y331428D01*
Y336270D01*
X225752Y336270D01*
X225712Y336470D01*
Y344062D01*
X214788D01*
Y334238D01*
X221608D01*
Y330570D01*
X221608Y330570D01*
X221766Y329777D01*
X222215Y329105D01*
X233613Y317707D01*
X232935Y316532D01*
X232338Y314303D01*
Y311996D01*
X232935Y309768D01*
X234089Y307770D01*
X235720Y306139D01*
X237718Y304985D01*
X239028Y304634D01*
Y271252D01*
X237872Y270942D01*
X235966Y269841D01*
X234409Y268284D01*
X233308Y266378D01*
X232738Y264251D01*
Y262049D01*
X233308Y259922D01*
X234409Y258016D01*
X235966Y256459D01*
X237872Y255358D01*
X239999Y254788D01*
X242201D01*
X244328Y255358D01*
X246234Y256459D01*
X247791Y258016D01*
X248892Y259922D01*
X249462Y262049D01*
Y264251D01*
X248892Y266378D01*
X247791Y268284D01*
X246234Y269841D01*
X244328Y270942D01*
X243172Y271252D01*
Y304634D01*
X244482Y304985D01*
X246480Y306139D01*
X248111Y307770D01*
X249265Y309768D01*
X249862Y311996D01*
Y314303D01*
X249265Y316532D01*
X248587Y317707D01*
X252115Y321235D01*
X252115Y321235D01*
X252564Y321907D01*
X252722Y322700D01*
X252722Y322700D01*
Y334288D01*
X255562D01*
Y345212D01*
D02*
G37*
G36*
X445453Y321912D02*
X443147D01*
X440918Y321315D01*
X438920Y320161D01*
X437289Y318530D01*
X436135Y316532D01*
X435538Y314303D01*
Y311996D01*
X436135Y309768D01*
X437289Y307770D01*
X438920Y306139D01*
X440918Y304985D01*
X442228Y304634D01*
Y271252D01*
X441072Y270942D01*
X439166Y269841D01*
X437609Y268284D01*
X436508Y266378D01*
X435938Y264251D01*
Y262049D01*
X436508Y259922D01*
X437609Y258016D01*
X439166Y256459D01*
X441072Y255358D01*
X443199Y254788D01*
X445401D01*
X447528Y255358D01*
X449434Y256459D01*
X450991Y258016D01*
X452092Y259922D01*
X452662Y262049D01*
Y264251D01*
X452092Y266378D01*
X450991Y268284D01*
X449434Y269841D01*
X447528Y270942D01*
X446372Y271252D01*
Y304634D01*
X447682Y304985D01*
X449680Y306139D01*
X451311Y307770D01*
X452465Y309768D01*
X453062Y311996D01*
Y314303D01*
X452465Y316532D01*
X451311Y318530D01*
X449680Y320161D01*
X447682Y321315D01*
X445453Y321912D01*
D02*
G37*
G36*
X420053D02*
X417747D01*
X415518Y321315D01*
X413520Y320161D01*
X411889Y318530D01*
X410735Y316532D01*
X410138Y314303D01*
Y311996D01*
X410735Y309768D01*
X411889Y307770D01*
X413520Y306139D01*
X415518Y304985D01*
X416828Y304634D01*
Y271252D01*
X415672Y270942D01*
X413766Y269841D01*
X412209Y268284D01*
X411108Y266378D01*
X410538Y264251D01*
Y262049D01*
X411108Y259922D01*
X412209Y258016D01*
X413766Y256459D01*
X415672Y255358D01*
X417799Y254788D01*
X420001D01*
X422128Y255358D01*
X424034Y256459D01*
X425591Y258016D01*
X426692Y259922D01*
X427262Y262049D01*
Y264251D01*
X426692Y266378D01*
X425591Y268284D01*
X424034Y269841D01*
X422128Y270942D01*
X420972Y271252D01*
Y304634D01*
X422282Y304985D01*
X424280Y306139D01*
X425911Y307770D01*
X427065Y309768D01*
X427662Y311996D01*
Y314303D01*
X427065Y316532D01*
X425911Y318530D01*
X424280Y320161D01*
X422282Y321315D01*
X420053Y321912D01*
D02*
G37*
G36*
X394654D02*
X392346D01*
X390118Y321315D01*
X388120Y320161D01*
X386489Y318530D01*
X385335Y316532D01*
X384738Y314303D01*
Y311996D01*
X385335Y309768D01*
X386489Y307770D01*
X388120Y306139D01*
X390118Y304985D01*
X391428Y304634D01*
Y271252D01*
X390272Y270942D01*
X388366Y269841D01*
X386809Y268284D01*
X385708Y266378D01*
X385138Y264251D01*
Y262049D01*
X385708Y259922D01*
X386809Y258016D01*
X388366Y256459D01*
X390272Y255358D01*
X392399Y254788D01*
X394601D01*
X396728Y255358D01*
X398634Y256459D01*
X400191Y258016D01*
X401292Y259922D01*
X401862Y262049D01*
Y264251D01*
X401292Y266378D01*
X400191Y268284D01*
X398634Y269841D01*
X396728Y270942D01*
X395572Y271252D01*
Y304634D01*
X396882Y304985D01*
X398880Y306139D01*
X400511Y307770D01*
X401665Y309768D01*
X402262Y311996D01*
Y314303D01*
X401665Y316532D01*
X400511Y318530D01*
X398880Y320161D01*
X396882Y321315D01*
X394654Y321912D01*
D02*
G37*
G36*
X369254D02*
X366946D01*
X364718Y321315D01*
X362720Y320161D01*
X361089Y318530D01*
X359935Y316532D01*
X359338Y314303D01*
Y311996D01*
X359935Y309768D01*
X361089Y307770D01*
X362720Y306139D01*
X364718Y304985D01*
X366028Y304634D01*
Y271252D01*
X364872Y270942D01*
X362966Y269841D01*
X361409Y268284D01*
X360308Y266378D01*
X359738Y264251D01*
Y262049D01*
X360308Y259922D01*
X361409Y258016D01*
X362966Y256459D01*
X364872Y255358D01*
X366999Y254788D01*
X369201D01*
X371328Y255358D01*
X373234Y256459D01*
X374791Y258016D01*
X375892Y259922D01*
X376462Y262049D01*
Y264251D01*
X375892Y266378D01*
X374791Y268284D01*
X373234Y269841D01*
X371328Y270942D01*
X370172Y271252D01*
Y304634D01*
X371482Y304985D01*
X373480Y306139D01*
X375111Y307770D01*
X376265Y309768D01*
X376862Y311996D01*
Y314303D01*
X376265Y316532D01*
X375111Y318530D01*
X373480Y320161D01*
X371482Y321315D01*
X369254Y321912D01*
D02*
G37*
G36*
X343853D02*
X341547D01*
X339318Y321315D01*
X337320Y320161D01*
X335689Y318530D01*
X334535Y316532D01*
X333938Y314303D01*
Y311996D01*
X334535Y309768D01*
X335689Y307770D01*
X337320Y306139D01*
X339318Y304985D01*
X340628Y304634D01*
Y271252D01*
X339472Y270942D01*
X337566Y269841D01*
X336009Y268284D01*
X334908Y266378D01*
X334338Y264251D01*
Y262049D01*
X334908Y259922D01*
X336009Y258016D01*
X337566Y256459D01*
X339472Y255358D01*
X341599Y254788D01*
X343801D01*
X345928Y255358D01*
X347834Y256459D01*
X349391Y258016D01*
X350492Y259922D01*
X351062Y262049D01*
Y264251D01*
X350492Y266378D01*
X349391Y268284D01*
X347834Y269841D01*
X345928Y270942D01*
X344772Y271252D01*
Y304634D01*
X346082Y304985D01*
X348080Y306139D01*
X349711Y307770D01*
X350865Y309768D01*
X351462Y311996D01*
Y314303D01*
X350865Y316532D01*
X349711Y318530D01*
X348080Y320161D01*
X346082Y321315D01*
X343853Y321912D01*
D02*
G37*
G36*
X318454D02*
X316147D01*
X313918Y321315D01*
X311920Y320161D01*
X310289Y318530D01*
X309135Y316532D01*
X308538Y314303D01*
Y311996D01*
X309135Y309768D01*
X310289Y307770D01*
X311920Y306139D01*
X313918Y304985D01*
X315228Y304634D01*
Y271252D01*
X314072Y270942D01*
X312166Y269841D01*
X310609Y268284D01*
X309508Y266378D01*
X308938Y264251D01*
Y262049D01*
X309508Y259922D01*
X310609Y258016D01*
X312166Y256459D01*
X314072Y255358D01*
X316199Y254788D01*
X318401D01*
X320528Y255358D01*
X322434Y256459D01*
X323991Y258016D01*
X325092Y259922D01*
X325662Y262049D01*
Y264251D01*
X325092Y266378D01*
X323991Y268284D01*
X322434Y269841D01*
X320528Y270942D01*
X319372Y271252D01*
Y304634D01*
X320682Y304985D01*
X322680Y306139D01*
X324311Y307770D01*
X325465Y309768D01*
X326062Y311996D01*
Y314303D01*
X325465Y316532D01*
X324311Y318530D01*
X322680Y320161D01*
X320682Y321315D01*
X318454Y321912D01*
D02*
G37*
G36*
X216854D02*
X214547D01*
X212318Y321315D01*
X210320Y320161D01*
X208689Y318530D01*
X207535Y316532D01*
X206938Y314303D01*
Y311996D01*
X207535Y309768D01*
X208689Y307770D01*
X210320Y306139D01*
X212318Y304985D01*
X213628Y304634D01*
Y271252D01*
X212472Y270942D01*
X210566Y269841D01*
X209009Y268284D01*
X207908Y266378D01*
X207338Y264251D01*
Y262049D01*
X207908Y259922D01*
X209009Y258016D01*
X210566Y256459D01*
X212472Y255358D01*
X214599Y254788D01*
X216801D01*
X218928Y255358D01*
X220834Y256459D01*
X222391Y258016D01*
X223492Y259922D01*
X224062Y262049D01*
Y264251D01*
X223492Y266378D01*
X222391Y268284D01*
X220834Y269841D01*
X218928Y270942D01*
X217772Y271252D01*
Y304634D01*
X219082Y304985D01*
X221080Y306139D01*
X222711Y307770D01*
X223865Y309768D01*
X224462Y311996D01*
Y314303D01*
X223865Y316532D01*
X222711Y318530D01*
X221080Y320161D01*
X219082Y321315D01*
X216854Y321912D01*
D02*
G37*
G36*
X191453D02*
X189146D01*
X186918Y321315D01*
X184920Y320161D01*
X183289Y318530D01*
X182135Y316532D01*
X181538Y314303D01*
Y311996D01*
X182135Y309768D01*
X183289Y307770D01*
X184920Y306139D01*
X186918Y304985D01*
X188228Y304634D01*
Y271252D01*
X187072Y270942D01*
X185166Y269841D01*
X183609Y268284D01*
X182508Y266378D01*
X181938Y264251D01*
Y262049D01*
X182508Y259922D01*
X183609Y258016D01*
X185166Y256459D01*
X187072Y255358D01*
X189199Y254788D01*
X191401D01*
X193528Y255358D01*
X195434Y256459D01*
X196991Y258016D01*
X198092Y259922D01*
X198662Y262049D01*
Y264251D01*
X198092Y266378D01*
X196991Y268284D01*
X195434Y269841D01*
X193528Y270942D01*
X192372Y271252D01*
Y304634D01*
X193682Y304985D01*
X195680Y306139D01*
X197311Y307770D01*
X198465Y309768D01*
X199062Y311996D01*
Y314303D01*
X198465Y316532D01*
X197311Y318530D01*
X195680Y320161D01*
X193682Y321315D01*
X191453Y321912D01*
D02*
G37*
G36*
X166054D02*
X163746D01*
X161518Y321315D01*
X159520Y320161D01*
X157889Y318530D01*
X156735Y316532D01*
X156138Y314303D01*
Y311996D01*
X156735Y309768D01*
X157889Y307770D01*
X159520Y306139D01*
X161518Y304985D01*
X162828Y304634D01*
Y271252D01*
X161672Y270942D01*
X159766Y269841D01*
X158209Y268284D01*
X157108Y266378D01*
X156538Y264251D01*
Y262049D01*
X157108Y259922D01*
X158209Y258016D01*
X159766Y256459D01*
X161672Y255358D01*
X163799Y254788D01*
X166001D01*
X168128Y255358D01*
X170034Y256459D01*
X171591Y258016D01*
X172692Y259922D01*
X173262Y262049D01*
Y264251D01*
X172692Y266378D01*
X171591Y268284D01*
X170034Y269841D01*
X168128Y270942D01*
X166972Y271252D01*
Y304634D01*
X168282Y304985D01*
X170280Y306139D01*
X171911Y307770D01*
X173065Y309768D01*
X173662Y311996D01*
Y314303D01*
X173065Y316532D01*
X171911Y318530D01*
X170280Y320161D01*
X168282Y321315D01*
X166054Y321912D01*
D02*
G37*
G36*
X140653D02*
X138347D01*
X136118Y321315D01*
X134120Y320161D01*
X132489Y318530D01*
X131335Y316532D01*
X130738Y314303D01*
Y311996D01*
X131335Y309768D01*
X132489Y307770D01*
X134120Y306139D01*
X136118Y304985D01*
X137428Y304634D01*
Y271252D01*
X136272Y270942D01*
X134366Y269841D01*
X132809Y268284D01*
X131708Y266378D01*
X131138Y264251D01*
Y262049D01*
X131708Y259922D01*
X132809Y258016D01*
X134366Y256459D01*
X136272Y255358D01*
X138399Y254788D01*
X140601D01*
X142728Y255358D01*
X144634Y256459D01*
X146191Y258016D01*
X147292Y259922D01*
X147862Y262049D01*
Y264251D01*
X147292Y266378D01*
X146191Y268284D01*
X144634Y269841D01*
X142728Y270942D01*
X141572Y271252D01*
Y304634D01*
X142882Y304985D01*
X144880Y306139D01*
X146511Y307770D01*
X147665Y309768D01*
X148262Y311996D01*
Y314303D01*
X147665Y316532D01*
X146511Y318530D01*
X144880Y320161D01*
X142882Y321315D01*
X140653Y321912D01*
D02*
G37*
G36*
X115253D02*
X112947D01*
X110718Y321315D01*
X108720Y320161D01*
X107089Y318530D01*
X105935Y316532D01*
X105338Y314303D01*
Y311996D01*
X105935Y309768D01*
X107089Y307770D01*
X108720Y306139D01*
X110718Y304985D01*
X112028Y304634D01*
Y271252D01*
X110872Y270942D01*
X108966Y269841D01*
X107409Y268284D01*
X106308Y266378D01*
X105738Y264251D01*
Y262049D01*
X106308Y259922D01*
X107409Y258016D01*
X108966Y256459D01*
X110872Y255358D01*
X112999Y254788D01*
X115201D01*
X117328Y255358D01*
X119234Y256459D01*
X120791Y258016D01*
X121892Y259922D01*
X122462Y262049D01*
Y264251D01*
X121892Y266378D01*
X120791Y268284D01*
X119234Y269841D01*
X117328Y270942D01*
X116172Y271252D01*
Y304634D01*
X117482Y304985D01*
X119480Y306139D01*
X121111Y307770D01*
X122265Y309768D01*
X122862Y311996D01*
Y314303D01*
X122265Y316532D01*
X121111Y318530D01*
X119480Y320161D01*
X117482Y321315D01*
X115253Y321912D01*
D02*
G37*
G36*
X89853D02*
X87547D01*
X85318Y321315D01*
X83320Y320161D01*
X81689Y318530D01*
X80535Y316532D01*
X79938Y314303D01*
Y311996D01*
X80535Y309768D01*
X81689Y307770D01*
X83320Y306139D01*
X85318Y304985D01*
X86628Y304634D01*
Y271252D01*
X85472Y270942D01*
X83566Y269841D01*
X82009Y268284D01*
X80908Y266378D01*
X80338Y264251D01*
Y262049D01*
X80908Y259922D01*
X82009Y258016D01*
X83566Y256459D01*
X85472Y255358D01*
X87599Y254788D01*
X89801D01*
X91928Y255358D01*
X93834Y256459D01*
X95391Y258016D01*
X96492Y259922D01*
X97062Y262049D01*
Y264251D01*
X96492Y266378D01*
X95391Y268284D01*
X93834Y269841D01*
X91928Y270942D01*
X90772Y271252D01*
Y304634D01*
X92082Y304985D01*
X94080Y306139D01*
X95711Y307770D01*
X96865Y309768D01*
X97462Y311996D01*
Y314303D01*
X96865Y316532D01*
X95711Y318530D01*
X94080Y320161D01*
X92082Y321315D01*
X89853Y321912D01*
D02*
G37*
G36*
X64454D02*
X62147D01*
X59918Y321315D01*
X57920Y320161D01*
X56289Y318530D01*
X55135Y316532D01*
X54538Y314303D01*
Y311996D01*
X55135Y309768D01*
X56289Y307770D01*
X57920Y306139D01*
X59918Y304985D01*
X61228Y304634D01*
Y271252D01*
X60072Y270942D01*
X58166Y269841D01*
X56609Y268284D01*
X55508Y266378D01*
X54938Y264251D01*
Y262049D01*
X55508Y259922D01*
X56609Y258016D01*
X58166Y256459D01*
X60072Y255358D01*
X62199Y254788D01*
X64401D01*
X66528Y255358D01*
X68434Y256459D01*
X69991Y258016D01*
X71092Y259922D01*
X71662Y262049D01*
Y264251D01*
X71092Y266378D01*
X69991Y268284D01*
X68434Y269841D01*
X66528Y270942D01*
X65372Y271252D01*
Y304634D01*
X66682Y304985D01*
X68680Y306139D01*
X70311Y307770D01*
X71465Y309768D01*
X72062Y311996D01*
Y314303D01*
X71465Y316532D01*
X70311Y318530D01*
X68680Y320161D01*
X66682Y321315D01*
X64454Y321912D01*
D02*
G37*
G36*
X580512Y206812D02*
X563728D01*
Y198788D01*
X580512D01*
Y206812D01*
D02*
G37*
G36*
Y194112D02*
X563728D01*
Y186088D01*
X580512D01*
Y187978D01*
X681015D01*
X681061Y187869D01*
X682119Y186811D01*
X683502Y186238D01*
X684998D01*
X686381Y186811D01*
X687439Y187869D01*
X688012Y189252D01*
Y190748D01*
X687439Y192131D01*
X686381Y193189D01*
X684998Y193762D01*
X683502D01*
X682119Y193189D01*
X681061Y192131D01*
X681057Y192122D01*
X580512D01*
Y194112D01*
D02*
G37*
G36*
X503962Y185312D02*
X493038D01*
Y178418D01*
X489204Y174584D01*
X488773Y174762D01*
X487277D01*
X485894Y174189D01*
X484836Y173131D01*
X484263Y171748D01*
Y170252D01*
X484836Y168869D01*
X485894Y167811D01*
X487277Y167238D01*
X488773D01*
X488833Y167262D01*
X508810Y147285D01*
X508810Y147285D01*
X509482Y146836D01*
X510275Y146678D01*
X606100D01*
X606100Y146678D01*
X606893Y146836D01*
X607565Y147285D01*
X615268Y154988D01*
X622712D01*
Y164812D01*
X611788D01*
Y157368D01*
X605242Y150822D01*
X511133D01*
X491763Y170193D01*
X491787Y170252D01*
Y171307D01*
X495968Y175488D01*
X503962D01*
Y178328D01*
X509488D01*
Y173388D01*
X526272D01*
Y181412D01*
X512418D01*
X511965Y181865D01*
X511293Y182314D01*
X510500Y182472D01*
X510500Y182472D01*
X503962D01*
Y185312D01*
D02*
G37*
G36*
X237262Y196762D02*
X225238D01*
Y192168D01*
X223385Y190315D01*
X222936Y189643D01*
X222778Y188850D01*
X222778Y188850D01*
Y181712D01*
X219938D01*
Y170788D01*
X229762D01*
Y181712D01*
X226922D01*
Y187992D01*
X228168Y189238D01*
X237262D01*
Y196762D01*
D02*
G37*
G36*
X174998Y232762D02*
X173502D01*
X172119Y232189D01*
X171061Y231131D01*
X170488Y229748D01*
Y228252D01*
X171061Y226869D01*
X172119Y225811D01*
X172178Y225786D01*
Y221358D01*
X172178Y221357D01*
X172336Y220565D01*
X172785Y219893D01*
X182796Y209882D01*
Y202438D01*
X193720D01*
Y205278D01*
X198350D01*
X198350Y205278D01*
X199143Y205436D01*
X199815Y205885D01*
X202168Y208238D01*
X208332D01*
X210714Y205856D01*
Y199144D01*
X208332Y196762D01*
X199238D01*
Y189238D01*
X208332D01*
X209578Y187992D01*
Y181712D01*
X206738D01*
Y170788D01*
X216562D01*
Y181712D01*
X213722D01*
Y188850D01*
X213564Y189643D01*
X213115Y190315D01*
X213115Y190315D01*
X211262Y192168D01*
Y193832D01*
X214251Y196821D01*
X214700Y197493D01*
X214858Y198286D01*
X214858Y198286D01*
Y206714D01*
X214858Y206714D01*
X214700Y207507D01*
X214251Y208179D01*
X211262Y211168D01*
Y215762D01*
X199238D01*
Y211168D01*
X197492Y209422D01*
X193720D01*
Y212262D01*
X186275D01*
X176322Y222216D01*
Y225786D01*
X176381Y225811D01*
X177439Y226869D01*
X178012Y228252D01*
Y229748D01*
X177439Y231131D01*
X176381Y232189D01*
X174998Y232762D01*
D02*
G37*
G36*
X580512Y181412D02*
X563728D01*
Y173388D01*
X577582D01*
X579335Y171635D01*
X579335Y171635D01*
X580007Y171186D01*
X580800Y171028D01*
X580800Y171028D01*
X596038D01*
Y168188D01*
X606962D01*
Y171028D01*
X611788D01*
Y168188D01*
X622712D01*
Y178012D01*
X611788D01*
Y175172D01*
X606962D01*
Y178012D01*
X596038D01*
Y175172D01*
X581658D01*
X580512Y176318D01*
Y181412D01*
D02*
G37*
G36*
Y168712D02*
X563728D01*
Y160688D01*
X580512D01*
Y168712D01*
D02*
G37*
G36*
X526272D02*
X509488D01*
Y160688D01*
X526272D01*
Y168712D01*
D02*
G37*
G36*
X597801Y119112D02*
X595599D01*
X593472Y118542D01*
X591566Y117441D01*
X590009Y115884D01*
X588908Y113978D01*
X588338Y111851D01*
Y109649D01*
X588908Y107522D01*
X590009Y105616D01*
X591566Y104059D01*
X593472Y102958D01*
X595599Y102388D01*
X597801D01*
X599928Y102958D01*
X601834Y104059D01*
X603391Y105616D01*
X604492Y107522D01*
X605062Y109649D01*
Y111851D01*
X604492Y113978D01*
X603391Y115884D01*
X601834Y117441D01*
X599928Y118542D01*
X597801Y119112D01*
D02*
G37*
G36*
X572401D02*
X570199D01*
X568072Y118542D01*
X566166Y117441D01*
X564609Y115884D01*
X563508Y113978D01*
X562938Y111851D01*
Y109649D01*
X563508Y107522D01*
X564609Y105616D01*
X566166Y104059D01*
X568072Y102958D01*
X570199Y102388D01*
X572401D01*
X574528Y102958D01*
X576434Y104059D01*
X577991Y105616D01*
X579092Y107522D01*
X579662Y109649D01*
Y111851D01*
X579092Y113978D01*
X577991Y115884D01*
X576434Y117441D01*
X574528Y118542D01*
X572401Y119112D01*
D02*
G37*
G36*
X394601D02*
X392399D01*
X390272Y118542D01*
X388366Y117441D01*
X386809Y115884D01*
X385708Y113978D01*
X385138Y111851D01*
Y109649D01*
X385708Y107522D01*
X386809Y105616D01*
X388366Y104059D01*
X390272Y102958D01*
X392399Y102388D01*
X394601D01*
X396728Y102958D01*
X398634Y104059D01*
X400191Y105616D01*
X401292Y107522D01*
X401862Y109649D01*
Y111851D01*
X401292Y113978D01*
X400191Y115884D01*
X398634Y117441D01*
X396728Y118542D01*
X394601Y119112D01*
D02*
G37*
G36*
X369201D02*
X366999D01*
X364872Y118542D01*
X362966Y117441D01*
X361409Y115884D01*
X360308Y113978D01*
X359738Y111851D01*
Y109649D01*
X360308Y107522D01*
X361409Y105616D01*
X362966Y104059D01*
X364872Y102958D01*
X366999Y102388D01*
X369201D01*
X371328Y102958D01*
X373234Y104059D01*
X374791Y105616D01*
X375892Y107522D01*
X376462Y109649D01*
Y111851D01*
X375892Y113978D01*
X374791Y115884D01*
X373234Y117441D01*
X371328Y118542D01*
X369201Y119112D01*
D02*
G37*
G36*
X343801D02*
X341599D01*
X339472Y118542D01*
X337566Y117441D01*
X336009Y115884D01*
X334908Y113978D01*
X334338Y111851D01*
Y109649D01*
X334908Y107522D01*
X336009Y105616D01*
X337566Y104059D01*
X339472Y102958D01*
X341599Y102388D01*
X343801D01*
X345928Y102958D01*
X347834Y104059D01*
X349391Y105616D01*
X350492Y107522D01*
X351062Y109649D01*
Y111851D01*
X350492Y113978D01*
X349391Y115884D01*
X347834Y117441D01*
X345928Y118542D01*
X343801Y119112D01*
D02*
G37*
G36*
X318401D02*
X316199D01*
X314072Y118542D01*
X312166Y117441D01*
X310609Y115884D01*
X309508Y113978D01*
X308938Y111851D01*
Y109649D01*
X309508Y107522D01*
X310609Y105616D01*
X312166Y104059D01*
X314072Y102958D01*
X316199Y102388D01*
X318401D01*
X320528Y102958D01*
X322434Y104059D01*
X323991Y105616D01*
X325092Y107522D01*
X325662Y109649D01*
Y111851D01*
X325092Y113978D01*
X323991Y115884D01*
X322434Y117441D01*
X320528Y118542D01*
X318401Y119112D01*
D02*
G37*
G36*
X293001D02*
X290799D01*
X288672Y118542D01*
X286766Y117441D01*
X285209Y115884D01*
X284108Y113978D01*
X283538Y111851D01*
Y109649D01*
X284108Y107522D01*
X285209Y105616D01*
X286766Y104059D01*
X288672Y102958D01*
X290799Y102388D01*
X293001D01*
X295128Y102958D01*
X297034Y104059D01*
X298591Y105616D01*
X299692Y107522D01*
X300262Y109649D01*
Y111851D01*
X299692Y113978D01*
X298591Y115884D01*
X297034Y117441D01*
X295128Y118542D01*
X293001Y119112D01*
D02*
G37*
G36*
X267601D02*
X265399D01*
X263272Y118542D01*
X261366Y117441D01*
X259809Y115884D01*
X258708Y113978D01*
X258138Y111851D01*
Y109649D01*
X258708Y107522D01*
X259809Y105616D01*
X261366Y104059D01*
X263272Y102958D01*
X265399Y102388D01*
X267601D01*
X269728Y102958D01*
X271634Y104059D01*
X273191Y105616D01*
X274292Y107522D01*
X274862Y109649D01*
Y111851D01*
X274292Y113978D01*
X273191Y115884D01*
X271634Y117441D01*
X269728Y118542D01*
X267601Y119112D01*
D02*
G37*
G36*
X242201D02*
X239999D01*
X237872Y118542D01*
X235966Y117441D01*
X234409Y115884D01*
X233308Y113978D01*
X232738Y111851D01*
Y109649D01*
X233308Y107522D01*
X234409Y105616D01*
X235966Y104059D01*
X237872Y102958D01*
X239999Y102388D01*
X242201D01*
X244328Y102958D01*
X246234Y104059D01*
X247791Y105616D01*
X248892Y107522D01*
X249462Y109649D01*
Y111851D01*
X248892Y113978D01*
X247791Y115884D01*
X246234Y117441D01*
X244328Y118542D01*
X242201Y119112D01*
D02*
G37*
G36*
X237262Y215762D02*
X225238D01*
Y208238D01*
X237262D01*
Y208674D01*
X242415D01*
X242780Y208309D01*
Y203188D01*
X253704D01*
Y204774D01*
X259022D01*
X261924Y201872D01*
Y186628D01*
X202232Y126936D01*
X201511Y125857D01*
X201258Y124584D01*
Y88962D01*
X201138D01*
Y78038D01*
X203482D01*
Y71300D01*
X203735Y70027D01*
X204456Y68948D01*
X211470Y61934D01*
X211445Y61807D01*
Y53807D01*
X211814Y51949D01*
X212867Y50374D01*
X214442Y49322D01*
X216300Y48952D01*
X224300D01*
X226158Y49322D01*
X227733Y50374D01*
X228786Y51949D01*
X229155Y53807D01*
Y61807D01*
X228786Y63665D01*
X227733Y65241D01*
X226158Y66293D01*
X224300Y66663D01*
X216300D01*
X216173Y66638D01*
X210133Y72678D01*
Y78038D01*
X210962D01*
Y88962D01*
X207910D01*
Y105202D01*
X209180Y105444D01*
X210566Y104059D01*
X212472Y102958D01*
X214599Y102388D01*
X216801D01*
X218928Y102958D01*
X220834Y104059D01*
X222391Y105616D01*
X223492Y107522D01*
X224062Y109649D01*
Y111851D01*
X223492Y113978D01*
X222391Y115884D01*
X220834Y117441D01*
X218928Y118542D01*
X216801Y119112D01*
X214599D01*
X212472Y118542D01*
X210566Y117441D01*
X209180Y116055D01*
X207910Y116298D01*
Y123206D01*
X267602Y182898D01*
X268323Y183977D01*
X268576Y185250D01*
Y203250D01*
X268323Y204523D01*
X267602Y205602D01*
X262752Y210452D01*
X261673Y211173D01*
X260400Y211426D01*
X253704D01*
Y213012D01*
X247484D01*
X246144Y214352D01*
X245065Y215073D01*
X243792Y215326D01*
X237262D01*
Y215762D01*
D02*
G37*
G36*
X191401Y119112D02*
X189199D01*
X187072Y118542D01*
X185166Y117441D01*
X183609Y115884D01*
X182508Y113978D01*
X181938Y111851D01*
Y109649D01*
X182508Y107522D01*
X183609Y105616D01*
X185166Y104059D01*
X187072Y102958D01*
X189199Y102388D01*
X191401D01*
X193528Y102958D01*
X195434Y104059D01*
X196991Y105616D01*
X198092Y107522D01*
X198662Y109649D01*
Y111851D01*
X198092Y113978D01*
X196991Y115884D01*
X195434Y117441D01*
X193528Y118542D01*
X191401Y119112D01*
D02*
G37*
G36*
X166001D02*
X163799D01*
X161672Y118542D01*
X159766Y117441D01*
X158209Y115884D01*
X157108Y113978D01*
X156538Y111851D01*
Y109649D01*
X157108Y107522D01*
X158209Y105616D01*
X159766Y104059D01*
X161672Y102958D01*
X163799Y102388D01*
X166001D01*
X168128Y102958D01*
X170034Y104059D01*
X171591Y105616D01*
X172692Y107522D01*
X173262Y109649D01*
Y111851D01*
X172692Y113978D01*
X171591Y115884D01*
X170034Y117441D01*
X168128Y118542D01*
X166001Y119112D01*
D02*
G37*
G36*
X140601D02*
X138399D01*
X136272Y118542D01*
X134366Y117441D01*
X132809Y115884D01*
X131708Y113978D01*
X131138Y111851D01*
Y109649D01*
X131708Y107522D01*
X132809Y105616D01*
X134366Y104059D01*
X136272Y102958D01*
X138399Y102388D01*
X140601D01*
X142728Y102958D01*
X144634Y104059D01*
X146191Y105616D01*
X147292Y107522D01*
X147862Y109649D01*
Y111851D01*
X147292Y113978D01*
X146191Y115884D01*
X144634Y117441D01*
X142728Y118542D01*
X140601Y119112D01*
D02*
G37*
G36*
X115201D02*
X112999D01*
X110872Y118542D01*
X108966Y117441D01*
X107409Y115884D01*
X106308Y113978D01*
X105738Y111851D01*
Y109649D01*
X106308Y107522D01*
X107409Y105616D01*
X108966Y104059D01*
X110872Y102958D01*
X112999Y102388D01*
X115201D01*
X117328Y102958D01*
X119234Y104059D01*
X120791Y105616D01*
X121892Y107522D01*
X122462Y109649D01*
Y111851D01*
X121892Y113978D01*
X120791Y115884D01*
X119234Y117441D01*
X117328Y118542D01*
X115201Y119112D01*
D02*
G37*
G36*
X39053Y321912D02*
X36746D01*
X34518Y321315D01*
X32520Y320161D01*
X30889Y318530D01*
X29735Y316532D01*
X29138Y314303D01*
Y311996D01*
X29735Y309768D01*
X30889Y307770D01*
X32520Y306139D01*
X34518Y304985D01*
X35828Y304634D01*
Y271252D01*
X34672Y270942D01*
X32766Y269841D01*
X31209Y268284D01*
X30108Y266378D01*
X29538Y264251D01*
Y262049D01*
X30108Y259922D01*
X31209Y258016D01*
X32766Y256459D01*
X34449Y255487D01*
Y243712D01*
X32738D01*
Y237491D01*
X27222Y231976D01*
X23650D01*
X22377Y231723D01*
X21298Y231002D01*
X6898Y216602D01*
X6177Y215523D01*
X5924Y214250D01*
Y123680D01*
X6177Y122407D01*
X6898Y121328D01*
X83586Y44640D01*
X84665Y43919D01*
X85938Y43665D01*
X109934D01*
X111207Y43919D01*
X112286Y44640D01*
X116854Y49208D01*
X118124Y48682D01*
Y27812D01*
X118377Y26539D01*
X119098Y25460D01*
X119505Y25054D01*
X119345Y24250D01*
Y16250D01*
X119714Y14392D01*
X120767Y12817D01*
X122342Y11764D01*
X124200Y11395D01*
X132200D01*
X134058Y11764D01*
X135633Y12817D01*
X136686Y14392D01*
X137055Y16250D01*
Y16924D01*
X145420D01*
X145435Y16868D01*
X146589Y14870D01*
X148220Y13239D01*
X150218Y12085D01*
X152446Y11488D01*
X154754D01*
X156982Y12085D01*
X158980Y13239D01*
X160611Y14870D01*
X161765Y16868D01*
X162362Y19096D01*
Y21404D01*
X161765Y23632D01*
X160646Y25569D01*
X164602Y29525D01*
X165323Y30604D01*
X165576Y31877D01*
Y40488D01*
X167712D01*
Y50312D01*
X156788D01*
Y40488D01*
X158924D01*
Y33254D01*
X154682Y29012D01*
X152446D01*
X150218Y28415D01*
X148220Y27261D01*
X146589Y25630D01*
X145435Y23632D01*
X145420Y23576D01*
X137055D01*
Y24250D01*
X136686Y26108D01*
X135633Y27683D01*
X134058Y28736D01*
X132200Y29105D01*
X124860D01*
X124776Y29189D01*
Y50328D01*
X124832Y50342D01*
X126830Y51496D01*
X128461Y53127D01*
X129615Y55125D01*
X130212Y57354D01*
Y59661D01*
X129615Y61889D01*
X128461Y63887D01*
X126830Y65519D01*
X124832Y66672D01*
X122604Y67269D01*
X120296D01*
X118068Y66672D01*
X116070Y65519D01*
X114439Y63887D01*
X113285Y61889D01*
X112688Y59661D01*
Y57354D01*
X113285Y55125D01*
X113314Y55075D01*
X108556Y50317D01*
X104462D01*
X103826Y51587D01*
X104536Y52649D01*
X104905Y54507D01*
Y62507D01*
X104536Y64366D01*
X103483Y65941D01*
X101908Y66993D01*
X100050Y67363D01*
X92050D01*
X91923Y67337D01*
X85976Y73285D01*
Y78038D01*
X87562D01*
Y88962D01*
X85976D01*
Y101080D01*
X85886Y101532D01*
X86977Y102555D01*
X87599Y102388D01*
X89801D01*
X91928Y102958D01*
X93834Y104059D01*
X95391Y105616D01*
X96492Y107522D01*
X97062Y109649D01*
Y111851D01*
X96492Y113978D01*
X95391Y115884D01*
X93834Y117441D01*
X91928Y118542D01*
X89801Y119112D01*
X87599D01*
X85472Y118542D01*
X83566Y117441D01*
X82180Y116055D01*
X80910Y116298D01*
Y166206D01*
X86352Y171648D01*
X87073Y172727D01*
X87326Y174000D01*
Y187518D01*
X87073Y188791D01*
X86352Y189870D01*
X78461Y197761D01*
X77382Y198482D01*
X76861Y198585D01*
X75899Y199329D01*
Y205171D01*
X75899D01*
Y205829D01*
X75899D01*
Y211671D01*
X71478D01*
Y223274D01*
X74078Y225875D01*
X75131Y226311D01*
X76189Y227369D01*
X76762Y228752D01*
Y230248D01*
X76189Y231631D01*
X75131Y232689D01*
X73748Y233262D01*
X72252D01*
X70869Y232689D01*
X69811Y231631D01*
X69375Y230578D01*
X65800Y227004D01*
X65079Y225925D01*
X64826Y224652D01*
Y213750D01*
X64027Y213299D01*
X63556Y213183D01*
X62599Y213823D01*
X61326Y214076D01*
X48512D01*
Y216962D01*
X38688D01*
Y206038D01*
X48512D01*
Y207424D01*
X59948D01*
X60312Y207061D01*
X60405Y205829D01*
Y205171D01*
X60405D01*
Y201985D01*
X59135Y201317D01*
X58086Y201526D01*
X48512D01*
Y204212D01*
X38688D01*
Y193288D01*
X48512D01*
Y194874D01*
X56708D01*
X57359Y194223D01*
X58438Y193502D01*
X59711Y193249D01*
X59942D01*
X60405Y192171D01*
X60405Y192171D01*
Y190350D01*
X60130Y190076D01*
X48512D01*
Y191462D01*
X38688D01*
Y180538D01*
X48512D01*
Y183424D01*
X61508D01*
X62781Y183677D01*
X63860Y184398D01*
X65386Y185924D01*
X68152D01*
X69425Y186177D01*
X69652Y186329D01*
X75899D01*
Y189256D01*
X77072Y189743D01*
X80674Y186141D01*
Y175378D01*
X75232Y169936D01*
X74511Y168857D01*
X74258Y167584D01*
Y106146D01*
X74511Y104873D01*
X75232Y103794D01*
X79324Y99702D01*
Y88962D01*
X77738D01*
Y78038D01*
X79324D01*
Y71907D01*
X79577Y70635D01*
X80298Y69556D01*
X87220Y62634D01*
X87195Y62507D01*
Y54507D01*
X87564Y52649D01*
X87658Y52510D01*
X87055Y51126D01*
X86584Y51049D01*
X12576Y125057D01*
Y212872D01*
X25028Y225324D01*
X28600D01*
X29873Y225577D01*
X30952Y226298D01*
X37441Y232788D01*
X42562D01*
Y243712D01*
X41101D01*
Y255351D01*
X41128Y255358D01*
X43034Y256459D01*
X44591Y258016D01*
X45692Y259922D01*
X46262Y262049D01*
Y264251D01*
X45692Y266378D01*
X44591Y268284D01*
X43034Y269841D01*
X41128Y270942D01*
X39972Y271252D01*
Y304634D01*
X41282Y304985D01*
X43280Y306139D01*
X44911Y307770D01*
X46065Y309768D01*
X46662Y311996D01*
Y314303D01*
X46065Y316532D01*
X44911Y318530D01*
X43280Y320161D01*
X41282Y321315D01*
X39053Y321912D01*
D02*
G37*
G36*
X64401Y119112D02*
X62199D01*
X60072Y118542D01*
X58166Y117441D01*
X56609Y115884D01*
X55508Y113978D01*
X54938Y111851D01*
Y109649D01*
X55508Y107522D01*
X56609Y105616D01*
X58166Y104059D01*
X60072Y102958D01*
X62199Y102388D01*
X64401D01*
X66528Y102958D01*
X68434Y104059D01*
X69991Y105616D01*
X71092Y107522D01*
X71662Y109649D01*
Y111851D01*
X71092Y113978D01*
X69991Y115884D01*
X68434Y117441D01*
X66528Y118542D01*
X64401Y119112D01*
D02*
G37*
G36*
X625900Y119201D02*
X618300D01*
X616520Y118847D01*
X615011Y117839D01*
X614003Y116330D01*
X613649Y114550D01*
Y106950D01*
X614003Y105170D01*
X615011Y103661D01*
X616520Y102653D01*
X618300Y102299D01*
X625900D01*
X627680Y102653D01*
X629189Y103661D01*
X630197Y105170D01*
X630551Y106950D01*
Y114550D01*
X630197Y116330D01*
X629189Y117839D01*
X627680Y118847D01*
X625900Y119201D01*
D02*
G37*
G36*
X224162Y88962D02*
X214338D01*
Y78038D01*
X224162D01*
Y79824D01*
X237738D01*
Y78038D01*
X247262D01*
Y87562D01*
X237738D01*
Y86476D01*
X224162D01*
Y88962D01*
D02*
G37*
G36*
X100762D02*
X90938D01*
Y78038D01*
X100762D01*
Y79824D01*
X113531D01*
Y78038D01*
X123055D01*
Y87562D01*
X113531D01*
Y86476D01*
X100762D01*
Y88962D01*
D02*
G37*
G36*
X775154Y86612D02*
X772847D01*
X770618Y86015D01*
X768620Y84861D01*
X766989Y83230D01*
X765835Y81232D01*
X765238Y79004D01*
Y76696D01*
X765835Y74468D01*
X766989Y72470D01*
X768620Y70839D01*
X770618Y69685D01*
X772847Y69088D01*
X775154D01*
X777382Y69685D01*
X779380Y70839D01*
X781011Y72470D01*
X782165Y74468D01*
X782762Y76696D01*
Y79004D01*
X782165Y81232D01*
X781011Y83230D01*
X779380Y84861D01*
X777382Y86015D01*
X775154Y86612D01*
D02*
G37*
G36*
X246854Y66569D02*
X244547D01*
X242318Y65972D01*
X240320Y64819D01*
X238689Y63187D01*
X237535Y61189D01*
X236938Y58961D01*
Y56654D01*
X237156Y55839D01*
X209019Y27701D01*
X207782Y28415D01*
X205553Y29012D01*
X203246D01*
X201018Y28415D01*
X199020Y27261D01*
X197389Y25630D01*
X196235Y23632D01*
X196220Y23576D01*
X187180D01*
X187165Y23632D01*
X186011Y25630D01*
X184380Y27261D01*
X182382Y28415D01*
X181951Y28530D01*
Y40488D01*
X183712D01*
Y50312D01*
X172788D01*
Y40488D01*
X175299D01*
Y28231D01*
X173620Y27261D01*
X171989Y25630D01*
X170835Y23632D01*
X170238Y21404D01*
Y19096D01*
X170835Y16868D01*
X171989Y14870D01*
X173620Y13239D01*
X175618Y12085D01*
X177847Y11488D01*
X180154D01*
X182382Y12085D01*
X184380Y13239D01*
X186011Y14870D01*
X187165Y16868D01*
X187180Y16924D01*
X196220D01*
X196235Y16868D01*
X197389Y14870D01*
X199020Y13239D01*
X201018Y12085D01*
X203246Y11488D01*
X205553D01*
X207782Y12085D01*
X209780Y13239D01*
X211411Y14870D01*
X212565Y16868D01*
X213162Y19096D01*
Y21404D01*
X212943Y22219D01*
X241081Y50356D01*
X242318Y49643D01*
X244547Y49045D01*
X246854D01*
X249082Y49643D01*
X251080Y50796D01*
X252711Y52427D01*
X253865Y54425D01*
X254462Y56654D01*
Y58961D01*
X253865Y61189D01*
X252711Y63187D01*
X251080Y64819D01*
X249082Y65972D01*
X246854Y66569D01*
D02*
G37*
G36*
X880603Y52012D02*
X878297D01*
X876068Y51415D01*
X874070Y50261D01*
X872439Y48630D01*
X871285Y46632D01*
X870688Y44404D01*
Y42097D01*
X871285Y39868D01*
X872439Y37870D01*
X874070Y36239D01*
X876068Y35085D01*
X878297Y34488D01*
X880603D01*
X882832Y35085D01*
X884830Y36239D01*
X886461Y37870D01*
X887615Y39868D01*
X888212Y42097D01*
Y44404D01*
X887615Y46632D01*
X886461Y48630D01*
X884830Y50261D01*
X882832Y51415D01*
X880603Y52012D01*
D02*
G37*
G36*
X641498Y143762D02*
X640002D01*
X638619Y143189D01*
X637561Y142131D01*
X636988Y140748D01*
Y139252D01*
X637561Y137869D01*
X638619Y136811D01*
X640002Y136238D01*
X641498D01*
X641557Y136263D01*
X736128Y41693D01*
X736128Y41692D01*
X736800Y41243D01*
X737593Y41086D01*
X765695D01*
Y39157D01*
X766064Y37299D01*
X767117Y35724D01*
X768692Y34672D01*
X770550Y34302D01*
X778550D01*
X780408Y34672D01*
X781983Y35724D01*
X783036Y37299D01*
X783405Y39157D01*
Y47157D01*
X783036Y49015D01*
X781983Y50591D01*
X780408Y51643D01*
X778550Y52013D01*
X770550D01*
X768692Y51643D01*
X767117Y50591D01*
X766064Y49015D01*
X765695Y47157D01*
Y45229D01*
X738451D01*
X644488Y139192D01*
X644512Y139252D01*
Y140748D01*
X643939Y142131D01*
X642881Y143189D01*
X641498Y143762D01*
D02*
G37*
%LPD*%
G36*
X714250Y327500D02*
X698250D01*
Y337220D01*
X698247Y337220D01*
X699334Y337791D01*
X701323Y339228D01*
X703007Y341012D01*
X704325Y343082D01*
X705230Y345362D01*
X705692Y347771D01*
X705692Y350225D01*
X705231Y352635D01*
X704326Y354915D01*
X703009Y356985D01*
X701326Y358770D01*
X699338Y360207D01*
X698251Y360779D01*
X698250Y360778D01*
Y370500D01*
X714250D01*
Y327500D01*
D02*
G37*
G36*
X687250Y360780D02*
X687253D01*
X686165Y360209D01*
X684177Y358772D01*
X682493Y356988D01*
X681175Y354918D01*
X680269Y352638D01*
X679808Y350229D01*
X679808Y347775D01*
X680268Y345365D01*
X681174Y343085D01*
X682491Y341015D01*
X684174Y339230D01*
X686162Y337793D01*
X687249Y337221D01*
X687249Y337221D01*
X687250Y337223D01*
Y327500D01*
X671250D01*
Y370500D01*
X687250D01*
Y360780D01*
D02*
G37*
G36*
X863752Y330658D02*
X864831Y329937D01*
X865030Y329898D01*
X865251Y328559D01*
X863870Y327761D01*
X862239Y326130D01*
X861085Y324132D01*
X860488Y321903D01*
Y319597D01*
X861085Y317368D01*
X862239Y315370D01*
X863870Y313739D01*
X865868Y312585D01*
X868096Y311988D01*
X870404D01*
X872632Y312585D01*
X874630Y313739D01*
X876170Y315279D01*
X876574Y315238D01*
X877440Y314872D01*
Y303762D01*
X876170Y303126D01*
X875108Y303836D01*
X873250Y304205D01*
X865250D01*
X863392Y303836D01*
X861817Y302783D01*
X860764Y301208D01*
X860395Y299350D01*
Y297422D01*
X823098D01*
X823098Y297422D01*
X822125Y298523D01*
Y337174D01*
X857236D01*
X863752Y330658D01*
D02*
G37*
G36*
X860395Y291350D02*
X860764Y289492D01*
X861817Y287917D01*
X863392Y286864D01*
X865250Y286495D01*
X873250D01*
X875108Y286864D01*
X876170Y287574D01*
X877440Y286938D01*
Y260644D01*
X824836Y208040D01*
X785859D01*
X785373Y209213D01*
X786910Y210750D01*
X822125D01*
Y291447D01*
X823956Y293278D01*
X860395D01*
Y291350D01*
D02*
G37*
%LPC*%
G36*
X496201Y119112D02*
X493999D01*
X491872Y118542D01*
X489966Y117441D01*
X488409Y115884D01*
X487308Y113978D01*
X486738Y111851D01*
Y109649D01*
X487308Y107522D01*
X488409Y105616D01*
X489966Y104059D01*
X491872Y102958D01*
X493999Y102388D01*
X496201D01*
X498328Y102958D01*
X500234Y104059D01*
X501791Y105616D01*
X502892Y107522D01*
X503462Y109649D01*
Y111851D01*
X502892Y113978D01*
X501791Y115884D01*
X500234Y117441D01*
X498328Y118542D01*
X496201Y119112D01*
D02*
G37*
G36*
X470801D02*
X468599D01*
X466472Y118542D01*
X464566Y117441D01*
X463009Y115884D01*
X461908Y113978D01*
X461338Y111851D01*
Y109649D01*
X461908Y107522D01*
X463009Y105616D01*
X464566Y104059D01*
X466472Y102958D01*
X468599Y102388D01*
X470801D01*
X472928Y102958D01*
X474834Y104059D01*
X476391Y105616D01*
X477492Y107522D01*
X478062Y109649D01*
Y111851D01*
X477492Y113978D01*
X476391Y115884D01*
X474834Y117441D01*
X472928Y118542D01*
X470801Y119112D01*
D02*
G37*
G36*
X445401D02*
X443199D01*
X441072Y118542D01*
X439166Y117441D01*
X437609Y115884D01*
X436508Y113978D01*
X435938Y111851D01*
Y109649D01*
X436508Y107522D01*
X437609Y105616D01*
X439166Y104059D01*
X441072Y102958D01*
X443199Y102388D01*
X445401D01*
X447528Y102958D01*
X449434Y104059D01*
X450991Y105616D01*
X452092Y107522D01*
X452662Y109649D01*
Y111851D01*
X452092Y113978D01*
X450991Y115884D01*
X449434Y117441D01*
X447528Y118542D01*
X445401Y119112D01*
D02*
G37*
%LPD*%
D10*
X864086Y90446D02*
Y125064D01*
X860663Y87022D02*
X864086Y90446D01*
D12*
X824510Y133592D02*
X837500D01*
X811376Y138524D02*
X819578D01*
X808218Y134036D02*
Y135366D01*
X819578Y138524D02*
X824510Y133592D01*
X808218Y135366D02*
X811376Y138524D01*
X853500Y133592D02*
X855558D01*
X864086Y125064D01*
X854529Y129593D02*
X857650Y126471D01*
X853500Y129593D02*
X854529D01*
X845500Y137592D02*
Y147142D01*
X841500Y137592D02*
Y138621D01*
X831533Y148588D02*
X841500Y138621D01*
X853500Y137592D02*
X871600Y155692D01*
X849500Y137592D02*
Y153642D01*
D14*
X858400Y176000D02*
D03*
X871600D02*
D03*
X613150Y354250D02*
D03*
X626350D02*
D03*
X688600Y310500D02*
D03*
X675400D02*
D03*
X250650Y339750D02*
D03*
X263850D02*
D03*
X625850Y427250D02*
D03*
X612650D02*
D03*
X625850Y411750D02*
D03*
X612650D02*
D03*
X748600Y346750D02*
D03*
X735400D02*
D03*
X748600Y334250D02*
D03*
X735400D02*
D03*
X813600Y242250D02*
D03*
X800400D02*
D03*
X813600Y254750D02*
D03*
X800400D02*
D03*
X778600Y217250D02*
D03*
X765400D02*
D03*
Y229750D02*
D03*
X778600D02*
D03*
Y242250D02*
D03*
X765400D02*
D03*
X715400D02*
D03*
X728600D02*
D03*
X715400Y229750D02*
D03*
X728600D02*
D03*
X675400Y260500D02*
D03*
X688600D02*
D03*
X675400Y285500D02*
D03*
X688600D02*
D03*
Y273000D02*
D03*
X675400D02*
D03*
X688600Y298000D02*
D03*
X675400D02*
D03*
X857650Y71093D02*
D03*
X870850D02*
D03*
X812650D02*
D03*
X825850D02*
D03*
X812650Y83593D02*
D03*
X825850D02*
D03*
X913850D02*
D03*
X900650D02*
D03*
X913850Y96093D02*
D03*
X900650D02*
D03*
X857650Y83593D02*
D03*
X870850D02*
D03*
X857650Y96093D02*
D03*
X870850D02*
D03*
X825850D02*
D03*
X812650D02*
D03*
X910850Y125592D02*
D03*
X897650D02*
D03*
X910850Y138092D02*
D03*
X897650D02*
D03*
Y150592D02*
D03*
X910850D02*
D03*
Y163092D02*
D03*
X897650D02*
D03*
X858400D02*
D03*
X871600D02*
D03*
X816900Y188500D02*
D03*
X830100D02*
D03*
X816900Y176000D02*
D03*
X830100D02*
D03*
Y163092D02*
D03*
X816900D02*
D03*
X597850Y84000D02*
D03*
X584650D02*
D03*
X50850Y238250D02*
D03*
X37650D02*
D03*
X82650Y83500D02*
D03*
X95850D02*
D03*
X219250D02*
D03*
X206050D02*
D03*
X211650Y176250D02*
D03*
X224850D02*
D03*
X43600Y186000D02*
D03*
X30400D02*
D03*
X43600Y211500D02*
D03*
X30400D02*
D03*
X43600Y198750D02*
D03*
X30400D02*
D03*
D15*
X594000Y62000D02*
D03*
Y52500D02*
D03*
Y43000D02*
D03*
X620000D02*
D03*
Y62000D02*
D03*
X205250Y212000D02*
D03*
Y202500D02*
D03*
Y193000D02*
D03*
X231250D02*
D03*
Y212000D02*
D03*
D16*
X721500Y162100D02*
D03*
Y148900D02*
D03*
X178250Y45400D02*
D03*
Y58600D02*
D03*
X162250Y45400D02*
D03*
Y58600D02*
D03*
X454000Y184850D02*
D03*
Y171650D02*
D03*
X617250Y173100D02*
D03*
Y159900D02*
D03*
X601500Y173100D02*
D03*
Y159900D02*
D03*
X498500Y193600D02*
D03*
Y180400D02*
D03*
X794750Y312350D02*
D03*
Y299150D02*
D03*
X813000Y110992D02*
D03*
Y124192D02*
D03*
X802008Y175600D02*
D03*
Y162400D02*
D03*
X441507Y41150D02*
D03*
Y54350D02*
D03*
X188258Y207350D02*
D03*
Y194150D02*
D03*
X248242Y208100D02*
D03*
Y194900D02*
D03*
X325500Y338400D02*
D03*
Y351600D02*
D03*
X278750Y339150D02*
D03*
Y352350D02*
D03*
X309750Y338900D02*
D03*
Y352100D02*
D03*
X294193Y352350D02*
D03*
Y339150D02*
D03*
X235758Y338900D02*
D03*
Y352100D02*
D03*
X220250Y339150D02*
D03*
Y352350D02*
D03*
D17*
X749750Y166100D02*
D03*
X743250D02*
D03*
X736750D02*
D03*
Y144400D02*
D03*
X743250D02*
D03*
X749750D02*
D03*
D18*
X724500Y415250D02*
D03*
Y388250D02*
D03*
X775000Y415250D02*
D03*
Y388250D02*
D03*
X749758Y415250D02*
D03*
Y388250D02*
D03*
D19*
X723000Y303750D02*
D03*
Y298750D02*
D03*
Y293750D02*
D03*
Y288750D02*
D03*
Y283750D02*
D03*
X757000D02*
D03*
Y288750D02*
D03*
Y293750D02*
D03*
Y298750D02*
D03*
Y303750D02*
D03*
D20*
X730000Y276750D02*
D03*
X735000D02*
D03*
X740000D02*
D03*
X745000D02*
D03*
X750000D02*
D03*
Y310750D02*
D03*
X745000D02*
D03*
X740000D02*
D03*
X735000D02*
D03*
X730000D02*
D03*
D21*
X740000Y293750D02*
D03*
D22*
X590965Y370750D02*
D03*
X609965D02*
D03*
X600465Y395750D02*
D03*
X629408Y370500D02*
D03*
X648408D02*
D03*
X638908Y395500D02*
D03*
D23*
X837500Y137592D02*
D03*
X841500D02*
D03*
X845500D02*
D03*
X849500D02*
D03*
X853500D02*
D03*
X837500Y133592D02*
D03*
X841500D02*
D03*
X845500D02*
D03*
X849500D02*
D03*
X853500D02*
D03*
X837500Y129593D02*
D03*
X841500D02*
D03*
X845500D02*
D03*
X849500D02*
D03*
X853500D02*
D03*
X837500Y125592D02*
D03*
X841500D02*
D03*
X845500D02*
D03*
X849500D02*
D03*
X853500D02*
D03*
D24*
X466750Y30000D02*
D03*
X517550D02*
D03*
Y72000D02*
D03*
X466750D02*
D03*
D25*
X242500Y82800D02*
D03*
X258500D02*
D03*
X118293D02*
D03*
X134293D02*
D03*
D26*
X68152Y208750D02*
D03*
Y202250D02*
D03*
Y195750D02*
D03*
Y189250D02*
D03*
X112348D02*
D03*
Y195750D02*
D03*
Y202250D02*
D03*
Y208750D02*
D03*
D27*
X571750Y63000D02*
D03*
Y53500D02*
D03*
Y44000D02*
D03*
X546750D02*
D03*
Y53500D02*
D03*
Y63000D02*
D03*
D28*
X437000Y197000D02*
D03*
X427500D02*
D03*
X418000D02*
D03*
Y171000D02*
D03*
X437000D02*
D03*
D29*
X572120Y164700D02*
D03*
Y177400D02*
D03*
Y190100D02*
D03*
Y202800D02*
D03*
X517880D02*
D03*
Y190100D02*
D03*
Y177400D02*
D03*
Y164700D02*
D03*
D30*
X802750Y340500D02*
D03*
X781750D02*
D03*
D50*
X842973Y135041D02*
D03*
X850876Y130994D02*
D03*
X846927Y131064D02*
D03*
X850841Y134874D02*
D03*
X846750Y134898D02*
D03*
X842954Y131000D02*
D03*
D55*
X710250Y349000D02*
D03*
X675250D02*
D03*
D56*
X841513Y133592D02*
X842961Y135041D01*
X842973D01*
X841500Y133592D02*
X841513D01*
X837500Y137592D02*
X841500Y133592D01*
X849500Y129593D02*
Y129606D01*
X850876Y130981D01*
Y130994D01*
X845500Y129593D02*
Y129614D01*
X846927Y131042D01*
Y131064D01*
X849559Y133592D02*
X850841Y134874D01*
X849500Y133592D02*
X849559D01*
X845500Y133620D02*
X846750Y134870D01*
X845500Y133592D02*
Y133620D01*
X846750Y134870D02*
Y134898D01*
X841546Y129593D02*
X842954Y131000D01*
X841500Y129593D02*
X841546D01*
X826908Y137592D02*
X837500D01*
X837500D01*
D57*
X799500Y241350D02*
X800400Y242250D01*
X799500Y233500D02*
Y241350D01*
X786718Y239166D02*
Y250032D01*
X798500Y225270D02*
Y227384D01*
X786718Y239166D02*
X798500Y227384D01*
X782730Y209500D02*
X798500Y225270D01*
X294250Y329750D02*
Y339092D01*
X294193Y339150D02*
X294250Y339092D01*
X278750Y325400D02*
X287201D01*
X287883Y324718D01*
X307651D01*
X316736Y333803D01*
X322620Y348720D02*
X325750Y351850D01*
Y362000D01*
X320120Y348720D02*
X322620D01*
X758588Y341662D02*
X759250Y341000D01*
X751480Y343320D02*
X752030D01*
X753688Y341662D01*
X758588D01*
X748600Y346200D02*
Y346750D01*
Y346200D02*
X751480Y343320D01*
X754757Y336507D02*
X759250Y341000D01*
X748600Y334250D02*
X750857Y336507D01*
X754757D01*
X759250Y341000D02*
X759250D01*
X248000Y194657D02*
X248242Y194900D01*
X248000Y184500D02*
Y194657D01*
X188250Y194142D02*
X188258Y194150D01*
X194811Y200154D02*
Y200704D01*
X188258Y194150D02*
X188808D01*
X194811Y200704D02*
X196607Y202500D01*
X188250Y182750D02*
Y194142D01*
X188808Y194150D02*
X194811Y200154D01*
X19000Y198500D02*
X30150D01*
X30400Y198750D01*
X30500Y174250D02*
Y185900D01*
X30400Y186000D02*
X30500Y185900D01*
X31000Y212100D02*
Y222500D01*
X30400Y211500D02*
X31000Y212100D01*
X598100Y84250D02*
X609000D01*
X597850Y84000D02*
X598100Y84250D01*
X728750Y218250D02*
Y229600D01*
X728600Y229750D02*
X728750Y229600D01*
X794750Y299150D02*
X795100Y299500D01*
X806000D01*
X760230Y276520D02*
X786718Y250032D01*
X760230Y276520D02*
Y283520D01*
X778600Y217800D02*
X781480Y220680D01*
X785858D01*
X788719Y223542D01*
X789656D01*
X778600Y217250D02*
Y217800D01*
X772600Y209500D02*
X782730D01*
X735250Y154314D02*
Y155250D01*
Y154314D02*
X736750Y152814D01*
X724380Y151780D02*
X730844D01*
X734314Y155250D02*
X735250D01*
X730844Y151780D02*
X734314Y155250D01*
X736750Y144400D02*
Y152814D01*
X721500Y148900D02*
X724380Y151780D01*
X846500Y69250D02*
X855807D01*
X819086Y64106D02*
X834240D01*
X855807Y69250D02*
X857650Y71093D01*
X846500Y69250D02*
Y97025D01*
X853500Y104025D01*
X834240Y64106D02*
X842532Y72398D01*
Y91423D01*
X836838Y76588D02*
X837500Y77250D01*
X840254Y93701D02*
X842532Y91423D01*
X831346Y76588D02*
X836838D01*
X828730Y74523D02*
X829280D01*
X825850Y83042D02*
Y83593D01*
Y71642D02*
X828730Y74523D01*
X825850Y71093D02*
Y71642D01*
X828730Y80162D02*
X834588D01*
X837500Y77250D01*
X829280Y74523D02*
X831346Y76588D01*
X825850Y83042D02*
X828730Y80162D01*
X840254Y93701D02*
Y110895D01*
X827000Y106750D02*
X841500Y121250D01*
X825850Y96093D02*
Y104664D01*
X827000Y105814D02*
Y106750D01*
X825850Y104664D02*
X827000Y105814D01*
X841500Y121250D02*
Y125592D01*
X813000Y124192D02*
X813250Y124443D01*
Y134000D01*
X789664Y36836D02*
Y115482D01*
X808218Y134036D01*
X806500Y186250D02*
X807436D01*
X808279Y187092D01*
X816900D01*
X806500Y186250D02*
X807200D01*
X816900Y176550D01*
X806500Y185314D02*
Y186250D01*
X802008Y175600D02*
X802558D01*
X805437Y178480D02*
Y184251D01*
X816900Y176000D02*
Y176550D01*
X802558Y175600D02*
X805437Y178480D01*
Y184251D02*
X806500Y185314D01*
X897650Y125592D02*
X898000Y125242D01*
Y116000D02*
Y125242D01*
X884500Y110000D02*
X902750D01*
X910850Y118100D01*
Y138092D01*
X886000Y138392D02*
X897650Y150042D01*
X897308Y137750D02*
X897650Y138092D01*
X886000Y137750D02*
X897308D01*
X897650Y150042D02*
Y150592D01*
X886000Y137750D02*
Y138392D01*
X911250Y163493D02*
Y175000D01*
X910850Y163092D02*
X911250Y163493D01*
X910850Y150592D02*
Y163092D01*
X885042Y176250D02*
X897650Y163643D01*
X871850Y176250D02*
X885042D01*
X871600Y176000D02*
X871850Y176250D01*
X826798Y43250D02*
X854050D01*
X793629Y32871D02*
X816419D01*
X826798Y43250D01*
X789664Y36836D02*
X793629Y32871D01*
X891912Y88838D02*
X895405D01*
X900650Y83593D02*
Y84143D01*
X897770Y87022D02*
X900650Y84143D01*
X897220Y87022D02*
X897770D01*
X895405Y88838D02*
X897220Y87022D01*
X891250Y89500D02*
X891912Y88838D01*
Y90162D02*
X895270D01*
X891250Y89500D02*
X891912Y90162D01*
X900650Y95542D02*
Y96093D01*
X895270Y90162D02*
X900650Y95542D01*
X815712Y149245D02*
X824750D01*
X853500Y104025D02*
Y125592D01*
X845500Y117889D02*
X846750Y116639D01*
X845500Y117889D02*
Y125592D01*
X846750Y108000D02*
Y116639D01*
X831842Y125592D02*
X837500D01*
X826092Y128750D02*
X826755Y129412D01*
X832771D02*
X832951Y129593D01*
X826755Y129412D02*
X832771D01*
X832951Y129593D02*
X837500D01*
X223680Y355230D02*
Y357494D01*
X227750Y361564D02*
Y362500D01*
X220800Y352350D02*
X223680Y355230D01*
X227750Y362500D02*
X228412Y361838D01*
X220250Y352350D02*
X220800D01*
X228412Y358895D02*
Y361838D01*
X223680Y357494D02*
X227750Y361564D01*
X228412Y358895D02*
X235208Y352100D01*
X729750Y273040D02*
X729770Y273060D01*
X729750Y266569D02*
Y273040D01*
X729681Y266500D02*
X729750Y266569D01*
X729770Y273060D02*
Y276520D01*
X170500Y68250D02*
X170912Y67838D01*
X162800Y58600D02*
X169588Y65388D01*
X170912D02*
X177700Y58600D01*
X134293Y82800D02*
X155950D01*
X169588Y65388D02*
Y67838D01*
X155950Y82800D02*
X170250Y68500D01*
X170912Y65388D02*
Y67838D01*
X169588D02*
X170250Y68500D01*
X590732Y370518D02*
X590965Y370750D01*
X590732Y359982D02*
Y370518D01*
X590500Y359750D02*
X590732Y359982D01*
X798750Y95750D02*
Y111250D01*
X572170Y190050D02*
X684200D01*
X684250Y190000D01*
X572120Y190100D02*
X572170Y190050D01*
X640750Y140000D02*
X737593Y43157D01*
X774550D01*
X582050Y227000D02*
X668683D01*
X545900Y263150D02*
X582050Y227000D01*
X235208Y352100D02*
X235758D01*
X584650Y63400D02*
Y83450D01*
X617750Y62000D02*
X620000D01*
X607600Y72150D02*
X617750Y62000D01*
X595950Y72150D02*
X607600D01*
X584650Y83450D02*
X595950Y72150D01*
X584650Y83450D02*
Y84000D01*
X592750Y34436D02*
X594000Y35686D01*
Y43000D01*
X592750Y33500D02*
Y34436D01*
X542500Y42270D02*
X544230Y44000D01*
X546750D01*
X542500Y34750D02*
Y42270D01*
X546750Y44000D02*
Y53500D01*
X441507Y54350D02*
Y70992D01*
X440500Y72000D02*
X441507Y70992D01*
X258500Y35650D02*
X274650Y19500D01*
X258500Y35650D02*
Y82800D01*
X177700Y58600D02*
X178250D01*
X162250D02*
X162800D01*
X196607Y202500D02*
X205250D01*
X62750Y238250D02*
X65250Y240750D01*
X50850Y238250D02*
X62750D01*
X125088Y199662D02*
Y200836D01*
Y199662D02*
X125750Y199000D01*
X112348Y208750D02*
X117174D01*
X125088Y200836D01*
X117174Y189250D02*
X125088Y197164D01*
Y198338D01*
X125750Y199000D01*
X112348Y189250D02*
X117174D01*
X112348Y195750D02*
X122500D01*
X112348Y202250D02*
X122500D01*
X771500Y415250D02*
X775000D01*
X763662Y423088D02*
X771500Y415250D01*
X763662Y423088D02*
Y427088D01*
X763000Y427750D02*
X763662Y427088D01*
X753257Y415250D02*
X762338Y424330D01*
X749758Y415250D02*
X753257D01*
X762338Y424330D02*
Y427088D01*
X763000Y427750D01*
X738662Y422845D02*
Y426838D01*
X738000Y427500D02*
X738662Y426838D01*
X744258Y417250D02*
X748250D01*
X738662Y422845D02*
X744258Y417250D01*
X749758Y415250D02*
Y415742D01*
X748250Y417250D02*
X749758Y415742D01*
X728000Y415250D02*
X737338Y424588D01*
Y426838D02*
X738000Y427500D01*
X724500Y415250D02*
X728000D01*
X737338Y424588D02*
Y426838D01*
X670436Y266014D02*
X675400Y261050D01*
X668900Y266500D02*
X669386Y266014D01*
X675400Y260500D02*
Y261050D01*
X669386Y266014D02*
X670436D01*
X672520Y269570D02*
X675400Y272450D01*
X668900Y266500D02*
X671970Y269570D01*
X675400Y272450D02*
Y273000D01*
X671970Y269570D02*
X672520D01*
X661000Y266500D02*
X668900D01*
X694632Y308118D02*
X698500Y304250D01*
X698500D01*
X688600Y310500D02*
X690982Y308118D01*
X694632D01*
X690982Y300382D02*
X694632D01*
X688600Y298000D02*
X690982Y300382D01*
X694632D02*
X698500Y304250D01*
X629408Y369250D02*
X636408Y362250D01*
X636500D01*
X629408Y369250D02*
Y370500D01*
X626350Y354250D02*
Y354800D01*
X633138Y361588D01*
X635838D01*
X636500Y362250D01*
X668683Y227000D02*
X729583Y166100D01*
X824500Y140000D02*
X826908Y137592D01*
X824750Y149245D02*
X825407Y148588D01*
X831533D01*
X830100Y163092D02*
Y187092D01*
X765000Y308750D02*
Y310250D01*
X757000Y303750D02*
X760000D01*
X765000Y308750D01*
X713500Y315750D02*
X719770Y309480D01*
X720000Y303750D02*
X723000D01*
X719770Y303980D02*
X720000Y303750D01*
X719770Y303980D02*
Y309480D01*
X723000Y278000D02*
Y283750D01*
X721500Y276500D02*
X723000Y278000D01*
X729770Y276520D02*
X730000Y276750D01*
X718280Y245680D02*
X718830D01*
X715400Y242800D02*
X718280Y245680D01*
X715400Y242250D02*
Y242800D01*
X734967Y261817D02*
Y276717D01*
X718830Y245680D02*
X734967Y261817D01*
X715400Y229750D02*
Y242250D01*
X779795Y293750D02*
X780832Y292714D01*
X820462D02*
X823098Y295350D01*
X757000Y293750D02*
X779795D01*
X780832Y292714D02*
X820462D01*
X823098Y295350D02*
X869250D01*
X757000Y288750D02*
X780150D01*
X813600Y255300D01*
Y242250D02*
Y254750D01*
Y255300D01*
X765400Y216700D02*
X772600Y209500D01*
X765400Y216700D02*
Y217250D01*
X760000Y283750D02*
X760230Y283520D01*
X757000Y283750D02*
X760000D01*
X762520Y245680D02*
X765400Y242800D01*
Y242250D02*
Y242800D01*
X761970Y245680D02*
X762520D01*
X753450Y254200D02*
X761970Y245680D01*
X740000Y254200D02*
X753450D01*
X728600Y242800D02*
X740000Y254200D01*
Y276750D01*
X728600Y242250D02*
Y242800D01*
X775720Y245130D02*
Y248030D01*
X750000Y273750D02*
Y276750D01*
Y273750D02*
X775720Y248030D01*
Y245130D02*
X778600Y242250D01*
Y229750D02*
Y242250D01*
X765400Y217250D02*
Y229750D01*
X714500Y298750D02*
X723000D01*
X710500Y302750D02*
X714500Y298750D01*
X723000Y303750D02*
X723230Y303520D01*
X730230D01*
X714690Y288750D02*
X723000D01*
X712129Y284871D02*
Y286189D01*
X714690Y288750D01*
X711750Y293000D02*
X712500Y293750D01*
X723000D01*
X611558Y352108D02*
Y356393D01*
X726250Y317250D02*
X726500D01*
X730000Y310750D02*
Y313750D01*
X726500Y317250D02*
X730000Y313750D01*
X730230Y303520D02*
X740000Y293750D01*
X749770Y303520D01*
X756770D02*
X757000Y303750D01*
X749770Y303520D02*
X756770D01*
X768000Y298750D02*
X769750Y300500D01*
X757000Y298750D02*
X768000D01*
X740000Y310750D02*
X740230Y310980D01*
Y316730D01*
X744250Y320750D01*
X735400Y334250D02*
Y346750D01*
X735000Y333850D02*
X735400Y334250D01*
X735000Y310750D02*
Y333850D01*
X815458Y113450D02*
X819700D01*
X813000Y110992D02*
X815458Y113450D01*
X819700D02*
X831842Y125592D01*
X774000Y103250D02*
X776436Y105686D01*
Y112436D02*
X798577Y134578D01*
X776436Y105686D02*
Y112436D01*
X798577Y134578D02*
Y159520D01*
X809637Y92662D02*
X809770D01*
X812650Y95542D02*
Y96093D01*
X799950Y43157D02*
Y82975D01*
X809637Y92662D01*
X809770D02*
X812650Y95542D01*
X846174Y108576D02*
X846750Y108000D01*
X812650Y70542D02*
X819086Y64106D01*
X812650Y70542D02*
Y71093D01*
Y96093D02*
X813000Y96442D01*
Y110992D01*
X857650Y96093D02*
Y126471D01*
X812650Y71093D02*
Y83593D01*
X857650D02*
Y84143D01*
X860530Y87022D02*
X860663D01*
X857650Y84143D02*
X860530Y87022D01*
X897650Y163092D02*
Y163643D01*
X871600Y155692D02*
Y163092D01*
X849500Y153642D02*
X858400Y162542D01*
Y163092D01*
X798577Y159520D02*
X802150Y163092D01*
Y162808D02*
X815712Y149245D01*
X802150Y162808D02*
Y163092D01*
X830100Y162542D02*
X845500Y147142D01*
X830100Y162542D02*
Y163092D01*
X802150D02*
X816900D01*
X858400D02*
Y175093D01*
X870850Y71093D02*
X947643D01*
X958750Y82200D01*
X886245Y83593D02*
X893232Y76606D01*
X907414D01*
X913850Y83042D01*
X870850Y83593D02*
X886245D01*
X913850Y83042D02*
Y83593D01*
X886804Y96093D02*
X893790Y103078D01*
X907414D01*
X870850Y96093D02*
X886804D01*
X907414Y103078D02*
X913850Y96643D01*
Y96093D02*
Y96643D01*
Y83593D02*
X934743D01*
X958750Y107600D01*
X921842Y96093D02*
X958750Y133000D01*
X913850Y96093D02*
X921842D01*
X742270Y165120D02*
X743250Y166100D01*
X742214Y164297D02*
X742270Y164353D01*
X743250Y163831D02*
Y165100D01*
Y144400D02*
Y163831D01*
X742270Y164353D02*
Y165120D01*
X739947Y161464D02*
X742214Y163731D01*
Y164297D01*
X722136Y161464D02*
X739947D01*
X729583Y166100D02*
X736750D01*
X606100Y148750D02*
X613820Y156470D01*
X488025Y171000D02*
X510275Y148750D01*
X606100D01*
X613820Y156470D02*
Y157020D01*
X616700Y159900D01*
X617250D01*
X488025Y171000D02*
X488550D01*
X497950Y180400D02*
X498500D01*
X488550Y171000D02*
X497950Y180400D01*
X415000Y63200D02*
Y66842D01*
X409014Y72828D02*
X415000Y66842D01*
X409014Y72828D02*
Y173497D01*
X414053Y178536D01*
X421947D01*
X429483Y171000D01*
X437000D01*
X418000Y168750D02*
X434490Y152260D01*
Y150010D02*
Y152260D01*
X565250Y90500D02*
X570000D01*
X576500Y84000D01*
X584650D01*
X574750Y53500D02*
X584650Y63400D01*
X571750Y53500D02*
X574750D01*
X536014Y106655D02*
X571750Y70919D01*
Y63000D02*
Y70919D01*
X517550Y72000D02*
X534750D01*
X543750Y63000D01*
X546750D01*
X461000Y24250D02*
X466750Y30000D01*
X428550Y24250D02*
X461000D01*
X415000Y37800D02*
X428550Y24250D01*
X224850Y188850D02*
X229000Y193000D01*
X224850Y176250D02*
Y188850D01*
X229000Y193000D02*
X231250D01*
X207500D02*
X211650Y188850D01*
Y176250D02*
Y188850D01*
X205250Y193000D02*
X207500D01*
X212786Y198286D01*
Y206714D01*
X207500Y212000D02*
X212786Y206714D01*
X205250Y212000D02*
X207500D01*
X203000D02*
X205250D01*
X188258Y207350D02*
X198350D01*
X203000Y212000D01*
X184827Y210230D02*
X187708Y207350D01*
X174250Y221357D02*
X184827Y210780D01*
X174250Y221357D02*
Y229000D01*
X187708Y207350D02*
X188258D01*
X184827Y210230D02*
Y210780D01*
X758250Y144400D02*
X774000Y128650D01*
X749750Y144400D02*
X758250D01*
X743250D02*
X749750D01*
X743250Y166100D02*
X749750D01*
X721500Y162100D02*
X722136Y161464D01*
X437000Y171000D02*
X453350D01*
X454000Y171650D01*
X437000Y197000D02*
Y199250D01*
X479986Y242236D01*
Y312583D01*
X490839Y323436D02*
X600961D01*
X606986Y317411D01*
Y316454D02*
Y317411D01*
Y316454D02*
X610290Y313150D01*
X479986Y312583D02*
X490839Y323436D01*
X610290Y313150D02*
X622100D01*
Y263150D02*
Y313150D01*
X596700Y263150D02*
Y313150D01*
X571300Y263150D02*
Y313150D01*
X545900Y263150D02*
Y313150D01*
X520500Y263150D02*
Y313150D01*
X495100Y263150D02*
Y313150D01*
X469700Y263150D02*
Y313150D01*
X444300Y263150D02*
Y313150D01*
X418900Y263150D02*
Y313150D01*
X393500Y263150D02*
Y313150D01*
X368100Y263150D02*
Y313150D01*
X342700Y263150D02*
Y313150D01*
X317300Y263150D02*
Y313150D01*
X291900Y263150D02*
Y313150D01*
X266500Y263150D02*
Y313150D01*
X241100Y263150D02*
Y313150D01*
X215700Y263150D02*
Y313150D01*
X190300Y263150D02*
Y313150D01*
X164900Y263150D02*
Y313150D01*
X139500Y263150D02*
Y313150D01*
X114100Y263150D02*
Y313150D01*
X88700Y263150D02*
Y313150D01*
X63300Y263150D02*
Y313150D01*
X37900Y263150D02*
Y313150D01*
X522260Y190100D02*
X527796Y195636D01*
X520500Y261606D02*
X527796Y254310D01*
X520500Y261606D02*
Y263150D01*
X517880Y190100D02*
X522260D01*
X527796Y195636D02*
Y254310D01*
X510500Y180400D02*
X513500Y177400D01*
X498500Y180400D02*
X510500D01*
X513500Y177400D02*
X517880D01*
X572120D02*
X576500D01*
X580800Y173100D02*
X601500D01*
X576500Y177400D02*
X580800Y173100D01*
X601500D02*
X617250D01*
X645427Y373480D02*
X646677D01*
X636658Y382250D02*
X645427Y373480D01*
X648408Y370500D02*
Y371750D01*
X646677Y373480D02*
X648408Y371750D01*
X611695Y373730D02*
X612945D01*
X621465Y382250D01*
X636658D01*
X609965Y370750D02*
Y372000D01*
X611695Y373730D01*
X609965Y357985D02*
X611558Y356393D01*
X562700Y347093D02*
X606543D01*
X611558Y352108D01*
X609965Y357985D02*
Y370750D01*
X625850Y411200D02*
X637178Y399873D01*
Y397230D02*
Y399873D01*
X625850Y411200D02*
Y411750D01*
X637178Y397230D02*
X638908Y395500D01*
X602195Y400745D02*
X612650Y411200D01*
X602195Y397480D02*
Y400745D01*
X612650Y411200D02*
Y411750D01*
X600465Y395750D02*
X602195Y397480D01*
X625850Y411750D02*
Y427250D01*
X612650Y411750D02*
Y427250D01*
X619750Y434900D02*
Y452000D01*
X612650Y427800D02*
X619750Y434900D01*
X612650Y427250D02*
Y427800D01*
X623980Y39020D02*
Y41270D01*
X636205Y22045D02*
X641250Y17000D01*
X620000Y43000D02*
X622250D01*
X623980Y41270D01*
Y39020D02*
X636205Y26795D01*
Y22045D02*
Y26795D01*
X580500Y44000D02*
X587270Y50770D01*
X592270D01*
X594000Y52500D01*
X571750Y44000D02*
X580500D01*
X434490Y150010D02*
X449250Y135250D01*
X418000Y168750D02*
Y171000D01*
X449250Y135250D02*
X509981D01*
X536014Y109217D01*
Y106655D02*
Y109217D01*
X316736Y333803D02*
Y336912D01*
X318224Y338400D01*
X325500D01*
X309750Y338900D02*
X310300D01*
X320120Y348720D01*
X309500Y352350D02*
X309750Y352100D01*
X294193Y352350D02*
X309500D01*
X278750D02*
X294193D01*
X235758Y338900D02*
X249800D01*
X250650Y339750D01*
Y322700D02*
Y339750D01*
X241100Y313150D02*
X250650Y322700D01*
X220800Y339150D02*
X223680Y336270D01*
Y330570D02*
X241100Y313150D01*
X220250Y339150D02*
X220800D01*
X223680Y330570D02*
Y336270D01*
X278750Y325400D02*
Y339150D01*
X266500Y313150D02*
X278750Y325400D01*
X264450Y339150D02*
X278750D01*
X263850Y339750D02*
X264450Y339150D01*
D58*
X753257Y388250D02*
X765512Y375995D01*
Y332770D02*
Y375995D01*
X757867Y325125D02*
X765512Y332770D01*
X9250Y214250D02*
X23650Y228650D01*
X9250Y123680D02*
X85938Y46991D01*
X9250Y123680D02*
Y214250D01*
X61236Y196575D02*
X61720Y196091D01*
X67811D01*
X44150Y198200D02*
X58086D01*
X67811Y196091D02*
X68493Y195409D01*
X58086Y198200D02*
X59711Y196575D01*
X61236D01*
X43600Y198750D02*
X44150Y198200D01*
X61508Y186750D02*
X64008Y189250D01*
X68152D01*
X43600Y186750D02*
X61508D01*
X741799Y192034D02*
Y196049D01*
X734750Y184985D02*
X741799Y192034D01*
X734750Y184714D02*
Y184985D01*
X741799Y196049D02*
X750464Y204714D01*
X440500Y72000D02*
X466750D01*
X426777D02*
X440500D01*
X750464Y204714D02*
X826214D01*
X866104Y333010D02*
X873276D01*
X880766Y325520D01*
X826214Y204714D02*
X880766Y259266D01*
X802750Y340500D02*
X858614D01*
X866104Y333010D01*
X880766Y259266D02*
Y325520D01*
X698855Y318716D02*
X710500Y307071D01*
Y302750D02*
Y307071D01*
X675325Y310975D02*
Y348925D01*
X682994Y318716D02*
X698855D01*
X680585Y316308D02*
X682994Y318716D01*
X680585Y316236D02*
Y316308D01*
X675325Y310975D02*
X680585Y316236D01*
X675325Y310575D02*
Y310975D01*
X697450Y262700D02*
X712129Y277379D01*
Y284871D01*
X688600Y285500D02*
X704250D01*
X711750Y293000D01*
X688600Y261050D02*
X690250Y262700D01*
X688600Y260500D02*
Y261050D01*
X690250Y262700D02*
X697450D01*
X688600Y273000D02*
Y285500D01*
X675400D02*
Y298000D01*
Y310500D01*
X675325Y310575D02*
X675400Y310500D01*
X675250Y349000D02*
X675325Y348925D01*
X622250Y342500D02*
X642500D01*
X614800Y349950D02*
Y352600D01*
Y349950D02*
X622250Y342500D01*
X613150Y354250D02*
X614800Y352600D01*
X642500Y342500D02*
X649000Y349000D01*
X675250D01*
X710250Y331500D02*
X724500Y317250D01*
X710250Y331500D02*
Y349000D01*
X724500Y317250D02*
X726250D01*
X769750Y300500D02*
X781600Y312350D01*
X794750D01*
X751750Y313000D02*
X754750D01*
X767750Y326000D01*
X748625Y325125D02*
X757867D01*
X781750Y330000D02*
Y340500D01*
X777750Y326000D02*
X781750Y330000D01*
X767750Y326000D02*
X777750D01*
X798750Y316350D02*
Y336500D01*
X802750Y340500D01*
X796950Y314550D02*
X798750Y316350D01*
X724500Y388250D02*
X749758D01*
X753257D02*
X775000D01*
X749758D02*
X753257D01*
X744250Y320750D02*
X748625Y325125D01*
X417977Y63200D02*
X426777Y72000D01*
X415000Y63200D02*
X417977D01*
X204400Y20250D02*
X206271D01*
X243829Y57807D01*
X245700D01*
X179000Y20250D02*
X204400D01*
X178625Y20625D02*
Y45025D01*
X178250Y45400D02*
X178625Y45025D01*
Y20625D02*
X179000Y20250D01*
X153600D02*
Y23227D01*
X162250Y31877D02*
Y45400D01*
X153600Y23227D02*
X162250Y31877D01*
X128200Y20250D02*
X153600D01*
X121450Y27812D02*
Y58507D01*
Y27812D02*
X128200Y21062D01*
Y20250D02*
Y21062D01*
X37775Y238375D02*
Y263025D01*
X37900Y263150D01*
X37650Y238250D02*
X37775Y238375D01*
X37650Y237700D02*
Y238250D01*
X28600Y228650D02*
X37650Y237700D01*
X23650Y228650D02*
X28600D01*
X85938Y46991D02*
X109934D01*
X121450Y58507D01*
X231250Y212000D02*
X243792D01*
X247693Y208100D01*
X248242D01*
X204584Y124584D02*
X265250Y185250D01*
X260400Y208100D02*
X265250Y203250D01*
Y185250D02*
Y203250D01*
X248242Y208100D02*
X260400D01*
X204584Y84966D02*
X206050Y83500D01*
X204584Y84966D02*
Y124584D01*
X219600Y83150D02*
X242150D01*
X242500Y82800D01*
X219250Y83500D02*
X219600Y83150D01*
X206050Y83500D02*
X206807Y82743D01*
Y71300D02*
X220300Y57807D01*
X206807Y71300D02*
Y82743D01*
X117943Y83150D02*
X118293Y82800D01*
X95850Y83500D02*
X96200Y83150D01*
X117943D01*
X82650Y71907D02*
Y83500D01*
Y71907D02*
X96050Y58507D01*
X84000Y174000D02*
Y187518D01*
X76109Y195409D02*
X84000Y187518D01*
X68493Y195409D02*
X76109D01*
X77584Y106146D02*
Y167584D01*
X84000Y174000D01*
X82650Y83500D02*
Y101080D01*
X77584Y106146D02*
X82650Y101080D01*
X68152Y208750D02*
Y224652D01*
X73000Y229500D01*
X68152Y202250D02*
Y208750D01*
X61326Y210750D02*
X63326Y208750D01*
X68152D01*
X43600Y210750D02*
X61326D01*
D59*
X562700Y347093D02*
D03*
X879450Y43250D02*
D03*
X869250Y346150D02*
D03*
Y320750D02*
D03*
X799950Y43157D02*
D03*
X274650Y19500D02*
D03*
X300050D02*
D03*
X325450D02*
D03*
X204400Y20250D02*
D03*
X179000D02*
D03*
X153600D02*
D03*
X774000Y77850D02*
D03*
Y103250D02*
D03*
X415000Y63200D02*
D03*
X245700Y57807D02*
D03*
X121450Y58507D02*
D03*
X18000Y386200D02*
D03*
X37900Y313150D02*
D03*
X63300D02*
D03*
X88700D02*
D03*
X114100D02*
D03*
X139500D02*
D03*
X266500D02*
D03*
X342700D02*
D03*
X368100D02*
D03*
X393500D02*
D03*
X444300D02*
D03*
X469700D02*
D03*
X520500D02*
D03*
X571300D02*
D03*
X596700D02*
D03*
X545900D02*
D03*
X495100D02*
D03*
X418900D02*
D03*
X317300D02*
D03*
X291900D02*
D03*
X241100D02*
D03*
X215700D02*
D03*
X190300D02*
D03*
X164900D02*
D03*
X958750Y82200D02*
D03*
Y107600D02*
D03*
D60*
X537300Y347093D02*
D03*
X619750Y452000D02*
D03*
X854050Y43250D02*
D03*
X641250Y17000D02*
D03*
X774550Y43157D02*
D03*
X350850Y19500D02*
D03*
X128200Y20250D02*
D03*
X220300Y57807D02*
D03*
X96050Y58507D02*
D03*
X622100Y313150D02*
D03*
D61*
X869250Y295350D02*
D03*
X774000Y128650D02*
D03*
X415000Y37800D02*
D03*
X18000Y360800D02*
D03*
X958750Y133000D02*
D03*
D62*
X215700Y110750D02*
D03*
X241100D02*
D03*
X342700D02*
D03*
X393500D02*
D03*
X469700D02*
D03*
X571300D02*
D03*
X596700D02*
D03*
X545900D02*
D03*
X520500D02*
D03*
X495100D02*
D03*
X444300D02*
D03*
X418900D02*
D03*
X368100D02*
D03*
X317300D02*
D03*
X291900D02*
D03*
X266500D02*
D03*
X190300D02*
D03*
X164900D02*
D03*
X139500D02*
D03*
X114100D02*
D03*
X88700D02*
D03*
X63300D02*
D03*
X37900D02*
D03*
X215700Y263150D02*
D03*
X241100D02*
D03*
X342700D02*
D03*
X393500D02*
D03*
X469700D02*
D03*
X571300D02*
D03*
X596700D02*
D03*
X545900D02*
D03*
X520500D02*
D03*
X495100D02*
D03*
X444300D02*
D03*
X418900D02*
D03*
X368100D02*
D03*
X317300D02*
D03*
X291900D02*
D03*
X266500D02*
D03*
X190300D02*
D03*
X164900D02*
D03*
X139500D02*
D03*
X114100D02*
D03*
X88700D02*
D03*
X63300D02*
D03*
X37900D02*
D03*
D63*
X622100Y110750D02*
D03*
Y263150D02*
D03*
D64*
X799500Y233500D02*
D03*
X294250Y329750D02*
D03*
X325750Y362000D02*
D03*
X759250Y341000D02*
D03*
X248000Y184500D02*
D03*
X188250Y182750D02*
D03*
X19000Y198500D02*
D03*
X30500Y174250D02*
D03*
X31000Y222500D02*
D03*
X609000Y84250D02*
D03*
X728750Y218250D02*
D03*
X806000Y299500D02*
D03*
X789656Y223542D02*
D03*
X735250Y155250D02*
D03*
X846500Y69250D02*
D03*
X837500Y77250D02*
D03*
X827000Y106750D02*
D03*
X813250Y134000D02*
D03*
X806500Y186250D02*
D03*
X898000Y116000D02*
D03*
X884500Y110000D02*
D03*
X840254Y110895D02*
D03*
X886000Y137750D02*
D03*
X911250Y175000D02*
D03*
X884500Y176250D02*
D03*
X891250Y89500D02*
D03*
X839250Y232750D02*
D03*
X835750Y273750D02*
D03*
X835500Y315500D02*
D03*
X227750Y362500D02*
D03*
X729681Y266500D02*
D03*
X170250Y68500D02*
D03*
X590500Y359750D02*
D03*
X798750Y95750D02*
D03*
Y111250D02*
D03*
X16000Y79750D02*
D03*
X80750Y12250D02*
D03*
X363500Y79750D02*
D03*
X304000Y80000D02*
D03*
X656000Y162500D02*
D03*
X549500Y229250D02*
D03*
X340500Y193250D02*
D03*
X684250Y190000D02*
D03*
X734750Y184714D02*
D03*
X640750Y140000D02*
D03*
X700500Y16000D02*
D03*
X967250Y228500D02*
D03*
X968250Y371500D02*
D03*
X890000Y433500D02*
D03*
X683000Y431500D02*
D03*
X493250D02*
D03*
X310750Y436000D02*
D03*
X143750Y436750D02*
D03*
X422750Y135000D02*
D03*
X51700Y360800D02*
D03*
X592750Y33500D02*
D03*
X542500Y34750D02*
D03*
X441507Y41150D02*
D03*
X65250Y240750D02*
D03*
X125750Y199000D02*
D03*
X763000Y427750D02*
D03*
X738000Y427500D02*
D03*
X661000Y266500D02*
D03*
X698500Y304250D02*
D03*
X636500Y362250D02*
D03*
X517550Y30000D02*
D03*
X824500Y140000D02*
D03*
X826092Y128750D02*
D03*
X765000Y310250D02*
D03*
X745000Y289000D02*
D03*
X735250D02*
D03*
X744885Y298635D02*
D03*
X735115D02*
D03*
X713500Y315750D02*
D03*
X721500Y276500D02*
D03*
X753450Y254200D02*
D03*
X800400Y254750D02*
D03*
X735400Y346750D02*
D03*
X846750Y108000D02*
D03*
X824750Y149250D02*
D03*
X488025Y171000D02*
D03*
X565250Y90500D02*
D03*
X174250Y229000D02*
D03*
X73000Y229500D02*
D03*
M02*
