G04*
G04 #@! TF.GenerationSoftware,Altium Limited,Altium Designer,21.6.4 (81)*
G04*
G04 Layer_Color=16711935*
%FSLAX44Y44*%
%MOMM*%
G71*
G04*
G04 #@! TF.SameCoordinates,B5D7AA2C-AE02-420C-9FE3-D908FE65D14F*
G04*
G04*
G04 #@! TF.FilePolarity,Positive*
G04*
G01*
G75*
%ADD12C,0.1524*%
%ADD13C,0.1000*%
G36*
X128623Y82800D02*
X123793Y85800D01*
Y79800D01*
X128623Y82800D01*
D02*
G37*
G36*
X252830D02*
X248000Y85800D01*
Y79800D01*
X252830Y82800D01*
D02*
G37*
D12*
X87202Y214494D02*
G03*
X93298Y214494I3048J0D01*
G01*
X74756Y206874D02*
Y210684D01*
X64850D02*
X74756D01*
X64850Y206874D02*
Y210684D01*
Y206874D02*
X74756D01*
Y200270D02*
Y204080D01*
X64850D02*
X74756D01*
X64850Y200270D02*
Y204080D01*
Y200270D02*
X74756D01*
Y193920D02*
Y197730D01*
X64850D02*
X74756D01*
X64850Y193920D02*
Y197730D01*
Y193920D02*
X74756D01*
Y187316D02*
Y191126D01*
X64850D02*
X74756D01*
X64850Y187316D02*
Y191126D01*
Y187316D02*
X74756D01*
X105744D02*
Y191126D01*
Y187316D02*
X115650D01*
Y191126D01*
X105744D02*
X115650D01*
X105744Y193920D02*
Y197730D01*
Y193920D02*
X115650D01*
Y197730D01*
X105744D02*
X115650D01*
X105744Y200270D02*
Y204080D01*
Y200270D02*
X115650D01*
Y204080D01*
X105744D02*
X115650D01*
X105744Y206874D02*
Y210684D01*
Y206874D02*
X115650D01*
Y210684D01*
X105744D02*
X115650D01*
X74756Y183506D02*
X105744D01*
Y214494D01*
X93298D02*
X105744D01*
X87202D02*
X93298D01*
X74756D02*
X87202D01*
X74756Y183506D02*
Y214494D01*
D13*
X873000Y172000D02*
Y180000D01*
X857000D02*
X873000D01*
X857000Y172000D02*
Y180000D01*
Y172000D02*
X873000D01*
X599000Y67000D02*
X615000D01*
Y38000D02*
Y67000D01*
X599000Y38000D02*
X615000D01*
X599000D02*
Y67000D01*
Y57500D02*
X608500Y67000D01*
X611750Y358250D02*
X627750D01*
Y350250D02*
Y358250D01*
X611750Y350250D02*
X627750D01*
X611750D02*
Y358250D01*
X725500Y147500D02*
Y163500D01*
X717500Y147500D02*
X725500D01*
X717500D02*
Y163500D01*
X725500D01*
X674000Y306500D02*
X690000D01*
X674000D02*
Y314500D01*
X690000D01*
Y306500D02*
Y314500D01*
X249250Y343750D02*
X265250D01*
Y335750D02*
Y343750D01*
X249250Y335750D02*
X265250D01*
X249250D02*
Y343750D01*
X753250Y146750D02*
Y163750D01*
X733250Y146750D02*
X753250D01*
X733250D02*
Y163750D01*
X753250D01*
X746750D02*
X753250Y157250D01*
X174250Y44000D02*
Y60000D01*
X182250D01*
Y44000D02*
Y60000D01*
X174250Y44000D02*
X182250D01*
X158250D02*
Y60000D01*
X166250D01*
Y44000D02*
Y60000D01*
X158250Y44000D02*
X166250D01*
X458000Y170250D02*
Y186250D01*
X450000Y170250D02*
X458000D01*
X450000D02*
Y186250D01*
X458000D01*
X621250Y158500D02*
Y174500D01*
X613250Y158500D02*
X621250D01*
X613250D02*
Y174500D01*
X621250D01*
X605500Y158500D02*
Y174500D01*
X597500Y158500D02*
X605500D01*
X597500D02*
Y174500D01*
X605500D01*
X502500Y179000D02*
Y195000D01*
X494500Y179000D02*
X502500D01*
X494500D02*
Y195000D01*
X502500D01*
X611250Y423250D02*
X627250D01*
X611250D02*
Y431250D01*
X627250D01*
Y423250D02*
Y431250D01*
X611250Y407750D02*
X627250D01*
X611250D02*
Y415750D01*
X627250D01*
Y407750D02*
Y415750D01*
X716500Y385750D02*
X732500D01*
Y417750D01*
X716500D02*
X732500D01*
X716500Y385750D02*
Y417750D01*
X767000Y385750D02*
X783000D01*
Y417750D01*
X767000D02*
X783000D01*
X767000Y385750D02*
Y417750D01*
X741757Y385750D02*
X757757D01*
Y417750D01*
X741757D02*
X757757D01*
X741757Y385750D02*
Y417750D01*
X734000Y342750D02*
X750000D01*
X734000D02*
Y350750D01*
X750000D01*
Y342750D02*
Y350750D01*
X734000Y330250D02*
X750000D01*
X734000D02*
Y338250D01*
X750000D01*
Y330250D02*
Y338250D01*
X798750Y297750D02*
Y313750D01*
X790750Y297750D02*
X798750D01*
X790750D02*
Y313750D01*
X798750D01*
X799000Y238250D02*
X815000D01*
X799000D02*
Y246250D01*
X815000D01*
Y238250D02*
Y246250D01*
X799000Y250750D02*
X815000D01*
X799000D02*
Y258750D01*
X815000D01*
Y250750D02*
Y258750D01*
X764000Y213250D02*
X780000D01*
X764000D02*
Y221250D01*
X780000D01*
Y213250D02*
Y221250D01*
X764000Y233750D02*
X780000D01*
Y225750D02*
Y233750D01*
X764000Y225750D02*
X780000D01*
X764000D02*
Y233750D01*
Y238250D02*
X780000D01*
X764000D02*
Y246250D01*
X780000D01*
Y238250D02*
Y246250D01*
X714000D02*
X730000D01*
Y238250D02*
Y246250D01*
X714000Y238250D02*
X730000D01*
X714000D02*
Y246250D01*
Y233750D02*
X730000D01*
Y225750D02*
Y233750D01*
X714000Y225750D02*
X730000D01*
X714000D02*
Y233750D01*
X674000Y264500D02*
X690000D01*
Y256500D02*
Y264500D01*
X674000Y256500D02*
X690000D01*
X674000D02*
Y264500D01*
Y289500D02*
X690000D01*
Y281500D02*
Y289500D01*
X674000Y281500D02*
X690000D01*
X674000D02*
Y289500D01*
Y269000D02*
X690000D01*
X674000D02*
Y277000D01*
X690000D01*
Y269000D02*
Y277000D01*
X674000Y294000D02*
X690000D01*
X674000D02*
Y302000D01*
X690000D01*
Y294000D02*
Y302000D01*
X722500Y311250D02*
X757500D01*
Y276250D02*
Y311250D01*
X722500Y276250D02*
X757500D01*
X722500D02*
Y311250D01*
Y306250D02*
X727500Y311250D01*
X585865Y376750D02*
Y389750D01*
X615065D01*
Y376750D02*
Y389750D01*
X585865Y376750D02*
X615065D01*
X585865Y386250D02*
X595365Y376750D01*
X624308Y376500D02*
Y389500D01*
X653508D01*
Y376500D02*
Y389500D01*
X624308Y376500D02*
X653508D01*
X624308Y386000D02*
X633807Y376500D01*
X835300Y140112D02*
X855700D01*
Y123062D02*
Y140112D01*
X835300Y123062D02*
X855700D01*
X835300D02*
Y140112D01*
Y135752D02*
X839660Y140112D01*
X809000Y109592D02*
Y125592D01*
X817000D01*
Y109592D02*
Y125592D01*
X809000Y109592D02*
X817000D01*
X856250Y75093D02*
X872250D01*
Y67092D02*
Y75093D01*
X856250Y67092D02*
X872250D01*
X856250D02*
Y75093D01*
X811250D02*
X827250D01*
Y67092D02*
Y75093D01*
X811250Y67092D02*
X827250D01*
X811250D02*
Y75093D01*
Y87592D02*
X827250D01*
Y79592D02*
Y87592D01*
X811250Y79592D02*
X827250D01*
X811250D02*
Y87592D01*
X899250Y79592D02*
X915250D01*
X899250D02*
Y87592D01*
X915250D01*
Y79592D02*
Y87592D01*
X899250Y92093D02*
X915250D01*
X899250D02*
Y100092D01*
X915250D01*
Y92093D02*
Y100092D01*
X856250Y87592D02*
X872250D01*
Y79592D02*
Y87592D01*
X856250Y79592D02*
X872250D01*
X856250D02*
Y87592D01*
Y100092D02*
X872250D01*
Y92093D02*
Y100092D01*
X856250Y92093D02*
X872250D01*
X856250D02*
Y100092D01*
X811250Y92093D02*
X827250D01*
X811250D02*
Y100092D01*
X827250D01*
Y92093D02*
Y100092D01*
X896250Y121593D02*
X912250D01*
X896250D02*
Y129593D01*
X912250D01*
Y121593D02*
Y129593D01*
X896250Y134093D02*
X912250D01*
X896250D02*
Y142093D01*
X912250D01*
Y134093D02*
Y142093D01*
X896250Y154593D02*
X912250D01*
Y146593D02*
Y154593D01*
X896250Y146593D02*
X912250D01*
X896250D02*
Y154593D01*
Y159093D02*
X912250D01*
X896250D02*
Y167092D01*
X912250D01*
Y159093D02*
Y167092D01*
X857000D02*
X873000D01*
Y159093D02*
Y167092D01*
X857000Y159093D02*
X873000D01*
X857000D02*
Y167092D01*
X815500Y192500D02*
X831500D01*
Y184500D02*
Y192500D01*
X815500Y184500D02*
X831500D01*
X815500D02*
Y192500D01*
X806008Y161000D02*
Y177000D01*
X798008Y161000D02*
X806008D01*
X798008D02*
Y177000D01*
X806008D01*
X815500Y180000D02*
X831500D01*
Y172000D02*
Y180000D01*
X815500Y172000D02*
X831500D01*
X815500D02*
Y180000D01*
Y159093D02*
X831500D01*
X815500D02*
Y167092D01*
X831500D01*
Y159093D02*
Y167092D01*
X583250Y80000D02*
X599250D01*
X583250D02*
Y88000D01*
X599250D01*
Y80000D02*
Y88000D01*
X437508Y39750D02*
Y55750D01*
X445508D01*
Y39750D02*
Y55750D01*
X437508Y39750D02*
X445508D01*
X36250Y234250D02*
X52250D01*
X36250D02*
Y242250D01*
X52250D01*
Y234250D02*
Y242250D01*
X242500Y78800D02*
X258500D01*
X242500D02*
Y86800D01*
X258500D01*
Y78800D02*
Y86800D01*
X81250Y87500D02*
X97250D01*
Y79500D02*
Y87500D01*
X81250Y79500D02*
X97250D01*
X81250D02*
Y87500D01*
X118293Y78800D02*
X134293D01*
X118293D02*
Y86800D01*
X134293D01*
Y78800D02*
Y86800D01*
X204650Y79500D02*
X220650D01*
X204650D02*
Y87500D01*
X220650D01*
Y79500D02*
Y87500D01*
X210250Y180250D02*
X226250D01*
Y172250D02*
Y180250D01*
X210250Y172250D02*
X226250D01*
X210250D02*
Y180250D01*
X29000Y182000D02*
X45000D01*
X29000D02*
Y190000D01*
X45000D01*
Y182000D02*
Y190000D01*
X29000Y207500D02*
X45000D01*
X29000D02*
Y215500D01*
X45000D01*
Y207500D02*
Y215500D01*
X29000Y194750D02*
X45000D01*
X29000D02*
Y202750D01*
X45000D01*
Y194750D02*
Y202750D01*
X210250Y217000D02*
X226250D01*
Y188000D02*
Y217000D01*
X210250Y188000D02*
X226250D01*
X210250D02*
Y217000D01*
Y207500D02*
X219750Y217000D01*
X192257Y192750D02*
Y208750D01*
X184258Y192750D02*
X192257D01*
X184258D02*
Y208750D01*
X192257D01*
X252243Y193500D02*
Y209500D01*
X244242Y193500D02*
X252243D01*
X244242D02*
Y209500D01*
X252243D01*
X551250Y58500D02*
X560750Y68000D01*
X551250Y39000D02*
Y68000D01*
Y39000D02*
X567250D01*
Y68000D01*
X551250D02*
X567250D01*
X321500Y337000D02*
Y353000D01*
X329500D01*
Y337000D02*
Y353000D01*
X321500Y337000D02*
X329500D01*
X274750Y337750D02*
Y353750D01*
X282750D01*
Y337750D02*
Y353750D01*
X274750Y337750D02*
X282750D01*
X305750Y337500D02*
Y353500D01*
X313750D01*
Y337500D02*
Y353500D01*
X305750Y337500D02*
X313750D01*
X442000Y176000D02*
Y192000D01*
X413000Y176000D02*
X442000D01*
X413000D02*
Y192000D01*
X442000D01*
X432500D02*
X442000Y182500D01*
X298193Y337750D02*
Y353750D01*
X290193Y337750D02*
X298193D01*
X290193D02*
Y353750D01*
X298193D01*
X231758Y337500D02*
Y353500D01*
X239757D01*
Y337500D02*
Y353500D01*
X231758Y337500D02*
X239757D01*
X216250Y337750D02*
Y353750D01*
X224250D01*
Y337750D02*
Y353750D01*
X216250Y337750D02*
X224250D01*
X525500Y159240D02*
X564500D01*
X525500D02*
Y208260D01*
X564500D01*
Y159240D02*
Y208260D01*
X551800Y159240D02*
X564500Y171940D01*
M02*
